%TF.GenerationSoftware,Altium Limited,Altium Designer,24.10.1 (45)*%
G04 Layer_Color=16711935*
%FSLAX25Y25*%
%MOIN*%
%TF.SameCoordinates,405BA738-95C1-4717-9A2A-605BB7F835F8*%
%TF.FilePolarity,Negative*%
%TF.FileFunction,Soldermask,Bot*%
%TF.Part,Single*%
G01*
G75*
%TA.AperFunction,ComponentPad*%
%ADD27O,0.04200X0.04900*%
%ADD28O,0.04000X0.06700*%
%ADD30C,0.09200*%
%ADD31C,0.05000*%
%ADD32C,0.07100*%
%ADD33R,0.05900X0.05900*%
%ADD34C,0.05900*%
%ADD38R,0.05200X0.05200*%
%ADD39C,0.05200*%
%ADD59R,0.06400X0.06400*%
%ADD60C,0.06400*%
%ADD61O,0.05556X0.10312*%
%ADD62C,0.05950*%
%ADD63R,0.05950X0.05950*%
%TA.AperFunction,ViaPad*%
%ADD64C,0.17800*%
%ADD65C,0.05800*%
D27*
X131803Y122811D02*
D03*
X149323D02*
D03*
D28*
X157000Y111000D02*
D03*
X124126D02*
D03*
D30*
X272465Y343000D02*
D03*
Y359535D02*
D03*
Y376071D02*
D03*
X289000Y343000D02*
D03*
Y359535D02*
D03*
Y376071D02*
D03*
X274465Y264465D02*
D03*
Y281000D02*
D03*
Y297535D02*
D03*
X291000Y264465D02*
D03*
Y281000D02*
D03*
Y297535D02*
D03*
D31*
X236000Y257000D02*
D03*
Y247000D02*
D03*
Y237000D02*
D03*
D32*
X118000Y356000D02*
D03*
Y346000D02*
D03*
X117000Y321000D02*
D03*
Y311000D02*
D03*
X269000Y114000D02*
D03*
X279000D02*
D03*
X249000D02*
D03*
X239000D02*
D03*
X117000Y250000D02*
D03*
Y240000D02*
D03*
Y285000D02*
D03*
Y275000D02*
D03*
X118000Y393000D02*
D03*
Y383000D02*
D03*
D33*
X234000Y167283D02*
D03*
D34*
X181000Y421000D02*
D03*
Y411000D02*
D03*
Y431000D02*
D03*
Y441000D02*
D03*
X171000D02*
D03*
Y431000D02*
D03*
Y421000D02*
D03*
Y411000D02*
D03*
D38*
X179000Y350000D02*
D03*
D39*
Y340000D02*
D03*
Y330000D02*
D03*
Y320000D02*
D03*
Y310000D02*
D03*
Y300000D02*
D03*
Y290000D02*
D03*
Y280000D02*
D03*
Y270000D02*
D03*
Y260000D02*
D03*
Y250000D02*
D03*
Y240000D02*
D03*
Y230000D02*
D03*
Y220000D02*
D03*
X209000D02*
D03*
Y230000D02*
D03*
Y240000D02*
D03*
Y250000D02*
D03*
Y260000D02*
D03*
Y270000D02*
D03*
Y280000D02*
D03*
Y290000D02*
D03*
Y300000D02*
D03*
Y310000D02*
D03*
Y320000D02*
D03*
Y330000D02*
D03*
Y340000D02*
D03*
Y350000D02*
D03*
D59*
X142000Y435000D02*
D03*
D60*
X116409D02*
D03*
D61*
X166039Y119000D02*
D03*
X214465D02*
D03*
D62*
X190252D02*
D03*
X198126D02*
D03*
X206000D02*
D03*
D63*
X174504D02*
D03*
D64*
X112000Y473000D02*
D03*
X296000D02*
D03*
X297000Y112000D02*
D03*
X112000Y111000D02*
D03*
D65*
X283000Y439000D02*
D03*
X276000Y443000D02*
D03*
X202000Y428000D02*
D03*
X194000Y420000D02*
D03*
X211000Y415000D02*
D03*
X200000Y397000D02*
D03*
X149000Y315000D02*
D03*
X177000Y181000D02*
D03*
X191000Y276000D02*
D03*
X126000Y207000D02*
D03*
X273000Y157000D02*
D03*
X254000Y214000D02*
D03*
X241000Y191000D02*
D03*
X254000Y182000D02*
D03*
X221000Y203000D02*
D03*
X206000Y200000D02*
D03*
X177000Y191000D02*
D03*
X117000Y186000D02*
D03*
X121000Y138000D02*
D03*
X147000Y157000D02*
D03*
X185000Y144000D02*
D03*
X265000Y135000D02*
D03*
X218000Y392000D02*
D03*
X198000Y324000D02*
D03*
X141000Y181000D02*
D03*
X205000Y144000D02*
D03*
%TF.MD5,f83abf6cce1933fee1e70d43c8936cd0*%
M02*
