%TF.GenerationSoftware,Altium Limited,Altium Designer,24.10.1 (45)*%
G04 Layer_Color=0*
%FSLAX25Y25*%
%MOIN*%
%TF.SameCoordinates,405BA738-95C1-4717-9A2A-605BB7F835F8*%
%TF.FilePolarity,Positive*%
%TF.FileFunction,Plated,1,2,PTH,Drill*%
%TF.Part,Single*%
G01*
G75*
%TA.AperFunction,ComponentDrill*%
%ADD71C,0.03500*%
%ADD72C,0.03600*%
%ADD73O,0.02600X0.04000*%
%ADD74O,0.03000X0.05000*%
%ADD75C,0.07200*%
%ADD76C,0.02800*%
%ADD77C,0.05100*%
%ADD78C,0.03900*%
%ADD79C,0.05100*%
%ADD80O,0.02756X0.05906*%
%ADD81C,0.03150*%
%ADD82C,0.03200*%
%TA.AperFunction,ViaDrill,NotFilled*%
%ADD83C,0.12600*%
%ADD84C,0.02800*%
D71*
X181000Y421000D02*
D03*
Y411000D02*
D03*
Y431000D02*
D03*
Y441000D02*
D03*
X171000D02*
D03*
Y431000D02*
D03*
Y421000D02*
D03*
Y411000D02*
D03*
D72*
X142000Y435000D02*
D03*
X116409D02*
D03*
D73*
X131803Y122811D02*
D03*
X149323D02*
D03*
D74*
X157000Y111000D02*
D03*
X124126D02*
D03*
D75*
X272465Y343000D02*
D03*
Y359535D02*
D03*
Y376071D02*
D03*
X289000Y343000D02*
D03*
Y359535D02*
D03*
Y376071D02*
D03*
X274465Y264465D02*
D03*
Y281000D02*
D03*
Y297535D02*
D03*
X291000Y264465D02*
D03*
Y281000D02*
D03*
Y297535D02*
D03*
D76*
X236000Y257000D02*
D03*
Y247000D02*
D03*
Y237000D02*
D03*
D77*
X118000Y356000D02*
D03*
Y346000D02*
D03*
X117000Y321000D02*
D03*
Y311000D02*
D03*
Y250000D02*
D03*
Y240000D02*
D03*
Y285000D02*
D03*
Y275000D02*
D03*
X118000Y393000D02*
D03*
Y383000D02*
D03*
D78*
X234000Y167283D02*
D03*
Y185000D02*
D03*
X208409D02*
D03*
Y167283D02*
D03*
D79*
X269000Y114000D02*
D03*
X279000D02*
D03*
X249000D02*
D03*
X239000D02*
D03*
D80*
X166039Y119000D02*
D03*
X214465D02*
D03*
D81*
X190252D02*
D03*
X198126D02*
D03*
X206000D02*
D03*
X174504D02*
D03*
D82*
X179000Y350000D02*
D03*
Y340000D02*
D03*
Y330000D02*
D03*
Y320000D02*
D03*
Y310000D02*
D03*
Y300000D02*
D03*
Y290000D02*
D03*
Y280000D02*
D03*
Y270000D02*
D03*
Y260000D02*
D03*
Y250000D02*
D03*
Y240000D02*
D03*
Y230000D02*
D03*
Y220000D02*
D03*
X209000D02*
D03*
Y230000D02*
D03*
Y240000D02*
D03*
Y250000D02*
D03*
Y260000D02*
D03*
Y270000D02*
D03*
Y280000D02*
D03*
Y290000D02*
D03*
Y300000D02*
D03*
Y310000D02*
D03*
Y320000D02*
D03*
Y330000D02*
D03*
Y340000D02*
D03*
Y350000D02*
D03*
D83*
X112000Y473000D02*
D03*
X296000D02*
D03*
X297000Y112000D02*
D03*
X112000Y111000D02*
D03*
D84*
X283000Y439000D02*
D03*
X276000Y443000D02*
D03*
X202000Y428000D02*
D03*
X194000Y420000D02*
D03*
X211000Y415000D02*
D03*
X200000Y397000D02*
D03*
X149000Y315000D02*
D03*
X177000Y181000D02*
D03*
X191000Y276000D02*
D03*
X126000Y207000D02*
D03*
X273000Y157000D02*
D03*
X254000Y214000D02*
D03*
X241000Y191000D02*
D03*
X254000Y182000D02*
D03*
X221000Y203000D02*
D03*
X206000Y200000D02*
D03*
X177000Y191000D02*
D03*
X117000Y186000D02*
D03*
X121000Y138000D02*
D03*
X147000Y157000D02*
D03*
X185000Y144000D02*
D03*
X265000Y135000D02*
D03*
X218000Y392000D02*
D03*
X198000Y324000D02*
D03*
X141000Y181000D02*
D03*
X205000Y144000D02*
D03*
%TF.MD5,a3e9f8528d742a7b08f494064d48d1fd*%
M02*
