%TF.GenerationSoftware,Altium Limited,Altium Designer,24.10.1 (45)*%
G04 Layer_Physical_Order=1*
G04 Layer_Color=255*
%FSLAX25Y25*%
%MOIN*%
%TF.SameCoordinates,405BA738-95C1-4717-9A2A-605BB7F835F8*%
%TF.FilePolarity,Positive*%
%TF.FileFunction,Copper,L1,Top,Signal*%
%TF.Part,Single*%
G01*
G75*
%TA.AperFunction,Conductor*%
%ADD10C,0.02000*%
%ADD11C,0.03000*%
%TA.AperFunction,SMDPad,CuDef*%
%ADD12R,0.05300X0.03200*%
%ADD13R,0.03200X0.05300*%
%TA.AperFunction,ConnectorPad*%
%ADD14R,0.03200X0.05300*%
%ADD15R,0.01600X0.05300*%
%ADD16R,0.11400X0.07500*%
%TA.AperFunction,SMDPad,CuDef*%
%ADD17R,0.03150X0.03150*%
G04:AMPARAMS|DCode=18|XSize=77.95mil|YSize=36.61mil|CornerRadius=4.58mil|HoleSize=0mil|Usage=FLASHONLY|Rotation=90.000|XOffset=0mil|YOffset=0mil|HoleType=Round|Shape=RoundedRectangle|*
%AMROUNDEDRECTD18*
21,1,0.07795,0.02746,0,0,90.0*
21,1,0.06880,0.03661,0,0,90.0*
1,1,0.00915,0.01373,0.03440*
1,1,0.00915,0.01373,-0.03440*
1,1,0.00915,-0.01373,-0.03440*
1,1,0.00915,-0.01373,0.03440*
%
%ADD18ROUNDEDRECTD18*%
G04:AMPARAMS|DCode=19|XSize=77.95mil|YSize=127.17mil|CornerRadius=9.74mil|HoleSize=0mil|Usage=FLASHONLY|Rotation=90.000|XOffset=0mil|YOffset=0mil|HoleType=Round|Shape=RoundedRectangle|*
%AMROUNDEDRECTD19*
21,1,0.07795,0.10768,0,0,90.0*
21,1,0.05847,0.12717,0,0,90.0*
1,1,0.01949,0.05384,0.02923*
1,1,0.01949,0.05384,-0.02923*
1,1,0.01949,-0.05384,-0.02923*
1,1,0.01949,-0.05384,0.02923*
%
%ADD19ROUNDEDRECTD19*%
%ADD20R,0.11800X0.04700*%
%ADD21R,0.02200X0.02400*%
%TA.AperFunction,Conductor*%
%ADD22C,0.01500*%
%ADD23C,0.02500*%
%TA.AperFunction,ComponentPad*%
%ADD24C,0.05500*%
%ADD25R,0.05600X0.05600*%
%ADD26C,0.05600*%
%ADD27O,0.04200X0.04900*%
%ADD28O,0.04000X0.06700*%
%ADD29C,0.06200*%
%ADD30C,0.09200*%
%ADD31C,0.05000*%
%ADD32C,0.07100*%
%ADD33R,0.05900X0.05900*%
%ADD34C,0.05900*%
%ADD35O,0.04756X0.09512*%
%ADD36C,0.05150*%
%ADD37R,0.05150X0.05150*%
%ADD38R,0.05200X0.05200*%
%ADD39C,0.05200*%
%TA.AperFunction,ViaPad*%
%ADD40C,0.17000*%
%ADD41C,0.05000*%
G36*
X146917Y419616D02*
X148737Y418862D01*
X150375Y417767D01*
X151768Y416375D01*
X152862Y414737D01*
X153616Y412917D01*
X154000Y410985D01*
Y410000D01*
Y348000D01*
X154029Y347412D01*
X154258Y346258D01*
X154709Y345172D01*
X155362Y344194D01*
X156194Y343362D01*
X157172Y342708D01*
X158258Y342258D01*
X159412Y342029D01*
X160000Y342000D01*
X160886D01*
X162625Y341654D01*
X164263Y340976D01*
X165737Y339991D01*
X166991Y338737D01*
X167976Y337263D01*
X168654Y335625D01*
X169000Y333886D01*
Y333000D01*
Y315722D01*
X168450Y314950D01*
X166200D01*
X165853Y315403D01*
X165017Y316044D01*
X164044Y316447D01*
X163069Y316575D01*
X163000Y316589D01*
X159450D01*
Y316950D01*
X152550D01*
X152550Y316950D01*
X151599Y317068D01*
X151026Y317641D01*
X150274Y318075D01*
X149434Y318300D01*
X148566D01*
X147726Y318075D01*
X146974Y317641D01*
X146359Y317026D01*
X145925Y316274D01*
X145700Y315435D01*
Y314565D01*
X145925Y313726D01*
X146359Y312974D01*
X146974Y312359D01*
X147726Y311925D01*
X148566Y311700D01*
X149434D01*
X150274Y311925D01*
X151026Y312359D01*
X151403Y312736D01*
X152550D01*
Y312150D01*
X153242D01*
Y309850D01*
X152550D01*
Y305050D01*
X155016D01*
X156058Y304008D01*
X156720Y303566D01*
X157500Y303411D01*
X161550D01*
Y303050D01*
X168450D01*
X169000Y302278D01*
Y292290D01*
X166375D01*
Y292877D01*
X161625D01*
Y288127D01*
X166375D01*
Y288212D01*
X169000D01*
Y281663D01*
X165376D01*
X165173Y281623D01*
X162625D01*
Y276873D01*
X167375D01*
Y277585D01*
X169000D01*
Y262039D01*
X157845D01*
X146039Y273845D01*
Y285000D01*
X145884Y285780D01*
X145442Y286442D01*
X121350Y310534D01*
Y311573D01*
X121054Y312679D01*
X120481Y313671D01*
X119671Y314481D01*
X118679Y315054D01*
X117573Y315350D01*
X116427D01*
X115321Y315054D01*
X114329Y314481D01*
X113519Y313671D01*
X112946Y312679D01*
X112650Y311573D01*
Y310427D01*
X112946Y309321D01*
X113519Y308329D01*
X114329Y307519D01*
X115321Y306946D01*
X116427Y306650D01*
X117573D01*
X118679Y306946D01*
X118990Y307126D01*
X141961Y284155D01*
Y273000D01*
X142116Y272220D01*
X142558Y271558D01*
X155558Y258558D01*
X156220Y258116D01*
X157000Y257961D01*
X157000Y257961D01*
X169000D01*
Y252549D01*
X155405D01*
X142152Y265802D01*
X141325Y266355D01*
X140350Y266549D01*
X129056D01*
X121314Y274291D01*
X121350Y274427D01*
Y275573D01*
X121054Y276679D01*
X120481Y277671D01*
X119671Y278481D01*
X118679Y279054D01*
X117573Y279350D01*
X116427D01*
X115321Y279054D01*
X114329Y278481D01*
X113519Y277671D01*
X112946Y276679D01*
X112650Y275573D01*
Y274427D01*
X112946Y273321D01*
X113519Y272329D01*
X114329Y271519D01*
X115321Y270946D01*
X116427Y270650D01*
X117573D01*
X117709Y270687D01*
X126198Y262198D01*
X127024Y261645D01*
X128000Y261451D01*
X139294D01*
X152547Y248198D01*
X153374Y247645D01*
X154350Y247451D01*
X169000D01*
Y242549D01*
X120551D01*
X120481Y242671D01*
X119671Y243481D01*
X118679Y244054D01*
X117573Y244350D01*
X116427D01*
X115321Y244054D01*
X114329Y243481D01*
X113519Y242671D01*
X112946Y241679D01*
X112650Y240573D01*
Y239427D01*
X112946Y238321D01*
X113519Y237329D01*
X114329Y236519D01*
X115321Y235946D01*
X116427Y235650D01*
X117573D01*
X118679Y235946D01*
X119671Y236519D01*
X120481Y237329D01*
X120551Y237451D01*
X169000D01*
Y232039D01*
X147500D01*
X146720Y231884D01*
X146058Y231442D01*
X137566Y222950D01*
X133550D01*
Y222589D01*
X129450D01*
Y222950D01*
X122550D01*
Y218150D01*
X123242D01*
Y215850D01*
X122550D01*
Y211050D01*
X123961D01*
Y209628D01*
X123359Y209026D01*
X122925Y208274D01*
X122700Y207435D01*
Y206565D01*
X122925Y205726D01*
X123359Y204974D01*
X123974Y204359D01*
X124726Y203925D01*
X125566Y203700D01*
X126434D01*
X127274Y203925D01*
X128026Y204359D01*
X128641Y204974D01*
X129075Y205726D01*
X129300Y206565D01*
Y207435D01*
X129075Y208274D01*
X128641Y209026D01*
X128039Y209628D01*
Y211050D01*
X129450D01*
Y215850D01*
X128758D01*
Y218150D01*
X129450D01*
Y218511D01*
X133550D01*
Y218150D01*
X134242D01*
Y215850D01*
X133550D01*
Y211050D01*
X140450D01*
Y211411D01*
X144550D01*
Y211050D01*
X151450D01*
Y215850D01*
X150758D01*
Y218150D01*
X151450D01*
Y218511D01*
X156550D01*
Y218150D01*
X157242D01*
Y215850D01*
X156550D01*
Y213934D01*
X145558Y202942D01*
X145116Y202280D01*
X144961Y201500D01*
Y175817D01*
X143917Y175384D01*
X141985Y175000D01*
X111015D01*
X109083Y175384D01*
X107263Y176138D01*
X105625Y177233D01*
X104233Y178625D01*
X103138Y180263D01*
X102384Y182083D01*
X102000Y184015D01*
Y185000D01*
Y410000D01*
Y410985D01*
X102384Y412917D01*
X103138Y414737D01*
X104233Y416375D01*
X105625Y417767D01*
X107263Y418862D01*
X109083Y419616D01*
X111015Y420000D01*
X144985D01*
X146917Y419616D01*
D02*
G37*
G36*
X287000Y354000D02*
X302000Y354000D01*
X302000Y354000D01*
X302000Y354000D01*
X302006Y353999D01*
X302915Y353868D01*
X303421Y353659D01*
X303912Y353330D01*
X304330Y352912D01*
X304659Y352421D01*
X304885Y351875D01*
X305000Y351295D01*
X305000Y351000D01*
X305000Y118469D01*
X304000Y118152D01*
X302928Y119224D01*
X301405Y120242D01*
X299713Y120943D01*
X297916Y121300D01*
X296084D01*
X294287Y120943D01*
X292595Y120242D01*
X291072Y119224D01*
X289776Y117928D01*
X288758Y116405D01*
X288057Y114713D01*
X287700Y112916D01*
Y111084D01*
X288057Y109287D01*
X288758Y107595D01*
X289776Y106072D01*
X291072Y104776D01*
X292595Y103758D01*
X294287Y103057D01*
X294883Y102939D01*
X294910Y102723D01*
X294812Y101933D01*
X294026Y101654D01*
X292007Y101211D01*
X289949Y101023D01*
X287883Y101092D01*
X285842Y101418D01*
X283857Y101996D01*
X281960Y102816D01*
X280180Y103867D01*
X278545Y105131D01*
X277079Y106588D01*
X275807Y108217D01*
X274747Y109992D01*
X273917Y111884D01*
X273350Y113793D01*
Y114573D01*
X273054Y115679D01*
X273019Y115739D01*
X272992Y115905D01*
X272911Y117970D01*
X273000Y119000D01*
X275000Y130000D01*
X274731Y131617D01*
X275375Y132377D01*
X275375D01*
Y137127D01*
X273812D01*
X273648Y138110D01*
X274295Y138873D01*
X275375D01*
Y139209D01*
X277811D01*
X278592Y139364D01*
X278811Y139511D01*
X280550D01*
Y139150D01*
X281242D01*
Y136250D01*
X281274Y136173D01*
X281350Y136142D01*
X286650D01*
X286726Y136173D01*
X286758Y136250D01*
Y139150D01*
X287450D01*
Y143950D01*
X280550D01*
Y143589D01*
X278113D01*
X277333Y143434D01*
X277113Y143287D01*
X275375D01*
Y143623D01*
X272795D01*
X272656Y144322D01*
X272055Y145771D01*
X271184Y147075D01*
X270075Y148184D01*
X268771Y149055D01*
X267431Y149611D01*
X267368Y149569D01*
X266458Y149192D01*
X265493Y149000D01*
X203000D01*
X202608Y148981D01*
X201839Y148828D01*
X201114Y148528D01*
X200462Y148092D01*
X199908Y147538D01*
X199472Y146886D01*
X199172Y146161D01*
X199019Y145392D01*
X199000Y145000D01*
Y140507D01*
X198808Y139542D01*
X198431Y138632D01*
X197884Y137813D01*
X197187Y137116D01*
X196368Y136569D01*
X195458Y136192D01*
X194492Y136000D01*
X137000D01*
X136507Y136000D01*
X135541Y136192D01*
X134631Y136569D01*
X133812Y137116D01*
X133116Y137812D01*
X132568Y138631D01*
X132191Y139541D01*
X131999Y140507D01*
X131999Y141000D01*
Y164945D01*
X131898Y165539D01*
X131931Y166743D01*
X132199Y167918D01*
X132690Y169017D01*
X133387Y170000D01*
X134262Y170828D01*
X135281Y171469D01*
X136406Y171899D01*
X137000Y172000D01*
X160451Y172000D01*
Y161074D01*
X160442Y161061D01*
X160345Y160570D01*
Y153690D01*
X160442Y153199D01*
X160720Y152783D01*
X160961Y152622D01*
Y148450D01*
X159700D01*
Y147758D01*
X157400D01*
Y148450D01*
X155984D01*
Y152622D01*
X156225Y152783D01*
X156503Y153199D01*
X156600Y153690D01*
Y160570D01*
X156503Y161061D01*
X156225Y161477D01*
X155809Y161755D01*
X155318Y161852D01*
X152572D01*
X152081Y161755D01*
X151665Y161477D01*
X151387Y161061D01*
X151289Y160570D01*
Y159549D01*
X149118D01*
X149026Y159641D01*
X148274Y160075D01*
X147434Y160300D01*
X146566D01*
X145726Y160075D01*
X144974Y159641D01*
X144359Y159026D01*
X143925Y158274D01*
X143700Y157434D01*
Y156566D01*
X143891Y155854D01*
X143666Y155519D01*
X143511Y154738D01*
Y148450D01*
X143150D01*
Y147758D01*
X140250D01*
X140173Y147727D01*
X140142Y147650D01*
Y142350D01*
X140173Y142273D01*
X140250Y142242D01*
X143150D01*
Y141550D01*
X147950D01*
Y148450D01*
X147589D01*
Y153742D01*
X148274Y153925D01*
X149026Y154359D01*
X149118Y154451D01*
X151289D01*
Y153690D01*
X151387Y153199D01*
X151665Y152783D01*
X151906Y152622D01*
Y147547D01*
X151897D01*
X152089Y146085D01*
X152600Y144851D01*
Y141550D01*
X157400D01*
Y142242D01*
X159700D01*
Y141550D01*
X164500D01*
Y144957D01*
X164869Y145849D01*
X165044Y147173D01*
X165039D01*
Y152622D01*
X165280Y152783D01*
X165558Y153199D01*
X165655Y153690D01*
Y160570D01*
X165558Y161061D01*
X165549Y161074D01*
Y172000D01*
X173000D01*
X173000Y172000D01*
X173000Y172000D01*
X173002D01*
X173933Y171932D01*
X174750Y171769D01*
X175842Y171317D01*
X176825Y170660D01*
X177661Y169825D01*
X178317Y168842D01*
X178770Y167750D01*
X179000Y166591D01*
X179000Y166000D01*
X179000Y166000D01*
X179570Y165631D01*
X179797Y165510D01*
X179797Y165510D01*
X179806Y165505D01*
X179806Y165505D01*
X179827Y165494D01*
X180766Y164991D01*
X182026Y164488D01*
X183333Y164126D01*
X184000Y164000D01*
X207789Y163567D01*
X207916Y163533D01*
X208903D01*
X208951Y163546D01*
X239000Y163000D01*
X256000D01*
Y178119D01*
X256650Y178850D01*
X260692D01*
Y168800D01*
X260723Y168723D01*
X260800Y168692D01*
X287200D01*
X287277Y168723D01*
X287308Y168800D01*
Y179450D01*
X287277Y179526D01*
X287200Y179558D01*
X278658D01*
Y184442D01*
X287200D01*
X287277Y184474D01*
X287308Y184550D01*
Y195200D01*
X287277Y195276D01*
X287200Y195308D01*
X260800D01*
X260723Y195276D01*
X260692Y195200D01*
Y185150D01*
X256650D01*
X256000Y185881D01*
Y210119D01*
X256650Y210850D01*
X260692D01*
Y200800D01*
X260723Y200724D01*
X260800Y200692D01*
X287200D01*
X287277Y200724D01*
X287308Y200800D01*
Y211450D01*
X287277Y211526D01*
X287200Y211558D01*
X278658D01*
Y216442D01*
X287200D01*
X287277Y216474D01*
X287308Y216550D01*
Y227200D01*
X287277Y227276D01*
X287200Y227308D01*
X260800D01*
X260723Y227276D01*
X260692Y227200D01*
Y217150D01*
X256650D01*
X256000Y217881D01*
Y236000D01*
Y236985D01*
X256384Y238917D01*
X257138Y240737D01*
X258232Y242375D01*
X259625Y243767D01*
X261263Y244862D01*
X263083Y245616D01*
X265015Y246000D01*
X271000D01*
X271980Y246048D01*
X273903Y246430D01*
X275714Y247181D01*
X277344Y248270D01*
X278730Y249656D01*
X279819Y251286D01*
X280570Y253097D01*
X280952Y255020D01*
X281000Y256000D01*
Y267395D01*
X283167Y269562D01*
X283720Y270389D01*
X283914Y271365D01*
Y322511D01*
X287550D01*
Y322150D01*
X288242D01*
Y319850D01*
X287550D01*
Y315050D01*
X288961D01*
Y302579D01*
X288916Y302567D01*
X287684Y301856D01*
X286679Y300851D01*
X285968Y299620D01*
X285600Y298246D01*
Y296825D01*
X285968Y295451D01*
X286679Y294220D01*
X287684Y293214D01*
X288916Y292503D01*
X290289Y292135D01*
X291711D01*
X293084Y292503D01*
X294316Y293214D01*
X295321Y294220D01*
X296032Y295451D01*
X296400Y296825D01*
Y298246D01*
X296032Y299620D01*
X295321Y300851D01*
X294316Y301856D01*
X293084Y302567D01*
X293039Y302579D01*
Y315050D01*
X294450D01*
Y319850D01*
X293758D01*
Y322150D01*
X294450D01*
Y326950D01*
X287550D01*
Y326589D01*
X283914D01*
Y334100D01*
X283720Y335075D01*
X283167Y335902D01*
X281000Y338070D01*
Y348000D01*
X281000Y348000D01*
X281075Y348969D01*
X281230Y349750D01*
X281683Y350842D01*
X282339Y351825D01*
X283175Y352661D01*
X284158Y353317D01*
X285250Y353769D01*
X286409Y354000D01*
X287000Y354000D01*
D02*
G37*
G36*
X253750Y146769D02*
X254842Y146317D01*
X255825Y145660D01*
X256661Y144825D01*
X257317Y143842D01*
X257769Y142750D01*
X258000Y141591D01*
Y141000D01*
Y112000D01*
Y111507D01*
X257808Y110542D01*
X257431Y109632D01*
X256884Y108813D01*
X256187Y108116D01*
X255368Y107569D01*
X254458Y107192D01*
X253492Y107000D01*
X246705D01*
X246125Y107115D01*
X245579Y107341D01*
X245088Y107670D01*
X244670Y108088D01*
X244341Y108579D01*
X244115Y109125D01*
X244000Y109704D01*
Y110000D01*
Y126000D01*
X243981Y126195D01*
X243831Y126556D01*
X243556Y126831D01*
X243195Y126981D01*
X243000Y127000D01*
X242602D01*
X241867Y127304D01*
X241304Y127867D01*
X241000Y128602D01*
Y129000D01*
Y135242D01*
X242750D01*
X242827Y135274D01*
X242858Y135350D01*
Y140650D01*
X242827Y140726D01*
X242750Y140758D01*
X241000D01*
Y144000D01*
Y144296D01*
X241115Y144875D01*
X241341Y145421D01*
X241670Y145912D01*
X242088Y146330D01*
X242579Y146659D01*
X243125Y146885D01*
X243705Y147000D01*
X252591D01*
X253750Y146769D01*
D02*
G37*
G36*
X148000Y127000D02*
X148493Y127000D01*
X149458Y126808D01*
X150368Y126431D01*
X151187Y125884D01*
X151884Y125187D01*
X152431Y124368D01*
X152808Y123458D01*
X152915Y122920D01*
X153000Y122000D01*
Y122000D01*
X153000D01*
X153000Y122000D01*
Y105000D01*
Y104602D01*
X152696Y103867D01*
X152133Y103305D01*
X151398Y103000D01*
X137000D01*
X136409Y103000D01*
X135250Y103231D01*
X134158Y103683D01*
X133175Y104340D01*
X132340Y105175D01*
X131683Y106158D01*
X131231Y107250D01*
X131000Y108409D01*
X131000Y109000D01*
Y113394D01*
X131154Y114167D01*
X131455Y114895D01*
X131893Y115550D01*
X132450Y116107D01*
X133105Y116545D01*
X133833Y116846D01*
X134606Y117000D01*
X135000D01*
X135294Y117014D01*
X135871Y117129D01*
X136414Y117354D01*
X136903Y117681D01*
X137319Y118097D01*
X137646Y118586D01*
X137871Y119129D01*
X137986Y119706D01*
X138000Y120000D01*
X138000Y120000D01*
Y125398D01*
X138304Y126133D01*
X138867Y126696D01*
X139602Y127000D01*
X143000D01*
X148000Y127000D01*
D02*
G37*
%LPC*%
G36*
X118573Y397350D02*
X117427D01*
X116321Y397054D01*
X115329Y396481D01*
X114519Y395671D01*
X113946Y394679D01*
X113650Y393573D01*
Y392427D01*
X113946Y391321D01*
X114519Y390329D01*
X115329Y389519D01*
X116321Y388946D01*
X117427Y388650D01*
X118573D01*
X119679Y388946D01*
X120671Y389519D01*
X121481Y390329D01*
X121993Y391216D01*
X123419D01*
X130446Y384188D01*
X130446Y384188D01*
X131025Y383802D01*
X131708Y383666D01*
X134550D01*
Y383050D01*
X141450D01*
Y387850D01*
X140758D01*
Y390750D01*
X140726Y390827D01*
X140650Y390858D01*
X135350D01*
X135274Y390827D01*
X135242Y390750D01*
Y387850D01*
X134550D01*
Y387234D01*
X132447D01*
X125419Y394262D01*
X124840Y394649D01*
X124158Y394784D01*
X121993D01*
X121481Y395671D01*
X120671Y396481D01*
X119679Y397054D01*
X118573Y397350D01*
D02*
G37*
G36*
Y387350D02*
X117427D01*
X116321Y387054D01*
X115329Y386481D01*
X114519Y385671D01*
X113946Y384679D01*
X113650Y383573D01*
Y382427D01*
X113946Y381321D01*
X114519Y380329D01*
X115329Y379519D01*
X116321Y378946D01*
X117427Y378650D01*
X118573D01*
X119679Y378946D01*
X120671Y379519D01*
X121481Y380329D01*
X122054Y381321D01*
X122350Y382427D01*
Y383573D01*
X122054Y384679D01*
X121481Y385671D01*
X120671Y386481D01*
X119679Y387054D01*
X118573Y387350D01*
D02*
G37*
G36*
Y360350D02*
X117427D01*
X116321Y360054D01*
X115329Y359481D01*
X114519Y358671D01*
X113946Y357679D01*
X113650Y356573D01*
Y355427D01*
X113946Y354321D01*
X114519Y353329D01*
X115329Y352519D01*
X116321Y351946D01*
X117427Y351650D01*
X118573D01*
X119562Y351915D01*
X121073Y350403D01*
X120459Y349603D01*
X119679Y350054D01*
X118573Y350350D01*
X117427D01*
X116321Y350054D01*
X115329Y349481D01*
X114519Y348671D01*
X113946Y347679D01*
X113650Y346573D01*
Y345427D01*
X113946Y344321D01*
X114519Y343329D01*
X115329Y342519D01*
X116321Y341946D01*
X117427Y341650D01*
X118573D01*
X119679Y341946D01*
X120671Y342519D01*
X121481Y343329D01*
X122054Y344321D01*
X122350Y345427D01*
Y346573D01*
X122054Y347679D01*
X121603Y348459D01*
X122403Y349073D01*
X125288Y346188D01*
X125288Y346188D01*
X125867Y345801D01*
X126550Y345666D01*
X126550Y345666D01*
X134550D01*
Y345050D01*
X141450D01*
Y349850D01*
X140758D01*
Y352750D01*
X140726Y352826D01*
X140650Y352858D01*
X135350D01*
X135274Y352826D01*
X135242Y352750D01*
Y349850D01*
X134550D01*
Y349234D01*
X127289D01*
X122085Y354438D01*
X122350Y355427D01*
Y356573D01*
X122054Y357679D01*
X121481Y358671D01*
X120671Y359481D01*
X119679Y360054D01*
X118573Y360350D01*
D02*
G37*
G36*
X117573Y325350D02*
X116427D01*
X115321Y325054D01*
X114329Y324481D01*
X113519Y323671D01*
X112946Y322679D01*
X112650Y321573D01*
Y320427D01*
X112946Y319321D01*
X113519Y318329D01*
X114329Y317519D01*
X115321Y316946D01*
X116427Y316650D01*
X117573D01*
X118679Y316946D01*
X119671Y317519D01*
X120481Y318329D01*
X120993Y319216D01*
X124419D01*
X128446Y315188D01*
X129025Y314802D01*
X129708Y314666D01*
X134550D01*
Y314050D01*
X141450D01*
Y318850D01*
X140758D01*
Y321750D01*
X140726Y321827D01*
X140650Y321858D01*
X135350D01*
X135274Y321827D01*
X135242Y321750D01*
Y318850D01*
X134550D01*
Y318234D01*
X130447D01*
X126419Y322262D01*
X125840Y322649D01*
X125158Y322784D01*
X120993D01*
X120481Y323671D01*
X119671Y324481D01*
X118679Y325054D01*
X117573Y325350D01*
D02*
G37*
G36*
X159450Y299950D02*
X152550D01*
Y295150D01*
X153242D01*
Y292250D01*
X153273Y292174D01*
X153350Y292142D01*
X158650D01*
X158727Y292174D01*
X158758Y292250D01*
Y295150D01*
X159450D01*
Y295511D01*
X161625D01*
Y294623D01*
X166375D01*
Y299373D01*
X164320D01*
X164228Y299434D01*
X163448Y299589D01*
X159450D01*
Y299950D01*
D02*
G37*
G36*
X117573Y289350D02*
X116427D01*
X115321Y289054D01*
X114329Y288481D01*
X113519Y287671D01*
X112946Y286679D01*
X112650Y285573D01*
Y284427D01*
X112946Y283321D01*
X113519Y282329D01*
X114329Y281519D01*
X115321Y280946D01*
X116427Y280650D01*
X117573D01*
X118679Y280946D01*
X119671Y281519D01*
X120313Y282161D01*
X121955D01*
X131108Y273008D01*
X131770Y272566D01*
X132550Y272411D01*
X133550D01*
Y272050D01*
X140450D01*
Y276850D01*
X139758D01*
Y279750D01*
X139726Y279826D01*
X139650Y279858D01*
X134350D01*
X134274Y279826D01*
X134242Y279750D01*
Y277564D01*
X134061Y277377D01*
X133242Y276973D01*
X132692Y277192D01*
X124242Y285642D01*
X123580Y286084D01*
X122800Y286239D01*
X121171D01*
X121054Y286679D01*
X120481Y287671D01*
X119671Y288481D01*
X118679Y289054D01*
X117573Y289350D01*
D02*
G37*
G36*
X160650Y281308D02*
X155350D01*
X155273Y281276D01*
X155242Y281200D01*
Y278300D01*
X154550D01*
Y273500D01*
X157760D01*
X157766Y273470D01*
X158208Y272808D01*
X159706Y271310D01*
X159706Y271310D01*
X160368Y270868D01*
X161148Y270713D01*
X162625D01*
Y270377D01*
X167375D01*
Y275127D01*
X162625D01*
X162625Y275127D01*
X161689Y275281D01*
Y275300D01*
X161534Y276080D01*
X161450Y276206D01*
Y278300D01*
X160758D01*
Y281200D01*
X160726Y281276D01*
X160650Y281308D01*
D02*
G37*
G36*
X117573Y254350D02*
X116427D01*
X115321Y254054D01*
X114329Y253481D01*
X113519Y252671D01*
X112946Y251679D01*
X112650Y250573D01*
Y249427D01*
X112946Y248321D01*
X113519Y247329D01*
X114329Y246519D01*
X115321Y245946D01*
X116427Y245650D01*
X117573D01*
X118679Y245946D01*
X119671Y246519D01*
X120481Y247329D01*
X120846Y247961D01*
X125155D01*
X126558Y246558D01*
X127220Y246116D01*
X128000Y245961D01*
X135550D01*
X135998Y246050D01*
X139450D01*
Y250850D01*
X138758D01*
Y253750D01*
X138726Y253826D01*
X138650Y253858D01*
X133350D01*
X133273Y253826D01*
X133242Y253750D01*
Y250850D01*
X132550D01*
Y250039D01*
X128845D01*
X127442Y251442D01*
X126780Y251884D01*
X126000Y252039D01*
X120846D01*
X120481Y252671D01*
X119671Y253481D01*
X118679Y254054D01*
X117573Y254350D01*
D02*
G37*
G36*
X123375Y200623D02*
X118625D01*
Y195873D01*
X123375D01*
Y196135D01*
X128550D01*
Y195700D01*
X129242D01*
Y192800D01*
X129273Y192724D01*
X129350Y192692D01*
X134650D01*
X134727Y192724D01*
X134758Y192800D01*
Y195700D01*
X135450D01*
Y200500D01*
X128550D01*
Y200213D01*
X123375D01*
Y200623D01*
D02*
G37*
G36*
Y194127D02*
X118625D01*
Y192261D01*
X116132Y189768D01*
X115690Y189106D01*
X115678Y189048D01*
X114974Y188641D01*
X114359Y188026D01*
X113925Y187274D01*
X113700Y186434D01*
Y185566D01*
X113925Y184726D01*
X114359Y183974D01*
X114974Y183359D01*
X115726Y182925D01*
X116566Y182700D01*
X117434D01*
X118274Y182925D01*
X119026Y183359D01*
X119641Y183974D01*
X120075Y184726D01*
X120300Y185566D01*
Y186434D01*
X120075Y187274D01*
X119830Y187698D01*
X121509Y189377D01*
X123375D01*
Y194127D01*
D02*
G37*
G36*
X291711Y286400D02*
X290289D01*
X288916Y286032D01*
X287684Y285321D01*
X286679Y284316D01*
X285968Y283084D01*
X285600Y281711D01*
Y280289D01*
X285968Y278916D01*
X286679Y277684D01*
X287684Y276679D01*
X288916Y275968D01*
X290289Y275600D01*
X291711D01*
X293084Y275968D01*
X294316Y276679D01*
X295321Y277684D01*
X296032Y278916D01*
X296400Y280289D01*
Y281711D01*
X296032Y283084D01*
X295321Y284316D01*
X294316Y285321D01*
X293084Y286032D01*
X291711Y286400D01*
D02*
G37*
G36*
X276750Y239758D02*
X273250D01*
X273173Y239726D01*
X273142Y239650D01*
Y234350D01*
X273173Y234274D01*
X273250Y234242D01*
X276750D01*
X276827Y234274D01*
X276858Y234350D01*
Y239650D01*
X276827Y239726D01*
X276750Y239758D01*
D02*
G37*
G36*
X288200Y160450D02*
X283400D01*
Y159758D01*
X281100D01*
Y160450D01*
X276300D01*
Y159781D01*
X275300Y159367D01*
X275026Y159641D01*
X274274Y160075D01*
X273434Y160300D01*
X272566D01*
X271726Y160075D01*
X270974Y159641D01*
X270359Y159026D01*
X269925Y158274D01*
X269700Y157434D01*
Y156566D01*
X269925Y155726D01*
X270359Y154974D01*
X270974Y154359D01*
X271726Y153925D01*
X272566Y153700D01*
X273434D01*
X274274Y153925D01*
X275026Y154359D01*
X275300Y154633D01*
X276300Y154219D01*
Y153550D01*
X276672D01*
X276816Y152824D01*
X277258Y152163D01*
X278312Y151108D01*
X278312Y151108D01*
X278974Y150666D01*
X279754Y150511D01*
X279754Y150511D01*
X284746D01*
X285526Y150666D01*
X286188Y151108D01*
X287242Y152163D01*
X287242Y152163D01*
X287684Y152824D01*
X287828Y153550D01*
X288200D01*
Y160450D01*
D02*
G37*
G36*
X181950Y147450D02*
X177150D01*
Y146758D01*
X174250D01*
X174173Y146727D01*
X174142Y146650D01*
Y141350D01*
X174173Y141273D01*
X174250Y141242D01*
X177150D01*
Y140550D01*
X181950D01*
Y140969D01*
X182950Y141383D01*
X182974Y141359D01*
X183726Y140925D01*
X184566Y140700D01*
X185434D01*
X186274Y140925D01*
X187026Y141359D01*
X187641Y141974D01*
X188075Y142726D01*
X188300Y143566D01*
Y144434D01*
X188075Y145274D01*
X187641Y146026D01*
X187026Y146641D01*
X186274Y147075D01*
X185434Y147300D01*
X184566D01*
X183726Y147075D01*
X182974Y146641D01*
X182950Y146617D01*
X181950Y147031D01*
Y147450D01*
D02*
G37*
%LPD*%
D10*
X119890Y147439D02*
G03*
X120900Y145000I3449J0D01*
G01*
X165000Y312550D02*
G03*
X163000Y314550I-2000J0D01*
G01*
X162100Y145000D02*
G03*
X163000Y147173I-2173J2173D01*
G01*
X153945Y147547D02*
G03*
X155000Y145000I3602J0D01*
G01*
X128000D02*
G03*
X128945Y147281I-2281J2281D01*
G01*
X283000Y439000D02*
X289000D01*
X276000Y443000D02*
Y448450D01*
X156000Y314550D02*
X163000D01*
X155775Y314775D02*
X156000Y314550D01*
X149225Y314775D02*
X155775D01*
X149000Y315000D02*
X149225Y314775D01*
X126000Y207000D02*
Y213450D01*
X138000Y130000D02*
X225000D01*
X284746Y152550D02*
X285800Y153604D01*
X278700D02*
X279754Y152550D01*
X278700Y153604D02*
Y157000D01*
X279754Y152550D02*
X284746D01*
X285800Y153604D02*
Y157000D01*
X273000D02*
X278700D01*
X153945Y147547D02*
Y157130D01*
X153815Y157000D02*
X153945Y157130D01*
X147000Y156188D02*
Y157000D01*
X145550Y145000D02*
Y154738D01*
X147000Y156188D01*
X120900Y138100D02*
Y145000D01*
Y138100D02*
X121000Y138000D01*
X117574Y186574D02*
Y188326D01*
X117000Y186000D02*
X117574Y186574D01*
Y188326D02*
X121000Y191752D01*
X171000D02*
X171376Y191376D01*
X176624D01*
X177000Y191000D01*
X200550Y200000D02*
X206000D01*
X221000Y203000D02*
X226450D01*
X244950Y187550D02*
X246000D01*
X241500Y191000D02*
X244950Y187550D01*
X241000Y191000D02*
X241500D01*
X281365Y324550D02*
X291000D01*
X179550Y144000D02*
X185000D01*
X237450Y131450D02*
Y138000D01*
X206000Y119000D02*
X212695Y125695D01*
X231695D01*
X237450Y131450D01*
X265124Y134876D02*
X272876D01*
X273000Y134752D01*
X265000Y135000D02*
X265124Y134876D01*
X281046Y420450D02*
X282100Y419396D01*
X275000Y416000D02*
Y419396D01*
X276054Y420450D01*
X281046D01*
X282100Y416000D02*
Y419396D01*
X285000Y368000D02*
X293000D01*
X297000Y372000D02*
Y408000D01*
X293000Y368000D02*
X297000Y372000D01*
X278071Y374929D02*
X285000Y368000D01*
X272465Y376071D02*
X273607Y374929D01*
X278071D01*
X289000Y416000D02*
X297000Y408000D01*
X282100Y416000D02*
X289000D01*
X226550Y400550D02*
X234000D01*
X218000Y392000D02*
X226550Y400550D01*
X129604Y473550D02*
X133000D01*
X129604Y466450D02*
X133000D01*
X128550Y467504D02*
X129604Y466450D01*
X128550Y467504D02*
Y472496D01*
X129604Y473550D01*
X142000Y435000D02*
Y458500D01*
X134050Y466450D02*
X142000Y458500D01*
X133000Y466450D02*
X134050D01*
X250000Y257000D02*
X251000Y256000D01*
Y244100D02*
Y256000D01*
X250550Y320000D02*
X251275Y320725D01*
X250550Y316604D02*
Y320000D01*
X249496Y315550D02*
X250550Y316604D01*
X244504Y315550D02*
X249496D01*
X243450Y316604D02*
X244504Y315550D01*
X243450Y316604D02*
Y320000D01*
X209000Y310000D02*
X209612Y310612D01*
X212394Y316000D02*
X225000D01*
X209612Y310612D02*
Y313218D01*
X209000Y310000D02*
X240000D01*
X209612Y313218D02*
X212394Y316000D01*
X225000D02*
X250000Y341000D01*
Y353606D02*
X272465Y376071D01*
X250000Y341000D02*
Y353606D01*
X259000Y390000D02*
X275071D01*
X289000Y376071D01*
X243000Y374000D02*
X259000Y390000D01*
X209000Y320000D02*
X243000Y354000D01*
Y374000D01*
X233775Y185225D02*
Y202000D01*
X236000Y237000D02*
X251000D01*
X208409Y185000D02*
X234000D01*
X219500Y270000D02*
X221950Y272450D01*
X209000Y270000D02*
X219500D01*
X221950Y272450D02*
X223000D01*
X165000Y305450D02*
X173550D01*
X179000Y300000D01*
X157500Y305450D02*
X165000D01*
X156000Y306950D02*
X157500Y305450D01*
X147000Y167000D02*
Y201500D01*
X158950Y213450D01*
X209000Y212000D02*
Y220000D01*
X205000Y208000D02*
X209000Y212000D01*
X200550Y208000D02*
X205000D01*
X122800Y284200D02*
X132550Y274450D01*
X137000D01*
X117800Y284200D02*
X122800D01*
X117000Y285000D02*
X117800Y284200D01*
X128000Y248000D02*
X135550D01*
X136000Y248450D01*
X126000Y250000D02*
X128000Y248000D01*
X117000Y250000D02*
X126000D01*
X158950Y213450D02*
X160000D01*
X226645Y138095D02*
Y145005D01*
X225000Y130000D02*
X226550Y131550D01*
Y138000D01*
X273732Y298268D02*
Y315850D01*
X273000Y316450D02*
X273132D01*
X273732Y298268D02*
X274000Y298000D01*
X273132Y316450D02*
X273732Y315850D01*
X291000Y297535D02*
Y317450D01*
X252000Y298000D02*
X274000D01*
X274465Y297535D01*
X240000Y310000D02*
X252000Y298000D01*
X205812Y144000D02*
X206912Y145100D01*
X205000Y144000D02*
X205812D01*
X206912Y145100D02*
X219260D01*
X179000Y220000D02*
X179460Y219540D01*
Y216540D02*
X188000Y208000D01*
X179460Y216540D02*
Y219540D01*
X188000Y208000D02*
X193450D01*
Y200000D02*
Y208000D01*
X137000Y220550D02*
X138050D01*
X147500Y230000D01*
X179000D01*
X148000Y220550D02*
X160000D01*
X137000Y213450D02*
X148000D01*
X126000Y220550D02*
X137000D01*
X163124Y198124D02*
X170876D01*
X171000Y198248D01*
X163000Y198000D02*
X163124Y198124D01*
X121074Y198174D02*
X131926D01*
X132000Y198100D01*
X121000Y198248D02*
X121074Y198174D01*
X118000Y311000D02*
X144000Y285000D01*
X117000Y311000D02*
X118000D01*
X144000Y273000D02*
Y285000D01*
Y273000D02*
X157000Y260000D01*
X163448Y297550D02*
X164000Y296998D01*
X156000Y297550D02*
X163448D01*
X161148Y272752D02*
X165000D01*
X158000Y275900D02*
X159050D01*
X159650Y275300D01*
Y274250D02*
Y275300D01*
Y274250D02*
X161148Y272752D01*
X165376Y279624D02*
X178624D01*
X179000Y280000D01*
X165000Y279248D02*
X165376Y279624D01*
X164000Y290502D02*
X164251Y290251D01*
X178749D01*
X179000Y290000D01*
X157000Y260000D02*
X179000D01*
X280946Y404450D02*
X282000Y403396D01*
X275954Y404450D02*
X280946D01*
X274900Y403396D02*
X275954Y404450D01*
X274900Y400000D02*
Y403396D01*
X282000Y400000D02*
Y403396D01*
Y398950D02*
X289000Y391950D01*
X282000Y398950D02*
Y400000D01*
X289000Y376071D02*
Y391950D01*
X272732Y323817D02*
X273000Y323550D01*
X272732Y323817D02*
Y342733D01*
X239283Y167283D02*
X246000Y174000D01*
Y180450D01*
X234000Y167283D02*
X239283D01*
X209225Y279775D02*
X222775D01*
X223000Y279550D01*
X209000Y280000D02*
X209225Y279775D01*
X223000Y279550D02*
X233000D01*
X223000Y272450D02*
X233000D01*
X200550Y200000D02*
Y208000D01*
X233775Y185225D02*
X234000Y185000D01*
X278113Y141550D02*
X284000D01*
X273000Y141248D02*
X277811D01*
X278113Y141550D01*
X219355Y138095D02*
Y145005D01*
Y138095D02*
X219450Y138000D01*
X219260Y145100D02*
X219355Y145005D01*
X236260Y140240D02*
Y145100D01*
X237450Y138000D02*
Y139050D01*
X236260Y140240D02*
X237450Y139050D01*
X163000Y147173D02*
Y157130D01*
X128945Y147281D02*
Y157000D01*
X119890Y147439D02*
Y157000D01*
D11*
X129826Y180870D02*
G03*
X132000Y183795I-881J2925D01*
G01*
X254000Y214000D02*
X263350D01*
X254000Y182000D02*
X263350D01*
X156950Y354050D02*
X171000Y340000D01*
X179000D01*
X163065Y180935D02*
X176935D01*
X177000Y181000D01*
X163000Y180870D02*
X163065Y180935D01*
X191383Y282183D02*
X194100Y284900D01*
X191000Y276000D02*
X191383Y276383D01*
Y282183D01*
X147000Y157000D02*
X153815D01*
X272732Y342733D02*
X281365Y334100D01*
X272465Y343000D02*
X272732Y342733D01*
X281365Y324550D02*
Y334100D01*
Y271365D02*
Y324550D01*
X274465Y264465D02*
X281365Y271365D01*
X250000Y257000D02*
X267000D01*
X236000D02*
X250000D01*
X267000D02*
X274465Y264465D01*
X222000Y257000D02*
X236000D01*
X209000Y270000D02*
X222000Y257000D01*
X129826Y180870D02*
X140870D01*
X129075D02*
X129826D01*
X251275Y320725D02*
X272465Y341915D01*
Y343000D01*
X197617Y323617D02*
X198000Y324000D01*
X179000Y300000D02*
X197617Y318617D01*
Y323617D01*
X142000Y435000D02*
X157000Y420000D01*
Y367313D02*
Y420000D01*
X156950Y367263D02*
X157000Y367313D01*
X156950Y354050D02*
Y367263D01*
X179000Y300000D02*
X194100Y284900D01*
X235153D01*
X239053Y281000D01*
X274465D01*
X128945Y157000D02*
Y180740D01*
X129075Y180870D01*
X140870D02*
X141000Y181000D01*
X132000Y183795D02*
Y190000D01*
X163000Y180870D02*
Y190000D01*
Y157130D02*
Y180870D01*
X179000Y220000D02*
X194000Y235000D01*
Y255000D02*
X209000Y270000D01*
X194000Y235000D02*
Y255000D01*
X117000Y275000D02*
X128000Y264000D01*
X140350D02*
X154350Y250000D01*
X128000Y264000D02*
X140350D01*
X154350Y250000D02*
X179000D01*
X117000Y240000D02*
X179000D01*
D12*
X276000Y448450D02*
D03*
Y455550D02*
D03*
X246000Y187550D02*
D03*
Y180450D02*
D03*
X137000Y281550D02*
D03*
Y274450D02*
D03*
X284000Y141550D02*
D03*
Y134450D02*
D03*
X234000Y400550D02*
D03*
Y393450D02*
D03*
X159000Y463450D02*
D03*
Y470550D02*
D03*
X178000D02*
D03*
Y463450D02*
D03*
X216000Y470550D02*
D03*
Y463450D02*
D03*
X133000Y466450D02*
D03*
Y473550D02*
D03*
X197000Y470550D02*
D03*
Y463450D02*
D03*
X235000Y470550D02*
D03*
Y463450D02*
D03*
X254000Y470550D02*
D03*
Y463450D02*
D03*
X233000Y272450D02*
D03*
Y279550D02*
D03*
X165000Y305450D02*
D03*
Y312550D02*
D03*
X156000Y307450D02*
D03*
Y314550D02*
D03*
X136000Y255550D02*
D03*
Y248450D02*
D03*
X138000Y323550D02*
D03*
Y316450D02*
D03*
X156000Y297550D02*
D03*
Y290450D02*
D03*
X158000Y275900D02*
D03*
Y283000D02*
D03*
X138000Y354550D02*
D03*
Y347450D02*
D03*
X148000Y220550D02*
D03*
Y213450D02*
D03*
X160000D02*
D03*
Y220550D02*
D03*
X137000D02*
D03*
Y213450D02*
D03*
X126000Y220550D02*
D03*
Y213450D02*
D03*
X291000Y324550D02*
D03*
Y317450D02*
D03*
X273000Y323550D02*
D03*
Y316450D02*
D03*
X132000Y198100D02*
D03*
Y191000D02*
D03*
X251000Y244100D02*
D03*
Y237000D02*
D03*
X223000Y272450D02*
D03*
Y279550D02*
D03*
X163000Y198000D02*
D03*
Y190900D02*
D03*
X138000Y392550D02*
D03*
Y385450D02*
D03*
D13*
X296100Y439000D02*
D03*
X289000D02*
D03*
X200550Y208000D02*
D03*
X193450D02*
D03*
X271450Y237000D02*
D03*
X278550D02*
D03*
X243450Y320000D02*
D03*
X250550D02*
D03*
X193450Y200000D02*
D03*
X200550D02*
D03*
X274900Y400000D02*
D03*
X282000D02*
D03*
X282100Y416000D02*
D03*
X275000D02*
D03*
X237450Y138000D02*
D03*
X244550D02*
D03*
X219450D02*
D03*
X226550D02*
D03*
X138450Y145000D02*
D03*
X145550D02*
D03*
X172450Y144000D02*
D03*
X179550D02*
D03*
X162100Y145000D02*
D03*
X155000D02*
D03*
X128000D02*
D03*
X120900D02*
D03*
X226450Y203000D02*
D03*
X233550D02*
D03*
D14*
X285800Y157000D02*
D03*
X278700D02*
D03*
D15*
X145681Y121531D02*
D03*
X143122D02*
D03*
X140563D02*
D03*
X138004D02*
D03*
X135445D02*
D03*
D16*
X140563Y111000D02*
D03*
D17*
X164000Y290502D02*
D03*
Y296998D02*
D03*
X273000Y134752D02*
D03*
Y141248D02*
D03*
X165000Y279248D02*
D03*
Y272752D02*
D03*
X171000Y191752D02*
D03*
Y198248D02*
D03*
X121000Y191752D02*
D03*
Y198248D02*
D03*
D18*
X153945Y157130D02*
D03*
X163000D02*
D03*
X172055D02*
D03*
X119890Y157000D02*
D03*
X128945D02*
D03*
X138000D02*
D03*
D19*
X163000Y180870D02*
D03*
X128945Y180740D02*
D03*
D20*
X263350Y214000D02*
D03*
X284650D02*
D03*
X263350Y182000D02*
D03*
X284650D02*
D03*
D21*
X223000Y154900D02*
D03*
X226740Y145100D02*
D03*
X219260D02*
D03*
X240000Y154900D02*
D03*
X243740Y145100D02*
D03*
X236260D02*
D03*
D22*
X254250Y463700D02*
X257292D01*
X258200Y464608D01*
X254000Y463450D02*
X254250Y463700D01*
X258200Y464608D02*
Y469392D01*
X257292Y470300D02*
X258200Y469392D01*
X254250Y470300D02*
X257292D01*
X254000Y470550D02*
X254250Y470300D01*
X235000Y463450D02*
X235250Y463700D01*
X238292D02*
X239200Y464608D01*
X238292Y470300D02*
X239200Y469392D01*
Y464608D02*
Y469392D01*
X235250Y470300D02*
X238292D01*
X235000Y470550D02*
X235250Y470300D01*
Y463700D02*
X238292D01*
X216000Y463450D02*
X216250Y463700D01*
X219292D01*
X220200Y464608D01*
X219292Y470300D02*
X220200Y469392D01*
Y464608D02*
Y469392D01*
X216250Y470300D02*
X219292D01*
X216000Y470550D02*
X216250Y470300D01*
X177750Y463700D02*
X178000Y463450D01*
X174708Y463700D02*
X177750D01*
X173800Y464608D02*
X174708Y463700D01*
X173800Y464608D02*
Y469392D01*
X174708Y470300D01*
X177750D01*
X178000Y470550D01*
X154800Y469392D02*
X155708Y470300D01*
X154800Y464608D02*
X155708Y463700D01*
X158750D02*
X159000Y463450D01*
X158750Y470300D02*
X159000Y470550D01*
X155708Y470300D02*
X158750D01*
X154800Y464608D02*
Y469392D01*
X155708Y463700D02*
X158750D01*
X202000Y428000D02*
X209000D01*
X225000Y444000D01*
Y468000D01*
X194000Y420000D02*
Y420947D01*
X195100Y462600D02*
X195950Y463450D01*
X195100Y422047D02*
Y462600D01*
X194000Y420947D02*
X195100Y422047D01*
X194000Y420000D02*
X209000Y405000D01*
X195950Y463450D02*
X197000D01*
X209000Y350000D02*
Y405000D01*
X245500Y478000D02*
X252950Y470550D01*
X235000Y478000D02*
X245500D01*
X252950Y470550D02*
X254000D01*
X225000Y468000D02*
X235000Y478000D01*
Y439000D02*
Y463450D01*
X211000Y415000D02*
X235000Y439000D01*
X187737Y427737D02*
Y472737D01*
X193000Y478000D02*
X207500D01*
X187737Y472737D02*
X193000Y478000D01*
X207500D02*
X214950Y470550D01*
X216000D01*
X181000Y421000D02*
X187737Y427737D01*
X196750Y463700D02*
X197000Y463450D01*
X192800Y464608D02*
X193708Y463700D01*
X196750D01*
X192800Y464608D02*
Y469392D01*
X193708Y470300D01*
X196750D02*
X197000Y470550D01*
X193708Y470300D02*
X196750D01*
X176700Y435300D02*
X181000Y431000D01*
X176700Y435300D02*
Y448841D01*
X178000Y450141D01*
Y463450D01*
X159000Y443000D02*
Y463450D01*
Y443000D02*
X171000Y431000D01*
X180464Y430465D02*
X181000Y431000D01*
X176700Y423700D02*
X180464Y427464D01*
X176700Y388466D02*
Y423700D01*
X180464Y427464D02*
Y430465D01*
X199000Y372527D02*
X200000Y373527D01*
Y397000D01*
X199000Y350000D02*
Y372527D01*
Y350000D02*
X209000Y340000D01*
X193000Y346000D02*
Y409000D01*
X181000Y421000D02*
X193000Y409000D01*
X176700Y388466D02*
X179000Y386166D01*
X181000Y411000D02*
X185450Y406550D01*
Y336450D02*
Y406550D01*
X178131Y335000D02*
X179869D01*
X179000Y330000D02*
X185450Y336450D01*
X179869Y345000D02*
X183150Y341719D01*
X176000Y345000D02*
X179869D01*
Y335000D02*
X183150Y338281D01*
Y341719D01*
X174850Y331719D02*
X178131Y335000D01*
X179000Y350000D02*
Y386166D01*
X193000Y346000D02*
X209000Y330000D01*
X163000Y358000D02*
Y424000D01*
Y358000D02*
X176000Y345000D01*
X163000Y424000D02*
X170000Y431000D01*
X171000D01*
X174850Y328281D02*
Y331719D01*
X178292Y320708D02*
Y324839D01*
X174850Y328281D02*
X178292Y324839D01*
Y320708D02*
X179000Y320000D01*
X135495Y121581D02*
Y127495D01*
X138000Y130000D01*
X135445Y121531D02*
X135495Y121581D01*
X124158Y393000D02*
X131708Y385450D01*
X138000D01*
X118000Y393000D02*
X124158D01*
X126550Y347450D02*
X138000D01*
X118000Y356000D02*
X126550Y347450D01*
X125158Y321000D02*
X129708Y316450D01*
X117000Y321000D02*
X125158D01*
X129708Y316450D02*
X138000D01*
X226550Y138000D02*
X226645Y138095D01*
Y145005D02*
X226740Y145100D01*
D23*
X233800Y202000D02*
Y225200D01*
X209000Y250000D02*
X233800Y225200D01*
X231522Y237478D02*
X235522D01*
X209000Y260000D02*
X231522Y237478D01*
X208409Y167283D02*
X234000D01*
X235522Y237478D02*
X236000Y237000D01*
D24*
X181000Y421000D02*
D03*
Y411000D02*
D03*
Y431000D02*
D03*
Y441000D02*
D03*
X171000D02*
D03*
Y431000D02*
D03*
Y421000D02*
D03*
Y411000D02*
D03*
D25*
X142000Y435000D02*
D03*
D26*
X116409D02*
D03*
D27*
X131803Y122811D02*
D03*
X149323D02*
D03*
D28*
X157000Y111000D02*
D03*
X124126D02*
D03*
D29*
X267504Y351268D02*
D03*
X269504Y272732D02*
D03*
D30*
X272465Y343000D02*
D03*
Y359535D02*
D03*
Y376071D02*
D03*
X289000Y343000D02*
D03*
Y359535D02*
D03*
Y376071D02*
D03*
X274465Y264465D02*
D03*
Y281000D02*
D03*
Y297535D02*
D03*
X291000Y264465D02*
D03*
Y281000D02*
D03*
Y297535D02*
D03*
D31*
X236000Y257000D02*
D03*
Y247000D02*
D03*
Y237000D02*
D03*
D32*
X118000Y356000D02*
D03*
Y346000D02*
D03*
X117000Y321000D02*
D03*
Y311000D02*
D03*
X269000Y114000D02*
D03*
X279000D02*
D03*
X249000D02*
D03*
X239000D02*
D03*
X117000Y250000D02*
D03*
Y240000D02*
D03*
Y285000D02*
D03*
Y275000D02*
D03*
X118000Y393000D02*
D03*
Y383000D02*
D03*
D33*
X234000Y167283D02*
D03*
D34*
Y185000D02*
D03*
X208409D02*
D03*
Y167283D02*
D03*
D35*
X166039Y119000D02*
D03*
X214465D02*
D03*
D36*
X190252D02*
D03*
X198126D02*
D03*
X206000D02*
D03*
D37*
X174504D02*
D03*
D38*
X179000Y350000D02*
D03*
D39*
Y340000D02*
D03*
Y330000D02*
D03*
Y320000D02*
D03*
Y310000D02*
D03*
Y300000D02*
D03*
Y290000D02*
D03*
Y280000D02*
D03*
Y270000D02*
D03*
Y260000D02*
D03*
Y250000D02*
D03*
Y240000D02*
D03*
Y230000D02*
D03*
Y220000D02*
D03*
X209000D02*
D03*
Y230000D02*
D03*
Y240000D02*
D03*
Y250000D02*
D03*
Y260000D02*
D03*
Y270000D02*
D03*
Y280000D02*
D03*
Y290000D02*
D03*
Y300000D02*
D03*
Y310000D02*
D03*
Y320000D02*
D03*
Y330000D02*
D03*
Y340000D02*
D03*
Y350000D02*
D03*
D40*
X112000Y473000D02*
D03*
X296000D02*
D03*
X297000Y112000D02*
D03*
X112000Y111000D02*
D03*
D41*
X283000Y439000D02*
D03*
X276000Y443000D02*
D03*
X202000Y428000D02*
D03*
X194000Y420000D02*
D03*
X211000Y415000D02*
D03*
X200000Y397000D02*
D03*
X149000Y315000D02*
D03*
X177000Y181000D02*
D03*
X191000Y276000D02*
D03*
X126000Y207000D02*
D03*
X273000Y157000D02*
D03*
X254000Y214000D02*
D03*
X241000Y191000D02*
D03*
X254000Y182000D02*
D03*
X221000Y203000D02*
D03*
X206000Y200000D02*
D03*
X177000Y191000D02*
D03*
X117000Y186000D02*
D03*
X121000Y138000D02*
D03*
X147000Y157000D02*
D03*
X185000Y144000D02*
D03*
X265000Y135000D02*
D03*
X218000Y392000D02*
D03*
X198000Y324000D02*
D03*
X141000Y181000D02*
D03*
X205000Y144000D02*
D03*
%TF.MD5,254870199eb889493408387697a309c4*%
M02*
