%TF.GenerationSoftware,Altium Limited,Altium Designer,24.10.1 (45)*%
G04 Layer_Color=2752767*
%FSLAX25Y25*%
%MOIN*%
%TF.SameCoordinates,405BA738-95C1-4717-9A2A-605BB7F835F8*%
%TF.FilePolarity,Positive*%
%TF.FileFunction,Drawing*%
%TF.Part,Single*%
G01*
G75*
%TA.AperFunction,NonConductor*%
%ADD46C,0.00500*%
%ADD86C,0.00667*%
%ADD87C,0.00400*%
D46*
X181000Y419000D02*
X182000Y420000D01*
X183000D01*
X182000Y421000D01*
X183000Y422000D01*
X182000D01*
X181000Y423000D01*
X180000Y422000D01*
X179000D01*
X180000Y421000D01*
X179000Y420000D01*
X180000D01*
X181000Y419000D01*
Y409000D02*
X182000Y410000D01*
X183000D01*
X182000Y411000D01*
X183000Y412000D01*
X182000D01*
X181000Y413000D01*
X180000Y412000D01*
X179000D01*
X180000Y411000D01*
X179000Y410000D01*
X180000D01*
X181000Y409000D01*
Y429000D02*
X182000Y430000D01*
X183000D01*
X182000Y431000D01*
X183000Y432000D01*
X182000D01*
X181000Y433000D01*
X180000Y432000D01*
X179000D01*
X180000Y431000D01*
X179000Y430000D01*
X180000D01*
X181000Y429000D01*
Y439000D02*
X182000Y440000D01*
X183000D01*
X182000Y441000D01*
X183000Y442000D01*
X182000D01*
X181000Y443000D01*
X180000Y442000D01*
X179000D01*
X180000Y441000D01*
X179000Y440000D01*
X180000D01*
X181000Y439000D01*
X171000D02*
X172000Y440000D01*
X173000D01*
X172000Y441000D01*
X173000Y442000D01*
X172000D01*
X171000Y443000D01*
X170000Y442000D01*
X169000D01*
X170000Y441000D01*
X169000Y440000D01*
X170000D01*
X171000Y439000D01*
Y429000D02*
X172000Y430000D01*
X173000D01*
X172000Y431000D01*
X173000Y432000D01*
X172000D01*
X171000Y433000D01*
X170000Y432000D01*
X169000D01*
X170000Y431000D01*
X169000Y430000D01*
X170000D01*
X171000Y429000D01*
Y419000D02*
X172000Y420000D01*
X173000D01*
X172000Y421000D01*
X173000Y422000D01*
X172000D01*
X171000Y423000D01*
X170000Y422000D01*
X169000D01*
X170000Y421000D01*
X169000Y420000D01*
X170000D01*
X171000Y419000D01*
Y409000D02*
X172000Y410000D01*
X173000D01*
X172000Y411000D01*
X173000Y412000D01*
X172000D01*
X171000Y413000D01*
X170000Y412000D01*
X169000D01*
X170000Y411000D01*
X169000Y410000D01*
X170000D01*
X171000Y409000D01*
X140000Y433000D02*
X141000Y435000D01*
X140000Y437000D01*
X142000Y436000D01*
X144000Y437000D01*
X143000Y435000D01*
X144000Y433000D01*
X142000Y434000D01*
X140000Y433000D01*
X114409D02*
X115409Y435000D01*
X114409Y437000D01*
X116409Y436000D01*
X118409Y437000D01*
X117409Y435000D01*
X118409Y433000D01*
X116409Y434000D01*
X114409Y433000D01*
X131803Y120811D02*
X129803Y124811D01*
X133803D01*
X131803Y120811D01*
Y121611D02*
X130603Y124011D01*
X133003D01*
X131803Y121611D01*
X149323Y120811D02*
X147323Y124811D01*
X151323D01*
X149323Y120811D01*
Y121611D02*
X148123Y124011D01*
X150523D01*
X149323Y121611D01*
X157000Y109000D02*
X158000Y110000D01*
X159000D01*
X158000Y111000D01*
X159000Y112000D01*
X158000D01*
X157000Y113000D01*
X156000Y112000D01*
X155000D01*
X156000Y111000D01*
X155000Y110000D01*
X156000D01*
X157000Y109000D01*
Y109800D02*
X157600Y110400D01*
X158200D01*
X157600Y111000D01*
X158200Y111600D01*
X157600D01*
X157000Y112200D01*
X156400Y111600D01*
X155800D01*
X156400Y111000D01*
X155800Y110400D01*
X156400D01*
X157000Y109800D01*
X124126Y109000D02*
X125126Y110000D01*
X126126D01*
X125126Y111000D01*
X126126Y112000D01*
X125126D01*
X124126Y113000D01*
X123126Y112000D01*
X122126D01*
X123126Y111000D01*
X122126Y110000D01*
X123126D01*
X124126Y109000D01*
Y109800D02*
X124726Y110400D01*
X125326D01*
X124726Y111000D01*
X125326Y111600D01*
X124726D01*
X124126Y112200D01*
X123526Y111600D01*
X122926D01*
X123526Y111000D01*
X122926Y110400D01*
X123526D01*
X124126Y109800D01*
X272465Y341000D02*
X270465Y345000D01*
X274465D01*
X272465Y341000D01*
Y357535D02*
X270465Y361535D01*
X274465D01*
X272465Y357535D01*
Y374071D02*
X270465Y378071D01*
X274465D01*
X272465Y374071D01*
X289000Y341000D02*
X287000Y345000D01*
X291000D01*
X289000Y341000D01*
Y357535D02*
X287000Y361535D01*
X291000D01*
X289000Y357535D01*
Y374071D02*
X287000Y378071D01*
X291000D01*
X289000Y374071D01*
X234000Y255000D02*
X235000D01*
X236000Y256000D01*
X237000Y255000D01*
X238000D01*
Y256000D01*
X237000Y257000D01*
X238000Y258000D01*
Y259000D01*
X237000D01*
X236000Y258000D01*
X235000Y259000D01*
X234000D01*
Y258000D01*
X235000Y257000D01*
X234000Y256000D01*
Y255000D01*
Y245000D02*
X235000D01*
X236000Y246000D01*
X237000Y245000D01*
X238000D01*
Y246000D01*
X237000Y247000D01*
X238000Y248000D01*
Y249000D01*
X237000D01*
X236000Y248000D01*
X235000Y249000D01*
X234000D01*
Y248000D01*
X235000Y247000D01*
X234000Y246000D01*
Y245000D01*
Y235000D02*
X235000D01*
X236000Y236000D01*
X237000Y235000D01*
X238000D01*
Y236000D01*
X237000Y237000D01*
X238000Y238000D01*
Y239000D01*
X237000D01*
X236000Y238000D01*
X235000Y239000D01*
X234000D01*
Y238000D01*
X235000Y237000D01*
X234000Y236000D01*
Y235000D01*
X116000Y354000D02*
Y358000D01*
X120000D01*
Y354000D01*
X116000D01*
Y344000D02*
Y348000D01*
X120000D01*
Y344000D01*
X116000D01*
X115000Y319000D02*
Y323000D01*
X119000D01*
Y319000D01*
X115000D01*
Y309000D02*
Y313000D01*
X119000D01*
Y309000D01*
X115000D01*
X232000Y167283D02*
X234000Y169283D01*
X236000Y167283D01*
X234000Y165284D01*
X232000Y167283D01*
Y185000D02*
X234000Y187000D01*
X236000Y185000D01*
X234000Y183000D01*
X232000Y185000D01*
X206409D02*
X208409Y187000D01*
X210409Y185000D01*
X208409Y183000D01*
X206409Y185000D01*
Y167283D02*
X208409Y169283D01*
X210409Y167283D01*
X208409Y165284D01*
X206409Y167283D01*
X274465Y262465D02*
X272465Y266465D01*
X276465D01*
X274465Y262465D01*
Y279000D02*
X272465Y283000D01*
X276465D01*
X274465Y279000D01*
Y295535D02*
X272465Y299535D01*
X276465D01*
X274465Y295535D01*
X291000Y262465D02*
X289000Y266465D01*
X293000D01*
X291000Y262465D01*
Y279000D02*
X289000Y283000D01*
X293000D01*
X291000Y279000D01*
Y295535D02*
X289000Y299535D01*
X293000D01*
X291000Y295535D01*
X267000Y112000D02*
Y116000D01*
X271000D01*
Y112000D01*
X267000D01*
X277000D02*
Y116000D01*
X281000D01*
Y112000D01*
X277000D01*
X247000D02*
Y116000D01*
X251000D01*
Y112000D01*
X247000D01*
X237000D02*
Y116000D01*
X241000D01*
Y112000D01*
X237000D01*
X115000Y248000D02*
Y252000D01*
X119000D01*
Y248000D01*
X115000D01*
Y238000D02*
Y242000D01*
X119000D01*
Y238000D01*
X115000D01*
Y283000D02*
Y287000D01*
X119000D01*
Y283000D01*
X115000D01*
Y273000D02*
Y277000D01*
X119000D01*
Y273000D01*
X115000D01*
X164039Y117000D02*
Y121000D01*
X168039D01*
Y117000D01*
X164039D01*
X164839Y117800D02*
Y120200D01*
X167239D01*
Y117800D01*
X164839D01*
X212465Y117000D02*
Y121000D01*
X216465D01*
Y117000D01*
X212465D01*
X213265Y117800D02*
Y120200D01*
X215665D01*
Y117800D01*
X213265D01*
X116000Y391000D02*
Y395000D01*
X120000D01*
Y391000D01*
X116000D01*
Y381000D02*
Y385000D01*
X120000D01*
Y381000D01*
X116000D01*
X178000Y349000D02*
Y348000D01*
X180000D01*
Y349000D01*
X181000D01*
Y351000D01*
X180000D01*
Y352000D01*
X178000D01*
Y351000D01*
X177000D01*
Y349000D01*
X178000D01*
Y339000D02*
Y338000D01*
X180000D01*
Y339000D01*
X181000D01*
Y341000D01*
X180000D01*
Y342000D01*
X178000D01*
Y341000D01*
X177000D01*
Y339000D01*
X178000D01*
Y329000D02*
Y328000D01*
X180000D01*
Y329000D01*
X181000D01*
Y331000D01*
X180000D01*
Y332000D01*
X178000D01*
Y331000D01*
X177000D01*
Y329000D01*
X178000D01*
Y319000D02*
Y318000D01*
X180000D01*
Y319000D01*
X181000D01*
Y321000D01*
X180000D01*
Y322000D01*
X178000D01*
Y321000D01*
X177000D01*
Y319000D01*
X178000D01*
Y309000D02*
Y308000D01*
X180000D01*
Y309000D01*
X181000D01*
Y311000D01*
X180000D01*
Y312000D01*
X178000D01*
Y311000D01*
X177000D01*
Y309000D01*
X178000D01*
Y299000D02*
Y298000D01*
X180000D01*
Y299000D01*
X181000D01*
Y301000D01*
X180000D01*
Y302000D01*
X178000D01*
Y301000D01*
X177000D01*
Y299000D01*
X178000D01*
Y289000D02*
Y288000D01*
X180000D01*
Y289000D01*
X181000D01*
Y291000D01*
X180000D01*
Y292000D01*
X178000D01*
Y291000D01*
X177000D01*
Y289000D01*
X178000D01*
Y279000D02*
Y278000D01*
X180000D01*
Y279000D01*
X181000D01*
Y281000D01*
X180000D01*
Y282000D01*
X178000D01*
Y281000D01*
X177000D01*
Y279000D01*
X178000D01*
Y269000D02*
Y268000D01*
X180000D01*
Y269000D01*
X181000D01*
Y271000D01*
X180000D01*
Y272000D01*
X178000D01*
Y271000D01*
X177000D01*
Y269000D01*
X178000D01*
Y259000D02*
Y258000D01*
X180000D01*
Y259000D01*
X181000D01*
Y261000D01*
X180000D01*
Y262000D01*
X178000D01*
Y261000D01*
X177000D01*
Y259000D01*
X178000D01*
Y249000D02*
Y248000D01*
X180000D01*
Y249000D01*
X181000D01*
Y251000D01*
X180000D01*
Y252000D01*
X178000D01*
Y251000D01*
X177000D01*
Y249000D01*
X178000D01*
Y239000D02*
Y238000D01*
X180000D01*
Y239000D01*
X181000D01*
Y241000D01*
X180000D01*
Y242000D01*
X178000D01*
Y241000D01*
X177000D01*
Y239000D01*
X178000D01*
Y229000D02*
Y228000D01*
X180000D01*
Y229000D01*
X181000D01*
Y231000D01*
X180000D01*
Y232000D01*
X178000D01*
Y231000D01*
X177000D01*
Y229000D01*
X178000D01*
Y219000D02*
Y218000D01*
X180000D01*
Y219000D01*
X181000D01*
Y221000D01*
X180000D01*
Y222000D01*
X178000D01*
Y221000D01*
X177000D01*
Y219000D01*
X178000D01*
X208000D02*
Y218000D01*
X210000D01*
Y219000D01*
X211000D01*
Y221000D01*
X210000D01*
Y222000D01*
X208000D01*
Y221000D01*
X207000D01*
Y219000D01*
X208000D01*
Y229000D02*
Y228000D01*
X210000D01*
Y229000D01*
X211000D01*
Y231000D01*
X210000D01*
Y232000D01*
X208000D01*
Y231000D01*
X207000D01*
Y229000D01*
X208000D01*
Y239000D02*
Y238000D01*
X210000D01*
Y239000D01*
X211000D01*
Y241000D01*
X210000D01*
Y242000D01*
X208000D01*
Y241000D01*
X207000D01*
Y239000D01*
X208000D01*
Y249000D02*
Y248000D01*
X210000D01*
Y249000D01*
X211000D01*
Y251000D01*
X210000D01*
Y252000D01*
X208000D01*
Y251000D01*
X207000D01*
Y249000D01*
X208000D01*
Y259000D02*
Y258000D01*
X210000D01*
Y259000D01*
X211000D01*
Y261000D01*
X210000D01*
Y262000D01*
X208000D01*
Y261000D01*
X207000D01*
Y259000D01*
X208000D01*
Y269000D02*
Y268000D01*
X210000D01*
Y269000D01*
X211000D01*
Y271000D01*
X210000D01*
Y272000D01*
X208000D01*
Y271000D01*
X207000D01*
Y269000D01*
X208000D01*
Y279000D02*
Y278000D01*
X210000D01*
Y279000D01*
X211000D01*
Y281000D01*
X210000D01*
Y282000D01*
X208000D01*
Y281000D01*
X207000D01*
Y279000D01*
X208000D01*
Y289000D02*
Y288000D01*
X210000D01*
Y289000D01*
X211000D01*
Y291000D01*
X210000D01*
Y292000D01*
X208000D01*
Y291000D01*
X207000D01*
Y289000D01*
X208000D01*
Y299000D02*
Y298000D01*
X210000D01*
Y299000D01*
X211000D01*
Y301000D01*
X210000D01*
Y302000D01*
X208000D01*
Y301000D01*
X207000D01*
Y299000D01*
X208000D01*
Y309000D02*
Y308000D01*
X210000D01*
Y309000D01*
X211000D01*
Y311000D01*
X210000D01*
Y312000D01*
X208000D01*
Y311000D01*
X207000D01*
Y309000D01*
X208000D01*
Y319000D02*
Y318000D01*
X210000D01*
Y319000D01*
X211000D01*
Y321000D01*
X210000D01*
Y322000D01*
X208000D01*
Y321000D01*
X207000D01*
Y319000D01*
X208000D01*
Y329000D02*
Y328000D01*
X210000D01*
Y329000D01*
X211000D01*
Y331000D01*
X210000D01*
Y332000D01*
X208000D01*
Y331000D01*
X207000D01*
Y329000D01*
X208000D01*
Y339000D02*
Y338000D01*
X210000D01*
Y339000D01*
X211000D01*
Y341000D01*
X210000D01*
Y342000D01*
X208000D01*
Y341000D01*
X207000D01*
Y339000D01*
X208000D01*
Y349000D02*
Y348000D01*
X210000D01*
Y349000D01*
X211000D01*
Y351000D01*
X210000D01*
Y352000D01*
X208000D01*
Y351000D01*
X207000D01*
Y349000D01*
X208000D01*
X111000Y472000D02*
Y471000D01*
X113000D01*
Y472000D01*
X114000D01*
Y474000D01*
X113000D01*
Y475000D01*
X111000D01*
Y474000D01*
X110000D01*
Y472000D01*
X111000D01*
X111400Y472400D02*
Y471800D01*
X112600D01*
Y472400D01*
X113200D01*
Y473600D01*
X112600D01*
Y474200D01*
X111400D01*
Y473600D01*
X110800D01*
Y472400D01*
X111400D01*
X295000Y472000D02*
Y471000D01*
X297000D01*
Y472000D01*
X298000D01*
Y474000D01*
X297000D01*
Y475000D01*
X295000D01*
Y474000D01*
X294000D01*
Y472000D01*
X295000D01*
X295400Y472400D02*
Y471800D01*
X296600D01*
Y472400D01*
X297200D01*
Y473600D01*
X296600D01*
Y474200D01*
X295400D01*
Y473600D01*
X294800D01*
Y472400D01*
X295400D01*
X296000Y111000D02*
Y110000D01*
X298000D01*
Y111000D01*
X299000D01*
Y113000D01*
X298000D01*
Y114000D01*
X296000D01*
Y113000D01*
X295000D01*
Y111000D01*
X296000D01*
X296400Y111400D02*
Y110800D01*
X297600D01*
Y111400D01*
X298200D01*
Y112600D01*
X297600D01*
Y113200D01*
X296400D01*
Y112600D01*
X295800D01*
Y111400D01*
X296400D01*
X281000Y437000D02*
X282000D01*
X283000Y438000D01*
X284000Y437000D01*
X285000D01*
Y438000D01*
X284000Y439000D01*
X285000Y440000D01*
Y441000D01*
X284000D01*
X283000Y440000D01*
X282000Y441000D01*
X281000D01*
Y440000D01*
X282000Y439000D01*
X281000Y438000D01*
Y437000D01*
X274000Y441000D02*
X275000D01*
X276000Y442000D01*
X277000Y441000D01*
X278000D01*
Y442000D01*
X277000Y443000D01*
X278000Y444000D01*
Y445000D01*
X277000D01*
X276000Y444000D01*
X275000Y445000D01*
X274000D01*
Y444000D01*
X275000Y443000D01*
X274000Y442000D01*
Y441000D01*
X200000Y426000D02*
X201000D01*
X202000Y427000D01*
X203000Y426000D01*
X204000D01*
Y427000D01*
X203000Y428000D01*
X204000Y429000D01*
Y430000D01*
X203000D01*
X202000Y429000D01*
X201000Y430000D01*
X200000D01*
Y429000D01*
X201000Y428000D01*
X200000Y427000D01*
Y426000D01*
X192000Y418000D02*
X193000D01*
X194000Y419000D01*
X195000Y418000D01*
X196000D01*
Y419000D01*
X195000Y420000D01*
X196000Y421000D01*
Y422000D01*
X195000D01*
X194000Y421000D01*
X193000Y422000D01*
X192000D01*
Y421000D01*
X193000Y420000D01*
X192000Y419000D01*
Y418000D01*
X209000Y413000D02*
X210000D01*
X211000Y414000D01*
X212000Y413000D01*
X213000D01*
Y414000D01*
X212000Y415000D01*
X213000Y416000D01*
Y417000D01*
X212000D01*
X211000Y416000D01*
X210000Y417000D01*
X209000D01*
Y416000D01*
X210000Y415000D01*
X209000Y414000D01*
Y413000D01*
X198000Y395000D02*
X199000D01*
X200000Y396000D01*
X201000Y395000D01*
X202000D01*
Y396000D01*
X201000Y397000D01*
X202000Y398000D01*
Y399000D01*
X201000D01*
X200000Y398000D01*
X199000Y399000D01*
X198000D01*
Y398000D01*
X199000Y397000D01*
X198000Y396000D01*
Y395000D01*
X147000Y313000D02*
X148000D01*
X149000Y314000D01*
X150000Y313000D01*
X151000D01*
Y314000D01*
X150000Y315000D01*
X151000Y316000D01*
Y317000D01*
X150000D01*
X149000Y316000D01*
X148000Y317000D01*
X147000D01*
Y316000D01*
X148000Y315000D01*
X147000Y314000D01*
Y313000D01*
X175000Y179000D02*
X176000D01*
X177000Y180000D01*
X178000Y179000D01*
X179000D01*
Y180000D01*
X178000Y181000D01*
X179000Y182000D01*
Y183000D01*
X178000D01*
X177000Y182000D01*
X176000Y183000D01*
X175000D01*
Y182000D01*
X176000Y181000D01*
X175000Y180000D01*
Y179000D01*
X189000Y274000D02*
X190000D01*
X191000Y275000D01*
X192000Y274000D01*
X193000D01*
Y275000D01*
X192000Y276000D01*
X193000Y277000D01*
Y278000D01*
X192000D01*
X191000Y277000D01*
X190000Y278000D01*
X189000D01*
Y277000D01*
X190000Y276000D01*
X189000Y275000D01*
Y274000D01*
X124000Y205000D02*
X125000D01*
X126000Y206000D01*
X127000Y205000D01*
X128000D01*
Y206000D01*
X127000Y207000D01*
X128000Y208000D01*
Y209000D01*
X127000D01*
X126000Y208000D01*
X125000Y209000D01*
X124000D01*
Y208000D01*
X125000Y207000D01*
X124000Y206000D01*
Y205000D01*
X271000Y155000D02*
X272000D01*
X273000Y156000D01*
X274000Y155000D01*
X275000D01*
Y156000D01*
X274000Y157000D01*
X275000Y158000D01*
Y159000D01*
X274000D01*
X273000Y158000D01*
X272000Y159000D01*
X271000D01*
Y158000D01*
X272000Y157000D01*
X271000Y156000D01*
Y155000D01*
X252000Y212000D02*
X253000D01*
X254000Y213000D01*
X255000Y212000D01*
X256000D01*
Y213000D01*
X255000Y214000D01*
X256000Y215000D01*
Y216000D01*
X255000D01*
X254000Y215000D01*
X253000Y216000D01*
X252000D01*
Y215000D01*
X253000Y214000D01*
X252000Y213000D01*
Y212000D01*
X239000Y189000D02*
X240000D01*
X241000Y190000D01*
X242000Y189000D01*
X243000D01*
Y190000D01*
X242000Y191000D01*
X243000Y192000D01*
Y193000D01*
X242000D01*
X241000Y192000D01*
X240000Y193000D01*
X239000D01*
Y192000D01*
X240000Y191000D01*
X239000Y190000D01*
Y189000D01*
X252000Y180000D02*
X253000D01*
X254000Y181000D01*
X255000Y180000D01*
X256000D01*
Y181000D01*
X255000Y182000D01*
X256000Y183000D01*
Y184000D01*
X255000D01*
X254000Y183000D01*
X253000Y184000D01*
X252000D01*
Y183000D01*
X253000Y182000D01*
X252000Y181000D01*
Y180000D01*
X219000Y201000D02*
X220000D01*
X221000Y202000D01*
X222000Y201000D01*
X223000D01*
Y202000D01*
X222000Y203000D01*
X223000Y204000D01*
Y205000D01*
X222000D01*
X221000Y204000D01*
X220000Y205000D01*
X219000D01*
Y204000D01*
X220000Y203000D01*
X219000Y202000D01*
Y201000D01*
X204000Y198000D02*
X205000D01*
X206000Y199000D01*
X207000Y198000D01*
X208000D01*
Y199000D01*
X207000Y200000D01*
X208000Y201000D01*
Y202000D01*
X207000D01*
X206000Y201000D01*
X205000Y202000D01*
X204000D01*
Y201000D01*
X205000Y200000D01*
X204000Y199000D01*
Y198000D01*
X175000Y189000D02*
X176000D01*
X177000Y190000D01*
X178000Y189000D01*
X179000D01*
Y190000D01*
X178000Y191000D01*
X179000Y192000D01*
Y193000D01*
X178000D01*
X177000Y192000D01*
X176000Y193000D01*
X175000D01*
Y192000D01*
X176000Y191000D01*
X175000Y190000D01*
Y189000D01*
X115000Y184000D02*
X116000D01*
X117000Y185000D01*
X118000Y184000D01*
X119000D01*
Y185000D01*
X118000Y186000D01*
X119000Y187000D01*
Y188000D01*
X118000D01*
X117000Y187000D01*
X116000Y188000D01*
X115000D01*
Y187000D01*
X116000Y186000D01*
X115000Y185000D01*
Y184000D01*
X119000Y136000D02*
X120000D01*
X121000Y137000D01*
X122000Y136000D01*
X123000D01*
Y137000D01*
X122000Y138000D01*
X123000Y139000D01*
Y140000D01*
X122000D01*
X121000Y139000D01*
X120000Y140000D01*
X119000D01*
Y139000D01*
X120000Y138000D01*
X119000Y137000D01*
Y136000D01*
X145000Y155000D02*
X146000D01*
X147000Y156000D01*
X148000Y155000D01*
X149000D01*
Y156000D01*
X148000Y157000D01*
X149000Y158000D01*
Y159000D01*
X148000D01*
X147000Y158000D01*
X146000Y159000D01*
X145000D01*
Y158000D01*
X146000Y157000D01*
X145000Y156000D01*
Y155000D01*
X183000Y142000D02*
X184000D01*
X185000Y143000D01*
X186000Y142000D01*
X187000D01*
Y143000D01*
X186000Y144000D01*
X187000Y145000D01*
Y146000D01*
X186000D01*
X185000Y145000D01*
X184000Y146000D01*
X183000D01*
Y145000D01*
X184000Y144000D01*
X183000Y143000D01*
Y142000D01*
X263000Y133000D02*
X264000D01*
X265000Y134000D01*
X266000Y133000D01*
X267000D01*
Y134000D01*
X266000Y135000D01*
X267000Y136000D01*
Y137000D01*
X266000D01*
X265000Y136000D01*
X264000Y137000D01*
X263000D01*
Y136000D01*
X264000Y135000D01*
X263000Y134000D01*
Y133000D01*
X216000Y390000D02*
X217000D01*
X218000Y391000D01*
X219000Y390000D01*
X220000D01*
Y391000D01*
X219000Y392000D01*
X220000Y393000D01*
Y394000D01*
X219000D01*
X218000Y393000D01*
X217000Y394000D01*
X216000D01*
Y393000D01*
X217000Y392000D01*
X216000Y391000D01*
Y390000D01*
X196000Y322000D02*
X197000D01*
X198000Y323000D01*
X199000Y322000D01*
X200000D01*
Y323000D01*
X199000Y324000D01*
X200000Y325000D01*
Y326000D01*
X199000D01*
X198000Y325000D01*
X197000Y326000D01*
X196000D01*
Y325000D01*
X197000Y324000D01*
X196000Y323000D01*
Y322000D01*
X139000Y179000D02*
X140000D01*
X141000Y180000D01*
X142000Y179000D01*
X143000D01*
Y180000D01*
X142000Y181000D01*
X143000Y182000D01*
Y183000D01*
X142000D01*
X141000Y182000D01*
X140000Y183000D01*
X139000D01*
Y182000D01*
X140000Y181000D01*
X139000Y180000D01*
Y179000D01*
X203000Y142000D02*
X204000D01*
X205000Y143000D01*
X206000Y142000D01*
X207000D01*
Y143000D01*
X206000Y144000D01*
X207000Y145000D01*
Y146000D01*
X206000D01*
X205000Y145000D01*
X204000Y146000D01*
X203000D01*
Y145000D01*
X204000Y144000D01*
X203000Y143000D01*
Y142000D01*
X111000Y110000D02*
Y109000D01*
X113000D01*
Y110000D01*
X114000D01*
Y112000D01*
X113000D01*
Y113000D01*
X111000D01*
Y112000D01*
X110000D01*
Y110000D01*
X111000D01*
X111400Y110400D02*
Y109800D01*
X112600D01*
Y110400D01*
X113200D01*
Y111600D01*
X112600D01*
Y112200D01*
X111400D01*
Y111600D01*
X110800D01*
Y110400D01*
X111400D01*
D86*
X269504Y351268D02*
G03*
X269504Y351268I-2000J0D01*
G01*
X271504Y272732D02*
G03*
X271504Y272732I-2000J0D01*
G01*
X192252Y119000D02*
G03*
X192252Y119000I-2000J0D01*
G01*
X200126D02*
G03*
X200126Y119000I-2000J0D01*
G01*
X208000D02*
G03*
X208000Y119000I-2000J0D01*
G01*
X176504D02*
G03*
X176504Y119000I-2000J0D01*
G01*
D87*
X191452D02*
G03*
X191452Y119000I-1200J0D01*
G01*
X199326D02*
G03*
X199326Y119000I-1200J0D01*
G01*
X207200D02*
G03*
X207200Y119000I-1200J0D01*
G01*
X175704D02*
G03*
X175704Y119000I-1200J0D01*
G01*
%TF.MD5,0b0b2c9ae8840017fc2dd3a5d415f645*%
M02*
