%TF.GenerationSoftware,Altium Limited,Altium Designer,24.10.1 (45)*%
G04 Layer_Color=32768*
%FSLAX25Y25*%
%MOIN*%
%TF.SameCoordinates,405BA738-95C1-4717-9A2A-605BB7F835F8*%
%TF.FilePolarity,Positive*%
%TF.FileFunction,Other,Mechanical_15*%
%TF.Part,Single*%
G01*
G75*
%TA.AperFunction,NonConductor*%
%ADD43C,0.00600*%
%ADD67C,0.00100*%
%ADD68C,0.00197*%
G36*
X136650Y463850D02*
X129350D01*
Y476150D01*
X136650D01*
Y463850D01*
D02*
G37*
G36*
X257650Y460850D02*
X250350D01*
Y473150D01*
X257650D01*
Y460850D01*
D02*
G37*
G36*
X238650D02*
X231350D01*
Y473150D01*
X238650D01*
Y460850D01*
D02*
G37*
G36*
X219650D02*
X212350D01*
Y473150D01*
X219650D01*
Y460850D01*
D02*
G37*
G36*
X200650D02*
X193350D01*
Y473150D01*
X200650D01*
Y460850D01*
D02*
G37*
G36*
X181650D02*
X174350D01*
Y473150D01*
X181650D01*
Y460850D01*
D02*
G37*
G36*
X162650D02*
X155350D01*
Y473150D01*
X162650D01*
Y460850D01*
D02*
G37*
G36*
X279650Y445850D02*
X272350D01*
Y458150D01*
X279650D01*
Y445850D01*
D02*
G37*
G36*
X298700Y435350D02*
X286400D01*
Y442650D01*
X298700D01*
Y435350D01*
D02*
G37*
G36*
X284700Y412350D02*
X272400D01*
Y419650D01*
X284700D01*
Y412350D01*
D02*
G37*
G36*
X153805Y445129D02*
Y424871D01*
X139334Y410400D01*
X119075D01*
X104605Y424871D01*
Y445129D01*
X119075Y459600D01*
X139334D01*
X153805Y445129D01*
D02*
G37*
G36*
X186961Y405000D02*
X165039D01*
Y447000D01*
X186961D01*
Y405000D01*
D02*
G37*
G36*
X284600Y396350D02*
X272300D01*
Y403650D01*
X284600D01*
Y396350D01*
D02*
G37*
G36*
X237650Y390850D02*
X230350D01*
Y403150D01*
X237650D01*
Y390850D01*
D02*
G37*
G36*
X141650Y382850D02*
X134350D01*
Y395150D01*
X141650D01*
Y382850D01*
D02*
G37*
G36*
X131817Y376194D02*
X103417D01*
Y400594D01*
X131817D01*
Y376194D01*
D02*
G37*
G36*
X141650Y344850D02*
X134350D01*
Y357150D01*
X141650D01*
Y344850D01*
D02*
G37*
G36*
X131817Y339194D02*
X103417D01*
Y363594D01*
X131817D01*
Y339194D01*
D02*
G37*
G36*
X300626Y331385D02*
X255126D01*
Y387685D01*
X300626D01*
Y331385D01*
D02*
G37*
G36*
X253150Y316350D02*
X240850D01*
Y323650D01*
X253150D01*
Y316350D01*
D02*
G37*
G36*
X294650Y314850D02*
X287350D01*
Y327150D01*
X294650D01*
Y314850D01*
D02*
G37*
G36*
X276650Y313850D02*
X269350D01*
Y326150D01*
X276650D01*
Y313850D01*
D02*
G37*
G36*
X141650D02*
X134350D01*
Y326150D01*
X141650D01*
Y313850D01*
D02*
G37*
G36*
X159650Y304850D02*
X152350D01*
Y317150D01*
X159650D01*
Y304850D01*
D02*
G37*
G36*
X130817Y304194D02*
X102417D01*
Y328594D01*
X130817D01*
Y304194D01*
D02*
G37*
G36*
X168650Y302850D02*
X161350D01*
Y315150D01*
X168650D01*
Y302850D01*
D02*
G37*
G36*
X159650Y287850D02*
X152350D01*
Y300150D01*
X159650D01*
Y287850D01*
D02*
G37*
G36*
X161650Y273300D02*
X154350D01*
Y285600D01*
X161650D01*
Y273300D01*
D02*
G37*
G36*
X140650Y271850D02*
X133350D01*
Y284150D01*
X140650D01*
Y271850D01*
D02*
G37*
G36*
X236650Y269850D02*
X229350D01*
Y282150D01*
X236650D01*
Y269850D01*
D02*
G37*
G36*
X226650D02*
X219350D01*
Y282150D01*
X226650D01*
Y269850D01*
D02*
G37*
G36*
X130817Y268194D02*
X102417D01*
Y292594D01*
X130817D01*
Y268194D01*
D02*
G37*
G36*
X302626Y252850D02*
X257126D01*
Y309150D01*
X302626D01*
Y252850D01*
D02*
G37*
G36*
X139650Y245850D02*
X132350D01*
Y258150D01*
X139650D01*
Y245850D01*
D02*
G37*
G36*
X254650Y234400D02*
X247350D01*
Y246700D01*
X254650D01*
Y234400D01*
D02*
G37*
G36*
X281150Y233350D02*
X268850D01*
Y240650D01*
X281150D01*
Y233350D01*
D02*
G37*
G36*
X130817Y233194D02*
X102417D01*
Y257594D01*
X130817D01*
Y233194D01*
D02*
G37*
G36*
X242000Y260500D02*
X244500D01*
Y233500D01*
X242000D01*
Y231000D01*
X230000D01*
Y233500D01*
X227500D01*
Y260500D01*
X230000D01*
Y263000D01*
X242000D01*
Y260500D01*
D02*
G37*
G36*
X209750Y353600D02*
X212600D01*
Y216400D01*
X209750D01*
Y214000D01*
X178250D01*
Y216400D01*
X175400D01*
Y353600D01*
X178250D01*
Y356000D01*
X209750D01*
Y353600D01*
D02*
G37*
G36*
X163650Y210850D02*
X156350D01*
Y223150D01*
X163650D01*
Y210850D01*
D02*
G37*
G36*
X151650D02*
X144350D01*
Y223150D01*
X151650D01*
Y210850D01*
D02*
G37*
G36*
X140650D02*
X133350D01*
Y223150D01*
X140650D01*
Y210850D01*
D02*
G37*
G36*
X129650D02*
X122350D01*
Y223150D01*
X129650D01*
Y210850D01*
D02*
G37*
G36*
X203150Y204350D02*
X190850D01*
Y211650D01*
X203150D01*
Y204350D01*
D02*
G37*
G36*
X288400Y217350D02*
X291550D01*
Y210650D01*
X288400D01*
Y199600D01*
X259600D01*
Y210650D01*
X256450D01*
Y217350D01*
X259600D01*
Y228400D01*
X288400D01*
Y217350D01*
D02*
G37*
G36*
X236150Y199350D02*
X223850D01*
Y206650D01*
X236150D01*
Y199350D01*
D02*
G37*
G36*
X203150Y196350D02*
X190850D01*
Y203650D01*
X203150D01*
Y196350D01*
D02*
G37*
G36*
X135650Y188400D02*
X128350D01*
Y200700D01*
X135650D01*
Y188400D01*
D02*
G37*
G36*
X166650Y188300D02*
X159350D01*
Y200600D01*
X166650D01*
Y188300D01*
D02*
G37*
G36*
X249650Y177850D02*
X242350D01*
Y190150D01*
X249650D01*
Y177850D01*
D02*
G37*
G36*
X288400Y185350D02*
X291550D01*
Y178650D01*
X288400D01*
Y167600D01*
X259600D01*
Y178650D01*
X256450D01*
Y185350D01*
X259600D01*
Y196400D01*
X288400D01*
Y185350D01*
D02*
G37*
G36*
X234000Y188900D02*
X237950D01*
Y163300D01*
X234000D01*
X234005Y163342D01*
X208409D01*
Y163300D01*
X204459D01*
Y188900D01*
X208409D01*
Y188942D01*
X234005D01*
X234000Y188900D01*
D02*
G37*
G36*
X288400Y153350D02*
X276100D01*
Y160650D01*
X288400D01*
Y153350D01*
D02*
G37*
G36*
X243000Y155550D02*
X247700D01*
Y144450D01*
X246740D01*
Y141900D01*
X233260D01*
Y144450D01*
X232300D01*
Y155550D01*
X237000D01*
Y158100D01*
X243000D01*
Y155550D01*
D02*
G37*
G36*
X226000D02*
X230700D01*
Y144450D01*
X229740D01*
Y141900D01*
X216260D01*
Y144450D01*
X215300D01*
Y155550D01*
X220000D01*
Y158100D01*
X226000D01*
Y155550D01*
D02*
G37*
G36*
X164700Y141350D02*
X152400D01*
Y148650D01*
X164700D01*
Y141350D01*
D02*
G37*
G36*
X148150D02*
X135850D01*
Y148650D01*
X148150D01*
Y141350D01*
D02*
G37*
G36*
X130600D02*
X118300D01*
Y148650D01*
X130600D01*
Y141350D01*
D02*
G37*
G36*
X182150Y140350D02*
X169850D01*
Y147650D01*
X182150D01*
Y140350D01*
D02*
G37*
G36*
X247150Y134350D02*
X234850D01*
Y141650D01*
X247150D01*
Y134350D01*
D02*
G37*
G36*
X229150D02*
X216850D01*
Y141650D01*
X229150D01*
Y134350D01*
D02*
G37*
G36*
X287650Y131850D02*
X280350D01*
Y144150D01*
X287650D01*
Y131850D01*
D02*
G37*
G36*
X152423Y125386D02*
X157713D01*
Y115350D01*
X160000D01*
Y106650D01*
X157713D01*
Y99186D01*
X123413D01*
Y106650D01*
X121126D01*
Y115350D01*
X123413D01*
Y125386D01*
X128703D01*
Y126261D01*
X134903D01*
Y125386D01*
X146223D01*
Y126261D01*
X152423D01*
Y125386D01*
D02*
G37*
G36*
X256594Y100183D02*
X232194D01*
Y128583D01*
X256594D01*
Y100183D01*
D02*
G37*
G36*
X285806Y99417D02*
X261406D01*
Y127817D01*
X285806D01*
Y99417D01*
D02*
G37*
D43*
X165000Y405000D02*
X186921D01*
Y447000D01*
X165000D02*
X186921D01*
X165000Y405000D02*
Y447000D01*
X272350Y445850D02*
X279650D01*
X272350D02*
Y458150D01*
X279650D01*
Y445850D02*
Y458150D01*
X298700Y435350D02*
Y442650D01*
X286400Y435350D02*
X298700D01*
X286400D02*
Y442650D01*
X298700D01*
X288400Y153350D02*
Y160650D01*
X276100Y153350D02*
X288400D01*
X276100D02*
Y160650D01*
X288400D01*
X152423Y125386D02*
X157713D01*
X152423D02*
Y126261D01*
X146223D02*
X152423D01*
X146223Y125386D02*
Y126261D01*
X134903Y125386D02*
X146223D01*
X134903D02*
Y126261D01*
X128703D02*
X134903D01*
X128703Y125386D02*
Y126261D01*
X123413Y125386D02*
X128703D01*
X123413Y115350D02*
Y125386D01*
X121126Y115350D02*
X123413D01*
X121126Y106650D02*
Y115350D01*
Y106650D02*
X123413D01*
Y99186D02*
Y106650D01*
Y99186D02*
X157713D01*
Y106650D01*
X160000D01*
Y115350D01*
X157713D02*
X160000D01*
X157713D02*
Y125386D01*
X249650Y177850D02*
Y190150D01*
X242350D02*
X249650D01*
X242350Y177850D02*
Y190150D01*
Y177850D02*
X249650D01*
X190850Y204350D02*
X203150D01*
Y211650D01*
X190850D02*
X203150D01*
X190850Y204350D02*
Y211650D01*
X140650Y271850D02*
Y284150D01*
X133350D02*
X140650D01*
X133350Y271850D02*
Y284150D01*
Y271850D02*
X140650D01*
X287650Y131850D02*
Y144150D01*
X280350D02*
X287650D01*
X280350Y131850D02*
Y144150D01*
Y131850D02*
X287650D01*
X268850Y240650D02*
X281150D01*
X268850Y233350D02*
Y240650D01*
Y233350D02*
X281150D01*
Y240650D01*
X259600Y228400D02*
X288400D01*
X259600Y217350D02*
Y228400D01*
Y199600D02*
Y210650D01*
Y199600D02*
X288400D01*
Y210650D01*
Y217350D02*
Y228400D01*
Y217350D02*
X291550D01*
X256450D02*
X259600D01*
X256450Y210650D02*
Y217350D01*
Y210650D02*
X259600D01*
X288400D02*
X291550D01*
Y217350D01*
X259600Y196400D02*
X288400D01*
X259600Y185350D02*
Y196400D01*
Y167600D02*
Y178650D01*
Y167600D02*
X288400D01*
Y178650D01*
Y185350D02*
Y196400D01*
Y185350D02*
X291550D01*
X256450D02*
X259600D01*
X256450Y178650D02*
Y185350D01*
Y178650D02*
X259600D01*
X288400D02*
X291550D01*
Y185350D01*
X237650Y390850D02*
Y403150D01*
X230350D02*
X237650D01*
X230350Y390850D02*
Y403150D01*
Y390850D02*
X237650D01*
X240850Y323650D02*
X253150D01*
X240850Y316350D02*
Y323650D01*
Y316350D02*
X253150D01*
Y323650D01*
X155350Y460850D02*
Y473150D01*
Y460850D02*
X162650D01*
Y473150D01*
X155350D02*
X162650D01*
X181650Y460850D02*
Y473150D01*
X174350D02*
X181650D01*
X174350Y460850D02*
Y473150D01*
Y460850D02*
X181650D01*
X219650D02*
Y473150D01*
X212350D02*
X219650D01*
X212350Y460850D02*
Y473150D01*
Y460850D02*
X219650D01*
X129350Y463850D02*
Y476150D01*
Y463850D02*
X136650D01*
Y476150D01*
X129350D02*
X136650D01*
X200650Y460850D02*
Y473150D01*
X193350D02*
X200650D01*
X193350Y460850D02*
Y473150D01*
Y460850D02*
X200650D01*
X255126Y331385D02*
Y387685D01*
X300626D01*
Y331385D02*
Y387685D01*
X255126Y331385D02*
X300626D01*
X238650Y460850D02*
Y473150D01*
X231350D02*
X238650D01*
X231350Y460850D02*
Y473150D01*
Y460850D02*
X238650D01*
X257650D02*
Y473150D01*
X250350D02*
X257650D01*
X250350Y460850D02*
Y473150D01*
Y460850D02*
X257650D01*
X229350Y269850D02*
Y282150D01*
Y269850D02*
X236650D01*
Y282150D01*
X229350D02*
X236650D01*
X242000Y231000D02*
Y233500D01*
X244500D01*
Y260500D01*
X242000D02*
X244500D01*
X242000D02*
Y263000D01*
X230000D02*
X242000D01*
X230000Y260500D02*
Y263000D01*
X227500Y260500D02*
X230000D01*
X227500Y233500D02*
Y260500D01*
Y233500D02*
X230000D01*
Y231000D02*
Y233500D01*
Y231000D02*
X242000D01*
X161350Y302850D02*
Y315150D01*
Y302850D02*
X168650D01*
Y315150D01*
X161350D02*
X168650D01*
X152350Y304850D02*
Y317150D01*
Y304850D02*
X159650D01*
Y317150D01*
X152350D02*
X159650D01*
X139650Y245850D02*
Y258150D01*
X132350D02*
X139650D01*
X132350Y245850D02*
Y258150D01*
Y245850D02*
X139650D01*
X141650Y313850D02*
Y326150D01*
X134350D02*
X141650D01*
X134350Y313850D02*
Y326150D01*
Y313850D02*
X141650D01*
X159650Y287850D02*
Y300150D01*
X152350D02*
X159650D01*
X152350Y287850D02*
Y300150D01*
Y287850D02*
X159650D01*
X154350Y273300D02*
Y285600D01*
Y273300D02*
X161650D01*
Y285600D01*
X154350D02*
X161650D01*
X141650Y344850D02*
Y357150D01*
X134350D02*
X141650D01*
X134350Y344850D02*
Y357150D01*
Y344850D02*
X141650D01*
X103417Y339194D02*
Y363594D01*
X131817D01*
Y339194D02*
Y363594D01*
X103417Y339194D02*
X131817D01*
X151650Y210850D02*
Y223150D01*
X144350D02*
X151650D01*
X144350Y210850D02*
Y223150D01*
Y210850D02*
X151650D01*
X156350D02*
Y223150D01*
Y210850D02*
X163650D01*
Y223150D01*
X156350D02*
X163650D01*
X140650Y210850D02*
Y223150D01*
X133350D02*
X140650D01*
X133350Y210850D02*
Y223150D01*
Y210850D02*
X140650D01*
X129650D02*
Y223150D01*
X122350D02*
X129650D01*
X122350Y210850D02*
Y223150D01*
Y210850D02*
X129650D01*
X102417Y304194D02*
Y328594D01*
X130817D01*
Y304194D02*
Y328594D01*
X102417Y304194D02*
X130817D01*
X294650Y314850D02*
Y327150D01*
X287350D02*
X294650D01*
X287350Y314850D02*
Y327150D01*
Y314850D02*
X294650D01*
X276650Y313850D02*
Y326150D01*
X269350D02*
X276650D01*
X269350Y313850D02*
Y326150D01*
Y313850D02*
X276650D01*
X237950Y163300D02*
Y188900D01*
X204459D02*
X237950D01*
X204459Y163300D02*
X237950D01*
X204459D02*
Y188900D01*
X190850Y203650D02*
X203150D01*
X190850Y196350D02*
Y203650D01*
Y196350D02*
X203150D01*
Y203650D01*
X135650Y188400D02*
Y200700D01*
X128350D02*
X135650D01*
X128350Y188400D02*
Y200700D01*
Y188400D02*
X135650D01*
X216160Y141900D02*
X229840D01*
X216160D02*
Y144450D01*
X229840Y141900D02*
Y144450D01*
X215300D02*
X216160D01*
X229840D02*
X230700D01*
Y155550D01*
X226100D02*
X230700D01*
X226100D02*
Y158100D01*
X219900D02*
X226100D01*
X219900Y155550D02*
Y158100D01*
X215300Y155550D02*
X219900D01*
X215300Y144450D02*
Y155550D01*
X233160Y141900D02*
X246840D01*
X233160D02*
Y144450D01*
X246840Y141900D02*
Y144450D01*
X232300D02*
X233160D01*
X246840D02*
X247700D01*
Y155550D01*
X243100D02*
X247700D01*
X243100D02*
Y158100D01*
X236900D02*
X243100D01*
X236900Y155550D02*
Y158100D01*
X232300Y155550D02*
X236900D01*
X232300Y144450D02*
Y155550D01*
X272300Y403650D02*
X284600D01*
X272300Y396350D02*
Y403650D01*
Y396350D02*
X284600D01*
Y403650D01*
X272400Y412350D02*
X284700D01*
Y419650D01*
X272400D02*
X284700D01*
X272400Y412350D02*
Y419650D01*
X257126Y252850D02*
Y309150D01*
X302626D01*
Y252850D02*
Y309150D01*
X257126Y252850D02*
X302626D01*
X254650Y234400D02*
Y246700D01*
X247350D02*
X254650D01*
X247350Y234400D02*
Y246700D01*
Y234400D02*
X254650D01*
X219350Y269850D02*
Y282150D01*
Y269850D02*
X226650D01*
Y282150D01*
X219350D02*
X226650D01*
X261406Y99417D02*
X285806D01*
X261406D02*
Y127817D01*
X285806D01*
Y99417D02*
Y127817D01*
X232194Y128583D02*
X256594D01*
Y100183D02*
Y128583D01*
X232194Y100183D02*
X256594D01*
X232194D02*
Y128583D01*
X102417Y233194D02*
Y257594D01*
X130817D01*
Y233194D02*
Y257594D01*
X102417Y233194D02*
X130817D01*
X102417Y268194D02*
Y292594D01*
X130817D01*
Y268194D02*
Y292594D01*
X102417Y268194D02*
X130817D01*
X234850Y141650D02*
X247150D01*
X234850Y134350D02*
Y141650D01*
Y134350D02*
X247150D01*
Y141650D01*
X216850D02*
X229150D01*
X216850Y134350D02*
Y141650D01*
Y134350D02*
X229150D01*
Y141650D01*
X135850Y148650D02*
X148150D01*
X135850Y141350D02*
Y148650D01*
Y141350D02*
X148150D01*
Y148650D01*
X169850Y147650D02*
X182150D01*
X169850Y140350D02*
Y147650D01*
Y140350D02*
X182150D01*
Y147650D01*
X166650Y188300D02*
Y200600D01*
X159350D02*
X166650D01*
X159350Y188300D02*
Y200600D01*
Y188300D02*
X166650D01*
X152400Y141350D02*
X164700D01*
Y148650D01*
X152400D02*
X164700D01*
X152400Y141350D02*
Y148650D01*
X118300Y141350D02*
X130600D01*
Y148650D01*
X118300D02*
X130600D01*
X118300Y141350D02*
Y148650D01*
X103417Y376194D02*
Y400594D01*
X131817D01*
Y376194D02*
Y400594D01*
X103417Y376194D02*
X131817D01*
X175400Y216400D02*
Y353600D01*
X178250D01*
X209750D02*
X212600D01*
Y216400D02*
Y353600D01*
X209750Y216400D02*
X212600D01*
X175400D02*
X178250D01*
Y214000D02*
Y216400D01*
Y353600D02*
Y356000D01*
X209750D01*
Y353600D02*
Y356000D01*
Y214000D02*
Y216400D01*
X178250Y214000D02*
X209750D01*
X223850Y206650D02*
X236150D01*
X223850Y199350D02*
Y206650D01*
Y199350D02*
X236150D01*
Y206650D01*
X141650Y382850D02*
Y395150D01*
X134350D02*
X141650D01*
X134350Y382850D02*
Y395150D01*
Y382850D02*
X141650D01*
D67*
X119075Y410400D02*
X139334D01*
X104605Y424871D02*
X119075Y410400D01*
X104605Y424871D02*
Y445129D01*
X119075Y459600D01*
X139334D01*
X153805Y445129D01*
Y424871D02*
Y445129D01*
X139334Y410400D02*
X153805Y424871D01*
D68*
X161441Y287943D02*
Y299557D01*
Y287943D02*
X166559D01*
Y299557D01*
X161441D02*
X166559D01*
X270441Y132193D02*
Y143807D01*
Y132193D02*
X275559D01*
Y143807D01*
X270441D02*
X275559D01*
X149221Y152248D02*
X176779D01*
Y185752D01*
X149221D02*
X176779D01*
X149221Y152248D02*
Y185752D01*
X167559Y270193D02*
Y281807D01*
X162441D02*
X167559D01*
X162441Y270193D02*
Y281807D01*
Y270193D02*
X167559D01*
X168441Y189193D02*
Y200807D01*
Y189193D02*
X173559D01*
Y200807D01*
X168441D02*
X173559D01*
X115165Y152118D02*
X142724D01*
Y185622D01*
X115165D02*
X142724D01*
X115165Y152118D02*
Y185622D01*
X162496Y101284D02*
Y128842D01*
Y101284D02*
X218008D01*
Y128842D01*
X162496D02*
X218008D01*
X118441Y189193D02*
Y200807D01*
Y189193D02*
X123559D01*
Y200807D01*
X118441D02*
X123559D01*
%TF.MD5,480b276b2d243c334f00740ba648879f*%
M02*
