%TF.GenerationSoftware,Altium Limited,Altium Designer,24.10.1 (45)*%
G04 Layer_Color=128*
%FSLAX25Y25*%
%MOIN*%
%TF.SameCoordinates,405BA738-95C1-4717-9A2A-605BB7F835F8*%
%TF.FilePolarity,Positive*%
%TF.FileFunction,Drillmap*%
%TF.Part,Single*%
G01*
G75*
%TA.AperFunction,NonConductor*%
%ADD46C,0.00500*%
D46*
X179250Y421000D02*
X182750D01*
X181000Y419250D02*
Y422750D01*
X179250Y411000D02*
X182750D01*
X181000Y409250D02*
Y412750D01*
X179250Y431000D02*
X182750D01*
X181000Y429250D02*
Y432750D01*
X179250Y441000D02*
X182750D01*
X181000Y439250D02*
Y442750D01*
X169250Y441000D02*
X172750D01*
X171000Y439250D02*
Y442750D01*
X169250Y431000D02*
X172750D01*
X171000Y429250D02*
Y432750D01*
X169250Y421000D02*
X172750D01*
X171000Y419250D02*
Y422750D01*
X169250Y411000D02*
X172750D01*
X171000Y409250D02*
Y412750D01*
X140200Y435000D02*
X143800D01*
X142000Y433200D02*
Y436800D01*
X114609Y435000D02*
X118209D01*
X116409Y433200D02*
Y436800D01*
X130503Y122811D02*
X133103D01*
X131803Y121511D02*
Y124111D01*
X148023Y122811D02*
X150623D01*
X149323Y121511D02*
Y124111D01*
X155500Y111000D02*
X158500D01*
X157000Y109500D02*
Y112500D01*
X122626Y111000D02*
X125626D01*
X124126Y109500D02*
Y112500D01*
X264404Y351268D02*
X270604D01*
X267504Y348168D02*
Y354368D01*
X268865Y343000D02*
X276065D01*
X272465Y339400D02*
Y346600D01*
X268865Y359535D02*
X276065D01*
X272465Y355935D02*
Y363135D01*
X268865Y376071D02*
X276065D01*
X272465Y372471D02*
Y379671D01*
X285400Y343000D02*
X292600D01*
X289000Y339400D02*
Y346600D01*
X285400Y359535D02*
X292600D01*
X289000Y355935D02*
Y363135D01*
X285400Y376071D02*
X292600D01*
X289000Y372471D02*
Y379671D01*
X234600Y257000D02*
X237400D01*
X236000Y255600D02*
Y258400D01*
X234600Y247000D02*
X237400D01*
X236000Y245600D02*
Y248400D01*
X234600Y237000D02*
X237400D01*
X236000Y235600D02*
Y238400D01*
X115450Y356000D02*
X120550D01*
X118000Y353450D02*
Y358550D01*
X115450Y346000D02*
X120550D01*
X118000Y343450D02*
Y348550D01*
X114450Y321000D02*
X119550D01*
X117000Y318450D02*
Y323550D01*
X114450Y311000D02*
X119550D01*
X117000Y308450D02*
Y313550D01*
X232050Y167283D02*
X235950D01*
X234000Y165333D02*
Y169234D01*
X232050Y185000D02*
X235950D01*
X234000Y183050D02*
Y186950D01*
X206459Y185000D02*
X210359D01*
X208409Y183050D02*
Y186950D01*
X206459Y167283D02*
X210359D01*
X208409Y165333D02*
Y169234D01*
X266404Y272732D02*
X272604D01*
X269504Y269632D02*
Y275832D01*
X270865Y264465D02*
X278065D01*
X274465Y260865D02*
Y268065D01*
X270865Y281000D02*
X278065D01*
X274465Y277400D02*
Y284600D01*
X270865Y297535D02*
X278065D01*
X274465Y293935D02*
Y301135D01*
X287400Y264465D02*
X294600D01*
X291000Y260865D02*
Y268065D01*
X287400Y281000D02*
X294600D01*
X291000Y277400D02*
Y284600D01*
X287400Y297535D02*
X294600D01*
X291000Y293935D02*
Y301135D01*
X266450Y114000D02*
X271550D01*
X269000Y111450D02*
Y116550D01*
X276450Y114000D02*
X281550D01*
X279000Y111450D02*
Y116550D01*
X246450Y114000D02*
X251550D01*
X249000Y111450D02*
Y116550D01*
X236450Y114000D02*
X241550D01*
X239000Y111450D02*
Y116550D01*
X114450Y250000D02*
X119550D01*
X117000Y247450D02*
Y252550D01*
X114450Y240000D02*
X119550D01*
X117000Y237450D02*
Y242550D01*
X114450Y285000D02*
X119550D01*
X117000Y282450D02*
Y287550D01*
X114450Y275000D02*
X119550D01*
X117000Y272450D02*
Y277550D01*
X164661Y119000D02*
X167417D01*
X166039Y117622D02*
Y120378D01*
X213087Y119000D02*
X215843D01*
X214465Y117622D02*
Y120378D01*
X188677Y119000D02*
X191827D01*
X190252Y117425D02*
Y120575D01*
X196551Y119000D02*
X199701D01*
X198126Y117425D02*
Y120575D01*
X204425Y119000D02*
X207575D01*
X206000Y117425D02*
Y120575D01*
X172929Y119000D02*
X176079D01*
X174504Y117425D02*
Y120575D01*
X115450Y393000D02*
X120550D01*
X118000Y390450D02*
Y395550D01*
X115450Y383000D02*
X120550D01*
X118000Y380450D02*
Y385550D01*
X177400Y350000D02*
X180600D01*
X179000Y348400D02*
Y351600D01*
X177400Y340000D02*
X180600D01*
X179000Y338400D02*
Y341600D01*
X177400Y330000D02*
X180600D01*
X179000Y328400D02*
Y331600D01*
X177400Y320000D02*
X180600D01*
X179000Y318400D02*
Y321600D01*
X177400Y310000D02*
X180600D01*
X179000Y308400D02*
Y311600D01*
X177400Y300000D02*
X180600D01*
X179000Y298400D02*
Y301600D01*
X177400Y290000D02*
X180600D01*
X179000Y288400D02*
Y291600D01*
X177400Y280000D02*
X180600D01*
X179000Y278400D02*
Y281600D01*
X177400Y270000D02*
X180600D01*
X179000Y268400D02*
Y271600D01*
X177400Y260000D02*
X180600D01*
X179000Y258400D02*
Y261600D01*
X177400Y250000D02*
X180600D01*
X179000Y248400D02*
Y251600D01*
X177400Y240000D02*
X180600D01*
X179000Y238400D02*
Y241600D01*
X177400Y230000D02*
X180600D01*
X179000Y228400D02*
Y231600D01*
X177400Y220000D02*
X180600D01*
X179000Y218400D02*
Y221600D01*
X207400Y220000D02*
X210600D01*
X209000Y218400D02*
Y221600D01*
X207400Y230000D02*
X210600D01*
X209000Y228400D02*
Y231600D01*
X207400Y240000D02*
X210600D01*
X209000Y238400D02*
Y241600D01*
X207400Y250000D02*
X210600D01*
X209000Y248400D02*
Y251600D01*
X207400Y260000D02*
X210600D01*
X209000Y258400D02*
Y261600D01*
X207400Y270000D02*
X210600D01*
X209000Y268400D02*
Y271600D01*
X207400Y280000D02*
X210600D01*
X209000Y278400D02*
Y281600D01*
X207400Y290000D02*
X210600D01*
X209000Y288400D02*
Y291600D01*
X207400Y300000D02*
X210600D01*
X209000Y298400D02*
Y301600D01*
X207400Y310000D02*
X210600D01*
X209000Y308400D02*
Y311600D01*
X207400Y320000D02*
X210600D01*
X209000Y318400D02*
Y321600D01*
X207400Y330000D02*
X210600D01*
X209000Y328400D02*
Y331600D01*
X207400Y340000D02*
X210600D01*
X209000Y338400D02*
Y341600D01*
X207400Y350000D02*
X210600D01*
X209000Y348400D02*
Y351600D01*
X105700Y473000D02*
X118300D01*
X112000Y466700D02*
Y479300D01*
X289700Y473000D02*
X302300D01*
X296000Y466700D02*
Y479300D01*
X290700Y112000D02*
X303300D01*
X297000Y105700D02*
Y118300D01*
X281600Y439000D02*
X284400D01*
X283000Y437600D02*
Y440400D01*
X274600Y443000D02*
X277400D01*
X276000Y441600D02*
Y444400D01*
X200600Y428000D02*
X203400D01*
X202000Y426600D02*
Y429400D01*
X192600Y420000D02*
X195400D01*
X194000Y418600D02*
Y421400D01*
X209600Y415000D02*
X212400D01*
X211000Y413600D02*
Y416400D01*
X198600Y397000D02*
X201400D01*
X200000Y395600D02*
Y398400D01*
X147600Y315000D02*
X150400D01*
X149000Y313600D02*
Y316400D01*
X175600Y181000D02*
X178400D01*
X177000Y179600D02*
Y182400D01*
X189600Y276000D02*
X192400D01*
X191000Y274600D02*
Y277400D01*
X124600Y207000D02*
X127400D01*
X126000Y205600D02*
Y208400D01*
X271600Y157000D02*
X274400D01*
X273000Y155600D02*
Y158400D01*
X252600Y214000D02*
X255400D01*
X254000Y212600D02*
Y215400D01*
X239600Y191000D02*
X242400D01*
X241000Y189600D02*
Y192400D01*
X252600Y182000D02*
X255400D01*
X254000Y180600D02*
Y183400D01*
X219600Y203000D02*
X222400D01*
X221000Y201600D02*
Y204400D01*
X204600Y200000D02*
X207400D01*
X206000Y198600D02*
Y201400D01*
X175600Y191000D02*
X178400D01*
X177000Y189600D02*
Y192400D01*
X115600Y186000D02*
X118400D01*
X117000Y184600D02*
Y187400D01*
X119600Y138000D02*
X122400D01*
X121000Y136600D02*
Y139400D01*
X145600Y157000D02*
X148400D01*
X147000Y155600D02*
Y158400D01*
X183600Y144000D02*
X186400D01*
X185000Y142600D02*
Y145400D01*
X263600Y135000D02*
X266400D01*
X265000Y133600D02*
Y136400D01*
X216600Y392000D02*
X219400D01*
X218000Y390600D02*
Y393400D01*
X196600Y324000D02*
X199400D01*
X198000Y322600D02*
Y325400D01*
X139600Y181000D02*
X142400D01*
X141000Y179600D02*
Y182400D01*
X203600Y144000D02*
X206400D01*
X205000Y142600D02*
Y145400D01*
X105700Y111000D02*
X118300D01*
X112000Y104700D02*
Y117300D01*
%TF.MD5,af59850a8763c2f6b1c5bf85a755b25c*%
M02*
