%TF.GenerationSoftware,Altium Limited,Altium Designer,24.10.1 (45)*%
G04 Layer_Color=16711935*
%FSLAX25Y25*%
%MOIN*%
%TF.SameCoordinates,405BA738-95C1-4717-9A2A-605BB7F835F8*%
%TF.FilePolarity,Positive*%
%TF.FileFunction,Other,Mechanical_13*%
%TF.Part,Single*%
G01*
G75*
%TA.AperFunction,NonConductor*%
%ADD42C,0.02000*%
%ADD44C,0.00787*%
%ADD46C,0.00500*%
%ADD49C,0.00300*%
%ADD66C,0.00000*%
%ADD67C,0.00100*%
D42*
X165000Y411000D02*
G03*
X165000Y411000I-1500J0D01*
G01*
X157063Y121177D02*
G03*
X157063Y121177I-1500J0D01*
G01*
X298000Y376071D02*
G03*
X298000Y376071I-1500J0D01*
G01*
X112000Y346000D02*
G03*
X112000Y346000I-1500J0D01*
G01*
X111000Y311000D02*
G03*
X111000Y311000I-1500J0D01*
G01*
X300000Y297535D02*
G03*
X300000Y297535I-1500J0D01*
G01*
X280500Y106500D02*
G03*
X280500Y106500I-1500J0D01*
G01*
X240500Y121500D02*
G03*
X240500Y121500I-1500J0D01*
G01*
X111000Y240000D02*
G03*
X111000Y240000I-1500J0D01*
G01*
Y275000D02*
G03*
X111000Y275000I-1500J0D01*
G01*
X112000Y383000D02*
G03*
X112000Y383000I-1500J0D01*
G01*
D44*
X164394Y286801D02*
G03*
X164394Y286801I-394J0D01*
G01*
X273394Y131051D02*
G03*
X273394Y131051I-394J0D01*
G01*
X154339Y149295D02*
G03*
X154339Y149295I-394J0D01*
G01*
X165394Y282949D02*
G03*
X165394Y282949I-394J0D01*
G01*
X171394Y188051D02*
G03*
X171394Y188051I-394J0D01*
G01*
X120283Y149165D02*
G03*
X120283Y149165I-394J0D01*
G01*
X174898Y130811D02*
G03*
X174898Y130811I-394J0D01*
G01*
X121394Y188051D02*
G03*
X121394Y188051I-394J0D01*
G01*
D46*
X162425Y290600D02*
Y296900D01*
Y290600D02*
X165575D01*
Y296900D01*
X162425D02*
X165575D01*
X271425Y134850D02*
Y141150D01*
Y134850D02*
X274575D01*
Y141150D01*
X271425D02*
X274575D01*
X150205Y162110D02*
Y175890D01*
Y162110D02*
X175795D01*
Y175890D01*
X150205D02*
X175795D01*
X166575Y272850D02*
Y279150D01*
X163425D02*
X166575D01*
X163425Y272850D02*
Y279150D01*
Y272850D02*
X166575D01*
X169425Y191850D02*
Y198150D01*
Y191850D02*
X172575D01*
Y198150D01*
X169425D02*
X172575D01*
X116150Y161980D02*
Y175760D01*
Y161980D02*
X141740D01*
Y175760D01*
X116150D02*
X141740D01*
X165252Y110142D02*
Y127858D01*
Y110142D02*
X178441D01*
X202063D01*
X215252D01*
Y127858D01*
X165252D02*
X215252D01*
X178441Y102268D02*
Y110142D01*
Y102268D02*
X202063D01*
Y110142D01*
X119425Y191850D02*
Y198150D01*
Y191850D02*
X122575D01*
Y198150D01*
X119425D02*
X122575D01*
D49*
X230659Y165335D02*
X227327Y168667D01*
X230659D02*
X227327Y165335D01*
X230659Y167001D02*
X227327D01*
X228993Y168667D02*
Y165335D01*
X179000Y351665D02*
X182332Y348333D01*
X179000D02*
X182332Y351665D01*
X179000Y349999D02*
X182332D01*
X180666Y348333D02*
Y351665D01*
D66*
X152805Y435000D02*
G03*
X152805Y435000I-23600J0D01*
G01*
X237000Y257000D02*
G03*
X237000Y257000I-1000J0D01*
G01*
X222405Y164342D02*
G03*
X220005Y164342I-1200J0D01*
G01*
X218800Y147450D02*
G03*
X218800Y147450I-500J0D01*
G01*
X235800D02*
G03*
X235800Y147450I-500J0D01*
G01*
X192800Y355000D02*
G03*
X195200Y355000I1200J0D01*
G01*
D67*
X185921Y406000D02*
Y446000D01*
X166000D02*
X185921D01*
X166000Y406000D02*
Y446000D01*
Y406000D02*
X185921D01*
X273350Y450050D02*
X278650D01*
X273350Y447650D02*
Y450050D01*
Y447650D02*
X278650D01*
Y450050D01*
X273350Y453950D02*
X278650D01*
Y456350D01*
X273350D02*
X278650D01*
X273350Y453950D02*
Y456350D01*
X278650Y447650D02*
Y456350D01*
X273350D02*
X278650D01*
X273350Y447650D02*
Y456350D01*
Y447650D02*
X278650D01*
X294500Y436350D02*
Y441650D01*
Y436350D02*
X296900D01*
Y441650D01*
X294500D02*
X296900D01*
X290600Y436350D02*
Y441650D01*
X288200D02*
X290600D01*
X288200Y436350D02*
Y441650D01*
Y436350D02*
X290600D01*
X288200Y441650D02*
X296900D01*
X288200Y436350D02*
Y441650D01*
Y436350D02*
X296900D01*
Y441650D01*
X153805Y435000D02*
X158805D01*
X156305Y432500D02*
Y437500D01*
X284200Y154350D02*
Y159650D01*
Y154350D02*
X286600D01*
Y159650D01*
X284200D02*
X286600D01*
X280300Y154350D02*
Y159650D01*
X277900D02*
X280300D01*
X277900Y154350D02*
Y159650D01*
Y154350D02*
X280300D01*
X277900Y159650D02*
X286600D01*
X277900Y154350D02*
Y159650D01*
Y154350D02*
X286600D01*
Y159650D01*
X124413Y100186D02*
X156713D01*
Y124386D01*
X124413D02*
X156713D01*
X124413Y100186D02*
Y124386D01*
X243350Y179650D02*
X248650D01*
X243350D02*
Y188350D01*
X248650D01*
Y179650D02*
Y188350D01*
X243350Y185950D02*
Y188350D01*
X248650D01*
Y185950D02*
Y188350D01*
X243350Y185950D02*
X248650D01*
Y179650D02*
Y182050D01*
X243350Y179650D02*
X248650D01*
X243350D02*
Y182050D01*
X248650D01*
X192650Y205350D02*
Y210650D01*
X201350D01*
Y205350D02*
Y210650D01*
X192650Y205350D02*
X201350D01*
X198950Y210650D02*
X201350D01*
Y205350D02*
Y210650D01*
X198950Y205350D02*
X201350D01*
X198950D02*
Y210650D01*
X192650Y205350D02*
X195050D01*
X192650D02*
Y210650D01*
X195050D01*
Y205350D02*
Y210650D01*
X134350Y273650D02*
X139650D01*
X134350D02*
Y282350D01*
X139650D01*
Y273650D02*
Y282350D01*
X134350Y279950D02*
Y282350D01*
X139650D01*
Y279950D02*
Y282350D01*
X134350Y279950D02*
X139650D01*
Y273650D02*
Y276050D01*
X134350Y273650D02*
X139650D01*
X134350D02*
Y276050D01*
X139650D01*
X281350Y133650D02*
X286650D01*
X281350D02*
Y142350D01*
X286650D01*
Y133650D02*
Y142350D01*
X281350Y139950D02*
Y142350D01*
X286650D01*
Y139950D02*
Y142350D01*
X281350Y139950D02*
X286650D01*
Y133650D02*
Y136050D01*
X281350Y133650D02*
X286650D01*
X281350D02*
Y136050D01*
X286650D01*
X279350Y234350D02*
Y239650D01*
X270650Y234350D02*
X279350D01*
X270650D02*
Y239650D01*
X279350D01*
X270650Y234350D02*
X273050D01*
X270650D02*
Y239650D01*
X273050D01*
Y234350D02*
Y239650D01*
X276950D02*
X279350D01*
Y234350D02*
Y239650D01*
X276950Y234350D02*
X279350D01*
X276950D02*
Y239650D01*
X287400Y200600D02*
Y227400D01*
X260600Y200600D02*
X287400D01*
X260600D02*
Y227400D01*
X287400D01*
X280700D02*
X287400Y220700D01*
X280700Y200600D02*
X287400Y207300D01*
X294950Y212500D02*
Y215500D01*
X293450Y214000D02*
X296450D01*
X287400Y168600D02*
Y195400D01*
X260600Y168600D02*
X287400D01*
X260600D02*
Y195400D01*
X287400D01*
X280700D02*
X287400Y188700D01*
X280700Y168600D02*
X287400Y175300D01*
X294950Y180500D02*
Y183500D01*
X293450Y182000D02*
X296450D01*
X231350Y392650D02*
X236650D01*
X231350D02*
Y401350D01*
X236650D01*
Y392650D02*
Y401350D01*
X231350Y398950D02*
Y401350D01*
X236650D01*
Y398950D02*
Y401350D01*
X231350Y398950D02*
X236650D01*
Y392650D02*
Y395050D01*
X231350Y392650D02*
X236650D01*
X231350D02*
Y395050D01*
X236650D01*
X251350Y317350D02*
Y322650D01*
X242650Y317350D02*
X251350D01*
X242650D02*
Y322650D01*
X251350D01*
X242650Y317350D02*
X245050D01*
X242650D02*
Y322650D01*
X245050D01*
Y317350D02*
Y322650D01*
X248950D02*
X251350D01*
Y317350D02*
Y322650D01*
X248950Y317350D02*
X251350D01*
X248950D02*
Y322650D01*
X156350Y471350D02*
X161650D01*
Y462650D02*
Y471350D01*
X156350Y462650D02*
X161650D01*
X156350D02*
Y471350D01*
X161650Y462650D02*
Y465050D01*
X156350Y462650D02*
X161650D01*
X156350D02*
Y465050D01*
X161650D01*
X156350Y468950D02*
Y471350D01*
X161650D01*
Y468950D02*
Y471350D01*
X156350Y468950D02*
X161650D01*
X175350Y462650D02*
X180650D01*
X175350D02*
Y471350D01*
X180650D01*
Y462650D02*
Y471350D01*
X175350Y468950D02*
Y471350D01*
X180650D01*
Y468950D02*
Y471350D01*
X175350Y468950D02*
X180650D01*
Y462650D02*
Y465050D01*
X175350Y462650D02*
X180650D01*
X175350D02*
Y465050D01*
X180650D01*
X213350Y462650D02*
X218650D01*
X213350D02*
Y471350D01*
X218650D01*
Y462650D02*
Y471350D01*
X213350Y468950D02*
Y471350D01*
X218650D01*
Y468950D02*
Y471350D01*
X213350Y468950D02*
X218650D01*
Y462650D02*
Y465050D01*
X213350Y462650D02*
X218650D01*
X213350D02*
Y465050D01*
X218650D01*
X130350Y474350D02*
X135650D01*
Y465650D02*
Y474350D01*
X130350Y465650D02*
X135650D01*
X130350D02*
Y474350D01*
X135650Y465650D02*
Y468050D01*
X130350Y465650D02*
X135650D01*
X130350D02*
Y468050D01*
X135650D01*
X130350Y471950D02*
Y474350D01*
X135650D01*
Y471950D02*
Y474350D01*
X130350Y471950D02*
X135650D01*
X194350Y462650D02*
X199650D01*
X194350D02*
Y471350D01*
X199650D01*
Y462650D02*
Y471350D01*
X194350Y468950D02*
Y471350D01*
X199650D01*
Y468950D02*
Y471350D01*
X194350Y468950D02*
X199650D01*
Y462650D02*
Y465050D01*
X194350Y462650D02*
X199650D01*
X194350D02*
Y465050D01*
X199650D01*
X256126Y332385D02*
X299626D01*
X256126D02*
Y386685D01*
X299626D01*
Y332385D02*
Y386685D01*
X232350Y462650D02*
X237650D01*
X232350D02*
Y471350D01*
X237650D01*
Y462650D02*
Y471350D01*
X232350Y468950D02*
Y471350D01*
X237650D01*
Y468950D02*
Y471350D01*
X232350Y468950D02*
X237650D01*
Y462650D02*
Y465050D01*
X232350Y462650D02*
X237650D01*
X232350D02*
Y465050D01*
X237650D01*
X251350Y462650D02*
X256650D01*
X251350D02*
Y471350D01*
X256650D01*
Y462650D02*
Y471350D01*
X251350Y468950D02*
Y471350D01*
X256650D01*
Y468950D02*
Y471350D01*
X251350Y468950D02*
X256650D01*
Y462650D02*
Y465050D01*
X251350Y462650D02*
X256650D01*
X251350D02*
Y465050D01*
X256650D01*
X230350Y280350D02*
X235650D01*
Y271650D02*
Y280350D01*
X230350Y271650D02*
X235650D01*
X230350D02*
Y280350D01*
X235650Y271650D02*
Y274050D01*
X230350Y271650D02*
X235650D01*
X230350D02*
Y274050D01*
X235650D01*
X230350Y277950D02*
Y280350D01*
X235650D01*
Y277950D02*
Y280350D01*
X230350Y277950D02*
X235650D01*
X231000Y232000D02*
Y262000D01*
Y232000D02*
X241000D01*
Y262000D01*
X231000D02*
X241000D01*
X162350Y313350D02*
X167650D01*
Y304650D02*
Y313350D01*
X162350Y304650D02*
X167650D01*
X162350D02*
Y313350D01*
X167650Y304650D02*
Y307050D01*
X162350Y304650D02*
X167650D01*
X162350D02*
Y307050D01*
X167650D01*
X162350Y310950D02*
Y313350D01*
X167650D01*
Y310950D02*
Y313350D01*
X162350Y310950D02*
X167650D01*
X153350Y315350D02*
X158650D01*
Y306650D02*
Y315350D01*
X153350Y306650D02*
X158650D01*
X153350D02*
Y315350D01*
X158650Y306650D02*
Y309050D01*
X153350Y306650D02*
X158650D01*
X153350D02*
Y309050D01*
X158650D01*
X153350Y312950D02*
Y315350D01*
X158650D01*
Y312950D02*
Y315350D01*
X153350Y312950D02*
X158650D01*
X133350Y247650D02*
X138650D01*
X133350D02*
Y256350D01*
X138650D01*
Y247650D02*
Y256350D01*
X133350Y253950D02*
Y256350D01*
X138650D01*
Y253950D02*
Y256350D01*
X133350Y253950D02*
X138650D01*
Y247650D02*
Y250050D01*
X133350Y247650D02*
X138650D01*
X133350D02*
Y250050D01*
X138650D01*
X135350Y315650D02*
X140650D01*
X135350D02*
Y324350D01*
X140650D01*
Y315650D02*
Y324350D01*
X135350Y321950D02*
Y324350D01*
X140650D01*
Y321950D02*
Y324350D01*
X135350Y321950D02*
X140650D01*
Y315650D02*
Y318050D01*
X135350Y315650D02*
X140650D01*
X135350D02*
Y318050D01*
X140650D01*
X153350Y289650D02*
X158650D01*
X153350D02*
Y298350D01*
X158650D01*
Y289650D02*
Y298350D01*
X153350Y295950D02*
Y298350D01*
X158650D01*
Y295950D02*
Y298350D01*
X153350Y295950D02*
X158650D01*
Y289650D02*
Y292050D01*
X153350Y289650D02*
X158650D01*
X153350D02*
Y292050D01*
X158650D01*
X155350Y283800D02*
X160650D01*
Y275100D02*
Y283800D01*
X155350Y275100D02*
X160650D01*
X155350D02*
Y283800D01*
X160650Y275100D02*
Y277500D01*
X155350Y275100D02*
X160650D01*
X155350D02*
Y277500D01*
X160650D01*
X155350Y281400D02*
Y283800D01*
X160650D01*
Y281400D02*
Y283800D01*
X155350Y281400D02*
X160650D01*
X135350Y346650D02*
X140650D01*
X135350D02*
Y355350D01*
X140650D01*
Y346650D02*
Y355350D01*
X135350Y352950D02*
Y355350D01*
X140650D01*
Y352950D02*
Y355350D01*
X135350Y352950D02*
X140650D01*
Y346650D02*
Y349050D01*
X135350Y346650D02*
X140650D01*
X135350D02*
Y349050D01*
X140650D01*
X104417Y340194D02*
X130817D01*
X104417D02*
Y362594D01*
X130817D01*
Y340194D02*
Y362594D01*
X145350Y212650D02*
X150650D01*
X145350D02*
Y221350D01*
X150650D01*
Y212650D02*
Y221350D01*
X145350Y218950D02*
Y221350D01*
X150650D01*
Y218950D02*
Y221350D01*
X145350Y218950D02*
X150650D01*
Y212650D02*
Y215050D01*
X145350Y212650D02*
X150650D01*
X145350D02*
Y215050D01*
X150650D01*
X157350Y221350D02*
X162650D01*
Y212650D02*
Y221350D01*
X157350Y212650D02*
X162650D01*
X157350D02*
Y221350D01*
X162650Y212650D02*
Y215050D01*
X157350Y212650D02*
X162650D01*
X157350D02*
Y215050D01*
X162650D01*
X157350Y218950D02*
Y221350D01*
X162650D01*
Y218950D02*
Y221350D01*
X157350Y218950D02*
X162650D01*
X134350Y212650D02*
X139650D01*
X134350D02*
Y221350D01*
X139650D01*
Y212650D02*
Y221350D01*
X134350Y218950D02*
Y221350D01*
X139650D01*
Y218950D02*
Y221350D01*
X134350Y218950D02*
X139650D01*
Y212650D02*
Y215050D01*
X134350Y212650D02*
X139650D01*
X134350D02*
Y215050D01*
X139650D01*
X123350Y212650D02*
X128650D01*
X123350D02*
Y221350D01*
X128650D01*
Y212650D02*
Y221350D01*
X123350Y218950D02*
Y221350D01*
X128650D01*
Y218950D02*
Y221350D01*
X123350Y218950D02*
X128650D01*
Y212650D02*
Y215050D01*
X123350Y212650D02*
X128650D01*
X123350D02*
Y215050D01*
X128650D01*
X103417Y305194D02*
X129817D01*
X103417D02*
Y327594D01*
X129817D01*
Y305194D02*
Y327594D01*
X288350Y316650D02*
X293650D01*
X288350D02*
Y325350D01*
X293650D01*
Y316650D02*
Y325350D01*
X288350Y322950D02*
Y325350D01*
X293650D01*
Y322950D02*
Y325350D01*
X288350Y322950D02*
X293650D01*
Y316650D02*
Y319050D01*
X288350Y316650D02*
X293650D01*
X288350D02*
Y319050D01*
X293650D01*
X270350Y315650D02*
X275650D01*
X270350D02*
Y324350D01*
X275650D01*
Y315650D02*
Y324350D01*
X270350Y321950D02*
Y324350D01*
X275650D01*
Y321950D02*
Y324350D01*
X270350Y321950D02*
X275650D01*
Y315650D02*
Y318050D01*
X270350Y315650D02*
X275650D01*
X270350D02*
Y318050D01*
X275650D01*
X233005Y165333D02*
Y169234D01*
Y165333D02*
X235950D01*
Y169234D01*
X233005D02*
X235950D01*
X233005Y183050D02*
Y186950D01*
Y183050D02*
X235950D01*
Y186950D01*
X233005D02*
X235950D01*
X209405Y183050D02*
Y186950D01*
X206459D02*
X209405D01*
X206459Y183050D02*
Y186950D01*
Y183050D02*
X209405D01*
Y165333D02*
Y169234D01*
X206459D02*
X209405D01*
X206459Y165333D02*
Y169234D01*
Y165333D02*
X209405D01*
Y187942D02*
X233005D01*
X209405Y164342D02*
Y187942D01*
Y164342D02*
X233005D01*
Y187942D01*
X201350Y197350D02*
Y202650D01*
X192650Y197350D02*
X201350D01*
X192650D02*
Y202650D01*
X201350D01*
X192650Y197350D02*
X195050D01*
X192650D02*
Y202650D01*
X195050D01*
Y197350D02*
Y202650D01*
X198950D02*
X201350D01*
Y197350D02*
Y202650D01*
X198950Y197350D02*
X201350D01*
X198950D02*
Y202650D01*
X129350Y190200D02*
X134650D01*
X129350D02*
Y198900D01*
X134650D01*
Y190200D02*
Y198900D01*
X129350Y196500D02*
Y198900D01*
X134650D01*
Y196500D02*
Y198900D01*
X129350Y196500D02*
X134650D01*
Y190200D02*
Y192600D01*
X129350Y190200D02*
X134650D01*
X129350D02*
Y192600D01*
X134650D01*
X217300Y146450D02*
Y153550D01*
X228700D01*
Y146450D02*
Y153550D01*
X217300Y146450D02*
X228700D01*
X222000Y153550D02*
Y154900D01*
X224000D01*
Y153550D02*
Y154900D01*
X222000Y153550D02*
X224000D01*
X227740Y145100D02*
Y146450D01*
X225740Y145100D02*
X227740D01*
X225740D02*
Y146450D01*
X227740D01*
X220260Y145100D02*
Y146450D01*
X218260Y145100D02*
X220260D01*
X218260D02*
Y146450D01*
X220260D01*
X234300D02*
Y153550D01*
X245700D01*
Y146450D02*
Y153550D01*
X234300Y146450D02*
X245700D01*
X239000Y153550D02*
Y154900D01*
X241000D01*
Y153550D02*
Y154900D01*
X239000Y153550D02*
X241000D01*
X244740Y145100D02*
Y146450D01*
X242740Y145100D02*
X244740D01*
X242740D02*
Y146450D01*
X244740D01*
X237260Y145100D02*
Y146450D01*
X235260Y145100D02*
X237260D01*
X235260D02*
Y146450D01*
X237260D01*
X282800Y397350D02*
Y402650D01*
X274100Y397350D02*
X282800D01*
X274100D02*
Y402650D01*
X282800D01*
X274100Y397350D02*
X276500D01*
X274100D02*
Y402650D01*
X276500D01*
Y397350D02*
Y402650D01*
X280400D02*
X282800D01*
Y397350D02*
Y402650D01*
X280400Y397350D02*
X282800D01*
X280400D02*
Y402650D01*
X274200Y413350D02*
Y418650D01*
X282900D01*
Y413350D02*
Y418650D01*
X274200Y413350D02*
X282900D01*
X280500Y418650D02*
X282900D01*
Y413350D02*
Y418650D01*
X280500Y413350D02*
X282900D01*
X280500D02*
Y418650D01*
X274200Y413350D02*
X276600D01*
X274200D02*
Y418650D01*
X276600D01*
Y413350D02*
Y418650D01*
X258126Y253850D02*
X301626D01*
X258126D02*
Y308150D01*
X301626D01*
Y253850D02*
Y308150D01*
X248350Y236200D02*
X253650D01*
X248350D02*
Y244900D01*
X253650D01*
Y236200D02*
Y244900D01*
X248350Y242500D02*
Y244900D01*
X253650D01*
Y242500D02*
Y244900D01*
X248350Y242500D02*
X253650D01*
Y236200D02*
Y238600D01*
X248350Y236200D02*
X253650D01*
X248350D02*
Y238600D01*
X253650D01*
X220350Y280350D02*
X225650D01*
Y271650D02*
Y280350D01*
X220350Y271650D02*
X225650D01*
X220350D02*
Y280350D01*
X225650Y271650D02*
Y274050D01*
X220350Y271650D02*
X225650D01*
X220350D02*
Y274050D01*
X225650D01*
X220350Y277950D02*
Y280350D01*
X225650D01*
Y277950D02*
Y280350D01*
X220350Y277950D02*
X225650D01*
X284806Y100417D02*
Y126817D01*
X262406Y100417D02*
X284806D01*
X262406D02*
Y126817D01*
X284806D01*
X233194Y101183D02*
Y127583D01*
X255594D01*
Y101183D02*
Y127583D01*
X233194Y101183D02*
X255594D01*
X103417Y234194D02*
X129817D01*
X103417D02*
Y256594D01*
X129817D01*
Y234194D02*
Y256594D01*
X103417Y269194D02*
X129817D01*
X103417D02*
Y291594D01*
X129817D01*
Y269194D02*
Y291594D01*
X245350Y135350D02*
Y140650D01*
X236650Y135350D02*
X245350D01*
X236650D02*
Y140650D01*
X245350D01*
X236650Y135350D02*
X239050D01*
X236650D02*
Y140650D01*
X239050D01*
Y135350D02*
Y140650D01*
X242950D02*
X245350D01*
Y135350D02*
Y140650D01*
X242950Y135350D02*
X245350D01*
X242950D02*
Y140650D01*
X227350Y135350D02*
Y140650D01*
X218650Y135350D02*
X227350D01*
X218650D02*
Y140650D01*
X227350D01*
X218650Y135350D02*
X221050D01*
X218650D02*
Y140650D01*
X221050D01*
Y135350D02*
Y140650D01*
X224950D02*
X227350D01*
Y135350D02*
Y140650D01*
X224950Y135350D02*
X227350D01*
X224950D02*
Y140650D01*
X146350Y142350D02*
Y147650D01*
X137650Y142350D02*
X146350D01*
X137650D02*
Y147650D01*
X146350D01*
X137650Y142350D02*
X140050D01*
X137650D02*
Y147650D01*
X140050D01*
Y142350D02*
Y147650D01*
X143950D02*
X146350D01*
Y142350D02*
Y147650D01*
X143950Y142350D02*
X146350D01*
X143950D02*
Y147650D01*
X180350Y141350D02*
Y146650D01*
X171650Y141350D02*
X180350D01*
X171650D02*
Y146650D01*
X180350D01*
X171650Y141350D02*
X174050D01*
X171650D02*
Y146650D01*
X174050D01*
Y141350D02*
Y146650D01*
X177950D02*
X180350D01*
Y141350D02*
Y146650D01*
X177950Y141350D02*
X180350D01*
X177950D02*
Y146650D01*
X160350Y190100D02*
X165650D01*
X160350D02*
Y198800D01*
X165650D01*
Y190100D02*
Y198800D01*
X160350Y196400D02*
Y198800D01*
X165650D01*
Y196400D02*
Y198800D01*
X160350Y196400D02*
X165650D01*
Y190100D02*
Y192500D01*
X160350Y190100D02*
X165650D01*
X160350D02*
Y192500D01*
X165650D01*
X154200Y142350D02*
Y147650D01*
X162900D01*
Y142350D02*
Y147650D01*
X154200Y142350D02*
X162900D01*
X160500Y147650D02*
X162900D01*
Y142350D02*
Y147650D01*
X160500Y142350D02*
X162900D01*
X160500D02*
Y147650D01*
X154200Y142350D02*
X156600D01*
X154200D02*
Y147650D01*
X156600D01*
Y142350D02*
Y147650D01*
X120100Y142350D02*
Y147650D01*
X128800D01*
Y142350D02*
Y147650D01*
X120100Y142350D02*
X128800D01*
X126400Y147650D02*
X128800D01*
Y142350D02*
Y147650D01*
X126400Y142350D02*
X128800D01*
X126400D02*
Y147650D01*
X120100Y142350D02*
X122500D01*
X120100D02*
Y147650D01*
X122500D01*
Y142350D02*
Y147650D01*
X104417Y377194D02*
X130817D01*
X104417D02*
Y399594D01*
X130817D01*
Y377194D02*
Y399594D01*
X179250Y348400D02*
Y351600D01*
X177400D02*
X179250D01*
X177400Y348400D02*
Y351600D01*
Y348400D02*
X179250D01*
Y338400D02*
Y341600D01*
X177400D02*
X179250D01*
X177400Y338400D02*
Y341600D01*
Y338400D02*
X179250D01*
Y328400D02*
Y331600D01*
X177400D02*
X179250D01*
X177400Y328400D02*
Y331600D01*
Y328400D02*
X179250D01*
Y318400D02*
Y321600D01*
X177400D02*
X179250D01*
X177400Y318400D02*
Y321600D01*
Y318400D02*
X179250D01*
Y308400D02*
Y311600D01*
X177400D02*
X179250D01*
X177400Y308400D02*
Y311600D01*
Y308400D02*
X179250D01*
Y298400D02*
Y301600D01*
X177400D02*
X179250D01*
X177400Y298400D02*
Y301600D01*
Y298400D02*
X179250D01*
Y288400D02*
Y291600D01*
X177400D02*
X179250D01*
X177400Y288400D02*
Y291600D01*
Y288400D02*
X179250D01*
Y278400D02*
Y281600D01*
X177400D02*
X179250D01*
X177400Y278400D02*
Y281600D01*
Y278400D02*
X179250D01*
Y268400D02*
Y271600D01*
X177400D02*
X179250D01*
X177400Y268400D02*
Y271600D01*
Y268400D02*
X179250D01*
Y258400D02*
Y261600D01*
X177400D02*
X179250D01*
X177400Y258400D02*
Y261600D01*
Y258400D02*
X179250D01*
Y248400D02*
Y251600D01*
X177400D02*
X179250D01*
X177400Y248400D02*
Y251600D01*
Y248400D02*
X179250D01*
Y238400D02*
Y241600D01*
X177400D02*
X179250D01*
X177400Y238400D02*
Y241600D01*
Y238400D02*
X179250D01*
Y228400D02*
Y231600D01*
X177400D02*
X179250D01*
X177400Y228400D02*
Y231600D01*
Y228400D02*
X179250D01*
Y218400D02*
Y221600D01*
X177400D02*
X179250D01*
X177400Y218400D02*
Y221600D01*
Y218400D02*
X179250D01*
X208750D02*
Y221600D01*
Y218400D02*
X210600D01*
Y221600D01*
X208750D02*
X210600D01*
X208750Y228400D02*
Y231600D01*
Y228400D02*
X210600D01*
Y231600D01*
X208750D02*
X210600D01*
X208750Y238400D02*
Y241600D01*
Y238400D02*
X210600D01*
Y241600D01*
X208750D02*
X210600D01*
X208750Y248400D02*
Y251600D01*
Y248400D02*
X210600D01*
Y251600D01*
X208750D02*
X210600D01*
X208750Y258400D02*
Y261600D01*
Y258400D02*
X210600D01*
Y261600D01*
X208750D02*
X210600D01*
X208750Y268400D02*
Y271600D01*
Y268400D02*
X210600D01*
Y271600D01*
X208750D02*
X210600D01*
X208750Y278400D02*
Y281600D01*
Y278400D02*
X210600D01*
Y281600D01*
X208750D02*
X210600D01*
X208750Y288400D02*
Y291600D01*
Y288400D02*
X210600D01*
Y291600D01*
X208750D02*
X210600D01*
X208750Y298400D02*
Y301600D01*
Y298400D02*
X210600D01*
Y301600D01*
X208750D02*
X210600D01*
X208750Y308400D02*
Y311600D01*
Y308400D02*
X210600D01*
Y311600D01*
X208750D02*
X210600D01*
X208750Y318400D02*
Y321600D01*
Y318400D02*
X210600D01*
Y321600D01*
X208750D02*
X210600D01*
X208750Y328400D02*
Y331600D01*
Y328400D02*
X210600D01*
Y331600D01*
X208750D02*
X210600D01*
X208750Y338400D02*
Y341600D01*
Y338400D02*
X210600D01*
Y341600D01*
X208750D02*
X210600D01*
X208750Y348400D02*
Y351600D01*
Y348400D02*
X210600D01*
Y351600D01*
X208750D02*
X210600D01*
X179250Y215000D02*
X208750D01*
Y355000D01*
X179250D02*
X208750D01*
X179250Y215000D02*
Y355000D01*
X234350Y200350D02*
Y205650D01*
X225650Y200350D02*
X234350D01*
X225650D02*
Y205650D01*
X234350D01*
X225650Y200350D02*
X228050D01*
X225650D02*
Y205650D01*
X228050D01*
Y200350D02*
Y205650D01*
X231950D02*
X234350D01*
Y200350D02*
Y205650D01*
X231950Y200350D02*
X234350D01*
X231950D02*
Y205650D01*
X135350Y384650D02*
X140650D01*
X135350D02*
Y393350D01*
X140650D01*
Y384650D02*
Y393350D01*
X135350Y390950D02*
Y393350D01*
X140650D01*
Y390950D02*
Y393350D01*
X135350Y390950D02*
X140650D01*
Y384650D02*
Y387050D01*
X135350Y384650D02*
X140650D01*
X135350D02*
Y387050D01*
X140650D01*
%TF.MD5,4e02e454ca2fcdf76573abf82ed2cfbb*%
M02*
