%TF.GenerationSoftware,Altium Limited,Altium Designer,24.10.1 (45)*%
G04 Layer_Color=16711935*
%FSLAX25Y25*%
%MOIN*%
%TF.SameCoordinates,405BA738-95C1-4717-9A2A-605BB7F835F8*%
%TF.FilePolarity,Positive*%
%TF.FileFunction,Keep-out,Top*%
%TF.Part,Single*%
G01*
G75*
G36*
X135650Y468250D02*
X130350D01*
Y471750D01*
X135650D01*
Y468250D01*
D02*
G37*
G36*
X256650Y465250D02*
X251350D01*
Y468750D01*
X256650D01*
Y465250D01*
D02*
G37*
G36*
X237650D02*
X232350D01*
Y468750D01*
X237650D01*
Y465250D01*
D02*
G37*
G36*
X218650D02*
X213350D01*
Y468750D01*
X218650D01*
Y465250D01*
D02*
G37*
G36*
X199650D02*
X194350D01*
Y468750D01*
X199650D01*
Y465250D01*
D02*
G37*
G36*
X180650D02*
X175350D01*
Y468750D01*
X180650D01*
Y465250D01*
D02*
G37*
G36*
X161650D02*
X156350D01*
Y468750D01*
X161650D01*
Y465250D01*
D02*
G37*
G36*
X278650Y450250D02*
X273350D01*
Y453750D01*
X278650D01*
Y450250D01*
D02*
G37*
G36*
X294300Y436350D02*
X290800D01*
Y441650D01*
X294300D01*
Y436350D01*
D02*
G37*
G36*
X280300Y413350D02*
X276800D01*
Y418650D01*
X280300D01*
Y413350D01*
D02*
G37*
G36*
X280200Y397350D02*
X276700D01*
Y402650D01*
X280200D01*
Y397350D01*
D02*
G37*
G36*
X236650Y395250D02*
X231350D01*
Y398750D01*
X236650D01*
Y395250D01*
D02*
G37*
G36*
X140650Y387250D02*
X135350D01*
Y390750D01*
X140650D01*
Y387250D01*
D02*
G37*
G36*
Y349250D02*
X135350D01*
Y352750D01*
X140650D01*
Y349250D01*
D02*
G37*
G36*
X293650Y319250D02*
X288350D01*
Y322750D01*
X293650D01*
Y319250D01*
D02*
G37*
G36*
X275650Y318250D02*
X270350D01*
Y321750D01*
X275650D01*
Y318250D01*
D02*
G37*
G36*
X140650D02*
X135350D01*
Y321750D01*
X140650D01*
Y318250D01*
D02*
G37*
G36*
X248750Y317350D02*
X245250D01*
Y322650D01*
X248750D01*
Y317350D01*
D02*
G37*
G36*
X158650Y309250D02*
X153350D01*
Y312750D01*
X158650D01*
Y309250D01*
D02*
G37*
G36*
X167650Y307250D02*
X162350D01*
Y310750D01*
X167650D01*
Y307250D01*
D02*
G37*
G36*
X158650Y292250D02*
X153350D01*
Y295750D01*
X158650D01*
Y292250D01*
D02*
G37*
G36*
X160650Y277700D02*
X155350D01*
Y281200D01*
X160650D01*
Y277700D01*
D02*
G37*
G36*
X139650Y276250D02*
X134350D01*
Y279750D01*
X139650D01*
Y276250D01*
D02*
G37*
G36*
X235650Y274250D02*
X230350D01*
Y277750D01*
X235650D01*
Y274250D01*
D02*
G37*
G36*
X225650D02*
X220350D01*
Y277750D01*
X225650D01*
Y274250D01*
D02*
G37*
G36*
X138650Y250250D02*
X133350D01*
Y253750D01*
X138650D01*
Y250250D01*
D02*
G37*
G36*
X253650Y238800D02*
X248350D01*
Y242300D01*
X253650D01*
Y238800D01*
D02*
G37*
G36*
X276750Y234350D02*
X273250D01*
Y239650D01*
X276750D01*
Y234350D01*
D02*
G37*
G36*
X162650Y215250D02*
X157350D01*
Y218750D01*
X162650D01*
Y215250D01*
D02*
G37*
G36*
X150650D02*
X145350D01*
Y218750D01*
X150650D01*
Y215250D01*
D02*
G37*
G36*
X139650D02*
X134350D01*
Y218750D01*
X139650D01*
Y215250D01*
D02*
G37*
G36*
X128650D02*
X123350D01*
Y218750D01*
X128650D01*
Y215250D01*
D02*
G37*
G36*
X278550Y211450D02*
X269450D01*
Y216550D01*
X278550D01*
Y211450D01*
D02*
G37*
G36*
X198750Y205350D02*
X195250D01*
Y210650D01*
X198750D01*
Y205350D01*
D02*
G37*
G36*
X231750Y200350D02*
X228250D01*
Y205650D01*
X231750D01*
Y200350D01*
D02*
G37*
G36*
X198750Y197350D02*
X195250D01*
Y202650D01*
X198750D01*
Y197350D01*
D02*
G37*
G36*
X134650Y192800D02*
X129350D01*
Y196300D01*
X134650D01*
Y192800D01*
D02*
G37*
G36*
X165650Y192700D02*
X160350D01*
Y196200D01*
X165650D01*
Y192700D01*
D02*
G37*
G36*
X248650Y182250D02*
X243350D01*
Y185750D01*
X248650D01*
Y182250D01*
D02*
G37*
G36*
X278550Y179450D02*
X269450D01*
Y184550D01*
X278550D01*
Y179450D01*
D02*
G37*
G36*
X284000Y154350D02*
X280500D01*
Y159650D01*
X284000D01*
Y154350D01*
D02*
G37*
G36*
X160300Y142350D02*
X156800D01*
Y147650D01*
X160300D01*
Y142350D01*
D02*
G37*
G36*
X143750D02*
X140250D01*
Y147650D01*
X143750D01*
Y142350D01*
D02*
G37*
G36*
X126200D02*
X122700D01*
Y147650D01*
X126200D01*
Y142350D01*
D02*
G37*
G36*
X177750Y141350D02*
X174250D01*
Y146650D01*
X177750D01*
Y141350D01*
D02*
G37*
G36*
X286650Y136250D02*
X281350D01*
Y139750D01*
X286650D01*
Y136250D01*
D02*
G37*
G36*
X242750Y135350D02*
X239250D01*
Y140650D01*
X242750D01*
Y135350D01*
D02*
G37*
G36*
X224750D02*
X221250D01*
Y140650D01*
X224750D01*
Y135350D01*
D02*
G37*
%TF.MD5,a9b2fde017c647885cffeaa48405b96a*%
M02*
