%TF.GenerationSoftware,Altium Limited,Altium Designer,24.10.1 (45)*%
G04 Layer_Color=255*
%FSLAX25Y25*%
%MOIN*%
%TF.SameCoordinates,405BA738-95C1-4717-9A2A-605BB7F835F8*%
%TF.FilePolarity,Positive*%
%TF.FileFunction,Pads,Top*%
%TF.Part,Single*%
G01*
G75*
%TA.AperFunction,SMDPad,CuDef*%
%ADD12R,0.05300X0.03200*%
%ADD13R,0.03200X0.05300*%
%TA.AperFunction,ConnectorPad*%
%ADD14R,0.03200X0.05300*%
%ADD15R,0.01600X0.05300*%
%ADD16R,0.11400X0.07500*%
%TA.AperFunction,SMDPad,CuDef*%
%ADD17R,0.03150X0.03150*%
G04:AMPARAMS|DCode=18|XSize=77.95mil|YSize=36.61mil|CornerRadius=4.58mil|HoleSize=0mil|Usage=FLASHONLY|Rotation=90.000|XOffset=0mil|YOffset=0mil|HoleType=Round|Shape=RoundedRectangle|*
%AMROUNDEDRECTD18*
21,1,0.07795,0.02746,0,0,90.0*
21,1,0.06880,0.03661,0,0,90.0*
1,1,0.00915,0.01373,0.03440*
1,1,0.00915,0.01373,-0.03440*
1,1,0.00915,-0.01373,-0.03440*
1,1,0.00915,-0.01373,0.03440*
%
%ADD18ROUNDEDRECTD18*%
G04:AMPARAMS|DCode=19|XSize=77.95mil|YSize=127.17mil|CornerRadius=9.74mil|HoleSize=0mil|Usage=FLASHONLY|Rotation=90.000|XOffset=0mil|YOffset=0mil|HoleType=Round|Shape=RoundedRectangle|*
%AMROUNDEDRECTD19*
21,1,0.07795,0.10768,0,0,90.0*
21,1,0.05847,0.12717,0,0,90.0*
1,1,0.01949,0.05384,0.02923*
1,1,0.01949,0.05384,-0.02923*
1,1,0.01949,-0.05384,-0.02923*
1,1,0.01949,-0.05384,0.02923*
%
%ADD19ROUNDEDRECTD19*%
%ADD20R,0.11800X0.04700*%
%ADD21R,0.02200X0.02400*%
%TA.AperFunction,ComponentPad*%
%ADD24C,0.05500*%
%ADD25R,0.05600X0.05600*%
%ADD26C,0.05600*%
%ADD27O,0.04200X0.04900*%
%ADD28O,0.04000X0.06700*%
%ADD29C,0.06200*%
%ADD30C,0.09200*%
%ADD31C,0.05000*%
%ADD32C,0.07100*%
%ADD33R,0.05900X0.05900*%
%ADD34C,0.05900*%
%ADD35O,0.04756X0.09512*%
%ADD36C,0.05150*%
%ADD37R,0.05150X0.05150*%
%ADD38R,0.05200X0.05200*%
%ADD39C,0.05200*%
D12*
X276000Y448450D02*
D03*
Y455550D02*
D03*
X246000Y187550D02*
D03*
Y180450D02*
D03*
X137000Y281550D02*
D03*
Y274450D02*
D03*
X284000Y141550D02*
D03*
Y134450D02*
D03*
X234000Y400550D02*
D03*
Y393450D02*
D03*
X159000Y463450D02*
D03*
Y470550D02*
D03*
X178000D02*
D03*
Y463450D02*
D03*
X216000Y470550D02*
D03*
Y463450D02*
D03*
X133000Y466450D02*
D03*
Y473550D02*
D03*
X197000Y470550D02*
D03*
Y463450D02*
D03*
X235000Y470550D02*
D03*
Y463450D02*
D03*
X254000Y470550D02*
D03*
Y463450D02*
D03*
X233000Y272450D02*
D03*
Y279550D02*
D03*
X165000Y305450D02*
D03*
Y312550D02*
D03*
X156000Y307450D02*
D03*
Y314550D02*
D03*
X136000Y255550D02*
D03*
Y248450D02*
D03*
X138000Y323550D02*
D03*
Y316450D02*
D03*
X156000Y297550D02*
D03*
Y290450D02*
D03*
X158000Y275900D02*
D03*
Y283000D02*
D03*
X138000Y354550D02*
D03*
Y347450D02*
D03*
X148000Y220550D02*
D03*
Y213450D02*
D03*
X160000D02*
D03*
Y220550D02*
D03*
X137000D02*
D03*
Y213450D02*
D03*
X126000Y220550D02*
D03*
Y213450D02*
D03*
X291000Y324550D02*
D03*
Y317450D02*
D03*
X273000Y323550D02*
D03*
Y316450D02*
D03*
X132000Y198100D02*
D03*
Y191000D02*
D03*
X251000Y244100D02*
D03*
Y237000D02*
D03*
X223000Y272450D02*
D03*
Y279550D02*
D03*
X163000Y198000D02*
D03*
Y190900D02*
D03*
X138000Y392550D02*
D03*
Y385450D02*
D03*
D13*
X296100Y439000D02*
D03*
X289000D02*
D03*
X200550Y208000D02*
D03*
X193450D02*
D03*
X271450Y237000D02*
D03*
X278550D02*
D03*
X243450Y320000D02*
D03*
X250550D02*
D03*
X193450Y200000D02*
D03*
X200550D02*
D03*
X274900Y400000D02*
D03*
X282000D02*
D03*
X282100Y416000D02*
D03*
X275000D02*
D03*
X237450Y138000D02*
D03*
X244550D02*
D03*
X219450D02*
D03*
X226550D02*
D03*
X138450Y145000D02*
D03*
X145550D02*
D03*
X172450Y144000D02*
D03*
X179550D02*
D03*
X162100Y145000D02*
D03*
X155000D02*
D03*
X128000D02*
D03*
X120900D02*
D03*
X226450Y203000D02*
D03*
X233550D02*
D03*
D14*
X285800Y157000D02*
D03*
X278700D02*
D03*
D15*
X145681Y121531D02*
D03*
X143122D02*
D03*
X140563D02*
D03*
X138004D02*
D03*
X135445D02*
D03*
D16*
X140563Y111000D02*
D03*
D17*
X164000Y290502D02*
D03*
Y296998D02*
D03*
X273000Y134752D02*
D03*
Y141248D02*
D03*
X165000Y279248D02*
D03*
Y272752D02*
D03*
X171000Y191752D02*
D03*
Y198248D02*
D03*
X121000Y191752D02*
D03*
Y198248D02*
D03*
D18*
X153945Y157130D02*
D03*
X163000D02*
D03*
X172055D02*
D03*
X119890Y157000D02*
D03*
X128945D02*
D03*
X138000D02*
D03*
D19*
X163000Y180870D02*
D03*
X128945Y180740D02*
D03*
D20*
X263350Y214000D02*
D03*
X284650D02*
D03*
X263350Y182000D02*
D03*
X284650D02*
D03*
D21*
X223000Y154900D02*
D03*
X226740Y145100D02*
D03*
X219260D02*
D03*
X240000Y154900D02*
D03*
X243740Y145100D02*
D03*
X236260D02*
D03*
D24*
X181000Y421000D02*
D03*
Y411000D02*
D03*
Y431000D02*
D03*
Y441000D02*
D03*
X171000D02*
D03*
Y431000D02*
D03*
Y421000D02*
D03*
Y411000D02*
D03*
D25*
X142000Y435000D02*
D03*
D26*
X116409D02*
D03*
D27*
X131803Y122811D02*
D03*
X149323D02*
D03*
D28*
X157000Y111000D02*
D03*
X124126D02*
D03*
D29*
X267504Y351268D02*
D03*
X269504Y272732D02*
D03*
D30*
X272465Y343000D02*
D03*
Y359535D02*
D03*
Y376071D02*
D03*
X289000Y343000D02*
D03*
Y359535D02*
D03*
Y376071D02*
D03*
X274465Y264465D02*
D03*
Y281000D02*
D03*
Y297535D02*
D03*
X291000Y264465D02*
D03*
Y281000D02*
D03*
Y297535D02*
D03*
D31*
X236000Y257000D02*
D03*
Y247000D02*
D03*
Y237000D02*
D03*
D32*
X118000Y356000D02*
D03*
Y346000D02*
D03*
X117000Y321000D02*
D03*
Y311000D02*
D03*
X269000Y114000D02*
D03*
X279000D02*
D03*
X249000D02*
D03*
X239000D02*
D03*
X117000Y250000D02*
D03*
Y240000D02*
D03*
Y285000D02*
D03*
Y275000D02*
D03*
X118000Y393000D02*
D03*
Y383000D02*
D03*
D33*
X234000Y167283D02*
D03*
D34*
Y185000D02*
D03*
X208409D02*
D03*
Y167283D02*
D03*
D35*
X166039Y119000D02*
D03*
X214465D02*
D03*
D36*
X190252D02*
D03*
X198126D02*
D03*
X206000D02*
D03*
D37*
X174504D02*
D03*
D38*
X179000Y350000D02*
D03*
D39*
Y340000D02*
D03*
Y330000D02*
D03*
Y320000D02*
D03*
Y310000D02*
D03*
Y300000D02*
D03*
Y290000D02*
D03*
Y280000D02*
D03*
Y270000D02*
D03*
Y260000D02*
D03*
Y250000D02*
D03*
Y240000D02*
D03*
Y230000D02*
D03*
Y220000D02*
D03*
X209000D02*
D03*
Y230000D02*
D03*
Y240000D02*
D03*
Y250000D02*
D03*
Y260000D02*
D03*
Y270000D02*
D03*
Y280000D02*
D03*
Y290000D02*
D03*
Y300000D02*
D03*
Y310000D02*
D03*
Y320000D02*
D03*
Y330000D02*
D03*
Y340000D02*
D03*
Y350000D02*
D03*
%TF.MD5,f9ae9083de9da3003d4e55006c0db732*%
M02*
