%TF.GenerationSoftware,Altium Limited,Altium Designer,24.10.1 (45)*%
G04 Layer_Color=255*
%FSLAX25Y25*%
%MOIN*%
%TF.SameCoordinates,405BA738-95C1-4717-9A2A-605BB7F835F8*%
%TF.FilePolarity,Positive*%
%TF.FileFunction,Pads,Bot*%
%TF.Part,Single*%
G01*
G75*
%TA.AperFunction,ComponentPad*%
%ADD24C,0.05500*%
%ADD25R,0.05600X0.05600*%
%ADD26C,0.05600*%
%ADD27O,0.04200X0.04900*%
%ADD28O,0.04000X0.06700*%
%ADD29C,0.06200*%
%ADD30C,0.09200*%
%ADD31C,0.05000*%
%ADD32C,0.07100*%
%ADD33R,0.05900X0.05900*%
%ADD34C,0.05900*%
%ADD35O,0.04756X0.09512*%
%ADD36C,0.05150*%
%ADD37R,0.05150X0.05150*%
%ADD38R,0.05200X0.05200*%
%ADD39C,0.05200*%
D24*
X181000Y421000D02*
D03*
Y411000D02*
D03*
Y431000D02*
D03*
Y441000D02*
D03*
X171000D02*
D03*
Y431000D02*
D03*
Y421000D02*
D03*
Y411000D02*
D03*
D25*
X142000Y435000D02*
D03*
D26*
X116409D02*
D03*
D27*
X131803Y122811D02*
D03*
X149323D02*
D03*
D28*
X157000Y111000D02*
D03*
X124126D02*
D03*
D29*
X267504Y351268D02*
D03*
X269504Y272732D02*
D03*
D30*
X272465Y343000D02*
D03*
Y359535D02*
D03*
Y376071D02*
D03*
X289000Y343000D02*
D03*
Y359535D02*
D03*
Y376071D02*
D03*
X274465Y264465D02*
D03*
Y281000D02*
D03*
Y297535D02*
D03*
X291000Y264465D02*
D03*
Y281000D02*
D03*
Y297535D02*
D03*
D31*
X236000Y257000D02*
D03*
Y247000D02*
D03*
Y237000D02*
D03*
D32*
X118000Y356000D02*
D03*
Y346000D02*
D03*
X117000Y321000D02*
D03*
Y311000D02*
D03*
X269000Y114000D02*
D03*
X279000D02*
D03*
X249000D02*
D03*
X239000D02*
D03*
X117000Y250000D02*
D03*
Y240000D02*
D03*
Y285000D02*
D03*
Y275000D02*
D03*
X118000Y393000D02*
D03*
Y383000D02*
D03*
D33*
X234000Y167283D02*
D03*
D34*
Y185000D02*
D03*
X208409D02*
D03*
Y167283D02*
D03*
D35*
X166039Y119000D02*
D03*
X214465D02*
D03*
D36*
X190252D02*
D03*
X198126D02*
D03*
X206000D02*
D03*
D37*
X174504D02*
D03*
D38*
X179000Y350000D02*
D03*
D39*
Y340000D02*
D03*
Y330000D02*
D03*
Y320000D02*
D03*
Y310000D02*
D03*
Y300000D02*
D03*
Y290000D02*
D03*
Y280000D02*
D03*
Y270000D02*
D03*
Y260000D02*
D03*
Y250000D02*
D03*
Y240000D02*
D03*
Y230000D02*
D03*
Y220000D02*
D03*
X209000D02*
D03*
Y230000D02*
D03*
Y240000D02*
D03*
Y250000D02*
D03*
Y260000D02*
D03*
Y270000D02*
D03*
Y280000D02*
D03*
Y290000D02*
D03*
Y300000D02*
D03*
Y310000D02*
D03*
Y320000D02*
D03*
Y330000D02*
D03*
Y340000D02*
D03*
Y350000D02*
D03*
%TF.MD5,02945fdb4d323097edf07e4cfaf491dd*%
M02*
