%TF.GenerationSoftware,Altium Limited,Altium Designer,24.10.1 (45)*%
G04 Layer_Physical_Order=1*
G04 Layer_Color=255*
%FSLAX25Y25*%
%MOIN*%
%TF.SameCoordinates,F49E7BB8-28A7-4C0D-84C7-1FE184DCB0B3*%
%TF.FilePolarity,Positive*%
%TF.FileFunction,Copper,L1,Top,Signal*%
%TF.Part,Single*%
G01*
G75*
%TA.AperFunction,Conductor*%
%ADD10C,0.01500*%
%ADD11C,0.01000*%
%ADD12C,0.02000*%
%TA.AperFunction,SMDPad,CuDef*%
%ADD13R,0.10050X0.18500*%
%ADD14R,0.05300X0.03200*%
%ADD15R,0.02200X0.06550*%
%ADD16R,0.03150X0.03150*%
%ADD17R,0.03200X0.05300*%
%ADD18R,0.11800X0.04700*%
G04:AMPARAMS|DCode=19|XSize=77.95mil|YSize=127.17mil|CornerRadius=9.74mil|HoleSize=0mil|Usage=FLASHONLY|Rotation=90.000|XOffset=0mil|YOffset=0mil|HoleType=Round|Shape=RoundedRectangle|*
%AMROUNDEDRECTD19*
21,1,0.07795,0.10768,0,0,90.0*
21,1,0.05847,0.12717,0,0,90.0*
1,1,0.01949,0.05384,0.02923*
1,1,0.01949,0.05384,-0.02923*
1,1,0.01949,-0.05384,-0.02923*
1,1,0.01949,-0.05384,0.02923*
%
%ADD19ROUNDEDRECTD19*%
G04:AMPARAMS|DCode=20|XSize=77.95mil|YSize=36.61mil|CornerRadius=4.58mil|HoleSize=0mil|Usage=FLASHONLY|Rotation=90.000|XOffset=0mil|YOffset=0mil|HoleType=Round|Shape=RoundedRectangle|*
%AMROUNDEDRECTD20*
21,1,0.07795,0.02746,0,0,90.0*
21,1,0.06880,0.03661,0,0,90.0*
1,1,0.00915,0.01373,0.03440*
1,1,0.00915,0.01373,-0.03440*
1,1,0.00915,-0.01373,-0.03440*
1,1,0.00915,-0.01373,0.03440*
%
%ADD20ROUNDEDRECTD20*%
%TA.AperFunction,ConnectorPad*%
%ADD21R,0.03200X0.05300*%
%TA.AperFunction,SMDPad,CuDef*%
G04:AMPARAMS|DCode=22|XSize=17.72mil|YSize=45.28mil|CornerRadius=1.95mil|HoleSize=0mil|Usage=FLASHONLY|Rotation=270.000|XOffset=0mil|YOffset=0mil|HoleType=Round|Shape=RoundedRectangle|*
%AMROUNDEDRECTD22*
21,1,0.01772,0.04138,0,0,270.0*
21,1,0.01382,0.04528,0,0,270.0*
1,1,0.00390,-0.02069,-0.00691*
1,1,0.00390,-0.02069,0.00691*
1,1,0.00390,0.02069,0.00691*
1,1,0.00390,0.02069,-0.00691*
%
%ADD22ROUNDEDRECTD22*%
G04:AMPARAMS|DCode=23|XSize=68.11mil|YSize=72.84mil|CornerRadius=2.04mil|HoleSize=0mil|Usage=FLASHONLY|Rotation=180.000|XOffset=0mil|YOffset=0mil|HoleType=Round|Shape=RoundedRectangle|*
%AMROUNDEDRECTD23*
21,1,0.06811,0.06875,0,0,180.0*
21,1,0.06402,0.07284,0,0,180.0*
1,1,0.00409,-0.03201,0.03437*
1,1,0.00409,0.03201,0.03437*
1,1,0.00409,0.03201,-0.03437*
1,1,0.00409,-0.03201,-0.03437*
%
%ADD23ROUNDEDRECTD23*%
%ADD24R,0.03347X0.01102*%
%TA.AperFunction,SMDPad,SMDef*%
%ADD25R,0.06496X0.09449*%
%TA.AperFunction,SMDPad,CuDef*%
%ADD26R,0.06700X0.06500*%
%TA.AperFunction,Conductor*%
%ADD27C,0.03000*%
%ADD28C,0.03500*%
%ADD29C,0.05000*%
%TA.AperFunction,ComponentPad*%
%ADD30C,0.06200*%
%ADD31C,0.09200*%
%ADD32C,0.05500*%
%ADD33R,0.05600X0.05600*%
%ADD34C,0.05600*%
%ADD35C,0.07087*%
%ADD36R,0.07087X0.07087*%
%ADD37R,0.05200X0.05200*%
%ADD38C,0.05200*%
%ADD39R,0.07087X0.07087*%
%ADD40C,0.02000*%
%ADD41C,0.05900*%
%ADD42R,0.05900X0.05900*%
%TA.AperFunction,ViaPad*%
%ADD43C,0.05000*%
%ADD44C,0.01575*%
G36*
X308971Y389500D02*
X308964D01*
X309108Y388030D01*
X309537Y386616D01*
X310234Y385313D01*
X311171Y384171D01*
X312313Y383234D01*
X313616Y382537D01*
X315030Y382108D01*
X316500Y381964D01*
X316500Y381964D01*
X317407Y381739D01*
X317906Y381406D01*
X318337Y380761D01*
X318479Y380044D01*
X318471Y380000D01*
Y351000D01*
X318484Y350933D01*
X318323Y349708D01*
X317824Y348504D01*
X317030Y347470D01*
X315996Y346676D01*
X314792Y346177D01*
X314017Y346075D01*
X313721Y346588D01*
X313088Y347221D01*
X312312Y347668D01*
X311448Y347900D01*
X310552D01*
X309688Y347668D01*
X308912Y347221D01*
X308279Y346588D01*
X307832Y345812D01*
X307600Y344948D01*
Y344052D01*
X307832Y343188D01*
X308279Y342412D01*
X308912Y341779D01*
X309688Y341332D01*
X310552Y341100D01*
X311448D01*
X312312Y341332D01*
X313088Y341779D01*
X313721Y342412D01*
X314070Y343017D01*
X315068Y343116D01*
X316576Y343573D01*
X317966Y344316D01*
X319000Y345165D01*
X320000Y344882D01*
Y306023D01*
X319238Y305262D01*
X318851Y304683D01*
X318716Y304000D01*
Y287280D01*
X318474Y287141D01*
X317859Y286526D01*
X317425Y285774D01*
X317200Y284934D01*
Y284066D01*
X317425Y283226D01*
X317859Y282474D01*
X318474Y281859D01*
X319226Y281425D01*
X320000Y281218D01*
Y230500D01*
Y229515D01*
X319616Y227583D01*
X318862Y225763D01*
X317768Y224125D01*
X316375Y222732D01*
X314737Y221638D01*
X312917Y220884D01*
X310985Y220500D01*
X304450D01*
Y221850D01*
X303758D01*
Y224750D01*
X303727Y224827D01*
X303650Y224858D01*
X298350D01*
X298273Y224827D01*
X298242Y224750D01*
Y221850D01*
X297550D01*
Y220500D01*
X276515D01*
X274583Y220884D01*
X272763Y221638D01*
X271125Y222732D01*
X269732Y224125D01*
X268638Y225763D01*
X268032Y227226D01*
X268548Y228226D01*
X270050D01*
Y227550D01*
X274850D01*
Y228242D01*
X277750D01*
X277826Y228274D01*
X277858Y228350D01*
Y233650D01*
X277826Y233727D01*
X277750Y233758D01*
X274850D01*
Y234450D01*
X270050D01*
Y233774D01*
X267500D01*
Y273908D01*
X268500Y274636D01*
X269656Y274359D01*
X271500Y274214D01*
Y274216D01*
X276550D01*
Y272550D01*
X281350D01*
Y273242D01*
X284250D01*
X284327Y273273D01*
X284358Y273350D01*
Y278650D01*
X284327Y278727D01*
X284250Y278758D01*
X281350D01*
Y279450D01*
X276550D01*
Y277784D01*
X271500D01*
X271419Y277768D01*
X269893Y277919D01*
X268347Y278387D01*
X267500Y278840D01*
Y285810D01*
X268424Y286192D01*
X271058Y283558D01*
X271720Y283116D01*
X272500Y282961D01*
X289655D01*
X294160Y278456D01*
X294047Y278198D01*
X293573Y277629D01*
X292934Y277800D01*
X292066D01*
X291226Y277575D01*
X290474Y277141D01*
X289859Y276526D01*
X289425Y275774D01*
X289200Y274935D01*
Y274065D01*
X289254Y273864D01*
X287306Y271916D01*
X286864Y271254D01*
X286709Y270474D01*
Y259875D01*
X286373D01*
Y255125D01*
X291123D01*
Y259875D01*
X290787D01*
Y269629D01*
X292358Y271200D01*
X292934D01*
X293774Y271425D01*
X294526Y271859D01*
X295141Y272474D01*
X295575Y273226D01*
X295800Y274065D01*
Y274935D01*
X295629Y275573D01*
X296198Y276047D01*
X296456Y276160D01*
X307614Y265002D01*
X307600Y264948D01*
Y264052D01*
X307832Y263188D01*
X308279Y262412D01*
X308912Y261779D01*
X309688Y261332D01*
X310552Y261100D01*
X311448D01*
X312312Y261332D01*
X313088Y261779D01*
X313721Y262412D01*
X314168Y263188D01*
X314400Y264052D01*
Y264948D01*
X314168Y265812D01*
X313721Y266588D01*
X313088Y267221D01*
X312312Y267668D01*
X311448Y267900D01*
X310552D01*
X310498Y267885D01*
X305989Y272395D01*
X306403Y273395D01*
X307776D01*
X307832Y273188D01*
X308279Y272412D01*
X308912Y271779D01*
X309688Y271332D01*
X310552Y271100D01*
X311448D01*
X312312Y271332D01*
X313088Y271779D01*
X313721Y272412D01*
X314168Y273188D01*
X314400Y274052D01*
Y274948D01*
X314168Y275812D01*
X313721Y276588D01*
X313088Y277221D01*
X312312Y277668D01*
X311448Y277900D01*
X310552D01*
X309688Y277668D01*
X308912Y277221D01*
X308655Y276964D01*
X306060D01*
X292762Y290262D01*
X292183Y290649D01*
X291500Y290784D01*
X277239D01*
X271284Y296739D01*
Y308000D01*
X271148Y308683D01*
X270762Y309262D01*
X270762Y309262D01*
X267500Y312523D01*
Y322461D01*
X276050D01*
Y321050D01*
X280850D01*
Y321742D01*
X283750D01*
X283826Y321774D01*
X283858Y321850D01*
Y327150D01*
X283826Y327226D01*
X283750Y327258D01*
X280850D01*
Y327950D01*
X276050D01*
Y326539D01*
X267500D01*
Y333342D01*
X268500Y333645D01*
X268558Y333558D01*
X272558Y329558D01*
X273220Y329116D01*
X274000Y328961D01*
X291461D01*
Y297500D01*
X291616Y296720D01*
X292058Y296058D01*
X305058Y283058D01*
X305720Y282616D01*
X306500Y282461D01*
X306500Y282461D01*
X308251D01*
X308279Y282412D01*
X308912Y281779D01*
X309688Y281332D01*
X310552Y281100D01*
X311448D01*
X312312Y281332D01*
X313088Y281779D01*
X313721Y282412D01*
X314168Y283188D01*
X314400Y284052D01*
Y284948D01*
X314168Y285812D01*
X313721Y286588D01*
X313088Y287221D01*
X312312Y287668D01*
X311448Y287900D01*
X310552D01*
X309688Y287668D01*
X308912Y287221D01*
X308279Y286588D01*
X307322Y286561D01*
X295539Y298345D01*
Y329828D01*
X295384Y330609D01*
X294942Y331270D01*
X294942Y331270D01*
X293770Y332442D01*
X293109Y332884D01*
X292328Y333039D01*
X274845D01*
X272039Y335845D01*
Y356000D01*
X271884Y356780D01*
X271442Y357442D01*
X267500Y361384D01*
Y374116D01*
X268845Y375461D01*
X274155D01*
X275454Y374162D01*
X276050Y373450D01*
X276050D01*
X276050Y373450D01*
Y368650D01*
X276742D01*
Y365750D01*
X276774Y365673D01*
X276850Y365642D01*
X282150D01*
X282226Y365673D01*
X282258Y365750D01*
Y368650D01*
X282950D01*
Y373112D01*
X283896Y373581D01*
X284238Y373238D01*
X284817Y372851D01*
X285500Y372716D01*
X289261D01*
X294216Y367761D01*
Y362239D01*
X292261Y360284D01*
X281500D01*
X280817Y360149D01*
X280238Y359762D01*
X280238Y359762D01*
X276238Y355762D01*
X275851Y355183D01*
X275716Y354500D01*
Y342000D01*
X275851Y341317D01*
X276238Y340738D01*
X279238Y337738D01*
X279817Y337351D01*
X280500Y337216D01*
X291261D01*
X301716Y326761D01*
Y302000D01*
X301852Y301317D01*
X302238Y300738D01*
X307691Y295286D01*
X307600Y294948D01*
Y294052D01*
X307832Y293188D01*
X308279Y292412D01*
X308912Y291779D01*
X309688Y291332D01*
X310552Y291100D01*
X311448D01*
X312312Y291332D01*
X313088Y291779D01*
X313721Y292412D01*
X314168Y293188D01*
X314400Y294052D01*
Y294948D01*
X314168Y295812D01*
X313721Y296588D01*
X313088Y297221D01*
X312312Y297668D01*
X311448Y297900D01*
X310552D01*
X310214Y297809D01*
X305284Y302739D01*
Y326025D01*
X306208Y326408D01*
X307614Y325002D01*
X307600Y324948D01*
Y324052D01*
X307832Y323188D01*
X308279Y322412D01*
X308912Y321779D01*
X309688Y321332D01*
X310552Y321100D01*
X311448D01*
X312312Y321332D01*
X313088Y321779D01*
X313721Y322412D01*
X314168Y323188D01*
X314400Y324052D01*
Y324948D01*
X314168Y325812D01*
X313721Y326588D01*
X313088Y327221D01*
X312312Y327668D01*
X311448Y327900D01*
X310552D01*
X310498Y327886D01*
X299018Y339366D01*
Y341050D01*
X299450D01*
Y345850D01*
X298758D01*
Y348150D01*
X299450D01*
Y352950D01*
X299450D01*
X299568Y353901D01*
X299641Y353974D01*
X300075Y354726D01*
X300300Y355566D01*
Y356434D01*
X300075Y357274D01*
X299641Y358026D01*
X299026Y358641D01*
X298274Y359075D01*
X297674Y359236D01*
X297351Y359939D01*
X297303Y360300D01*
X297649Y360817D01*
X297784Y361500D01*
Y368500D01*
X297649Y369183D01*
X297262Y369762D01*
X291262Y375762D01*
X290683Y376149D01*
X290000Y376284D01*
X286239D01*
X267589Y394934D01*
X267884Y396417D01*
X268638Y398237D01*
X269732Y399875D01*
X271125Y401267D01*
X271235Y401341D01*
X275838Y396738D01*
X275838Y396738D01*
X276417Y396352D01*
X277100Y396216D01*
X278050D01*
Y394550D01*
X282850D01*
Y395242D01*
X285750D01*
X285826Y395273D01*
X285858Y395350D01*
Y400650D01*
X285826Y400727D01*
X285750Y400758D01*
X282850D01*
Y401450D01*
X278050D01*
Y400988D01*
X277050Y400573D01*
X275371Y402253D01*
X275700Y403338D01*
X276515Y403500D01*
X287477D01*
X291716Y399261D01*
Y383000D01*
X291851Y382317D01*
X292238Y381738D01*
X303716Y370261D01*
Y360000D01*
X303852Y359317D01*
X304238Y358738D01*
X307691Y355286D01*
X307600Y354948D01*
Y354052D01*
X307832Y353188D01*
X308279Y352412D01*
X308912Y351779D01*
X309688Y351332D01*
X310552Y351100D01*
X311448D01*
X312312Y351332D01*
X313088Y351779D01*
X313721Y352412D01*
X314168Y353188D01*
X314400Y354052D01*
Y354948D01*
X314168Y355812D01*
X313721Y356588D01*
X313088Y357221D01*
X312312Y357668D01*
X311448Y357900D01*
X310552D01*
X310214Y357809D01*
X307284Y360739D01*
Y362136D01*
X308261Y362407D01*
X308284Y362407D01*
X308912Y361779D01*
X309688Y361332D01*
X310552Y361100D01*
X311448D01*
X312312Y361332D01*
X313088Y361779D01*
X313721Y362412D01*
X314168Y363188D01*
X314400Y364052D01*
Y364948D01*
X314168Y365812D01*
X313721Y366588D01*
X313088Y367221D01*
X312312Y367668D01*
X311448Y367900D01*
X310552D01*
X309688Y367668D01*
X308912Y367221D01*
X308284Y366593D01*
X308261Y366593D01*
X307284Y366864D01*
Y370231D01*
X307575Y371030D01*
X308246Y371100D01*
X314400D01*
Y377900D01*
X309980D01*
X309833Y377998D01*
X309150Y378134D01*
X306389D01*
X298667Y385856D01*
Y403500D01*
X308971D01*
Y389500D01*
D02*
G37*
G36*
X421417Y344616D02*
X423237Y343862D01*
X424875Y342768D01*
X426267Y341375D01*
X427362Y339737D01*
X428116Y337917D01*
X428500Y335985D01*
Y335000D01*
Y317608D01*
X422175D01*
X422098Y317577D01*
X422067Y317500D01*
Y267500D01*
X422098Y267424D01*
X422175Y267392D01*
X428500D01*
Y256000D01*
Y255015D01*
X428116Y253083D01*
X427362Y251263D01*
X426267Y249625D01*
X424875Y248233D01*
X423237Y247138D01*
X421417Y246384D01*
X419485Y246000D01*
X392015D01*
X390083Y246384D01*
X388263Y247138D01*
X386625Y248233D01*
X385232Y249625D01*
X384138Y251263D01*
X383384Y253083D01*
X383000Y255015D01*
Y261359D01*
X386302Y264662D01*
X386855Y265489D01*
X387049Y266464D01*
Y271106D01*
X388049Y271374D01*
X388179Y271149D01*
X389184Y270144D01*
X390416Y269433D01*
X391789Y269065D01*
X393211D01*
X394584Y269433D01*
X395816Y270144D01*
X396821Y271149D01*
X397532Y272380D01*
X397900Y273754D01*
Y275175D01*
X397532Y276549D01*
X396821Y277780D01*
X395816Y278786D01*
X394584Y279497D01*
X393211Y279865D01*
X391789D01*
X390416Y279497D01*
X389184Y278786D01*
X388179Y277780D01*
X388049Y277555D01*
X387049Y277823D01*
Y287641D01*
X388049Y287909D01*
X388179Y287684D01*
X389184Y286679D01*
X390416Y285968D01*
X391789Y285600D01*
X393211D01*
X394584Y285968D01*
X395816Y286679D01*
X396821Y287684D01*
X397532Y288916D01*
X397900Y290289D01*
Y291711D01*
X397532Y293084D01*
X396821Y294316D01*
X395816Y295321D01*
X394584Y296032D01*
X393211Y296400D01*
X391789D01*
X390416Y296032D01*
X389184Y295321D01*
X388179Y294316D01*
X388049Y294091D01*
X387049Y294359D01*
Y328693D01*
X386855Y329669D01*
X386302Y330496D01*
X384924Y331874D01*
X385000Y334500D01*
Y335985D01*
X385384Y337917D01*
X386138Y339737D01*
X387232Y341375D01*
X388625Y342768D01*
X390263Y343862D01*
X392083Y344616D01*
X394015Y345000D01*
X419485D01*
X421417Y344616D01*
D02*
G37*
G36*
X462271Y319635D02*
X464000Y318919D01*
X465556Y317879D01*
X466879Y316556D01*
X467919Y315000D01*
X468635Y313271D01*
X469000Y311436D01*
Y310500D01*
Y238500D01*
Y237515D01*
X468616Y235583D01*
X467862Y233763D01*
X466768Y232125D01*
X465375Y230732D01*
X463737Y229638D01*
X461917Y228884D01*
X459985Y228500D01*
X445039D01*
Y232500D01*
X444884Y233280D01*
X444442Y233942D01*
X441942Y236442D01*
X441280Y236884D01*
X440500Y237039D01*
X436950D01*
Y238450D01*
X432150D01*
Y237758D01*
X429250D01*
X429174Y237726D01*
X429142Y237650D01*
Y232350D01*
X429174Y232274D01*
X429250Y232242D01*
X432150D01*
Y231550D01*
X436950D01*
Y232961D01*
X439655D01*
X440961Y231655D01*
Y228500D01*
X418000D01*
X417265Y228464D01*
X415823Y228177D01*
X414465Y227614D01*
X413242Y226798D01*
X412202Y225758D01*
X411835Y225208D01*
X406600D01*
X406524Y225177D01*
X406492Y225100D01*
Y213900D01*
X406524Y213824D01*
X406600Y213792D01*
X409908D01*
X410456Y212792D01*
X410116Y211083D01*
X409362Y209263D01*
X408267Y207625D01*
X406875Y206233D01*
X405237Y205138D01*
X403417Y204384D01*
X401485Y204000D01*
X394500D01*
X385041Y203589D01*
X384207Y204000D01*
X384207Y204000D01*
X381712D01*
X380167Y204307D01*
X378711Y204910D01*
X377400Y205786D01*
X376286Y206900D01*
X375411Y208211D01*
X374807Y209666D01*
X374500Y211212D01*
Y214493D01*
X374692Y215458D01*
X375069Y216368D01*
X375616Y217187D01*
X376313Y217884D01*
X377132Y218431D01*
X378042Y218808D01*
X379008Y219000D01*
X379500D01*
X380088Y219029D01*
X381242Y219258D01*
X382328Y219708D01*
X383306Y220362D01*
X384138Y221194D01*
X384791Y222172D01*
X385242Y223258D01*
X385471Y224412D01*
X385500Y225000D01*
Y234000D01*
Y234985D01*
X385884Y236917D01*
X386638Y238737D01*
X387733Y240375D01*
X389125Y241768D01*
X390763Y242862D01*
X392583Y243616D01*
X394515Y244000D01*
X422000D01*
X422980Y244048D01*
X424903Y244431D01*
X426714Y245181D01*
X428344Y246270D01*
X429730Y247656D01*
X430819Y249286D01*
X431569Y251097D01*
X431952Y253020D01*
X432000Y254000D01*
Y267392D01*
X456775D01*
X456851Y267424D01*
X456883Y267500D01*
Y317500D01*
X456851Y317577D01*
X456775Y317608D01*
X437187D01*
X436884Y318608D01*
X437263Y318862D01*
X439083Y319616D01*
X441015Y320000D01*
X460436D01*
X462271Y319635D01*
D02*
G37*
G36*
X391744Y193866D02*
X392381Y193602D01*
X392955Y193219D01*
X393334Y192840D01*
X393600Y191950D01*
X393600Y191950D01*
X393600D01*
X393600Y191950D01*
Y183800D01*
X394223D01*
X394223Y181500D01*
X394223Y181102D01*
X393972Y180496D01*
X393238Y179762D01*
X393233Y179753D01*
X392621Y179500D01*
X392223Y179500D01*
X378379D01*
X377702Y179634D01*
X377066Y179898D01*
X376492Y180281D01*
X376005Y180769D01*
X375622Y181342D01*
X375358Y181979D01*
X375223Y182655D01*
Y189500D01*
X375223Y189943D01*
X375396Y190813D01*
X375736Y191631D01*
X376228Y192369D01*
X376410Y192550D01*
X377223Y193000D01*
X379723Y194000D01*
X379723D01*
X379724Y194000D01*
X391068D01*
X391744Y193866D01*
D02*
G37*
G36*
X383896Y162750D02*
X385079Y162260D01*
X386143Y161549D01*
X387049Y160643D01*
X387760Y159579D01*
X388250Y158396D01*
X388443Y157426D01*
X388500Y156501D01*
Y156500D01*
X388500Y156500D01*
X388500Y156500D01*
X388500Y147500D01*
X388664Y146779D01*
X388801Y145307D01*
X388744Y143829D01*
X388495Y142371D01*
X388058Y140959D01*
X387440Y139615D01*
X386652Y138364D01*
X385707Y137226D01*
X384623Y136221D01*
X383416Y135367D01*
X382108Y134677D01*
X380721Y134164D01*
X380000Y134000D01*
X353000Y136000D01*
X352379Y136141D01*
X351110Y136239D01*
X349847Y136087D01*
X348638Y135691D01*
X347529Y135068D01*
X346563Y134240D01*
X345777Y133239D01*
X345202Y132104D01*
X345008Y131524D01*
X344902D01*
Y125383D01*
X340670D01*
Y123301D01*
X336696Y122462D01*
X336612Y122427D01*
X336522Y122415D01*
X333002Y121226D01*
X326410Y119000D01*
X325331Y118636D01*
X323860Y118139D01*
X318259Y116329D01*
X317450Y116918D01*
Y117450D01*
X312650D01*
Y116758D01*
X310350D01*
Y117450D01*
X305550D01*
Y117031D01*
X304550Y116617D01*
X304526Y116641D01*
X303774Y117075D01*
X302935Y117300D01*
X302065D01*
X301226Y117075D01*
X300474Y116641D01*
X299859Y116026D01*
X299425Y115274D01*
X299200Y114434D01*
Y113566D01*
X299425Y112726D01*
X299859Y111974D01*
X300474Y111359D01*
X301226Y110925D01*
X302065Y110700D01*
X302935D01*
X303774Y110925D01*
X304526Y111359D01*
X304550Y111383D01*
X305550Y110969D01*
Y110550D01*
X310350D01*
Y111242D01*
X312650D01*
Y110550D01*
X317450D01*
Y112854D01*
X324810Y115232D01*
X324819Y115237D01*
X324829Y115238D01*
X335688Y118905D01*
X336500Y118322D01*
Y115761D01*
X336212Y114312D01*
X335646Y112947D01*
X334826Y111719D01*
X333781Y110674D01*
X332553Y109854D01*
X331188Y109288D01*
X329739Y109000D01*
X271015D01*
X269083Y109384D01*
X267263Y110138D01*
X265625Y111232D01*
X264232Y112625D01*
X263138Y114263D01*
X262384Y116083D01*
X262000Y118015D01*
Y119000D01*
Y127919D01*
X262974Y128359D01*
X263726Y127925D01*
X264565Y127700D01*
X265435D01*
X266274Y127925D01*
X267026Y128359D01*
X267501Y128834D01*
X268688D01*
X269663Y129028D01*
X270490Y129580D01*
X271917Y131007D01*
X272469Y131834D01*
X272663Y132809D01*
Y134742D01*
X272725Y134783D01*
X273003Y135199D01*
X273100Y135690D01*
Y142570D01*
X273003Y143061D01*
X272725Y143477D01*
X272309Y143755D01*
X271818Y143852D01*
X269072D01*
X268581Y143755D01*
X268165Y143477D01*
X267887Y143061D01*
X267790Y142570D01*
Y139820D01*
X267759Y139775D01*
X267565Y138799D01*
Y133932D01*
X266522D01*
X266274Y134075D01*
X265435Y134300D01*
X264565D01*
X263726Y134075D01*
X262974Y133641D01*
X262000Y134081D01*
Y140500D01*
Y142485D01*
X262384Y144417D01*
X263138Y146237D01*
X264232Y147875D01*
X265625Y149267D01*
X267263Y150362D01*
X269083Y151116D01*
X271015Y151500D01*
X276726D01*
Y139130D01*
X276821Y138412D01*
X276845Y138354D01*
Y135690D01*
X276942Y135199D01*
X277220Y134783D01*
X277636Y134505D01*
X278127Y134408D01*
X280873D01*
X281364Y134505D01*
X281780Y134783D01*
X282058Y135199D01*
X282155Y135690D01*
Y138354D01*
X282179Y138412D01*
X282274Y139130D01*
Y151500D01*
X303550D01*
Y147500D01*
X304961D01*
Y145845D01*
X302916Y143800D01*
X302065D01*
X301226Y143575D01*
X300474Y143141D01*
X299859Y142526D01*
X299425Y141774D01*
X299200Y140934D01*
Y140066D01*
X299425Y139226D01*
X299859Y138474D01*
X300474Y137859D01*
X301226Y137425D01*
X302065Y137200D01*
X302935D01*
X303774Y137425D01*
X304526Y137859D01*
X305141Y138474D01*
X305575Y139226D01*
X305800Y140066D01*
Y140916D01*
X308442Y143558D01*
X308884Y144220D01*
X309039Y145000D01*
Y147500D01*
X310450D01*
Y151500D01*
X324226D01*
Y147593D01*
D01*
Y142130D01*
X324321Y141412D01*
X324345Y141354D01*
Y138690D01*
X324442Y138199D01*
X324720Y137783D01*
X325136Y137505D01*
X325627Y137408D01*
X328373D01*
X328864Y137505D01*
X329280Y137783D01*
X329558Y138199D01*
X329655Y138690D01*
Y141354D01*
X329679Y141412D01*
X329774Y142130D01*
Y149000D01*
Y151500D01*
X333795D01*
X334375Y151385D01*
X334921Y151159D01*
X335412Y150830D01*
X335830Y150412D01*
X336159Y149921D01*
X336385Y149375D01*
X336459Y149000D01*
X354692D01*
Y142300D01*
X354724Y142224D01*
X354800Y142192D01*
X381200D01*
X381276Y142224D01*
X381308Y142300D01*
Y152950D01*
X381276Y153026D01*
X381200Y153058D01*
X372658D01*
Y157942D01*
X381200D01*
X381276Y157974D01*
X381308Y158050D01*
Y163000D01*
X382000D01*
X382640Y163000D01*
X383896Y162750D01*
D02*
G37*
G36*
X467000Y108000D02*
X467500Y107500D01*
X465500Y105500D01*
X385500D01*
Y114787D01*
X386213Y115488D01*
X446500Y114500D01*
X448304Y129304D01*
X451500Y132500D01*
X467000D01*
Y108000D01*
D02*
G37*
G36*
X408566Y136848D02*
X408848Y136566D01*
X409000Y136199D01*
Y135258D01*
X407750D01*
X407674Y135227D01*
X407642Y135150D01*
Y129850D01*
X407674Y129773D01*
X407750Y129742D01*
X409420D01*
X409472Y129614D01*
X409908Y128962D01*
X410462Y128408D01*
X411114Y127972D01*
X411839Y127672D01*
X412608Y127519D01*
X413000Y127500D01*
X416542D01*
X417604Y127289D01*
X418605Y126874D01*
X419506Y126272D01*
X420272Y125506D01*
X420874Y124605D01*
X421289Y123604D01*
X421500Y122542D01*
Y121508D01*
X421308Y120542D01*
X420931Y119632D01*
X420384Y118813D01*
X419687Y118116D01*
X418868Y117569D01*
X417958Y117192D01*
X416993Y117000D01*
X383000D01*
X382610Y116962D01*
X381889Y116663D01*
X381337Y116111D01*
X381038Y115390D01*
X381000Y115000D01*
Y111007D01*
X380808Y110042D01*
X380431Y109132D01*
X379884Y108313D01*
X379187Y107616D01*
X378368Y107069D01*
X377458Y106692D01*
X376493Y106500D01*
X375360D01*
X374104Y106750D01*
X372921Y107240D01*
X371856Y107951D01*
X370951Y108856D01*
X370694Y109242D01*
X371228Y110242D01*
X372250D01*
X372326Y110274D01*
X372358Y110350D01*
Y115650D01*
X372326Y115726D01*
X372250Y115758D01*
X369500D01*
Y119000D01*
X369471Y119588D01*
X369242Y120742D01*
X368792Y121828D01*
X368138Y122806D01*
X367306Y123638D01*
X366328Y124292D01*
X365242Y124742D01*
X364088Y124971D01*
X363500Y125000D01*
X359163D01*
X359050Y125113D01*
X358554Y125444D01*
X357968Y125561D01*
X354757D01*
X354172Y125444D01*
X354079Y125383D01*
X352998D01*
Y131524D01*
X353831Y131929D01*
X354003Y132000D01*
X393000D01*
X393195Y132019D01*
X393556Y132168D01*
X393831Y132444D01*
X393981Y132805D01*
X394000Y133000D01*
Y135798D01*
X394228Y136350D01*
X394650Y136772D01*
X395202Y137000D01*
X408199D01*
X408566Y136848D01*
D02*
G37*
%LPC*%
G36*
X311448Y337900D02*
X310552D01*
X309688Y337668D01*
X308912Y337221D01*
X308279Y336588D01*
X307832Y335812D01*
X307600Y334948D01*
Y334052D01*
X307832Y333188D01*
X308279Y332412D01*
X308912Y331779D01*
X309688Y331332D01*
X310552Y331100D01*
X311448D01*
X312312Y331332D01*
X313088Y331779D01*
X313721Y332412D01*
X314168Y333188D01*
X314400Y334052D01*
Y334948D01*
X314168Y335812D01*
X313721Y336588D01*
X313088Y337221D01*
X312312Y337668D01*
X311448Y337900D01*
D02*
G37*
G36*
Y317900D02*
X310552D01*
X309688Y317668D01*
X308912Y317221D01*
X308279Y316588D01*
X307832Y315812D01*
X307600Y314948D01*
Y314052D01*
X307832Y313188D01*
X308279Y312412D01*
X308912Y311779D01*
X309688Y311332D01*
X310552Y311100D01*
X311448D01*
X312312Y311332D01*
X313088Y311779D01*
X313721Y312412D01*
X314168Y313188D01*
X314400Y314052D01*
Y314948D01*
X314168Y315812D01*
X313721Y316588D01*
X313088Y317221D01*
X312312Y317668D01*
X311448Y317900D01*
D02*
G37*
G36*
X285934Y318800D02*
X285066D01*
X284226Y318575D01*
X283474Y318141D01*
X282859Y317526D01*
X282425Y316774D01*
X282200Y315934D01*
Y315066D01*
X282425Y314226D01*
X282784Y313605D01*
Y312375D01*
X281873D01*
Y307625D01*
X286623D01*
Y309669D01*
X286707Y309794D01*
X286862Y310575D01*
Y312476D01*
X287526Y312859D01*
X288141Y313474D01*
X288575Y314226D01*
X288800Y315066D01*
Y315934D01*
X288575Y316774D01*
X288141Y317526D01*
X287526Y318141D01*
X286774Y318575D01*
X285934Y318800D01*
D02*
G37*
G36*
X311448Y307900D02*
X310552D01*
X309688Y307668D01*
X308912Y307221D01*
X308279Y306588D01*
X307832Y305812D01*
X307600Y304948D01*
Y304052D01*
X307832Y303188D01*
X308279Y302412D01*
X308912Y301779D01*
X309688Y301332D01*
X310552Y301100D01*
X311448D01*
X312312Y301332D01*
X313088Y301779D01*
X313721Y302412D01*
X314168Y303188D01*
X314400Y304052D01*
Y304948D01*
X314168Y305812D01*
X313721Y306588D01*
X313088Y307221D01*
X312312Y307668D01*
X311448Y307900D01*
D02*
G37*
G36*
X280127Y312375D02*
X275377D01*
Y307625D01*
X275968D01*
Y301198D01*
X275981Y301131D01*
X276091Y300298D01*
X276438Y299459D01*
X276991Y298739D01*
X277050Y298693D01*
Y296050D01*
X281850D01*
Y296742D01*
X284750D01*
X284826Y296774D01*
X284858Y296850D01*
Y302150D01*
X284826Y302226D01*
X284750Y302258D01*
X281850D01*
Y302950D01*
X279536D01*
Y307625D01*
X280127D01*
Y312375D01*
D02*
G37*
G36*
X311448Y257900D02*
X310552D01*
X309688Y257668D01*
X308912Y257221D01*
X308279Y256588D01*
X307832Y255812D01*
X307600Y254948D01*
Y254052D01*
X307832Y253188D01*
X308279Y252412D01*
X308912Y251779D01*
X309688Y251332D01*
X310552Y251100D01*
X311448D01*
X312312Y251332D01*
X313088Y251779D01*
X313721Y252412D01*
X314168Y253188D01*
X314400Y254052D01*
Y254948D01*
X314168Y255812D01*
X313721Y256588D01*
X313088Y257221D01*
X312312Y257668D01*
X311448Y257900D01*
D02*
G37*
G36*
X284627Y259875D02*
X279877D01*
Y255125D01*
X280287D01*
Y254936D01*
X280305Y254843D01*
X280405Y254087D01*
X280732Y253296D01*
X281253Y252618D01*
X281932Y252097D01*
X282097Y252028D01*
X282214Y251945D01*
X283781Y251236D01*
X283571Y250258D01*
X283250D01*
X283173Y250226D01*
X283142Y250150D01*
Y244850D01*
X283173Y244774D01*
X283250Y244742D01*
X286150D01*
Y244050D01*
X290950D01*
Y250950D01*
X289973D01*
X289965Y251011D01*
X289633Y251814D01*
X289104Y252504D01*
X288414Y253032D01*
X288241Y253104D01*
X288124Y253188D01*
X285345Y254445D01*
X284627Y255125D01*
Y259875D01*
D02*
G37*
G36*
X319318Y146852D02*
X316572D01*
X316081Y146755D01*
X315665Y146477D01*
X315387Y146061D01*
X315289Y145570D01*
Y138690D01*
X315387Y138199D01*
X315665Y137783D01*
X315906Y137622D01*
Y135790D01*
X315155Y135039D01*
X312628D01*
X312026Y135641D01*
X311274Y136075D01*
X310435Y136300D01*
X309565D01*
X308726Y136075D01*
X307974Y135641D01*
X307359Y135026D01*
X306925Y134274D01*
X306700Y133434D01*
Y132566D01*
X306925Y131726D01*
X307359Y130974D01*
X307974Y130359D01*
X308077Y130300D01*
X307809Y129300D01*
X307565D01*
X306726Y129075D01*
X305974Y128641D01*
X305359Y128026D01*
X304925Y127274D01*
X304700Y126434D01*
Y125566D01*
X304925Y124726D01*
X305359Y123974D01*
X305974Y123359D01*
X306726Y122925D01*
X307565Y122700D01*
X308435D01*
X309274Y122925D01*
X310026Y123359D01*
X310550Y123883D01*
X311550Y123773D01*
Y122550D01*
X316350D01*
Y123242D01*
X319250D01*
X319326Y123274D01*
X319358Y123350D01*
Y128650D01*
X319326Y128726D01*
X319250Y128758D01*
X316350D01*
Y129450D01*
X312824D01*
X312405Y130431D01*
X312889Y130961D01*
X316000D01*
X316780Y131116D01*
X317442Y131558D01*
X319387Y133503D01*
X319387Y133503D01*
X319829Y134165D01*
X319984Y134945D01*
X319984Y134945D01*
Y137622D01*
X320225Y137783D01*
X320503Y138199D01*
X320600Y138690D01*
Y145570D01*
X320503Y146061D01*
X320225Y146477D01*
X319809Y146755D01*
X319318Y146852D01*
D02*
G37*
G36*
X277300Y125950D02*
X272500D01*
Y124539D01*
X270128D01*
X269526Y125141D01*
X268774Y125575D01*
X267934Y125800D01*
X267066D01*
X266226Y125575D01*
X265474Y125141D01*
X264859Y124526D01*
X264425Y123774D01*
X264200Y122934D01*
Y122066D01*
X264425Y121226D01*
X264859Y120474D01*
X265474Y119859D01*
X266226Y119425D01*
X267066Y119200D01*
X267934D01*
X268774Y119425D01*
X269526Y119859D01*
X270128Y120461D01*
X272500D01*
Y119050D01*
X277300D01*
Y119742D01*
X280200D01*
X280276Y119773D01*
X280308Y119850D01*
Y125150D01*
X280276Y125226D01*
X280200Y125258D01*
X277300D01*
Y125950D01*
D02*
G37*
%LPD*%
D10*
X277752Y301198D02*
G03*
X279450Y299500I1698J0D01*
G01*
X282071Y254936D02*
G03*
X282948Y253571I1500J0D01*
G01*
X288300Y250150D02*
G03*
X287389Y251562I-1550J0D01*
G01*
X261500Y286000D02*
G03*
X271500Y276000I10000J0D01*
G01*
X292000Y339000D02*
X303500Y327500D01*
X277500Y342000D02*
X280500Y339000D01*
X292000D01*
X296000Y350550D02*
X296150D01*
X297000Y351400D01*
Y356000D01*
X420469Y188705D02*
X422102Y190339D01*
X426866D01*
X420469Y188469D02*
Y188705D01*
X432339Y190339D02*
X435450Y193450D01*
X426866Y190339D02*
X432339D01*
X435450Y193450D02*
Y194500D01*
X444000Y137000D02*
X447050Y140050D01*
Y147000D01*
X432000Y137000D02*
X444000D01*
X413500Y155500D02*
X432000Y137000D01*
X403050Y155500D02*
X413500D01*
X305500Y360000D02*
Y371000D01*
Y360000D02*
X311000Y354500D01*
X276500Y289000D02*
X291500D01*
X305321Y275180D02*
X310320D01*
X291500Y289000D02*
X305321Y275180D01*
X310320D02*
X311000Y274500D01*
X269500Y296000D02*
X276500Y289000D01*
X303500Y302000D02*
Y327500D01*
Y302000D02*
X311000Y294500D01*
X277752Y301198D02*
Y310000D01*
X269500Y296000D02*
Y308000D01*
X264000Y313500D02*
X269500Y308000D01*
X276500Y417000D02*
Y426500D01*
X292000Y442000D01*
X276500Y417000D02*
X293500Y400000D01*
Y383000D02*
Y400000D01*
Y383000D02*
X305500Y371000D01*
X254500Y405500D02*
Y419380D01*
Y405500D02*
X285500Y374500D01*
X254500Y419380D02*
X262000Y426880D01*
Y413100D02*
X277100Y398000D01*
X280450D01*
X285500Y374500D02*
X290000D01*
X277500Y342000D02*
Y354500D01*
X281500Y358500D01*
X293000D01*
X296000Y361500D01*
Y368500D01*
X290000Y374500D02*
X296000Y368500D01*
X258500Y313500D02*
X264000D01*
X256500Y225000D02*
Y226000D01*
X256450Y224950D02*
X256500Y225000D01*
X256450Y216000D02*
Y224950D01*
X320500Y304000D02*
X341000Y324500D01*
X320500Y284500D02*
Y304000D01*
X341000Y334500D02*
X353000Y322500D01*
X372500D01*
X442550Y223500D02*
X443000Y223950D01*
X442500Y194450D02*
X442550Y194500D01*
X442450Y183000D02*
X442500Y183050D01*
Y194450D01*
X348500Y210000D02*
X353000Y214500D01*
X348500Y201050D02*
Y210000D01*
X353000Y214500D02*
Y272500D01*
X341000Y284500D02*
X353000Y272500D01*
X337500Y208000D02*
X346500Y217000D01*
Y269000D01*
X341000Y274500D02*
X346500Y269000D01*
X252000Y320000D02*
X258500Y313500D01*
X252000Y320000D02*
Y333179D01*
X261500Y342680D01*
X387500Y192000D02*
Y192500D01*
X391000Y196000D01*
X399000D01*
X404661Y190339D02*
X410134D01*
X399000Y196000D02*
X404661Y190339D01*
X403250Y144200D02*
Y155300D01*
X403050Y155500D02*
X403250Y155300D01*
Y144200D02*
X403450Y144000D01*
X403050Y155500D02*
X403500Y155950D01*
Y163000D01*
X401550Y164950D02*
Y172000D01*
Y164950D02*
X403500Y163000D01*
X401500Y172050D02*
X401550Y172000D01*
X401500Y172050D02*
Y180500D01*
X403661Y182661D01*
X410134D01*
X394500Y175446D02*
Y178500D01*
X394450Y172000D02*
Y175396D01*
X394500Y175446D01*
Y178500D02*
X401221Y185221D01*
X410134D01*
X433280D02*
X439950Y178550D01*
Y170000D02*
Y178550D01*
X426866Y185221D02*
X433280D01*
X433500Y166000D02*
Y180500D01*
X426866Y182661D02*
X431339D01*
X433500Y180500D01*
X440550Y184900D02*
X441600D01*
X442450Y183000D02*
Y184050D01*
X441600Y184900D02*
X442450Y184050D01*
X437671Y187779D02*
X440550Y184900D01*
X426866Y187779D02*
X437671D01*
X439950Y158500D02*
Y159550D01*
X433500Y166000D02*
X439950Y159550D01*
X375965Y291000D02*
Y319035D01*
X372500Y322500D02*
X375965Y319035D01*
X341000Y364500D02*
X348500Y372000D01*
X341000Y442000D02*
X348500Y434500D01*
Y372000D02*
Y434500D01*
X302000Y442000D02*
X341000D01*
X305650Y376350D02*
X309150D01*
X311000Y374500D01*
X296883Y385117D02*
X305650Y376350D01*
X296883Y385117D02*
Y417117D01*
X292000Y422000D02*
X296883Y417117D01*
X282071Y256675D02*
X282252Y257500D01*
X282071Y254936D02*
Y256675D01*
X282948Y253571D02*
X282953Y253569D01*
X287389Y251562D01*
X288300Y249400D02*
Y250150D01*
Y249400D02*
X288550Y247500D01*
X261500Y286000D02*
Y286800D01*
X271500Y276000D02*
X278950D01*
X396100Y187871D02*
X408370D01*
D11*
X310500Y389500D02*
G03*
X316500Y383500I6000J0D01*
G01*
X360000Y379000D02*
G03*
X353500Y372500I0J-6500D01*
G01*
X367303Y369803D02*
G03*
X358500Y361000I0J-8803D01*
G01*
X297146Y426854D02*
G03*
X298000Y426500I854J854D01*
G01*
X313500Y344500D02*
G03*
X320000Y351000I0J6500D01*
G01*
Y380000D02*
G03*
X316500Y383500I-3500J0D01*
G01*
X310500Y413500D02*
G03*
X302000Y422000I-8500J0D01*
G01*
X362000Y200000D02*
G03*
X359465Y201050I-2535J-2535D01*
G01*
X392996Y372504D02*
G03*
X386500Y379000I-6496J0D01*
G01*
X307500Y426500D02*
X321500Y412500D01*
Y409500D02*
X326500Y404500D01*
X321500Y409500D02*
Y412500D01*
X302858Y426500D02*
X307500D01*
X326500Y369000D02*
Y404500D01*
Y369000D02*
X338102Y357398D01*
X332500Y383000D02*
Y415500D01*
Y383000D02*
X341000Y374500D01*
X323071Y424929D02*
X332500Y415500D01*
X341970Y122012D02*
X343143Y122063D01*
X337012Y120966D02*
X341970Y122012D01*
X324340Y116687D02*
X337012Y120966D01*
X354757Y122063D02*
X355879D01*
X358500Y119442D01*
Y116050D02*
Y119442D01*
X355000Y112550D02*
X358500Y116050D01*
X355000Y111500D02*
Y112550D01*
X363586Y114914D02*
X365850D01*
X366950Y113000D02*
Y113814D01*
X365850Y114914D02*
X366950Y113814D01*
X363000Y115500D02*
X363586Y114914D01*
X363000Y115500D02*
Y119000D01*
X357968Y124031D02*
X363000Y119000D01*
X354757Y124031D02*
X357968D01*
X310500Y389500D02*
Y413500D01*
X353500Y357000D02*
Y372500D01*
X358500Y356142D02*
Y361000D01*
X341000Y344500D02*
X351000Y343000D01*
X349535Y334500D02*
X358500Y343464D01*
Y356142D01*
X341000Y334500D02*
X349535D01*
X367303Y369803D02*
X376461D01*
X315050Y114000D02*
X315427Y113807D01*
X324340Y116687D01*
X298000Y426500D02*
X302858D01*
X338102Y357398D02*
X338102D01*
X341000Y354500D01*
X311000Y344500D02*
X313500D01*
X320000Y351000D02*
Y380000D01*
X323071Y424929D02*
Y424929D01*
X306000Y432000D02*
X316000D01*
X323071Y424929D01*
X323071Y424929D01*
X302000Y432000D02*
X306000D01*
X292000D02*
X297147Y426854D01*
X395500Y187875D02*
X396100Y187871D01*
X408370D02*
X410134Y187779D01*
X341000Y344500D02*
X353500Y357000D01*
X392996Y369803D02*
Y372504D01*
X360000Y379000D02*
X386500D01*
D12*
X311909Y190284D02*
G03*
X311387Y190500I-523J-523D01*
G01*
X308000Y126000D02*
X313950D01*
X316000Y133000D02*
X317945Y134945D01*
Y141581D01*
X310000Y133000D02*
X316000D01*
X348000Y304500D02*
X351000Y307500D01*
Y314500D01*
X302500Y140500D02*
X307000Y145000D01*
Y149900D01*
X430000Y195688D02*
Y196500D01*
X430574Y195926D02*
X434850D01*
X435450Y194500D02*
Y195326D01*
X434850Y195926D02*
X435450Y195326D01*
X386000Y144000D02*
X403450D01*
X417208Y180604D02*
Y184531D01*
Y180604D02*
X420500Y177312D01*
Y184500D01*
Y176500D02*
Y177312D01*
X416532Y184531D02*
X417208D01*
X420469D02*
X420500Y184500D01*
X419950Y219500D02*
X420000Y219450D01*
Y210000D02*
Y219450D01*
X356128Y315074D02*
X358104Y317050D01*
X351574Y315074D02*
X356128D01*
X358104Y317050D02*
X361500D01*
X351000Y314500D02*
X351574Y315074D01*
X350450Y302050D02*
X351500D01*
X341000Y304500D02*
X348000D01*
X350450Y302050D01*
X292950Y352550D02*
X294950Y350550D01*
X286500Y352550D02*
X292950D01*
X294950Y350550D02*
X296000D01*
X301000Y214500D02*
Y219450D01*
X263550Y216000D02*
X270000D01*
X258000Y140000D02*
Y146950D01*
X267500Y122500D02*
X274900D01*
X302500Y114000D02*
X307950D01*
X347900Y110674D02*
Y111500D01*
X347300Y110074D02*
X347900Y110674D01*
X343074Y110074D02*
X347300D01*
X342500Y109500D02*
X343074Y110074D01*
X288500Y190500D02*
X295450D01*
X289000Y207500D02*
X295450D01*
X296000Y343450D02*
X296378D01*
X289550D02*
X296000D01*
X261500Y328900D02*
X261954D01*
X266354Y324500D01*
X278450D01*
X272500Y285000D02*
X290500D01*
X311000Y264500D01*
X279000Y371550D02*
Y373500D01*
Y371550D02*
X279500Y371050D01*
X275000Y377500D02*
X279000Y373500D01*
X268000Y377500D02*
X275000D01*
X261500Y371000D02*
X268000Y377500D01*
X274000Y331000D02*
X292328D01*
X293500Y329828D01*
X306500Y284500D02*
X311000D01*
X293500Y297500D02*
X306500Y284500D01*
X293500Y297500D02*
Y329828D01*
X261500Y300580D02*
X262292Y299787D01*
Y295208D02*
Y299787D01*
Y295208D02*
X272500Y285000D01*
X296978Y338522D02*
Y342850D01*
Y338522D02*
X311000Y324500D01*
X296378Y343450D02*
X296978Y342850D01*
X288748Y257500D02*
Y270474D01*
X292500Y274226D02*
Y274500D01*
X288748Y270474D02*
X292500Y274226D01*
X443000Y223950D02*
Y232500D01*
X434550Y235000D02*
X440500D01*
X443000Y232500D01*
X348500Y201050D02*
X359465D01*
X263050Y195500D02*
Y206000D01*
Y186000D02*
X268000D01*
X272000Y182000D01*
X270000Y335000D02*
X274000Y331000D01*
X270000Y335000D02*
Y356000D01*
X262500Y363500D02*
X270000Y356000D01*
X253000Y364672D02*
Y376279D01*
Y364672D02*
X254172Y363500D01*
X262500D01*
X253000Y376279D02*
X261500Y384780D01*
X284823Y310575D02*
Y314011D01*
X285500Y314688D01*
X284248Y310000D02*
X284823Y310575D01*
X285500Y314688D02*
Y315500D01*
X279550Y244550D02*
X281450Y246450D01*
Y247500D01*
X279550Y231000D02*
Y244550D01*
X435500Y201000D02*
X441378D01*
X442550Y194500D02*
Y199828D01*
X441378Y201000D02*
X442550Y199828D01*
X430000Y206500D02*
X435500Y201000D01*
X430000Y206500D02*
Y218050D01*
X435450Y223500D01*
X439950Y147000D02*
Y158500D01*
X447050D02*
Y170000D01*
Y147000D02*
Y158500D01*
X361500Y296500D02*
Y309950D01*
X359950Y294950D02*
X361500Y296500D01*
X351500Y294950D02*
X359950D01*
X349000Y293500D02*
X350450Y294950D01*
X351500D01*
X343772Y293500D02*
X349000D01*
X341612Y293888D02*
X343384D01*
X343772Y293500D01*
X341000Y294500D02*
X341612Y293888D01*
X287550Y345450D02*
X289550Y343450D01*
X286500Y345450D02*
X287550D01*
X434550Y321000D02*
X440000Y326450D01*
X420500Y321000D02*
X434550D01*
X440000Y333550D02*
Y351500D01*
X410550Y142950D02*
X413050Y140450D01*
Y132500D02*
Y140450D01*
Y132500D02*
X420500D01*
X421000Y133000D01*
X410550Y142950D02*
Y144000D01*
X255950Y206000D02*
Y214793D01*
Y186000D02*
Y195500D01*
X302550Y190500D02*
X311387D01*
X311909Y190284D02*
X337500D01*
X311909Y208000D02*
X337500D01*
X302550Y207500D02*
X310702D01*
D13*
X462000Y292500D02*
D03*
X416950D02*
D03*
D14*
X296000Y350550D02*
D03*
Y343450D02*
D03*
X286500Y345450D02*
D03*
Y352550D02*
D03*
X351500Y294950D02*
D03*
Y302050D02*
D03*
X279500Y371050D02*
D03*
Y363950D02*
D03*
X348500Y201050D02*
D03*
Y193950D02*
D03*
X361500Y317050D02*
D03*
Y309950D02*
D03*
X307000Y149900D02*
D03*
Y157000D02*
D03*
X301000Y226550D02*
D03*
Y219450D02*
D03*
X258000Y146950D02*
D03*
Y154050D02*
D03*
X440000Y333550D02*
D03*
Y326450D02*
D03*
D15*
X380500Y187875D02*
D03*
X385500D02*
D03*
X390500D02*
D03*
X395500D02*
D03*
Y210125D02*
D03*
X390500D02*
D03*
X385500D02*
D03*
X380500D02*
D03*
D16*
X277752Y310000D02*
D03*
X284248D02*
D03*
X288748Y257500D02*
D03*
X282252D02*
D03*
D17*
X413050Y132500D02*
D03*
X405950D02*
D03*
X410550Y144000D02*
D03*
X403450D02*
D03*
X395950Y155500D02*
D03*
X403050D02*
D03*
X263550Y216000D02*
D03*
X256450D02*
D03*
X302550Y190500D02*
D03*
X295450D02*
D03*
X302550Y207500D02*
D03*
X295450D02*
D03*
X286550Y299500D02*
D03*
X279450D02*
D03*
X281450Y247500D02*
D03*
X288550D02*
D03*
X278950Y276000D02*
D03*
X286050D02*
D03*
X278450Y324500D02*
D03*
X285550D02*
D03*
X280450Y398000D02*
D03*
X287550D02*
D03*
X272450Y231000D02*
D03*
X279550D02*
D03*
X255950Y186000D02*
D03*
X263050D02*
D03*
Y195500D02*
D03*
X255950D02*
D03*
X263050Y206000D02*
D03*
X255950D02*
D03*
X313950Y126000D02*
D03*
X321050D02*
D03*
X307950Y114000D02*
D03*
X315050D02*
D03*
X439950Y147000D02*
D03*
X447050D02*
D03*
X435450Y223500D02*
D03*
X442550D02*
D03*
X274900Y122500D02*
D03*
X282000D02*
D03*
X435450Y194500D02*
D03*
X442550D02*
D03*
X439950Y158500D02*
D03*
X447050D02*
D03*
X394450Y172000D02*
D03*
X401550D02*
D03*
X347900Y111500D02*
D03*
X355000D02*
D03*
X442450Y183000D02*
D03*
X449550D02*
D03*
X439950Y170000D02*
D03*
X447050D02*
D03*
X374050Y113000D02*
D03*
X366950D02*
D03*
X434550Y235000D02*
D03*
X427450D02*
D03*
D18*
X357350Y155500D02*
D03*
X378650D02*
D03*
D19*
X327000Y165870D02*
D03*
X279500Y162870D02*
D03*
D20*
X336055Y142130D02*
D03*
X327000D02*
D03*
X317945D02*
D03*
X270445Y139130D02*
D03*
X279500D02*
D03*
X288555D02*
D03*
D21*
X442450Y207000D02*
D03*
X449550D02*
D03*
D22*
X410134Y190339D02*
D03*
Y187779D02*
D03*
Y185221D02*
D03*
Y182661D02*
D03*
X426866Y190339D02*
D03*
Y187779D02*
D03*
Y185221D02*
D03*
Y182661D02*
D03*
D23*
X418500Y186500D02*
D03*
D24*
X354757Y122063D02*
D03*
Y124031D02*
D03*
Y126000D02*
D03*
Y127969D02*
D03*
Y129937D02*
D03*
X343143D02*
D03*
Y127969D02*
D03*
Y126000D02*
D03*
Y124031D02*
D03*
Y122063D02*
D03*
D25*
X348950Y126000D02*
D03*
D26*
X403050Y219500D02*
D03*
X419950D02*
D03*
D27*
X359500Y263500D02*
Y283000D01*
X351500Y291000D02*
Y293500D01*
Y291000D02*
X359500Y283000D01*
X346000Y155500D02*
X357350D01*
X270114Y138799D02*
X270445Y139130D01*
X270114Y132809D02*
Y138799D01*
X265383Y131383D02*
X268688D01*
X270114Y132809D01*
X265000Y131000D02*
X265383Y131383D01*
X463000Y208000D02*
Y216500D01*
X448743Y223500D02*
X450500Y221743D01*
X448743Y216500D02*
X450500Y218257D01*
X439000Y216500D02*
X448743D01*
X444500Y223500D02*
X448743D01*
X450500Y218257D02*
Y221743D01*
X462000Y207000D02*
X463000Y208000D01*
X391500Y158500D02*
X395000Y155000D01*
X391500Y158500D02*
Y163500D01*
X388000Y167000D02*
X391500Y163500D01*
X388000Y167000D02*
Y182500D01*
X388500Y183000D01*
X451000D02*
X461000D01*
X437000Y214500D02*
X439000Y216500D01*
X437000Y209000D02*
Y214500D01*
X439000Y207000D02*
X441000D01*
X437000Y209000D02*
X439000Y207000D01*
X450500D02*
X462000D01*
X464500Y204500D01*
Y186500D02*
Y204500D01*
X461000Y183000D02*
X464500Y186500D01*
X376461Y336732D02*
X384500Y328693D01*
Y266464D02*
Y328693D01*
X375965Y257929D02*
X384500Y266464D01*
X365071Y257929D02*
X375965D01*
X359500Y263500D02*
X365071Y257929D01*
D28*
X321500Y120000D02*
X329000Y127500D01*
X299000Y124500D02*
X303500Y120000D01*
X321500D01*
X288555Y128305D02*
X299000Y124500D01*
X280500Y189000D02*
X292500Y177000D01*
X280500Y189000D02*
Y231000D01*
X282500D02*
X287500Y226000D01*
X298500Y169500D02*
Y170000D01*
X291870Y162870D02*
X298500Y169500D01*
X279500Y162870D02*
X291870D01*
X258000Y448000D02*
X263500D01*
X247000Y437000D02*
X258000Y448000D01*
X247000Y184500D02*
Y437000D01*
Y184500D02*
X266820Y164680D01*
X292500Y177000D02*
X324950D01*
X266820Y162870D02*
Y164680D01*
X280500Y231000D02*
X282500D01*
X287500Y226000D02*
X289000D01*
X307175Y244175D01*
X310675D01*
X311000Y244500D01*
X264500Y231000D02*
X271500D01*
X261500Y234000D02*
X264500Y231000D01*
X261500Y234000D02*
Y244700D01*
X262186Y244014D01*
X302225Y227775D02*
X311000Y236550D01*
Y244500D01*
X324950Y177000D02*
X327000Y174950D01*
Y165870D02*
Y174950D01*
X282750Y122500D02*
X288555Y128305D01*
Y139130D01*
X258975Y155025D02*
X266820Y162870D01*
X279500D01*
Y139130D02*
Y162870D01*
X326370Y166500D02*
X327000Y165870D01*
X311000Y166500D02*
X326370D01*
X307000Y158000D02*
Y162500D01*
X311000Y166500D01*
X327000Y142130D02*
Y165870D01*
X348500Y187500D02*
Y193000D01*
X344000Y177500D02*
X347000Y174500D01*
X344000Y183000D02*
X348500Y187500D01*
X344000Y177500D02*
Y183000D01*
X368450Y174500D02*
X370500Y176550D01*
X347000Y174500D02*
X368450D01*
X362000Y213779D02*
X370500Y205279D01*
Y176550D02*
Y205279D01*
X338370Y165870D02*
X347000Y174500D01*
X327000Y165870D02*
X338370D01*
D29*
X362000Y213779D02*
X375965Y227745D01*
Y257929D01*
D30*
X371004Y266197D02*
D03*
X371500Y345000D02*
D03*
D31*
X375965Y257929D02*
D03*
Y274465D02*
D03*
Y291000D02*
D03*
X392500Y257929D02*
D03*
Y274465D02*
D03*
Y291000D02*
D03*
X392996Y369803D02*
D03*
Y353268D02*
D03*
Y336732D02*
D03*
X376461Y369803D02*
D03*
Y353268D02*
D03*
Y336732D02*
D03*
D32*
X393158Y122500D02*
D03*
X403000D02*
D03*
X412843D02*
D03*
Y109508D02*
D03*
X403000D02*
D03*
X393158D02*
D03*
X302000Y442000D02*
D03*
Y432000D02*
D03*
Y422000D02*
D03*
Y412000D02*
D03*
X292000D02*
D03*
Y422000D02*
D03*
Y432000D02*
D03*
Y442000D02*
D03*
D33*
X440000Y377091D02*
D03*
D34*
Y351500D02*
D03*
D35*
X262000Y413100D02*
D03*
X261500Y244700D02*
D03*
Y371000D02*
D03*
Y328900D02*
D03*
Y286800D02*
D03*
X362000Y186221D02*
D03*
Y200000D02*
D03*
X454000Y121000D02*
D03*
D36*
X262000Y426880D02*
D03*
X261500Y258479D02*
D03*
Y384780D02*
D03*
Y342680D02*
D03*
Y300580D02*
D03*
X362000Y213779D02*
D03*
D37*
X311000Y374500D02*
D03*
D38*
Y364500D02*
D03*
Y354500D02*
D03*
Y344500D02*
D03*
Y334500D02*
D03*
Y324500D02*
D03*
Y314500D02*
D03*
Y304500D02*
D03*
Y294500D02*
D03*
Y284500D02*
D03*
Y274500D02*
D03*
Y264500D02*
D03*
Y254500D02*
D03*
Y244500D02*
D03*
X341000D02*
D03*
Y254500D02*
D03*
Y264500D02*
D03*
Y274500D02*
D03*
Y284500D02*
D03*
Y294500D02*
D03*
Y304500D02*
D03*
Y314500D02*
D03*
Y324500D02*
D03*
Y334500D02*
D03*
Y344500D02*
D03*
Y354500D02*
D03*
Y364500D02*
D03*
Y374500D02*
D03*
D39*
X440220Y121000D02*
D03*
D40*
X350500Y129100D02*
D03*
Y126000D02*
D03*
Y122900D02*
D03*
X347400Y129100D02*
D03*
Y126000D02*
D03*
Y122900D02*
D03*
D41*
X311909Y190284D02*
D03*
Y208000D02*
D03*
X337500D02*
D03*
D42*
Y190284D02*
D03*
D43*
X297000Y356000D02*
D03*
X308000Y126000D02*
D03*
X310000Y133000D02*
D03*
X302500Y140500D02*
D03*
X430000Y196500D02*
D03*
X346000Y155500D02*
D03*
X420500Y176500D02*
D03*
X420000Y210000D02*
D03*
X351000Y314500D02*
D03*
X301000Y214500D02*
D03*
X258000Y140000D02*
D03*
X265000Y131000D02*
D03*
X267500Y122500D02*
D03*
X302500Y114000D02*
D03*
X342500Y109500D02*
D03*
X288500Y190500D02*
D03*
X270000Y216000D02*
D03*
X289000Y207500D02*
D03*
X463000Y216500D02*
D03*
X292500Y274500D02*
D03*
X256500Y226000D02*
D03*
X320500Y284500D02*
D03*
X298500Y170000D02*
D03*
X263500Y448000D02*
D03*
X373000Y129000D02*
D03*
X272000Y182000D02*
D03*
X285500Y315500D02*
D03*
X351000Y343000D02*
D03*
X421000Y133000D02*
D03*
D44*
X420469Y184531D02*
D03*
X416532D02*
D03*
X420469Y188469D02*
D03*
X416532D02*
D03*
%TF.MD5,9b44ab89ead472447897d9feceb7a404*%
M02*
