%TF.GenerationSoftware,Altium Limited,Altium Designer,24.10.1 (45)*%
G04 Layer_Color=8388736*
%FSLAX25Y25*%
%MOIN*%
%TF.SameCoordinates,F49E7BB8-28A7-4C0D-84C7-1FE184DCB0B3*%
%TF.FilePolarity,Negative*%
%TF.FileFunction,Soldermask,Top*%
%TF.Part,Single*%
G01*
G75*
%TA.AperFunction,ComponentPad*%
%ADD31C,0.09200*%
%ADD32C,0.05500*%
%ADD37R,0.05200X0.05200*%
%ADD38C,0.05200*%
%ADD42R,0.05900X0.05900*%
%TA.AperFunction,SMDPad,CuDef*%
%ADD54R,0.10450X0.18900*%
%ADD55R,0.05700X0.03600*%
%ADD56R,0.02600X0.06950*%
%ADD57R,0.03950X0.03950*%
%ADD58R,0.03600X0.05700*%
%ADD59R,0.12200X0.05100*%
G04:AMPARAMS|DCode=60|XSize=85.95mil|YSize=135.16mil|CornerRadius=13.74mil|HoleSize=0mil|Usage=FLASHONLY|Rotation=90.000|XOffset=0mil|YOffset=0mil|HoleType=Round|Shape=RoundedRectangle|*
%AMROUNDEDRECTD60*
21,1,0.08595,0.10768,0,0,90.0*
21,1,0.05847,0.13516,0,0,90.0*
1,1,0.02749,0.05384,0.02923*
1,1,0.02749,0.05384,-0.02923*
1,1,0.02749,-0.05384,-0.02923*
1,1,0.02749,-0.05384,0.02923*
%
%ADD60ROUNDEDRECTD60*%
G04:AMPARAMS|DCode=61|XSize=85.95mil|YSize=44.61mil|CornerRadius=8.58mil|HoleSize=0mil|Usage=FLASHONLY|Rotation=90.000|XOffset=0mil|YOffset=0mil|HoleType=Round|Shape=RoundedRectangle|*
%AMROUNDEDRECTD61*
21,1,0.08595,0.02746,0,0,90.0*
21,1,0.06880,0.04461,0,0,90.0*
1,1,0.01715,0.01373,0.03440*
1,1,0.01715,0.01373,-0.03440*
1,1,0.01715,-0.01373,-0.03440*
1,1,0.01715,-0.01373,0.03440*
%
%ADD61ROUNDEDRECTD61*%
%TA.AperFunction,ConnectorPad*%
%ADD62R,0.03600X0.05700*%
%TA.AperFunction,SMDPad,CuDef*%
G04:AMPARAMS|DCode=63|XSize=25.72mil|YSize=53.28mil|CornerRadius=5.95mil|HoleSize=0mil|Usage=FLASHONLY|Rotation=270.000|XOffset=0mil|YOffset=0mil|HoleType=Round|Shape=RoundedRectangle|*
%AMROUNDEDRECTD63*
21,1,0.02572,0.04138,0,0,270.0*
21,1,0.01382,0.05328,0,0,270.0*
1,1,0.01190,-0.02069,-0.00691*
1,1,0.01190,-0.02069,0.00691*
1,1,0.01190,0.02069,0.00691*
1,1,0.01190,0.02069,-0.00691*
%
%ADD63ROUNDEDRECTD63*%
G04:AMPARAMS|DCode=64|XSize=76.11mil|YSize=80.83mil|CornerRadius=6.04mil|HoleSize=0mil|Usage=FLASHONLY|Rotation=180.000|XOffset=0mil|YOffset=0mil|HoleType=Round|Shape=RoundedRectangle|*
%AMROUNDEDRECTD64*
21,1,0.07611,0.06875,0,0,180.0*
21,1,0.06402,0.08083,0,0,180.0*
1,1,0.01209,-0.03201,0.03437*
1,1,0.01209,0.03201,0.03437*
1,1,0.01209,0.03201,-0.03437*
1,1,0.01209,-0.03201,-0.03437*
%
%ADD64ROUNDEDRECTD64*%
%ADD65R,0.03547X0.01302*%
%ADD66R,0.07100X0.06900*%
%TA.AperFunction,ComponentPad*%
%ADD67R,0.06400X0.06400*%
%ADD68C,0.06400*%
%ADD69C,0.07887*%
%ADD70R,0.07887X0.07887*%
%ADD71R,0.07887X0.07887*%
%TA.AperFunction,ViaPad*%
%ADD72C,0.05800*%
%ADD73C,0.02375*%
G36*
X352448Y129887D02*
Y128313D01*
Y126787D01*
Y125213D01*
Y123687D01*
Y121026D01*
X345452D01*
Y123687D01*
Y125213D01*
Y126787D01*
Y128313D01*
Y129887D01*
Y130974D01*
X352448D01*
Y129887D01*
D02*
G37*
%LPC*%
G36*
X351287D02*
X349713D01*
Y128313D01*
X351287D01*
Y129887D01*
D02*
G37*
G36*
X348187D02*
X346613D01*
Y128313D01*
X348187D01*
Y129887D01*
D02*
G37*
G36*
X351287Y126787D02*
X349713D01*
Y125213D01*
X351287D01*
Y126787D01*
D02*
G37*
G36*
X348187D02*
X346613D01*
Y125213D01*
X348187D01*
Y126787D01*
D02*
G37*
G36*
X351287Y123687D02*
X349713D01*
Y122113D01*
X351287D01*
Y123687D01*
D02*
G37*
G36*
X348187D02*
X346613D01*
Y122113D01*
X348187D01*
Y123687D01*
D02*
G37*
%LPD*%
D31*
X375965Y257929D02*
D03*
Y274465D02*
D03*
Y291000D02*
D03*
X392500Y257929D02*
D03*
Y274465D02*
D03*
Y291000D02*
D03*
X392996Y369803D02*
D03*
Y353268D02*
D03*
Y336732D02*
D03*
X376461Y369803D02*
D03*
Y353268D02*
D03*
Y336732D02*
D03*
D32*
X393158Y122500D02*
D03*
X403000D02*
D03*
X412843D02*
D03*
Y109508D02*
D03*
X403000D02*
D03*
X393158D02*
D03*
X302000Y442000D02*
D03*
Y432000D02*
D03*
Y422000D02*
D03*
Y412000D02*
D03*
X292000D02*
D03*
Y422000D02*
D03*
Y432000D02*
D03*
Y442000D02*
D03*
D37*
X311000Y374500D02*
D03*
D38*
Y364500D02*
D03*
Y354500D02*
D03*
Y344500D02*
D03*
Y334500D02*
D03*
Y324500D02*
D03*
Y314500D02*
D03*
Y304500D02*
D03*
Y294500D02*
D03*
Y284500D02*
D03*
Y274500D02*
D03*
Y264500D02*
D03*
Y254500D02*
D03*
Y244500D02*
D03*
X341000D02*
D03*
Y254500D02*
D03*
Y264500D02*
D03*
Y274500D02*
D03*
Y284500D02*
D03*
Y294500D02*
D03*
Y304500D02*
D03*
Y314500D02*
D03*
Y324500D02*
D03*
Y334500D02*
D03*
Y344500D02*
D03*
Y354500D02*
D03*
Y364500D02*
D03*
Y374500D02*
D03*
D42*
X337500Y190284D02*
D03*
D54*
X462000Y292500D02*
D03*
X416950D02*
D03*
D55*
X296000Y350550D02*
D03*
Y343450D02*
D03*
X286500Y345450D02*
D03*
Y352550D02*
D03*
X351500Y294950D02*
D03*
Y302050D02*
D03*
X279500Y371050D02*
D03*
Y363950D02*
D03*
X348500Y201050D02*
D03*
Y193950D02*
D03*
X361500Y317050D02*
D03*
Y309950D02*
D03*
X307000Y149900D02*
D03*
Y157000D02*
D03*
X301000Y226550D02*
D03*
Y219450D02*
D03*
X258000Y146950D02*
D03*
Y154050D02*
D03*
X440000Y333550D02*
D03*
Y326450D02*
D03*
D56*
X380500Y187875D02*
D03*
X385500D02*
D03*
X390500D02*
D03*
X395500D02*
D03*
Y210125D02*
D03*
X390500D02*
D03*
X385500D02*
D03*
X380500D02*
D03*
D57*
X277752Y310000D02*
D03*
X284248D02*
D03*
X288748Y257500D02*
D03*
X282252D02*
D03*
D58*
X413050Y132500D02*
D03*
X405950D02*
D03*
X410550Y144000D02*
D03*
X403450D02*
D03*
X395950Y155500D02*
D03*
X403050D02*
D03*
X263550Y216000D02*
D03*
X256450D02*
D03*
X302550Y190500D02*
D03*
X295450D02*
D03*
X302550Y207500D02*
D03*
X295450D02*
D03*
X286550Y299500D02*
D03*
X279450D02*
D03*
X281450Y247500D02*
D03*
X288550D02*
D03*
X278950Y276000D02*
D03*
X286050D02*
D03*
X278450Y324500D02*
D03*
X285550D02*
D03*
X280450Y398000D02*
D03*
X287550D02*
D03*
X272450Y231000D02*
D03*
X279550D02*
D03*
X255950Y186000D02*
D03*
X263050D02*
D03*
Y195500D02*
D03*
X255950D02*
D03*
X263050Y206000D02*
D03*
X255950D02*
D03*
X313950Y126000D02*
D03*
X321050D02*
D03*
X307950Y114000D02*
D03*
X315050D02*
D03*
X439950Y147000D02*
D03*
X447050D02*
D03*
X435450Y223500D02*
D03*
X442550D02*
D03*
X274900Y122500D02*
D03*
X282000D02*
D03*
X435450Y194500D02*
D03*
X442550D02*
D03*
X439950Y158500D02*
D03*
X447050D02*
D03*
X394450Y172000D02*
D03*
X401550D02*
D03*
X347900Y111500D02*
D03*
X355000D02*
D03*
X442450Y183000D02*
D03*
X449550D02*
D03*
X439950Y170000D02*
D03*
X447050D02*
D03*
X374050Y113000D02*
D03*
X366950D02*
D03*
X434550Y235000D02*
D03*
X427450D02*
D03*
D59*
X357350Y155500D02*
D03*
X378650D02*
D03*
D60*
X327000Y165870D02*
D03*
X279500Y162870D02*
D03*
D61*
X336055Y142130D02*
D03*
X327000D02*
D03*
X317945D02*
D03*
X270445Y139130D02*
D03*
X279500D02*
D03*
X288555D02*
D03*
D62*
X442450Y207000D02*
D03*
X449550D02*
D03*
D63*
X410134Y190339D02*
D03*
Y187779D02*
D03*
Y185221D02*
D03*
Y182661D02*
D03*
X426866Y190339D02*
D03*
Y187779D02*
D03*
Y185221D02*
D03*
Y182661D02*
D03*
D64*
X418500Y186500D02*
D03*
D65*
X354757Y122063D02*
D03*
Y124031D02*
D03*
Y126000D02*
D03*
Y127969D02*
D03*
Y129937D02*
D03*
X343143D02*
D03*
Y127969D02*
D03*
Y126000D02*
D03*
Y124031D02*
D03*
Y122063D02*
D03*
D66*
X403050Y219500D02*
D03*
X419950D02*
D03*
D67*
X440000Y377091D02*
D03*
D68*
Y351500D02*
D03*
D69*
X262000Y413100D02*
D03*
X261500Y244700D02*
D03*
Y371000D02*
D03*
Y328900D02*
D03*
Y286800D02*
D03*
X362000Y186221D02*
D03*
Y200000D02*
D03*
X454000Y121000D02*
D03*
D70*
X262000Y426880D02*
D03*
X261500Y258479D02*
D03*
Y384780D02*
D03*
Y342680D02*
D03*
Y300580D02*
D03*
X362000Y213779D02*
D03*
D71*
X440220Y121000D02*
D03*
D72*
X297000Y356000D02*
D03*
X308000Y126000D02*
D03*
X310000Y133000D02*
D03*
X302500Y140500D02*
D03*
X430000Y196500D02*
D03*
X346000Y155500D02*
D03*
X420500Y176500D02*
D03*
X420000Y210000D02*
D03*
X351000Y314500D02*
D03*
X301000Y214500D02*
D03*
X258000Y140000D02*
D03*
X265000Y131000D02*
D03*
X267500Y122500D02*
D03*
X302500Y114000D02*
D03*
X342500Y109500D02*
D03*
X288500Y190500D02*
D03*
X270000Y216000D02*
D03*
X289000Y207500D02*
D03*
X463000Y216500D02*
D03*
X292500Y274500D02*
D03*
X256500Y226000D02*
D03*
X320500Y284500D02*
D03*
X298500Y170000D02*
D03*
X263500Y448000D02*
D03*
X373000Y129000D02*
D03*
X272000Y182000D02*
D03*
X285500Y315500D02*
D03*
X351000Y343000D02*
D03*
X421000Y133000D02*
D03*
D73*
X420469Y184531D02*
D03*
X416532D02*
D03*
X420469Y188469D02*
D03*
X416532D02*
D03*
%TF.MD5,e0c4c91fba21c62976d90adb2ac6901a*%
M02*
