%TF.GenerationSoftware,Altium Limited,Altium Designer,24.10.1 (45)*%
G04 Layer_Color=16711935*
%FSLAX25Y25*%
%MOIN*%
%TF.SameCoordinates,F49E7BB8-28A7-4C0D-84C7-1FE184DCB0B3*%
%TF.FilePolarity,Positive*%
%TF.FileFunction,Other,Mechanical_13*%
%TF.Part,Single*%
G01*
G75*
%TA.AperFunction,NonConductor*%
%ADD45C,0.02000*%
%ADD46C,0.00787*%
%ADD49C,0.00500*%
%ADD52C,0.00300*%
%ADD74C,0.00394*%
%ADD75C,0.00000*%
%ADD76C,0.00100*%
G36*
X406050Y119054D02*
Y112954D01*
X403000D01*
Y119054D01*
X406050D01*
D02*
G37*
D45*
X401500Y291000D02*
G03*
X401500Y291000I-1500J0D01*
G01*
X311000Y442000D02*
G03*
X311000Y442000I-1500J0D01*
G01*
X401996Y369803D02*
G03*
X401996Y369803I-1500J0D01*
G01*
D46*
X288342Y310000D02*
G03*
X288342Y310000I-394J0D01*
G01*
X292843Y257500D02*
G03*
X292843Y257500I-394J0D01*
G01*
X262394Y436722D02*
G03*
X262394Y436722I-394J0D01*
G01*
X261894Y268322D02*
G03*
X261894Y268322I-394J0D01*
G01*
Y394622D02*
G03*
X261894Y394622I-394J0D01*
G01*
Y352522D02*
G03*
X261894Y352522I-394J0D01*
G01*
Y310422D02*
G03*
X261894Y310422I-394J0D01*
G01*
X362394Y222835D02*
G03*
X362394Y222835I-394J0D01*
G01*
X318339Y134295D02*
G03*
X318339Y134295I-394J0D01*
G01*
X430772Y121000D02*
G03*
X430772Y121000I-394J0D01*
G01*
X270839Y131295D02*
G03*
X270839Y131295I-394J0D01*
G01*
D49*
X277850Y308425D02*
Y311575D01*
X284150D01*
Y308425D02*
Y311575D01*
X277850Y308425D02*
X284150D01*
X282350Y255925D02*
X288650D01*
Y259075D01*
X282350D02*
X288650D01*
X282350Y255925D02*
Y259075D01*
X246252Y406210D02*
X274008D01*
X246252D02*
Y433769D01*
X274008D01*
Y406210D02*
Y433769D01*
X245752Y237810D02*
X273508D01*
X245752D02*
Y265369D01*
X273508D01*
Y237810D02*
Y265369D01*
X245752Y364110D02*
X273508D01*
X245752D02*
Y391669D01*
X273508D01*
Y364110D02*
Y391669D01*
X245752Y322010D02*
X273508D01*
X245752D02*
Y349569D01*
X273508D01*
Y322010D02*
Y349569D01*
X245752Y279910D02*
X273508D01*
X245752D02*
Y307469D01*
X273508D01*
Y279910D02*
Y307469D01*
X356488Y179724D02*
Y220276D01*
Y179724D02*
X367512D01*
Y220276D01*
X356488D02*
X367512D01*
X314205Y160890D02*
X339795D01*
Y147110D02*
Y160890D01*
X314205Y147110D02*
X339795D01*
X314205D02*
Y160890D01*
X460890Y105252D02*
Y133008D01*
X433331Y105252D02*
X460890D01*
X433331D02*
Y133008D01*
X460890D01*
X266705Y144110D02*
Y157890D01*
Y144110D02*
X292295D01*
Y157890D01*
X266705D02*
X292295D01*
D52*
X379285Y191400D02*
X382617Y194732D01*
Y191400D02*
X379285Y194732D01*
X380951Y191400D02*
Y194732D01*
X382617Y193066D02*
X379285D01*
X391492Y109154D02*
X394824Y112486D01*
Y109154D02*
X391492Y112486D01*
X393158Y109154D02*
Y112486D01*
X394824Y110820D02*
X391492D01*
X311000Y376165D02*
X314332Y372833D01*
X311000D02*
X314332Y376165D01*
X311000Y374499D02*
X314332D01*
X312666Y372833D02*
Y376165D01*
X402200Y221165D02*
X405532Y217833D01*
X402200D02*
X405532Y221165D01*
X402200Y219499D02*
X405532D01*
X403866Y217833D02*
Y221165D01*
X334159Y188335D02*
X330827Y191667D01*
X334159D02*
X330827Y188335D01*
X334159Y190001D02*
X330827D01*
X332493Y191667D02*
Y188335D01*
D74*
X423969Y183000D02*
G03*
X423969Y183000I-1969J0D01*
G01*
X412398Y192602D02*
X424602D01*
X412398Y180398D02*
X424602D01*
X412398D02*
Y192602D01*
X424602Y180398D02*
Y192602D01*
D75*
X378150Y197800D02*
G03*
X378150Y200200I0J1200D01*
G01*
X463600Y364295D02*
G03*
X463600Y364295I-23600J0D01*
G01*
X324800Y379500D02*
G03*
X327200Y379500I1200J0D01*
G01*
X353384Y122063D02*
G03*
X353384Y122063I-300J0D01*
G01*
X350150Y119898D02*
G03*
X347750Y119898I-1200J0D01*
G01*
X325905Y187342D02*
G03*
X323505Y187342I-1200J0D01*
G01*
D76*
X414275Y317700D02*
X464675D01*
X414275Y267300D02*
Y317700D01*
Y267300D02*
X464675D01*
Y317700D01*
X293350Y348950D02*
X298650D01*
Y351350D01*
X293350D02*
X298650D01*
X293350Y348950D02*
Y351350D01*
Y345050D02*
X298650D01*
X293350Y342650D02*
Y345050D01*
Y342650D02*
X298650D01*
Y345050D01*
X293350Y342650D02*
Y351350D01*
Y342650D02*
X298650D01*
Y351350D01*
X293350D02*
X298650D01*
X283850Y353350D02*
X289150D01*
Y344650D02*
Y353350D01*
X283850Y344650D02*
X289150D01*
X283850D02*
Y353350D01*
X289150Y344650D02*
Y347050D01*
X283850Y344650D02*
X289150D01*
X283850D02*
Y347050D01*
X289150D01*
X283850Y350950D02*
Y353350D01*
X289150D01*
Y350950D02*
Y353350D01*
X283850Y350950D02*
X289150D01*
X359626Y247315D02*
X403126D01*
X359626D02*
Y301615D01*
X403126D01*
Y247315D02*
Y301615D01*
X379500Y191150D02*
X381500D01*
X379500Y186800D02*
Y191150D01*
Y186800D02*
X381500D01*
Y191150D01*
X384500D02*
X386500D01*
X384500Y186800D02*
Y191150D01*
Y186800D02*
X386500D01*
Y191150D01*
X389500D02*
X391500D01*
X389500Y186800D02*
Y191150D01*
Y186800D02*
X391500D01*
Y191150D01*
X394500D02*
X396500D01*
X394500Y186800D02*
Y191150D01*
Y186800D02*
X396500D01*
Y191150D01*
X394500Y206850D02*
X396500D01*
Y211200D01*
X394500D02*
X396500D01*
X394500Y206850D02*
Y211200D01*
X389500Y206850D02*
X391500D01*
Y211200D01*
X389500D02*
X391500D01*
X389500Y206850D02*
Y211200D01*
X384500Y206850D02*
X386500D01*
Y211200D01*
X384500D02*
X386500D01*
X384500Y206850D02*
Y211200D01*
X379500Y206850D02*
X381500D01*
Y211200D01*
X379500D02*
X381500D01*
X379500Y206850D02*
Y211200D01*
X397850Y191150D02*
Y206850D01*
X378150D02*
X397850D01*
X378150Y191150D02*
Y206850D01*
Y191150D02*
X397850D01*
X385300Y108904D02*
X420700D01*
X385300D02*
Y123104D01*
X420700D01*
Y108904D02*
Y123104D01*
X406050Y112954D02*
Y119054D01*
X399950D02*
X406050D01*
X399950Y112954D02*
Y119054D01*
Y112954D02*
X406050D01*
X348850Y302850D02*
X354150D01*
Y294150D02*
Y302850D01*
X348850Y294150D02*
X354150D01*
X348850D02*
Y302850D01*
X354150Y294150D02*
Y296550D01*
X348850Y294150D02*
X354150D01*
X348850D02*
Y296550D01*
X354150D01*
X348850Y300450D02*
Y302850D01*
X354150D01*
Y300450D02*
Y302850D01*
X348850Y300450D02*
X354150D01*
X287079Y407000D02*
Y447000D01*
Y407000D02*
X307000D01*
Y447000D01*
X287079D02*
X307000D01*
X440000Y388895D02*
Y393895D01*
X437500Y391395D02*
X442500D01*
X411450Y129850D02*
Y135150D01*
Y129850D02*
X413850D01*
Y135150D01*
X411450D02*
X413850D01*
X407550Y129850D02*
Y135150D01*
X405150D02*
X407550D01*
X405150Y129850D02*
Y135150D01*
Y129850D02*
X407550D01*
X405150Y135150D02*
X413850D01*
X405150Y129850D02*
Y135150D01*
Y129850D02*
X413850D01*
Y135150D01*
X408950Y141350D02*
Y146650D01*
Y141350D02*
X411350D01*
Y146650D01*
X408950D02*
X411350D01*
X405050Y141350D02*
Y146650D01*
X402650D02*
X405050D01*
X402650Y141350D02*
Y146650D01*
Y141350D02*
X405050D01*
X402650Y146650D02*
X411350D01*
X402650Y141350D02*
Y146650D01*
Y141350D02*
X411350D01*
Y146650D01*
X397550Y152850D02*
Y158150D01*
X395150D02*
X397550D01*
X395150Y152850D02*
Y158150D01*
Y152850D02*
X397550D01*
X401450D02*
Y158150D01*
Y152850D02*
X403850D01*
Y158150D01*
X401450D02*
X403850D01*
X395150Y152850D02*
X403850D01*
Y158150D01*
X395150D02*
X403850D01*
X395150Y152850D02*
Y158150D01*
X381400Y142100D02*
Y168900D01*
X354600Y142100D02*
X381400D01*
X354600D02*
Y168900D01*
X381400D01*
X374700D02*
X381400Y162200D01*
X374700Y142100D02*
X381400Y148800D01*
X388950Y154000D02*
Y157000D01*
X387450Y155500D02*
X390450D01*
X261950Y213350D02*
Y218650D01*
Y213350D02*
X264350D01*
Y218650D01*
X261950D02*
X264350D01*
X258050Y213350D02*
Y218650D01*
X255650D02*
X258050D01*
X255650Y213350D02*
Y218650D01*
Y213350D02*
X258050D01*
X255650Y218650D02*
X264350D01*
X255650Y213350D02*
Y218650D01*
Y213350D02*
X264350D01*
Y218650D01*
X300950Y187850D02*
Y193150D01*
Y187850D02*
X303350D01*
Y193150D01*
X300950D02*
X303350D01*
X297050Y187850D02*
Y193150D01*
X294650D02*
X297050D01*
X294650Y187850D02*
Y193150D01*
Y187850D02*
X297050D01*
X294650Y193150D02*
X303350D01*
X294650Y187850D02*
Y193150D01*
Y187850D02*
X303350D01*
Y193150D01*
X300950Y204850D02*
Y210150D01*
Y204850D02*
X303350D01*
Y210150D01*
X300950D02*
X303350D01*
X297050Y204850D02*
Y210150D01*
X294650D02*
X297050D01*
X294650Y204850D02*
Y210150D01*
Y204850D02*
X297050D01*
X294650Y210150D02*
X303350D01*
X294650Y204850D02*
Y210150D01*
Y204850D02*
X303350D01*
Y210150D01*
X284950Y296850D02*
Y302150D01*
Y296850D02*
X287350D01*
Y302150D01*
X284950D02*
X287350D01*
X281050Y296850D02*
Y302150D01*
X278650D02*
X281050D01*
X278650Y296850D02*
Y302150D01*
Y296850D02*
X281050D01*
X278650Y302150D02*
X287350D01*
X278650Y296850D02*
Y302150D01*
Y296850D02*
X287350D01*
Y302150D01*
X283050Y244850D02*
Y250150D01*
X280650D02*
X283050D01*
X280650Y244850D02*
Y250150D01*
Y244850D02*
X283050D01*
X286950D02*
Y250150D01*
Y244850D02*
X289350D01*
Y250150D01*
X286950D02*
X289350D01*
X280650Y244850D02*
X289350D01*
Y250150D01*
X280650D02*
X289350D01*
X280650Y244850D02*
Y250150D01*
X280550Y273350D02*
Y278650D01*
X278150D02*
X280550D01*
X278150Y273350D02*
Y278650D01*
Y273350D02*
X280550D01*
X284450D02*
Y278650D01*
Y273350D02*
X286850D01*
Y278650D01*
X284450D02*
X286850D01*
X278150Y273350D02*
X286850D01*
Y278650D01*
X278150D02*
X286850D01*
X278150Y273350D02*
Y278650D01*
X280050Y321850D02*
Y327150D01*
X277650D02*
X280050D01*
X277650Y321850D02*
Y327150D01*
Y321850D02*
X280050D01*
X283950D02*
Y327150D01*
Y321850D02*
X286350D01*
Y327150D01*
X283950D02*
X286350D01*
X277650Y321850D02*
X286350D01*
Y327150D01*
X277650D02*
X286350D01*
X277650Y321850D02*
Y327150D01*
X282050Y395350D02*
Y400650D01*
X279650D02*
X282050D01*
X279650Y395350D02*
Y400650D01*
Y395350D02*
X282050D01*
X285950D02*
Y400650D01*
Y395350D02*
X288350D01*
Y400650D01*
X285950D02*
X288350D01*
X279650Y395350D02*
X288350D01*
Y400650D01*
X279650D02*
X288350D01*
X279650Y395350D02*
Y400650D01*
X274050Y228350D02*
Y233650D01*
X271650D02*
X274050D01*
X271650Y228350D02*
Y233650D01*
Y228350D02*
X274050D01*
X277950D02*
Y233650D01*
Y228350D02*
X280350D01*
Y233650D01*
X277950D02*
X280350D01*
X271650Y228350D02*
X280350D01*
Y233650D01*
X271650D02*
X280350D01*
X271650Y228350D02*
Y233650D01*
X276850Y369450D02*
X282150D01*
Y371850D01*
X276850D02*
X282150D01*
X276850Y369450D02*
Y371850D01*
Y365550D02*
X282150D01*
X276850Y363150D02*
Y365550D01*
Y363150D02*
X282150D01*
Y365550D01*
X276850Y363150D02*
Y371850D01*
Y363150D02*
X282150D01*
Y371850D01*
X276850D02*
X282150D01*
X257550Y183350D02*
Y188650D01*
X255150D02*
X257550D01*
X255150Y183350D02*
Y188650D01*
Y183350D02*
X257550D01*
X261450D02*
Y188650D01*
Y183350D02*
X263850D01*
Y188650D01*
X261450D02*
X263850D01*
X255150Y183350D02*
X263850D01*
Y188650D01*
X255150D02*
X263850D01*
X255150Y183350D02*
Y188650D01*
X261450Y192850D02*
Y198150D01*
Y192850D02*
X263850D01*
Y198150D01*
X261450D02*
X263850D01*
X257550Y192850D02*
Y198150D01*
X255150D02*
X257550D01*
X255150Y192850D02*
Y198150D01*
Y192850D02*
X257550D01*
X255150Y198150D02*
X263850D01*
X255150Y192850D02*
Y198150D01*
Y192850D02*
X263850D01*
Y198150D01*
X261450Y203350D02*
Y208650D01*
Y203350D02*
X263850D01*
Y208650D01*
X261450D02*
X263850D01*
X257550Y203350D02*
Y208650D01*
X255150D02*
X257550D01*
X255150Y203350D02*
Y208650D01*
Y203350D02*
X257550D01*
X255150Y208650D02*
X263850D01*
X255150Y203350D02*
Y208650D01*
Y203350D02*
X263850D01*
Y208650D01*
X311250Y372900D02*
Y376100D01*
X309400D02*
X311250D01*
X309400Y372900D02*
Y376100D01*
Y372900D02*
X311250D01*
Y362900D02*
Y366100D01*
X309400D02*
X311250D01*
X309400Y362900D02*
Y366100D01*
Y362900D02*
X311250D01*
Y352900D02*
Y356100D01*
X309400D02*
X311250D01*
X309400Y352900D02*
Y356100D01*
Y352900D02*
X311250D01*
Y342900D02*
Y346100D01*
X309400D02*
X311250D01*
X309400Y342900D02*
Y346100D01*
Y342900D02*
X311250D01*
Y332900D02*
Y336100D01*
X309400D02*
X311250D01*
X309400Y332900D02*
Y336100D01*
Y332900D02*
X311250D01*
Y322900D02*
Y326100D01*
X309400D02*
X311250D01*
X309400Y322900D02*
Y326100D01*
Y322900D02*
X311250D01*
Y312900D02*
Y316100D01*
X309400D02*
X311250D01*
X309400Y312900D02*
Y316100D01*
Y312900D02*
X311250D01*
Y302900D02*
Y306100D01*
X309400D02*
X311250D01*
X309400Y302900D02*
Y306100D01*
Y302900D02*
X311250D01*
Y292900D02*
Y296100D01*
X309400D02*
X311250D01*
X309400Y292900D02*
Y296100D01*
Y292900D02*
X311250D01*
Y282900D02*
Y286100D01*
X309400D02*
X311250D01*
X309400Y282900D02*
Y286100D01*
Y282900D02*
X311250D01*
Y272900D02*
Y276100D01*
X309400D02*
X311250D01*
X309400Y272900D02*
Y276100D01*
Y272900D02*
X311250D01*
Y262900D02*
Y266100D01*
X309400D02*
X311250D01*
X309400Y262900D02*
Y266100D01*
Y262900D02*
X311250D01*
Y252900D02*
Y256100D01*
X309400D02*
X311250D01*
X309400Y252900D02*
Y256100D01*
Y252900D02*
X311250D01*
Y242900D02*
Y246100D01*
X309400D02*
X311250D01*
X309400Y242900D02*
Y246100D01*
Y242900D02*
X311250D01*
X340750D02*
Y246100D01*
Y242900D02*
X342600D01*
Y246100D01*
X340750D02*
X342600D01*
X340750Y252900D02*
Y256100D01*
Y252900D02*
X342600D01*
Y256100D01*
X340750D02*
X342600D01*
X340750Y262900D02*
Y266100D01*
Y262900D02*
X342600D01*
Y266100D01*
X340750D02*
X342600D01*
X340750Y272900D02*
Y276100D01*
Y272900D02*
X342600D01*
Y276100D01*
X340750D02*
X342600D01*
X340750Y282900D02*
Y286100D01*
Y282900D02*
X342600D01*
Y286100D01*
X340750D02*
X342600D01*
X340750Y292900D02*
Y296100D01*
Y292900D02*
X342600D01*
Y296100D01*
X340750D02*
X342600D01*
X340750Y302900D02*
Y306100D01*
Y302900D02*
X342600D01*
Y306100D01*
X340750D02*
X342600D01*
X340750Y312900D02*
Y316100D01*
Y312900D02*
X342600D01*
Y316100D01*
X340750D02*
X342600D01*
X340750Y322900D02*
Y326100D01*
Y322900D02*
X342600D01*
Y326100D01*
X340750D02*
X342600D01*
X340750Y332900D02*
Y336100D01*
Y332900D02*
X342600D01*
Y336100D01*
X340750D02*
X342600D01*
X340750Y342900D02*
Y346100D01*
Y342900D02*
X342600D01*
Y346100D01*
X340750D02*
X342600D01*
X340750Y352900D02*
Y356100D01*
Y352900D02*
X342600D01*
Y356100D01*
X340750D02*
X342600D01*
X340750Y362900D02*
Y366100D01*
Y362900D02*
X342600D01*
Y366100D01*
X340750D02*
X342600D01*
X340750Y372900D02*
Y376100D01*
Y372900D02*
X342600D01*
Y376100D01*
X340750D02*
X342600D01*
X311250Y239500D02*
X340750D01*
Y379500D01*
X311250D02*
X340750D01*
X311250Y239500D02*
Y379500D01*
X403622Y326118D02*
Y380418D01*
X360122D02*
X403622D01*
X360122Y326118D02*
Y380418D01*
Y326118D02*
X403622D01*
X345850Y199450D02*
X351150D01*
Y201850D01*
X345850D02*
X351150D01*
X345850Y199450D02*
Y201850D01*
Y195550D02*
X351150D01*
X345850Y193150D02*
Y195550D01*
Y193150D02*
X351150D01*
Y195550D01*
X345850Y193150D02*
Y201850D01*
Y193150D02*
X351150D01*
Y201850D01*
X345850D02*
X351150D01*
X358850Y315450D02*
X364150D01*
Y317850D01*
X358850D02*
X364150D01*
X358850Y315450D02*
Y317850D01*
Y311550D02*
X364150D01*
X358850Y309150D02*
Y311550D01*
Y309150D02*
X364150D01*
Y311550D01*
X358850Y309150D02*
Y317850D01*
Y309150D02*
X364150D01*
Y317850D01*
X358850D02*
X364150D01*
X304350Y151500D02*
X309650D01*
X304350Y149100D02*
Y151500D01*
Y149100D02*
X309650D01*
Y151500D01*
X304350Y155400D02*
X309650D01*
Y157800D01*
X304350D02*
X309650D01*
X304350Y155400D02*
Y157800D01*
X309650Y149100D02*
Y157800D01*
X304350D02*
X309650D01*
X304350Y149100D02*
Y157800D01*
Y149100D02*
X309650D01*
X315550Y123350D02*
Y128650D01*
X313150D02*
X315550D01*
X313150Y123350D02*
Y128650D01*
Y123350D02*
X315550D01*
X319450D02*
Y128650D01*
Y123350D02*
X321850D01*
Y128650D01*
X319450D02*
X321850D01*
X313150Y123350D02*
X321850D01*
Y128650D01*
X313150D02*
X321850D01*
X313150Y123350D02*
Y128650D01*
X309550Y111350D02*
Y116650D01*
X307150D02*
X309550D01*
X307150Y111350D02*
Y116650D01*
Y111350D02*
X309550D01*
X313450D02*
Y116650D01*
Y111350D02*
X315850D01*
Y116650D01*
X313450D02*
X315850D01*
X307150Y111350D02*
X315850D01*
Y116650D01*
X307150D02*
X315850D01*
X307150Y111350D02*
Y116650D01*
X441550Y144350D02*
Y149650D01*
X439150D02*
X441550D01*
X439150Y144350D02*
Y149650D01*
Y144350D02*
X441550D01*
X445450D02*
Y149650D01*
Y144350D02*
X447850D01*
Y149650D01*
X445450D02*
X447850D01*
X439150Y144350D02*
X447850D01*
Y149650D01*
X439150D02*
X447850D01*
X439150Y144350D02*
Y149650D01*
X298350Y224950D02*
X303650D01*
Y227350D01*
X298350D02*
X303650D01*
X298350Y224950D02*
Y227350D01*
Y221050D02*
X303650D01*
X298350Y218650D02*
Y221050D01*
Y218650D02*
X303650D01*
Y221050D01*
X298350Y218650D02*
Y227350D01*
Y218650D02*
X303650D01*
Y227350D01*
X298350D02*
X303650D01*
X437050Y220850D02*
Y226150D01*
X434650D02*
X437050D01*
X434650Y220850D02*
Y226150D01*
Y220850D02*
X437050D01*
X440950D02*
Y226150D01*
Y220850D02*
X443350D01*
Y226150D01*
X440950D02*
X443350D01*
X434650Y220850D02*
X443350D01*
Y226150D01*
X434650D02*
X443350D01*
X434650Y220850D02*
Y226150D01*
X444050Y204350D02*
Y209650D01*
X441650D02*
X444050D01*
X441650Y204350D02*
Y209650D01*
Y204350D02*
X444050D01*
X447950D02*
Y209650D01*
Y204350D02*
X450350D01*
Y209650D01*
X447950D02*
X450350D01*
X441650Y204350D02*
X450350D01*
Y209650D01*
X441650D02*
X450350D01*
X441650Y204350D02*
Y209650D01*
X255350Y148550D02*
X260650D01*
X255350Y146150D02*
Y148550D01*
Y146150D02*
X260650D01*
Y148550D01*
X255350Y152450D02*
X260650D01*
Y154850D01*
X255350D02*
X260650D01*
X255350Y152450D02*
Y154850D01*
X260650Y146150D02*
Y154850D01*
X255350D02*
X260650D01*
X255350Y146150D02*
Y154850D01*
Y146150D02*
X260650D01*
X276500Y119850D02*
Y125150D01*
X274100D02*
X276500D01*
X274100Y119850D02*
Y125150D01*
Y119850D02*
X276500D01*
X280400D02*
Y125150D01*
Y119850D02*
X282800D01*
Y125150D01*
X280400D02*
X282800D01*
X274100Y119850D02*
X282800D01*
Y125150D01*
X274100D02*
X282800D01*
X274100Y119850D02*
Y125150D01*
X437050Y191850D02*
Y197150D01*
X434650D02*
X437050D01*
X434650Y191850D02*
Y197150D01*
Y191850D02*
X437050D01*
X440950D02*
Y197150D01*
Y191850D02*
X443350D01*
Y197150D01*
X440950D02*
X443350D01*
X434650Y191850D02*
X443350D01*
Y197150D01*
X434650D02*
X443350D01*
X434650Y191850D02*
Y197150D01*
X441550Y155850D02*
Y161150D01*
X439150D02*
X441550D01*
X439150Y155850D02*
Y161150D01*
Y155850D02*
X441550D01*
X445450D02*
Y161150D01*
Y155850D02*
X447850D01*
Y161150D01*
X445450D02*
X447850D01*
X439150Y155850D02*
X447850D01*
Y161150D01*
X439150D02*
X447850D01*
X439150Y155850D02*
Y161150D01*
X396050Y169350D02*
Y174650D01*
X393650D02*
X396050D01*
X393650Y169350D02*
Y174650D01*
Y169350D02*
X396050D01*
X399950D02*
Y174650D01*
Y169350D02*
X402350D01*
Y174650D01*
X399950D02*
X402350D01*
X393650Y169350D02*
X402350D01*
Y174650D01*
X393650D02*
X402350D01*
X393650Y169350D02*
Y174650D01*
X349500Y108850D02*
Y114150D01*
X347100D02*
X349500D01*
X347100Y108850D02*
Y114150D01*
Y108850D02*
X349500D01*
X353400D02*
Y114150D01*
Y108850D02*
X355800D01*
Y114150D01*
X353400D02*
X355800D01*
X347100Y108850D02*
X355800D01*
Y114150D01*
X347100D02*
X355800D01*
X347100Y108850D02*
Y114150D01*
X437350Y331950D02*
X442650D01*
Y334350D01*
X437350D02*
X442650D01*
X437350Y331950D02*
Y334350D01*
Y328050D02*
X442650D01*
X437350Y325650D02*
Y328050D01*
Y325650D02*
X442650D01*
Y328050D01*
X437350Y325650D02*
Y334350D01*
Y325650D02*
X442650D01*
Y334350D01*
X437350D02*
X442650D01*
X444050Y180350D02*
Y185650D01*
X441650D02*
X444050D01*
X441650Y180350D02*
Y185650D01*
Y180350D02*
X444050D01*
X447950D02*
Y185650D01*
Y180350D02*
X450350D01*
Y185650D01*
X447950D02*
X450350D01*
X441650Y180350D02*
X450350D01*
Y185650D01*
X441650D02*
X450350D01*
X441650Y180350D02*
Y185650D01*
X441550Y167350D02*
Y172650D01*
X439150D02*
X441550D01*
X439150Y167350D02*
Y172650D01*
Y167350D02*
X441550D01*
X445450D02*
Y172650D01*
Y167350D02*
X447850D01*
Y172650D01*
X445450D02*
X447850D01*
X439150Y167350D02*
X447850D01*
Y172650D01*
X439150D02*
X447850D01*
X439150Y167350D02*
Y172650D01*
X342848Y132102D02*
X355052D01*
X342848Y119898D02*
Y132102D01*
Y119898D02*
X355052D01*
Y132102D01*
X366150Y110350D02*
Y115650D01*
X374850D01*
Y110350D02*
Y115650D01*
X366150Y110350D02*
X374850D01*
X372450Y115650D02*
X374850D01*
Y110350D02*
Y115650D01*
X372450Y110350D02*
X374850D01*
X372450D02*
Y115650D01*
X366150Y110350D02*
X368550D01*
X366150D02*
Y115650D01*
X368550D01*
Y110350D02*
Y115650D01*
X426650Y232350D02*
Y237650D01*
X435350D01*
Y232350D02*
Y237650D01*
X426650Y232350D02*
X435350D01*
X432950Y237650D02*
X435350D01*
Y232350D02*
Y237650D01*
X432950Y232350D02*
X435350D01*
X432950D02*
Y237650D01*
X426650Y232350D02*
X429050D01*
X426650D02*
Y237650D01*
X429050D01*
Y232350D02*
Y237650D01*
X402450Y216250D02*
Y222750D01*
X400500D02*
X402450D01*
X400500Y216250D02*
Y222750D01*
Y216250D02*
X402450D01*
X420550D02*
Y222750D01*
Y216250D02*
X422500D01*
Y222750D01*
X420550D02*
X422500D01*
X402450Y222400D02*
X405350Y225300D01*
X402450Y216600D02*
X405350Y213700D01*
X402450D02*
X420550D01*
Y225300D01*
X402450D02*
X420550D01*
X402450Y213700D02*
Y225300D01*
X336505Y187342D02*
Y210942D01*
X312905Y187342D02*
X336505D01*
X312905D02*
Y210942D01*
X336505D01*
X309959Y188333D02*
X312905D01*
X309959D02*
Y192234D01*
X312905D01*
Y188333D02*
Y192234D01*
X309959Y206050D02*
X312905D01*
X309959D02*
Y209950D01*
X312905D01*
Y206050D02*
Y209950D01*
X336505D02*
X339450D01*
Y206050D02*
Y209950D01*
X336505Y206050D02*
X339450D01*
X336505D02*
Y209950D01*
Y192234D02*
X339450D01*
Y188333D02*
Y192234D01*
X336505Y188333D02*
X339450D01*
X336505D02*
Y192234D01*
%TF.MD5,983b9a8660d2f732b5011f42b4f04de1*%
M02*
