%TF.GenerationSoftware,Altium Limited,Altium Designer,24.10.1 (45)*%
G04 Layer_Color=32768*
%FSLAX25Y25*%
%MOIN*%
%TF.SameCoordinates,F49E7BB8-28A7-4C0D-84C7-1FE184DCB0B3*%
%TF.FilePolarity,Positive*%
%TF.FileFunction,Other,Mechanical_15*%
%TF.Part,Single*%
G01*
G75*
%TA.AperFunction,NonConductor*%
%ADD47C,0.00600*%
%ADD74C,0.00394*%
%ADD76C,0.00100*%
%ADD77C,0.00197*%
G36*
X308000Y406000D02*
X286079D01*
Y448000D01*
X308000D01*
Y406000D01*
D02*
G37*
G36*
X290150Y394350D02*
X277850D01*
Y401650D01*
X290150D01*
Y394350D01*
D02*
G37*
G36*
X283150Y361350D02*
X275850D01*
Y373650D01*
X283150D01*
Y361350D01*
D02*
G37*
G36*
X290150Y342850D02*
X282850D01*
Y355150D01*
X290150D01*
Y342850D01*
D02*
G37*
G36*
X299650Y340850D02*
X292350D01*
Y353150D01*
X299650D01*
Y340850D01*
D02*
G37*
G36*
X464600Y374425D02*
Y354166D01*
X450129Y339695D01*
X429871D01*
X415400Y354166D01*
Y374425D01*
X429871Y388895D01*
X450129D01*
X464600Y374425D01*
D02*
G37*
G36*
X404622Y325118D02*
X359122D01*
Y381418D01*
X404622D01*
Y325118D01*
D02*
G37*
G36*
X443650Y323850D02*
X436350D01*
Y336150D01*
X443650D01*
Y323850D01*
D02*
G37*
G36*
X288150Y320850D02*
X275850D01*
Y328150D01*
X288150D01*
Y320850D01*
D02*
G37*
G36*
X365150Y307350D02*
X357850D01*
Y319650D01*
X365150D01*
Y307350D01*
D02*
G37*
G36*
X289150Y295850D02*
X276850D01*
Y303150D01*
X289150D01*
Y295850D01*
D02*
G37*
G36*
X355150Y292350D02*
X347850D01*
Y304650D01*
X355150D01*
Y292350D01*
D02*
G37*
G36*
X288650Y272350D02*
X276350D01*
Y279650D01*
X288650D01*
Y272350D01*
D02*
G37*
G36*
X465675Y302750D02*
X468025D01*
Y282250D01*
X465675D01*
Y266300D01*
X413275D01*
Y282250D01*
X410925D01*
Y302750D01*
X413275D01*
Y318700D01*
X465675D01*
Y302750D01*
D02*
G37*
G36*
X404126Y246315D02*
X358626D01*
Y302615D01*
X404126D01*
Y246315D01*
D02*
G37*
G36*
X291150Y243850D02*
X278850D01*
Y251150D01*
X291150D01*
Y243850D01*
D02*
G37*
G36*
X341750Y378100D02*
X344600D01*
Y240900D01*
X341750D01*
Y238500D01*
X310250D01*
Y240900D01*
X307400D01*
Y378100D01*
X310250D01*
Y380500D01*
X341750D01*
Y378100D01*
D02*
G37*
G36*
X437150Y231350D02*
X424850D01*
Y238650D01*
X437150D01*
Y231350D01*
D02*
G37*
G36*
X282150Y227350D02*
X269850D01*
Y234650D01*
X282150D01*
Y227350D01*
D02*
G37*
G36*
X445150Y219850D02*
X432850D01*
Y227150D01*
X445150D01*
Y219850D01*
D02*
G37*
G36*
X304650Y216850D02*
X297350D01*
Y229150D01*
X304650D01*
Y216850D01*
D02*
G37*
G36*
X421550Y223750D02*
X424300D01*
Y215250D01*
X421550D01*
Y212700D01*
X401450D01*
Y215250D01*
X398700D01*
Y223750D01*
X401450D01*
Y226300D01*
X421550D01*
Y223750D01*
D02*
G37*
G36*
X266150Y212350D02*
X253850D01*
Y219650D01*
X266150D01*
Y212350D01*
D02*
G37*
G36*
X305150Y203850D02*
X292850D01*
Y211150D01*
X305150D01*
Y203850D01*
D02*
G37*
G36*
X452150Y203350D02*
X439850D01*
Y210650D01*
X452150D01*
Y203350D01*
D02*
G37*
G36*
X265650Y202350D02*
X253350D01*
Y209650D01*
X265650D01*
Y202350D01*
D02*
G37*
G36*
Y191850D02*
X253350D01*
Y199150D01*
X265650D01*
Y191850D01*
D02*
G37*
G36*
X352150Y191350D02*
X344850D01*
Y203650D01*
X352150D01*
Y191350D01*
D02*
G37*
G36*
X445150Y190850D02*
X432850D01*
Y198150D01*
X445150D01*
Y190850D01*
D02*
G37*
G36*
X305150Y186850D02*
X292850D01*
Y194150D01*
X305150D01*
Y186850D01*
D02*
G37*
G36*
X337500Y211900D02*
X341450D01*
Y186300D01*
X337500D01*
X337505Y186342D01*
X311909D01*
Y186300D01*
X307959D01*
Y211900D01*
X311909D01*
Y211942D01*
X337505D01*
X337500Y211900D01*
D02*
G37*
G36*
X398600Y208850D02*
X399850D01*
Y189150D01*
X398600D01*
Y182600D01*
X377400D01*
Y189150D01*
X376150D01*
Y208850D01*
X377400D01*
Y215400D01*
X398600D01*
Y208850D01*
D02*
G37*
G36*
X265650Y182350D02*
X253350D01*
Y189650D01*
X265650D01*
Y182350D01*
D02*
G37*
G36*
X452150Y179350D02*
X439850D01*
Y186650D01*
X452150D01*
Y179350D01*
D02*
G37*
G36*
X404150Y168350D02*
X391850D01*
Y175650D01*
X404150D01*
Y168350D01*
D02*
G37*
G36*
X449650Y166350D02*
X437350D01*
Y173650D01*
X449650D01*
Y166350D01*
D02*
G37*
G36*
Y154850D02*
X437350D01*
Y162150D01*
X449650D01*
Y154850D01*
D02*
G37*
G36*
X405650Y151850D02*
X393350D01*
Y159150D01*
X405650D01*
Y151850D01*
D02*
G37*
G36*
X310650Y147300D02*
X303350D01*
Y159600D01*
X310650D01*
Y147300D01*
D02*
G37*
G36*
X261650Y144350D02*
X254350D01*
Y156650D01*
X261650D01*
Y144350D01*
D02*
G37*
G36*
X449650Y143350D02*
X437350D01*
Y150650D01*
X449650D01*
Y143350D01*
D02*
G37*
G36*
X382400Y158850D02*
X385550D01*
Y152150D01*
X382400D01*
Y141100D01*
X353600D01*
Y152150D01*
X350450D01*
Y158850D01*
X353600D01*
Y169900D01*
X382400D01*
Y158850D01*
D02*
G37*
G36*
X413150Y140350D02*
X400850D01*
Y147650D01*
X413150D01*
Y140350D01*
D02*
G37*
G36*
X415650Y128850D02*
X403350D01*
Y136150D01*
X415650D01*
Y128850D01*
D02*
G37*
G36*
X323650Y122350D02*
X311350D01*
Y129650D01*
X323650D01*
Y122350D01*
D02*
G37*
G36*
X356052Y131488D02*
X357430D01*
Y120512D01*
X356052D01*
Y118898D01*
X341848D01*
Y120512D01*
X340470D01*
Y131488D01*
X341848D01*
Y133102D01*
X356052D01*
Y131488D01*
D02*
G37*
G36*
X284600Y118850D02*
X272300D01*
Y126150D01*
X284600D01*
Y118850D01*
D02*
G37*
G36*
X317650Y110350D02*
X305350D01*
Y117650D01*
X317650D01*
Y110350D01*
D02*
G37*
G36*
X376650Y109350D02*
X364350D01*
Y116650D01*
X376650D01*
Y109350D01*
D02*
G37*
G36*
X357600Y107850D02*
X345300D01*
Y115150D01*
X357600D01*
Y107850D01*
D02*
G37*
G36*
X421700Y105758D02*
X384300D01*
Y126250D01*
X421700D01*
Y105758D01*
D02*
G37*
D47*
X468025Y282250D02*
Y302750D01*
X465675Y282250D02*
X468025D01*
X410925D02*
X413275D01*
X410925D02*
Y302750D01*
X413275D01*
X465675D02*
X468025D01*
X465675D02*
Y318700D01*
Y266300D02*
Y282250D01*
X413275Y266300D02*
X465675D01*
X413275D02*
Y282250D01*
Y302750D02*
Y318700D01*
X465675D01*
X292350Y353150D02*
X299650D01*
Y340850D02*
Y353150D01*
X292350Y340850D02*
X299650D01*
X292350D02*
Y353150D01*
X282850Y342850D02*
Y355150D01*
Y342850D02*
X290150D01*
Y355150D01*
X282850D02*
X290150D01*
X358626Y246315D02*
Y302615D01*
X404126D01*
Y246315D02*
Y302615D01*
X358626Y246315D02*
X404126D01*
X377400Y182600D02*
X398600D01*
X377400D02*
Y189150D01*
X376150D02*
X377400D01*
X376150D02*
Y208850D01*
X377400D01*
Y215400D01*
X398600D01*
Y208850D02*
Y215400D01*
Y208850D02*
X399850D01*
Y189150D02*
Y208850D01*
X398600Y189150D02*
X399850D01*
X398600Y182600D02*
Y189150D01*
X384300Y105758D02*
X421700D01*
X384300D02*
Y126250D01*
X421700D01*
Y105758D02*
Y126250D01*
X347850Y292350D02*
Y304650D01*
Y292350D02*
X355150D01*
Y304650D01*
X347850D02*
X355150D01*
X286079Y448000D02*
X308000D01*
X286079Y406000D02*
Y448000D01*
Y406000D02*
X308000D01*
Y448000D01*
X415650Y128850D02*
Y136150D01*
X403350Y128850D02*
X415650D01*
X403350D02*
Y136150D01*
X415650D01*
X413150Y140350D02*
Y147650D01*
X400850Y140350D02*
X413150D01*
X400850D02*
Y147650D01*
X413150D01*
X393350Y151850D02*
Y159150D01*
X405650D01*
Y151850D02*
Y159150D01*
X393350Y151850D02*
X405650D01*
X353600Y169900D02*
X382400D01*
X353600Y158850D02*
Y169900D01*
Y141100D02*
Y152150D01*
Y141100D02*
X382400D01*
Y152150D01*
Y158850D02*
Y169900D01*
Y158850D02*
X385550D01*
X350450D02*
X353600D01*
X350450Y152150D02*
Y158850D01*
Y152150D02*
X353600D01*
X382400D02*
X385550D01*
Y158850D01*
X266150Y212350D02*
Y219650D01*
X253850Y212350D02*
X266150D01*
X253850D02*
Y219650D01*
X266150D01*
X305150Y186850D02*
Y194150D01*
X292850Y186850D02*
X305150D01*
X292850D02*
Y194150D01*
X305150D01*
Y203850D02*
Y211150D01*
X292850Y203850D02*
X305150D01*
X292850D02*
Y211150D01*
X305150D01*
X289150Y295850D02*
Y303150D01*
X276850Y295850D02*
X289150D01*
X276850D02*
Y303150D01*
X289150D01*
X278850Y243850D02*
Y251150D01*
X291150D01*
Y243850D02*
Y251150D01*
X278850Y243850D02*
X291150D01*
X276350Y272350D02*
Y279650D01*
X288650D01*
Y272350D02*
Y279650D01*
X276350Y272350D02*
X288650D01*
X275850Y320850D02*
Y328150D01*
X288150D01*
Y320850D02*
Y328150D01*
X275850Y320850D02*
X288150D01*
X277850Y394350D02*
Y401650D01*
X290150D01*
Y394350D02*
Y401650D01*
X277850Y394350D02*
X290150D01*
X269850Y227350D02*
Y234650D01*
X282150D01*
Y227350D02*
Y234650D01*
X269850Y227350D02*
X282150D01*
X275850Y373650D02*
X283150D01*
Y361350D02*
Y373650D01*
X275850Y361350D02*
X283150D01*
X275850D02*
Y373650D01*
X253350Y182350D02*
Y189650D01*
X265650D01*
Y182350D02*
Y189650D01*
X253350Y182350D02*
X265650D01*
Y191850D02*
Y199150D01*
X253350Y191850D02*
X265650D01*
X253350D02*
Y199150D01*
X265650D01*
Y202350D02*
Y209650D01*
X253350Y202350D02*
X265650D01*
X253350D02*
Y209650D01*
X265650D01*
X307400Y240900D02*
Y378100D01*
X310250D01*
X341750D02*
X344600D01*
Y240900D02*
Y378100D01*
X341750Y240900D02*
X344600D01*
X307400D02*
X310250D01*
Y238500D02*
Y240900D01*
Y378100D02*
Y380500D01*
X341750D01*
Y378100D02*
Y380500D01*
Y238500D02*
Y240900D01*
X310250Y238500D02*
X341750D01*
X359122Y325118D02*
X404622D01*
Y381418D01*
X359122D02*
X404622D01*
X359122Y325118D02*
Y381418D01*
X344850Y203650D02*
X352150D01*
Y191350D02*
Y203650D01*
X344850Y191350D02*
X352150D01*
X344850D02*
Y203650D01*
X357850Y319650D02*
X365150D01*
Y307350D02*
Y319650D01*
X357850Y307350D02*
X365150D01*
X357850D02*
Y319650D01*
X303350Y147300D02*
X310650D01*
X303350D02*
Y159600D01*
X310650D01*
Y147300D02*
Y159600D01*
X311350Y122350D02*
Y129650D01*
X323650D01*
Y122350D02*
Y129650D01*
X311350Y122350D02*
X323650D01*
X305350Y110350D02*
Y117650D01*
X317650D01*
Y110350D02*
Y117650D01*
X305350Y110350D02*
X317650D01*
X437350Y143350D02*
Y150650D01*
X449650D01*
Y143350D02*
Y150650D01*
X437350Y143350D02*
X449650D01*
X297350Y229150D02*
X304650D01*
Y216850D02*
Y229150D01*
X297350Y216850D02*
X304650D01*
X297350D02*
Y229150D01*
X432850Y219850D02*
Y227150D01*
X445150D01*
Y219850D02*
Y227150D01*
X432850Y219850D02*
X445150D01*
X439850Y203350D02*
Y210650D01*
X452150D01*
Y203350D02*
Y210650D01*
X439850Y203350D02*
X452150D01*
X254350Y144350D02*
X261650D01*
X254350D02*
Y156650D01*
X261650D01*
Y144350D02*
Y156650D01*
X272300Y118850D02*
Y126150D01*
X284600D01*
Y118850D02*
Y126150D01*
X272300Y118850D02*
X284600D01*
X432850Y190850D02*
Y198150D01*
X445150D01*
Y190850D02*
Y198150D01*
X432850Y190850D02*
X445150D01*
X437350Y154850D02*
Y162150D01*
X449650D01*
Y154850D02*
Y162150D01*
X437350Y154850D02*
X449650D01*
X391850Y168350D02*
Y175650D01*
X404150D01*
Y168350D02*
Y175650D01*
X391850Y168350D02*
X404150D01*
X345300Y107850D02*
Y115150D01*
X357600D01*
Y107850D02*
Y115150D01*
X345300Y107850D02*
X357600D01*
X436350Y336150D02*
X443650D01*
Y323850D02*
Y336150D01*
X436350Y323850D02*
X443650D01*
X436350D02*
Y336150D01*
X439850Y179350D02*
Y186650D01*
X452150D01*
Y179350D02*
Y186650D01*
X439850Y179350D02*
X452150D01*
X437350Y166350D02*
Y173650D01*
X449650D01*
Y166350D02*
Y173650D01*
X437350Y166350D02*
X449650D01*
X357430Y120512D02*
Y131488D01*
X356052Y120512D02*
X357430D01*
X340470D02*
X341848D01*
X340470D02*
Y131488D01*
X341848D01*
X356052D02*
X357430D01*
X356052D02*
Y133102D01*
Y118898D02*
Y120512D01*
X341848Y118898D02*
X356052D01*
X341848D02*
Y120512D01*
Y131488D02*
Y133102D01*
X356052D01*
X364350Y109350D02*
X376650D01*
Y116650D01*
X364350D02*
X376650D01*
X364350Y109350D02*
Y116650D01*
X424850Y231350D02*
X437150D01*
Y238650D01*
X424850D02*
X437150D01*
X424850Y231350D02*
Y238650D01*
X398700Y215250D02*
Y223750D01*
X401450D01*
X421550D02*
X424300D01*
Y215250D02*
Y223750D01*
X421550Y215250D02*
X424300D01*
X398700D02*
X401450D01*
Y212700D02*
Y215250D01*
Y223750D02*
Y226300D01*
X421550D01*
Y223750D02*
Y226300D01*
Y212700D02*
Y215250D01*
X401450Y212700D02*
X421550D01*
X307959Y186300D02*
Y211900D01*
Y186300D02*
X341450D01*
X307959Y211900D02*
X341450D01*
Y186300D02*
Y211900D01*
D74*
X418500Y184531D02*
Y188469D01*
X416532Y186500D02*
X420469D01*
D76*
X464600Y354166D02*
Y374425D01*
X450129Y339695D02*
X464600Y354166D01*
X429871Y339695D02*
X450129D01*
X415400Y354166D02*
X429871Y339695D01*
X415400Y354166D02*
Y374425D01*
X429871Y388895D01*
X450129D01*
X464600Y374425D01*
D77*
X275193Y307441D02*
Y312559D01*
X286807D01*
Y307441D02*
Y312559D01*
X275193Y307441D02*
X286807D01*
X279693Y254941D02*
X291307D01*
Y260059D01*
X279693D02*
X291307D01*
X279693Y254941D02*
Y260059D01*
X274992Y402982D02*
Y435265D01*
X243299Y402982D02*
X274992D01*
X243299D02*
Y435265D01*
X274992D01*
X274492Y234582D02*
Y266865D01*
X242799Y234582D02*
X274492D01*
X242799D02*
Y266865D01*
X274492D01*
Y360882D02*
Y393165D01*
X242799Y360882D02*
X274492D01*
X242799D02*
Y393165D01*
X274492D01*
Y318782D02*
Y351065D01*
X242799Y318782D02*
X274492D01*
X242799D02*
Y351065D01*
X274492D01*
Y276682D02*
Y308965D01*
X242799Y276682D02*
X274492D01*
X242799D02*
Y308965D01*
X274492D01*
X355504Y178740D02*
Y221260D01*
Y178740D02*
X368496D01*
Y221260D01*
X355504D02*
X368496D01*
X313221Y137248D02*
Y170752D01*
X340779D01*
Y137248D02*
Y170752D01*
X313221Y137248D02*
X340779D01*
X407476Y192996D02*
X429524D01*
X407476Y180004D02*
X429524D01*
X407476D02*
Y192996D01*
X429524Y180004D02*
Y192996D01*
X431835Y133992D02*
X464118D01*
Y102299D02*
Y133992D01*
X431835Y102299D02*
X464118D01*
X431835D02*
Y133992D01*
X265721Y134248D02*
X293280D01*
Y167752D01*
X265721D02*
X293280D01*
X265721Y134248D02*
Y167752D01*
%TF.MD5,12e4c10c9f35e9f598c6bcd8fa3cd655*%
M02*
