%TF.GenerationSoftware,Altium Limited,Altium Designer,24.10.1 (45)*%
G04 Layer_Physical_Order=2*
G04 Layer_Color=16711680*
%FSLAX25Y25*%
%MOIN*%
%TF.SameCoordinates,F49E7BB8-28A7-4C0D-84C7-1FE184DCB0B3*%
%TF.FilePolarity,Positive*%
%TF.FileFunction,Copper,L2,Bot,Signal*%
%TF.Part,Single*%
G01*
G75*
%TA.AperFunction,Conductor*%
%ADD10C,0.01500*%
%ADD12C,0.02000*%
%ADD27C,0.03000*%
%ADD28C,0.03500*%
%TA.AperFunction,ComponentPad*%
%ADD30C,0.06200*%
%ADD31C,0.09200*%
%ADD32C,0.05500*%
%ADD33R,0.05600X0.05600*%
%ADD34C,0.05600*%
%ADD35C,0.07087*%
%ADD36R,0.07087X0.07087*%
%ADD37R,0.05200X0.05200*%
%ADD38C,0.05200*%
%ADD39R,0.07087X0.07087*%
%ADD40C,0.02000*%
%ADD41C,0.05900*%
%ADD42R,0.05900X0.05900*%
%TA.AperFunction,ViaPad*%
%ADD43C,0.05000*%
%ADD44C,0.01575*%
G36*
X468500Y105000D02*
X413599D01*
X413467Y106000D01*
X414213Y106200D01*
X415022Y106667D01*
X415683Y107328D01*
X416151Y108138D01*
X416393Y109040D01*
Y109975D01*
X416151Y110878D01*
X415683Y111688D01*
X415022Y112349D01*
X414213Y112816D01*
X413310Y113058D01*
X412375D01*
X411472Y112816D01*
X410663Y112349D01*
X410002Y111688D01*
X409535Y110878D01*
X409293Y109975D01*
Y109040D01*
X409535Y108138D01*
X410002Y107328D01*
X410663Y106667D01*
X411472Y106200D01*
X412218Y106000D01*
X412086Y105000D01*
X403756D01*
X403625Y106000D01*
X404370Y106200D01*
X405180Y106667D01*
X405841Y107328D01*
X406308Y108138D01*
X406550Y109040D01*
Y109975D01*
X406308Y110878D01*
X405841Y111688D01*
X405180Y112349D01*
X404370Y112816D01*
X403467Y113058D01*
X402533D01*
X401630Y112816D01*
X400820Y112349D01*
X400159Y111688D01*
X399692Y110878D01*
X399450Y109975D01*
Y109040D01*
X399692Y108138D01*
X400159Y107328D01*
X400820Y106667D01*
X401630Y106200D01*
X402375Y106000D01*
X402244Y105000D01*
X393914D01*
X393782Y106000D01*
X394528Y106200D01*
X395337Y106667D01*
X395998Y107328D01*
X396465Y108138D01*
X396708Y109040D01*
Y109975D01*
X396465Y110878D01*
X395998Y111688D01*
X395337Y112349D01*
X394528Y112816D01*
X393625Y113058D01*
X392690D01*
X391787Y112816D01*
X390978Y112349D01*
X390317Y111688D01*
X389849Y110878D01*
X389608Y109975D01*
Y109040D01*
X389849Y108138D01*
X390317Y107328D01*
X390978Y106667D01*
X391787Y106200D01*
X392533Y106000D01*
X392401Y105000D01*
X242000D01*
Y461000D01*
X468500D01*
Y105000D01*
D02*
G37*
%LPC*%
G36*
X302467Y445550D02*
X301533D01*
X300630Y445308D01*
X299820Y444841D01*
X299159Y444180D01*
X298692Y443370D01*
X298450Y442467D01*
Y441533D01*
X298692Y440630D01*
X299159Y439820D01*
X299820Y439159D01*
X300630Y438692D01*
X301533Y438450D01*
X302467D01*
X303370Y438692D01*
X304180Y439159D01*
X304841Y439820D01*
X305308Y440630D01*
X305550Y441533D01*
Y442467D01*
X305308Y443370D01*
X304841Y444180D01*
X304180Y444841D01*
X303370Y445308D01*
X302467Y445550D01*
D02*
G37*
G36*
X292467D02*
X291533D01*
X290630Y445308D01*
X289820Y444841D01*
X289159Y444180D01*
X288692Y443370D01*
X288450Y442467D01*
Y441533D01*
X288692Y440630D01*
X289159Y439820D01*
X289820Y439159D01*
X290630Y438692D01*
X291533Y438450D01*
X292467D01*
X293370Y438692D01*
X294180Y439159D01*
X294841Y439820D01*
X295308Y440630D01*
X295550Y441533D01*
Y442467D01*
X295308Y443370D01*
X294841Y444180D01*
X294180Y444841D01*
X293370Y445308D01*
X292467Y445550D01*
D02*
G37*
G36*
X302467Y435550D02*
X301533D01*
X300630Y435308D01*
X299820Y434841D01*
X299159Y434180D01*
X298692Y433370D01*
X298450Y432467D01*
Y431533D01*
X298692Y430630D01*
X299159Y429820D01*
X299820Y429159D01*
X300630Y428692D01*
X301533Y428450D01*
X302467D01*
X303370Y428692D01*
X304180Y429159D01*
X304841Y429820D01*
X305308Y430630D01*
X305550Y431533D01*
Y432467D01*
X305308Y433370D01*
X304841Y434180D01*
X304180Y434841D01*
X303370Y435308D01*
X302467Y435550D01*
D02*
G37*
G36*
X292467D02*
X291533D01*
X290630Y435308D01*
X289820Y434841D01*
X289159Y434180D01*
X288692Y433370D01*
X288450Y432467D01*
Y431533D01*
X288692Y430630D01*
X289159Y429820D01*
X289820Y429159D01*
X290630Y428692D01*
X291533Y428450D01*
X292467D01*
X293370Y428692D01*
X294180Y429159D01*
X294841Y429820D01*
X295308Y430630D01*
X295550Y431533D01*
Y432467D01*
X295308Y433370D01*
X294841Y434180D01*
X294180Y434841D01*
X293370Y435308D01*
X292467Y435550D01*
D02*
G37*
G36*
X266343Y431223D02*
X257657D01*
Y422536D01*
X266343D01*
Y431223D01*
D02*
G37*
G36*
X302467Y425550D02*
X301533D01*
X300630Y425308D01*
X299820Y424841D01*
X299159Y424180D01*
X298692Y423370D01*
X298450Y422467D01*
Y421533D01*
X298692Y420630D01*
X299159Y419820D01*
X299820Y419159D01*
X300630Y418692D01*
X301533Y418450D01*
X302467D01*
X303370Y418692D01*
X304180Y419159D01*
X304841Y419820D01*
X305308Y420630D01*
X305550Y421533D01*
Y422467D01*
X305308Y423370D01*
X304841Y424180D01*
X304180Y424841D01*
X303370Y425308D01*
X302467Y425550D01*
D02*
G37*
G36*
X292467D02*
X291533D01*
X290630Y425308D01*
X289820Y424841D01*
X289159Y424180D01*
X288692Y423370D01*
X288450Y422467D01*
Y421533D01*
X288692Y420630D01*
X289159Y419820D01*
X289820Y419159D01*
X290630Y418692D01*
X291533Y418450D01*
X292467D01*
X293370Y418692D01*
X294180Y419159D01*
X294841Y419820D01*
X295308Y420630D01*
X295550Y421533D01*
Y422467D01*
X295308Y423370D01*
X294841Y424180D01*
X294180Y424841D01*
X293370Y425308D01*
X292467Y425550D01*
D02*
G37*
G36*
X262572Y417443D02*
X261428D01*
X260324Y417147D01*
X259333Y416575D01*
X258524Y415767D01*
X257953Y414777D01*
X257657Y413672D01*
Y412528D01*
X257953Y411423D01*
X258524Y410433D01*
X259333Y409624D01*
X260324Y409053D01*
X261428Y408757D01*
X262572D01*
X263677Y409053D01*
X264667Y409624D01*
X265476Y410433D01*
X266047Y411423D01*
X266343Y412528D01*
Y413672D01*
X266047Y414777D01*
X265476Y415767D01*
X264667Y416575D01*
X263677Y417147D01*
X262572Y417443D01*
D02*
G37*
G36*
X263934Y451300D02*
X263066D01*
X262226Y451075D01*
X261474Y450641D01*
X260859Y450026D01*
X260425Y449274D01*
X260200Y448434D01*
Y447566D01*
X260425Y446726D01*
X260859Y445974D01*
X261474Y445359D01*
X262226Y444925D01*
X263066Y444700D01*
X263934D01*
X264774Y444925D01*
X264863Y444976D01*
X270101D01*
X279726Y435351D01*
Y420500D01*
X279821Y419782D01*
X280098Y419113D01*
X280539Y418539D01*
X283706Y415371D01*
X284281Y414930D01*
X284836Y414700D01*
X288613Y410923D01*
X288692Y410630D01*
X289159Y409820D01*
X289820Y409159D01*
X290630Y408692D01*
X291533Y408450D01*
X292467D01*
X293370Y408692D01*
X294180Y409159D01*
X294841Y409820D01*
X295308Y410630D01*
X295550Y411533D01*
Y412467D01*
X295308Y413370D01*
X294841Y414180D01*
X294180Y414841D01*
X293370Y415308D01*
X292467Y415550D01*
X291831D01*
X288088Y419294D01*
X287513Y419734D01*
X286958Y419965D01*
X285274Y421649D01*
Y436500D01*
X285179Y437218D01*
X284902Y437887D01*
X284461Y438461D01*
X273211Y449711D01*
X272637Y450152D01*
X271968Y450429D01*
X271250Y450524D01*
X265643D01*
X265526Y450641D01*
X264774Y451075D01*
X263934Y451300D01*
D02*
G37*
G36*
X285750Y400758D02*
X282250D01*
X282173Y400727D01*
X282142Y400650D01*
Y395350D01*
X282173Y395273D01*
X282250Y395242D01*
X285750D01*
X285826Y395273D01*
X285858Y395350D01*
Y400650D01*
X285826Y400727D01*
X285750Y400758D01*
D02*
G37*
G36*
X265843Y389123D02*
X257157D01*
Y380436D01*
X265843D01*
Y389123D01*
D02*
G37*
G36*
X408591Y410539D02*
X326500D01*
X325720Y410384D01*
X325058Y409942D01*
X320558Y405442D01*
X320116Y404780D01*
X319961Y404000D01*
Y369345D01*
X317155Y366539D01*
X313749D01*
X313721Y366588D01*
X313088Y367221D01*
X312312Y367668D01*
X311448Y367900D01*
X310552D01*
X309688Y367668D01*
X308912Y367221D01*
X308279Y366588D01*
X307832Y365812D01*
X307600Y364948D01*
Y364052D01*
X307832Y363188D01*
X308279Y362412D01*
X308912Y361779D01*
X309688Y361332D01*
X310552Y361100D01*
X311448D01*
X312312Y361332D01*
X313088Y361779D01*
X313721Y362412D01*
X313749Y362461D01*
X318000D01*
X318780Y362616D01*
X319442Y363058D01*
X323442Y367058D01*
X323884Y367720D01*
X324039Y368500D01*
Y403155D01*
X327345Y406461D01*
X407746D01*
X436400Y377807D01*
Y373491D01*
X443600D01*
Y380691D01*
X439284D01*
X410033Y409942D01*
X409371Y410384D01*
X408591Y410539D01*
D02*
G37*
G36*
X314400Y377900D02*
X307600D01*
Y371100D01*
X314400D01*
Y377900D01*
D02*
G37*
G36*
X262072Y375343D02*
X260928D01*
X259823Y375047D01*
X258833Y374476D01*
X258025Y373667D01*
X257453Y372676D01*
X257157Y371572D01*
Y370428D01*
X257453Y369323D01*
X258025Y368333D01*
X258833Y367525D01*
X259823Y366953D01*
X260928Y366657D01*
X262072D01*
X263176Y366953D01*
X264167Y367525D01*
X264976Y368333D01*
X265547Y369323D01*
X265843Y370428D01*
Y371572D01*
X265547Y372676D01*
X264976Y373667D01*
X264167Y374476D01*
X263176Y375047D01*
X262072Y375343D01*
D02*
G37*
G36*
X282150Y369358D02*
X276850D01*
X276774Y369326D01*
X276742Y369250D01*
Y365750D01*
X276774Y365673D01*
X276850Y365642D01*
X282150D01*
X282226Y365673D01*
X282258Y365750D01*
Y369250D01*
X282226Y369326D01*
X282150Y369358D01*
D02*
G37*
G36*
X393707Y375203D02*
X392285D01*
X390912Y374835D01*
X389680Y374124D01*
X388675Y373119D01*
X387964Y371887D01*
X387596Y370514D01*
Y369092D01*
X387964Y367719D01*
X388675Y366488D01*
X389680Y365482D01*
X390912Y364771D01*
X392285Y364403D01*
X393707D01*
X395080Y364771D01*
X396311Y365482D01*
X397317Y366488D01*
X398028Y367719D01*
X398396Y369092D01*
Y370514D01*
X398028Y371887D01*
X397317Y373119D01*
X396311Y374124D01*
X395080Y374835D01*
X393707Y375203D01*
D02*
G37*
G36*
X341448Y367900D02*
X340552D01*
X339688Y367668D01*
X338912Y367221D01*
X338279Y366588D01*
X337832Y365812D01*
X337600Y364948D01*
Y364052D01*
X337832Y363188D01*
X338279Y362412D01*
X338912Y361779D01*
X339688Y361332D01*
X340552Y361100D01*
X341448D01*
X342312Y361332D01*
X343088Y361779D01*
X343721Y362412D01*
X344168Y363188D01*
X344400Y364052D01*
Y364948D01*
X344168Y365812D01*
X343721Y366588D01*
X343088Y367221D01*
X342312Y367668D01*
X341448Y367900D01*
D02*
G37*
G36*
Y357900D02*
X340552D01*
X339688Y357668D01*
X338912Y357221D01*
X338279Y356588D01*
X337832Y355812D01*
X337600Y354948D01*
Y354052D01*
X337832Y353188D01*
X338279Y352412D01*
X338912Y351779D01*
X339688Y351332D01*
X340552Y351100D01*
X341448D01*
X342312Y351332D01*
X343088Y351779D01*
X343721Y352412D01*
X344168Y353188D01*
X344400Y354052D01*
Y354948D01*
X344168Y355812D01*
X343721Y356588D01*
X343088Y357221D01*
X342312Y357668D01*
X341448Y357900D01*
D02*
G37*
G36*
X311448D02*
X310552D01*
X309688Y357668D01*
X308912Y357221D01*
X308279Y356588D01*
X307832Y355812D01*
X307600Y354948D01*
Y354052D01*
X307832Y353188D01*
X308279Y352412D01*
X308912Y351779D01*
X309688Y351332D01*
X310552Y351100D01*
X311448D01*
X312312Y351332D01*
X313088Y351779D01*
X313721Y352412D01*
X314168Y353188D01*
X314400Y354052D01*
Y354948D01*
X314168Y355812D01*
X313721Y356588D01*
X313088Y357221D01*
X312312Y357668D01*
X311448Y357900D01*
D02*
G37*
G36*
X350500Y387274D02*
X341000D01*
X340282Y387179D01*
X339613Y386902D01*
X339039Y386461D01*
X329539Y376961D01*
X329098Y376387D01*
X328821Y375718D01*
X328726Y375000D01*
Y332199D01*
X323801Y327274D01*
X312996D01*
X312312Y327668D01*
X311448Y327900D01*
X310552D01*
X309688Y327668D01*
X308912Y327221D01*
X308279Y326588D01*
X307832Y325812D01*
X307600Y324948D01*
Y324052D01*
X307832Y323188D01*
X308279Y322412D01*
X308912Y321779D01*
X309688Y321332D01*
X310552Y321100D01*
X311448D01*
X312312Y321332D01*
X312996Y321726D01*
X323784D01*
X327226Y318284D01*
Y283000D01*
X327321Y282282D01*
X327598Y281613D01*
X328039Y281039D01*
X329577Y279500D01*
X327539Y277461D01*
X327098Y276887D01*
X326821Y276218D01*
X326726Y275500D01*
Y191649D01*
X317351Y182274D01*
X308000D01*
X307282Y182179D01*
X306613Y181902D01*
X306039Y181461D01*
X297809Y173231D01*
X297226Y173075D01*
X296474Y172641D01*
X295859Y172026D01*
X295425Y171274D01*
X295200Y170434D01*
Y169566D01*
X295425Y168726D01*
X295859Y167974D01*
X296474Y167359D01*
X297226Y166925D01*
X298065Y166700D01*
X298935D01*
X299774Y166925D01*
X300526Y167359D01*
X301141Y167974D01*
X301575Y168726D01*
X301731Y169308D01*
X309149Y176726D01*
X318500D01*
X319218Y176821D01*
X319887Y177098D01*
X320461Y177539D01*
X331461Y188539D01*
X331902Y189113D01*
X332179Y189782D01*
X332274Y190500D01*
Y274351D01*
X335384Y277461D01*
X337738D01*
X338057Y276946D01*
X338206Y276461D01*
X337832Y275812D01*
X337600Y274948D01*
Y274052D01*
X337832Y273188D01*
X338279Y272412D01*
X338912Y271779D01*
X339688Y271332D01*
X340552Y271100D01*
X341448D01*
X342312Y271332D01*
X343088Y271779D01*
X343721Y272412D01*
X344168Y273188D01*
X344400Y274052D01*
Y274948D01*
X344168Y275812D01*
X343794Y276461D01*
X343942Y276946D01*
X344262Y277461D01*
X350646D01*
X355084Y273023D01*
X355746Y272581D01*
X356526Y272425D01*
X370921D01*
X370933Y272380D01*
X371644Y271149D01*
X372649Y270144D01*
X373881Y269433D01*
X375254Y269065D01*
X376676D01*
X378049Y269433D01*
X379281Y270144D01*
X380286Y271149D01*
X380997Y272380D01*
X381365Y273754D01*
Y275175D01*
X380997Y276549D01*
X380286Y277780D01*
X379281Y278786D01*
X378049Y279497D01*
X376676Y279865D01*
X375254D01*
X373881Y279497D01*
X372649Y278786D01*
X371644Y277780D01*
X370933Y276549D01*
X370921Y276504D01*
X357371D01*
X352933Y280942D01*
X352271Y281384D01*
X351491Y281539D01*
X344262D01*
X343942Y282054D01*
X343794Y282539D01*
X344168Y283188D01*
X344400Y284052D01*
Y284948D01*
X344168Y285812D01*
X343721Y286588D01*
X343088Y287221D01*
X342312Y287668D01*
X341448Y287900D01*
X340552D01*
X339688Y287668D01*
X338912Y287221D01*
X338279Y286588D01*
X337832Y285812D01*
X337600Y284948D01*
Y284052D01*
X337832Y283188D01*
X338206Y282539D01*
X338057Y282054D01*
X337738Y281539D01*
X335384D01*
X332774Y284149D01*
Y319433D01*
X332679Y320151D01*
X332402Y320820D01*
X331961Y321394D01*
X328864Y324492D01*
X333461Y329089D01*
X333902Y329663D01*
X334179Y330332D01*
X334274Y331050D01*
Y373851D01*
X337281Y376858D01*
X338081Y376244D01*
X337832Y375812D01*
X337600Y374948D01*
Y374052D01*
X337832Y373188D01*
X338279Y372412D01*
X338912Y371779D01*
X339688Y371332D01*
X340552Y371100D01*
X341448D01*
X342312Y371332D01*
X343088Y371779D01*
X343721Y372412D01*
X344168Y373188D01*
X344400Y374052D01*
Y374948D01*
X344168Y375812D01*
X343721Y376588D01*
X343088Y377221D01*
X342312Y377668D01*
X341448Y377900D01*
X340552D01*
X339688Y377668D01*
X339256Y377419D01*
X338642Y378219D01*
X342149Y381726D01*
X349351D01*
X372858Y358220D01*
Y357301D01*
X372140Y356583D01*
X371429Y355352D01*
X371061Y353979D01*
Y352557D01*
X371429Y351183D01*
X372140Y349952D01*
X373145Y348947D01*
X374377Y348236D01*
X375750Y347868D01*
X377172D01*
X378545Y348236D01*
X379777Y348947D01*
X380782Y349952D01*
X381493Y351183D01*
X381861Y352557D01*
Y353979D01*
X381493Y355352D01*
X380782Y356583D01*
X379777Y357589D01*
X378545Y358300D01*
X378405Y358337D01*
Y359368D01*
X378311Y360086D01*
X378034Y360755D01*
X377593Y361330D01*
X375483Y363439D01*
X375627Y363958D01*
X375934Y364403D01*
X377172D01*
X378545Y364771D01*
X379777Y365482D01*
X380782Y366488D01*
X381493Y367719D01*
X381861Y369092D01*
Y370514D01*
X381493Y371887D01*
X380782Y373119D01*
X379777Y374124D01*
X378545Y374835D01*
X377172Y375203D01*
X375750D01*
X374377Y374835D01*
X373145Y374124D01*
X372140Y373119D01*
X371429Y371887D01*
X371061Y370514D01*
Y369276D01*
X370616Y368969D01*
X370097Y368826D01*
X352461Y386461D01*
X351887Y386902D01*
X351218Y387179D01*
X350500Y387274D01*
D02*
G37*
G36*
X289150Y350858D02*
X283850D01*
X283773Y350827D01*
X283742Y350750D01*
Y347250D01*
X283773Y347174D01*
X283850Y347142D01*
X289150D01*
X289227Y347174D01*
X289258Y347250D01*
Y350750D01*
X289227Y350827D01*
X289150Y350858D01*
D02*
G37*
G36*
X298650Y348858D02*
X293350D01*
X293273Y348827D01*
X293242Y348750D01*
Y345250D01*
X293273Y345174D01*
X293350Y345142D01*
X298650D01*
X298727Y345174D01*
X298758Y345250D01*
Y348750D01*
X298727Y348827D01*
X298650Y348858D01*
D02*
G37*
G36*
X371921Y348200D02*
X371079D01*
X370265Y347982D01*
X369535Y347561D01*
X368939Y346965D01*
X368518Y346235D01*
X368300Y345421D01*
Y344579D01*
X368518Y343765D01*
X368939Y343035D01*
X369535Y342439D01*
X370265Y342018D01*
X371079Y341800D01*
X371921D01*
X372735Y342018D01*
X373465Y342439D01*
X374061Y343035D01*
X374482Y343765D01*
X374700Y344579D01*
Y345421D01*
X374482Y346235D01*
X374061Y346965D01*
X373465Y347561D01*
X372735Y347982D01*
X371921Y348200D01*
D02*
G37*
G36*
X341448Y347900D02*
X340552D01*
X339688Y347668D01*
X338912Y347221D01*
X338279Y346588D01*
X337832Y345812D01*
X337600Y344948D01*
Y344052D01*
X337832Y343188D01*
X338279Y342412D01*
X338912Y341779D01*
X339688Y341332D01*
X340552Y341100D01*
X341448D01*
X342312Y341332D01*
X343088Y341779D01*
X343721Y342412D01*
X344168Y343188D01*
X344400Y344052D01*
Y344948D01*
X344168Y345812D01*
X343721Y346588D01*
X343088Y347221D01*
X342312Y347668D01*
X341448Y347900D01*
D02*
G37*
G36*
X311448D02*
X310552D01*
X309688Y347668D01*
X308912Y347221D01*
X308279Y346588D01*
X307832Y345812D01*
X307600Y344948D01*
Y344052D01*
X307832Y343188D01*
X308279Y342412D01*
X308912Y341779D01*
X309688Y341332D01*
X310552Y341100D01*
X311448D01*
X312312Y341332D01*
X313088Y341779D01*
X313721Y342412D01*
X314168Y343188D01*
X314400Y344052D01*
Y344948D01*
X314168Y345812D01*
X313721Y346588D01*
X313088Y347221D01*
X312312Y347668D01*
X311448Y347900D01*
D02*
G37*
G36*
X265843Y347023D02*
X257157D01*
Y338336D01*
X265843D01*
Y347023D01*
D02*
G37*
G36*
X393707Y342132D02*
X392285D01*
X390912Y341764D01*
X389680Y341053D01*
X388675Y340048D01*
X387964Y338817D01*
X387596Y337443D01*
Y336021D01*
X387964Y334648D01*
X388675Y333417D01*
X389680Y332411D01*
X390912Y331700D01*
X392285Y331332D01*
X393707D01*
X395080Y331700D01*
X396311Y332411D01*
X397317Y333417D01*
X398028Y334648D01*
X398396Y336021D01*
Y337443D01*
X398028Y338817D01*
X397317Y340048D01*
X396311Y341053D01*
X395080Y341764D01*
X393707Y342132D01*
D02*
G37*
G36*
X377172D02*
X375750D01*
X374377Y341764D01*
X373145Y341053D01*
X372140Y340048D01*
X371429Y338817D01*
X371061Y337443D01*
Y336021D01*
X371429Y334648D01*
X372140Y333417D01*
X373145Y332411D01*
X374377Y331700D01*
X375750Y331332D01*
X377172D01*
X378545Y331700D01*
X379777Y332411D01*
X380782Y333417D01*
X381493Y334648D01*
X381861Y336021D01*
Y337443D01*
X381493Y338817D01*
X380782Y340048D01*
X379777Y341053D01*
X378545Y341764D01*
X377172Y342132D01*
D02*
G37*
G36*
X341448Y337900D02*
X340552D01*
X339688Y337668D01*
X338912Y337221D01*
X338279Y336588D01*
X337832Y335812D01*
X337600Y334948D01*
Y334052D01*
X337832Y333188D01*
X338279Y332412D01*
X338912Y331779D01*
X339688Y331332D01*
X340552Y331100D01*
X341448D01*
X342312Y331332D01*
X343088Y331779D01*
X343721Y332412D01*
X344168Y333188D01*
X344400Y334052D01*
Y334948D01*
X344168Y335812D01*
X343721Y336588D01*
X343088Y337221D01*
X342312Y337668D01*
X341448Y337900D01*
D02*
G37*
G36*
X311448D02*
X310552D01*
X309688Y337668D01*
X308912Y337221D01*
X308279Y336588D01*
X307832Y335812D01*
X307600Y334948D01*
Y334052D01*
X307832Y333188D01*
X308279Y332412D01*
X308912Y331779D01*
X309688Y331332D01*
X310552Y331100D01*
X311448D01*
X312312Y331332D01*
X313088Y331779D01*
X313721Y332412D01*
X314168Y333188D01*
X314400Y334052D01*
Y334948D01*
X314168Y335812D01*
X313721Y336588D01*
X313088Y337221D01*
X312312Y337668D01*
X311448Y337900D01*
D02*
G37*
G36*
X442650Y331858D02*
X437350D01*
X437274Y331826D01*
X437242Y331750D01*
Y328250D01*
X437274Y328173D01*
X437350Y328142D01*
X442650D01*
X442727Y328173D01*
X442758Y328250D01*
Y331750D01*
X442727Y331826D01*
X442650Y331858D01*
D02*
G37*
G36*
X262072Y333243D02*
X260928D01*
X259823Y332947D01*
X258833Y332376D01*
X258025Y331567D01*
X257453Y330576D01*
X257157Y329472D01*
Y328328D01*
X257453Y327223D01*
X258025Y326233D01*
X258833Y325425D01*
X259823Y324853D01*
X260928Y324557D01*
X262072D01*
X263176Y324853D01*
X264167Y325425D01*
X264976Y326233D01*
X265547Y327223D01*
X265843Y328328D01*
Y329472D01*
X265547Y330576D01*
X264976Y331567D01*
X264167Y332376D01*
X263176Y332947D01*
X262072Y333243D01*
D02*
G37*
G36*
X283750Y327258D02*
X280250D01*
X280173Y327226D01*
X280142Y327150D01*
Y321850D01*
X280173Y321774D01*
X280250Y321742D01*
X283750D01*
X283826Y321774D01*
X283858Y321850D01*
Y327150D01*
X283826Y327226D01*
X283750Y327258D01*
D02*
G37*
G36*
X341448Y327900D02*
X340552D01*
X339688Y327668D01*
X338912Y327221D01*
X338279Y326588D01*
X337832Y325812D01*
X337600Y324948D01*
Y324052D01*
X337832Y323188D01*
X338279Y322412D01*
X338912Y321779D01*
X339688Y321332D01*
X340552Y321100D01*
X341448D01*
X342312Y321332D01*
X343088Y321779D01*
X343721Y322412D01*
X344168Y323188D01*
X344400Y324052D01*
Y324948D01*
X344168Y325812D01*
X343721Y326588D01*
X343088Y327221D01*
X342312Y327668D01*
X341448Y327900D01*
D02*
G37*
G36*
X364150Y315358D02*
X358850D01*
X358773Y315326D01*
X358742Y315250D01*
Y311750D01*
X358773Y311673D01*
X358850Y311642D01*
X364150D01*
X364227Y311673D01*
X364258Y311750D01*
Y315250D01*
X364227Y315326D01*
X364150Y315358D01*
D02*
G37*
G36*
X341448Y317900D02*
X340552D01*
X339688Y317668D01*
X338912Y317221D01*
X338279Y316588D01*
X337832Y315812D01*
X337600Y314948D01*
Y314052D01*
X337832Y313188D01*
X338279Y312412D01*
X338912Y311779D01*
X339688Y311332D01*
X340552Y311100D01*
X341448D01*
X342312Y311332D01*
X343088Y311779D01*
X343721Y312412D01*
X344168Y313188D01*
X344400Y314052D01*
Y314948D01*
X344168Y315812D01*
X343721Y316588D01*
X343088Y317221D01*
X342312Y317668D01*
X341448Y317900D01*
D02*
G37*
G36*
X285934Y318800D02*
X285066D01*
X284226Y318575D01*
X283474Y318141D01*
X282859Y317526D01*
X282425Y316774D01*
X282200Y315934D01*
Y315066D01*
X282425Y314226D01*
X282859Y313474D01*
X283474Y312859D01*
X284226Y312425D01*
X285066Y312200D01*
X285934D01*
X286774Y312425D01*
X287526Y312859D01*
X287628Y312961D01*
X307963D01*
X308279Y312412D01*
X308912Y311779D01*
X309688Y311332D01*
X310552Y311100D01*
X311448D01*
X312312Y311332D01*
X313088Y311779D01*
X313721Y312412D01*
X314168Y313188D01*
X314400Y314052D01*
Y314948D01*
X314168Y315812D01*
X313721Y316588D01*
X313088Y317221D01*
X312312Y317668D01*
X311448Y317900D01*
X310552D01*
X309688Y317668D01*
X308912Y317221D01*
X308731Y317039D01*
X288422D01*
X288141Y317526D01*
X287526Y318141D01*
X286774Y318575D01*
X285934Y318800D01*
D02*
G37*
G36*
X311448Y307900D02*
X310552D01*
X309688Y307668D01*
X308912Y307221D01*
X308279Y306588D01*
X307832Y305812D01*
X307600Y304948D01*
Y304052D01*
X307614Y303998D01*
X291058Y287442D01*
X290616Y286780D01*
X290461Y286000D01*
Y277128D01*
X289859Y276526D01*
X289425Y275774D01*
X289200Y274935D01*
Y274065D01*
X289425Y273226D01*
X289859Y272474D01*
X290474Y271859D01*
X291226Y271425D01*
X292066Y271200D01*
X292934D01*
X293774Y271425D01*
X294526Y271859D01*
X295141Y272474D01*
X295575Y273226D01*
X295800Y274065D01*
Y274935D01*
X295575Y275774D01*
X295141Y276526D01*
X294539Y277128D01*
Y285155D01*
X310498Y301115D01*
X310552Y301100D01*
X311448D01*
X312312Y301332D01*
X313088Y301779D01*
X313721Y302412D01*
X314168Y303188D01*
X314400Y304052D01*
Y304948D01*
X314168Y305812D01*
X313721Y306588D01*
X313088Y307221D01*
X312312Y307668D01*
X311448Y307900D01*
D02*
G37*
G36*
X284750Y302258D02*
X281250D01*
X281173Y302226D01*
X281142Y302150D01*
Y296850D01*
X281173Y296774D01*
X281250Y296742D01*
X284750D01*
X284826Y296774D01*
X284858Y296850D01*
Y302150D01*
X284826Y302226D01*
X284750Y302258D01*
D02*
G37*
G36*
X354150Y300358D02*
X348850D01*
X348774Y300326D01*
X348742Y300250D01*
Y296750D01*
X348774Y296673D01*
X348850Y296642D01*
X354150D01*
X354226Y296673D01*
X354258Y296750D01*
Y300250D01*
X354226Y300326D01*
X354150Y300358D01*
D02*
G37*
G36*
X265843Y304923D02*
X257157D01*
Y296236D01*
X265843D01*
Y304923D01*
D02*
G37*
G36*
X341448Y297900D02*
X340552D01*
X339688Y297668D01*
X338912Y297221D01*
X338279Y296588D01*
X337832Y295812D01*
X337600Y294948D01*
Y294052D01*
X337832Y293188D01*
X338279Y292412D01*
X338912Y291779D01*
X339688Y291332D01*
X340552Y291100D01*
X341448D01*
X342312Y291332D01*
X343088Y291779D01*
X343721Y292412D01*
X344168Y293188D01*
X344400Y294052D01*
Y294948D01*
X344168Y295812D01*
X343721Y296588D01*
X343088Y297221D01*
X342312Y297668D01*
X341448Y297900D01*
D02*
G37*
G36*
X311448D02*
X310552D01*
X309688Y297668D01*
X308912Y297221D01*
X308279Y296588D01*
X307832Y295812D01*
X307600Y294948D01*
Y294052D01*
X307832Y293188D01*
X308279Y292412D01*
X308912Y291779D01*
X309688Y291332D01*
X310552Y291100D01*
X311448D01*
X312312Y291332D01*
X313088Y291779D01*
X313721Y292412D01*
X314168Y293188D01*
X314400Y294052D01*
Y294948D01*
X314168Y295812D01*
X313721Y296588D01*
X313088Y297221D01*
X312312Y297668D01*
X311448Y297900D01*
D02*
G37*
G36*
X351434Y346300D02*
X350566D01*
X349726Y346075D01*
X348974Y345641D01*
X348359Y345026D01*
X347925Y344274D01*
X347700Y343435D01*
Y342565D01*
X347925Y341726D01*
X348359Y340974D01*
X348974Y340359D01*
X349726Y339925D01*
X350566Y339700D01*
X351351D01*
X387924Y293874D01*
X387468Y293084D01*
X387100Y291711D01*
Y290289D01*
X387468Y288916D01*
X388179Y287684D01*
X389184Y286679D01*
X390416Y285968D01*
X391789Y285600D01*
X393211D01*
X394584Y285968D01*
X395816Y286679D01*
X396821Y287684D01*
X397532Y288916D01*
X397900Y290289D01*
Y291711D01*
X397532Y293084D01*
X396821Y294316D01*
X395816Y295321D01*
X394584Y296032D01*
X393211Y296400D01*
X391789D01*
X390705Y296110D01*
X354132Y341937D01*
X354300Y342565D01*
Y343435D01*
X354075Y344274D01*
X353641Y345026D01*
X353026Y345641D01*
X352274Y346075D01*
X351434Y346300D01*
D02*
G37*
G36*
X376676Y296400D02*
X375254D01*
X373881Y296032D01*
X372649Y295321D01*
X371644Y294316D01*
X370933Y293084D01*
X370565Y291711D01*
Y290289D01*
X370933Y288916D01*
X371644Y287684D01*
X372649Y286679D01*
X373881Y285968D01*
X375254Y285600D01*
X376676D01*
X378049Y285968D01*
X379281Y286679D01*
X380286Y287684D01*
X380997Y288916D01*
X381365Y290289D01*
Y291711D01*
X380997Y293084D01*
X380286Y294316D01*
X379281Y295321D01*
X378049Y296032D01*
X376676Y296400D01*
D02*
G37*
G36*
X262072Y291143D02*
X260928D01*
X259823Y290847D01*
X258833Y290276D01*
X258025Y289467D01*
X257453Y288476D01*
X257157Y287372D01*
Y286228D01*
X257453Y285123D01*
X258025Y284133D01*
X258833Y283325D01*
X259823Y282753D01*
X260928Y282457D01*
X262072D01*
X263176Y282753D01*
X264167Y283325D01*
X264976Y284133D01*
X265547Y285123D01*
X265843Y286228D01*
Y287372D01*
X265547Y288476D01*
X264976Y289467D01*
X264167Y290276D01*
X263176Y290847D01*
X262072Y291143D01*
D02*
G37*
G36*
X311448Y287900D02*
X310552D01*
X309688Y287668D01*
X308912Y287221D01*
X308279Y286588D01*
X307832Y285812D01*
X307600Y284948D01*
Y284052D01*
X307832Y283188D01*
X308279Y282412D01*
X308912Y281779D01*
X309688Y281332D01*
X310552Y281100D01*
X311448D01*
X312312Y281332D01*
X313088Y281779D01*
X313721Y282412D01*
X314168Y283188D01*
X314400Y284052D01*
Y284948D01*
X314168Y285812D01*
X313721Y286588D01*
X313088Y287221D01*
X312312Y287668D01*
X311448Y287900D01*
D02*
G37*
G36*
X284250Y278758D02*
X280750D01*
X280674Y278727D01*
X280642Y278650D01*
Y273350D01*
X280674Y273273D01*
X280750Y273242D01*
X284250D01*
X284327Y273273D01*
X284358Y273350D01*
Y278650D01*
X284327Y278727D01*
X284250Y278758D01*
D02*
G37*
G36*
X320935Y287800D02*
X320065D01*
X319226Y287575D01*
X318474Y287141D01*
X317859Y286526D01*
X317425Y285774D01*
X317200Y284934D01*
Y284066D01*
X317425Y283226D01*
X317859Y282474D01*
X318474Y281859D01*
X318716Y281720D01*
Y274739D01*
X314411Y270434D01*
X312660D01*
X312550Y270719D01*
X312490Y271434D01*
X313088Y271779D01*
X313721Y272412D01*
X314168Y273188D01*
X314400Y274052D01*
Y274948D01*
X314168Y275812D01*
X313721Y276588D01*
X313088Y277221D01*
X312312Y277668D01*
X311448Y277900D01*
X310552D01*
X309688Y277668D01*
X308912Y277221D01*
X308279Y276588D01*
X307832Y275812D01*
X307600Y274948D01*
Y274052D01*
X307832Y273188D01*
X308279Y272412D01*
X308912Y271779D01*
X309510Y271434D01*
X309450Y270719D01*
X309340Y270434D01*
X304280D01*
X303597Y270299D01*
X303018Y269912D01*
X303018Y269912D01*
X298891Y265784D01*
X287929D01*
X283802Y269912D01*
X283223Y270299D01*
X282540Y270434D01*
X271671D01*
X271671Y270434D01*
X270988Y270299D01*
X270409Y269912D01*
X270409Y269912D01*
X263320Y262823D01*
X257157D01*
Y254136D01*
X265843D01*
Y260299D01*
X272410Y266866D01*
X281801D01*
X285929Y262738D01*
X285929Y262738D01*
X286508Y262351D01*
X287190Y262216D01*
X299630D01*
X300313Y262351D01*
X300892Y262738D01*
X305019Y266866D01*
X307285D01*
X307862Y265866D01*
X307832Y265812D01*
X307600Y264948D01*
Y264052D01*
X307832Y263188D01*
X308279Y262412D01*
X308912Y261779D01*
X309688Y261332D01*
X310552Y261100D01*
X311448D01*
X312312Y261332D01*
X313088Y261779D01*
X313721Y262412D01*
X314168Y263188D01*
X314400Y264052D01*
Y264948D01*
X314168Y265812D01*
X314138Y265866D01*
X314715Y266866D01*
X315150D01*
X315833Y267002D01*
X316412Y267388D01*
X321762Y272738D01*
X321762Y272738D01*
X322148Y273317D01*
X322284Y274000D01*
Y281720D01*
X322526Y281859D01*
X323141Y282474D01*
X323575Y283226D01*
X323800Y284066D01*
Y284934D01*
X323575Y285774D01*
X323141Y286526D01*
X322526Y287141D01*
X321774Y287575D01*
X320935Y287800D01*
D02*
G37*
G36*
X371425Y269397D02*
X370583D01*
X369769Y269179D01*
X369039Y268758D01*
X368443Y268162D01*
X368022Y267432D01*
X367804Y266618D01*
Y265776D01*
X368022Y264962D01*
X368443Y264232D01*
X369039Y263636D01*
X369769Y263215D01*
X370583Y262997D01*
X371425D01*
X372239Y263215D01*
X372969Y263636D01*
X373565Y264232D01*
X373986Y264962D01*
X374204Y265776D01*
Y266618D01*
X373986Y267432D01*
X373565Y268162D01*
X372969Y268758D01*
X372239Y269179D01*
X371425Y269397D01*
D02*
G37*
G36*
X341448Y267900D02*
X340552D01*
X339688Y267668D01*
X338912Y267221D01*
X338279Y266588D01*
X337832Y265812D01*
X337600Y264948D01*
Y264052D01*
X337832Y263188D01*
X338279Y262412D01*
X338912Y261779D01*
X339688Y261332D01*
X340552Y261100D01*
X341448D01*
X342312Y261332D01*
X343088Y261779D01*
X343721Y262412D01*
X344168Y263188D01*
X344400Y264052D01*
Y264948D01*
X344168Y265812D01*
X343721Y266588D01*
X343088Y267221D01*
X342312Y267668D01*
X341448Y267900D01*
D02*
G37*
G36*
X376676Y263329D02*
X375254D01*
X373881Y262961D01*
X372649Y262250D01*
X371644Y261245D01*
X370933Y260014D01*
X370565Y258640D01*
Y257218D01*
X370933Y255845D01*
X371644Y254613D01*
X372649Y253608D01*
X373881Y252897D01*
X375254Y252529D01*
X376676D01*
X378049Y252897D01*
X379281Y253608D01*
X380286Y254613D01*
X380997Y255845D01*
X381365Y257218D01*
Y258640D01*
X380997Y260014D01*
X380286Y261245D01*
X379281Y262250D01*
X378049Y262961D01*
X376676Y263329D01*
D02*
G37*
G36*
X341448Y257900D02*
X340552D01*
X339688Y257668D01*
X338912Y257221D01*
X338279Y256588D01*
X337832Y255812D01*
X337600Y254948D01*
Y254052D01*
X337832Y253188D01*
X338279Y252412D01*
X338912Y251779D01*
X339688Y251332D01*
X340552Y251100D01*
X341448D01*
X342312Y251332D01*
X343088Y251779D01*
X343721Y252412D01*
X344168Y253188D01*
X344400Y254052D01*
Y254948D01*
X344168Y255812D01*
X343721Y256588D01*
X343088Y257221D01*
X342312Y257668D01*
X341448Y257900D01*
D02*
G37*
G36*
X311448D02*
X310552D01*
X309688Y257668D01*
X308912Y257221D01*
X308279Y256588D01*
X307832Y255812D01*
X307600Y254948D01*
Y254052D01*
X307691Y253714D01*
X281761Y227784D01*
X278644D01*
X278644Y227784D01*
X277858Y228350D01*
X277858Y228784D01*
Y233650D01*
X277826Y233727D01*
X277750Y233758D01*
X274250D01*
X274173Y233727D01*
X274142Y233650D01*
Y228784D01*
X274142Y228350D01*
X273356Y227784D01*
X273356Y227784D01*
X259280D01*
X259141Y228026D01*
X258526Y228641D01*
X257774Y229075D01*
X256934Y229300D01*
X256066D01*
X255226Y229075D01*
X254474Y228641D01*
X253859Y228026D01*
X253425Y227274D01*
X253200Y226434D01*
Y225566D01*
X253425Y224726D01*
X253859Y223974D01*
X254474Y223359D01*
X255226Y222925D01*
X256066Y222700D01*
X256934D01*
X257774Y222925D01*
X258526Y223359D01*
X259141Y223974D01*
X259280Y224216D01*
X282500D01*
X283183Y224352D01*
X283762Y224738D01*
X310214Y251191D01*
X310552Y251100D01*
X311448D01*
X312312Y251332D01*
X313088Y251779D01*
X313721Y252412D01*
X314168Y253188D01*
X314400Y254052D01*
Y254948D01*
X314168Y255812D01*
X313721Y256588D01*
X313088Y257221D01*
X312312Y257668D01*
X311448Y257900D01*
D02*
G37*
G36*
X286750Y250258D02*
X283250D01*
X283173Y250226D01*
X283142Y250150D01*
Y244850D01*
X283173Y244774D01*
X283250Y244742D01*
X286750D01*
X286826Y244774D01*
X286858Y244850D01*
Y250150D01*
X286826Y250226D01*
X286750Y250258D01*
D02*
G37*
G36*
X311448Y247900D02*
X310552D01*
X309688Y247668D01*
X308912Y247221D01*
X308279Y246588D01*
X307832Y245812D01*
X307600Y244948D01*
Y244052D01*
X307832Y243188D01*
X308279Y242412D01*
X308912Y241779D01*
X309688Y241332D01*
X310552Y241100D01*
X311448D01*
X312312Y241332D01*
X313088Y241779D01*
X313721Y242412D01*
X314168Y243188D01*
X314400Y244052D01*
Y244948D01*
X314168Y245812D01*
X313721Y246588D01*
X313088Y247221D01*
X312312Y247668D01*
X311448Y247900D01*
D02*
G37*
G36*
X262072Y249043D02*
X260928D01*
X259823Y248747D01*
X258833Y248176D01*
X258025Y247367D01*
X257453Y246376D01*
X257157Y245272D01*
Y244128D01*
X257453Y243023D01*
X258025Y242033D01*
X258833Y241225D01*
X259823Y240653D01*
X260928Y240357D01*
X262072D01*
X263176Y240653D01*
X264167Y241225D01*
X264976Y242033D01*
X265547Y243023D01*
X265843Y244128D01*
Y245272D01*
X265547Y246376D01*
X264976Y247367D01*
X264167Y248176D01*
X263176Y248747D01*
X262072Y249043D01*
D02*
G37*
G36*
X432750Y237758D02*
X429250D01*
X429174Y237726D01*
X429142Y237650D01*
Y232350D01*
X429174Y232274D01*
X429250Y232242D01*
X432750D01*
X432827Y232274D01*
X432858Y232350D01*
Y237650D01*
X432827Y237726D01*
X432750Y237758D01*
D02*
G37*
G36*
X303650Y224858D02*
X298350D01*
X298273Y224827D01*
X298242Y224750D01*
Y221250D01*
X298273Y221174D01*
X298350Y221142D01*
X303650D01*
X303727Y221174D01*
X303758Y221250D01*
Y224750D01*
X303727Y224827D01*
X303650Y224858D01*
D02*
G37*
G36*
X440750Y226258D02*
X437250D01*
X437174Y226226D01*
X437142Y226150D01*
Y220850D01*
X437174Y220774D01*
X437250Y220742D01*
X440750D01*
X440827Y220774D01*
X440858Y220850D01*
Y226150D01*
X440827Y226226D01*
X440750Y226258D01*
D02*
G37*
G36*
X416400Y225208D02*
X406600D01*
X406524Y225177D01*
X406492Y225100D01*
Y213900D01*
X406524Y213824D01*
X406600Y213792D01*
X416400D01*
X416476Y213824D01*
X416508Y213900D01*
Y225100D01*
X416476Y225177D01*
X416400Y225208D01*
D02*
G37*
G36*
X261750Y218758D02*
X258250D01*
X258173Y218726D01*
X258142Y218650D01*
Y213350D01*
X258173Y213274D01*
X258250Y213242D01*
X261750D01*
X261826Y213274D01*
X261858Y213350D01*
Y218650D01*
X261826Y218726D01*
X261750Y218758D01*
D02*
G37*
G36*
X393211Y263329D02*
X391789D01*
X390416Y262961D01*
X389184Y262250D01*
X388179Y261245D01*
X387468Y260014D01*
X387100Y258640D01*
Y257218D01*
X387468Y255845D01*
X388179Y254613D01*
X389184Y253608D01*
X390416Y252897D01*
X391789Y252529D01*
X393211D01*
X394584Y252897D01*
X395816Y253608D01*
X396821Y254613D01*
X397264Y255380D01*
X424015D01*
X460251Y219144D01*
Y218339D01*
X459925Y217774D01*
X459700Y216934D01*
Y216066D01*
X459925Y215226D01*
X460359Y214474D01*
X460974Y213859D01*
X461726Y213425D01*
X462566Y213200D01*
X463435D01*
X464274Y213425D01*
X465026Y213859D01*
X465641Y214474D01*
X466075Y215226D01*
X466300Y216066D01*
Y216934D01*
X466075Y217774D01*
X465641Y218526D01*
X465349Y218818D01*
Y220200D01*
X465155Y221175D01*
X464603Y222002D01*
X426873Y259732D01*
X426046Y260284D01*
X425071Y260478D01*
X397264D01*
X396821Y261245D01*
X395816Y262250D01*
X394584Y262961D01*
X393211Y263329D01*
D02*
G37*
G36*
X366343Y218123D02*
X357657D01*
Y209436D01*
X366343D01*
Y218123D01*
D02*
G37*
G36*
X300750Y210258D02*
X297250D01*
X297174Y210226D01*
X297142Y210150D01*
Y204850D01*
X297174Y204773D01*
X297250Y204742D01*
X300750D01*
X300827Y204773D01*
X300858Y204850D01*
Y210150D01*
X300827Y210226D01*
X300750Y210258D01*
D02*
G37*
G36*
X337994Y211750D02*
X337006D01*
X336053Y211494D01*
X335197Y211001D01*
X334499Y210303D01*
X334006Y209447D01*
X333750Y208494D01*
Y207506D01*
X334006Y206553D01*
X334499Y205697D01*
X335197Y204999D01*
X336053Y204506D01*
X337006Y204250D01*
X337994D01*
X338947Y204506D01*
X339803Y204999D01*
X340501Y205697D01*
X340994Y206553D01*
X341250Y207506D01*
Y208494D01*
X340994Y209447D01*
X340501Y210303D01*
X339803Y211001D01*
X338947Y211494D01*
X337994Y211750D01*
D02*
G37*
G36*
X312403D02*
X311416D01*
X310462Y211494D01*
X309607Y211001D01*
X308909Y210303D01*
X308415Y209447D01*
X308159Y208494D01*
Y207506D01*
X308415Y206553D01*
X308909Y205697D01*
X309607Y204999D01*
X310462Y204506D01*
X311416Y204250D01*
X312403D01*
X313357Y204506D01*
X314212Y204999D01*
X314910Y205697D01*
X315404Y206553D01*
X315659Y207506D01*
Y208494D01*
X315404Y209447D01*
X314910Y210303D01*
X314212Y211001D01*
X313357Y211494D01*
X312403Y211750D01*
D02*
G37*
G36*
X447750Y209758D02*
X444250D01*
X444173Y209727D01*
X444142Y209650D01*
Y204350D01*
X444173Y204274D01*
X444250Y204242D01*
X447750D01*
X447826Y204274D01*
X447858Y204350D01*
Y209650D01*
X447826Y209727D01*
X447750Y209758D01*
D02*
G37*
G36*
X261250Y208758D02*
X257750D01*
X257674Y208727D01*
X257642Y208650D01*
Y203350D01*
X257674Y203274D01*
X257750Y203242D01*
X261250D01*
X261327Y203274D01*
X261358Y203350D01*
Y208650D01*
X261327Y208727D01*
X261250Y208758D01*
D02*
G37*
G36*
X362572Y204343D02*
X361428D01*
X360324Y204047D01*
X359333Y203475D01*
X358524Y202667D01*
X357953Y201676D01*
X357657Y200572D01*
Y199428D01*
X357953Y198324D01*
X358524Y197333D01*
X359333Y196525D01*
X360324Y195953D01*
X361428Y195657D01*
X362572D01*
X363677Y195953D01*
X364667Y196525D01*
X365476Y197333D01*
X366047Y198324D01*
X366343Y199428D01*
Y200572D01*
X366047Y201676D01*
X365476Y202667D01*
X364667Y203475D01*
X363677Y204047D01*
X362572Y204343D01*
D02*
G37*
G36*
X351150Y199358D02*
X345850D01*
X345774Y199327D01*
X345742Y199250D01*
Y195750D01*
X345774Y195674D01*
X345850Y195642D01*
X351150D01*
X351226Y195674D01*
X351258Y195750D01*
Y199250D01*
X351226Y199327D01*
X351150Y199358D01*
D02*
G37*
G36*
X261250Y198258D02*
X257750D01*
X257674Y198226D01*
X257642Y198150D01*
Y192850D01*
X257674Y192773D01*
X257750Y192742D01*
X261250D01*
X261327Y192773D01*
X261358Y192850D01*
Y198150D01*
X261327Y198226D01*
X261250Y198258D01*
D02*
G37*
G36*
X440750Y197258D02*
X437250D01*
X437174Y197227D01*
X437142Y197150D01*
Y191850D01*
X437174Y191773D01*
X437250Y191742D01*
X440750D01*
X440827Y191773D01*
X440858Y191850D01*
Y197150D01*
X440827Y197227D01*
X440750Y197258D01*
D02*
G37*
G36*
X300750Y193258D02*
X297250D01*
X297174Y193227D01*
X297142Y193150D01*
Y187850D01*
X297174Y187774D01*
X297250Y187742D01*
X300750D01*
X300827Y187774D01*
X300858Y187850D01*
Y193150D01*
X300827Y193227D01*
X300750Y193258D01*
D02*
G37*
G36*
X341250Y194034D02*
X333750D01*
Y186533D01*
X341250D01*
Y194034D01*
D02*
G37*
G36*
X312403D02*
X311416D01*
X310462Y193778D01*
X309607Y193284D01*
X308909Y192586D01*
X308415Y191731D01*
X308159Y190777D01*
Y189790D01*
X308415Y188836D01*
X308909Y187981D01*
X309607Y187283D01*
X310462Y186789D01*
X311416Y186533D01*
X312403D01*
X313357Y186789D01*
X314212Y187283D01*
X314910Y187981D01*
X315404Y188836D01*
X315659Y189790D01*
Y190777D01*
X315404Y191731D01*
X314910Y192586D01*
X314212Y193284D01*
X313357Y193778D01*
X312403Y194034D01*
D02*
G37*
G36*
X261250Y188758D02*
X257750D01*
X257674Y188726D01*
X257642Y188650D01*
Y183350D01*
X257674Y183273D01*
X257750Y183242D01*
X261250D01*
X261327Y183273D01*
X261358Y183350D01*
Y188650D01*
X261327Y188726D01*
X261250Y188758D01*
D02*
G37*
G36*
X447750Y185758D02*
X444250D01*
X444173Y185726D01*
X444142Y185650D01*
Y180350D01*
X444173Y180273D01*
X444250Y180242D01*
X447750D01*
X447826Y180273D01*
X447858Y180350D01*
Y185650D01*
X447826Y185726D01*
X447750Y185758D01*
D02*
G37*
G36*
X399750Y174758D02*
X396250D01*
X396174Y174726D01*
X396142Y174650D01*
Y169350D01*
X396174Y169273D01*
X396250Y169242D01*
X399750D01*
X399827Y169273D01*
X399858Y169350D01*
Y174650D01*
X399827Y174726D01*
X399750Y174758D01*
D02*
G37*
G36*
X445250Y172758D02*
X441750D01*
X441674Y172727D01*
X441642Y172650D01*
Y167350D01*
X441674Y167273D01*
X441750Y167242D01*
X445250D01*
X445327Y167273D01*
X445358Y167350D01*
Y172650D01*
X445327Y172727D01*
X445250Y172758D01*
D02*
G37*
G36*
Y161258D02*
X441750D01*
X441674Y161226D01*
X441642Y161150D01*
Y155850D01*
X441674Y155773D01*
X441750Y155742D01*
X445250D01*
X445327Y155773D01*
X445358Y155850D01*
Y161150D01*
X445327Y161226D01*
X445250Y161258D01*
D02*
G37*
G36*
X372550Y158158D02*
X363450D01*
X363373Y158126D01*
X363342Y158050D01*
Y152950D01*
X363373Y152874D01*
X363450Y152842D01*
X372550D01*
X372626Y152874D01*
X372658Y152950D01*
Y158050D01*
X372626Y158126D01*
X372550Y158158D01*
D02*
G37*
G36*
X401250Y158258D02*
X397750D01*
X397674Y158227D01*
X397642Y158150D01*
Y152850D01*
X397674Y152773D01*
X397750Y152742D01*
X401250D01*
X401327Y152773D01*
X401358Y152850D01*
Y158150D01*
X401327Y158227D01*
X401250Y158258D01*
D02*
G37*
G36*
X260650Y152358D02*
X255350D01*
X255274Y152327D01*
X255242Y152250D01*
Y148750D01*
X255274Y148673D01*
X255350Y148642D01*
X260650D01*
X260726Y148673D01*
X260758Y148750D01*
Y152250D01*
X260726Y152327D01*
X260650Y152358D01*
D02*
G37*
G36*
X445250Y149758D02*
X441750D01*
X441674Y149726D01*
X441642Y149650D01*
Y144350D01*
X441674Y144273D01*
X441750Y144242D01*
X445250D01*
X445327Y144273D01*
X445358Y144350D01*
Y149650D01*
X445327Y149726D01*
X445250Y149758D01*
D02*
G37*
G36*
X408750Y146758D02*
X405250D01*
X405173Y146727D01*
X405142Y146650D01*
Y141350D01*
X405173Y141273D01*
X405250Y141242D01*
X408750D01*
X408826Y141273D01*
X408858Y141350D01*
Y146650D01*
X408826Y146727D01*
X408750Y146758D01*
D02*
G37*
G36*
X350858Y130900D02*
X350142D01*
X349480Y130626D01*
X348950Y130142D01*
X348420Y130626D01*
X347758Y130900D01*
X347042D01*
X346380Y130626D01*
X345874Y130120D01*
X345600Y129458D01*
Y128742D01*
X345802Y128254D01*
X345874Y128080D01*
X345874Y128080D01*
X346358Y127550D01*
X345874Y127020D01*
X345874Y127020D01*
X345802Y126846D01*
X345600Y126358D01*
Y125642D01*
X345802Y125154D01*
X345874Y124980D01*
X345874Y124980D01*
X346358Y124450D01*
X345874Y123920D01*
X345874Y123920D01*
X345802Y123746D01*
X345600Y123258D01*
Y122542D01*
X345874Y121880D01*
X346380Y121374D01*
X347042Y121100D01*
X347758D01*
X348420Y121374D01*
X348950Y121858D01*
X349480Y121374D01*
X350142Y121100D01*
X350858D01*
X351520Y121374D01*
X352026Y121880D01*
X352300Y122542D01*
Y123258D01*
X352098Y123746D01*
X352026Y123920D01*
X352026Y123920D01*
X351542Y124450D01*
X352026Y124980D01*
X352026Y124980D01*
X352098Y125154D01*
X352300Y125642D01*
Y126358D01*
X352098Y126846D01*
X352026Y127020D01*
X352026Y127020D01*
X351542Y127550D01*
X352026Y128080D01*
X352026Y128080D01*
X352098Y128254D01*
X352300Y128742D01*
Y129458D01*
X352026Y130120D01*
X351520Y130626D01*
X350858Y130900D01*
D02*
G37*
G36*
X411250Y135258D02*
X407750D01*
X407674Y135227D01*
X407642Y135150D01*
Y129850D01*
X407674Y129773D01*
X407750Y129742D01*
X411250D01*
X411327Y129773D01*
X411358Y129850D01*
Y135150D01*
X411327Y135227D01*
X411250Y135258D01*
D02*
G37*
G36*
X272434Y185300D02*
X271566D01*
X270726Y185075D01*
X269974Y184641D01*
X269359Y184026D01*
X268925Y183274D01*
X268700Y182434D01*
Y181566D01*
X268925Y180726D01*
X269359Y179974D01*
X269974Y179359D01*
X270726Y178925D01*
X271566Y178700D01*
X271921D01*
X314563Y136058D01*
X315224Y135616D01*
X316004Y135461D01*
X364155D01*
X369802Y129814D01*
X369700Y129434D01*
Y128566D01*
X369925Y127726D01*
X370359Y126974D01*
X370974Y126359D01*
X371726Y125925D01*
X372566Y125700D01*
X373434D01*
X374274Y125925D01*
X375026Y126359D01*
X375641Y126974D01*
X376075Y127726D01*
X376300Y128566D01*
Y129434D01*
X376075Y130274D01*
X375641Y131026D01*
X375026Y131641D01*
X374274Y132075D01*
X373434Y132300D01*
X373084D01*
X366442Y138942D01*
X365780Y139384D01*
X365000Y139539D01*
X316849D01*
X305720Y150668D01*
X306103Y151592D01*
X309650D01*
X309727Y151623D01*
X309758Y151700D01*
Y155200D01*
X309727Y155277D01*
X309650Y155308D01*
X304350D01*
X304274Y155277D01*
X304242Y155200D01*
Y153453D01*
X303318Y153070D01*
X275199Y181189D01*
X275300Y181566D01*
Y182434D01*
X275075Y183274D01*
X274641Y184026D01*
X274026Y184641D01*
X273274Y185075D01*
X272434Y185300D01*
D02*
G37*
G36*
X319250Y128758D02*
X315750D01*
X315673Y128726D01*
X315642Y128650D01*
Y123350D01*
X315673Y123274D01*
X315750Y123242D01*
X319250D01*
X319326Y123274D01*
X319358Y123350D01*
Y128650D01*
X319326Y128726D01*
X319250Y128758D01*
D02*
G37*
G36*
X280200Y125258D02*
X276700D01*
X276624Y125226D01*
X276592Y125150D01*
Y119850D01*
X276624Y119773D01*
X276700Y119742D01*
X280200D01*
X280276Y119773D01*
X280308Y119850D01*
Y125150D01*
X280276Y125226D01*
X280200Y125258D01*
D02*
G37*
G36*
X413310Y126050D02*
X412375D01*
X411472Y125808D01*
X410663Y125341D01*
X410002Y124680D01*
X409535Y123870D01*
X409293Y122967D01*
Y122033D01*
X409535Y121130D01*
X410002Y120320D01*
X410663Y119659D01*
X411472Y119192D01*
X412375Y118950D01*
X413310D01*
X414213Y119192D01*
X415022Y119659D01*
X415683Y120320D01*
X416151Y121130D01*
X416393Y122033D01*
Y122967D01*
X416151Y123870D01*
X415683Y124680D01*
X415022Y125341D01*
X414213Y125808D01*
X413310Y126050D01*
D02*
G37*
G36*
X403467D02*
X402533D01*
X401630Y125808D01*
X400820Y125341D01*
X400159Y124680D01*
X399692Y123870D01*
X399450Y122967D01*
Y122033D01*
X399692Y121130D01*
X400159Y120320D01*
X400820Y119659D01*
X401630Y119192D01*
X402533Y118950D01*
X403467D01*
X404370Y119192D01*
X405180Y119659D01*
X405841Y120320D01*
X406308Y121130D01*
X406550Y122033D01*
Y122967D01*
X406308Y123870D01*
X405841Y124680D01*
X405180Y125341D01*
X404370Y125808D01*
X403467Y126050D01*
D02*
G37*
G36*
X393625D02*
X392690D01*
X391787Y125808D01*
X390978Y125341D01*
X390317Y124680D01*
X389849Y123870D01*
X389608Y122967D01*
Y122033D01*
X389849Y121130D01*
X390317Y120320D01*
X390978Y119659D01*
X391787Y119192D01*
X392690Y118950D01*
X393625D01*
X394528Y119192D01*
X395337Y119659D01*
X395998Y120320D01*
X396465Y121130D01*
X396708Y122033D01*
Y122967D01*
X396465Y123870D01*
X395998Y124680D01*
X395337Y125341D01*
X394528Y125808D01*
X393625Y126050D01*
D02*
G37*
G36*
X454572Y125343D02*
X453428D01*
X452323Y125047D01*
X451333Y124476D01*
X450525Y123667D01*
X449953Y122676D01*
X449657Y121572D01*
Y120428D01*
X449953Y119324D01*
X450525Y118333D01*
X451333Y117525D01*
X452323Y116953D01*
X453428Y116657D01*
X454572D01*
X455677Y116953D01*
X456667Y117525D01*
X457476Y118333D01*
X458047Y119324D01*
X458343Y120428D01*
Y121572D01*
X458047Y122676D01*
X457476Y123667D01*
X456667Y124476D01*
X455677Y125047D01*
X454572Y125343D01*
D02*
G37*
G36*
X313250Y116758D02*
X309750D01*
X309674Y116727D01*
X309642Y116650D01*
Y111350D01*
X309674Y111274D01*
X309750Y111242D01*
X313250D01*
X313327Y111274D01*
X313358Y111350D01*
Y116650D01*
X313327Y116727D01*
X313250Y116758D01*
D02*
G37*
G36*
X372250Y115758D02*
X368750D01*
X368673Y115726D01*
X368642Y115650D01*
Y110350D01*
X368673Y110274D01*
X368750Y110242D01*
X372250D01*
X372326Y110274D01*
X372358Y110350D01*
Y115650D01*
X372326Y115726D01*
X372250Y115758D01*
D02*
G37*
G36*
X353200Y114258D02*
X349700D01*
X349623Y114226D01*
X349592Y114150D01*
Y108850D01*
X349623Y108774D01*
X349700Y108742D01*
X353200D01*
X353276Y108774D01*
X353308Y108850D01*
Y114150D01*
X353276Y114226D01*
X353200Y114258D01*
D02*
G37*
%LPD*%
D10*
X304280Y268650D02*
X315150D01*
X299630Y264000D02*
X304280Y268650D01*
X271671D02*
X282540D01*
X287190Y264000D01*
X315150Y268650D02*
X320500Y274000D01*
Y284500D01*
X261500Y258479D02*
X271671Y268650D01*
X287190Y264000D02*
X299630D01*
X256500Y226000D02*
X282500D01*
X311000Y254500D01*
X351000Y343000D02*
X392500Y291000D01*
D12*
X333500Y279500D02*
X351491D01*
X356526Y274465D01*
X375965D01*
X310500Y315000D02*
X311000Y314500D01*
X285500Y315500D02*
X286000Y315000D01*
X310500D01*
X292500Y274500D02*
Y286000D01*
X311000Y304500D01*
X326500Y408500D02*
X408591D01*
X440000Y377091D01*
X322000Y368500D02*
Y404000D01*
X326500Y408500D01*
X318000Y364500D02*
X322000Y368500D01*
X311000Y364500D02*
X318000D01*
X365000Y137500D02*
X373000Y129500D01*
Y129000D02*
Y129500D01*
X316004Y137500D02*
X365000D01*
X272000Y181504D02*
Y182000D01*
Y181504D02*
X316004Y137500D01*
D27*
X462800Y216700D02*
Y220200D01*
X425071Y257929D02*
X462800Y220200D01*
X392500Y257929D02*
X425071D01*
X462800Y216700D02*
X463000Y216500D01*
D28*
X330000Y283000D02*
X333500Y279500D01*
X330000Y283000D02*
Y319433D01*
X324933Y324500D02*
X330000Y319433D01*
X329500Y275500D02*
X333500Y279500D01*
X329500Y190500D02*
Y275500D01*
X324950Y324500D02*
X331500Y331050D01*
X324933Y324500D02*
X324950D01*
X311000D02*
X324933D01*
X318500Y179500D02*
X329500Y190500D01*
X331500Y331050D02*
Y375000D01*
X350500Y384500D02*
X375632Y359368D01*
X341000Y384500D02*
X350500D01*
X331500Y375000D02*
X341000Y384500D01*
X375632Y354097D02*
Y359368D01*
Y354097D02*
X376461Y353268D01*
X298500Y170000D02*
X308000Y179500D01*
X318500D01*
X286126Y417332D02*
X291459Y412000D01*
X285668Y417332D02*
X286126D01*
X282500Y420500D02*
X285668Y417332D01*
X291459Y412000D02*
X292000D01*
X282500Y420500D02*
Y436500D01*
X271250Y447750D02*
X282500Y436500D01*
X263500Y448000D02*
X263750Y447750D01*
X271250D01*
D30*
X371004Y266197D02*
D03*
X371500Y345000D02*
D03*
D31*
X375965Y257929D02*
D03*
Y274465D02*
D03*
Y291000D02*
D03*
X392500Y257929D02*
D03*
Y274465D02*
D03*
Y291000D02*
D03*
X392996Y369803D02*
D03*
Y353268D02*
D03*
Y336732D02*
D03*
X376461Y369803D02*
D03*
Y353268D02*
D03*
Y336732D02*
D03*
D32*
X393158Y122500D02*
D03*
X403000D02*
D03*
X412843D02*
D03*
Y109508D02*
D03*
X403000D02*
D03*
X393158D02*
D03*
X302000Y442000D02*
D03*
Y432000D02*
D03*
Y422000D02*
D03*
Y412000D02*
D03*
X292000D02*
D03*
Y422000D02*
D03*
Y432000D02*
D03*
Y442000D02*
D03*
D33*
X440000Y377091D02*
D03*
D34*
Y351500D02*
D03*
D35*
X262000Y413100D02*
D03*
X261500Y244700D02*
D03*
Y371000D02*
D03*
Y328900D02*
D03*
Y286800D02*
D03*
X362000Y186221D02*
D03*
Y200000D02*
D03*
X454000Y121000D02*
D03*
D36*
X262000Y426880D02*
D03*
X261500Y258479D02*
D03*
Y384780D02*
D03*
Y342680D02*
D03*
Y300580D02*
D03*
X362000Y213779D02*
D03*
D37*
X311000Y374500D02*
D03*
D38*
Y364500D02*
D03*
Y354500D02*
D03*
Y344500D02*
D03*
Y334500D02*
D03*
Y324500D02*
D03*
Y314500D02*
D03*
Y304500D02*
D03*
Y294500D02*
D03*
Y284500D02*
D03*
Y274500D02*
D03*
Y264500D02*
D03*
Y254500D02*
D03*
Y244500D02*
D03*
X341000D02*
D03*
Y254500D02*
D03*
Y264500D02*
D03*
Y274500D02*
D03*
Y284500D02*
D03*
Y294500D02*
D03*
Y304500D02*
D03*
Y314500D02*
D03*
Y324500D02*
D03*
Y334500D02*
D03*
Y344500D02*
D03*
Y354500D02*
D03*
Y364500D02*
D03*
Y374500D02*
D03*
D39*
X440220Y121000D02*
D03*
D40*
X350500Y129100D02*
D03*
Y126000D02*
D03*
Y122900D02*
D03*
X347400Y129100D02*
D03*
Y126000D02*
D03*
Y122900D02*
D03*
D41*
X311909Y190284D02*
D03*
Y208000D02*
D03*
X337500D02*
D03*
D42*
Y190284D02*
D03*
D43*
X297000Y356000D02*
D03*
X308000Y126000D02*
D03*
X310000Y133000D02*
D03*
X302500Y140500D02*
D03*
X430000Y196500D02*
D03*
X346000Y155500D02*
D03*
X420500Y176500D02*
D03*
X420000Y210000D02*
D03*
X351000Y314500D02*
D03*
X301000Y214500D02*
D03*
X258000Y140000D02*
D03*
X265000Y131000D02*
D03*
X267500Y122500D02*
D03*
X302500Y114000D02*
D03*
X342500Y109500D02*
D03*
X288500Y190500D02*
D03*
X270000Y216000D02*
D03*
X289000Y207500D02*
D03*
X463000Y216500D02*
D03*
X292500Y274500D02*
D03*
X256500Y226000D02*
D03*
X320500Y284500D02*
D03*
X298500Y170000D02*
D03*
X263500Y448000D02*
D03*
X373000Y129000D02*
D03*
X272000Y182000D02*
D03*
X285500Y315500D02*
D03*
X351000Y343000D02*
D03*
X421000Y133000D02*
D03*
D44*
X420469Y184531D02*
D03*
X416532D02*
D03*
X420469Y188469D02*
D03*
X416532D02*
D03*
%TF.MD5,21a31187ae67515ddda52d3dddcff08d*%
M02*
