%TF.GenerationSoftware,KiCad,Pcbnew,9.0.0*%
%TF.CreationDate,2025-03-14T18:44:21-06:00*%
%TF.ProjectId,MotorControllerBoardV2,4d6f746f-7243-46f6-9e74-726f6c6c6572,rev?*%
%TF.SameCoordinates,Original*%
%TF.FileFunction,Paste,Top*%
%TF.FilePolarity,Positive*%
%FSLAX46Y46*%
G04 Gerber Fmt 4.6, Leading zero omitted, Abs format (unit mm)*
G04 Created by KiCad (PCBNEW 9.0.0) date 2025-03-14 18:44:21*
%MOMM*%
%LPD*%
G01*
G04 APERTURE LIST*
%ADD10C,0.010000*%
%ADD11R,0.850000X0.280000*%
%ADD12R,3.300000X2.500000*%
G04 APERTURE END LIST*
D10*
%TO.C,U4*%
X188532500Y-97680000D02*
X188252500Y-97680000D01*
X188252500Y-96980000D01*
X188532500Y-96980000D01*
X188532500Y-97680000D01*
G36*
X188532500Y-97680000D02*
G01*
X188252500Y-97680000D01*
X188252500Y-96980000D01*
X188532500Y-96980000D01*
X188532500Y-97680000D01*
G37*
X188032500Y-97680000D02*
X187752500Y-97680000D01*
X187752500Y-96980000D01*
X188032500Y-96980000D01*
X188032500Y-97680000D01*
G36*
X188032500Y-97680000D02*
G01*
X187752500Y-97680000D01*
X187752500Y-96980000D01*
X188032500Y-96980000D01*
X188032500Y-97680000D01*
G37*
X188032500Y-94580000D02*
X187752500Y-94580000D01*
X187752500Y-93880000D01*
X188032500Y-93880000D01*
X188032500Y-94580000D01*
G36*
X188032500Y-94580000D02*
G01*
X187752500Y-94580000D01*
X187752500Y-93880000D01*
X188032500Y-93880000D01*
X188032500Y-94580000D01*
G37*
X188532500Y-94580000D02*
X188252500Y-94580000D01*
X188252500Y-93880000D01*
X188532500Y-93880000D01*
X188532500Y-94580000D01*
G36*
X188532500Y-94580000D02*
G01*
X188252500Y-94580000D01*
X188252500Y-93880000D01*
X188532500Y-93880000D01*
X188532500Y-94580000D01*
G37*
X188662500Y-96540000D02*
X187622500Y-96540000D01*
X187622500Y-95020000D01*
X188662500Y-95020000D01*
X188662500Y-96540000D01*
G36*
X188662500Y-96540000D02*
G01*
X187622500Y-96540000D01*
X187622500Y-95020000D01*
X188662500Y-95020000D01*
X188662500Y-96540000D01*
G37*
%TO.C,U3*%
X194130000Y-121570000D02*
X193850000Y-121570000D01*
X193850000Y-120870000D01*
X194130000Y-120870000D01*
X194130000Y-121570000D01*
G36*
X194130000Y-121570000D02*
G01*
X193850000Y-121570000D01*
X193850000Y-120870000D01*
X194130000Y-120870000D01*
X194130000Y-121570000D01*
G37*
X193630000Y-121570000D02*
X193350000Y-121570000D01*
X193350000Y-120870000D01*
X193630000Y-120870000D01*
X193630000Y-121570000D01*
G36*
X193630000Y-121570000D02*
G01*
X193350000Y-121570000D01*
X193350000Y-120870000D01*
X193630000Y-120870000D01*
X193630000Y-121570000D01*
G37*
X193630000Y-118470000D02*
X193350000Y-118470000D01*
X193350000Y-117770000D01*
X193630000Y-117770000D01*
X193630000Y-118470000D01*
G36*
X193630000Y-118470000D02*
G01*
X193350000Y-118470000D01*
X193350000Y-117770000D01*
X193630000Y-117770000D01*
X193630000Y-118470000D01*
G37*
X194130000Y-118470000D02*
X193850000Y-118470000D01*
X193850000Y-117770000D01*
X194130000Y-117770000D01*
X194130000Y-118470000D01*
G36*
X194130000Y-118470000D02*
G01*
X193850000Y-118470000D01*
X193850000Y-117770000D01*
X194130000Y-117770000D01*
X194130000Y-118470000D01*
G37*
X194260000Y-120430000D02*
X193220000Y-120430000D01*
X193220000Y-118910000D01*
X194260000Y-118910000D01*
X194260000Y-120430000D01*
G36*
X194260000Y-120430000D02*
G01*
X193220000Y-120430000D01*
X193220000Y-118910000D01*
X194260000Y-118910000D01*
X194260000Y-120430000D01*
G37*
%TD*%
D11*
%TO.C,U4*%
X189617500Y-96780000D03*
X189617500Y-96280000D03*
X189617500Y-95780000D03*
X189617500Y-95280000D03*
X189617500Y-94780000D03*
X186667500Y-94780000D03*
X186667500Y-95280000D03*
X186667500Y-95780000D03*
X186667500Y-96280000D03*
X186667500Y-96780000D03*
%TD*%
%TO.C,U3*%
X195215000Y-120670000D03*
X195215000Y-120170000D03*
X195215000Y-119670000D03*
X195215000Y-119170000D03*
X195215000Y-118670000D03*
X192265000Y-118670000D03*
X192265000Y-119170000D03*
X192265000Y-119670000D03*
X192265000Y-120170000D03*
X192265000Y-120670000D03*
%TD*%
D12*
%TO.C,D3*%
X130392500Y-91210000D03*
X130392500Y-84310000D03*
%TD*%
%TO.C,D4*%
X122512500Y-91242500D03*
X122512500Y-84342500D03*
%TD*%
%TO.C,D5*%
X146042500Y-104965000D03*
X146042500Y-98065000D03*
%TD*%
%TO.C,D1*%
X146072500Y-91122500D03*
X146072500Y-84222500D03*
%TD*%
%TO.C,D10*%
X130482500Y-135837500D03*
X130482500Y-128937500D03*
%TD*%
%TO.C,D2*%
X138242500Y-91120000D03*
X138242500Y-84220000D03*
%TD*%
%TO.C,D6*%
X138212500Y-105022500D03*
X138212500Y-98122500D03*
%TD*%
%TO.C,D7*%
X130482500Y-105057500D03*
X130482500Y-98157500D03*
%TD*%
%TO.C,D13*%
X138352500Y-122382500D03*
X138352500Y-115482500D03*
%TD*%
%TO.C,D14*%
X130552500Y-122235000D03*
X130552500Y-115335000D03*
%TD*%
%TO.C,D8*%
X122722500Y-105035000D03*
X122722500Y-98135000D03*
%TD*%
%TO.C,D11*%
X146452500Y-135942500D03*
X146452500Y-129042500D03*
%TD*%
%TO.C,D15*%
X146402500Y-122382500D03*
X146402500Y-115482500D03*
%TD*%
%TO.C,D16*%
X122722500Y-122295000D03*
X122722500Y-115395000D03*
%TD*%
%TO.C,D12*%
X122652500Y-135672500D03*
X122652500Y-128772500D03*
%TD*%
%TO.C,D9*%
X138372500Y-135882500D03*
X138372500Y-128982500D03*
%TD*%
M02*
