%TF.GenerationSoftware,KiCad,Pcbnew,9.0.0*%
%TF.CreationDate,2025-03-14T18:44:21-06:00*%
%TF.ProjectId,MotorControllerBoardV2,4d6f746f-7243-46f6-9e74-726f6c6c6572,rev?*%
%TF.SameCoordinates,Original*%
%TF.FileFunction,Soldermask,Top*%
%TF.FilePolarity,Negative*%
%FSLAX46Y46*%
G04 Gerber Fmt 4.6, Leading zero omitted, Abs format (unit mm)*
G04 Created by KiCad (PCBNEW 9.0.0) date 2025-03-14 18:44:21*
%MOMM*%
%LPD*%
G01*
G04 APERTURE LIST*
G04 Aperture macros list*
%AMRoundRect*
0 Rectangle with rounded corners*
0 $1 Rounding radius*
0 $2 $3 $4 $5 $6 $7 $8 $9 X,Y pos of 4 corners*
0 Add a 4 corners polygon primitive as box body*
4,1,4,$2,$3,$4,$5,$6,$7,$8,$9,$2,$3,0*
0 Add four circle primitives for the rounded corners*
1,1,$1+$1,$2,$3*
1,1,$1+$1,$4,$5*
1,1,$1+$1,$6,$7*
1,1,$1+$1,$8,$9*
0 Add four rect primitives between the rounded corners*
20,1,$1+$1,$2,$3,$4,$5,0*
20,1,$1+$1,$4,$5,$6,$7,0*
20,1,$1+$1,$6,$7,$8,$9,0*
20,1,$1+$1,$8,$9,$2,$3,0*%
G04 Aperture macros list end*
%ADD10C,0.010000*%
%ADD11C,1.226200*%
%ADD12C,0.846200*%
%ADD13C,1.600000*%
%ADD14RoundRect,0.102000X0.425000X0.140000X-0.425000X0.140000X-0.425000X-0.140000X0.425000X-0.140000X0*%
%ADD15O,1.600000X1.600000*%
%ADD16RoundRect,0.102000X1.650000X-1.250000X1.650000X1.250000X-1.650000X1.250000X-1.650000X-1.250000X0*%
%ADD17RoundRect,0.250000X-1.050000X1.050000X-1.050000X-1.050000X1.050000X-1.050000X1.050000X1.050000X0*%
%ADD18C,2.600000*%
%ADD19C,2.000000*%
%ADD20C,1.540000*%
%ADD21R,1.700000X1.700000*%
%ADD22O,1.700000X1.700000*%
%ADD23RoundRect,0.250000X0.550000X-0.550000X0.550000X0.550000X-0.550000X0.550000X-0.550000X-0.550000X0*%
%ADD24R,1.695000X1.695000*%
%ADD25C,1.695000*%
%ADD26C,2.200000*%
G04 APERTURE END LIST*
D10*
%TO.C,U4*%
X188132500Y-94480000D02*
X188152500Y-94480000D01*
X188152500Y-93780000D01*
X188632500Y-93780000D01*
X188632500Y-94480000D01*
X189067500Y-94480000D01*
X189067500Y-97080000D01*
X188632500Y-97080000D01*
X188632500Y-97780000D01*
X188152500Y-97780000D01*
X188152500Y-97080000D01*
X188132500Y-97080000D01*
X188132500Y-97780000D01*
X187652500Y-97780000D01*
X187652500Y-97080000D01*
X187217500Y-97080000D01*
X187217500Y-94480000D01*
X187652500Y-94480000D01*
X187652500Y-93780000D01*
X188132500Y-93780000D01*
X188132500Y-94480000D01*
G36*
X188132500Y-94480000D02*
G01*
X188152500Y-94480000D01*
X188152500Y-93780000D01*
X188632500Y-93780000D01*
X188632500Y-94480000D01*
X189067500Y-94480000D01*
X189067500Y-97080000D01*
X188632500Y-97080000D01*
X188632500Y-97780000D01*
X188152500Y-97780000D01*
X188152500Y-97080000D01*
X188132500Y-97080000D01*
X188132500Y-97780000D01*
X187652500Y-97780000D01*
X187652500Y-97080000D01*
X187217500Y-97080000D01*
X187217500Y-94480000D01*
X187652500Y-94480000D01*
X187652500Y-93780000D01*
X188132500Y-93780000D01*
X188132500Y-94480000D01*
G37*
%TO.C,U3*%
X193730000Y-118370000D02*
X193750000Y-118370000D01*
X193750000Y-117670000D01*
X194230000Y-117670000D01*
X194230000Y-118370000D01*
X194665000Y-118370000D01*
X194665000Y-120970000D01*
X194230000Y-120970000D01*
X194230000Y-121670000D01*
X193750000Y-121670000D01*
X193750000Y-120970000D01*
X193730000Y-120970000D01*
X193730000Y-121670000D01*
X193250000Y-121670000D01*
X193250000Y-120970000D01*
X192815000Y-120970000D01*
X192815000Y-118370000D01*
X193250000Y-118370000D01*
X193250000Y-117670000D01*
X193730000Y-117670000D01*
X193730000Y-118370000D01*
G36*
X193730000Y-118370000D02*
G01*
X193750000Y-118370000D01*
X193750000Y-117670000D01*
X194230000Y-117670000D01*
X194230000Y-118370000D01*
X194665000Y-118370000D01*
X194665000Y-120970000D01*
X194230000Y-120970000D01*
X194230000Y-121670000D01*
X193750000Y-121670000D01*
X193750000Y-120970000D01*
X193730000Y-120970000D01*
X193730000Y-121670000D01*
X193250000Y-121670000D01*
X193250000Y-120970000D01*
X192815000Y-120970000D01*
X192815000Y-118370000D01*
X193250000Y-118370000D01*
X193250000Y-117670000D01*
X193730000Y-117670000D01*
X193730000Y-118370000D01*
G37*
D11*
%TO.C,J1*%
X110713100Y-53460000D02*
G75*
G02*
X109486900Y-53460000I-613100J0D01*
G01*
X109486900Y-53460000D02*
G75*
G02*
X110713100Y-53460000I613100J0D01*
G01*
X106513100Y-53460000D02*
G75*
G02*
X105286900Y-53460000I-613100J0D01*
G01*
X105286900Y-53460000D02*
G75*
G02*
X106513100Y-53460000I613100J0D01*
G01*
X114913100Y-49260000D02*
G75*
G02*
X113686900Y-49260000I-613100J0D01*
G01*
X113686900Y-49260000D02*
G75*
G02*
X114913100Y-49260000I613100J0D01*
G01*
X110713100Y-49260000D02*
G75*
G02*
X109486900Y-49260000I-613100J0D01*
G01*
X109486900Y-49260000D02*
G75*
G02*
X110713100Y-49260000I613100J0D01*
G01*
X106513100Y-49260000D02*
G75*
G02*
X105286900Y-49260000I-613100J0D01*
G01*
X105286900Y-49260000D02*
G75*
G02*
X106513100Y-49260000I613100J0D01*
G01*
D12*
X108423100Y-48000000D02*
G75*
G02*
X107576900Y-48000000I-423100J0D01*
G01*
X107576900Y-48000000D02*
G75*
G02*
X108423100Y-48000000I423100J0D01*
G01*
D10*
X115526200Y-54686200D02*
X113073800Y-54686200D01*
X113073800Y-52233800D01*
X115526200Y-52233800D01*
X115526200Y-54686200D01*
G36*
X115526200Y-54686200D02*
G01*
X113073800Y-54686200D01*
X113073800Y-52233800D01*
X115526200Y-52233800D01*
X115526200Y-54686200D01*
G37*
%TD*%
D13*
%TO.C,C10*%
X195140000Y-124610000D03*
X195140000Y-127110000D03*
%TD*%
%TO.C,C9*%
X195730000Y-115270000D03*
X193230000Y-115270000D03*
%TD*%
D14*
%TO.C,U4*%
X189617500Y-96780000D03*
X189617500Y-96280000D03*
X189617500Y-95780000D03*
X189617500Y-95280000D03*
X189617500Y-94780000D03*
X186667500Y-94780000D03*
X186667500Y-95280000D03*
X186667500Y-95780000D03*
X186667500Y-96280000D03*
X186667500Y-96780000D03*
%TD*%
%TO.C,U3*%
X195215000Y-120670000D03*
X195215000Y-120170000D03*
X195215000Y-119670000D03*
X195215000Y-119170000D03*
X195215000Y-118670000D03*
X192265000Y-118670000D03*
X192265000Y-119170000D03*
X192265000Y-119670000D03*
X192265000Y-120170000D03*
X192265000Y-120670000D03*
%TD*%
D13*
%TO.C,C14*%
X155820000Y-129970000D03*
X155820000Y-127470000D03*
%TD*%
%TO.C,R2*%
X190540000Y-133420000D03*
D15*
X190540000Y-125800000D03*
%TD*%
D13*
%TO.C,C7*%
X173010000Y-54410000D03*
X173010000Y-56910000D03*
%TD*%
%TO.C,R3*%
X193020000Y-47320000D03*
D15*
X185400000Y-47320000D03*
%TD*%
D16*
%TO.C,D3*%
X130392500Y-91210000D03*
X130392500Y-84310000D03*
%TD*%
%TO.C,D4*%
X122512500Y-91242500D03*
X122512500Y-84342500D03*
%TD*%
%TO.C,D5*%
X146042500Y-104965000D03*
X146042500Y-98065000D03*
%TD*%
%TO.C,D1*%
X146072500Y-91122500D03*
X146072500Y-84222500D03*
%TD*%
%TO.C,D10*%
X130482500Y-135837500D03*
X130482500Y-128937500D03*
%TD*%
%TO.C,D2*%
X138242500Y-91120000D03*
X138242500Y-84220000D03*
%TD*%
%TO.C,D6*%
X138212500Y-105022500D03*
X138212500Y-98122500D03*
%TD*%
%TO.C,D7*%
X130482500Y-105057500D03*
X130482500Y-98157500D03*
%TD*%
%TO.C,D13*%
X138352500Y-122382500D03*
X138352500Y-115482500D03*
%TD*%
%TO.C,D14*%
X130552500Y-122235000D03*
X130552500Y-115335000D03*
%TD*%
%TO.C,D8*%
X122722500Y-105035000D03*
X122722500Y-98135000D03*
%TD*%
%TO.C,D11*%
X146452500Y-135942500D03*
X146452500Y-129042500D03*
%TD*%
%TO.C,D15*%
X146402500Y-122382500D03*
X146402500Y-115482500D03*
%TD*%
%TO.C,D16*%
X122722500Y-122295000D03*
X122722500Y-115395000D03*
%TD*%
D17*
%TO.C,MLF1*%
X111162500Y-86060000D03*
D18*
X111162500Y-91060000D03*
%TD*%
D17*
%TO.C,MRB1*%
X109942500Y-130260000D03*
D18*
X109942500Y-135260000D03*
%TD*%
D17*
%TO.C,MRF1*%
X109942500Y-118260000D03*
D18*
X109942500Y-123260000D03*
%TD*%
D16*
%TO.C,D12*%
X122652500Y-135672500D03*
X122652500Y-128772500D03*
%TD*%
D17*
%TO.C,MLB1*%
X111162500Y-98060000D03*
D18*
X111162500Y-103060000D03*
%TD*%
D13*
%TO.C,C5*%
X186910000Y-89940000D03*
X189410000Y-89940000D03*
%TD*%
%TO.C,C2*%
X193280000Y-95160000D03*
X195780000Y-95160000D03*
%TD*%
%TO.C,C3*%
X187080000Y-84830000D03*
X189580000Y-84830000D03*
%TD*%
%TO.C,C13*%
X183240000Y-121020000D03*
X183240000Y-118520000D03*
%TD*%
%TO.C,C1*%
X155000000Y-97750000D03*
X155000000Y-100250000D03*
%TD*%
%TO.C,C6*%
X150530000Y-45460000D03*
X148030000Y-45460000D03*
%TD*%
%TO.C,C8*%
X116880000Y-81040000D03*
X116880000Y-78540000D03*
%TD*%
%TO.C,C4*%
X191830000Y-99100000D03*
X191830000Y-101600000D03*
%TD*%
%TO.C,C11*%
X117550000Y-113610000D03*
X117550000Y-111110000D03*
%TD*%
%TO.C,C12*%
X187750000Y-118640000D03*
X187750000Y-121140000D03*
%TD*%
%TO.C,C15*%
X190080000Y-53790000D03*
X187580000Y-53790000D03*
%TD*%
D19*
%TO.C,SW1*%
X177640000Y-53050000D03*
X184140000Y-53050000D03*
X177640000Y-57550000D03*
X184140000Y-57550000D03*
%TD*%
D20*
%TO.C,J1*%
X108000000Y-48000000D03*
%TD*%
D13*
%TO.C,R1*%
X186770000Y-107750000D03*
D15*
X186770000Y-100130000D03*
%TD*%
D21*
%TO.C,UPDIHeader1*%
X194410000Y-58080000D03*
D22*
X194410000Y-55540000D03*
X194410000Y-53000000D03*
%TD*%
D23*
%TO.C,U1*%
X130380000Y-57620000D03*
D13*
X132920000Y-57620000D03*
X135460000Y-57620000D03*
X138000000Y-57620000D03*
X140540000Y-57620000D03*
X143080000Y-57620000D03*
X145620000Y-57620000D03*
X148160000Y-57620000D03*
X150700000Y-57620000D03*
X153240000Y-57620000D03*
X155780000Y-57620000D03*
X158320000Y-57620000D03*
X160860000Y-57620000D03*
X163400000Y-57620000D03*
X163400000Y-50000000D03*
X160860000Y-50000000D03*
X158320000Y-50000000D03*
X155780000Y-50000000D03*
X153240000Y-50000000D03*
X150700000Y-50000000D03*
X148160000Y-50000000D03*
X145620000Y-50000000D03*
X143080000Y-50000000D03*
X140540000Y-50000000D03*
X138000000Y-50000000D03*
X135460000Y-50000000D03*
X132920000Y-50000000D03*
X130380000Y-50000000D03*
%TD*%
D24*
%TO.C,U5*%
X159920000Y-118650000D03*
D25*
X165000000Y-119920000D03*
X159920000Y-121190000D03*
X165000000Y-122460000D03*
X159920000Y-123730000D03*
X165000000Y-125000000D03*
X159920000Y-126270000D03*
D26*
X170850000Y-118540000D03*
D25*
X165000000Y-127540000D03*
D26*
X170850000Y-136540000D03*
D25*
X159920000Y-128810000D03*
X165000000Y-130080000D03*
X159920000Y-131350000D03*
X165000000Y-132620000D03*
X159920000Y-133890000D03*
X165000000Y-135160000D03*
X159920000Y-136430000D03*
%TD*%
D16*
%TO.C,D9*%
X138372500Y-135882500D03*
X138372500Y-128982500D03*
%TD*%
D24*
%TO.C,U2*%
X160400000Y-87650000D03*
D25*
X165480000Y-88920000D03*
X160400000Y-90190000D03*
X165480000Y-91460000D03*
X160400000Y-92730000D03*
X165480000Y-94000000D03*
X160400000Y-95270000D03*
D26*
X171330000Y-87540000D03*
D25*
X165480000Y-96540000D03*
D26*
X171330000Y-105540000D03*
D25*
X160400000Y-97810000D03*
X165480000Y-99080000D03*
X160400000Y-100350000D03*
X165480000Y-101620000D03*
X160400000Y-102890000D03*
X165480000Y-104160000D03*
X160400000Y-105430000D03*
%TD*%
M02*
