M48
; DRILL file {KiCad 9.0.0} date 2025-03-14T18:44:18-0600
; FORMAT={-:-/ absolute / metric / decimal}
; #@! TF.CreationDate,2025-03-14T18:44:18-06:00
; #@! TF.GenerationSoftware,Kicad,Pcbnew,9.0.0
; #@! TF.FileFunction,Plated,1,4,PTH
FMAT,2
METRIC
; #@! TA.AperFunction,Plated,PTH,ViaDrill
T1C0.400
; #@! TA.AperFunction,Plated,PTH,ViaDrill
T2C0.800
; #@! TA.AperFunction,Plated,PTH,ComponentDrill
T3C0.800
; #@! TA.AperFunction,Plated,PTH,ComponentDrill
T4C1.000
; #@! TA.AperFunction,Plated,PTH,ComponentDrill
T5C1.100
; #@! TA.AperFunction,Plated,PTH,ComponentDrill
T6C1.130
; #@! TA.AperFunction,Plated,PTH,ComponentDrill
T7C1.300
; #@! TA.AperFunction,Plated,PTH,ComponentDrill
T8C1.800
%
G90
G05
T1
X121.37Y-138.25
X122.15Y-107.53
X167.4Y-84.4
X167.4Y-92.1
X168.8Y-81.2
X168.9Y-93.7
X170.61Y-99.17
X170.93Y-101.61
X172.9Y-89.7
X172.95Y-92.9
X173.7Y-69.7
X173.72Y-118.84
X174.0Y-100.3
X176.6Y-93.3
X176.61Y-118.3
X176.7Y-89.2
T2
X115.963Y-139.497
X117.58Y-88.75
X118.01Y-95.22
X118.06Y-102.0
X118.48Y-132.701
X124.14Y-125.45
X126.618Y-103.45
X126.68Y-107.26
X126.76Y-94.66
X127.99Y-126.04
X133.39Y-95.0
X134.67Y-122.16
X135.75Y-126.1
X136.28Y-94.11
X140.61Y-94.66
X141.98Y-78.23
X142.44Y-122.339
X144.0Y-94.62
X144.7Y-125.99
X148.34Y-125.84
X151.47Y-126.33
X151.52Y-132.1
X152.49Y-121.78
T3
X116.88Y-78.54
X116.88Y-81.04
X117.55Y-111.11
X117.55Y-113.61
X130.38Y-50.0
X130.38Y-57.62
X132.92Y-50.0
X132.92Y-57.62
X135.46Y-50.0
X135.46Y-57.62
X138.0Y-50.0
X138.0Y-57.62
X140.54Y-50.0
X140.54Y-57.62
X143.08Y-50.0
X143.08Y-57.62
X145.62Y-50.0
X145.62Y-57.62
X148.03Y-45.46
X148.16Y-50.0
X148.16Y-57.62
X150.53Y-45.46
X150.7Y-50.0
X150.7Y-57.62
X153.24Y-50.0
X153.24Y-57.62
X155.0Y-97.75
X155.0Y-100.25
X155.78Y-50.0
X155.78Y-57.62
X155.82Y-127.47
X155.82Y-129.97
X158.32Y-50.0
X158.32Y-57.62
X160.86Y-50.0
X160.86Y-57.62
X163.4Y-50.0
X163.4Y-57.62
X173.01Y-54.41
X173.01Y-56.91
X183.24Y-118.52
X183.24Y-121.02
X185.4Y-47.32
X186.77Y-100.13
X186.77Y-107.75
X186.91Y-89.94
X187.08Y-84.83
X187.58Y-53.79
X187.75Y-118.64
X187.75Y-121.14
X189.41Y-89.94
X189.58Y-84.83
X190.08Y-53.79
X190.54Y-125.8
X190.54Y-133.42
X191.83Y-99.1
X191.83Y-101.6
X193.02Y-47.32
X193.23Y-115.27
X193.28Y-95.16
X195.14Y-124.61
X195.14Y-127.11
X195.73Y-115.27
X195.78Y-95.16
T4
X194.41Y-53.0
X194.41Y-55.54
X194.41Y-58.08
T5
X177.64Y-53.05
X177.64Y-57.55
X184.14Y-53.05
X184.14Y-57.55
T6
X159.92Y-118.65
X159.92Y-121.19
X159.92Y-123.73
X159.92Y-126.27
X159.92Y-128.81
X159.92Y-131.35
X159.92Y-133.89
X159.92Y-136.43
X160.4Y-87.65
X160.4Y-90.19
X160.4Y-92.73
X160.4Y-95.27
X160.4Y-97.81
X160.4Y-100.35
X160.4Y-102.89
X160.4Y-105.43
X165.0Y-119.92
X165.0Y-122.46
X165.0Y-125.0
X165.0Y-127.54
X165.0Y-130.08
X165.0Y-132.62
X165.0Y-135.16
X165.48Y-88.92
X165.48Y-91.46
X165.48Y-94.0
X165.48Y-96.54
X165.48Y-99.08
X165.48Y-101.62
X165.48Y-104.16
T7
X109.942Y-118.26
X109.942Y-123.26
X109.942Y-130.26
X109.942Y-135.26
X111.162Y-86.06
X111.162Y-91.06
X111.162Y-98.06
X111.162Y-103.06
T8
X105.9Y-49.26
X105.9Y-53.46
X110.1Y-49.26
X110.1Y-53.46
X114.3Y-49.26
X114.3Y-53.46
X170.85Y-118.54
X170.85Y-136.54
X171.33Y-87.54
X171.33Y-105.54
M30
