%TF.GenerationSoftware,KiCad,Pcbnew,9.0.0*%
%TF.CreationDate,2025-03-14T18:44:21-06:00*%
%TF.ProjectId,MotorControllerBoardV2,4d6f746f-7243-46f6-9e74-726f6c6c6572,rev?*%
%TF.SameCoordinates,Original*%
%TF.FileFunction,Legend,Top*%
%TF.FilePolarity,Positive*%
%FSLAX46Y46*%
G04 Gerber Fmt 4.6, Leading zero omitted, Abs format (unit mm)*
G04 Created by KiCad (PCBNEW 9.0.0) date 2025-03-14 18:44:21*
%MOMM*%
%LPD*%
G01*
G04 APERTURE LIST*
%ADD10C,0.400000*%
%ADD11C,0.800000*%
%ADD12C,0.150000*%
%ADD13C,0.254000*%
%ADD14C,0.120000*%
%ADD15C,0.200000*%
%ADD16C,0.127000*%
%ADD17C,0.100000*%
G04 APERTURE END LIST*
D10*
X182039347Y-65374774D02*
X182039347Y-63374774D01*
X182039347Y-63374774D02*
X182515537Y-63374774D01*
X182515537Y-63374774D02*
X182801252Y-63470012D01*
X182801252Y-63470012D02*
X182991728Y-63660488D01*
X182991728Y-63660488D02*
X183086966Y-63850964D01*
X183086966Y-63850964D02*
X183182204Y-64231916D01*
X183182204Y-64231916D02*
X183182204Y-64517631D01*
X183182204Y-64517631D02*
X183086966Y-64898583D01*
X183086966Y-64898583D02*
X182991728Y-65089059D01*
X182991728Y-65089059D02*
X182801252Y-65279536D01*
X182801252Y-65279536D02*
X182515537Y-65374774D01*
X182515537Y-65374774D02*
X182039347Y-65374774D01*
X184039347Y-64327155D02*
X184706014Y-64327155D01*
X184991728Y-65374774D02*
X184039347Y-65374774D01*
X184039347Y-65374774D02*
X184039347Y-63374774D01*
X184039347Y-63374774D02*
X184991728Y-63374774D01*
X185563157Y-63374774D02*
X186229823Y-65374774D01*
X186229823Y-65374774D02*
X186896490Y-63374774D01*
X187944109Y-63374774D02*
X188325062Y-63374774D01*
X188325062Y-63374774D02*
X188515538Y-63470012D01*
X188515538Y-63470012D02*
X188706014Y-63660488D01*
X188706014Y-63660488D02*
X188801252Y-64041440D01*
X188801252Y-64041440D02*
X188801252Y-64708107D01*
X188801252Y-64708107D02*
X188706014Y-65089059D01*
X188706014Y-65089059D02*
X188515538Y-65279536D01*
X188515538Y-65279536D02*
X188325062Y-65374774D01*
X188325062Y-65374774D02*
X187944109Y-65374774D01*
X187944109Y-65374774D02*
X187753633Y-65279536D01*
X187753633Y-65279536D02*
X187563157Y-65089059D01*
X187563157Y-65089059D02*
X187467919Y-64708107D01*
X187467919Y-64708107D02*
X187467919Y-64041440D01*
X187467919Y-64041440D02*
X187563157Y-63660488D01*
X187563157Y-63660488D02*
X187753633Y-63470012D01*
X187753633Y-63470012D02*
X187944109Y-63374774D01*
X189658395Y-65374774D02*
X189658395Y-63374774D01*
X189658395Y-63374774D02*
X190801252Y-65374774D01*
X190801252Y-65374774D02*
X190801252Y-63374774D01*
X194420300Y-65184297D02*
X194325062Y-65279536D01*
X194325062Y-65279536D02*
X194039348Y-65374774D01*
X194039348Y-65374774D02*
X193848872Y-65374774D01*
X193848872Y-65374774D02*
X193563157Y-65279536D01*
X193563157Y-65279536D02*
X193372681Y-65089059D01*
X193372681Y-65089059D02*
X193277443Y-64898583D01*
X193277443Y-64898583D02*
X193182205Y-64517631D01*
X193182205Y-64517631D02*
X193182205Y-64231916D01*
X193182205Y-64231916D02*
X193277443Y-63850964D01*
X193277443Y-63850964D02*
X193372681Y-63660488D01*
X193372681Y-63660488D02*
X193563157Y-63470012D01*
X193563157Y-63470012D02*
X193848872Y-63374774D01*
X193848872Y-63374774D02*
X194039348Y-63374774D01*
X194039348Y-63374774D02*
X194325062Y-63470012D01*
X194325062Y-63470012D02*
X194420300Y-63565250D01*
X183182204Y-68404185D02*
X183086966Y-68499424D01*
X183086966Y-68499424D02*
X182801252Y-68594662D01*
X182801252Y-68594662D02*
X182610776Y-68594662D01*
X182610776Y-68594662D02*
X182325061Y-68499424D01*
X182325061Y-68499424D02*
X182134585Y-68308947D01*
X182134585Y-68308947D02*
X182039347Y-68118471D01*
X182039347Y-68118471D02*
X181944109Y-67737519D01*
X181944109Y-67737519D02*
X181944109Y-67451804D01*
X181944109Y-67451804D02*
X182039347Y-67070852D01*
X182039347Y-67070852D02*
X182134585Y-66880376D01*
X182134585Y-66880376D02*
X182325061Y-66689900D01*
X182325061Y-66689900D02*
X182610776Y-66594662D01*
X182610776Y-66594662D02*
X182801252Y-66594662D01*
X182801252Y-66594662D02*
X183086966Y-66689900D01*
X183086966Y-66689900D02*
X183182204Y-66785138D01*
X183944109Y-68023233D02*
X184896490Y-68023233D01*
X183753633Y-68594662D02*
X184420299Y-66594662D01*
X184420299Y-66594662D02*
X185086966Y-68594662D01*
X186706014Y-68594662D02*
X185753633Y-68594662D01*
X185753633Y-68594662D02*
X185753633Y-66594662D01*
X187372681Y-67547043D02*
X188039348Y-67547043D01*
X188325062Y-68594662D02*
X187372681Y-68594662D01*
X187372681Y-68594662D02*
X187372681Y-66594662D01*
X187372681Y-66594662D02*
X188325062Y-66594662D01*
X189848872Y-67547043D02*
X190134586Y-67642281D01*
X190134586Y-67642281D02*
X190229824Y-67737519D01*
X190229824Y-67737519D02*
X190325062Y-67927995D01*
X190325062Y-67927995D02*
X190325062Y-68213709D01*
X190325062Y-68213709D02*
X190229824Y-68404185D01*
X190229824Y-68404185D02*
X190134586Y-68499424D01*
X190134586Y-68499424D02*
X189944110Y-68594662D01*
X189944110Y-68594662D02*
X189182205Y-68594662D01*
X189182205Y-68594662D02*
X189182205Y-66594662D01*
X189182205Y-66594662D02*
X189848872Y-66594662D01*
X189848872Y-66594662D02*
X190039348Y-66689900D01*
X190039348Y-66689900D02*
X190134586Y-66785138D01*
X190134586Y-66785138D02*
X190229824Y-66975614D01*
X190229824Y-66975614D02*
X190229824Y-67166090D01*
X190229824Y-67166090D02*
X190134586Y-67356566D01*
X190134586Y-67356566D02*
X190039348Y-67451804D01*
X190039348Y-67451804D02*
X189848872Y-67547043D01*
X189848872Y-67547043D02*
X189182205Y-67547043D01*
X193753634Y-66689900D02*
X193563158Y-66594662D01*
X193563158Y-66594662D02*
X193277444Y-66594662D01*
X193277444Y-66594662D02*
X192991729Y-66689900D01*
X192991729Y-66689900D02*
X192801253Y-66880376D01*
X192801253Y-66880376D02*
X192706015Y-67070852D01*
X192706015Y-67070852D02*
X192610777Y-67451804D01*
X192610777Y-67451804D02*
X192610777Y-67737519D01*
X192610777Y-67737519D02*
X192706015Y-68118471D01*
X192706015Y-68118471D02*
X192801253Y-68308947D01*
X192801253Y-68308947D02*
X192991729Y-68499424D01*
X192991729Y-68499424D02*
X193277444Y-68594662D01*
X193277444Y-68594662D02*
X193467920Y-68594662D01*
X193467920Y-68594662D02*
X193753634Y-68499424D01*
X193753634Y-68499424D02*
X193848872Y-68404185D01*
X193848872Y-68404185D02*
X193848872Y-67737519D01*
X193848872Y-67737519D02*
X193467920Y-67737519D01*
X181753633Y-69814550D02*
X182420299Y-71814550D01*
X182420299Y-71814550D02*
X183086966Y-69814550D01*
X183753633Y-71814550D02*
X183753633Y-69814550D01*
X184706014Y-71814550D02*
X184706014Y-69814550D01*
X185848871Y-71814550D02*
X184991728Y-70671692D01*
X185848871Y-69814550D02*
X184706014Y-70957407D01*
X187848871Y-71814550D02*
X187182204Y-70862169D01*
X186706014Y-71814550D02*
X186706014Y-69814550D01*
X186706014Y-69814550D02*
X187467919Y-69814550D01*
X187467919Y-69814550D02*
X187658395Y-69909788D01*
X187658395Y-69909788D02*
X187753633Y-70005026D01*
X187753633Y-70005026D02*
X187848871Y-70195502D01*
X187848871Y-70195502D02*
X187848871Y-70481216D01*
X187848871Y-70481216D02*
X187753633Y-70671692D01*
X187753633Y-70671692D02*
X187658395Y-70766931D01*
X187658395Y-70766931D02*
X187467919Y-70862169D01*
X187467919Y-70862169D02*
X186706014Y-70862169D01*
X188610776Y-71243121D02*
X189563157Y-71243121D01*
X188420300Y-71814550D02*
X189086966Y-69814550D01*
X189086966Y-69814550D02*
X189753633Y-71814550D01*
X190420300Y-71814550D02*
X190420300Y-69814550D01*
X190420300Y-69814550D02*
X191086967Y-71243121D01*
X191086967Y-71243121D02*
X191753633Y-69814550D01*
X191753633Y-69814550D02*
X191753633Y-71814550D01*
X194229824Y-71814550D02*
X194229824Y-69814550D01*
X194229824Y-69814550D02*
X194991729Y-69814550D01*
X194991729Y-69814550D02*
X195182205Y-69909788D01*
X195182205Y-69909788D02*
X195277443Y-70005026D01*
X195277443Y-70005026D02*
X195372681Y-70195502D01*
X195372681Y-70195502D02*
X195372681Y-70481216D01*
X195372681Y-70481216D02*
X195277443Y-70671692D01*
X195277443Y-70671692D02*
X195182205Y-70766931D01*
X195182205Y-70766931D02*
X194991729Y-70862169D01*
X194991729Y-70862169D02*
X194229824Y-70862169D01*
X183086966Y-73129676D02*
X182896490Y-73034438D01*
X182896490Y-73034438D02*
X182610776Y-73034438D01*
X182610776Y-73034438D02*
X182325061Y-73129676D01*
X182325061Y-73129676D02*
X182134585Y-73320152D01*
X182134585Y-73320152D02*
X182039347Y-73510628D01*
X182039347Y-73510628D02*
X181944109Y-73891580D01*
X181944109Y-73891580D02*
X181944109Y-74177295D01*
X181944109Y-74177295D02*
X182039347Y-74558247D01*
X182039347Y-74558247D02*
X182134585Y-74748723D01*
X182134585Y-74748723D02*
X182325061Y-74939200D01*
X182325061Y-74939200D02*
X182610776Y-75034438D01*
X182610776Y-75034438D02*
X182801252Y-75034438D01*
X182801252Y-75034438D02*
X183086966Y-74939200D01*
X183086966Y-74939200D02*
X183182204Y-74843961D01*
X183182204Y-74843961D02*
X183182204Y-74177295D01*
X183182204Y-74177295D02*
X182801252Y-74177295D01*
X185182204Y-75034438D02*
X184515537Y-74082057D01*
X184039347Y-75034438D02*
X184039347Y-73034438D01*
X184039347Y-73034438D02*
X184801252Y-73034438D01*
X184801252Y-73034438D02*
X184991728Y-73129676D01*
X184991728Y-73129676D02*
X185086966Y-73224914D01*
X185086966Y-73224914D02*
X185182204Y-73415390D01*
X185182204Y-73415390D02*
X185182204Y-73701104D01*
X185182204Y-73701104D02*
X185086966Y-73891580D01*
X185086966Y-73891580D02*
X184991728Y-73986819D01*
X184991728Y-73986819D02*
X184801252Y-74082057D01*
X184801252Y-74082057D02*
X184039347Y-74082057D01*
X185944109Y-74463009D02*
X186896490Y-74463009D01*
X185753633Y-75034438D02*
X186420299Y-73034438D01*
X186420299Y-73034438D02*
X187086966Y-75034438D01*
X187753633Y-75034438D02*
X187753633Y-73034438D01*
X187753633Y-73986819D02*
X188896490Y-73986819D01*
X188896490Y-75034438D02*
X188896490Y-73034438D01*
X189753633Y-74463009D02*
X190706014Y-74463009D01*
X189563157Y-75034438D02*
X190229823Y-73034438D01*
X190229823Y-73034438D02*
X190896490Y-75034438D01*
X191563157Y-75034438D02*
X191563157Y-73034438D01*
X191563157Y-73034438D02*
X192229824Y-74463009D01*
X192229824Y-74463009D02*
X192896490Y-73034438D01*
X192896490Y-73034438D02*
X192896490Y-75034438D01*
X196515538Y-74843961D02*
X196420300Y-74939200D01*
X196420300Y-74939200D02*
X196134586Y-75034438D01*
X196134586Y-75034438D02*
X195944110Y-75034438D01*
X195944110Y-75034438D02*
X195658395Y-74939200D01*
X195658395Y-74939200D02*
X195467919Y-74748723D01*
X195467919Y-74748723D02*
X195372681Y-74558247D01*
X195372681Y-74558247D02*
X195277443Y-74177295D01*
X195277443Y-74177295D02*
X195277443Y-73891580D01*
X195277443Y-73891580D02*
X195372681Y-73510628D01*
X195372681Y-73510628D02*
X195467919Y-73320152D01*
X195467919Y-73320152D02*
X195658395Y-73129676D01*
X195658395Y-73129676D02*
X195944110Y-73034438D01*
X195944110Y-73034438D02*
X196134586Y-73034438D01*
X196134586Y-73034438D02*
X196420300Y-73129676D01*
X196420300Y-73129676D02*
X196515538Y-73224914D01*
D11*
X104359648Y-67295263D02*
X104359648Y-63795263D01*
X104359648Y-63795263D02*
X105192981Y-63795263D01*
X105192981Y-63795263D02*
X105692981Y-63961930D01*
X105692981Y-63961930D02*
X106026315Y-64295263D01*
X106026315Y-64295263D02*
X106192981Y-64628597D01*
X106192981Y-64628597D02*
X106359648Y-65295263D01*
X106359648Y-65295263D02*
X106359648Y-65795263D01*
X106359648Y-65795263D02*
X106192981Y-66461930D01*
X106192981Y-66461930D02*
X106026315Y-66795263D01*
X106026315Y-66795263D02*
X105692981Y-67128597D01*
X105692981Y-67128597D02*
X105192981Y-67295263D01*
X105192981Y-67295263D02*
X104359648Y-67295263D01*
X107859648Y-67295263D02*
X107859648Y-63795263D01*
X109526315Y-67295263D02*
X109526315Y-63795263D01*
X109526315Y-63795263D02*
X110359648Y-63795263D01*
X110359648Y-63795263D02*
X110859648Y-63961930D01*
X110859648Y-63961930D02*
X111192982Y-64295263D01*
X111192982Y-64295263D02*
X111359648Y-64628597D01*
X111359648Y-64628597D02*
X111526315Y-65295263D01*
X111526315Y-65295263D02*
X111526315Y-65795263D01*
X111526315Y-65795263D02*
X111359648Y-66461930D01*
X111359648Y-66461930D02*
X111192982Y-66795263D01*
X111192982Y-66795263D02*
X110859648Y-67128597D01*
X110859648Y-67128597D02*
X110359648Y-67295263D01*
X110359648Y-67295263D02*
X109526315Y-67295263D01*
X112859648Y-67128597D02*
X113359648Y-67295263D01*
X113359648Y-67295263D02*
X114192982Y-67295263D01*
X114192982Y-67295263D02*
X114526315Y-67128597D01*
X114526315Y-67128597D02*
X114692982Y-66961930D01*
X114692982Y-66961930D02*
X114859648Y-66628597D01*
X114859648Y-66628597D02*
X114859648Y-66295263D01*
X114859648Y-66295263D02*
X114692982Y-65961930D01*
X114692982Y-65961930D02*
X114526315Y-65795263D01*
X114526315Y-65795263D02*
X114192982Y-65628597D01*
X114192982Y-65628597D02*
X113526315Y-65461930D01*
X113526315Y-65461930D02*
X113192982Y-65295263D01*
X113192982Y-65295263D02*
X113026315Y-65128597D01*
X113026315Y-65128597D02*
X112859648Y-64795263D01*
X112859648Y-64795263D02*
X112859648Y-64461930D01*
X112859648Y-64461930D02*
X113026315Y-64128597D01*
X113026315Y-64128597D02*
X113192982Y-63961930D01*
X113192982Y-63961930D02*
X113526315Y-63795263D01*
X113526315Y-63795263D02*
X114359648Y-63795263D01*
X114359648Y-63795263D02*
X114859648Y-63961930D01*
X117526315Y-65461930D02*
X118026315Y-65628597D01*
X118026315Y-65628597D02*
X118192981Y-65795263D01*
X118192981Y-65795263D02*
X118359648Y-66128597D01*
X118359648Y-66128597D02*
X118359648Y-66628597D01*
X118359648Y-66628597D02*
X118192981Y-66961930D01*
X118192981Y-66961930D02*
X118026315Y-67128597D01*
X118026315Y-67128597D02*
X117692981Y-67295263D01*
X117692981Y-67295263D02*
X116359648Y-67295263D01*
X116359648Y-67295263D02*
X116359648Y-63795263D01*
X116359648Y-63795263D02*
X117526315Y-63795263D01*
X117526315Y-63795263D02*
X117859648Y-63961930D01*
X117859648Y-63961930D02*
X118026315Y-64128597D01*
X118026315Y-64128597D02*
X118192981Y-64461930D01*
X118192981Y-64461930D02*
X118192981Y-64795263D01*
X118192981Y-64795263D02*
X118026315Y-65128597D01*
X118026315Y-65128597D02*
X117859648Y-65295263D01*
X117859648Y-65295263D02*
X117526315Y-65461930D01*
X117526315Y-65461930D02*
X116359648Y-65461930D01*
X119859648Y-63795263D02*
X119859648Y-66628597D01*
X119859648Y-66628597D02*
X120026315Y-66961930D01*
X120026315Y-66961930D02*
X120192981Y-67128597D01*
X120192981Y-67128597D02*
X120526315Y-67295263D01*
X120526315Y-67295263D02*
X121192981Y-67295263D01*
X121192981Y-67295263D02*
X121526315Y-67128597D01*
X121526315Y-67128597D02*
X121692981Y-66961930D01*
X121692981Y-66961930D02*
X121859648Y-66628597D01*
X121859648Y-66628597D02*
X121859648Y-63795263D01*
X125526315Y-67295263D02*
X124359648Y-65628597D01*
X123526315Y-67295263D02*
X123526315Y-63795263D01*
X123526315Y-63795263D02*
X124859648Y-63795263D01*
X124859648Y-63795263D02*
X125192982Y-63961930D01*
X125192982Y-63961930D02*
X125359648Y-64128597D01*
X125359648Y-64128597D02*
X125526315Y-64461930D01*
X125526315Y-64461930D02*
X125526315Y-64961930D01*
X125526315Y-64961930D02*
X125359648Y-65295263D01*
X125359648Y-65295263D02*
X125192982Y-65461930D01*
X125192982Y-65461930D02*
X124859648Y-65628597D01*
X124859648Y-65628597D02*
X123526315Y-65628597D01*
X127692982Y-65628597D02*
X127692982Y-67295263D01*
X126526315Y-63795263D02*
X127692982Y-65628597D01*
X127692982Y-65628597D02*
X128859648Y-63795263D01*
X132692982Y-67295263D02*
X132692982Y-63795263D01*
X132692982Y-63795263D02*
X133526315Y-63795263D01*
X133526315Y-63795263D02*
X134026315Y-63961930D01*
X134026315Y-63961930D02*
X134359649Y-64295263D01*
X134359649Y-64295263D02*
X134526315Y-64628597D01*
X134526315Y-64628597D02*
X134692982Y-65295263D01*
X134692982Y-65295263D02*
X134692982Y-65795263D01*
X134692982Y-65795263D02*
X134526315Y-66461930D01*
X134526315Y-66461930D02*
X134359649Y-66795263D01*
X134359649Y-66795263D02*
X134026315Y-67128597D01*
X134026315Y-67128597D02*
X133526315Y-67295263D01*
X133526315Y-67295263D02*
X132692982Y-67295263D01*
X136192982Y-67295263D02*
X136192982Y-63795263D01*
X137859649Y-67295263D02*
X137859649Y-63795263D01*
X137859649Y-63795263D02*
X138692982Y-63795263D01*
X138692982Y-63795263D02*
X139192982Y-63961930D01*
X139192982Y-63961930D02*
X139526316Y-64295263D01*
X139526316Y-64295263D02*
X139692982Y-64628597D01*
X139692982Y-64628597D02*
X139859649Y-65295263D01*
X139859649Y-65295263D02*
X139859649Y-65795263D01*
X139859649Y-65795263D02*
X139692982Y-66461930D01*
X139692982Y-66461930D02*
X139526316Y-66795263D01*
X139526316Y-66795263D02*
X139192982Y-67128597D01*
X139192982Y-67128597D02*
X138692982Y-67295263D01*
X138692982Y-67295263D02*
X137859649Y-67295263D01*
X141359649Y-67295263D02*
X141359649Y-63795263D01*
X141359649Y-63795263D02*
X142192982Y-63795263D01*
X142192982Y-63795263D02*
X142692982Y-63961930D01*
X142692982Y-63961930D02*
X143026316Y-64295263D01*
X143026316Y-64295263D02*
X143192982Y-64628597D01*
X143192982Y-64628597D02*
X143359649Y-65295263D01*
X143359649Y-65295263D02*
X143359649Y-65795263D01*
X143359649Y-65795263D02*
X143192982Y-66461930D01*
X143192982Y-66461930D02*
X143026316Y-66795263D01*
X143026316Y-66795263D02*
X142692982Y-67128597D01*
X142692982Y-67128597D02*
X142192982Y-67295263D01*
X142192982Y-67295263D02*
X141359649Y-67295263D01*
X146526316Y-67295263D02*
X144859649Y-67295263D01*
X144859649Y-67295263D02*
X144859649Y-63795263D01*
X147692982Y-65461930D02*
X148859649Y-65461930D01*
X149359649Y-67295263D02*
X147692982Y-67295263D01*
X147692982Y-67295263D02*
X147692982Y-63795263D01*
X147692982Y-63795263D02*
X149359649Y-63795263D01*
X152859649Y-67295263D02*
X151692982Y-65628597D01*
X150859649Y-67295263D02*
X150859649Y-63795263D01*
X150859649Y-63795263D02*
X152192982Y-63795263D01*
X152192982Y-63795263D02*
X152526316Y-63961930D01*
X152526316Y-63961930D02*
X152692982Y-64128597D01*
X152692982Y-64128597D02*
X152859649Y-64461930D01*
X152859649Y-64461930D02*
X152859649Y-64961930D01*
X152859649Y-64961930D02*
X152692982Y-65295263D01*
X152692982Y-65295263D02*
X152526316Y-65461930D01*
X152526316Y-65461930D02*
X152192982Y-65628597D01*
X152192982Y-65628597D02*
X150859649Y-65628597D01*
X154192982Y-67128597D02*
X154692982Y-67295263D01*
X154692982Y-67295263D02*
X155526316Y-67295263D01*
X155526316Y-67295263D02*
X155859649Y-67128597D01*
X155859649Y-67128597D02*
X156026316Y-66961930D01*
X156026316Y-66961930D02*
X156192982Y-66628597D01*
X156192982Y-66628597D02*
X156192982Y-66295263D01*
X156192982Y-66295263D02*
X156026316Y-65961930D01*
X156026316Y-65961930D02*
X155859649Y-65795263D01*
X155859649Y-65795263D02*
X155526316Y-65628597D01*
X155526316Y-65628597D02*
X154859649Y-65461930D01*
X154859649Y-65461930D02*
X154526316Y-65295263D01*
X154526316Y-65295263D02*
X154359649Y-65128597D01*
X154359649Y-65128597D02*
X154192982Y-64795263D01*
X154192982Y-64795263D02*
X154192982Y-64461930D01*
X154192982Y-64461930D02*
X154359649Y-64128597D01*
X154359649Y-64128597D02*
X154526316Y-63961930D01*
X154526316Y-63961930D02*
X154859649Y-63795263D01*
X154859649Y-63795263D02*
X155692982Y-63795263D01*
X155692982Y-63795263D02*
X156192982Y-63961930D01*
X104192981Y-71930067D02*
X105859648Y-71930067D01*
X103859648Y-72930067D02*
X105026315Y-69430067D01*
X105026315Y-69430067D02*
X106192981Y-72930067D01*
X107359648Y-72930067D02*
X107359648Y-69430067D01*
X107359648Y-69430067D02*
X109359648Y-72930067D01*
X109359648Y-72930067D02*
X109359648Y-69430067D01*
X111026315Y-72930067D02*
X111026315Y-69430067D01*
X111026315Y-69430067D02*
X111859648Y-69430067D01*
X111859648Y-69430067D02*
X112359648Y-69596734D01*
X112359648Y-69596734D02*
X112692982Y-69930067D01*
X112692982Y-69930067D02*
X112859648Y-70263401D01*
X112859648Y-70263401D02*
X113026315Y-70930067D01*
X113026315Y-70930067D02*
X113026315Y-71430067D01*
X113026315Y-71430067D02*
X112859648Y-72096734D01*
X112859648Y-72096734D02*
X112692982Y-72430067D01*
X112692982Y-72430067D02*
X112359648Y-72763401D01*
X112359648Y-72763401D02*
X111859648Y-72930067D01*
X111859648Y-72930067D02*
X111026315Y-72930067D01*
X119192982Y-72596734D02*
X119026315Y-72763401D01*
X119026315Y-72763401D02*
X118526315Y-72930067D01*
X118526315Y-72930067D02*
X118192982Y-72930067D01*
X118192982Y-72930067D02*
X117692982Y-72763401D01*
X117692982Y-72763401D02*
X117359649Y-72430067D01*
X117359649Y-72430067D02*
X117192982Y-72096734D01*
X117192982Y-72096734D02*
X117026315Y-71430067D01*
X117026315Y-71430067D02*
X117026315Y-70930067D01*
X117026315Y-70930067D02*
X117192982Y-70263401D01*
X117192982Y-70263401D02*
X117359649Y-69930067D01*
X117359649Y-69930067D02*
X117692982Y-69596734D01*
X117692982Y-69596734D02*
X118192982Y-69430067D01*
X118192982Y-69430067D02*
X118526315Y-69430067D01*
X118526315Y-69430067D02*
X119026315Y-69596734D01*
X119026315Y-69596734D02*
X119192982Y-69763401D01*
X121359649Y-69430067D02*
X122026315Y-69430067D01*
X122026315Y-69430067D02*
X122359649Y-69596734D01*
X122359649Y-69596734D02*
X122692982Y-69930067D01*
X122692982Y-69930067D02*
X122859649Y-70596734D01*
X122859649Y-70596734D02*
X122859649Y-71763401D01*
X122859649Y-71763401D02*
X122692982Y-72430067D01*
X122692982Y-72430067D02*
X122359649Y-72763401D01*
X122359649Y-72763401D02*
X122026315Y-72930067D01*
X122026315Y-72930067D02*
X121359649Y-72930067D01*
X121359649Y-72930067D02*
X121026315Y-72763401D01*
X121026315Y-72763401D02*
X120692982Y-72430067D01*
X120692982Y-72430067D02*
X120526315Y-71763401D01*
X120526315Y-71763401D02*
X120526315Y-70596734D01*
X120526315Y-70596734D02*
X120692982Y-69930067D01*
X120692982Y-69930067D02*
X121026315Y-69596734D01*
X121026315Y-69596734D02*
X121359649Y-69430067D01*
X124359649Y-72596734D02*
X124526316Y-72763401D01*
X124526316Y-72763401D02*
X124359649Y-72930067D01*
X124359649Y-72930067D02*
X124192982Y-72763401D01*
X124192982Y-72763401D02*
X124359649Y-72596734D01*
X124359649Y-72596734D02*
X124359649Y-72930067D01*
X128692983Y-71096734D02*
X129859650Y-71096734D01*
X130359650Y-72930067D02*
X128692983Y-72930067D01*
X128692983Y-72930067D02*
X128692983Y-69430067D01*
X128692983Y-69430067D02*
X130359650Y-69430067D01*
X131692983Y-72763401D02*
X132192983Y-72930067D01*
X132192983Y-72930067D02*
X133026317Y-72930067D01*
X133026317Y-72930067D02*
X133359650Y-72763401D01*
X133359650Y-72763401D02*
X133526317Y-72596734D01*
X133526317Y-72596734D02*
X133692983Y-72263401D01*
X133692983Y-72263401D02*
X133692983Y-71930067D01*
X133692983Y-71930067D02*
X133526317Y-71596734D01*
X133526317Y-71596734D02*
X133359650Y-71430067D01*
X133359650Y-71430067D02*
X133026317Y-71263401D01*
X133026317Y-71263401D02*
X132359650Y-71096734D01*
X132359650Y-71096734D02*
X132026317Y-70930067D01*
X132026317Y-70930067D02*
X131859650Y-70763401D01*
X131859650Y-70763401D02*
X131692983Y-70430067D01*
X131692983Y-70430067D02*
X131692983Y-70096734D01*
X131692983Y-70096734D02*
X131859650Y-69763401D01*
X131859650Y-69763401D02*
X132026317Y-69596734D01*
X132026317Y-69596734D02*
X132359650Y-69430067D01*
X132359650Y-69430067D02*
X133192983Y-69430067D01*
X133192983Y-69430067D02*
X133692983Y-69596734D01*
X134692983Y-69430067D02*
X136692983Y-69430067D01*
X135692983Y-72930067D02*
X135692983Y-69430067D01*
X137859650Y-72596734D02*
X138026317Y-72763401D01*
X138026317Y-72763401D02*
X137859650Y-72930067D01*
X137859650Y-72930067D02*
X137692983Y-72763401D01*
X137692983Y-72763401D02*
X137859650Y-72596734D01*
X137859650Y-72596734D02*
X137859650Y-72930067D01*
X142026317Y-69763401D02*
X142192984Y-69596734D01*
X142192984Y-69596734D02*
X142526317Y-69430067D01*
X142526317Y-69430067D02*
X143359651Y-69430067D01*
X143359651Y-69430067D02*
X143692984Y-69596734D01*
X143692984Y-69596734D02*
X143859651Y-69763401D01*
X143859651Y-69763401D02*
X144026317Y-70096734D01*
X144026317Y-70096734D02*
X144026317Y-70430067D01*
X144026317Y-70430067D02*
X143859651Y-70930067D01*
X143859651Y-70930067D02*
X141859651Y-72930067D01*
X141859651Y-72930067D02*
X144026317Y-72930067D01*
X146192984Y-69430067D02*
X146526317Y-69430067D01*
X146526317Y-69430067D02*
X146859650Y-69596734D01*
X146859650Y-69596734D02*
X147026317Y-69763401D01*
X147026317Y-69763401D02*
X147192984Y-70096734D01*
X147192984Y-70096734D02*
X147359650Y-70763401D01*
X147359650Y-70763401D02*
X147359650Y-71596734D01*
X147359650Y-71596734D02*
X147192984Y-72263401D01*
X147192984Y-72263401D02*
X147026317Y-72596734D01*
X147026317Y-72596734D02*
X146859650Y-72763401D01*
X146859650Y-72763401D02*
X146526317Y-72930067D01*
X146526317Y-72930067D02*
X146192984Y-72930067D01*
X146192984Y-72930067D02*
X145859650Y-72763401D01*
X145859650Y-72763401D02*
X145692984Y-72596734D01*
X145692984Y-72596734D02*
X145526317Y-72263401D01*
X145526317Y-72263401D02*
X145359650Y-71596734D01*
X145359650Y-71596734D02*
X145359650Y-70763401D01*
X145359650Y-70763401D02*
X145526317Y-70096734D01*
X145526317Y-70096734D02*
X145692984Y-69763401D01*
X145692984Y-69763401D02*
X145859650Y-69596734D01*
X145859650Y-69596734D02*
X146192984Y-69430067D01*
X149526317Y-69430067D02*
X149859650Y-69430067D01*
X149859650Y-69430067D02*
X150192983Y-69596734D01*
X150192983Y-69596734D02*
X150359650Y-69763401D01*
X150359650Y-69763401D02*
X150526317Y-70096734D01*
X150526317Y-70096734D02*
X150692983Y-70763401D01*
X150692983Y-70763401D02*
X150692983Y-71596734D01*
X150692983Y-71596734D02*
X150526317Y-72263401D01*
X150526317Y-72263401D02*
X150359650Y-72596734D01*
X150359650Y-72596734D02*
X150192983Y-72763401D01*
X150192983Y-72763401D02*
X149859650Y-72930067D01*
X149859650Y-72930067D02*
X149526317Y-72930067D01*
X149526317Y-72930067D02*
X149192983Y-72763401D01*
X149192983Y-72763401D02*
X149026317Y-72596734D01*
X149026317Y-72596734D02*
X148859650Y-72263401D01*
X148859650Y-72263401D02*
X148692983Y-71596734D01*
X148692983Y-71596734D02*
X148692983Y-70763401D01*
X148692983Y-70763401D02*
X148859650Y-70096734D01*
X148859650Y-70096734D02*
X149026317Y-69763401D01*
X149026317Y-69763401D02*
X149192983Y-69596734D01*
X149192983Y-69596734D02*
X149526317Y-69430067D01*
X153692983Y-69430067D02*
X153026316Y-69430067D01*
X153026316Y-69430067D02*
X152692983Y-69596734D01*
X152692983Y-69596734D02*
X152526316Y-69763401D01*
X152526316Y-69763401D02*
X152192983Y-70263401D01*
X152192983Y-70263401D02*
X152026316Y-70930067D01*
X152026316Y-70930067D02*
X152026316Y-72263401D01*
X152026316Y-72263401D02*
X152192983Y-72596734D01*
X152192983Y-72596734D02*
X152359650Y-72763401D01*
X152359650Y-72763401D02*
X152692983Y-72930067D01*
X152692983Y-72930067D02*
X153359650Y-72930067D01*
X153359650Y-72930067D02*
X153692983Y-72763401D01*
X153692983Y-72763401D02*
X153859650Y-72596734D01*
X153859650Y-72596734D02*
X154026316Y-72263401D01*
X154026316Y-72263401D02*
X154026316Y-71430067D01*
X154026316Y-71430067D02*
X153859650Y-71096734D01*
X153859650Y-71096734D02*
X153692983Y-70930067D01*
X153692983Y-70930067D02*
X153359650Y-70763401D01*
X153359650Y-70763401D02*
X152692983Y-70763401D01*
X152692983Y-70763401D02*
X152359650Y-70930067D01*
X152359650Y-70930067D02*
X152192983Y-71096734D01*
X152192983Y-71096734D02*
X152026316Y-71430067D01*
D12*
X197749580Y-126502857D02*
X197797200Y-126550476D01*
X197797200Y-126550476D02*
X197844819Y-126693333D01*
X197844819Y-126693333D02*
X197844819Y-126788571D01*
X197844819Y-126788571D02*
X197797200Y-126931428D01*
X197797200Y-126931428D02*
X197701961Y-127026666D01*
X197701961Y-127026666D02*
X197606723Y-127074285D01*
X197606723Y-127074285D02*
X197416247Y-127121904D01*
X197416247Y-127121904D02*
X197273390Y-127121904D01*
X197273390Y-127121904D02*
X197082914Y-127074285D01*
X197082914Y-127074285D02*
X196987676Y-127026666D01*
X196987676Y-127026666D02*
X196892438Y-126931428D01*
X196892438Y-126931428D02*
X196844819Y-126788571D01*
X196844819Y-126788571D02*
X196844819Y-126693333D01*
X196844819Y-126693333D02*
X196892438Y-126550476D01*
X196892438Y-126550476D02*
X196940057Y-126502857D01*
X197844819Y-125550476D02*
X197844819Y-126121904D01*
X197844819Y-125836190D02*
X196844819Y-125836190D01*
X196844819Y-125836190D02*
X196987676Y-125931428D01*
X196987676Y-125931428D02*
X197082914Y-126026666D01*
X197082914Y-126026666D02*
X197130533Y-126121904D01*
X196844819Y-124931428D02*
X196844819Y-124836190D01*
X196844819Y-124836190D02*
X196892438Y-124740952D01*
X196892438Y-124740952D02*
X196940057Y-124693333D01*
X196940057Y-124693333D02*
X197035295Y-124645714D01*
X197035295Y-124645714D02*
X197225771Y-124598095D01*
X197225771Y-124598095D02*
X197463866Y-124598095D01*
X197463866Y-124598095D02*
X197654342Y-124645714D01*
X197654342Y-124645714D02*
X197749580Y-124693333D01*
X197749580Y-124693333D02*
X197797200Y-124740952D01*
X197797200Y-124740952D02*
X197844819Y-124836190D01*
X197844819Y-124836190D02*
X197844819Y-124931428D01*
X197844819Y-124931428D02*
X197797200Y-125026666D01*
X197797200Y-125026666D02*
X197749580Y-125074285D01*
X197749580Y-125074285D02*
X197654342Y-125121904D01*
X197654342Y-125121904D02*
X197463866Y-125169523D01*
X197463866Y-125169523D02*
X197225771Y-125169523D01*
X197225771Y-125169523D02*
X197035295Y-125121904D01*
X197035295Y-125121904D02*
X196940057Y-125074285D01*
X196940057Y-125074285D02*
X196892438Y-125026666D01*
X196892438Y-125026666D02*
X196844819Y-124931428D01*
X194313333Y-111859580D02*
X194265714Y-111907200D01*
X194265714Y-111907200D02*
X194122857Y-111954819D01*
X194122857Y-111954819D02*
X194027619Y-111954819D01*
X194027619Y-111954819D02*
X193884762Y-111907200D01*
X193884762Y-111907200D02*
X193789524Y-111811961D01*
X193789524Y-111811961D02*
X193741905Y-111716723D01*
X193741905Y-111716723D02*
X193694286Y-111526247D01*
X193694286Y-111526247D02*
X193694286Y-111383390D01*
X193694286Y-111383390D02*
X193741905Y-111192914D01*
X193741905Y-111192914D02*
X193789524Y-111097676D01*
X193789524Y-111097676D02*
X193884762Y-111002438D01*
X193884762Y-111002438D02*
X194027619Y-110954819D01*
X194027619Y-110954819D02*
X194122857Y-110954819D01*
X194122857Y-110954819D02*
X194265714Y-111002438D01*
X194265714Y-111002438D02*
X194313333Y-111050057D01*
X194789524Y-111954819D02*
X194980000Y-111954819D01*
X194980000Y-111954819D02*
X195075238Y-111907200D01*
X195075238Y-111907200D02*
X195122857Y-111859580D01*
X195122857Y-111859580D02*
X195218095Y-111716723D01*
X195218095Y-111716723D02*
X195265714Y-111526247D01*
X195265714Y-111526247D02*
X195265714Y-111145295D01*
X195265714Y-111145295D02*
X195218095Y-111050057D01*
X195218095Y-111050057D02*
X195170476Y-111002438D01*
X195170476Y-111002438D02*
X195075238Y-110954819D01*
X195075238Y-110954819D02*
X194884762Y-110954819D01*
X194884762Y-110954819D02*
X194789524Y-111002438D01*
X194789524Y-111002438D02*
X194741905Y-111050057D01*
X194741905Y-111050057D02*
X194694286Y-111145295D01*
X194694286Y-111145295D02*
X194694286Y-111383390D01*
X194694286Y-111383390D02*
X194741905Y-111478628D01*
X194741905Y-111478628D02*
X194789524Y-111526247D01*
X194789524Y-111526247D02*
X194884762Y-111573866D01*
X194884762Y-111573866D02*
X195075238Y-111573866D01*
X195075238Y-111573866D02*
X195170476Y-111526247D01*
X195170476Y-111526247D02*
X195218095Y-111478628D01*
X195218095Y-111478628D02*
X195265714Y-111383390D01*
X186455595Y-98119819D02*
X186455595Y-98929342D01*
X186455595Y-98929342D02*
X186503214Y-99024580D01*
X186503214Y-99024580D02*
X186550833Y-99072200D01*
X186550833Y-99072200D02*
X186646071Y-99119819D01*
X186646071Y-99119819D02*
X186836547Y-99119819D01*
X186836547Y-99119819D02*
X186931785Y-99072200D01*
X186931785Y-99072200D02*
X186979404Y-99024580D01*
X186979404Y-99024580D02*
X187027023Y-98929342D01*
X187027023Y-98929342D02*
X187027023Y-98119819D01*
X187931785Y-98453152D02*
X187931785Y-99119819D01*
X187693690Y-98072200D02*
X187455595Y-98786485D01*
X187455595Y-98786485D02*
X188074642Y-98786485D01*
X192053095Y-122009819D02*
X192053095Y-122819342D01*
X192053095Y-122819342D02*
X192100714Y-122914580D01*
X192100714Y-122914580D02*
X192148333Y-122962200D01*
X192148333Y-122962200D02*
X192243571Y-123009819D01*
X192243571Y-123009819D02*
X192434047Y-123009819D01*
X192434047Y-123009819D02*
X192529285Y-122962200D01*
X192529285Y-122962200D02*
X192576904Y-122914580D01*
X192576904Y-122914580D02*
X192624523Y-122819342D01*
X192624523Y-122819342D02*
X192624523Y-122009819D01*
X193005476Y-122009819D02*
X193624523Y-122009819D01*
X193624523Y-122009819D02*
X193291190Y-122390771D01*
X193291190Y-122390771D02*
X193434047Y-122390771D01*
X193434047Y-122390771D02*
X193529285Y-122438390D01*
X193529285Y-122438390D02*
X193576904Y-122486009D01*
X193576904Y-122486009D02*
X193624523Y-122581247D01*
X193624523Y-122581247D02*
X193624523Y-122819342D01*
X193624523Y-122819342D02*
X193576904Y-122914580D01*
X193576904Y-122914580D02*
X193529285Y-122962200D01*
X193529285Y-122962200D02*
X193434047Y-123009819D01*
X193434047Y-123009819D02*
X193148333Y-123009819D01*
X193148333Y-123009819D02*
X193053095Y-122962200D01*
X193053095Y-122962200D02*
X193005476Y-122914580D01*
X153929580Y-129362857D02*
X153977200Y-129410476D01*
X153977200Y-129410476D02*
X154024819Y-129553333D01*
X154024819Y-129553333D02*
X154024819Y-129648571D01*
X154024819Y-129648571D02*
X153977200Y-129791428D01*
X153977200Y-129791428D02*
X153881961Y-129886666D01*
X153881961Y-129886666D02*
X153786723Y-129934285D01*
X153786723Y-129934285D02*
X153596247Y-129981904D01*
X153596247Y-129981904D02*
X153453390Y-129981904D01*
X153453390Y-129981904D02*
X153262914Y-129934285D01*
X153262914Y-129934285D02*
X153167676Y-129886666D01*
X153167676Y-129886666D02*
X153072438Y-129791428D01*
X153072438Y-129791428D02*
X153024819Y-129648571D01*
X153024819Y-129648571D02*
X153024819Y-129553333D01*
X153024819Y-129553333D02*
X153072438Y-129410476D01*
X153072438Y-129410476D02*
X153120057Y-129362857D01*
X154024819Y-128410476D02*
X154024819Y-128981904D01*
X154024819Y-128696190D02*
X153024819Y-128696190D01*
X153024819Y-128696190D02*
X153167676Y-128791428D01*
X153167676Y-128791428D02*
X153262914Y-128886666D01*
X153262914Y-128886666D02*
X153310533Y-128981904D01*
X153358152Y-127553333D02*
X154024819Y-127553333D01*
X152977200Y-127791428D02*
X153691485Y-128029523D01*
X153691485Y-128029523D02*
X153691485Y-127410476D01*
X188624819Y-129776666D02*
X188148628Y-130109999D01*
X188624819Y-130348094D02*
X187624819Y-130348094D01*
X187624819Y-130348094D02*
X187624819Y-129967142D01*
X187624819Y-129967142D02*
X187672438Y-129871904D01*
X187672438Y-129871904D02*
X187720057Y-129824285D01*
X187720057Y-129824285D02*
X187815295Y-129776666D01*
X187815295Y-129776666D02*
X187958152Y-129776666D01*
X187958152Y-129776666D02*
X188053390Y-129824285D01*
X188053390Y-129824285D02*
X188101009Y-129871904D01*
X188101009Y-129871904D02*
X188148628Y-129967142D01*
X188148628Y-129967142D02*
X188148628Y-130348094D01*
X187720057Y-129395713D02*
X187672438Y-129348094D01*
X187672438Y-129348094D02*
X187624819Y-129252856D01*
X187624819Y-129252856D02*
X187624819Y-129014761D01*
X187624819Y-129014761D02*
X187672438Y-128919523D01*
X187672438Y-128919523D02*
X187720057Y-128871904D01*
X187720057Y-128871904D02*
X187815295Y-128824285D01*
X187815295Y-128824285D02*
X187910533Y-128824285D01*
X187910533Y-128824285D02*
X188053390Y-128871904D01*
X188053390Y-128871904D02*
X188624819Y-129443332D01*
X188624819Y-129443332D02*
X188624819Y-128824285D01*
X175619580Y-55826666D02*
X175667200Y-55874285D01*
X175667200Y-55874285D02*
X175714819Y-56017142D01*
X175714819Y-56017142D02*
X175714819Y-56112380D01*
X175714819Y-56112380D02*
X175667200Y-56255237D01*
X175667200Y-56255237D02*
X175571961Y-56350475D01*
X175571961Y-56350475D02*
X175476723Y-56398094D01*
X175476723Y-56398094D02*
X175286247Y-56445713D01*
X175286247Y-56445713D02*
X175143390Y-56445713D01*
X175143390Y-56445713D02*
X174952914Y-56398094D01*
X174952914Y-56398094D02*
X174857676Y-56350475D01*
X174857676Y-56350475D02*
X174762438Y-56255237D01*
X174762438Y-56255237D02*
X174714819Y-56112380D01*
X174714819Y-56112380D02*
X174714819Y-56017142D01*
X174714819Y-56017142D02*
X174762438Y-55874285D01*
X174762438Y-55874285D02*
X174810057Y-55826666D01*
X174714819Y-55493332D02*
X174714819Y-54826666D01*
X174714819Y-54826666D02*
X175714819Y-55255237D01*
X189043333Y-50144819D02*
X188710000Y-49668628D01*
X188471905Y-50144819D02*
X188471905Y-49144819D01*
X188471905Y-49144819D02*
X188852857Y-49144819D01*
X188852857Y-49144819D02*
X188948095Y-49192438D01*
X188948095Y-49192438D02*
X188995714Y-49240057D01*
X188995714Y-49240057D02*
X189043333Y-49335295D01*
X189043333Y-49335295D02*
X189043333Y-49478152D01*
X189043333Y-49478152D02*
X188995714Y-49573390D01*
X188995714Y-49573390D02*
X188948095Y-49621009D01*
X188948095Y-49621009D02*
X188852857Y-49668628D01*
X188852857Y-49668628D02*
X188471905Y-49668628D01*
X189376667Y-49144819D02*
X189995714Y-49144819D01*
X189995714Y-49144819D02*
X189662381Y-49525771D01*
X189662381Y-49525771D02*
X189805238Y-49525771D01*
X189805238Y-49525771D02*
X189900476Y-49573390D01*
X189900476Y-49573390D02*
X189948095Y-49621009D01*
X189948095Y-49621009D02*
X189995714Y-49716247D01*
X189995714Y-49716247D02*
X189995714Y-49954342D01*
X189995714Y-49954342D02*
X189948095Y-50049580D01*
X189948095Y-50049580D02*
X189900476Y-50097200D01*
X189900476Y-50097200D02*
X189805238Y-50144819D01*
X189805238Y-50144819D02*
X189519524Y-50144819D01*
X189519524Y-50144819D02*
X189424286Y-50097200D01*
X189424286Y-50097200D02*
X189376667Y-50049580D01*
X126910762Y-90324241D02*
X125910313Y-90324241D01*
X125910313Y-90324241D02*
X125910313Y-90086039D01*
X125910313Y-90086039D02*
X125957953Y-89943118D01*
X125957953Y-89943118D02*
X126053234Y-89847837D01*
X126053234Y-89847837D02*
X126148515Y-89800197D01*
X126148515Y-89800197D02*
X126339077Y-89752556D01*
X126339077Y-89752556D02*
X126481998Y-89752556D01*
X126481998Y-89752556D02*
X126672560Y-89800197D01*
X126672560Y-89800197D02*
X126767841Y-89847837D01*
X126767841Y-89847837D02*
X126863122Y-89943118D01*
X126863122Y-89943118D02*
X126910762Y-90086039D01*
X126910762Y-90086039D02*
X126910762Y-90324241D01*
X125910313Y-89419073D02*
X125910313Y-88799748D01*
X125910313Y-88799748D02*
X126291436Y-89133231D01*
X126291436Y-89133231D02*
X126291436Y-88990309D01*
X126291436Y-88990309D02*
X126339077Y-88895029D01*
X126339077Y-88895029D02*
X126386717Y-88847388D01*
X126386717Y-88847388D02*
X126481998Y-88799748D01*
X126481998Y-88799748D02*
X126720200Y-88799748D01*
X126720200Y-88799748D02*
X126815481Y-88847388D01*
X126815481Y-88847388D02*
X126863122Y-88895029D01*
X126863122Y-88895029D02*
X126910762Y-88990309D01*
X126910762Y-88990309D02*
X126910762Y-89276152D01*
X126910762Y-89276152D02*
X126863122Y-89371433D01*
X126863122Y-89371433D02*
X126815481Y-89419073D01*
X119030762Y-90356741D02*
X118030313Y-90356741D01*
X118030313Y-90356741D02*
X118030313Y-90118539D01*
X118030313Y-90118539D02*
X118077953Y-89975618D01*
X118077953Y-89975618D02*
X118173234Y-89880337D01*
X118173234Y-89880337D02*
X118268515Y-89832697D01*
X118268515Y-89832697D02*
X118459077Y-89785056D01*
X118459077Y-89785056D02*
X118601998Y-89785056D01*
X118601998Y-89785056D02*
X118792560Y-89832697D01*
X118792560Y-89832697D02*
X118887841Y-89880337D01*
X118887841Y-89880337D02*
X118983122Y-89975618D01*
X118983122Y-89975618D02*
X119030762Y-90118539D01*
X119030762Y-90118539D02*
X119030762Y-90356741D01*
X118363796Y-88927529D02*
X119030762Y-88927529D01*
X117982673Y-89165731D02*
X118697279Y-89403933D01*
X118697279Y-89403933D02*
X118697279Y-88784607D01*
X142560762Y-104079241D02*
X141560313Y-104079241D01*
X141560313Y-104079241D02*
X141560313Y-103841039D01*
X141560313Y-103841039D02*
X141607953Y-103698118D01*
X141607953Y-103698118D02*
X141703234Y-103602837D01*
X141703234Y-103602837D02*
X141798515Y-103555197D01*
X141798515Y-103555197D02*
X141989077Y-103507556D01*
X141989077Y-103507556D02*
X142131998Y-103507556D01*
X142131998Y-103507556D02*
X142322560Y-103555197D01*
X142322560Y-103555197D02*
X142417841Y-103602837D01*
X142417841Y-103602837D02*
X142513122Y-103698118D01*
X142513122Y-103698118D02*
X142560762Y-103841039D01*
X142560762Y-103841039D02*
X142560762Y-104079241D01*
X141560313Y-102602388D02*
X141560313Y-103078792D01*
X141560313Y-103078792D02*
X142036717Y-103126433D01*
X142036717Y-103126433D02*
X141989077Y-103078792D01*
X141989077Y-103078792D02*
X141941436Y-102983512D01*
X141941436Y-102983512D02*
X141941436Y-102745309D01*
X141941436Y-102745309D02*
X141989077Y-102650029D01*
X141989077Y-102650029D02*
X142036717Y-102602388D01*
X142036717Y-102602388D02*
X142131998Y-102554748D01*
X142131998Y-102554748D02*
X142370200Y-102554748D01*
X142370200Y-102554748D02*
X142465481Y-102602388D01*
X142465481Y-102602388D02*
X142513122Y-102650029D01*
X142513122Y-102650029D02*
X142560762Y-102745309D01*
X142560762Y-102745309D02*
X142560762Y-102983512D01*
X142560762Y-102983512D02*
X142513122Y-103078792D01*
X142513122Y-103078792D02*
X142465481Y-103126433D01*
X142590762Y-90236741D02*
X141590313Y-90236741D01*
X141590313Y-90236741D02*
X141590313Y-89998539D01*
X141590313Y-89998539D02*
X141637953Y-89855618D01*
X141637953Y-89855618D02*
X141733234Y-89760337D01*
X141733234Y-89760337D02*
X141828515Y-89712697D01*
X141828515Y-89712697D02*
X142019077Y-89665056D01*
X142019077Y-89665056D02*
X142161998Y-89665056D01*
X142161998Y-89665056D02*
X142352560Y-89712697D01*
X142352560Y-89712697D02*
X142447841Y-89760337D01*
X142447841Y-89760337D02*
X142543122Y-89855618D01*
X142543122Y-89855618D02*
X142590762Y-89998539D01*
X142590762Y-89998539D02*
X142590762Y-90236741D01*
X142590762Y-88712248D02*
X142590762Y-89283933D01*
X142590762Y-88998090D02*
X141590313Y-88998090D01*
X141590313Y-88998090D02*
X141733234Y-89093371D01*
X141733234Y-89093371D02*
X141828515Y-89188652D01*
X141828515Y-89188652D02*
X141876156Y-89283933D01*
X127000762Y-135428145D02*
X126000313Y-135428145D01*
X126000313Y-135428145D02*
X126000313Y-135189943D01*
X126000313Y-135189943D02*
X126047953Y-135047022D01*
X126047953Y-135047022D02*
X126143234Y-134951741D01*
X126143234Y-134951741D02*
X126238515Y-134904101D01*
X126238515Y-134904101D02*
X126429077Y-134856460D01*
X126429077Y-134856460D02*
X126571998Y-134856460D01*
X126571998Y-134856460D02*
X126762560Y-134904101D01*
X126762560Y-134904101D02*
X126857841Y-134951741D01*
X126857841Y-134951741D02*
X126953122Y-135047022D01*
X126953122Y-135047022D02*
X127000762Y-135189943D01*
X127000762Y-135189943D02*
X127000762Y-135428145D01*
X127000762Y-133903652D02*
X127000762Y-134475337D01*
X127000762Y-134189494D02*
X126000313Y-134189494D01*
X126000313Y-134189494D02*
X126143234Y-134284775D01*
X126143234Y-134284775D02*
X126238515Y-134380056D01*
X126238515Y-134380056D02*
X126286156Y-134475337D01*
X126000313Y-133284326D02*
X126000313Y-133189045D01*
X126000313Y-133189045D02*
X126047953Y-133093764D01*
X126047953Y-133093764D02*
X126095594Y-133046124D01*
X126095594Y-133046124D02*
X126190875Y-132998483D01*
X126190875Y-132998483D02*
X126381436Y-132950843D01*
X126381436Y-132950843D02*
X126619639Y-132950843D01*
X126619639Y-132950843D02*
X126810200Y-132998483D01*
X126810200Y-132998483D02*
X126905481Y-133046124D01*
X126905481Y-133046124D02*
X126953122Y-133093764D01*
X126953122Y-133093764D02*
X127000762Y-133189045D01*
X127000762Y-133189045D02*
X127000762Y-133284326D01*
X127000762Y-133284326D02*
X126953122Y-133379607D01*
X126953122Y-133379607D02*
X126905481Y-133427247D01*
X126905481Y-133427247D02*
X126810200Y-133474887D01*
X126810200Y-133474887D02*
X126619639Y-133522528D01*
X126619639Y-133522528D02*
X126381436Y-133522528D01*
X126381436Y-133522528D02*
X126190875Y-133474887D01*
X126190875Y-133474887D02*
X126095594Y-133427247D01*
X126095594Y-133427247D02*
X126047953Y-133379607D01*
X126047953Y-133379607D02*
X126000313Y-133284326D01*
X134760762Y-90234241D02*
X133760313Y-90234241D01*
X133760313Y-90234241D02*
X133760313Y-89996039D01*
X133760313Y-89996039D02*
X133807953Y-89853118D01*
X133807953Y-89853118D02*
X133903234Y-89757837D01*
X133903234Y-89757837D02*
X133998515Y-89710197D01*
X133998515Y-89710197D02*
X134189077Y-89662556D01*
X134189077Y-89662556D02*
X134331998Y-89662556D01*
X134331998Y-89662556D02*
X134522560Y-89710197D01*
X134522560Y-89710197D02*
X134617841Y-89757837D01*
X134617841Y-89757837D02*
X134713122Y-89853118D01*
X134713122Y-89853118D02*
X134760762Y-89996039D01*
X134760762Y-89996039D02*
X134760762Y-90234241D01*
X133855594Y-89281433D02*
X133807953Y-89233792D01*
X133807953Y-89233792D02*
X133760313Y-89138512D01*
X133760313Y-89138512D02*
X133760313Y-88900309D01*
X133760313Y-88900309D02*
X133807953Y-88805029D01*
X133807953Y-88805029D02*
X133855594Y-88757388D01*
X133855594Y-88757388D02*
X133950875Y-88709748D01*
X133950875Y-88709748D02*
X134046156Y-88709748D01*
X134046156Y-88709748D02*
X134189077Y-88757388D01*
X134189077Y-88757388D02*
X134760762Y-89329073D01*
X134760762Y-89329073D02*
X134760762Y-88709748D01*
X134730762Y-104136741D02*
X133730313Y-104136741D01*
X133730313Y-104136741D02*
X133730313Y-103898539D01*
X133730313Y-103898539D02*
X133777953Y-103755618D01*
X133777953Y-103755618D02*
X133873234Y-103660337D01*
X133873234Y-103660337D02*
X133968515Y-103612697D01*
X133968515Y-103612697D02*
X134159077Y-103565056D01*
X134159077Y-103565056D02*
X134301998Y-103565056D01*
X134301998Y-103565056D02*
X134492560Y-103612697D01*
X134492560Y-103612697D02*
X134587841Y-103660337D01*
X134587841Y-103660337D02*
X134683122Y-103755618D01*
X134683122Y-103755618D02*
X134730762Y-103898539D01*
X134730762Y-103898539D02*
X134730762Y-104136741D01*
X133730313Y-102707529D02*
X133730313Y-102898090D01*
X133730313Y-102898090D02*
X133777953Y-102993371D01*
X133777953Y-102993371D02*
X133825594Y-103041012D01*
X133825594Y-103041012D02*
X133968515Y-103136292D01*
X133968515Y-103136292D02*
X134159077Y-103183933D01*
X134159077Y-103183933D02*
X134540200Y-103183933D01*
X134540200Y-103183933D02*
X134635481Y-103136292D01*
X134635481Y-103136292D02*
X134683122Y-103088652D01*
X134683122Y-103088652D02*
X134730762Y-102993371D01*
X134730762Y-102993371D02*
X134730762Y-102802809D01*
X134730762Y-102802809D02*
X134683122Y-102707529D01*
X134683122Y-102707529D02*
X134635481Y-102659888D01*
X134635481Y-102659888D02*
X134540200Y-102612248D01*
X134540200Y-102612248D02*
X134301998Y-102612248D01*
X134301998Y-102612248D02*
X134206717Y-102659888D01*
X134206717Y-102659888D02*
X134159077Y-102707529D01*
X134159077Y-102707529D02*
X134111436Y-102802809D01*
X134111436Y-102802809D02*
X134111436Y-102993371D01*
X134111436Y-102993371D02*
X134159077Y-103088652D01*
X134159077Y-103088652D02*
X134206717Y-103136292D01*
X134206717Y-103136292D02*
X134301998Y-103183933D01*
X127000762Y-104171741D02*
X126000313Y-104171741D01*
X126000313Y-104171741D02*
X126000313Y-103933539D01*
X126000313Y-103933539D02*
X126047953Y-103790618D01*
X126047953Y-103790618D02*
X126143234Y-103695337D01*
X126143234Y-103695337D02*
X126238515Y-103647697D01*
X126238515Y-103647697D02*
X126429077Y-103600056D01*
X126429077Y-103600056D02*
X126571998Y-103600056D01*
X126571998Y-103600056D02*
X126762560Y-103647697D01*
X126762560Y-103647697D02*
X126857841Y-103695337D01*
X126857841Y-103695337D02*
X126953122Y-103790618D01*
X126953122Y-103790618D02*
X127000762Y-103933539D01*
X127000762Y-103933539D02*
X127000762Y-104171741D01*
X126000313Y-103266573D02*
X126000313Y-102599607D01*
X126000313Y-102599607D02*
X127000762Y-103028371D01*
X134870762Y-121973145D02*
X133870313Y-121973145D01*
X133870313Y-121973145D02*
X133870313Y-121734943D01*
X133870313Y-121734943D02*
X133917953Y-121592022D01*
X133917953Y-121592022D02*
X134013234Y-121496741D01*
X134013234Y-121496741D02*
X134108515Y-121449101D01*
X134108515Y-121449101D02*
X134299077Y-121401460D01*
X134299077Y-121401460D02*
X134441998Y-121401460D01*
X134441998Y-121401460D02*
X134632560Y-121449101D01*
X134632560Y-121449101D02*
X134727841Y-121496741D01*
X134727841Y-121496741D02*
X134823122Y-121592022D01*
X134823122Y-121592022D02*
X134870762Y-121734943D01*
X134870762Y-121734943D02*
X134870762Y-121973145D01*
X134870762Y-120448652D02*
X134870762Y-121020337D01*
X134870762Y-120734494D02*
X133870313Y-120734494D01*
X133870313Y-120734494D02*
X134013234Y-120829775D01*
X134013234Y-120829775D02*
X134108515Y-120925056D01*
X134108515Y-120925056D02*
X134156156Y-121020337D01*
X133870313Y-120115168D02*
X133870313Y-119495843D01*
X133870313Y-119495843D02*
X134251436Y-119829326D01*
X134251436Y-119829326D02*
X134251436Y-119686404D01*
X134251436Y-119686404D02*
X134299077Y-119591124D01*
X134299077Y-119591124D02*
X134346717Y-119543483D01*
X134346717Y-119543483D02*
X134441998Y-119495843D01*
X134441998Y-119495843D02*
X134680200Y-119495843D01*
X134680200Y-119495843D02*
X134775481Y-119543483D01*
X134775481Y-119543483D02*
X134823122Y-119591124D01*
X134823122Y-119591124D02*
X134870762Y-119686404D01*
X134870762Y-119686404D02*
X134870762Y-119972247D01*
X134870762Y-119972247D02*
X134823122Y-120067528D01*
X134823122Y-120067528D02*
X134775481Y-120115168D01*
X127070762Y-121825645D02*
X126070313Y-121825645D01*
X126070313Y-121825645D02*
X126070313Y-121587443D01*
X126070313Y-121587443D02*
X126117953Y-121444522D01*
X126117953Y-121444522D02*
X126213234Y-121349241D01*
X126213234Y-121349241D02*
X126308515Y-121301601D01*
X126308515Y-121301601D02*
X126499077Y-121253960D01*
X126499077Y-121253960D02*
X126641998Y-121253960D01*
X126641998Y-121253960D02*
X126832560Y-121301601D01*
X126832560Y-121301601D02*
X126927841Y-121349241D01*
X126927841Y-121349241D02*
X127023122Y-121444522D01*
X127023122Y-121444522D02*
X127070762Y-121587443D01*
X127070762Y-121587443D02*
X127070762Y-121825645D01*
X127070762Y-120301152D02*
X127070762Y-120872837D01*
X127070762Y-120586994D02*
X126070313Y-120586994D01*
X126070313Y-120586994D02*
X126213234Y-120682275D01*
X126213234Y-120682275D02*
X126308515Y-120777556D01*
X126308515Y-120777556D02*
X126356156Y-120872837D01*
X126403796Y-119443624D02*
X127070762Y-119443624D01*
X126022673Y-119681826D02*
X126737279Y-119920028D01*
X126737279Y-119920028D02*
X126737279Y-119300702D01*
X119240762Y-104149241D02*
X118240313Y-104149241D01*
X118240313Y-104149241D02*
X118240313Y-103911039D01*
X118240313Y-103911039D02*
X118287953Y-103768118D01*
X118287953Y-103768118D02*
X118383234Y-103672837D01*
X118383234Y-103672837D02*
X118478515Y-103625197D01*
X118478515Y-103625197D02*
X118669077Y-103577556D01*
X118669077Y-103577556D02*
X118811998Y-103577556D01*
X118811998Y-103577556D02*
X119002560Y-103625197D01*
X119002560Y-103625197D02*
X119097841Y-103672837D01*
X119097841Y-103672837D02*
X119193122Y-103768118D01*
X119193122Y-103768118D02*
X119240762Y-103911039D01*
X119240762Y-103911039D02*
X119240762Y-104149241D01*
X118669077Y-103005871D02*
X118621436Y-103101152D01*
X118621436Y-103101152D02*
X118573796Y-103148792D01*
X118573796Y-103148792D02*
X118478515Y-103196433D01*
X118478515Y-103196433D02*
X118430875Y-103196433D01*
X118430875Y-103196433D02*
X118335594Y-103148792D01*
X118335594Y-103148792D02*
X118287953Y-103101152D01*
X118287953Y-103101152D02*
X118240313Y-103005871D01*
X118240313Y-103005871D02*
X118240313Y-102815309D01*
X118240313Y-102815309D02*
X118287953Y-102720029D01*
X118287953Y-102720029D02*
X118335594Y-102672388D01*
X118335594Y-102672388D02*
X118430875Y-102624748D01*
X118430875Y-102624748D02*
X118478515Y-102624748D01*
X118478515Y-102624748D02*
X118573796Y-102672388D01*
X118573796Y-102672388D02*
X118621436Y-102720029D01*
X118621436Y-102720029D02*
X118669077Y-102815309D01*
X118669077Y-102815309D02*
X118669077Y-103005871D01*
X118669077Y-103005871D02*
X118716717Y-103101152D01*
X118716717Y-103101152D02*
X118764358Y-103148792D01*
X118764358Y-103148792D02*
X118859639Y-103196433D01*
X118859639Y-103196433D02*
X119050200Y-103196433D01*
X119050200Y-103196433D02*
X119145481Y-103148792D01*
X119145481Y-103148792D02*
X119193122Y-103101152D01*
X119193122Y-103101152D02*
X119240762Y-103005871D01*
X119240762Y-103005871D02*
X119240762Y-102815309D01*
X119240762Y-102815309D02*
X119193122Y-102720029D01*
X119193122Y-102720029D02*
X119145481Y-102672388D01*
X119145481Y-102672388D02*
X119050200Y-102624748D01*
X119050200Y-102624748D02*
X118859639Y-102624748D01*
X118859639Y-102624748D02*
X118764358Y-102672388D01*
X118764358Y-102672388D02*
X118716717Y-102720029D01*
X118716717Y-102720029D02*
X118669077Y-102815309D01*
X142970762Y-135533145D02*
X141970313Y-135533145D01*
X141970313Y-135533145D02*
X141970313Y-135294943D01*
X141970313Y-135294943D02*
X142017953Y-135152022D01*
X142017953Y-135152022D02*
X142113234Y-135056741D01*
X142113234Y-135056741D02*
X142208515Y-135009101D01*
X142208515Y-135009101D02*
X142399077Y-134961460D01*
X142399077Y-134961460D02*
X142541998Y-134961460D01*
X142541998Y-134961460D02*
X142732560Y-135009101D01*
X142732560Y-135009101D02*
X142827841Y-135056741D01*
X142827841Y-135056741D02*
X142923122Y-135152022D01*
X142923122Y-135152022D02*
X142970762Y-135294943D01*
X142970762Y-135294943D02*
X142970762Y-135533145D01*
X142970762Y-134008652D02*
X142970762Y-134580337D01*
X142970762Y-134294494D02*
X141970313Y-134294494D01*
X141970313Y-134294494D02*
X142113234Y-134389775D01*
X142113234Y-134389775D02*
X142208515Y-134485056D01*
X142208515Y-134485056D02*
X142256156Y-134580337D01*
X142970762Y-133055843D02*
X142970762Y-133627528D01*
X142970762Y-133341685D02*
X141970313Y-133341685D01*
X141970313Y-133341685D02*
X142113234Y-133436966D01*
X142113234Y-133436966D02*
X142208515Y-133532247D01*
X142208515Y-133532247D02*
X142256156Y-133627528D01*
X142920762Y-121973145D02*
X141920313Y-121973145D01*
X141920313Y-121973145D02*
X141920313Y-121734943D01*
X141920313Y-121734943D02*
X141967953Y-121592022D01*
X141967953Y-121592022D02*
X142063234Y-121496741D01*
X142063234Y-121496741D02*
X142158515Y-121449101D01*
X142158515Y-121449101D02*
X142349077Y-121401460D01*
X142349077Y-121401460D02*
X142491998Y-121401460D01*
X142491998Y-121401460D02*
X142682560Y-121449101D01*
X142682560Y-121449101D02*
X142777841Y-121496741D01*
X142777841Y-121496741D02*
X142873122Y-121592022D01*
X142873122Y-121592022D02*
X142920762Y-121734943D01*
X142920762Y-121734943D02*
X142920762Y-121973145D01*
X142920762Y-120448652D02*
X142920762Y-121020337D01*
X142920762Y-120734494D02*
X141920313Y-120734494D01*
X141920313Y-120734494D02*
X142063234Y-120829775D01*
X142063234Y-120829775D02*
X142158515Y-120925056D01*
X142158515Y-120925056D02*
X142206156Y-121020337D01*
X141920313Y-119543483D02*
X141920313Y-120019887D01*
X141920313Y-120019887D02*
X142396717Y-120067528D01*
X142396717Y-120067528D02*
X142349077Y-120019887D01*
X142349077Y-120019887D02*
X142301436Y-119924607D01*
X142301436Y-119924607D02*
X142301436Y-119686404D01*
X142301436Y-119686404D02*
X142349077Y-119591124D01*
X142349077Y-119591124D02*
X142396717Y-119543483D01*
X142396717Y-119543483D02*
X142491998Y-119495843D01*
X142491998Y-119495843D02*
X142730200Y-119495843D01*
X142730200Y-119495843D02*
X142825481Y-119543483D01*
X142825481Y-119543483D02*
X142873122Y-119591124D01*
X142873122Y-119591124D02*
X142920762Y-119686404D01*
X142920762Y-119686404D02*
X142920762Y-119924607D01*
X142920762Y-119924607D02*
X142873122Y-120019887D01*
X142873122Y-120019887D02*
X142825481Y-120067528D01*
X119240762Y-121885645D02*
X118240313Y-121885645D01*
X118240313Y-121885645D02*
X118240313Y-121647443D01*
X118240313Y-121647443D02*
X118287953Y-121504522D01*
X118287953Y-121504522D02*
X118383234Y-121409241D01*
X118383234Y-121409241D02*
X118478515Y-121361601D01*
X118478515Y-121361601D02*
X118669077Y-121313960D01*
X118669077Y-121313960D02*
X118811998Y-121313960D01*
X118811998Y-121313960D02*
X119002560Y-121361601D01*
X119002560Y-121361601D02*
X119097841Y-121409241D01*
X119097841Y-121409241D02*
X119193122Y-121504522D01*
X119193122Y-121504522D02*
X119240762Y-121647443D01*
X119240762Y-121647443D02*
X119240762Y-121885645D01*
X119240762Y-120361152D02*
X119240762Y-120932837D01*
X119240762Y-120646994D02*
X118240313Y-120646994D01*
X118240313Y-120646994D02*
X118383234Y-120742275D01*
X118383234Y-120742275D02*
X118478515Y-120837556D01*
X118478515Y-120837556D02*
X118526156Y-120932837D01*
X118240313Y-119503624D02*
X118240313Y-119694185D01*
X118240313Y-119694185D02*
X118287953Y-119789466D01*
X118287953Y-119789466D02*
X118335594Y-119837107D01*
X118335594Y-119837107D02*
X118478515Y-119932387D01*
X118478515Y-119932387D02*
X118669077Y-119980028D01*
X118669077Y-119980028D02*
X119050200Y-119980028D01*
X119050200Y-119980028D02*
X119145481Y-119932387D01*
X119145481Y-119932387D02*
X119193122Y-119884747D01*
X119193122Y-119884747D02*
X119240762Y-119789466D01*
X119240762Y-119789466D02*
X119240762Y-119598904D01*
X119240762Y-119598904D02*
X119193122Y-119503624D01*
X119193122Y-119503624D02*
X119145481Y-119455983D01*
X119145481Y-119455983D02*
X119050200Y-119408343D01*
X119050200Y-119408343D02*
X118811998Y-119408343D01*
X118811998Y-119408343D02*
X118716717Y-119455983D01*
X118716717Y-119455983D02*
X118669077Y-119503624D01*
X118669077Y-119503624D02*
X118621436Y-119598904D01*
X118621436Y-119598904D02*
X118621436Y-119789466D01*
X118621436Y-119789466D02*
X118669077Y-119884747D01*
X118669077Y-119884747D02*
X118716717Y-119932387D01*
X118716717Y-119932387D02*
X118811998Y-119980028D01*
X116737319Y-90202856D02*
X115737319Y-90202856D01*
X115737319Y-90202856D02*
X116451604Y-89869523D01*
X116451604Y-89869523D02*
X115737319Y-89536190D01*
X115737319Y-89536190D02*
X116737319Y-89536190D01*
X116737319Y-88583809D02*
X116737319Y-89059999D01*
X116737319Y-89059999D02*
X115737319Y-89059999D01*
X116213509Y-87917142D02*
X116213509Y-88250475D01*
X116737319Y-88250475D02*
X115737319Y-88250475D01*
X115737319Y-88250475D02*
X115737319Y-87774285D01*
X116737319Y-86869523D02*
X116737319Y-87440951D01*
X116737319Y-87155237D02*
X115737319Y-87155237D01*
X115737319Y-87155237D02*
X115880176Y-87250475D01*
X115880176Y-87250475D02*
X115975414Y-87345713D01*
X115975414Y-87345713D02*
X116023033Y-87440951D01*
X115517319Y-134569523D02*
X114517319Y-134569523D01*
X114517319Y-134569523D02*
X115231604Y-134236190D01*
X115231604Y-134236190D02*
X114517319Y-133902857D01*
X114517319Y-133902857D02*
X115517319Y-133902857D01*
X115517319Y-132855238D02*
X115041128Y-133188571D01*
X115517319Y-133426666D02*
X114517319Y-133426666D01*
X114517319Y-133426666D02*
X114517319Y-133045714D01*
X114517319Y-133045714D02*
X114564938Y-132950476D01*
X114564938Y-132950476D02*
X114612557Y-132902857D01*
X114612557Y-132902857D02*
X114707795Y-132855238D01*
X114707795Y-132855238D02*
X114850652Y-132855238D01*
X114850652Y-132855238D02*
X114945890Y-132902857D01*
X114945890Y-132902857D02*
X114993509Y-132950476D01*
X114993509Y-132950476D02*
X115041128Y-133045714D01*
X115041128Y-133045714D02*
X115041128Y-133426666D01*
X114993509Y-132093333D02*
X115041128Y-131950476D01*
X115041128Y-131950476D02*
X115088747Y-131902857D01*
X115088747Y-131902857D02*
X115183985Y-131855238D01*
X115183985Y-131855238D02*
X115326842Y-131855238D01*
X115326842Y-131855238D02*
X115422080Y-131902857D01*
X115422080Y-131902857D02*
X115469700Y-131950476D01*
X115469700Y-131950476D02*
X115517319Y-132045714D01*
X115517319Y-132045714D02*
X115517319Y-132426666D01*
X115517319Y-132426666D02*
X114517319Y-132426666D01*
X114517319Y-132426666D02*
X114517319Y-132093333D01*
X114517319Y-132093333D02*
X114564938Y-131998095D01*
X114564938Y-131998095D02*
X114612557Y-131950476D01*
X114612557Y-131950476D02*
X114707795Y-131902857D01*
X114707795Y-131902857D02*
X114803033Y-131902857D01*
X114803033Y-131902857D02*
X114898271Y-131950476D01*
X114898271Y-131950476D02*
X114945890Y-131998095D01*
X114945890Y-131998095D02*
X114993509Y-132093333D01*
X114993509Y-132093333D02*
X114993509Y-132426666D01*
X115517319Y-130902857D02*
X115517319Y-131474285D01*
X115517319Y-131188571D02*
X114517319Y-131188571D01*
X114517319Y-131188571D02*
X114660176Y-131283809D01*
X114660176Y-131283809D02*
X114755414Y-131379047D01*
X114755414Y-131379047D02*
X114803033Y-131474285D01*
X115517319Y-122498094D02*
X114517319Y-122498094D01*
X114517319Y-122498094D02*
X115231604Y-122164761D01*
X115231604Y-122164761D02*
X114517319Y-121831428D01*
X114517319Y-121831428D02*
X115517319Y-121831428D01*
X115517319Y-120783809D02*
X115041128Y-121117142D01*
X115517319Y-121355237D02*
X114517319Y-121355237D01*
X114517319Y-121355237D02*
X114517319Y-120974285D01*
X114517319Y-120974285D02*
X114564938Y-120879047D01*
X114564938Y-120879047D02*
X114612557Y-120831428D01*
X114612557Y-120831428D02*
X114707795Y-120783809D01*
X114707795Y-120783809D02*
X114850652Y-120783809D01*
X114850652Y-120783809D02*
X114945890Y-120831428D01*
X114945890Y-120831428D02*
X114993509Y-120879047D01*
X114993509Y-120879047D02*
X115041128Y-120974285D01*
X115041128Y-120974285D02*
X115041128Y-121355237D01*
X114993509Y-120021904D02*
X114993509Y-120355237D01*
X115517319Y-120355237D02*
X114517319Y-120355237D01*
X114517319Y-120355237D02*
X114517319Y-119879047D01*
X115517319Y-118974285D02*
X115517319Y-119545713D01*
X115517319Y-119259999D02*
X114517319Y-119259999D01*
X114517319Y-119259999D02*
X114660176Y-119355237D01*
X114660176Y-119355237D02*
X114755414Y-119450475D01*
X114755414Y-119450475D02*
X114803033Y-119545713D01*
X119170762Y-135263145D02*
X118170313Y-135263145D01*
X118170313Y-135263145D02*
X118170313Y-135024943D01*
X118170313Y-135024943D02*
X118217953Y-134882022D01*
X118217953Y-134882022D02*
X118313234Y-134786741D01*
X118313234Y-134786741D02*
X118408515Y-134739101D01*
X118408515Y-134739101D02*
X118599077Y-134691460D01*
X118599077Y-134691460D02*
X118741998Y-134691460D01*
X118741998Y-134691460D02*
X118932560Y-134739101D01*
X118932560Y-134739101D02*
X119027841Y-134786741D01*
X119027841Y-134786741D02*
X119123122Y-134882022D01*
X119123122Y-134882022D02*
X119170762Y-135024943D01*
X119170762Y-135024943D02*
X119170762Y-135263145D01*
X119170762Y-133738652D02*
X119170762Y-134310337D01*
X119170762Y-134024494D02*
X118170313Y-134024494D01*
X118170313Y-134024494D02*
X118313234Y-134119775D01*
X118313234Y-134119775D02*
X118408515Y-134215056D01*
X118408515Y-134215056D02*
X118456156Y-134310337D01*
X118265594Y-133357528D02*
X118217953Y-133309887D01*
X118217953Y-133309887D02*
X118170313Y-133214607D01*
X118170313Y-133214607D02*
X118170313Y-132976404D01*
X118170313Y-132976404D02*
X118217953Y-132881124D01*
X118217953Y-132881124D02*
X118265594Y-132833483D01*
X118265594Y-132833483D02*
X118360875Y-132785843D01*
X118360875Y-132785843D02*
X118456156Y-132785843D01*
X118456156Y-132785843D02*
X118599077Y-132833483D01*
X118599077Y-132833483D02*
X119170762Y-133405168D01*
X119170762Y-133405168D02*
X119170762Y-132785843D01*
X116737319Y-102274285D02*
X115737319Y-102274285D01*
X115737319Y-102274285D02*
X116451604Y-101940952D01*
X116451604Y-101940952D02*
X115737319Y-101607619D01*
X115737319Y-101607619D02*
X116737319Y-101607619D01*
X116737319Y-100655238D02*
X116737319Y-101131428D01*
X116737319Y-101131428D02*
X115737319Y-101131428D01*
X116213509Y-99988571D02*
X116261128Y-99845714D01*
X116261128Y-99845714D02*
X116308747Y-99798095D01*
X116308747Y-99798095D02*
X116403985Y-99750476D01*
X116403985Y-99750476D02*
X116546842Y-99750476D01*
X116546842Y-99750476D02*
X116642080Y-99798095D01*
X116642080Y-99798095D02*
X116689700Y-99845714D01*
X116689700Y-99845714D02*
X116737319Y-99940952D01*
X116737319Y-99940952D02*
X116737319Y-100321904D01*
X116737319Y-100321904D02*
X115737319Y-100321904D01*
X115737319Y-100321904D02*
X115737319Y-99988571D01*
X115737319Y-99988571D02*
X115784938Y-99893333D01*
X115784938Y-99893333D02*
X115832557Y-99845714D01*
X115832557Y-99845714D02*
X115927795Y-99798095D01*
X115927795Y-99798095D02*
X116023033Y-99798095D01*
X116023033Y-99798095D02*
X116118271Y-99845714D01*
X116118271Y-99845714D02*
X116165890Y-99893333D01*
X116165890Y-99893333D02*
X116213509Y-99988571D01*
X116213509Y-99988571D02*
X116213509Y-100321904D01*
X116737319Y-98798095D02*
X116737319Y-99369523D01*
X116737319Y-99083809D02*
X115737319Y-99083809D01*
X115737319Y-99083809D02*
X115880176Y-99179047D01*
X115880176Y-99179047D02*
X115975414Y-99274285D01*
X115975414Y-99274285D02*
X116023033Y-99369523D01*
X187993333Y-88049580D02*
X187945714Y-88097200D01*
X187945714Y-88097200D02*
X187802857Y-88144819D01*
X187802857Y-88144819D02*
X187707619Y-88144819D01*
X187707619Y-88144819D02*
X187564762Y-88097200D01*
X187564762Y-88097200D02*
X187469524Y-88001961D01*
X187469524Y-88001961D02*
X187421905Y-87906723D01*
X187421905Y-87906723D02*
X187374286Y-87716247D01*
X187374286Y-87716247D02*
X187374286Y-87573390D01*
X187374286Y-87573390D02*
X187421905Y-87382914D01*
X187421905Y-87382914D02*
X187469524Y-87287676D01*
X187469524Y-87287676D02*
X187564762Y-87192438D01*
X187564762Y-87192438D02*
X187707619Y-87144819D01*
X187707619Y-87144819D02*
X187802857Y-87144819D01*
X187802857Y-87144819D02*
X187945714Y-87192438D01*
X187945714Y-87192438D02*
X187993333Y-87240057D01*
X188898095Y-87144819D02*
X188421905Y-87144819D01*
X188421905Y-87144819D02*
X188374286Y-87621009D01*
X188374286Y-87621009D02*
X188421905Y-87573390D01*
X188421905Y-87573390D02*
X188517143Y-87525771D01*
X188517143Y-87525771D02*
X188755238Y-87525771D01*
X188755238Y-87525771D02*
X188850476Y-87573390D01*
X188850476Y-87573390D02*
X188898095Y-87621009D01*
X188898095Y-87621009D02*
X188945714Y-87716247D01*
X188945714Y-87716247D02*
X188945714Y-87954342D01*
X188945714Y-87954342D02*
X188898095Y-88049580D01*
X188898095Y-88049580D02*
X188850476Y-88097200D01*
X188850476Y-88097200D02*
X188755238Y-88144819D01*
X188755238Y-88144819D02*
X188517143Y-88144819D01*
X188517143Y-88144819D02*
X188421905Y-88097200D01*
X188421905Y-88097200D02*
X188374286Y-88049580D01*
X194363333Y-93269580D02*
X194315714Y-93317200D01*
X194315714Y-93317200D02*
X194172857Y-93364819D01*
X194172857Y-93364819D02*
X194077619Y-93364819D01*
X194077619Y-93364819D02*
X193934762Y-93317200D01*
X193934762Y-93317200D02*
X193839524Y-93221961D01*
X193839524Y-93221961D02*
X193791905Y-93126723D01*
X193791905Y-93126723D02*
X193744286Y-92936247D01*
X193744286Y-92936247D02*
X193744286Y-92793390D01*
X193744286Y-92793390D02*
X193791905Y-92602914D01*
X193791905Y-92602914D02*
X193839524Y-92507676D01*
X193839524Y-92507676D02*
X193934762Y-92412438D01*
X193934762Y-92412438D02*
X194077619Y-92364819D01*
X194077619Y-92364819D02*
X194172857Y-92364819D01*
X194172857Y-92364819D02*
X194315714Y-92412438D01*
X194315714Y-92412438D02*
X194363333Y-92460057D01*
X194744286Y-92460057D02*
X194791905Y-92412438D01*
X194791905Y-92412438D02*
X194887143Y-92364819D01*
X194887143Y-92364819D02*
X195125238Y-92364819D01*
X195125238Y-92364819D02*
X195220476Y-92412438D01*
X195220476Y-92412438D02*
X195268095Y-92460057D01*
X195268095Y-92460057D02*
X195315714Y-92555295D01*
X195315714Y-92555295D02*
X195315714Y-92650533D01*
X195315714Y-92650533D02*
X195268095Y-92793390D01*
X195268095Y-92793390D02*
X194696667Y-93364819D01*
X194696667Y-93364819D02*
X195315714Y-93364819D01*
X188163333Y-82939580D02*
X188115714Y-82987200D01*
X188115714Y-82987200D02*
X187972857Y-83034819D01*
X187972857Y-83034819D02*
X187877619Y-83034819D01*
X187877619Y-83034819D02*
X187734762Y-82987200D01*
X187734762Y-82987200D02*
X187639524Y-82891961D01*
X187639524Y-82891961D02*
X187591905Y-82796723D01*
X187591905Y-82796723D02*
X187544286Y-82606247D01*
X187544286Y-82606247D02*
X187544286Y-82463390D01*
X187544286Y-82463390D02*
X187591905Y-82272914D01*
X187591905Y-82272914D02*
X187639524Y-82177676D01*
X187639524Y-82177676D02*
X187734762Y-82082438D01*
X187734762Y-82082438D02*
X187877619Y-82034819D01*
X187877619Y-82034819D02*
X187972857Y-82034819D01*
X187972857Y-82034819D02*
X188115714Y-82082438D01*
X188115714Y-82082438D02*
X188163333Y-82130057D01*
X188496667Y-82034819D02*
X189115714Y-82034819D01*
X189115714Y-82034819D02*
X188782381Y-82415771D01*
X188782381Y-82415771D02*
X188925238Y-82415771D01*
X188925238Y-82415771D02*
X189020476Y-82463390D01*
X189020476Y-82463390D02*
X189068095Y-82511009D01*
X189068095Y-82511009D02*
X189115714Y-82606247D01*
X189115714Y-82606247D02*
X189115714Y-82844342D01*
X189115714Y-82844342D02*
X189068095Y-82939580D01*
X189068095Y-82939580D02*
X189020476Y-82987200D01*
X189020476Y-82987200D02*
X188925238Y-83034819D01*
X188925238Y-83034819D02*
X188639524Y-83034819D01*
X188639524Y-83034819D02*
X188544286Y-82987200D01*
X188544286Y-82987200D02*
X188496667Y-82939580D01*
X181349580Y-120412857D02*
X181397200Y-120460476D01*
X181397200Y-120460476D02*
X181444819Y-120603333D01*
X181444819Y-120603333D02*
X181444819Y-120698571D01*
X181444819Y-120698571D02*
X181397200Y-120841428D01*
X181397200Y-120841428D02*
X181301961Y-120936666D01*
X181301961Y-120936666D02*
X181206723Y-120984285D01*
X181206723Y-120984285D02*
X181016247Y-121031904D01*
X181016247Y-121031904D02*
X180873390Y-121031904D01*
X180873390Y-121031904D02*
X180682914Y-120984285D01*
X180682914Y-120984285D02*
X180587676Y-120936666D01*
X180587676Y-120936666D02*
X180492438Y-120841428D01*
X180492438Y-120841428D02*
X180444819Y-120698571D01*
X180444819Y-120698571D02*
X180444819Y-120603333D01*
X180444819Y-120603333D02*
X180492438Y-120460476D01*
X180492438Y-120460476D02*
X180540057Y-120412857D01*
X181444819Y-119460476D02*
X181444819Y-120031904D01*
X181444819Y-119746190D02*
X180444819Y-119746190D01*
X180444819Y-119746190D02*
X180587676Y-119841428D01*
X180587676Y-119841428D02*
X180682914Y-119936666D01*
X180682914Y-119936666D02*
X180730533Y-120031904D01*
X180444819Y-119127142D02*
X180444819Y-118508095D01*
X180444819Y-118508095D02*
X180825771Y-118841428D01*
X180825771Y-118841428D02*
X180825771Y-118698571D01*
X180825771Y-118698571D02*
X180873390Y-118603333D01*
X180873390Y-118603333D02*
X180921009Y-118555714D01*
X180921009Y-118555714D02*
X181016247Y-118508095D01*
X181016247Y-118508095D02*
X181254342Y-118508095D01*
X181254342Y-118508095D02*
X181349580Y-118555714D01*
X181349580Y-118555714D02*
X181397200Y-118603333D01*
X181397200Y-118603333D02*
X181444819Y-118698571D01*
X181444819Y-118698571D02*
X181444819Y-118984285D01*
X181444819Y-118984285D02*
X181397200Y-119079523D01*
X181397200Y-119079523D02*
X181349580Y-119127142D01*
X157609580Y-99166666D02*
X157657200Y-99214285D01*
X157657200Y-99214285D02*
X157704819Y-99357142D01*
X157704819Y-99357142D02*
X157704819Y-99452380D01*
X157704819Y-99452380D02*
X157657200Y-99595237D01*
X157657200Y-99595237D02*
X157561961Y-99690475D01*
X157561961Y-99690475D02*
X157466723Y-99738094D01*
X157466723Y-99738094D02*
X157276247Y-99785713D01*
X157276247Y-99785713D02*
X157133390Y-99785713D01*
X157133390Y-99785713D02*
X156942914Y-99738094D01*
X156942914Y-99738094D02*
X156847676Y-99690475D01*
X156847676Y-99690475D02*
X156752438Y-99595237D01*
X156752438Y-99595237D02*
X156704819Y-99452380D01*
X156704819Y-99452380D02*
X156704819Y-99357142D01*
X156704819Y-99357142D02*
X156752438Y-99214285D01*
X156752438Y-99214285D02*
X156800057Y-99166666D01*
X157704819Y-98214285D02*
X157704819Y-98785713D01*
X157704819Y-98499999D02*
X156704819Y-98499999D01*
X156704819Y-98499999D02*
X156847676Y-98595237D01*
X156847676Y-98595237D02*
X156942914Y-98690475D01*
X156942914Y-98690475D02*
X156990533Y-98785713D01*
X149113333Y-48069580D02*
X149065714Y-48117200D01*
X149065714Y-48117200D02*
X148922857Y-48164819D01*
X148922857Y-48164819D02*
X148827619Y-48164819D01*
X148827619Y-48164819D02*
X148684762Y-48117200D01*
X148684762Y-48117200D02*
X148589524Y-48021961D01*
X148589524Y-48021961D02*
X148541905Y-47926723D01*
X148541905Y-47926723D02*
X148494286Y-47736247D01*
X148494286Y-47736247D02*
X148494286Y-47593390D01*
X148494286Y-47593390D02*
X148541905Y-47402914D01*
X148541905Y-47402914D02*
X148589524Y-47307676D01*
X148589524Y-47307676D02*
X148684762Y-47212438D01*
X148684762Y-47212438D02*
X148827619Y-47164819D01*
X148827619Y-47164819D02*
X148922857Y-47164819D01*
X148922857Y-47164819D02*
X149065714Y-47212438D01*
X149065714Y-47212438D02*
X149113333Y-47260057D01*
X149970476Y-47164819D02*
X149780000Y-47164819D01*
X149780000Y-47164819D02*
X149684762Y-47212438D01*
X149684762Y-47212438D02*
X149637143Y-47260057D01*
X149637143Y-47260057D02*
X149541905Y-47402914D01*
X149541905Y-47402914D02*
X149494286Y-47593390D01*
X149494286Y-47593390D02*
X149494286Y-47974342D01*
X149494286Y-47974342D02*
X149541905Y-48069580D01*
X149541905Y-48069580D02*
X149589524Y-48117200D01*
X149589524Y-48117200D02*
X149684762Y-48164819D01*
X149684762Y-48164819D02*
X149875238Y-48164819D01*
X149875238Y-48164819D02*
X149970476Y-48117200D01*
X149970476Y-48117200D02*
X150018095Y-48069580D01*
X150018095Y-48069580D02*
X150065714Y-47974342D01*
X150065714Y-47974342D02*
X150065714Y-47736247D01*
X150065714Y-47736247D02*
X150018095Y-47641009D01*
X150018095Y-47641009D02*
X149970476Y-47593390D01*
X149970476Y-47593390D02*
X149875238Y-47545771D01*
X149875238Y-47545771D02*
X149684762Y-47545771D01*
X149684762Y-47545771D02*
X149589524Y-47593390D01*
X149589524Y-47593390D02*
X149541905Y-47641009D01*
X149541905Y-47641009D02*
X149494286Y-47736247D01*
X114989580Y-79956666D02*
X115037200Y-80004285D01*
X115037200Y-80004285D02*
X115084819Y-80147142D01*
X115084819Y-80147142D02*
X115084819Y-80242380D01*
X115084819Y-80242380D02*
X115037200Y-80385237D01*
X115037200Y-80385237D02*
X114941961Y-80480475D01*
X114941961Y-80480475D02*
X114846723Y-80528094D01*
X114846723Y-80528094D02*
X114656247Y-80575713D01*
X114656247Y-80575713D02*
X114513390Y-80575713D01*
X114513390Y-80575713D02*
X114322914Y-80528094D01*
X114322914Y-80528094D02*
X114227676Y-80480475D01*
X114227676Y-80480475D02*
X114132438Y-80385237D01*
X114132438Y-80385237D02*
X114084819Y-80242380D01*
X114084819Y-80242380D02*
X114084819Y-80147142D01*
X114084819Y-80147142D02*
X114132438Y-80004285D01*
X114132438Y-80004285D02*
X114180057Y-79956666D01*
X114513390Y-79385237D02*
X114465771Y-79480475D01*
X114465771Y-79480475D02*
X114418152Y-79528094D01*
X114418152Y-79528094D02*
X114322914Y-79575713D01*
X114322914Y-79575713D02*
X114275295Y-79575713D01*
X114275295Y-79575713D02*
X114180057Y-79528094D01*
X114180057Y-79528094D02*
X114132438Y-79480475D01*
X114132438Y-79480475D02*
X114084819Y-79385237D01*
X114084819Y-79385237D02*
X114084819Y-79194761D01*
X114084819Y-79194761D02*
X114132438Y-79099523D01*
X114132438Y-79099523D02*
X114180057Y-79051904D01*
X114180057Y-79051904D02*
X114275295Y-79004285D01*
X114275295Y-79004285D02*
X114322914Y-79004285D01*
X114322914Y-79004285D02*
X114418152Y-79051904D01*
X114418152Y-79051904D02*
X114465771Y-79099523D01*
X114465771Y-79099523D02*
X114513390Y-79194761D01*
X114513390Y-79194761D02*
X114513390Y-79385237D01*
X114513390Y-79385237D02*
X114561009Y-79480475D01*
X114561009Y-79480475D02*
X114608628Y-79528094D01*
X114608628Y-79528094D02*
X114703866Y-79575713D01*
X114703866Y-79575713D02*
X114894342Y-79575713D01*
X114894342Y-79575713D02*
X114989580Y-79528094D01*
X114989580Y-79528094D02*
X115037200Y-79480475D01*
X115037200Y-79480475D02*
X115084819Y-79385237D01*
X115084819Y-79385237D02*
X115084819Y-79194761D01*
X115084819Y-79194761D02*
X115037200Y-79099523D01*
X115037200Y-79099523D02*
X114989580Y-79051904D01*
X114989580Y-79051904D02*
X114894342Y-79004285D01*
X114894342Y-79004285D02*
X114703866Y-79004285D01*
X114703866Y-79004285D02*
X114608628Y-79051904D01*
X114608628Y-79051904D02*
X114561009Y-79099523D01*
X114561009Y-79099523D02*
X114513390Y-79194761D01*
X194439580Y-100516666D02*
X194487200Y-100564285D01*
X194487200Y-100564285D02*
X194534819Y-100707142D01*
X194534819Y-100707142D02*
X194534819Y-100802380D01*
X194534819Y-100802380D02*
X194487200Y-100945237D01*
X194487200Y-100945237D02*
X194391961Y-101040475D01*
X194391961Y-101040475D02*
X194296723Y-101088094D01*
X194296723Y-101088094D02*
X194106247Y-101135713D01*
X194106247Y-101135713D02*
X193963390Y-101135713D01*
X193963390Y-101135713D02*
X193772914Y-101088094D01*
X193772914Y-101088094D02*
X193677676Y-101040475D01*
X193677676Y-101040475D02*
X193582438Y-100945237D01*
X193582438Y-100945237D02*
X193534819Y-100802380D01*
X193534819Y-100802380D02*
X193534819Y-100707142D01*
X193534819Y-100707142D02*
X193582438Y-100564285D01*
X193582438Y-100564285D02*
X193630057Y-100516666D01*
X193868152Y-99659523D02*
X194534819Y-99659523D01*
X193487200Y-99897618D02*
X194201485Y-100135713D01*
X194201485Y-100135713D02*
X194201485Y-99516666D01*
X115659580Y-113002857D02*
X115707200Y-113050476D01*
X115707200Y-113050476D02*
X115754819Y-113193333D01*
X115754819Y-113193333D02*
X115754819Y-113288571D01*
X115754819Y-113288571D02*
X115707200Y-113431428D01*
X115707200Y-113431428D02*
X115611961Y-113526666D01*
X115611961Y-113526666D02*
X115516723Y-113574285D01*
X115516723Y-113574285D02*
X115326247Y-113621904D01*
X115326247Y-113621904D02*
X115183390Y-113621904D01*
X115183390Y-113621904D02*
X114992914Y-113574285D01*
X114992914Y-113574285D02*
X114897676Y-113526666D01*
X114897676Y-113526666D02*
X114802438Y-113431428D01*
X114802438Y-113431428D02*
X114754819Y-113288571D01*
X114754819Y-113288571D02*
X114754819Y-113193333D01*
X114754819Y-113193333D02*
X114802438Y-113050476D01*
X114802438Y-113050476D02*
X114850057Y-113002857D01*
X115754819Y-112050476D02*
X115754819Y-112621904D01*
X115754819Y-112336190D02*
X114754819Y-112336190D01*
X114754819Y-112336190D02*
X114897676Y-112431428D01*
X114897676Y-112431428D02*
X114992914Y-112526666D01*
X114992914Y-112526666D02*
X115040533Y-112621904D01*
X115754819Y-111098095D02*
X115754819Y-111669523D01*
X115754819Y-111383809D02*
X114754819Y-111383809D01*
X114754819Y-111383809D02*
X114897676Y-111479047D01*
X114897676Y-111479047D02*
X114992914Y-111574285D01*
X114992914Y-111574285D02*
X115040533Y-111669523D01*
X190359580Y-120532857D02*
X190407200Y-120580476D01*
X190407200Y-120580476D02*
X190454819Y-120723333D01*
X190454819Y-120723333D02*
X190454819Y-120818571D01*
X190454819Y-120818571D02*
X190407200Y-120961428D01*
X190407200Y-120961428D02*
X190311961Y-121056666D01*
X190311961Y-121056666D02*
X190216723Y-121104285D01*
X190216723Y-121104285D02*
X190026247Y-121151904D01*
X190026247Y-121151904D02*
X189883390Y-121151904D01*
X189883390Y-121151904D02*
X189692914Y-121104285D01*
X189692914Y-121104285D02*
X189597676Y-121056666D01*
X189597676Y-121056666D02*
X189502438Y-120961428D01*
X189502438Y-120961428D02*
X189454819Y-120818571D01*
X189454819Y-120818571D02*
X189454819Y-120723333D01*
X189454819Y-120723333D02*
X189502438Y-120580476D01*
X189502438Y-120580476D02*
X189550057Y-120532857D01*
X190454819Y-119580476D02*
X190454819Y-120151904D01*
X190454819Y-119866190D02*
X189454819Y-119866190D01*
X189454819Y-119866190D02*
X189597676Y-119961428D01*
X189597676Y-119961428D02*
X189692914Y-120056666D01*
X189692914Y-120056666D02*
X189740533Y-120151904D01*
X189550057Y-119199523D02*
X189502438Y-119151904D01*
X189502438Y-119151904D02*
X189454819Y-119056666D01*
X189454819Y-119056666D02*
X189454819Y-118818571D01*
X189454819Y-118818571D02*
X189502438Y-118723333D01*
X189502438Y-118723333D02*
X189550057Y-118675714D01*
X189550057Y-118675714D02*
X189645295Y-118628095D01*
X189645295Y-118628095D02*
X189740533Y-118628095D01*
X189740533Y-118628095D02*
X189883390Y-118675714D01*
X189883390Y-118675714D02*
X190454819Y-119247142D01*
X190454819Y-119247142D02*
X190454819Y-118628095D01*
X188187142Y-56399580D02*
X188139523Y-56447200D01*
X188139523Y-56447200D02*
X187996666Y-56494819D01*
X187996666Y-56494819D02*
X187901428Y-56494819D01*
X187901428Y-56494819D02*
X187758571Y-56447200D01*
X187758571Y-56447200D02*
X187663333Y-56351961D01*
X187663333Y-56351961D02*
X187615714Y-56256723D01*
X187615714Y-56256723D02*
X187568095Y-56066247D01*
X187568095Y-56066247D02*
X187568095Y-55923390D01*
X187568095Y-55923390D02*
X187615714Y-55732914D01*
X187615714Y-55732914D02*
X187663333Y-55637676D01*
X187663333Y-55637676D02*
X187758571Y-55542438D01*
X187758571Y-55542438D02*
X187901428Y-55494819D01*
X187901428Y-55494819D02*
X187996666Y-55494819D01*
X187996666Y-55494819D02*
X188139523Y-55542438D01*
X188139523Y-55542438D02*
X188187142Y-55590057D01*
X189139523Y-56494819D02*
X188568095Y-56494819D01*
X188853809Y-56494819D02*
X188853809Y-55494819D01*
X188853809Y-55494819D02*
X188758571Y-55637676D01*
X188758571Y-55637676D02*
X188663333Y-55732914D01*
X188663333Y-55732914D02*
X188568095Y-55780533D01*
X190044285Y-55494819D02*
X189568095Y-55494819D01*
X189568095Y-55494819D02*
X189520476Y-55971009D01*
X189520476Y-55971009D02*
X189568095Y-55923390D01*
X189568095Y-55923390D02*
X189663333Y-55875771D01*
X189663333Y-55875771D02*
X189901428Y-55875771D01*
X189901428Y-55875771D02*
X189996666Y-55923390D01*
X189996666Y-55923390D02*
X190044285Y-55971009D01*
X190044285Y-55971009D02*
X190091904Y-56066247D01*
X190091904Y-56066247D02*
X190091904Y-56304342D01*
X190091904Y-56304342D02*
X190044285Y-56399580D01*
X190044285Y-56399580D02*
X189996666Y-56447200D01*
X189996666Y-56447200D02*
X189901428Y-56494819D01*
X189901428Y-56494819D02*
X189663333Y-56494819D01*
X189663333Y-56494819D02*
X189568095Y-56447200D01*
X189568095Y-56447200D02*
X189520476Y-56399580D01*
X179556667Y-51457200D02*
X179699524Y-51504819D01*
X179699524Y-51504819D02*
X179937619Y-51504819D01*
X179937619Y-51504819D02*
X180032857Y-51457200D01*
X180032857Y-51457200D02*
X180080476Y-51409580D01*
X180080476Y-51409580D02*
X180128095Y-51314342D01*
X180128095Y-51314342D02*
X180128095Y-51219104D01*
X180128095Y-51219104D02*
X180080476Y-51123866D01*
X180080476Y-51123866D02*
X180032857Y-51076247D01*
X180032857Y-51076247D02*
X179937619Y-51028628D01*
X179937619Y-51028628D02*
X179747143Y-50981009D01*
X179747143Y-50981009D02*
X179651905Y-50933390D01*
X179651905Y-50933390D02*
X179604286Y-50885771D01*
X179604286Y-50885771D02*
X179556667Y-50790533D01*
X179556667Y-50790533D02*
X179556667Y-50695295D01*
X179556667Y-50695295D02*
X179604286Y-50600057D01*
X179604286Y-50600057D02*
X179651905Y-50552438D01*
X179651905Y-50552438D02*
X179747143Y-50504819D01*
X179747143Y-50504819D02*
X179985238Y-50504819D01*
X179985238Y-50504819D02*
X180128095Y-50552438D01*
X180461429Y-50504819D02*
X180699524Y-51504819D01*
X180699524Y-51504819D02*
X180890000Y-50790533D01*
X180890000Y-50790533D02*
X181080476Y-51504819D01*
X181080476Y-51504819D02*
X181318572Y-50504819D01*
X182223333Y-51504819D02*
X181651905Y-51504819D01*
X181937619Y-51504819D02*
X181937619Y-50504819D01*
X181937619Y-50504819D02*
X181842381Y-50647676D01*
X181842381Y-50647676D02*
X181747143Y-50742914D01*
X181747143Y-50742914D02*
X181651905Y-50790533D01*
X118666666Y-50454819D02*
X118666666Y-51169104D01*
X118666666Y-51169104D02*
X118619047Y-51311961D01*
X118619047Y-51311961D02*
X118523809Y-51407200D01*
X118523809Y-51407200D02*
X118380952Y-51454819D01*
X118380952Y-51454819D02*
X118285714Y-51454819D01*
X119666666Y-51454819D02*
X119095238Y-51454819D01*
X119380952Y-51454819D02*
X119380952Y-50454819D01*
X119380952Y-50454819D02*
X119285714Y-50597676D01*
X119285714Y-50597676D02*
X119190476Y-50692914D01*
X119190476Y-50692914D02*
X119095238Y-50740533D01*
X184854819Y-104106666D02*
X184378628Y-104439999D01*
X184854819Y-104678094D02*
X183854819Y-104678094D01*
X183854819Y-104678094D02*
X183854819Y-104297142D01*
X183854819Y-104297142D02*
X183902438Y-104201904D01*
X183902438Y-104201904D02*
X183950057Y-104154285D01*
X183950057Y-104154285D02*
X184045295Y-104106666D01*
X184045295Y-104106666D02*
X184188152Y-104106666D01*
X184188152Y-104106666D02*
X184283390Y-104154285D01*
X184283390Y-104154285D02*
X184331009Y-104201904D01*
X184331009Y-104201904D02*
X184378628Y-104297142D01*
X184378628Y-104297142D02*
X184378628Y-104678094D01*
X184854819Y-103154285D02*
X184854819Y-103725713D01*
X184854819Y-103439999D02*
X183854819Y-103439999D01*
X183854819Y-103439999D02*
X183997676Y-103535237D01*
X183997676Y-103535237D02*
X184092914Y-103630475D01*
X184092914Y-103630475D02*
X184140533Y-103725713D01*
X189814762Y-59864819D02*
X189814762Y-60674342D01*
X189814762Y-60674342D02*
X189862381Y-60769580D01*
X189862381Y-60769580D02*
X189910000Y-60817200D01*
X189910000Y-60817200D02*
X190005238Y-60864819D01*
X190005238Y-60864819D02*
X190195714Y-60864819D01*
X190195714Y-60864819D02*
X190290952Y-60817200D01*
X190290952Y-60817200D02*
X190338571Y-60769580D01*
X190338571Y-60769580D02*
X190386190Y-60674342D01*
X190386190Y-60674342D02*
X190386190Y-59864819D01*
X190862381Y-60864819D02*
X190862381Y-59864819D01*
X190862381Y-59864819D02*
X191243333Y-59864819D01*
X191243333Y-59864819D02*
X191338571Y-59912438D01*
X191338571Y-59912438D02*
X191386190Y-59960057D01*
X191386190Y-59960057D02*
X191433809Y-60055295D01*
X191433809Y-60055295D02*
X191433809Y-60198152D01*
X191433809Y-60198152D02*
X191386190Y-60293390D01*
X191386190Y-60293390D02*
X191338571Y-60341009D01*
X191338571Y-60341009D02*
X191243333Y-60388628D01*
X191243333Y-60388628D02*
X190862381Y-60388628D01*
X191862381Y-60864819D02*
X191862381Y-59864819D01*
X191862381Y-59864819D02*
X192100476Y-59864819D01*
X192100476Y-59864819D02*
X192243333Y-59912438D01*
X192243333Y-59912438D02*
X192338571Y-60007676D01*
X192338571Y-60007676D02*
X192386190Y-60102914D01*
X192386190Y-60102914D02*
X192433809Y-60293390D01*
X192433809Y-60293390D02*
X192433809Y-60436247D01*
X192433809Y-60436247D02*
X192386190Y-60626723D01*
X192386190Y-60626723D02*
X192338571Y-60721961D01*
X192338571Y-60721961D02*
X192243333Y-60817200D01*
X192243333Y-60817200D02*
X192100476Y-60864819D01*
X192100476Y-60864819D02*
X191862381Y-60864819D01*
X192862381Y-60864819D02*
X192862381Y-59864819D01*
X193338571Y-60864819D02*
X193338571Y-59864819D01*
X193338571Y-60341009D02*
X193909999Y-60341009D01*
X193909999Y-60864819D02*
X193909999Y-59864819D01*
X194767142Y-60817200D02*
X194671904Y-60864819D01*
X194671904Y-60864819D02*
X194481428Y-60864819D01*
X194481428Y-60864819D02*
X194386190Y-60817200D01*
X194386190Y-60817200D02*
X194338571Y-60721961D01*
X194338571Y-60721961D02*
X194338571Y-60341009D01*
X194338571Y-60341009D02*
X194386190Y-60245771D01*
X194386190Y-60245771D02*
X194481428Y-60198152D01*
X194481428Y-60198152D02*
X194671904Y-60198152D01*
X194671904Y-60198152D02*
X194767142Y-60245771D01*
X194767142Y-60245771D02*
X194814761Y-60341009D01*
X194814761Y-60341009D02*
X194814761Y-60436247D01*
X194814761Y-60436247D02*
X194338571Y-60531485D01*
X195671904Y-60864819D02*
X195671904Y-60341009D01*
X195671904Y-60341009D02*
X195624285Y-60245771D01*
X195624285Y-60245771D02*
X195529047Y-60198152D01*
X195529047Y-60198152D02*
X195338571Y-60198152D01*
X195338571Y-60198152D02*
X195243333Y-60245771D01*
X195671904Y-60817200D02*
X195576666Y-60864819D01*
X195576666Y-60864819D02*
X195338571Y-60864819D01*
X195338571Y-60864819D02*
X195243333Y-60817200D01*
X195243333Y-60817200D02*
X195195714Y-60721961D01*
X195195714Y-60721961D02*
X195195714Y-60626723D01*
X195195714Y-60626723D02*
X195243333Y-60531485D01*
X195243333Y-60531485D02*
X195338571Y-60483866D01*
X195338571Y-60483866D02*
X195576666Y-60483866D01*
X195576666Y-60483866D02*
X195671904Y-60436247D01*
X196576666Y-60864819D02*
X196576666Y-59864819D01*
X196576666Y-60817200D02*
X196481428Y-60864819D01*
X196481428Y-60864819D02*
X196290952Y-60864819D01*
X196290952Y-60864819D02*
X196195714Y-60817200D01*
X196195714Y-60817200D02*
X196148095Y-60769580D01*
X196148095Y-60769580D02*
X196100476Y-60674342D01*
X196100476Y-60674342D02*
X196100476Y-60388628D01*
X196100476Y-60388628D02*
X196148095Y-60293390D01*
X196148095Y-60293390D02*
X196195714Y-60245771D01*
X196195714Y-60245771D02*
X196290952Y-60198152D01*
X196290952Y-60198152D02*
X196481428Y-60198152D01*
X196481428Y-60198152D02*
X196576666Y-60245771D01*
X197433809Y-60817200D02*
X197338571Y-60864819D01*
X197338571Y-60864819D02*
X197148095Y-60864819D01*
X197148095Y-60864819D02*
X197052857Y-60817200D01*
X197052857Y-60817200D02*
X197005238Y-60721961D01*
X197005238Y-60721961D02*
X197005238Y-60341009D01*
X197005238Y-60341009D02*
X197052857Y-60245771D01*
X197052857Y-60245771D02*
X197148095Y-60198152D01*
X197148095Y-60198152D02*
X197338571Y-60198152D01*
X197338571Y-60198152D02*
X197433809Y-60245771D01*
X197433809Y-60245771D02*
X197481428Y-60341009D01*
X197481428Y-60341009D02*
X197481428Y-60436247D01*
X197481428Y-60436247D02*
X197005238Y-60531485D01*
X197910000Y-60864819D02*
X197910000Y-60198152D01*
X197910000Y-60388628D02*
X197957619Y-60293390D01*
X197957619Y-60293390D02*
X198005238Y-60245771D01*
X198005238Y-60245771D02*
X198100476Y-60198152D01*
X198100476Y-60198152D02*
X198195714Y-60198152D01*
X199052857Y-60864819D02*
X198481429Y-60864819D01*
X198767143Y-60864819D02*
X198767143Y-59864819D01*
X198767143Y-59864819D02*
X198671905Y-60007676D01*
X198671905Y-60007676D02*
X198576667Y-60102914D01*
X198576667Y-60102914D02*
X198481429Y-60150533D01*
X127504819Y-54571904D02*
X128314342Y-54571904D01*
X128314342Y-54571904D02*
X128409580Y-54524285D01*
X128409580Y-54524285D02*
X128457200Y-54476666D01*
X128457200Y-54476666D02*
X128504819Y-54381428D01*
X128504819Y-54381428D02*
X128504819Y-54190952D01*
X128504819Y-54190952D02*
X128457200Y-54095714D01*
X128457200Y-54095714D02*
X128409580Y-54048095D01*
X128409580Y-54048095D02*
X128314342Y-54000476D01*
X128314342Y-54000476D02*
X127504819Y-54000476D01*
X128504819Y-53000476D02*
X128504819Y-53571904D01*
X128504819Y-53286190D02*
X127504819Y-53286190D01*
X127504819Y-53286190D02*
X127647676Y-53381428D01*
X127647676Y-53381428D02*
X127742914Y-53476666D01*
X127742914Y-53476666D02*
X127790533Y-53571904D01*
D13*
X155124318Y-116917619D02*
X156152413Y-116917619D01*
X156152413Y-116917619D02*
X156273365Y-116857142D01*
X156273365Y-116857142D02*
X156333842Y-116796666D01*
X156333842Y-116796666D02*
X156394318Y-116675714D01*
X156394318Y-116675714D02*
X156394318Y-116433809D01*
X156394318Y-116433809D02*
X156333842Y-116312857D01*
X156333842Y-116312857D02*
X156273365Y-116252380D01*
X156273365Y-116252380D02*
X156152413Y-116191904D01*
X156152413Y-116191904D02*
X155124318Y-116191904D01*
X155124318Y-114982381D02*
X155124318Y-115587143D01*
X155124318Y-115587143D02*
X155729080Y-115647619D01*
X155729080Y-115647619D02*
X155668603Y-115587143D01*
X155668603Y-115587143D02*
X155608127Y-115466190D01*
X155608127Y-115466190D02*
X155608127Y-115163809D01*
X155608127Y-115163809D02*
X155668603Y-115042857D01*
X155668603Y-115042857D02*
X155729080Y-114982381D01*
X155729080Y-114982381D02*
X155850032Y-114921904D01*
X155850032Y-114921904D02*
X156152413Y-114921904D01*
X156152413Y-114921904D02*
X156273365Y-114982381D01*
X156273365Y-114982381D02*
X156333842Y-115042857D01*
X156333842Y-115042857D02*
X156394318Y-115163809D01*
X156394318Y-115163809D02*
X156394318Y-115466190D01*
X156394318Y-115466190D02*
X156333842Y-115587143D01*
X156333842Y-115587143D02*
X156273365Y-115647619D01*
D12*
X134890762Y-134996741D02*
X133890313Y-134996741D01*
X133890313Y-134996741D02*
X133890313Y-134758539D01*
X133890313Y-134758539D02*
X133937953Y-134615618D01*
X133937953Y-134615618D02*
X134033234Y-134520337D01*
X134033234Y-134520337D02*
X134128515Y-134472697D01*
X134128515Y-134472697D02*
X134319077Y-134425056D01*
X134319077Y-134425056D02*
X134461998Y-134425056D01*
X134461998Y-134425056D02*
X134652560Y-134472697D01*
X134652560Y-134472697D02*
X134747841Y-134520337D01*
X134747841Y-134520337D02*
X134843122Y-134615618D01*
X134843122Y-134615618D02*
X134890762Y-134758539D01*
X134890762Y-134758539D02*
X134890762Y-134996741D01*
X134890762Y-133948652D02*
X134890762Y-133758090D01*
X134890762Y-133758090D02*
X134843122Y-133662809D01*
X134843122Y-133662809D02*
X134795481Y-133615169D01*
X134795481Y-133615169D02*
X134652560Y-133519888D01*
X134652560Y-133519888D02*
X134461998Y-133472248D01*
X134461998Y-133472248D02*
X134080875Y-133472248D01*
X134080875Y-133472248D02*
X133985594Y-133519888D01*
X133985594Y-133519888D02*
X133937953Y-133567529D01*
X133937953Y-133567529D02*
X133890313Y-133662809D01*
X133890313Y-133662809D02*
X133890313Y-133853371D01*
X133890313Y-133853371D02*
X133937953Y-133948652D01*
X133937953Y-133948652D02*
X133985594Y-133996292D01*
X133985594Y-133996292D02*
X134080875Y-134043933D01*
X134080875Y-134043933D02*
X134319077Y-134043933D01*
X134319077Y-134043933D02*
X134414358Y-133996292D01*
X134414358Y-133996292D02*
X134461998Y-133948652D01*
X134461998Y-133948652D02*
X134509639Y-133853371D01*
X134509639Y-133853371D02*
X134509639Y-133662809D01*
X134509639Y-133662809D02*
X134461998Y-133567529D01*
X134461998Y-133567529D02*
X134414358Y-133519888D01*
X134414358Y-133519888D02*
X134319077Y-133472248D01*
D13*
X155604318Y-85917619D02*
X156632413Y-85917619D01*
X156632413Y-85917619D02*
X156753365Y-85857142D01*
X156753365Y-85857142D02*
X156813842Y-85796666D01*
X156813842Y-85796666D02*
X156874318Y-85675714D01*
X156874318Y-85675714D02*
X156874318Y-85433809D01*
X156874318Y-85433809D02*
X156813842Y-85312857D01*
X156813842Y-85312857D02*
X156753365Y-85252380D01*
X156753365Y-85252380D02*
X156632413Y-85191904D01*
X156632413Y-85191904D02*
X155604318Y-85191904D01*
X155725270Y-84647619D02*
X155664794Y-84587143D01*
X155664794Y-84587143D02*
X155604318Y-84466190D01*
X155604318Y-84466190D02*
X155604318Y-84163809D01*
X155604318Y-84163809D02*
X155664794Y-84042857D01*
X155664794Y-84042857D02*
X155725270Y-83982381D01*
X155725270Y-83982381D02*
X155846222Y-83921904D01*
X155846222Y-83921904D02*
X155967175Y-83921904D01*
X155967175Y-83921904D02*
X156148603Y-83982381D01*
X156148603Y-83982381D02*
X156874318Y-84708095D01*
X156874318Y-84708095D02*
X156874318Y-83921904D01*
D14*
%TO.C,C10*%
X196260000Y-124240000D02*
X196195000Y-124240000D01*
X196260000Y-124240000D02*
X196260000Y-127480000D01*
X194085000Y-124240000D02*
X194020000Y-124240000D01*
X194020000Y-124240000D02*
X194020000Y-127480000D01*
X196260000Y-127480000D02*
X196195000Y-127480000D01*
X194085000Y-127480000D02*
X194020000Y-127480000D01*
%TO.C,C9*%
X196100000Y-116390000D02*
X196100000Y-116325000D01*
X196100000Y-116390000D02*
X192860000Y-116390000D01*
X196100000Y-114215000D02*
X196100000Y-114150000D01*
X196100000Y-114150000D02*
X192860000Y-114150000D01*
X192860000Y-116390000D02*
X192860000Y-116325000D01*
X192860000Y-114215000D02*
X192860000Y-114150000D01*
D15*
%TO.C,U4*%
X190742500Y-96780000D02*
G75*
G02*
X190542500Y-96780000I-100000J0D01*
G01*
X190542500Y-96780000D02*
G75*
G02*
X190742500Y-96780000I100000J0D01*
G01*
D16*
X189642500Y-97280000D02*
X189287500Y-97280000D01*
X186997500Y-97280000D02*
X186642500Y-97280000D01*
X186642500Y-97240000D02*
X186642500Y-97280000D01*
X189642500Y-97240000D02*
X189642500Y-97280000D01*
X186642500Y-94280000D02*
X186997500Y-94280000D01*
X189287500Y-94280000D02*
X189642500Y-94280000D01*
X189642500Y-94320000D02*
X189642500Y-94280000D01*
X186642500Y-94320000D02*
X186642500Y-94280000D01*
D15*
%TO.C,U3*%
X196340000Y-120670000D02*
G75*
G02*
X196140000Y-120670000I-100000J0D01*
G01*
X196140000Y-120670000D02*
G75*
G02*
X196340000Y-120670000I100000J0D01*
G01*
D16*
X195240000Y-121170000D02*
X194885000Y-121170000D01*
X192595000Y-121170000D02*
X192240000Y-121170000D01*
X192240000Y-121130000D02*
X192240000Y-121170000D01*
X195240000Y-121130000D02*
X195240000Y-121170000D01*
X192240000Y-118170000D02*
X192595000Y-118170000D01*
X194885000Y-118170000D02*
X195240000Y-118170000D01*
X195240000Y-118210000D02*
X195240000Y-118170000D01*
X192240000Y-118210000D02*
X192240000Y-118170000D01*
D14*
%TO.C,C14*%
X154700000Y-130340000D02*
X154765000Y-130340000D01*
X154700000Y-130340000D02*
X154700000Y-127100000D01*
X156875000Y-130340000D02*
X156940000Y-130340000D01*
X156940000Y-130340000D02*
X156940000Y-127100000D01*
X154700000Y-127100000D02*
X154765000Y-127100000D01*
X156875000Y-127100000D02*
X156940000Y-127100000D01*
%TO.C,R2*%
X189170000Y-132880000D02*
X189170000Y-126340000D01*
X189500000Y-132880000D02*
X189170000Y-132880000D01*
X191580000Y-132880000D02*
X191910000Y-132880000D01*
X191910000Y-132880000D02*
X191910000Y-126340000D01*
X189170000Y-126340000D02*
X189500000Y-126340000D01*
X191910000Y-126340000D02*
X191580000Y-126340000D01*
%TO.C,C7*%
X174130000Y-54040000D02*
X174065000Y-54040000D01*
X174130000Y-54040000D02*
X174130000Y-57280000D01*
X171955000Y-54040000D02*
X171890000Y-54040000D01*
X171890000Y-54040000D02*
X171890000Y-57280000D01*
X174130000Y-57280000D02*
X174065000Y-57280000D01*
X171955000Y-57280000D02*
X171890000Y-57280000D01*
%TO.C,R3*%
X192480000Y-48690000D02*
X185940000Y-48690000D01*
X192480000Y-48360000D02*
X192480000Y-48690000D01*
X192480000Y-46280000D02*
X192480000Y-45950000D01*
X192480000Y-45950000D02*
X185940000Y-45950000D01*
X185940000Y-48690000D02*
X185940000Y-48360000D01*
X185940000Y-45950000D02*
X185940000Y-46280000D01*
D16*
%TO.C,D3*%
X128542500Y-91185000D02*
X127442500Y-91185000D01*
X127442500Y-91185000D02*
X127442500Y-84335000D01*
X127442500Y-84335000D02*
X128542500Y-84335000D01*
X132242500Y-84335000D02*
X133342500Y-84335000D01*
X133342500Y-84335000D02*
X133342500Y-91185000D01*
X133342500Y-91185000D02*
X132242500Y-91185000D01*
D15*
X127592500Y-82360000D02*
G75*
G02*
X127392500Y-82360000I-100000J0D01*
G01*
X127392500Y-82360000D02*
G75*
G02*
X127592500Y-82360000I100000J0D01*
G01*
D16*
%TO.C,D4*%
X120662500Y-91217500D02*
X119562500Y-91217500D01*
X119562500Y-91217500D02*
X119562500Y-84367500D01*
X119562500Y-84367500D02*
X120662500Y-84367500D01*
X124362500Y-84367500D02*
X125462500Y-84367500D01*
X125462500Y-84367500D02*
X125462500Y-91217500D01*
X125462500Y-91217500D02*
X124362500Y-91217500D01*
D15*
X119712500Y-82392500D02*
G75*
G02*
X119512500Y-82392500I-100000J0D01*
G01*
X119512500Y-82392500D02*
G75*
G02*
X119712500Y-82392500I100000J0D01*
G01*
D16*
%TO.C,D5*%
X144192500Y-104940000D02*
X143092500Y-104940000D01*
X143092500Y-104940000D02*
X143092500Y-98090000D01*
X143092500Y-98090000D02*
X144192500Y-98090000D01*
X147892500Y-98090000D02*
X148992500Y-98090000D01*
X148992500Y-98090000D02*
X148992500Y-104940000D01*
X148992500Y-104940000D02*
X147892500Y-104940000D01*
D15*
X143242500Y-96115000D02*
G75*
G02*
X143042500Y-96115000I-100000J0D01*
G01*
X143042500Y-96115000D02*
G75*
G02*
X143242500Y-96115000I100000J0D01*
G01*
D16*
%TO.C,D1*%
X144222500Y-91097500D02*
X143122500Y-91097500D01*
X143122500Y-91097500D02*
X143122500Y-84247500D01*
X143122500Y-84247500D02*
X144222500Y-84247500D01*
X147922500Y-84247500D02*
X149022500Y-84247500D01*
X149022500Y-84247500D02*
X149022500Y-91097500D01*
X149022500Y-91097500D02*
X147922500Y-91097500D01*
D15*
X143272500Y-82272500D02*
G75*
G02*
X143072500Y-82272500I-100000J0D01*
G01*
X143072500Y-82272500D02*
G75*
G02*
X143272500Y-82272500I100000J0D01*
G01*
D16*
%TO.C,D10*%
X128632500Y-135812500D02*
X127532500Y-135812500D01*
X127532500Y-135812500D02*
X127532500Y-128962500D01*
X127532500Y-128962500D02*
X128632500Y-128962500D01*
X132332500Y-128962500D02*
X133432500Y-128962500D01*
X133432500Y-128962500D02*
X133432500Y-135812500D01*
X133432500Y-135812500D02*
X132332500Y-135812500D01*
D15*
X127682500Y-126987500D02*
G75*
G02*
X127482500Y-126987500I-100000J0D01*
G01*
X127482500Y-126987500D02*
G75*
G02*
X127682500Y-126987500I100000J0D01*
G01*
D16*
%TO.C,D2*%
X136392500Y-91095000D02*
X135292500Y-91095000D01*
X135292500Y-91095000D02*
X135292500Y-84245000D01*
X135292500Y-84245000D02*
X136392500Y-84245000D01*
X140092500Y-84245000D02*
X141192500Y-84245000D01*
X141192500Y-84245000D02*
X141192500Y-91095000D01*
X141192500Y-91095000D02*
X140092500Y-91095000D01*
D15*
X135442500Y-82270000D02*
G75*
G02*
X135242500Y-82270000I-100000J0D01*
G01*
X135242500Y-82270000D02*
G75*
G02*
X135442500Y-82270000I100000J0D01*
G01*
D16*
%TO.C,D6*%
X136362500Y-104997500D02*
X135262500Y-104997500D01*
X135262500Y-104997500D02*
X135262500Y-98147500D01*
X135262500Y-98147500D02*
X136362500Y-98147500D01*
X140062500Y-98147500D02*
X141162500Y-98147500D01*
X141162500Y-98147500D02*
X141162500Y-104997500D01*
X141162500Y-104997500D02*
X140062500Y-104997500D01*
D15*
X135412500Y-96172500D02*
G75*
G02*
X135212500Y-96172500I-100000J0D01*
G01*
X135212500Y-96172500D02*
G75*
G02*
X135412500Y-96172500I100000J0D01*
G01*
D16*
%TO.C,D7*%
X128632500Y-105032500D02*
X127532500Y-105032500D01*
X127532500Y-105032500D02*
X127532500Y-98182500D01*
X127532500Y-98182500D02*
X128632500Y-98182500D01*
X132332500Y-98182500D02*
X133432500Y-98182500D01*
X133432500Y-98182500D02*
X133432500Y-105032500D01*
X133432500Y-105032500D02*
X132332500Y-105032500D01*
D15*
X127682500Y-96207500D02*
G75*
G02*
X127482500Y-96207500I-100000J0D01*
G01*
X127482500Y-96207500D02*
G75*
G02*
X127682500Y-96207500I100000J0D01*
G01*
D16*
%TO.C,D13*%
X136502500Y-122357500D02*
X135402500Y-122357500D01*
X135402500Y-122357500D02*
X135402500Y-115507500D01*
X135402500Y-115507500D02*
X136502500Y-115507500D01*
X140202500Y-115507500D02*
X141302500Y-115507500D01*
X141302500Y-115507500D02*
X141302500Y-122357500D01*
X141302500Y-122357500D02*
X140202500Y-122357500D01*
D15*
X135552500Y-113532500D02*
G75*
G02*
X135352500Y-113532500I-100000J0D01*
G01*
X135352500Y-113532500D02*
G75*
G02*
X135552500Y-113532500I100000J0D01*
G01*
D16*
%TO.C,D14*%
X128702500Y-122210000D02*
X127602500Y-122210000D01*
X127602500Y-122210000D02*
X127602500Y-115360000D01*
X127602500Y-115360000D02*
X128702500Y-115360000D01*
X132402500Y-115360000D02*
X133502500Y-115360000D01*
X133502500Y-115360000D02*
X133502500Y-122210000D01*
X133502500Y-122210000D02*
X132402500Y-122210000D01*
D15*
X127752500Y-113385000D02*
G75*
G02*
X127552500Y-113385000I-100000J0D01*
G01*
X127552500Y-113385000D02*
G75*
G02*
X127752500Y-113385000I100000J0D01*
G01*
D16*
%TO.C,D8*%
X120872500Y-105010000D02*
X119772500Y-105010000D01*
X119772500Y-105010000D02*
X119772500Y-98160000D01*
X119772500Y-98160000D02*
X120872500Y-98160000D01*
X124572500Y-98160000D02*
X125672500Y-98160000D01*
X125672500Y-98160000D02*
X125672500Y-105010000D01*
X125672500Y-105010000D02*
X124572500Y-105010000D01*
D15*
X119922500Y-96185000D02*
G75*
G02*
X119722500Y-96185000I-100000J0D01*
G01*
X119722500Y-96185000D02*
G75*
G02*
X119922500Y-96185000I100000J0D01*
G01*
D16*
%TO.C,D11*%
X144602500Y-135917500D02*
X143502500Y-135917500D01*
X143502500Y-135917500D02*
X143502500Y-129067500D01*
X143502500Y-129067500D02*
X144602500Y-129067500D01*
X148302500Y-129067500D02*
X149402500Y-129067500D01*
X149402500Y-129067500D02*
X149402500Y-135917500D01*
X149402500Y-135917500D02*
X148302500Y-135917500D01*
D15*
X143652500Y-127092500D02*
G75*
G02*
X143452500Y-127092500I-100000J0D01*
G01*
X143452500Y-127092500D02*
G75*
G02*
X143652500Y-127092500I100000J0D01*
G01*
D16*
%TO.C,D15*%
X144552500Y-122357500D02*
X143452500Y-122357500D01*
X143452500Y-122357500D02*
X143452500Y-115507500D01*
X143452500Y-115507500D02*
X144552500Y-115507500D01*
X148252500Y-115507500D02*
X149352500Y-115507500D01*
X149352500Y-115507500D02*
X149352500Y-122357500D01*
X149352500Y-122357500D02*
X148252500Y-122357500D01*
D15*
X143602500Y-113532500D02*
G75*
G02*
X143402500Y-113532500I-100000J0D01*
G01*
X143402500Y-113532500D02*
G75*
G02*
X143602500Y-113532500I100000J0D01*
G01*
D16*
%TO.C,D16*%
X120872500Y-122270000D02*
X119772500Y-122270000D01*
X119772500Y-122270000D02*
X119772500Y-115420000D01*
X119772500Y-115420000D02*
X120872500Y-115420000D01*
X124572500Y-115420000D02*
X125672500Y-115420000D01*
X125672500Y-115420000D02*
X125672500Y-122270000D01*
X125672500Y-122270000D02*
X124572500Y-122270000D01*
D15*
X119922500Y-113445000D02*
G75*
G02*
X119722500Y-113445000I-100000J0D01*
G01*
X119722500Y-113445000D02*
G75*
G02*
X119922500Y-113445000I100000J0D01*
G01*
D14*
%TO.C,MLF1*%
X115282500Y-83440000D02*
X106042500Y-83440000D01*
X115282500Y-83440000D02*
X115282500Y-93680000D01*
X107662500Y-83440000D02*
X107662500Y-93680000D01*
X106562500Y-83440000D02*
X106562500Y-93680000D01*
X106042500Y-83440000D02*
X106042500Y-85760000D01*
X109671500Y-84280000D02*
X109660500Y-84270000D01*
X109382500Y-84567000D02*
X109372500Y-84558000D01*
X106042500Y-86360000D02*
X106042500Y-93680000D01*
X110056500Y-89665000D02*
X109660500Y-89270000D01*
X109768500Y-89953000D02*
X109372500Y-89558000D01*
X112952500Y-92562000D02*
X112556500Y-92166000D01*
X112664500Y-92850000D02*
X112268500Y-92454000D01*
X115282500Y-93680000D02*
X106042500Y-93680000D01*
X109612500Y-84280000D02*
G75*
G02*
X112712023Y-84279585I1550000J-1780000D01*
G01*
X112942500Y-84510000D02*
G75*
G02*
X112942915Y-87609523I-1780001J-1550000D01*
G01*
X109382500Y-87610000D02*
G75*
G02*
X109382085Y-84510477I1780000J1550000D01*
G01*
X112712500Y-87840000D02*
G75*
G02*
X109612977Y-87840415I-1550000J1780001D01*
G01*
X113522500Y-91060000D02*
G75*
G02*
X108802500Y-91060000I-2360000J0D01*
G01*
X108802500Y-91060000D02*
G75*
G02*
X113522500Y-91060000I2360000J0D01*
G01*
X106042500Y-86060000D02*
X105432500Y-86500000D01*
X105432500Y-85620000D01*
X106042500Y-86060000D01*
G36*
X106042500Y-86060000D02*
G01*
X105432500Y-86500000D01*
X105432500Y-85620000D01*
X106042500Y-86060000D01*
G37*
%TO.C,MRB1*%
X114062500Y-127640000D02*
X104822500Y-127640000D01*
X114062500Y-127640000D02*
X114062500Y-137880000D01*
X106442500Y-127640000D02*
X106442500Y-137880000D01*
X105342500Y-127640000D02*
X105342500Y-137880000D01*
X104822500Y-127640000D02*
X104822500Y-129960000D01*
X108451500Y-128480000D02*
X108440500Y-128470000D01*
X108162500Y-128767000D02*
X108152500Y-128758000D01*
X104822500Y-130560000D02*
X104822500Y-137880000D01*
X108836500Y-133865000D02*
X108440500Y-133470000D01*
X108548500Y-134153000D02*
X108152500Y-133758000D01*
X111732500Y-136762000D02*
X111336500Y-136366000D01*
X111444500Y-137050000D02*
X111048500Y-136654000D01*
X114062500Y-137880000D02*
X104822500Y-137880000D01*
X108392500Y-128480000D02*
G75*
G02*
X111492023Y-128479585I1550000J-1780000D01*
G01*
X111722500Y-128710000D02*
G75*
G02*
X111722915Y-131809523I-1780001J-1550000D01*
G01*
X108162500Y-131810000D02*
G75*
G02*
X108162085Y-128710477I1780000J1550000D01*
G01*
X111492500Y-132040000D02*
G75*
G02*
X108392977Y-132040415I-1550000J1780001D01*
G01*
X112302500Y-135260000D02*
G75*
G02*
X107582500Y-135260000I-2360000J0D01*
G01*
X107582500Y-135260000D02*
G75*
G02*
X112302500Y-135260000I2360000J0D01*
G01*
X104822500Y-130260000D02*
X104212500Y-130700000D01*
X104212500Y-129820000D01*
X104822500Y-130260000D01*
G36*
X104822500Y-130260000D02*
G01*
X104212500Y-130700000D01*
X104212500Y-129820000D01*
X104822500Y-130260000D01*
G37*
%TO.C,MRF1*%
X114062500Y-115640000D02*
X104822500Y-115640000D01*
X114062500Y-115640000D02*
X114062500Y-125880000D01*
X106442500Y-115640000D02*
X106442500Y-125880000D01*
X105342500Y-115640000D02*
X105342500Y-125880000D01*
X104822500Y-115640000D02*
X104822500Y-117960000D01*
X108451500Y-116480000D02*
X108440500Y-116470000D01*
X108162500Y-116767000D02*
X108152500Y-116758000D01*
X104822500Y-118560000D02*
X104822500Y-125880000D01*
X108836500Y-121865000D02*
X108440500Y-121470000D01*
X108548500Y-122153000D02*
X108152500Y-121758000D01*
X111732500Y-124762000D02*
X111336500Y-124366000D01*
X111444500Y-125050000D02*
X111048500Y-124654000D01*
X114062500Y-125880000D02*
X104822500Y-125880000D01*
X108392500Y-116480000D02*
G75*
G02*
X111492023Y-116479585I1550000J-1780000D01*
G01*
X111722500Y-116710000D02*
G75*
G02*
X111722915Y-119809523I-1780001J-1550000D01*
G01*
X108162500Y-119810000D02*
G75*
G02*
X108162085Y-116710477I1780000J1550000D01*
G01*
X111492500Y-120040000D02*
G75*
G02*
X108392977Y-120040415I-1550000J1780001D01*
G01*
X112302500Y-123260000D02*
G75*
G02*
X107582500Y-123260000I-2360000J0D01*
G01*
X107582500Y-123260000D02*
G75*
G02*
X112302500Y-123260000I2360000J0D01*
G01*
X104822500Y-118260000D02*
X104212500Y-118700000D01*
X104212500Y-117820000D01*
X104822500Y-118260000D01*
G36*
X104822500Y-118260000D02*
G01*
X104212500Y-118700000D01*
X104212500Y-117820000D01*
X104822500Y-118260000D01*
G37*
D16*
%TO.C,D12*%
X120802500Y-135647500D02*
X119702500Y-135647500D01*
X119702500Y-135647500D02*
X119702500Y-128797500D01*
X119702500Y-128797500D02*
X120802500Y-128797500D01*
X124502500Y-128797500D02*
X125602500Y-128797500D01*
X125602500Y-128797500D02*
X125602500Y-135647500D01*
X125602500Y-135647500D02*
X124502500Y-135647500D01*
D15*
X119852500Y-126822500D02*
G75*
G02*
X119652500Y-126822500I-100000J0D01*
G01*
X119652500Y-126822500D02*
G75*
G02*
X119852500Y-126822500I100000J0D01*
G01*
D14*
%TO.C,MLB1*%
X115282500Y-95440000D02*
X106042500Y-95440000D01*
X115282500Y-95440000D02*
X115282500Y-105680000D01*
X107662500Y-95440000D02*
X107662500Y-105680000D01*
X106562500Y-95440000D02*
X106562500Y-105680000D01*
X106042500Y-95440000D02*
X106042500Y-97760000D01*
X109671500Y-96280000D02*
X109660500Y-96270000D01*
X109382500Y-96567000D02*
X109372500Y-96558000D01*
X106042500Y-98360000D02*
X106042500Y-105680000D01*
X110056500Y-101665000D02*
X109660500Y-101270000D01*
X109768500Y-101953000D02*
X109372500Y-101558000D01*
X112952500Y-104562000D02*
X112556500Y-104166000D01*
X112664500Y-104850000D02*
X112268500Y-104454000D01*
X115282500Y-105680000D02*
X106042500Y-105680000D01*
X109612500Y-96280000D02*
G75*
G02*
X112712023Y-96279585I1550000J-1780000D01*
G01*
X112942500Y-96510000D02*
G75*
G02*
X112942915Y-99609523I-1780001J-1550000D01*
G01*
X109382500Y-99610000D02*
G75*
G02*
X109382085Y-96510477I1780000J1550000D01*
G01*
X112712500Y-99840000D02*
G75*
G02*
X109612977Y-99840415I-1550000J1780001D01*
G01*
X113522500Y-103060000D02*
G75*
G02*
X108802500Y-103060000I-2360000J0D01*
G01*
X108802500Y-103060000D02*
G75*
G02*
X113522500Y-103060000I2360000J0D01*
G01*
X106042500Y-98060000D02*
X105432500Y-98500000D01*
X105432500Y-97620000D01*
X106042500Y-98060000D01*
G36*
X106042500Y-98060000D02*
G01*
X105432500Y-98500000D01*
X105432500Y-97620000D01*
X106042500Y-98060000D01*
G37*
%TO.C,C5*%
X186540000Y-88820000D02*
X186540000Y-88885000D01*
X186540000Y-88820000D02*
X189780000Y-88820000D01*
X186540000Y-90995000D02*
X186540000Y-91060000D01*
X186540000Y-91060000D02*
X189780000Y-91060000D01*
X189780000Y-88820000D02*
X189780000Y-88885000D01*
X189780000Y-90995000D02*
X189780000Y-91060000D01*
%TO.C,C2*%
X192910000Y-94040000D02*
X192910000Y-94105000D01*
X192910000Y-94040000D02*
X196150000Y-94040000D01*
X192910000Y-96215000D02*
X192910000Y-96280000D01*
X192910000Y-96280000D02*
X196150000Y-96280000D01*
X196150000Y-94040000D02*
X196150000Y-94105000D01*
X196150000Y-96215000D02*
X196150000Y-96280000D01*
%TO.C,C3*%
X186710000Y-83710000D02*
X186710000Y-83775000D01*
X186710000Y-83710000D02*
X189950000Y-83710000D01*
X186710000Y-85885000D02*
X186710000Y-85950000D01*
X186710000Y-85950000D02*
X189950000Y-85950000D01*
X189950000Y-83710000D02*
X189950000Y-83775000D01*
X189950000Y-85885000D02*
X189950000Y-85950000D01*
%TO.C,C13*%
X182120000Y-121390000D02*
X182185000Y-121390000D01*
X182120000Y-121390000D02*
X182120000Y-118150000D01*
X184295000Y-121390000D02*
X184360000Y-121390000D01*
X184360000Y-121390000D02*
X184360000Y-118150000D01*
X182120000Y-118150000D02*
X182185000Y-118150000D01*
X184295000Y-118150000D02*
X184360000Y-118150000D01*
%TO.C,C1*%
X156120000Y-97380000D02*
X156055000Y-97380000D01*
X156120000Y-97380000D02*
X156120000Y-100620000D01*
X153945000Y-97380000D02*
X153880000Y-97380000D01*
X153880000Y-97380000D02*
X153880000Y-100620000D01*
X156120000Y-100620000D02*
X156055000Y-100620000D01*
X153945000Y-100620000D02*
X153880000Y-100620000D01*
%TO.C,C6*%
X150900000Y-46580000D02*
X150900000Y-46515000D01*
X150900000Y-46580000D02*
X147660000Y-46580000D01*
X150900000Y-44405000D02*
X150900000Y-44340000D01*
X150900000Y-44340000D02*
X147660000Y-44340000D01*
X147660000Y-46580000D02*
X147660000Y-46515000D01*
X147660000Y-44405000D02*
X147660000Y-44340000D01*
%TO.C,C8*%
X115760000Y-81410000D02*
X115825000Y-81410000D01*
X115760000Y-81410000D02*
X115760000Y-78170000D01*
X117935000Y-81410000D02*
X118000000Y-81410000D01*
X118000000Y-81410000D02*
X118000000Y-78170000D01*
X115760000Y-78170000D02*
X115825000Y-78170000D01*
X117935000Y-78170000D02*
X118000000Y-78170000D01*
%TO.C,C4*%
X192950000Y-98730000D02*
X192885000Y-98730000D01*
X192950000Y-98730000D02*
X192950000Y-101970000D01*
X190775000Y-98730000D02*
X190710000Y-98730000D01*
X190710000Y-98730000D02*
X190710000Y-101970000D01*
X192950000Y-101970000D02*
X192885000Y-101970000D01*
X190775000Y-101970000D02*
X190710000Y-101970000D01*
%TO.C,C11*%
X116430000Y-113980000D02*
X116495000Y-113980000D01*
X116430000Y-113980000D02*
X116430000Y-110740000D01*
X118605000Y-113980000D02*
X118670000Y-113980000D01*
X118670000Y-113980000D02*
X118670000Y-110740000D01*
X116430000Y-110740000D02*
X116495000Y-110740000D01*
X118605000Y-110740000D02*
X118670000Y-110740000D01*
%TO.C,C12*%
X188870000Y-118270000D02*
X188805000Y-118270000D01*
X188870000Y-118270000D02*
X188870000Y-121510000D01*
X186695000Y-118270000D02*
X186630000Y-118270000D01*
X186630000Y-118270000D02*
X186630000Y-121510000D01*
X188870000Y-121510000D02*
X188805000Y-121510000D01*
X186695000Y-121510000D02*
X186630000Y-121510000D01*
%TO.C,C15*%
X190450000Y-54910000D02*
X190450000Y-54845000D01*
X190450000Y-54910000D02*
X187210000Y-54910000D01*
X190450000Y-52735000D02*
X190450000Y-52670000D01*
X190450000Y-52670000D02*
X187210000Y-52670000D01*
X187210000Y-54910000D02*
X187210000Y-54845000D01*
X187210000Y-52735000D02*
X187210000Y-52670000D01*
%TO.C,SW1*%
X177390000Y-54550000D02*
X177390000Y-56050000D01*
X178640000Y-58550000D02*
X183140000Y-58550000D01*
X183140000Y-52050000D02*
X178640000Y-52050000D01*
X184390000Y-56050000D02*
X184390000Y-54550000D01*
D16*
%TO.C,J1*%
X103200000Y-56360000D02*
X103200000Y-45310000D01*
X117000000Y-45310000D02*
X117000000Y-56360000D01*
X117000000Y-56360000D02*
X103200000Y-56360000D01*
X114000000Y-57330000D02*
X114800000Y-57330000D01*
X114800000Y-57330000D02*
X114400000Y-56630000D01*
X114400000Y-56630000D02*
X114000000Y-57330000D01*
X117000000Y-45310000D02*
X103200000Y-45310000D01*
D14*
%TO.C,R1*%
X185400000Y-107210000D02*
X185400000Y-100670000D01*
X185730000Y-107210000D02*
X185400000Y-107210000D01*
X187810000Y-107210000D02*
X188140000Y-107210000D01*
X188140000Y-107210000D02*
X188140000Y-100670000D01*
X185400000Y-100670000D02*
X185730000Y-100670000D01*
X188140000Y-100670000D02*
X187810000Y-100670000D01*
%TO.C,UPDIHeader1*%
X195740000Y-59410000D02*
X194410000Y-59410000D01*
X195740000Y-58080000D02*
X195740000Y-59410000D01*
X195740000Y-56810000D02*
X195740000Y-51670000D01*
X195740000Y-56810000D02*
X193080000Y-56810000D01*
X195740000Y-51670000D02*
X193080000Y-51670000D01*
X193080000Y-56810000D02*
X193080000Y-51670000D01*
%TO.C,U1*%
X129050000Y-56460000D02*
X164730000Y-56460000D01*
X164730000Y-56460000D02*
X164730000Y-51160000D01*
X129050000Y-54810000D02*
X129050000Y-56460000D01*
X129050000Y-51160000D02*
X129050000Y-52810000D01*
X164730000Y-51160000D02*
X129050000Y-51160000D01*
X128990000Y-58950000D02*
X164790000Y-58950000D01*
X164790000Y-48670000D01*
X128990000Y-48670000D01*
X128990000Y-58950000D01*
X129050000Y-52810000D02*
G75*
G02*
X129050000Y-54810000I0J-1000000D01*
G01*
D17*
%TO.C,U5*%
X178150000Y-116040000D02*
X162150000Y-116040000D01*
X178150000Y-116040000D02*
X178150000Y-139040000D01*
X162150000Y-116040000D02*
X162150000Y-117040000D01*
X169550000Y-117040000D02*
X169550000Y-117440000D01*
X162150000Y-117040000D02*
X169550000Y-117040000D01*
D15*
X169550000Y-117440000D02*
X159920000Y-117440000D01*
D17*
X165000000Y-117450000D02*
X165000000Y-118450000D01*
X169550000Y-117740000D02*
X169550000Y-137340000D01*
X167950000Y-117740000D02*
X167950000Y-137340000D01*
X165020000Y-136650000D02*
X165020000Y-137650000D01*
D15*
X169550000Y-137640000D02*
X169550000Y-117440000D01*
X165020000Y-137650000D02*
X169520000Y-137650000D01*
D17*
X169550000Y-138040000D02*
X169550000Y-137640000D01*
X162150000Y-138040000D02*
X169550000Y-138040000D01*
X178150000Y-139040000D02*
X162150000Y-139040000D01*
X162150000Y-139040000D02*
X162150000Y-138040000D01*
D16*
%TO.C,D9*%
X136522500Y-135857500D02*
X135422500Y-135857500D01*
X135422500Y-135857500D02*
X135422500Y-129007500D01*
X135422500Y-129007500D02*
X136522500Y-129007500D01*
X140222500Y-129007500D02*
X141322500Y-129007500D01*
X141322500Y-129007500D02*
X141322500Y-135857500D01*
X141322500Y-135857500D02*
X140222500Y-135857500D01*
D15*
X135572500Y-127032500D02*
G75*
G02*
X135372500Y-127032500I-100000J0D01*
G01*
X135372500Y-127032500D02*
G75*
G02*
X135572500Y-127032500I100000J0D01*
G01*
D17*
%TO.C,U2*%
X178630000Y-85040000D02*
X162630000Y-85040000D01*
X178630000Y-85040000D02*
X178630000Y-108040000D01*
X162630000Y-85040000D02*
X162630000Y-86040000D01*
X170030000Y-86040000D02*
X170030000Y-86440000D01*
X162630000Y-86040000D02*
X170030000Y-86040000D01*
D15*
X170030000Y-86440000D02*
X160400000Y-86440000D01*
D17*
X165480000Y-86450000D02*
X165480000Y-87450000D01*
X170030000Y-86740000D02*
X170030000Y-106340000D01*
X168430000Y-86740000D02*
X168430000Y-106340000D01*
X165500000Y-105650000D02*
X165500000Y-106650000D01*
D15*
X170030000Y-106640000D02*
X170030000Y-86440000D01*
X165500000Y-106650000D02*
X170000000Y-106650000D01*
D17*
X170030000Y-107040000D02*
X170030000Y-106640000D01*
X162630000Y-107040000D02*
X170030000Y-107040000D01*
X178630000Y-108040000D02*
X162630000Y-108040000D01*
X162630000Y-108040000D02*
X162630000Y-107040000D01*
%TD*%
M02*
