%TF.GenerationSoftware,KiCad,Pcbnew,8.0.8*%
%TF.CreationDate,2025-02-26T21:24:02-07:00*%
%TF.ProjectId,Metal Detector,4d657461-6c20-4446-9574-6563746f722e,rev?*%
%TF.SameCoordinates,Original*%
%TF.FileFunction,Copper,L2,Bot*%
%TF.FilePolarity,Positive*%
%FSLAX46Y46*%
G04 Gerber Fmt 4.6, Leading zero omitted, Abs format (unit mm)*
G04 Created by KiCad (PCBNEW 8.0.8) date 2025-02-26 21:24:02*
%MOMM*%
%LPD*%
G01*
G04 APERTURE LIST*
%TA.AperFunction,ComponentPad*%
%ADD10R,1.371600X1.371600*%
%TD*%
%TA.AperFunction,ComponentPad*%
%ADD11C,1.371600*%
%TD*%
%TA.AperFunction,ComponentPad*%
%ADD12R,1.700000X1.700000*%
%TD*%
%TA.AperFunction,ComponentPad*%
%ADD13O,1.700000X1.700000*%
%TD*%
%TA.AperFunction,ComponentPad*%
%ADD14C,1.600000*%
%TD*%
%TA.AperFunction,ComponentPad*%
%ADD15O,1.600000X1.600000*%
%TD*%
%TA.AperFunction,ComponentPad*%
%ADD16R,2.000000X2.000000*%
%TD*%
%TA.AperFunction,ComponentPad*%
%ADD17C,2.000000*%
%TD*%
%TA.AperFunction,ComponentPad*%
%ADD18R,1.600000X1.600000*%
%TD*%
%TA.AperFunction,ComponentPad*%
%ADD19R,1.900000X1.900000*%
%TD*%
%TA.AperFunction,ComponentPad*%
%ADD20C,1.900000*%
%TD*%
%TA.AperFunction,ComponentPad*%
%ADD21R,1.320800X1.320800*%
%TD*%
%TA.AperFunction,ComponentPad*%
%ADD22C,1.320800*%
%TD*%
%TA.AperFunction,ViaPad*%
%ADD23C,0.600000*%
%TD*%
%TA.AperFunction,Conductor*%
%ADD24C,0.200000*%
%TD*%
G04 APERTURE END LIST*
D10*
%TO.P,U1,1,GND*%
%TO.N,GND*%
X64880000Y-34500000D03*
D11*
%TO.P,U1,2,TR*%
%TO.N,Net-(U1-THR)*%
X64880000Y-37040000D03*
%TO.P,U1,3,Q*%
%TO.N,Inductor*%
X64880000Y-39580000D03*
%TO.P,U1,4,R*%
%TO.N,9v*%
X64880000Y-42120000D03*
%TO.P,U1,5,CV*%
%TO.N,unconnected-(U1-CV-Pad5)*%
X72500000Y-42120000D03*
%TO.P,U1,6,THR*%
%TO.N,Net-(U1-THR)*%
X72500000Y-39580000D03*
%TO.P,U1,7,DIS*%
%TO.N,unconnected-(U1-DIS-Pad7)*%
X72500000Y-37040000D03*
%TO.P,U1,8,VCC*%
%TO.N,9v*%
X72500000Y-34500000D03*
%TD*%
D12*
%TO.P,J5,1,Pin_1*%
%TO.N,Inductor*%
X102500000Y-48500000D03*
%TD*%
%TO.P,J4,1,Pin_1*%
%TO.N,5V*%
X98920000Y-28500000D03*
D13*
%TO.P,J4,2,Pin_2*%
%TO.N,TRIGGER output*%
X101460000Y-28500000D03*
%TO.P,J4,3,Pin_3*%
%TO.N,ECHO input*%
X104000000Y-28500000D03*
%TO.P,J4,4,Pin_4*%
%TO.N,GND*%
X106540000Y-28500000D03*
%TD*%
D14*
%TO.P,R1,1*%
%TO.N,Net-(U1-THR)*%
X82650000Y-48500000D03*
D15*
%TO.P,R1,2*%
%TO.N,Inductor*%
X95350000Y-48500000D03*
%TD*%
D12*
%TO.P,J1,1,Pin_1*%
%TO.N,9v*%
X70000000Y-28500000D03*
D13*
%TO.P,J1,2,Pin_2*%
%TO.N,GND*%
X67460000Y-28500000D03*
%TD*%
D12*
%TO.P,J3,1,Pin_1*%
%TO.N,Inductor2*%
X102500000Y-38500000D03*
%TD*%
D16*
%TO.P,BZ1,1,+*%
%TO.N,Net-(BZ1-+)*%
X130000000Y-30500000D03*
D17*
%TO.P,BZ1,2,-*%
%TO.N,GND*%
X135000000Y-30500000D03*
%TD*%
D18*
%TO.P,C1,1*%
%TO.N,Net-(U1-THR)*%
X57500000Y-39500000D03*
D14*
%TO.P,C1,2*%
%TO.N,GND*%
X57500000Y-37000000D03*
%TD*%
D12*
%TO.P,J9,1,Pin_1*%
%TO.N,5V*%
X81920000Y-28500000D03*
D13*
%TO.P,J9,2,Pin_2*%
%TO.N,Net-(J9-Pin_2)*%
X84460000Y-28500000D03*
%TO.P,J9,3,Pin_3*%
%TO.N,GND*%
X87000000Y-28500000D03*
%TD*%
D19*
%TO.P,J2,1,1*%
%TO.N,Net-(U2-PA3)*%
X138000000Y-52000000D03*
D20*
%TO.P,J2,2,2*%
%TO.N,GND*%
X133800000Y-52000000D03*
%TO.P,J2,3,3*%
%TO.N,unconnected-(J2-Pad3)*%
X129600000Y-52000000D03*
%TO.P,J2,4,4*%
%TO.N,Net-(U2-PA2)*%
X138000000Y-46500000D03*
%TO.P,J2,5,5*%
%TO.N,unconnected-(J2-Pad5)*%
X133800000Y-46500000D03*
%TO.P,J2,6,6*%
%TO.N,5V*%
X129600000Y-46500000D03*
%TD*%
D14*
%TO.P,R2,1*%
%TO.N,Net-(C3-Pad2)*%
X82650000Y-59000000D03*
D15*
%TO.P,R2,2*%
%TO.N,Net-(U2-PA5)*%
X95350000Y-59000000D03*
%TD*%
D18*
%TO.P,C2,1*%
%TO.N,Net-(U1-THR)*%
X78500000Y-38642500D03*
D14*
%TO.P,C2,2*%
%TO.N,Inductor2*%
X81000000Y-38642500D03*
%TD*%
D21*
%TO.P,U2,1,PA7*%
%TO.N,unconnected-(U2-PA7-Pad1)*%
X115000000Y-27000000D03*
D22*
%TO.P,U2,2,PC0*%
%TO.N,unconnected-(U2-PC0-Pad2)*%
X115000000Y-29540000D03*
%TO.P,U2,3,PC1*%
%TO.N,unconnected-(U2-PC1-Pad3)*%
X115000000Y-32080000D03*
%TO.P,U2,4,PC2*%
%TO.N,Net-(U2-PA5)*%
X115000000Y-34620000D03*
%TO.P,U2,5,PC3*%
%TO.N,unconnected-(U2-PC3-Pad5)*%
X115000000Y-37160000D03*
%TO.P,U2,6,VDDIO2*%
%TO.N,5V*%
X115000000Y-39700000D03*
%TO.P,U2,7,PD1*%
%TO.N,Net-(BZ1-+)*%
X115000000Y-42240000D03*
%TO.P,U2,8,PD2*%
%TO.N,unconnected-(U2-PD2-Pad8)*%
X115000000Y-44780000D03*
%TO.P,U2,9,PD3*%
%TO.N,unconnected-(U2-PD3-Pad9)*%
X115000000Y-47320000D03*
%TO.P,U2,10,PD4*%
%TO.N,Net-(U2-PA5)*%
X115000000Y-49860000D03*
%TO.P,U2,11,PD5*%
%TO.N,unconnected-(U2-PD5-Pad11)*%
X115000000Y-52400000D03*
%TO.P,U2,12,PD6*%
%TO.N,unconnected-(U2-PD6-Pad12)*%
X115000000Y-54940000D03*
%TO.P,U2,13,VREFA/PD7*%
%TO.N,unconnected-(U2-VREFA{slash}PD7-Pad13)*%
X115000000Y-57480000D03*
%TO.P,U2,14,AVDD*%
%TO.N,5V*%
X115000000Y-60020000D03*
%TO.P,U2,15,AGND*%
%TO.N,GND*%
X122620000Y-60020000D03*
%TO.P,U2,16,XTAL32K1/PF0*%
%TO.N,unconnected-(U2-XTAL32K1{slash}PF0-Pad16)*%
X122620000Y-57480000D03*
%TO.P,U2,17,XTAL32K2/PF1*%
%TO.N,unconnected-(U2-XTAL32K2{slash}PF1-Pad17)*%
X122620000Y-54940000D03*
%TO.P,U2,18,~{RESET}/PF6*%
%TO.N,unconnected-(U2-~{RESET}{slash}PF6-Pad18)*%
X122620000Y-52400000D03*
%TO.P,U2,19,UPDI*%
%TO.N,Net-(J9-Pin_2)*%
X122620000Y-49860000D03*
%TO.P,U2,20,VDD*%
%TO.N,5V*%
X122620000Y-47320000D03*
%TO.P,U2,21,GND*%
%TO.N,GND*%
X122620000Y-44780000D03*
%TO.P,U2,22,XTALHF1/PA0*%
%TO.N,unconnected-(U2-XTALHF1{slash}PA0-Pad22)*%
X122620000Y-42240000D03*
%TO.P,U2,23,XTALHF2/PA1*%
%TO.N,unconnected-(U2-XTALHF2{slash}PA1-Pad23)*%
X122620000Y-39700000D03*
%TO.P,U2,24,PA2*%
%TO.N,Net-(U2-PA2)*%
X122620000Y-37160000D03*
%TO.P,U2,25,PA3*%
%TO.N,Net-(U2-PA3)*%
X122620000Y-34620000D03*
%TO.P,U2,26,PA4*%
%TO.N,ECHO input*%
X122620000Y-32080000D03*
%TO.P,U2,27,PA5*%
%TO.N,Net-(U2-PA5)*%
X122620000Y-29540000D03*
%TO.P,U2,28,PA6*%
%TO.N,TRIGGER output*%
X122620000Y-27000000D03*
%TD*%
D18*
%TO.P,C3,1*%
%TO.N,Inductor*%
X67000000Y-50500000D03*
D14*
%TO.P,C3,2*%
%TO.N,Net-(C3-Pad2)*%
X69500000Y-50500000D03*
%TD*%
D23*
%TO.N,9v*%
X74500000Y-38500000D03*
X74500000Y-41000000D03*
%TO.N,Net-(BZ1-+)*%
X111000000Y-42500000D03*
X111000000Y-22000000D03*
X111000000Y-25000000D03*
%TO.N,Inductor*%
X73000000Y-54500000D03*
X77500000Y-54500000D03*
%TO.N,Net-(J9-Pin_2)*%
X109000000Y-51500000D03*
X109000000Y-54500000D03*
%TO.N,ECHO input*%
X126000000Y-24000000D03*
X124000000Y-24000000D03*
%TO.N,Net-(U2-PA2)*%
X138000000Y-41500000D03*
%TO.N,Net-(U2-PA3)*%
X125000000Y-38000000D03*
X138000000Y-56500000D03*
X125000000Y-36500000D03*
%TD*%
D24*
%TO.N,Net-(U1-THR)*%
X64880000Y-37040000D02*
X69960000Y-37040000D01*
X69960000Y-37040000D02*
X72500000Y-39580000D01*
%TO.N,Net-(U2-PA5)*%
X117540000Y-34620000D02*
X122620000Y-29540000D01*
X115000000Y-34620000D02*
X117540000Y-34620000D01*
%TO.N,9v*%
X74500000Y-41000000D02*
X74500000Y-38500000D01*
%TO.N,Net-(BZ1-+)*%
X111000000Y-42500000D02*
X114740000Y-42500000D01*
X114740000Y-42500000D02*
X115000000Y-42240000D01*
X111000000Y-22000000D02*
X111000000Y-25000000D01*
%TO.N,Inductor*%
X77500000Y-54500000D02*
X73000000Y-54500000D01*
%TO.N,Net-(J9-Pin_2)*%
X109000000Y-51500000D02*
X109000000Y-54500000D01*
X84460000Y-28500000D02*
X84661789Y-28500000D01*
%TO.N,ECHO input*%
X124000000Y-24000000D02*
X126000000Y-24000000D01*
%TO.N,Net-(U2-PA2)*%
X138000000Y-46500000D02*
X138000000Y-41500000D01*
%TO.N,Net-(U2-PA3)*%
X138000000Y-52000000D02*
X138000000Y-56500000D01*
X125000000Y-38000000D02*
X125000000Y-36500000D01*
%TD*%
%TA.AperFunction,Conductor*%
%TO.N,GND*%
G36*
X146942539Y-19520185D02*
G01*
X146988294Y-19572989D01*
X146999500Y-19624500D01*
X146999500Y-64875500D01*
X146979815Y-64942539D01*
X146927011Y-64988294D01*
X146875500Y-64999500D01*
X51124500Y-64999500D01*
X51057461Y-64979815D01*
X51011706Y-64927011D01*
X51000500Y-64875500D01*
X51000500Y-58999998D01*
X81344532Y-58999998D01*
X81344532Y-59000001D01*
X81364364Y-59226686D01*
X81364366Y-59226697D01*
X81423258Y-59446488D01*
X81423261Y-59446497D01*
X81519431Y-59652732D01*
X81519432Y-59652734D01*
X81649954Y-59839141D01*
X81810858Y-60000045D01*
X81810861Y-60000047D01*
X81997266Y-60130568D01*
X82203504Y-60226739D01*
X82423308Y-60285635D01*
X82585230Y-60299801D01*
X82649998Y-60305468D01*
X82650000Y-60305468D01*
X82650002Y-60305468D01*
X82706673Y-60300509D01*
X82876692Y-60285635D01*
X83096496Y-60226739D01*
X83302734Y-60130568D01*
X83489139Y-60000047D01*
X83650047Y-59839139D01*
X83780568Y-59652734D01*
X83876739Y-59446496D01*
X83935635Y-59226692D01*
X83955468Y-59000000D01*
X83955468Y-58999998D01*
X94044532Y-58999998D01*
X94044532Y-59000001D01*
X94064364Y-59226686D01*
X94064366Y-59226697D01*
X94123258Y-59446488D01*
X94123261Y-59446497D01*
X94219431Y-59652732D01*
X94219432Y-59652734D01*
X94349954Y-59839141D01*
X94510858Y-60000045D01*
X94510861Y-60000047D01*
X94697266Y-60130568D01*
X94903504Y-60226739D01*
X95123308Y-60285635D01*
X95285230Y-60299801D01*
X95349998Y-60305468D01*
X95350000Y-60305468D01*
X95350002Y-60305468D01*
X95406673Y-60300509D01*
X95576692Y-60285635D01*
X95796496Y-60226739D01*
X96002734Y-60130568D01*
X96189139Y-60000047D01*
X96350047Y-59839139D01*
X96480568Y-59652734D01*
X96576739Y-59446496D01*
X96635635Y-59226692D01*
X96655468Y-59000000D01*
X96653438Y-58976802D01*
X96646642Y-58899116D01*
X96635635Y-58773308D01*
X96576739Y-58553504D01*
X96480568Y-58347266D01*
X96350047Y-58160861D01*
X96350045Y-58160858D01*
X96189141Y-57999954D01*
X96002734Y-57869432D01*
X96002732Y-57869431D01*
X95796497Y-57773261D01*
X95796488Y-57773258D01*
X95576697Y-57714366D01*
X95576693Y-57714365D01*
X95576692Y-57714365D01*
X95576691Y-57714364D01*
X95576686Y-57714364D01*
X95350002Y-57694532D01*
X95349998Y-57694532D01*
X95123313Y-57714364D01*
X95123302Y-57714366D01*
X94903511Y-57773258D01*
X94903502Y-57773261D01*
X94697267Y-57869431D01*
X94697265Y-57869432D01*
X94510858Y-57999954D01*
X94349954Y-58160858D01*
X94219432Y-58347265D01*
X94219431Y-58347267D01*
X94123261Y-58553502D01*
X94123258Y-58553511D01*
X94064366Y-58773302D01*
X94064364Y-58773313D01*
X94044532Y-58999998D01*
X83955468Y-58999998D01*
X83953438Y-58976802D01*
X83946642Y-58899116D01*
X83935635Y-58773308D01*
X83876739Y-58553504D01*
X83780568Y-58347266D01*
X83650047Y-58160861D01*
X83650045Y-58160858D01*
X83489141Y-57999954D01*
X83302734Y-57869432D01*
X83302732Y-57869431D01*
X83096497Y-57773261D01*
X83096488Y-57773258D01*
X82876697Y-57714366D01*
X82876693Y-57714365D01*
X82876692Y-57714365D01*
X82876691Y-57714364D01*
X82876686Y-57714364D01*
X82650002Y-57694532D01*
X82649998Y-57694532D01*
X82423313Y-57714364D01*
X82423302Y-57714366D01*
X82203511Y-57773258D01*
X82203502Y-57773261D01*
X81997267Y-57869431D01*
X81997265Y-57869432D01*
X81810858Y-57999954D01*
X81649954Y-58160858D01*
X81519432Y-58347265D01*
X81519431Y-58347267D01*
X81423261Y-58553502D01*
X81423258Y-58553511D01*
X81364366Y-58773302D01*
X81364364Y-58773313D01*
X81344532Y-58999998D01*
X51000500Y-58999998D01*
X51000500Y-54499996D01*
X72194435Y-54499996D01*
X72194435Y-54500003D01*
X72214630Y-54679249D01*
X72214631Y-54679254D01*
X72274211Y-54849523D01*
X72331062Y-54940000D01*
X72370184Y-55002262D01*
X72497738Y-55129816D01*
X72650478Y-55225789D01*
X72820745Y-55285368D01*
X72820750Y-55285369D01*
X72999996Y-55305565D01*
X73000000Y-55305565D01*
X73000004Y-55305565D01*
X73179249Y-55285369D01*
X73179252Y-55285368D01*
X73179255Y-55285368D01*
X73349522Y-55225789D01*
X73502262Y-55129816D01*
X73502267Y-55129810D01*
X73505097Y-55127555D01*
X73507275Y-55126665D01*
X73508158Y-55126111D01*
X73508255Y-55126265D01*
X73569783Y-55101145D01*
X73582412Y-55100500D01*
X76917588Y-55100500D01*
X76984627Y-55120185D01*
X76994903Y-55127555D01*
X76997736Y-55129814D01*
X76997738Y-55129816D01*
X77150478Y-55225789D01*
X77320745Y-55285368D01*
X77320750Y-55285369D01*
X77499996Y-55305565D01*
X77500000Y-55305565D01*
X77500004Y-55305565D01*
X77679249Y-55285369D01*
X77679252Y-55285368D01*
X77679255Y-55285368D01*
X77849522Y-55225789D01*
X78002262Y-55129816D01*
X78129816Y-55002262D01*
X78225789Y-54849522D01*
X78285368Y-54679255D01*
X78285369Y-54679249D01*
X78305565Y-54500003D01*
X78305565Y-54499996D01*
X78285369Y-54320750D01*
X78285368Y-54320745D01*
X78225789Y-54150478D01*
X78129816Y-53997738D01*
X78002262Y-53870184D01*
X77849523Y-53774211D01*
X77679254Y-53714631D01*
X77679249Y-53714630D01*
X77500004Y-53694435D01*
X77499996Y-53694435D01*
X77320750Y-53714630D01*
X77320745Y-53714631D01*
X77150476Y-53774211D01*
X76997736Y-53870185D01*
X76994903Y-53872445D01*
X76992724Y-53873334D01*
X76991842Y-53873889D01*
X76991744Y-53873734D01*
X76930217Y-53898855D01*
X76917588Y-53899500D01*
X73582412Y-53899500D01*
X73515373Y-53879815D01*
X73505097Y-53872445D01*
X73502263Y-53870185D01*
X73502262Y-53870184D01*
X73420219Y-53818633D01*
X73349523Y-53774211D01*
X73179254Y-53714631D01*
X73179249Y-53714630D01*
X73000004Y-53694435D01*
X72999996Y-53694435D01*
X72820750Y-53714630D01*
X72820745Y-53714631D01*
X72650476Y-53774211D01*
X72497737Y-53870184D01*
X72370184Y-53997737D01*
X72274211Y-54150476D01*
X72214631Y-54320745D01*
X72214630Y-54320750D01*
X72194435Y-54499996D01*
X51000500Y-54499996D01*
X51000500Y-49652135D01*
X65699500Y-49652135D01*
X65699500Y-51347870D01*
X65699501Y-51347876D01*
X65705908Y-51407483D01*
X65756202Y-51542328D01*
X65756206Y-51542335D01*
X65842452Y-51657544D01*
X65842455Y-51657547D01*
X65957664Y-51743793D01*
X65957671Y-51743797D01*
X66092517Y-51794091D01*
X66092516Y-51794091D01*
X66099444Y-51794835D01*
X66152127Y-51800500D01*
X67847872Y-51800499D01*
X67907483Y-51794091D01*
X68042331Y-51743796D01*
X68157546Y-51657546D01*
X68243796Y-51542331D01*
X68294091Y-51407483D01*
X68294092Y-51407472D01*
X68295365Y-51402088D01*
X68329933Y-51341369D01*
X68391841Y-51308978D01*
X68461433Y-51315199D01*
X68503725Y-51342912D01*
X68660858Y-51500045D01*
X68660861Y-51500047D01*
X68847266Y-51630568D01*
X69053504Y-51726739D01*
X69273308Y-51785635D01*
X69435230Y-51799801D01*
X69499998Y-51805468D01*
X69500000Y-51805468D01*
X69500002Y-51805468D01*
X69556807Y-51800498D01*
X69726692Y-51785635D01*
X69946496Y-51726739D01*
X70152734Y-51630568D01*
X70339139Y-51500047D01*
X70339190Y-51499996D01*
X108194435Y-51499996D01*
X108194435Y-51500003D01*
X108214630Y-51679249D01*
X108214631Y-51679254D01*
X108274211Y-51849523D01*
X108370185Y-52002263D01*
X108372445Y-52005097D01*
X108373334Y-52007275D01*
X108373889Y-52008158D01*
X108373734Y-52008255D01*
X108398855Y-52069783D01*
X108399500Y-52082412D01*
X108399500Y-53917587D01*
X108379815Y-53984626D01*
X108372450Y-53994896D01*
X108370186Y-53997734D01*
X108274211Y-54150476D01*
X108214631Y-54320745D01*
X108214630Y-54320750D01*
X108194435Y-54499996D01*
X108194435Y-54500003D01*
X108214630Y-54679249D01*
X108214631Y-54679254D01*
X108274211Y-54849523D01*
X108331062Y-54940000D01*
X108370184Y-55002262D01*
X108497738Y-55129816D01*
X108650478Y-55225789D01*
X108820745Y-55285368D01*
X108820750Y-55285369D01*
X108999996Y-55305565D01*
X109000000Y-55305565D01*
X109000004Y-55305565D01*
X109179249Y-55285369D01*
X109179252Y-55285368D01*
X109179255Y-55285368D01*
X109349522Y-55225789D01*
X109502262Y-55129816D01*
X109629816Y-55002262D01*
X109725789Y-54849522D01*
X109785368Y-54679255D01*
X109785369Y-54679249D01*
X109805565Y-54500003D01*
X109805565Y-54499996D01*
X109785369Y-54320750D01*
X109785368Y-54320745D01*
X109725789Y-54150478D01*
X109629816Y-53997738D01*
X109629814Y-53997736D01*
X109629813Y-53997734D01*
X109627550Y-53994896D01*
X109626659Y-53992715D01*
X109626111Y-53991842D01*
X109626264Y-53991745D01*
X109601144Y-53930209D01*
X109600500Y-53917587D01*
X109600500Y-52082412D01*
X109620185Y-52015373D01*
X109627555Y-52005097D01*
X109629810Y-52002267D01*
X109629816Y-52002262D01*
X109725789Y-51849522D01*
X109785368Y-51679255D01*
X109787814Y-51657546D01*
X109805565Y-51500003D01*
X109805565Y-51499996D01*
X109785369Y-51320750D01*
X109785368Y-51320745D01*
X109732585Y-51169900D01*
X109725789Y-51150478D01*
X109629816Y-50997738D01*
X109502262Y-50870184D01*
X109349523Y-50774211D01*
X109179254Y-50714631D01*
X109179249Y-50714630D01*
X109000004Y-50694435D01*
X108999996Y-50694435D01*
X108820750Y-50714630D01*
X108820745Y-50714631D01*
X108650476Y-50774211D01*
X108497737Y-50870184D01*
X108370184Y-50997737D01*
X108274211Y-51150476D01*
X108214631Y-51320745D01*
X108214630Y-51320750D01*
X108194435Y-51499996D01*
X70339190Y-51499996D01*
X70500047Y-51339139D01*
X70630568Y-51152734D01*
X70726739Y-50946496D01*
X70785635Y-50726692D01*
X70805468Y-50500000D01*
X70785635Y-50273308D01*
X70726739Y-50053504D01*
X70630568Y-49847266D01*
X70500047Y-49660861D01*
X70500045Y-49660858D01*
X70339141Y-49499954D01*
X70152734Y-49369432D01*
X70152732Y-49369431D01*
X69946497Y-49273261D01*
X69946488Y-49273258D01*
X69726697Y-49214366D01*
X69726693Y-49214365D01*
X69726692Y-49214365D01*
X69726691Y-49214364D01*
X69726686Y-49214364D01*
X69500002Y-49194532D01*
X69499998Y-49194532D01*
X69273313Y-49214364D01*
X69273302Y-49214366D01*
X69053511Y-49273258D01*
X69053502Y-49273261D01*
X68847267Y-49369431D01*
X68847265Y-49369432D01*
X68660862Y-49499951D01*
X68503726Y-49657087D01*
X68442403Y-49690571D01*
X68372711Y-49685587D01*
X68316778Y-49643715D01*
X68295369Y-49597923D01*
X68294091Y-49592518D01*
X68294021Y-49592331D01*
X68243796Y-49457669D01*
X68243795Y-49457668D01*
X68243793Y-49457664D01*
X68157547Y-49342455D01*
X68157544Y-49342452D01*
X68042335Y-49256206D01*
X68042328Y-49256202D01*
X67907482Y-49205908D01*
X67907483Y-49205908D01*
X67847883Y-49199501D01*
X67847881Y-49199500D01*
X67847873Y-49199500D01*
X67847864Y-49199500D01*
X66152129Y-49199500D01*
X66152123Y-49199501D01*
X66092516Y-49205908D01*
X65957671Y-49256202D01*
X65957664Y-49256206D01*
X65842455Y-49342452D01*
X65842452Y-49342455D01*
X65756206Y-49457664D01*
X65756202Y-49457671D01*
X65705908Y-49592517D01*
X65699501Y-49652116D01*
X65699500Y-49652135D01*
X51000500Y-49652135D01*
X51000500Y-48499998D01*
X81344532Y-48499998D01*
X81344532Y-48500001D01*
X81364364Y-48726686D01*
X81364366Y-48726697D01*
X81423258Y-48946488D01*
X81423261Y-48946497D01*
X81519431Y-49152732D01*
X81519432Y-49152734D01*
X81649954Y-49339141D01*
X81810858Y-49500045D01*
X81810861Y-49500047D01*
X81997266Y-49630568D01*
X82203504Y-49726739D01*
X82423308Y-49785635D01*
X82585230Y-49799801D01*
X82649998Y-49805468D01*
X82650000Y-49805468D01*
X82650002Y-49805468D01*
X82706673Y-49800509D01*
X82876692Y-49785635D01*
X83096496Y-49726739D01*
X83302734Y-49630568D01*
X83489139Y-49500047D01*
X83650047Y-49339139D01*
X83780568Y-49152734D01*
X83876739Y-48946496D01*
X83935635Y-48726692D01*
X83955468Y-48500000D01*
X83955468Y-48499998D01*
X94044532Y-48499998D01*
X94044532Y-48500001D01*
X94064364Y-48726686D01*
X94064366Y-48726697D01*
X94123258Y-48946488D01*
X94123261Y-48946497D01*
X94219431Y-49152732D01*
X94219432Y-49152734D01*
X94349954Y-49339141D01*
X94510858Y-49500045D01*
X94510861Y-49500047D01*
X94697266Y-49630568D01*
X94903504Y-49726739D01*
X95123308Y-49785635D01*
X95285230Y-49799801D01*
X95349998Y-49805468D01*
X95350000Y-49805468D01*
X95350002Y-49805468D01*
X95406673Y-49800509D01*
X95576692Y-49785635D01*
X95796496Y-49726739D01*
X96002734Y-49630568D01*
X96189139Y-49500047D01*
X96350047Y-49339139D01*
X96480568Y-49152734D01*
X96576739Y-48946496D01*
X96635635Y-48726692D01*
X96655468Y-48500000D01*
X96635635Y-48273308D01*
X96576739Y-48053504D01*
X96480568Y-47847266D01*
X96350047Y-47660861D01*
X96350045Y-47660858D01*
X96291322Y-47602135D01*
X101149500Y-47602135D01*
X101149500Y-49397870D01*
X101149501Y-49397876D01*
X101155908Y-49457483D01*
X101206202Y-49592328D01*
X101206206Y-49592335D01*
X101292452Y-49707544D01*
X101292455Y-49707547D01*
X101407664Y-49793793D01*
X101407671Y-49793797D01*
X101542517Y-49844091D01*
X101542516Y-49844091D01*
X101549444Y-49844835D01*
X101602127Y-49850500D01*
X103397872Y-49850499D01*
X103457483Y-49844091D01*
X103592331Y-49793796D01*
X103707546Y-49707546D01*
X103793796Y-49592331D01*
X103844091Y-49457483D01*
X103850500Y-49397873D01*
X103850499Y-47602128D01*
X103844091Y-47542517D01*
X103840999Y-47534228D01*
X103793797Y-47407671D01*
X103793793Y-47407664D01*
X103707547Y-47292455D01*
X103707544Y-47292452D01*
X103592335Y-47206206D01*
X103592328Y-47206202D01*
X103457482Y-47155908D01*
X103457483Y-47155908D01*
X103397883Y-47149501D01*
X103397881Y-47149500D01*
X103397873Y-47149500D01*
X103397864Y-47149500D01*
X101602129Y-47149500D01*
X101602123Y-47149501D01*
X101542516Y-47155908D01*
X101407671Y-47206202D01*
X101407664Y-47206206D01*
X101292455Y-47292452D01*
X101292452Y-47292455D01*
X101206206Y-47407664D01*
X101206202Y-47407671D01*
X101155908Y-47542517D01*
X101149501Y-47602116D01*
X101149501Y-47602123D01*
X101149500Y-47602135D01*
X96291322Y-47602135D01*
X96189141Y-47499954D01*
X96002734Y-47369432D01*
X96002732Y-47369431D01*
X95796497Y-47273261D01*
X95796488Y-47273258D01*
X95576697Y-47214366D01*
X95576693Y-47214365D01*
X95576692Y-47214365D01*
X95576691Y-47214364D01*
X95576686Y-47214364D01*
X95350002Y-47194532D01*
X95349998Y-47194532D01*
X95123313Y-47214364D01*
X95123302Y-47214366D01*
X94903511Y-47273258D01*
X94903502Y-47273261D01*
X94697267Y-47369431D01*
X94697265Y-47369432D01*
X94510858Y-47499954D01*
X94349954Y-47660858D01*
X94219432Y-47847265D01*
X94219431Y-47847267D01*
X94123261Y-48053502D01*
X94123258Y-48053511D01*
X94064366Y-48273302D01*
X94064364Y-48273313D01*
X94044532Y-48499998D01*
X83955468Y-48499998D01*
X83935635Y-48273308D01*
X83876739Y-48053504D01*
X83780568Y-47847266D01*
X83650047Y-47660861D01*
X83650045Y-47660858D01*
X83489141Y-47499954D01*
X83302734Y-47369432D01*
X83302732Y-47369431D01*
X83096497Y-47273261D01*
X83096488Y-47273258D01*
X82876697Y-47214366D01*
X82876693Y-47214365D01*
X82876692Y-47214365D01*
X82876691Y-47214364D01*
X82876686Y-47214364D01*
X82650002Y-47194532D01*
X82649998Y-47194532D01*
X82423313Y-47214364D01*
X82423302Y-47214366D01*
X82203511Y-47273258D01*
X82203502Y-47273261D01*
X81997267Y-47369431D01*
X81997265Y-47369432D01*
X81810858Y-47499954D01*
X81649954Y-47660858D01*
X81519432Y-47847265D01*
X81519431Y-47847267D01*
X81423261Y-48053502D01*
X81423258Y-48053511D01*
X81364366Y-48273302D01*
X81364364Y-48273313D01*
X81344532Y-48499998D01*
X51000500Y-48499998D01*
X51000500Y-36999997D01*
X56195034Y-36999997D01*
X56195034Y-37000002D01*
X56214858Y-37226599D01*
X56214860Y-37226610D01*
X56273730Y-37446317D01*
X56273735Y-37446331D01*
X56369863Y-37652478D01*
X56420974Y-37725472D01*
X57100000Y-37046446D01*
X57100000Y-37052661D01*
X57127259Y-37154394D01*
X57179920Y-37245606D01*
X57254394Y-37320080D01*
X57345606Y-37372741D01*
X57447339Y-37400000D01*
X57453553Y-37400000D01*
X56769352Y-38084199D01*
X56759506Y-38133194D01*
X56710890Y-38183377D01*
X56655367Y-38198049D01*
X56655423Y-38199099D01*
X56655429Y-38199146D01*
X56655426Y-38199146D01*
X56655436Y-38199324D01*
X56652123Y-38199501D01*
X56592516Y-38205908D01*
X56457671Y-38256202D01*
X56457664Y-38256206D01*
X56342455Y-38342452D01*
X56342452Y-38342455D01*
X56256206Y-38457664D01*
X56256202Y-38457671D01*
X56205908Y-38592517D01*
X56200535Y-38642498D01*
X56199501Y-38652123D01*
X56199500Y-38652135D01*
X56199500Y-40347870D01*
X56199501Y-40347876D01*
X56205908Y-40407483D01*
X56256202Y-40542328D01*
X56256206Y-40542335D01*
X56342452Y-40657544D01*
X56342455Y-40657547D01*
X56457664Y-40743793D01*
X56457671Y-40743797D01*
X56592517Y-40794091D01*
X56592516Y-40794091D01*
X56599444Y-40794835D01*
X56652127Y-40800500D01*
X58347872Y-40800499D01*
X58407483Y-40794091D01*
X58542331Y-40743796D01*
X58657546Y-40657546D01*
X58743796Y-40542331D01*
X58794091Y-40407483D01*
X58800500Y-40347873D01*
X58800499Y-38652128D01*
X58794091Y-38592517D01*
X58767126Y-38520221D01*
X58743797Y-38457671D01*
X58743793Y-38457664D01*
X58657547Y-38342455D01*
X58657544Y-38342452D01*
X58542335Y-38256206D01*
X58542328Y-38256202D01*
X58407482Y-38205908D01*
X58407483Y-38205908D01*
X58347883Y-38199501D01*
X58347881Y-38199500D01*
X58347873Y-38199500D01*
X58347864Y-38199500D01*
X58344548Y-38199322D01*
X58344627Y-38197847D01*
X58283215Y-38179815D01*
X58237460Y-38127011D01*
X58229969Y-38083522D01*
X57546447Y-37400000D01*
X57552661Y-37400000D01*
X57654394Y-37372741D01*
X57745606Y-37320080D01*
X57820080Y-37245606D01*
X57872741Y-37154394D01*
X57900000Y-37052661D01*
X57900000Y-37046447D01*
X58579024Y-37725471D01*
X58630136Y-37652478D01*
X58726264Y-37446331D01*
X58726269Y-37446317D01*
X58785139Y-37226610D01*
X58785141Y-37226599D01*
X58801467Y-37040000D01*
X63688618Y-37040000D01*
X63708903Y-37258913D01*
X63769069Y-37470379D01*
X63867063Y-37667176D01*
X63867068Y-37667184D01*
X63911085Y-37725472D01*
X63999558Y-37842629D01*
X64162032Y-37990743D01*
X64348955Y-38106481D01*
X64553963Y-38185902D01*
X64565786Y-38188112D01*
X64628064Y-38219780D01*
X64663337Y-38280092D01*
X64660403Y-38349900D01*
X64620194Y-38407040D01*
X64565786Y-38431887D01*
X64553963Y-38434098D01*
X64496719Y-38456274D01*
X64348955Y-38513518D01*
X64348953Y-38513519D01*
X64162036Y-38629254D01*
X64162034Y-38629255D01*
X64162032Y-38629257D01*
X64107188Y-38679254D01*
X63999557Y-38777372D01*
X63867068Y-38952815D01*
X63867063Y-38952823D01*
X63769069Y-39149620D01*
X63708903Y-39361086D01*
X63688618Y-39580000D01*
X63708903Y-39798913D01*
X63769069Y-40010379D01*
X63867063Y-40207176D01*
X63867068Y-40207184D01*
X63933312Y-40294905D01*
X63999558Y-40382629D01*
X64162032Y-40530743D01*
X64348955Y-40646481D01*
X64553963Y-40725902D01*
X64565786Y-40728112D01*
X64628064Y-40759780D01*
X64663337Y-40820092D01*
X64660403Y-40889900D01*
X64620194Y-40947040D01*
X64565786Y-40971887D01*
X64553963Y-40974098D01*
X64496719Y-40996274D01*
X64348955Y-41053518D01*
X64348953Y-41053519D01*
X64162036Y-41169254D01*
X64162034Y-41169255D01*
X64162032Y-41169257D01*
X64008068Y-41309613D01*
X63999557Y-41317372D01*
X63867068Y-41492815D01*
X63867063Y-41492823D01*
X63769069Y-41689620D01*
X63708903Y-41901086D01*
X63688618Y-42120000D01*
X63708903Y-42338913D01*
X63769069Y-42550379D01*
X63867063Y-42747176D01*
X63867068Y-42747184D01*
X63933312Y-42834905D01*
X63999558Y-42922629D01*
X64162032Y-43070743D01*
X64348955Y-43186481D01*
X64553963Y-43265902D01*
X64770073Y-43306300D01*
X64770075Y-43306300D01*
X64989925Y-43306300D01*
X64989927Y-43306300D01*
X65206037Y-43265902D01*
X65411045Y-43186481D01*
X65597968Y-43070743D01*
X65760442Y-42922629D01*
X65892933Y-42747182D01*
X65990931Y-42550377D01*
X66051096Y-42338916D01*
X66071382Y-42120000D01*
X66051096Y-41901084D01*
X65990931Y-41689623D01*
X65990930Y-41689620D01*
X65892936Y-41492823D01*
X65892931Y-41492815D01*
X65858468Y-41447179D01*
X65760442Y-41317371D01*
X65597968Y-41169257D01*
X65452360Y-41079100D01*
X65411046Y-41053519D01*
X65411044Y-41053518D01*
X65298452Y-41009900D01*
X65206037Y-40974098D01*
X65206033Y-40974097D01*
X65202285Y-40973396D01*
X65194215Y-40971888D01*
X65131936Y-40940221D01*
X65096662Y-40879909D01*
X65099595Y-40810101D01*
X65139804Y-40752961D01*
X65194214Y-40728111D01*
X65206037Y-40725902D01*
X65411045Y-40646481D01*
X65597968Y-40530743D01*
X65760442Y-40382629D01*
X65892933Y-40207182D01*
X65990931Y-40010377D01*
X66051096Y-39798916D01*
X66071382Y-39580000D01*
X66051096Y-39361084D01*
X65990931Y-39149623D01*
X65990930Y-39149620D01*
X65892936Y-38952823D01*
X65892931Y-38952815D01*
X65858468Y-38907179D01*
X65760442Y-38777371D01*
X65597968Y-38629257D01*
X65538631Y-38592517D01*
X65411046Y-38513519D01*
X65411044Y-38513518D01*
X65298452Y-38469900D01*
X65206037Y-38434098D01*
X65206033Y-38434097D01*
X65202285Y-38433396D01*
X65194215Y-38431888D01*
X65131936Y-38400221D01*
X65096662Y-38339909D01*
X65099595Y-38270101D01*
X65139804Y-38212961D01*
X65194214Y-38188111D01*
X65206037Y-38185902D01*
X65411045Y-38106481D01*
X65597968Y-37990743D01*
X65760442Y-37842629D01*
X65875873Y-37689772D01*
X65931982Y-37648137D01*
X65974827Y-37640500D01*
X69659903Y-37640500D01*
X69726942Y-37660185D01*
X69747584Y-37676819D01*
X71300179Y-39229414D01*
X71333664Y-39290737D01*
X71331766Y-39351024D01*
X71328904Y-39361084D01*
X71308618Y-39580000D01*
X71328903Y-39798913D01*
X71389069Y-40010379D01*
X71487063Y-40207176D01*
X71487068Y-40207184D01*
X71553312Y-40294905D01*
X71619558Y-40382629D01*
X71782032Y-40530743D01*
X71968955Y-40646481D01*
X72173963Y-40725902D01*
X72185786Y-40728112D01*
X72248064Y-40759780D01*
X72283337Y-40820092D01*
X72280403Y-40889900D01*
X72240194Y-40947040D01*
X72185786Y-40971887D01*
X72173963Y-40974098D01*
X72116719Y-40996274D01*
X71968955Y-41053518D01*
X71968953Y-41053519D01*
X71782036Y-41169254D01*
X71782034Y-41169255D01*
X71782032Y-41169257D01*
X71628068Y-41309613D01*
X71619557Y-41317372D01*
X71487068Y-41492815D01*
X71487063Y-41492823D01*
X71389069Y-41689620D01*
X71328903Y-41901086D01*
X71308618Y-42120000D01*
X71328903Y-42338913D01*
X71389069Y-42550379D01*
X71487063Y-42747176D01*
X71487068Y-42747184D01*
X71553312Y-42834905D01*
X71619558Y-42922629D01*
X71782032Y-43070743D01*
X71968955Y-43186481D01*
X72173963Y-43265902D01*
X72390073Y-43306300D01*
X72390075Y-43306300D01*
X72609925Y-43306300D01*
X72609927Y-43306300D01*
X72826037Y-43265902D01*
X73031045Y-43186481D01*
X73217968Y-43070743D01*
X73380442Y-42922629D01*
X73512933Y-42747182D01*
X73610931Y-42550377D01*
X73625265Y-42499996D01*
X110194435Y-42499996D01*
X110194435Y-42500003D01*
X110214630Y-42679249D01*
X110214631Y-42679254D01*
X110274211Y-42849523D01*
X110320146Y-42922627D01*
X110370184Y-43002262D01*
X110497738Y-43129816D01*
X110650478Y-43225789D01*
X110815827Y-43283647D01*
X110820745Y-43285368D01*
X110820750Y-43285369D01*
X110999996Y-43305565D01*
X111000000Y-43305565D01*
X111000004Y-43305565D01*
X111179249Y-43285369D01*
X111179252Y-43285368D01*
X111179255Y-43285368D01*
X111349522Y-43225789D01*
X111502262Y-43129816D01*
X111502267Y-43129810D01*
X111505097Y-43127555D01*
X111507275Y-43126665D01*
X111508158Y-43126111D01*
X111508255Y-43126265D01*
X111569783Y-43101145D01*
X111582412Y-43100500D01*
X114172705Y-43100500D01*
X114239744Y-43120185D01*
X114256236Y-43132857D01*
X114297405Y-43170387D01*
X114480326Y-43283647D01*
X114680944Y-43361367D01*
X114824015Y-43388111D01*
X114886295Y-43419779D01*
X114921568Y-43480092D01*
X114918634Y-43549900D01*
X114878425Y-43607040D01*
X114824015Y-43631888D01*
X114680944Y-43658633D01*
X114554075Y-43707782D01*
X114480328Y-43736352D01*
X114480327Y-43736352D01*
X114297402Y-43849614D01*
X114138414Y-43994550D01*
X114138407Y-43994558D01*
X114008760Y-44166239D01*
X114008751Y-44166253D01*
X113912860Y-44358827D01*
X113912855Y-44358840D01*
X113853977Y-44565771D01*
X113834127Y-44779999D01*
X113834127Y-44780000D01*
X113853977Y-44994228D01*
X113912855Y-45201159D01*
X113912860Y-45201172D01*
X114008751Y-45393746D01*
X114008753Y-45393749D01*
X114008755Y-45393753D01*
X114138409Y-45565444D01*
X114138412Y-45565446D01*
X114138414Y-45565449D01*
X114297402Y-45710385D01*
X114297404Y-45710386D01*
X114297405Y-45710387D01*
X114480326Y-45823647D01*
X114680944Y-45901367D01*
X114824015Y-45928111D01*
X114886295Y-45959779D01*
X114921568Y-46020092D01*
X114918634Y-46089900D01*
X114878425Y-46147040D01*
X114824015Y-46171888D01*
X114680944Y-46198633D01*
X114554075Y-46247782D01*
X114480328Y-46276352D01*
X114480327Y-46276352D01*
X114297402Y-46389614D01*
X114138414Y-46534550D01*
X114138407Y-46534558D01*
X114008760Y-46706239D01*
X114008751Y-46706253D01*
X113912860Y-46898827D01*
X113912855Y-46898840D01*
X113853977Y-47105771D01*
X113834127Y-47319999D01*
X113834127Y-47320000D01*
X113853977Y-47534228D01*
X113912855Y-47741159D01*
X113912860Y-47741172D01*
X114008751Y-47933746D01*
X114008753Y-47933749D01*
X114008755Y-47933753D01*
X114008758Y-47933757D01*
X114008760Y-47933760D01*
X114076008Y-48022811D01*
X114138409Y-48105444D01*
X114138412Y-48105446D01*
X114138414Y-48105449D01*
X114297402Y-48250385D01*
X114297404Y-48250386D01*
X114297405Y-48250387D01*
X114480326Y-48363647D01*
X114680944Y-48441367D01*
X114824015Y-48468111D01*
X114886295Y-48499779D01*
X114921568Y-48560092D01*
X114918634Y-48629900D01*
X114878425Y-48687040D01*
X114824015Y-48711888D01*
X114680944Y-48738633D01*
X114554075Y-48787782D01*
X114480328Y-48816352D01*
X114480327Y-48816352D01*
X114297402Y-48929614D01*
X114138414Y-49074550D01*
X114138407Y-49074558D01*
X114008760Y-49246239D01*
X114008751Y-49246253D01*
X113912860Y-49438827D01*
X113912855Y-49438840D01*
X113853977Y-49645771D01*
X113834127Y-49859999D01*
X113834127Y-49860000D01*
X113853977Y-50074228D01*
X113912855Y-50281159D01*
X113912860Y-50281172D01*
X114008751Y-50473746D01*
X114008753Y-50473749D01*
X114008755Y-50473753D01*
X114008758Y-50473757D01*
X114008760Y-50473760D01*
X114028576Y-50500001D01*
X114138409Y-50645444D01*
X114138412Y-50645446D01*
X114138414Y-50645449D01*
X114297402Y-50790385D01*
X114297404Y-50790386D01*
X114297405Y-50790387D01*
X114480326Y-50903647D01*
X114680944Y-50981367D01*
X114824015Y-51008111D01*
X114886295Y-51039779D01*
X114921568Y-51100092D01*
X114918634Y-51169900D01*
X114878425Y-51227040D01*
X114824015Y-51251888D01*
X114680944Y-51278633D01*
X114572241Y-51320745D01*
X114480328Y-51356352D01*
X114480327Y-51356352D01*
X114297402Y-51469614D01*
X114138414Y-51614550D01*
X114138407Y-51614558D01*
X114008760Y-51786239D01*
X114008751Y-51786253D01*
X113912860Y-51978827D01*
X113912855Y-51978840D01*
X113853977Y-52185771D01*
X113834127Y-52399999D01*
X113834127Y-52400000D01*
X113853977Y-52614228D01*
X113912855Y-52821159D01*
X113912860Y-52821172D01*
X114008751Y-53013746D01*
X114008753Y-53013749D01*
X114008755Y-53013753D01*
X114138409Y-53185444D01*
X114138412Y-53185446D01*
X114138414Y-53185449D01*
X114297402Y-53330385D01*
X114297404Y-53330386D01*
X114297405Y-53330387D01*
X114480326Y-53443647D01*
X114680944Y-53521367D01*
X114824015Y-53548111D01*
X114886295Y-53579779D01*
X114921568Y-53640092D01*
X114918634Y-53709900D01*
X114878425Y-53767040D01*
X114824015Y-53791888D01*
X114680944Y-53818633D01*
X114554075Y-53867782D01*
X114480328Y-53896352D01*
X114480327Y-53896352D01*
X114297402Y-54009614D01*
X114138414Y-54154550D01*
X114138407Y-54154558D01*
X114008760Y-54326239D01*
X114008751Y-54326253D01*
X113912860Y-54518827D01*
X113912855Y-54518840D01*
X113853977Y-54725771D01*
X113834127Y-54939999D01*
X113834127Y-54940000D01*
X113853977Y-55154228D01*
X113912855Y-55361159D01*
X113912860Y-55361172D01*
X114008751Y-55553746D01*
X114008753Y-55553749D01*
X114008755Y-55553753D01*
X114138409Y-55725444D01*
X114138412Y-55725446D01*
X114138414Y-55725449D01*
X114297402Y-55870385D01*
X114297404Y-55870386D01*
X114297405Y-55870387D01*
X114480326Y-55983647D01*
X114680944Y-56061367D01*
X114824015Y-56088111D01*
X114886295Y-56119779D01*
X114921568Y-56180092D01*
X114918634Y-56249900D01*
X114878425Y-56307040D01*
X114824015Y-56331888D01*
X114680944Y-56358633D01*
X114554075Y-56407782D01*
X114480328Y-56436352D01*
X114480327Y-56436352D01*
X114297402Y-56549614D01*
X114138414Y-56694550D01*
X114138407Y-56694558D01*
X114008760Y-56866239D01*
X114008751Y-56866253D01*
X113912860Y-57058827D01*
X113912855Y-57058840D01*
X113853977Y-57265771D01*
X113834127Y-57479999D01*
X113834127Y-57480000D01*
X113853977Y-57694228D01*
X113912855Y-57901159D01*
X113912860Y-57901172D01*
X114008751Y-58093746D01*
X114008753Y-58093749D01*
X114008755Y-58093753D01*
X114138409Y-58265444D01*
X114138412Y-58265446D01*
X114138414Y-58265449D01*
X114297402Y-58410385D01*
X114297404Y-58410386D01*
X114297405Y-58410387D01*
X114480326Y-58523647D01*
X114680944Y-58601367D01*
X114824015Y-58628111D01*
X114886295Y-58659779D01*
X114921568Y-58720092D01*
X114918634Y-58789900D01*
X114878425Y-58847040D01*
X114824015Y-58871888D01*
X114680944Y-58898633D01*
X114554075Y-58947782D01*
X114480328Y-58976352D01*
X114480327Y-58976352D01*
X114297402Y-59089614D01*
X114138414Y-59234550D01*
X114138407Y-59234558D01*
X114008760Y-59406239D01*
X114008751Y-59406253D01*
X113912860Y-59598827D01*
X113912855Y-59598840D01*
X113853977Y-59805771D01*
X113834127Y-60019999D01*
X113834127Y-60020000D01*
X113853977Y-60234228D01*
X113912855Y-60441159D01*
X113912860Y-60441172D01*
X114008751Y-60633746D01*
X114008753Y-60633749D01*
X114008755Y-60633753D01*
X114138409Y-60805444D01*
X114138412Y-60805446D01*
X114138414Y-60805449D01*
X114297402Y-60950385D01*
X114297404Y-60950386D01*
X114297405Y-60950387D01*
X114480326Y-61063647D01*
X114680944Y-61141367D01*
X114892427Y-61180900D01*
X114892429Y-61180900D01*
X115107571Y-61180900D01*
X115107573Y-61180900D01*
X115319056Y-61141367D01*
X115519674Y-61063647D01*
X115702595Y-60950387D01*
X115861591Y-60805444D01*
X115991245Y-60633753D01*
X116087144Y-60441162D01*
X116146022Y-60234229D01*
X116165873Y-60020000D01*
X116151337Y-59863135D01*
X116146022Y-59805771D01*
X116106380Y-59666446D01*
X116087144Y-59598838D01*
X115991245Y-59406247D01*
X115861591Y-59234556D01*
X115861587Y-59234552D01*
X115861585Y-59234550D01*
X115702597Y-59089614D01*
X115625508Y-59041883D01*
X115519674Y-58976353D01*
X115319056Y-58898633D01*
X115175983Y-58871888D01*
X115113704Y-58840221D01*
X115078431Y-58779908D01*
X115081365Y-58710100D01*
X115121574Y-58652960D01*
X115175982Y-58628111D01*
X115319056Y-58601367D01*
X115519674Y-58523647D01*
X115702595Y-58410387D01*
X115861591Y-58265444D01*
X115991245Y-58093753D01*
X116087144Y-57901162D01*
X116146022Y-57694229D01*
X116165873Y-57480000D01*
X116146022Y-57265771D01*
X116087144Y-57058838D01*
X116058972Y-57002262D01*
X115991248Y-56866253D01*
X115991247Y-56866252D01*
X115991245Y-56866247D01*
X115861591Y-56694556D01*
X115861587Y-56694552D01*
X115861585Y-56694550D01*
X115702597Y-56549614D01*
X115622467Y-56500000D01*
X115519674Y-56436353D01*
X115319056Y-56358633D01*
X115175983Y-56331888D01*
X115113704Y-56300221D01*
X115078431Y-56239908D01*
X115081365Y-56170100D01*
X115121574Y-56112960D01*
X115175982Y-56088111D01*
X115319056Y-56061367D01*
X115519674Y-55983647D01*
X115702595Y-55870387D01*
X115861591Y-55725444D01*
X115991245Y-55553753D01*
X116087144Y-55361162D01*
X116146022Y-55154229D01*
X116165873Y-54940000D01*
X116146022Y-54725771D01*
X116087144Y-54518838D01*
X116077765Y-54500003D01*
X115991248Y-54326253D01*
X115991247Y-54326252D01*
X115991245Y-54326247D01*
X115861591Y-54154556D01*
X115861587Y-54154552D01*
X115861585Y-54154550D01*
X115702597Y-54009614D01*
X115636069Y-53968422D01*
X115519674Y-53896353D01*
X115319056Y-53818633D01*
X115175983Y-53791888D01*
X115113704Y-53760221D01*
X115078431Y-53699908D01*
X115081365Y-53630100D01*
X115121574Y-53572960D01*
X115175982Y-53548111D01*
X115319056Y-53521367D01*
X115519674Y-53443647D01*
X115702595Y-53330387D01*
X115861591Y-53185444D01*
X115991245Y-53013753D01*
X116087144Y-52821162D01*
X116146022Y-52614229D01*
X116165873Y-52400000D01*
X116159532Y-52331574D01*
X116146022Y-52185771D01*
X116087144Y-51978838D01*
X116063351Y-51931056D01*
X115991248Y-51786253D01*
X115991247Y-51786252D01*
X115991245Y-51786247D01*
X115861591Y-51614556D01*
X115861587Y-51614552D01*
X115861585Y-51614550D01*
X115702597Y-51469614D01*
X115662811Y-51444979D01*
X115519674Y-51356353D01*
X115319056Y-51278633D01*
X115175983Y-51251888D01*
X115113704Y-51220221D01*
X115078431Y-51159908D01*
X115081365Y-51090100D01*
X115121574Y-51032960D01*
X115175982Y-51008111D01*
X115319056Y-50981367D01*
X115519674Y-50903647D01*
X115702595Y-50790387D01*
X115861591Y-50645444D01*
X115991245Y-50473753D01*
X116087144Y-50281162D01*
X116146022Y-50074229D01*
X116165873Y-49860000D01*
X116159738Y-49793797D01*
X116146022Y-49645771D01*
X116130816Y-49592328D01*
X116087144Y-49438838D01*
X116066747Y-49397876D01*
X115991248Y-49246253D01*
X115991247Y-49246252D01*
X115991245Y-49246247D01*
X115861591Y-49074556D01*
X115861587Y-49074552D01*
X115861585Y-49074550D01*
X115702597Y-48929614D01*
X115662811Y-48904979D01*
X115519674Y-48816353D01*
X115319056Y-48738633D01*
X115175983Y-48711888D01*
X115113704Y-48680221D01*
X115078431Y-48619908D01*
X115081365Y-48550100D01*
X115121574Y-48492960D01*
X115175982Y-48468111D01*
X115319056Y-48441367D01*
X115519674Y-48363647D01*
X115702595Y-48250387D01*
X115861591Y-48105444D01*
X115991245Y-47933753D01*
X116087144Y-47741162D01*
X116146022Y-47534229D01*
X116165873Y-47320000D01*
X116146022Y-47105771D01*
X116087144Y-46898838D01*
X116007834Y-46739563D01*
X115991248Y-46706253D01*
X115991247Y-46706252D01*
X115991245Y-46706247D01*
X115861591Y-46534556D01*
X115861587Y-46534552D01*
X115861585Y-46534550D01*
X115702597Y-46389614D01*
X115662811Y-46364979D01*
X115519674Y-46276353D01*
X115319056Y-46198633D01*
X115175983Y-46171888D01*
X115113704Y-46140221D01*
X115078431Y-46079908D01*
X115081365Y-46010100D01*
X115121574Y-45952960D01*
X115175982Y-45928111D01*
X115319056Y-45901367D01*
X115519674Y-45823647D01*
X115702595Y-45710387D01*
X115861591Y-45565444D01*
X115991245Y-45393753D01*
X116087144Y-45201162D01*
X116146022Y-44994229D01*
X116165873Y-44780000D01*
X116151337Y-44623135D01*
X116146022Y-44565771D01*
X116087194Y-44359015D01*
X116087144Y-44358838D01*
X115991245Y-44166247D01*
X115861591Y-43994556D01*
X115861587Y-43994552D01*
X115861585Y-43994550D01*
X115702597Y-43849614D01*
X115625508Y-43801883D01*
X115519674Y-43736353D01*
X115319056Y-43658633D01*
X115175983Y-43631888D01*
X115113704Y-43600221D01*
X115078431Y-43539908D01*
X115081365Y-43470100D01*
X115121574Y-43412960D01*
X115175982Y-43388111D01*
X115319056Y-43361367D01*
X115519674Y-43283647D01*
X115702595Y-43170387D01*
X115861591Y-43025444D01*
X115991245Y-42853753D01*
X116087144Y-42661162D01*
X116146022Y-42454229D01*
X116165873Y-42240000D01*
X116157577Y-42150476D01*
X116146022Y-42025771D01*
X116138046Y-41997738D01*
X116087144Y-41818838D01*
X116070478Y-41785369D01*
X115991248Y-41626253D01*
X115991247Y-41626252D01*
X115991245Y-41626247D01*
X115861591Y-41454556D01*
X115861587Y-41454552D01*
X115861585Y-41454550D01*
X115702597Y-41309614D01*
X115662811Y-41284979D01*
X115519674Y-41196353D01*
X115319056Y-41118633D01*
X115175983Y-41091888D01*
X115113704Y-41060221D01*
X115078431Y-40999908D01*
X115081365Y-40930100D01*
X115121574Y-40872960D01*
X115175982Y-40848111D01*
X115319056Y-40821367D01*
X115519674Y-40743647D01*
X115702595Y-40630387D01*
X115861591Y-40485444D01*
X115991245Y-40313753D01*
X116087144Y-40121162D01*
X116146022Y-39914229D01*
X116165873Y-39700000D01*
X116155896Y-39592335D01*
X116146022Y-39485771D01*
X116136265Y-39451478D01*
X116087144Y-39278838D01*
X115991245Y-39086247D01*
X115861591Y-38914556D01*
X115861587Y-38914552D01*
X115861585Y-38914550D01*
X115702597Y-38769614D01*
X115631815Y-38725788D01*
X115519674Y-38656353D01*
X115319056Y-38578633D01*
X115175983Y-38551888D01*
X115113704Y-38520221D01*
X115078431Y-38459908D01*
X115081365Y-38390100D01*
X115121574Y-38332960D01*
X115175982Y-38308111D01*
X115319056Y-38281367D01*
X115519674Y-38203647D01*
X115702595Y-38090387D01*
X115861591Y-37945444D01*
X115991245Y-37773753D01*
X116087144Y-37581162D01*
X116146022Y-37374229D01*
X116165873Y-37160000D01*
X116154753Y-37040000D01*
X116146022Y-36945771D01*
X116118637Y-36849523D01*
X116087144Y-36738838D01*
X116057806Y-36679920D01*
X115991248Y-36546253D01*
X115991247Y-36546252D01*
X115991245Y-36546247D01*
X115861591Y-36374556D01*
X115861587Y-36374552D01*
X115861585Y-36374550D01*
X115702597Y-36229614D01*
X115662811Y-36204979D01*
X115519674Y-36116353D01*
X115319056Y-36038633D01*
X115175983Y-36011888D01*
X115113704Y-35980221D01*
X115078431Y-35919908D01*
X115081365Y-35850100D01*
X115121574Y-35792960D01*
X115175982Y-35768111D01*
X115319056Y-35741367D01*
X115519674Y-35663647D01*
X115702595Y-35550387D01*
X115861591Y-35405444D01*
X115964045Y-35269771D01*
X116020151Y-35228137D01*
X116062997Y-35220500D01*
X117453331Y-35220500D01*
X117453347Y-35220501D01*
X117460943Y-35220501D01*
X117619054Y-35220501D01*
X117619057Y-35220501D01*
X117771785Y-35179577D01*
X117821904Y-35150639D01*
X117908716Y-35100520D01*
X118020520Y-34988716D01*
X118020520Y-34988714D01*
X118030728Y-34978507D01*
X118030730Y-34978504D01*
X121267809Y-31741424D01*
X121329130Y-31707941D01*
X121398822Y-31712925D01*
X121454755Y-31754797D01*
X121479172Y-31820261D01*
X121474757Y-31863033D01*
X121473977Y-31865771D01*
X121454127Y-32079999D01*
X121454127Y-32080000D01*
X121473977Y-32294228D01*
X121532855Y-32501159D01*
X121532860Y-32501172D01*
X121628751Y-32693746D01*
X121628753Y-32693749D01*
X121628755Y-32693753D01*
X121758409Y-32865444D01*
X121758412Y-32865446D01*
X121758414Y-32865449D01*
X121917402Y-33010385D01*
X121917404Y-33010386D01*
X121917405Y-33010387D01*
X122100326Y-33123647D01*
X122300944Y-33201367D01*
X122444015Y-33228111D01*
X122506295Y-33259779D01*
X122541568Y-33320092D01*
X122538634Y-33389900D01*
X122498425Y-33447040D01*
X122444015Y-33471888D01*
X122300944Y-33498633D01*
X122174075Y-33547782D01*
X122100328Y-33576352D01*
X122100327Y-33576352D01*
X121917402Y-33689614D01*
X121758414Y-33834550D01*
X121758407Y-33834558D01*
X121628760Y-34006239D01*
X121628751Y-34006253D01*
X121532860Y-34198827D01*
X121532855Y-34198840D01*
X121473977Y-34405771D01*
X121454127Y-34619999D01*
X121454127Y-34620000D01*
X121473977Y-34834228D01*
X121532855Y-35041159D01*
X121532860Y-35041172D01*
X121628751Y-35233746D01*
X121628753Y-35233749D01*
X121628755Y-35233753D01*
X121628758Y-35233757D01*
X121628760Y-35233760D01*
X121673626Y-35293172D01*
X121758409Y-35405444D01*
X121758412Y-35405446D01*
X121758414Y-35405449D01*
X121917402Y-35550385D01*
X121917404Y-35550386D01*
X121917405Y-35550387D01*
X122100326Y-35663647D01*
X122300944Y-35741367D01*
X122444015Y-35768111D01*
X122506295Y-35799779D01*
X122541568Y-35860092D01*
X122538634Y-35929900D01*
X122498425Y-35987040D01*
X122444015Y-36011888D01*
X122300944Y-36038633D01*
X122174075Y-36087782D01*
X122100328Y-36116352D01*
X122100327Y-36116352D01*
X121917402Y-36229614D01*
X121758414Y-36374550D01*
X121758407Y-36374558D01*
X121628760Y-36546239D01*
X121628751Y-36546253D01*
X121532860Y-36738827D01*
X121532855Y-36738840D01*
X121473977Y-36945771D01*
X121454127Y-37159999D01*
X121454127Y-37160000D01*
X121473977Y-37374228D01*
X121532855Y-37581159D01*
X121532860Y-37581172D01*
X121628751Y-37773746D01*
X121628753Y-37773749D01*
X121628755Y-37773753D01*
X121628758Y-37773757D01*
X121628760Y-37773760D01*
X121680766Y-37842627D01*
X121758409Y-37945444D01*
X121758412Y-37945446D01*
X121758414Y-37945449D01*
X121917402Y-38090385D01*
X121917404Y-38090386D01*
X121917405Y-38090387D01*
X122100326Y-38203647D01*
X122300944Y-38281367D01*
X122444015Y-38308111D01*
X122506295Y-38339779D01*
X122541568Y-38400092D01*
X122538634Y-38469900D01*
X122498425Y-38527040D01*
X122444015Y-38551888D01*
X122300944Y-38578633D01*
X122174075Y-38627782D01*
X122100328Y-38656352D01*
X122100327Y-38656352D01*
X121917402Y-38769614D01*
X121758414Y-38914550D01*
X121758407Y-38914558D01*
X121628760Y-39086239D01*
X121628751Y-39086253D01*
X121532860Y-39278827D01*
X121532855Y-39278840D01*
X121473977Y-39485771D01*
X121454127Y-39699999D01*
X121454127Y-39700000D01*
X121473977Y-39914228D01*
X121532855Y-40121159D01*
X121532860Y-40121172D01*
X121628751Y-40313746D01*
X121628753Y-40313749D01*
X121628755Y-40313753D01*
X121628758Y-40313757D01*
X121628760Y-40313760D01*
X121680766Y-40382627D01*
X121758409Y-40485444D01*
X121758412Y-40485446D01*
X121758414Y-40485449D01*
X121917402Y-40630385D01*
X121917404Y-40630386D01*
X121917405Y-40630387D01*
X122100326Y-40743647D01*
X122300944Y-40821367D01*
X122444015Y-40848111D01*
X122506295Y-40879779D01*
X122541568Y-40940092D01*
X122538634Y-41009900D01*
X122498425Y-41067040D01*
X122444015Y-41091888D01*
X122300944Y-41118633D01*
X122218748Y-41150476D01*
X122100328Y-41196352D01*
X122100327Y-41196352D01*
X121917402Y-41309614D01*
X121758414Y-41454550D01*
X121758407Y-41454558D01*
X121628760Y-41626239D01*
X121628751Y-41626253D01*
X121532860Y-41818827D01*
X121532855Y-41818840D01*
X121473977Y-42025771D01*
X121454127Y-42239999D01*
X121454127Y-42240000D01*
X121473977Y-42454228D01*
X121532855Y-42661159D01*
X121532860Y-42661172D01*
X121628751Y-42853746D01*
X121628753Y-42853749D01*
X121628755Y-42853753D01*
X121758409Y-43025444D01*
X121758412Y-43025446D01*
X121758414Y-43025449D01*
X121917402Y-43170385D01*
X121917404Y-43170386D01*
X121917405Y-43170387D01*
X122100326Y-43283647D01*
X122300944Y-43361367D01*
X122445375Y-43388365D01*
X122507655Y-43420033D01*
X122542928Y-43480346D01*
X122539994Y-43550154D01*
X122499785Y-43607294D01*
X122445374Y-43632143D01*
X122301083Y-43659116D01*
X122301082Y-43659116D01*
X122100552Y-43736801D01*
X121995437Y-43801884D01*
X122567154Y-44373600D01*
X122566496Y-44373600D01*
X122463135Y-44401295D01*
X122370464Y-44454799D01*
X122294799Y-44530464D01*
X122241295Y-44623135D01*
X122213600Y-44726496D01*
X122213600Y-44727153D01*
X121639411Y-44152964D01*
X121629179Y-44166515D01*
X121533325Y-44359015D01*
X121474471Y-44565868D01*
X121454629Y-44780000D01*
X121474471Y-44994131D01*
X121533325Y-45200984D01*
X121629182Y-45393489D01*
X121639410Y-45407034D01*
X121639411Y-45407035D01*
X122213600Y-44832846D01*
X122213600Y-44833504D01*
X122241295Y-44936865D01*
X122294799Y-45029536D01*
X122370464Y-45105201D01*
X122463135Y-45158705D01*
X122566496Y-45186400D01*
X122567153Y-45186400D01*
X121995437Y-45758114D01*
X122100551Y-45823197D01*
X122301082Y-45900883D01*
X122445374Y-45927856D01*
X122507655Y-45959524D01*
X122542928Y-46019836D01*
X122539994Y-46089644D01*
X122499786Y-46146785D01*
X122445375Y-46171634D01*
X122373841Y-46185006D01*
X122300944Y-46198633D01*
X122174075Y-46247782D01*
X122100328Y-46276352D01*
X122100327Y-46276352D01*
X121917402Y-46389614D01*
X121758414Y-46534550D01*
X121758407Y-46534558D01*
X121628760Y-46706239D01*
X121628751Y-46706253D01*
X121532860Y-46898827D01*
X121532855Y-46898840D01*
X121473977Y-47105771D01*
X121454127Y-47319999D01*
X121454127Y-47320000D01*
X121473977Y-47534228D01*
X121532855Y-47741159D01*
X121532860Y-47741172D01*
X121628751Y-47933746D01*
X121628753Y-47933749D01*
X121628755Y-47933753D01*
X121628758Y-47933757D01*
X121628760Y-47933760D01*
X121696008Y-48022811D01*
X121758409Y-48105444D01*
X121758412Y-48105446D01*
X121758414Y-48105449D01*
X121917402Y-48250385D01*
X121917404Y-48250386D01*
X121917405Y-48250387D01*
X122100326Y-48363647D01*
X122300944Y-48441367D01*
X122444015Y-48468111D01*
X122506295Y-48499779D01*
X122541568Y-48560092D01*
X122538634Y-48629900D01*
X122498425Y-48687040D01*
X122444015Y-48711888D01*
X122300944Y-48738633D01*
X122174075Y-48787782D01*
X122100328Y-48816352D01*
X122100327Y-48816352D01*
X121917402Y-48929614D01*
X121758414Y-49074550D01*
X121758407Y-49074558D01*
X121628760Y-49246239D01*
X121628751Y-49246253D01*
X121532860Y-49438827D01*
X121532855Y-49438840D01*
X121473977Y-49645771D01*
X121454127Y-49859999D01*
X121454127Y-49860000D01*
X121473977Y-50074228D01*
X121532855Y-50281159D01*
X121532860Y-50281172D01*
X121628751Y-50473746D01*
X121628753Y-50473749D01*
X121628755Y-50473753D01*
X121628758Y-50473757D01*
X121628760Y-50473760D01*
X121648576Y-50500001D01*
X121758409Y-50645444D01*
X121758412Y-50645446D01*
X121758414Y-50645449D01*
X121917402Y-50790385D01*
X121917404Y-50790386D01*
X121917405Y-50790387D01*
X122100326Y-50903647D01*
X122300944Y-50981367D01*
X122444015Y-51008111D01*
X122506295Y-51039779D01*
X122541568Y-51100092D01*
X122538634Y-51169900D01*
X122498425Y-51227040D01*
X122444015Y-51251888D01*
X122300944Y-51278633D01*
X122192241Y-51320745D01*
X122100328Y-51356352D01*
X122100327Y-51356352D01*
X121917402Y-51469614D01*
X121758414Y-51614550D01*
X121758407Y-51614558D01*
X121628760Y-51786239D01*
X121628751Y-51786253D01*
X121532860Y-51978827D01*
X121532855Y-51978840D01*
X121473977Y-52185771D01*
X121454127Y-52399999D01*
X121454127Y-52400000D01*
X121473977Y-52614228D01*
X121532855Y-52821159D01*
X121532860Y-52821172D01*
X121628751Y-53013746D01*
X121628753Y-53013749D01*
X121628755Y-53013753D01*
X121758409Y-53185444D01*
X121758412Y-53185446D01*
X121758414Y-53185449D01*
X121917402Y-53330385D01*
X121917404Y-53330386D01*
X121917405Y-53330387D01*
X122100326Y-53443647D01*
X122300944Y-53521367D01*
X122444015Y-53548111D01*
X122506295Y-53579779D01*
X122541568Y-53640092D01*
X122538634Y-53709900D01*
X122498425Y-53767040D01*
X122444015Y-53791888D01*
X122300944Y-53818633D01*
X122174075Y-53867782D01*
X122100328Y-53896352D01*
X122100327Y-53896352D01*
X121917402Y-54009614D01*
X121758414Y-54154550D01*
X121758407Y-54154558D01*
X121628760Y-54326239D01*
X121628751Y-54326253D01*
X121532860Y-54518827D01*
X121532855Y-54518840D01*
X121473977Y-54725771D01*
X121454127Y-54939999D01*
X121454127Y-54940000D01*
X121473977Y-55154228D01*
X121532855Y-55361159D01*
X121532860Y-55361172D01*
X121628751Y-55553746D01*
X121628753Y-55553749D01*
X121628755Y-55553753D01*
X121758409Y-55725444D01*
X121758412Y-55725446D01*
X121758414Y-55725449D01*
X121917402Y-55870385D01*
X121917404Y-55870386D01*
X121917405Y-55870387D01*
X122100326Y-55983647D01*
X122300944Y-56061367D01*
X122444015Y-56088111D01*
X122506295Y-56119779D01*
X122541568Y-56180092D01*
X122538634Y-56249900D01*
X122498425Y-56307040D01*
X122444015Y-56331888D01*
X122300944Y-56358633D01*
X122174075Y-56407782D01*
X122100328Y-56436352D01*
X122100327Y-56436352D01*
X121917402Y-56549614D01*
X121758414Y-56694550D01*
X121758407Y-56694558D01*
X121628760Y-56866239D01*
X121628751Y-56866253D01*
X121532860Y-57058827D01*
X121532855Y-57058840D01*
X121473977Y-57265771D01*
X121454127Y-57479999D01*
X121454127Y-57480000D01*
X121473977Y-57694228D01*
X121532855Y-57901159D01*
X121532860Y-57901172D01*
X121628751Y-58093746D01*
X121628753Y-58093749D01*
X121628755Y-58093753D01*
X121758409Y-58265444D01*
X121758412Y-58265446D01*
X121758414Y-58265449D01*
X121917402Y-58410385D01*
X121917404Y-58410386D01*
X121917405Y-58410387D01*
X122100326Y-58523647D01*
X122300944Y-58601367D01*
X122445375Y-58628365D01*
X122507655Y-58660033D01*
X122542928Y-58720346D01*
X122539994Y-58790154D01*
X122499785Y-58847294D01*
X122445374Y-58872143D01*
X122301083Y-58899116D01*
X122301082Y-58899116D01*
X122100552Y-58976801D01*
X121995437Y-59041884D01*
X122567154Y-59613600D01*
X122566496Y-59613600D01*
X122463135Y-59641295D01*
X122370464Y-59694799D01*
X122294799Y-59770464D01*
X122241295Y-59863135D01*
X122213600Y-59966496D01*
X122213600Y-59967153D01*
X121639411Y-59392964D01*
X121629179Y-59406515D01*
X121533325Y-59599015D01*
X121474471Y-59805868D01*
X121454629Y-60020000D01*
X121474471Y-60234131D01*
X121533325Y-60440984D01*
X121629182Y-60633489D01*
X121639410Y-60647034D01*
X121639411Y-60647035D01*
X122213600Y-60072846D01*
X122213600Y-60073504D01*
X122241295Y-60176865D01*
X122294799Y-60269536D01*
X122370464Y-60345201D01*
X122463135Y-60398705D01*
X122566496Y-60426400D01*
X122567153Y-60426400D01*
X121995437Y-60998114D01*
X122100551Y-61063197D01*
X122301083Y-61140883D01*
X122512475Y-61180400D01*
X122727525Y-61180400D01*
X122938916Y-61140883D01*
X122938926Y-61140880D01*
X123139450Y-61063197D01*
X123139452Y-61063196D01*
X123244561Y-60998114D01*
X122672848Y-60426400D01*
X122673504Y-60426400D01*
X122776865Y-60398705D01*
X122869536Y-60345201D01*
X122945201Y-60269536D01*
X122998705Y-60176865D01*
X123026400Y-60073504D01*
X123026400Y-60072847D01*
X123600588Y-60647035D01*
X123610816Y-60633491D01*
X123706674Y-60440984D01*
X123765528Y-60234131D01*
X123785370Y-60020000D01*
X123765528Y-59805868D01*
X123706674Y-59599015D01*
X123610821Y-59406517D01*
X123610813Y-59406504D01*
X123600587Y-59392963D01*
X123026400Y-59967151D01*
X123026400Y-59966496D01*
X122998705Y-59863135D01*
X122945201Y-59770464D01*
X122869536Y-59694799D01*
X122776865Y-59641295D01*
X122673504Y-59613600D01*
X122672847Y-59613600D01*
X123244561Y-59041884D01*
X123244560Y-59041883D01*
X123139454Y-58976804D01*
X123139448Y-58976802D01*
X122938916Y-58899116D01*
X122794625Y-58872143D01*
X122732344Y-58840475D01*
X122697071Y-58780162D01*
X122700005Y-58710354D01*
X122740214Y-58653214D01*
X122794621Y-58628366D01*
X122939056Y-58601367D01*
X123139674Y-58523647D01*
X123322595Y-58410387D01*
X123481591Y-58265444D01*
X123611245Y-58093753D01*
X123707144Y-57901162D01*
X123766022Y-57694229D01*
X123785873Y-57480000D01*
X123766022Y-57265771D01*
X123707144Y-57058838D01*
X123678972Y-57002262D01*
X123611248Y-56866253D01*
X123611247Y-56866252D01*
X123611245Y-56866247D01*
X123481591Y-56694556D01*
X123481587Y-56694552D01*
X123481585Y-56694550D01*
X123322597Y-56549614D01*
X123242467Y-56500000D01*
X123139674Y-56436353D01*
X122939056Y-56358633D01*
X122795983Y-56331888D01*
X122733704Y-56300221D01*
X122698431Y-56239908D01*
X122701365Y-56170100D01*
X122741574Y-56112960D01*
X122795982Y-56088111D01*
X122939056Y-56061367D01*
X123139674Y-55983647D01*
X123322595Y-55870387D01*
X123481591Y-55725444D01*
X123611245Y-55553753D01*
X123707144Y-55361162D01*
X123766022Y-55154229D01*
X123785873Y-54940000D01*
X123766022Y-54725771D01*
X123707144Y-54518838D01*
X123697765Y-54500003D01*
X123611248Y-54326253D01*
X123611247Y-54326252D01*
X123611245Y-54326247D01*
X123481591Y-54154556D01*
X123481587Y-54154552D01*
X123481585Y-54154550D01*
X123322597Y-54009614D01*
X123256069Y-53968422D01*
X123139674Y-53896353D01*
X122939056Y-53818633D01*
X122795983Y-53791888D01*
X122733704Y-53760221D01*
X122698431Y-53699908D01*
X122701365Y-53630100D01*
X122741574Y-53572960D01*
X122795982Y-53548111D01*
X122939056Y-53521367D01*
X123139674Y-53443647D01*
X123322595Y-53330387D01*
X123481591Y-53185444D01*
X123611245Y-53013753D01*
X123707144Y-52821162D01*
X123766022Y-52614229D01*
X123785873Y-52400000D01*
X123779532Y-52331574D01*
X123766022Y-52185771D01*
X123713163Y-51999994D01*
X128144529Y-51999994D01*
X128144529Y-52000005D01*
X128164379Y-52239559D01*
X128223389Y-52472589D01*
X128319951Y-52692729D01*
X128403868Y-52821172D01*
X128451429Y-52893969D01*
X128614236Y-53070825D01*
X128614239Y-53070827D01*
X128614242Y-53070830D01*
X128803924Y-53218466D01*
X128803930Y-53218470D01*
X128803933Y-53218472D01*
X129015344Y-53332882D01*
X129015347Y-53332883D01*
X129242699Y-53410933D01*
X129242701Y-53410933D01*
X129242703Y-53410934D01*
X129479808Y-53450500D01*
X129479809Y-53450500D01*
X129720191Y-53450500D01*
X129720192Y-53450500D01*
X129957297Y-53410934D01*
X130184656Y-53332882D01*
X130396067Y-53218472D01*
X130396611Y-53218049D01*
X130459768Y-53168891D01*
X130585764Y-53070825D01*
X130748571Y-52893969D01*
X130880049Y-52692728D01*
X130976610Y-52472591D01*
X131035620Y-52239563D01*
X131049758Y-52068944D01*
X131055471Y-52000005D01*
X131055471Y-51999994D01*
X132345031Y-51999994D01*
X132345031Y-52000005D01*
X132364874Y-52239476D01*
X132423865Y-52472428D01*
X132520391Y-52692485D01*
X132612688Y-52833757D01*
X133160689Y-52285755D01*
X133179668Y-52331574D01*
X133256274Y-52446224D01*
X133353776Y-52543726D01*
X133468426Y-52620332D01*
X133514242Y-52639309D01*
X132965572Y-53187979D01*
X133004208Y-53218051D01*
X133215544Y-53332421D01*
X133215550Y-53332423D01*
X133442823Y-53410446D01*
X133679851Y-53450000D01*
X133920149Y-53450000D01*
X134157176Y-53410446D01*
X134384449Y-53332423D01*
X134384455Y-53332421D01*
X134595794Y-53218049D01*
X134595795Y-53218048D01*
X134634426Y-53187980D01*
X134634427Y-53187979D01*
X134085757Y-52639309D01*
X134131574Y-52620332D01*
X134246224Y-52543726D01*
X134343726Y-52446224D01*
X134420332Y-52331574D01*
X134439309Y-52285756D01*
X134987310Y-52833757D01*
X135079606Y-52692490D01*
X135176134Y-52472428D01*
X135235125Y-52239476D01*
X135254969Y-52000005D01*
X135254969Y-51999994D01*
X135235125Y-51760523D01*
X135176134Y-51527571D01*
X135079608Y-51307514D01*
X134987310Y-51166241D01*
X134439309Y-51714242D01*
X134420332Y-51668426D01*
X134343726Y-51553776D01*
X134246224Y-51456274D01*
X134131574Y-51379668D01*
X134085755Y-51360689D01*
X134444310Y-51002135D01*
X136549500Y-51002135D01*
X136549500Y-52997870D01*
X136549501Y-52997876D01*
X136555908Y-53057483D01*
X136606202Y-53192328D01*
X136606206Y-53192335D01*
X136692452Y-53307544D01*
X136692455Y-53307547D01*
X136807664Y-53393793D01*
X136807671Y-53393797D01*
X136852310Y-53410446D01*
X136942517Y-53444091D01*
X137002127Y-53450500D01*
X137275501Y-53450499D01*
X137342539Y-53470183D01*
X137388294Y-53522987D01*
X137399500Y-53574499D01*
X137399500Y-55917587D01*
X137379815Y-55984626D01*
X137372450Y-55994896D01*
X137370186Y-55997734D01*
X137274211Y-56150476D01*
X137214631Y-56320745D01*
X137214630Y-56320750D01*
X137194435Y-56499996D01*
X137194435Y-56500003D01*
X137214630Y-56679249D01*
X137214631Y-56679254D01*
X137274211Y-56849523D01*
X137370184Y-57002262D01*
X137497738Y-57129816D01*
X137650478Y-57225789D01*
X137764740Y-57265771D01*
X137820745Y-57285368D01*
X137820750Y-57285369D01*
X137999996Y-57305565D01*
X138000000Y-57305565D01*
X138000004Y-57305565D01*
X138179249Y-57285369D01*
X138179252Y-57285368D01*
X138179255Y-57285368D01*
X138349522Y-57225789D01*
X138502262Y-57129816D01*
X138629816Y-57002262D01*
X138725789Y-56849522D01*
X138785368Y-56679255D01*
X138805565Y-56500000D01*
X138785368Y-56320745D01*
X138725789Y-56150478D01*
X138629816Y-55997738D01*
X138629814Y-55997736D01*
X138629813Y-55997734D01*
X138627550Y-55994896D01*
X138626659Y-55992715D01*
X138626111Y-55991842D01*
X138626264Y-55991745D01*
X138601144Y-55930209D01*
X138600500Y-55917587D01*
X138600500Y-53574499D01*
X138620185Y-53507460D01*
X138672989Y-53461705D01*
X138724500Y-53450499D01*
X138997871Y-53450499D01*
X138997872Y-53450499D01*
X139057483Y-53444091D01*
X139192331Y-53393796D01*
X139307546Y-53307546D01*
X139393796Y-53192331D01*
X139444091Y-53057483D01*
X139450500Y-52997873D01*
X139450499Y-51002128D01*
X139444091Y-50942517D01*
X139429593Y-50903647D01*
X139393797Y-50807671D01*
X139393793Y-50807664D01*
X139307547Y-50692455D01*
X139307544Y-50692452D01*
X139192335Y-50606206D01*
X139192328Y-50606202D01*
X139057482Y-50555908D01*
X139057483Y-50555908D01*
X138997883Y-50549501D01*
X138997881Y-50549500D01*
X138997873Y-50549500D01*
X138997864Y-50549500D01*
X137002129Y-50549500D01*
X137002123Y-50549501D01*
X136942516Y-50555908D01*
X136807671Y-50606202D01*
X136807664Y-50606206D01*
X136692455Y-50692452D01*
X136692452Y-50692455D01*
X136606206Y-50807664D01*
X136606202Y-50807671D01*
X136555908Y-50942517D01*
X136551732Y-50981366D01*
X136549501Y-51002123D01*
X136549500Y-51002135D01*
X134444310Y-51002135D01*
X134634426Y-50812019D01*
X134634426Y-50812017D01*
X134595801Y-50781954D01*
X134595795Y-50781950D01*
X134384455Y-50667578D01*
X134384449Y-50667576D01*
X134157176Y-50589553D01*
X133920149Y-50550000D01*
X133679851Y-50550000D01*
X133442823Y-50589553D01*
X133215550Y-50667576D01*
X133215544Y-50667578D01*
X133004209Y-50781948D01*
X132965571Y-50812019D01*
X133514242Y-51360690D01*
X133468426Y-51379668D01*
X133353776Y-51456274D01*
X133256274Y-51553776D01*
X133179668Y-51668426D01*
X133160689Y-51714243D01*
X132612687Y-51166241D01*
X132520392Y-51307511D01*
X132423865Y-51527571D01*
X132364874Y-51760523D01*
X132345031Y-51999994D01*
X131055471Y-51999994D01*
X131038940Y-51800499D01*
X131035620Y-51760437D01*
X130976610Y-51527409D01*
X130880049Y-51307272D01*
X130748571Y-51106031D01*
X130585764Y-50929175D01*
X130585759Y-50929171D01*
X130585757Y-50929169D01*
X130396075Y-50781533D01*
X130396069Y-50781529D01*
X130184657Y-50667118D01*
X130184652Y-50667116D01*
X129957300Y-50589066D01*
X129758593Y-50555908D01*
X129720192Y-50549500D01*
X129479808Y-50549500D01*
X129441407Y-50555908D01*
X129242699Y-50589066D01*
X129015347Y-50667116D01*
X129015342Y-50667118D01*
X128803930Y-50781529D01*
X128803924Y-50781533D01*
X128614242Y-50929169D01*
X128614239Y-50929172D01*
X128451430Y-51106029D01*
X128451427Y-51106033D01*
X128319951Y-51307270D01*
X128223389Y-51527410D01*
X128164379Y-51760440D01*
X128144529Y-51999994D01*
X123713163Y-51999994D01*
X123707144Y-51978838D01*
X123683351Y-51931056D01*
X123611248Y-51786253D01*
X123611247Y-51786252D01*
X123611245Y-51786247D01*
X123481591Y-51614556D01*
X123481587Y-51614552D01*
X123481585Y-51614550D01*
X123322597Y-51469614D01*
X123282811Y-51444979D01*
X123139674Y-51356353D01*
X122939056Y-51278633D01*
X122795983Y-51251888D01*
X122733704Y-51220221D01*
X122698431Y-51159908D01*
X122701365Y-51090100D01*
X122741574Y-51032960D01*
X122795982Y-51008111D01*
X122939056Y-50981367D01*
X123139674Y-50903647D01*
X123322595Y-50790387D01*
X123481591Y-50645444D01*
X123611245Y-50473753D01*
X123707144Y-50281162D01*
X123766022Y-50074229D01*
X123785873Y-49860000D01*
X123779738Y-49793797D01*
X123766022Y-49645771D01*
X123750816Y-49592328D01*
X123707144Y-49438838D01*
X123686747Y-49397876D01*
X123611248Y-49246253D01*
X123611247Y-49246252D01*
X123611245Y-49246247D01*
X123481591Y-49074556D01*
X123481587Y-49074552D01*
X123481585Y-49074550D01*
X123322597Y-48929614D01*
X123282811Y-48904979D01*
X123139674Y-48816353D01*
X122939056Y-48738633D01*
X122795983Y-48711888D01*
X122733704Y-48680221D01*
X122698431Y-48619908D01*
X122701365Y-48550100D01*
X122741574Y-48492960D01*
X122795982Y-48468111D01*
X122939056Y-48441367D01*
X123139674Y-48363647D01*
X123322595Y-48250387D01*
X123481591Y-48105444D01*
X123611245Y-47933753D01*
X123707144Y-47741162D01*
X123766022Y-47534229D01*
X123785873Y-47320000D01*
X123766022Y-47105771D01*
X123707144Y-46898838D01*
X123627834Y-46739563D01*
X123611248Y-46706253D01*
X123611247Y-46706252D01*
X123611245Y-46706247D01*
X123481591Y-46534556D01*
X123481587Y-46534552D01*
X123481585Y-46534550D01*
X123443679Y-46499994D01*
X128144529Y-46499994D01*
X128144529Y-46500005D01*
X128164379Y-46739559D01*
X128223389Y-46972589D01*
X128319951Y-47192729D01*
X128403102Y-47320000D01*
X128451429Y-47393969D01*
X128614236Y-47570825D01*
X128614239Y-47570827D01*
X128614242Y-47570830D01*
X128803924Y-47718466D01*
X128803930Y-47718470D01*
X128803933Y-47718472D01*
X129015344Y-47832882D01*
X129015347Y-47832883D01*
X129242699Y-47910933D01*
X129242701Y-47910933D01*
X129242703Y-47910934D01*
X129479808Y-47950500D01*
X129479809Y-47950500D01*
X129720191Y-47950500D01*
X129720192Y-47950500D01*
X129957297Y-47910934D01*
X130184656Y-47832882D01*
X130396067Y-47718472D01*
X130585764Y-47570825D01*
X130748571Y-47393969D01*
X130880049Y-47192728D01*
X130976610Y-46972591D01*
X131035620Y-46739563D01*
X131044442Y-46633090D01*
X131055471Y-46500005D01*
X131055471Y-46499994D01*
X132344529Y-46499994D01*
X132344529Y-46500005D01*
X132364379Y-46739559D01*
X132423389Y-46972589D01*
X132519951Y-47192729D01*
X132603102Y-47320000D01*
X132651429Y-47393969D01*
X132814236Y-47570825D01*
X132814239Y-47570827D01*
X132814242Y-47570830D01*
X133003924Y-47718466D01*
X133003930Y-47718470D01*
X133003933Y-47718472D01*
X133215344Y-47832882D01*
X133215347Y-47832883D01*
X133442699Y-47910933D01*
X133442701Y-47910933D01*
X133442703Y-47910934D01*
X133679808Y-47950500D01*
X133679809Y-47950500D01*
X133920191Y-47950500D01*
X133920192Y-47950500D01*
X134157297Y-47910934D01*
X134384656Y-47832882D01*
X134596067Y-47718472D01*
X134785764Y-47570825D01*
X134948571Y-47393969D01*
X135080049Y-47192728D01*
X135176610Y-46972591D01*
X135235620Y-46739563D01*
X135244442Y-46633090D01*
X135255471Y-46500005D01*
X135255471Y-46499994D01*
X136544529Y-46499994D01*
X136544529Y-46500005D01*
X136564379Y-46739559D01*
X136623389Y-46972589D01*
X136719951Y-47192729D01*
X136803102Y-47320000D01*
X136851429Y-47393969D01*
X137014236Y-47570825D01*
X137014239Y-47570827D01*
X137014242Y-47570830D01*
X137203924Y-47718466D01*
X137203930Y-47718470D01*
X137203933Y-47718472D01*
X137415344Y-47832882D01*
X137415347Y-47832883D01*
X137642699Y-47910933D01*
X137642701Y-47910933D01*
X137642703Y-47910934D01*
X137879808Y-47950500D01*
X137879809Y-47950500D01*
X138120191Y-47950500D01*
X138120192Y-47950500D01*
X138357297Y-47910934D01*
X138584656Y-47832882D01*
X138796067Y-47718472D01*
X138985764Y-47570825D01*
X139148571Y-47393969D01*
X139280049Y-47192728D01*
X139376610Y-46972591D01*
X139435620Y-46739563D01*
X139444442Y-46633090D01*
X139455471Y-46500005D01*
X139455471Y-46499994D01*
X139435620Y-46260440D01*
X139435620Y-46260437D01*
X139376610Y-46027409D01*
X139280049Y-45807272D01*
X139148571Y-45606031D01*
X138985764Y-45429175D01*
X138985759Y-45429171D01*
X138985757Y-45429169D01*
X138796075Y-45281533D01*
X138796060Y-45281523D01*
X138665482Y-45210857D01*
X138615891Y-45161638D01*
X138600500Y-45101803D01*
X138600500Y-42082412D01*
X138620185Y-42015373D01*
X138627555Y-42005097D01*
X138629810Y-42002267D01*
X138629816Y-42002262D01*
X138725789Y-41849522D01*
X138785368Y-41679255D01*
X138785369Y-41679249D01*
X138805565Y-41500003D01*
X138805565Y-41499996D01*
X138785369Y-41320750D01*
X138785368Y-41320745D01*
X138741841Y-41196352D01*
X138725789Y-41150478D01*
X138705779Y-41118633D01*
X138669077Y-41060221D01*
X138629816Y-40997738D01*
X138502262Y-40870184D01*
X138467133Y-40848111D01*
X138349523Y-40774211D01*
X138179254Y-40714631D01*
X138179249Y-40714630D01*
X138000004Y-40694435D01*
X137999996Y-40694435D01*
X137820750Y-40714630D01*
X137820745Y-40714631D01*
X137650476Y-40774211D01*
X137497737Y-40870184D01*
X137370184Y-40997737D01*
X137274211Y-41150476D01*
X137214631Y-41320745D01*
X137214630Y-41320750D01*
X137194435Y-41499996D01*
X137194435Y-41500003D01*
X137214630Y-41679249D01*
X137214631Y-41679254D01*
X137274211Y-41849523D01*
X137306611Y-41901086D01*
X137367341Y-41997738D01*
X137370185Y-42002263D01*
X137372445Y-42005097D01*
X137373334Y-42007275D01*
X137373889Y-42008158D01*
X137373734Y-42008255D01*
X137398855Y-42069783D01*
X137399500Y-42082412D01*
X137399500Y-45101803D01*
X137379815Y-45168842D01*
X137334518Y-45210857D01*
X137203939Y-45281523D01*
X137203924Y-45281533D01*
X137014242Y-45429169D01*
X137014239Y-45429172D01*
X136851430Y-45606029D01*
X136851427Y-45606033D01*
X136719951Y-45807270D01*
X136623389Y-46027410D01*
X136564379Y-46260440D01*
X136544529Y-46499994D01*
X135255471Y-46499994D01*
X135235620Y-46260440D01*
X135235620Y-46260437D01*
X135176610Y-46027409D01*
X135080049Y-45807272D01*
X134948571Y-45606031D01*
X134785764Y-45429175D01*
X134785759Y-45429171D01*
X134785757Y-45429169D01*
X134596075Y-45281533D01*
X134596069Y-45281529D01*
X134384657Y-45167118D01*
X134384652Y-45167116D01*
X134157300Y-45089066D01*
X133979468Y-45059391D01*
X133920192Y-45049500D01*
X133679808Y-45049500D01*
X133632387Y-45057413D01*
X133442699Y-45089066D01*
X133215347Y-45167116D01*
X133215342Y-45167118D01*
X133003930Y-45281529D01*
X133003924Y-45281533D01*
X132814242Y-45429169D01*
X132814239Y-45429172D01*
X132651430Y-45606029D01*
X132651427Y-45606033D01*
X132519951Y-45807270D01*
X132423389Y-46027410D01*
X132364379Y-46260440D01*
X132344529Y-46499994D01*
X131055471Y-46499994D01*
X131035620Y-46260440D01*
X131035620Y-46260437D01*
X130976610Y-46027409D01*
X130880049Y-45807272D01*
X130748571Y-45606031D01*
X130585764Y-45429175D01*
X130585759Y-45429171D01*
X130585757Y-45429169D01*
X130396075Y-45281533D01*
X130396069Y-45281529D01*
X130184657Y-45167118D01*
X130184652Y-45167116D01*
X129957300Y-45089066D01*
X129779468Y-45059391D01*
X129720192Y-45049500D01*
X129479808Y-45049500D01*
X129432387Y-45057413D01*
X129242699Y-45089066D01*
X129015347Y-45167116D01*
X129015342Y-45167118D01*
X128803930Y-45281529D01*
X128803924Y-45281533D01*
X128614242Y-45429169D01*
X128614239Y-45429172D01*
X128451430Y-45606029D01*
X128451427Y-45606033D01*
X128319951Y-45807270D01*
X128223389Y-46027410D01*
X128164379Y-46260440D01*
X128144529Y-46499994D01*
X123443679Y-46499994D01*
X123322597Y-46389614D01*
X123282811Y-46364979D01*
X123139674Y-46276353D01*
X122939056Y-46198633D01*
X122794623Y-46171633D01*
X122732344Y-46139965D01*
X122697071Y-46079653D01*
X122700005Y-46009845D01*
X122740214Y-45952705D01*
X122794626Y-45927856D01*
X122938915Y-45900884D01*
X122938926Y-45900880D01*
X123139450Y-45823197D01*
X123139452Y-45823196D01*
X123244561Y-45758114D01*
X122672848Y-45186400D01*
X122673504Y-45186400D01*
X122776865Y-45158705D01*
X122869536Y-45105201D01*
X122945201Y-45029536D01*
X122998705Y-44936865D01*
X123026400Y-44833504D01*
X123026400Y-44832847D01*
X123600588Y-45407035D01*
X123610816Y-45393491D01*
X123706674Y-45200984D01*
X123765528Y-44994131D01*
X123785370Y-44780000D01*
X123765528Y-44565868D01*
X123706674Y-44359015D01*
X123610821Y-44166517D01*
X123610813Y-44166504D01*
X123600587Y-44152963D01*
X123026400Y-44727151D01*
X123026400Y-44726496D01*
X122998705Y-44623135D01*
X122945201Y-44530464D01*
X122869536Y-44454799D01*
X122776865Y-44401295D01*
X122673504Y-44373600D01*
X122672847Y-44373600D01*
X123244561Y-43801884D01*
X123244560Y-43801883D01*
X123139454Y-43736804D01*
X123139448Y-43736802D01*
X122938916Y-43659116D01*
X122794625Y-43632143D01*
X122732344Y-43600475D01*
X122697071Y-43540162D01*
X122700005Y-43470354D01*
X122740214Y-43413214D01*
X122794621Y-43388366D01*
X122939056Y-43361367D01*
X123139674Y-43283647D01*
X123322595Y-43170387D01*
X123481591Y-43025444D01*
X123611245Y-42853753D01*
X123707144Y-42661162D01*
X123766022Y-42454229D01*
X123785873Y-42240000D01*
X123777577Y-42150476D01*
X123766022Y-42025771D01*
X123758046Y-41997738D01*
X123707144Y-41818838D01*
X123690478Y-41785369D01*
X123611248Y-41626253D01*
X123611247Y-41626252D01*
X123611245Y-41626247D01*
X123481591Y-41454556D01*
X123481587Y-41454552D01*
X123481585Y-41454550D01*
X123322597Y-41309614D01*
X123282811Y-41284979D01*
X123139674Y-41196353D01*
X122939056Y-41118633D01*
X122795983Y-41091888D01*
X122733704Y-41060221D01*
X122698431Y-40999908D01*
X122701365Y-40930100D01*
X122741574Y-40872960D01*
X122795982Y-40848111D01*
X122939056Y-40821367D01*
X123139674Y-40743647D01*
X123322595Y-40630387D01*
X123481591Y-40485444D01*
X123611245Y-40313753D01*
X123707144Y-40121162D01*
X123766022Y-39914229D01*
X123785873Y-39700000D01*
X123775896Y-39592335D01*
X123766022Y-39485771D01*
X123756265Y-39451478D01*
X123707144Y-39278838D01*
X123611245Y-39086247D01*
X123481591Y-38914556D01*
X123481587Y-38914552D01*
X123481585Y-38914550D01*
X123322597Y-38769614D01*
X123251815Y-38725788D01*
X123139674Y-38656353D01*
X122939056Y-38578633D01*
X122795983Y-38551888D01*
X122733704Y-38520221D01*
X122698431Y-38459908D01*
X122701365Y-38390100D01*
X122741574Y-38332960D01*
X122795982Y-38308111D01*
X122939056Y-38281367D01*
X123139674Y-38203647D01*
X123322595Y-38090387D01*
X123481591Y-37945444D01*
X123611245Y-37773753D01*
X123707144Y-37581162D01*
X123766022Y-37374229D01*
X123785873Y-37160000D01*
X123774753Y-37040000D01*
X123766022Y-36945771D01*
X123738637Y-36849523D01*
X123707144Y-36738838D01*
X123677806Y-36679920D01*
X123611248Y-36546253D01*
X123611247Y-36546252D01*
X123611245Y-36546247D01*
X123576318Y-36499996D01*
X124194435Y-36499996D01*
X124194435Y-36500000D01*
X124214630Y-36679249D01*
X124214631Y-36679254D01*
X124274211Y-36849523D01*
X124334515Y-36945496D01*
X124368763Y-37000001D01*
X124370185Y-37002263D01*
X124372445Y-37005097D01*
X124373334Y-37007275D01*
X124373889Y-37008158D01*
X124373734Y-37008255D01*
X124398855Y-37069783D01*
X124399500Y-37082412D01*
X124399500Y-37417587D01*
X124379815Y-37484626D01*
X124372450Y-37494896D01*
X124370186Y-37497734D01*
X124274211Y-37650476D01*
X124214631Y-37820745D01*
X124214630Y-37820750D01*
X124194435Y-37999996D01*
X124194435Y-38000003D01*
X124214630Y-38179249D01*
X124214631Y-38179254D01*
X124274211Y-38349523D01*
X124368760Y-38499996D01*
X124370184Y-38502262D01*
X124497738Y-38629816D01*
X124650478Y-38725789D01*
X124775720Y-38769613D01*
X124820745Y-38785368D01*
X124820750Y-38785369D01*
X124999996Y-38805565D01*
X125000000Y-38805565D01*
X125000004Y-38805565D01*
X125179249Y-38785369D01*
X125179252Y-38785368D01*
X125179255Y-38785368D01*
X125349522Y-38725789D01*
X125502262Y-38629816D01*
X125629816Y-38502262D01*
X125725789Y-38349522D01*
X125785368Y-38179255D01*
X125785369Y-38179249D01*
X125805565Y-38000003D01*
X125805565Y-37999996D01*
X125785369Y-37820750D01*
X125785368Y-37820745D01*
X125755370Y-37735017D01*
X125725789Y-37650478D01*
X125720745Y-37642451D01*
X125682233Y-37581159D01*
X125629816Y-37497738D01*
X125629814Y-37497736D01*
X125629813Y-37497734D01*
X125627550Y-37494896D01*
X125626659Y-37492715D01*
X125626111Y-37491842D01*
X125626264Y-37491745D01*
X125601144Y-37430209D01*
X125600500Y-37417587D01*
X125600500Y-37082412D01*
X125620185Y-37015373D01*
X125627555Y-37005097D01*
X125629810Y-37002267D01*
X125629816Y-37002262D01*
X125725789Y-36849522D01*
X125785368Y-36679255D01*
X125785470Y-36678355D01*
X125805565Y-36500000D01*
X125805565Y-36499996D01*
X125785369Y-36320750D01*
X125785368Y-36320745D01*
X125769195Y-36274526D01*
X125725789Y-36150478D01*
X125629816Y-35997738D01*
X125502262Y-35870184D01*
X125406321Y-35809900D01*
X125349523Y-35774211D01*
X125179254Y-35714631D01*
X125179249Y-35714630D01*
X125000004Y-35694435D01*
X124999996Y-35694435D01*
X124820750Y-35714630D01*
X124820745Y-35714631D01*
X124650476Y-35774211D01*
X124497737Y-35870184D01*
X124370184Y-35997737D01*
X124274211Y-36150476D01*
X124214631Y-36320745D01*
X124214630Y-36320750D01*
X124194435Y-36499996D01*
X123576318Y-36499996D01*
X123481591Y-36374556D01*
X123481587Y-36374552D01*
X123481585Y-36374550D01*
X123322597Y-36229614D01*
X123282811Y-36204979D01*
X123139674Y-36116353D01*
X122939056Y-36038633D01*
X122795983Y-36011888D01*
X122733704Y-35980221D01*
X122698431Y-35919908D01*
X122701365Y-35850100D01*
X122741574Y-35792960D01*
X122795982Y-35768111D01*
X122939056Y-35741367D01*
X123139674Y-35663647D01*
X123322595Y-35550387D01*
X123481591Y-35405444D01*
X123611245Y-35233753D01*
X123707144Y-35041162D01*
X123766022Y-34834229D01*
X123785873Y-34620000D01*
X123774753Y-34500000D01*
X123766022Y-34405771D01*
X123745411Y-34333331D01*
X123707144Y-34198838D01*
X123685053Y-34154474D01*
X123611248Y-34006253D01*
X123611247Y-34006252D01*
X123611245Y-34006247D01*
X123481591Y-33834556D01*
X123481586Y-33834551D01*
X123481585Y-33834550D01*
X123322597Y-33689614D01*
X123282811Y-33664979D01*
X123139674Y-33576353D01*
X122939056Y-33498633D01*
X122795983Y-33471888D01*
X122733704Y-33440221D01*
X122698431Y-33379908D01*
X122701365Y-33310100D01*
X122741574Y-33252960D01*
X122795982Y-33228111D01*
X122939056Y-33201367D01*
X123139674Y-33123647D01*
X123322595Y-33010387D01*
X123481591Y-32865444D01*
X123611245Y-32693753D01*
X123707144Y-32501162D01*
X123766022Y-32294229D01*
X123785873Y-32080000D01*
X123777912Y-31994091D01*
X123766022Y-31865771D01*
X123753073Y-31820261D01*
X123707144Y-31658838D01*
X123681572Y-31607483D01*
X123611248Y-31466253D01*
X123611247Y-31466252D01*
X123611245Y-31466247D01*
X123481591Y-31294556D01*
X123481587Y-31294552D01*
X123481585Y-31294550D01*
X123322597Y-31149614D01*
X123282811Y-31124979D01*
X123139674Y-31036353D01*
X122939056Y-30958633D01*
X122795983Y-30931888D01*
X122733704Y-30900221D01*
X122698431Y-30839908D01*
X122701365Y-30770100D01*
X122741574Y-30712960D01*
X122795982Y-30688111D01*
X122939056Y-30661367D01*
X123139674Y-30583647D01*
X123322595Y-30470387D01*
X123481591Y-30325444D01*
X123611245Y-30153753D01*
X123707144Y-29961162D01*
X123766022Y-29754229D01*
X123785873Y-29540000D01*
X123777731Y-29452135D01*
X128499500Y-29452135D01*
X128499500Y-31547870D01*
X128499501Y-31547876D01*
X128505908Y-31607483D01*
X128556202Y-31742328D01*
X128556206Y-31742335D01*
X128642452Y-31857544D01*
X128642455Y-31857547D01*
X128757664Y-31943793D01*
X128757671Y-31943797D01*
X128892517Y-31994091D01*
X128892516Y-31994091D01*
X128899444Y-31994835D01*
X128952127Y-32000500D01*
X131047872Y-32000499D01*
X131107483Y-31994091D01*
X131242331Y-31943796D01*
X131357546Y-31857546D01*
X131443796Y-31742331D01*
X131494091Y-31607483D01*
X131500500Y-31547873D01*
X131500499Y-30499994D01*
X133494859Y-30499994D01*
X133494859Y-30500005D01*
X133515385Y-30747729D01*
X133515387Y-30747738D01*
X133576412Y-30988717D01*
X133676267Y-31216367D01*
X133776562Y-31369881D01*
X134517037Y-30629408D01*
X134534075Y-30692993D01*
X134599901Y-30807007D01*
X134692993Y-30900099D01*
X134807007Y-30965925D01*
X134870591Y-30982962D01*
X134129943Y-31723609D01*
X134176768Y-31760055D01*
X134176771Y-31760057D01*
X134395385Y-31878364D01*
X134395396Y-31878369D01*
X134630506Y-31959083D01*
X134875707Y-32000000D01*
X135124293Y-32000000D01*
X135369493Y-31959083D01*
X135604603Y-31878369D01*
X135604614Y-31878364D01*
X135823230Y-31760056D01*
X135823236Y-31760051D01*
X135870055Y-31723610D01*
X135870056Y-31723609D01*
X135129408Y-30982962D01*
X135192993Y-30965925D01*
X135307007Y-30900099D01*
X135400099Y-30807007D01*
X135465925Y-30692993D01*
X135482962Y-30629409D01*
X136223435Y-31369882D01*
X136323733Y-31216364D01*
X136423587Y-30988717D01*
X136484612Y-30747738D01*
X136484614Y-30747729D01*
X136505141Y-30500005D01*
X136505141Y-30499994D01*
X136484614Y-30252270D01*
X136484612Y-30252261D01*
X136423587Y-30011282D01*
X136323732Y-29783632D01*
X136223435Y-29630116D01*
X135482962Y-30370590D01*
X135465925Y-30307007D01*
X135400099Y-30192993D01*
X135307007Y-30099901D01*
X135192993Y-30034075D01*
X135129409Y-30017037D01*
X135870055Y-29276389D01*
X135870055Y-29276388D01*
X135823236Y-29239947D01*
X135823231Y-29239944D01*
X135604614Y-29121635D01*
X135604603Y-29121630D01*
X135369493Y-29040916D01*
X135124293Y-29000000D01*
X134875707Y-29000000D01*
X134630506Y-29040916D01*
X134395396Y-29121630D01*
X134395385Y-29121635D01*
X134176770Y-29239943D01*
X134129943Y-29276389D01*
X134870591Y-30017037D01*
X134807007Y-30034075D01*
X134692993Y-30099901D01*
X134599901Y-30192993D01*
X134534075Y-30307007D01*
X134517037Y-30370590D01*
X133776563Y-29630117D01*
X133676267Y-29783633D01*
X133676265Y-29783637D01*
X133576412Y-30011282D01*
X133515387Y-30252261D01*
X133515385Y-30252270D01*
X133494859Y-30499994D01*
X131500499Y-30499994D01*
X131500499Y-29452128D01*
X131494091Y-29392517D01*
X131492239Y-29387552D01*
X131443797Y-29257671D01*
X131443793Y-29257664D01*
X131357547Y-29142455D01*
X131357544Y-29142452D01*
X131242335Y-29056206D01*
X131242328Y-29056202D01*
X131107482Y-29005908D01*
X131107483Y-29005908D01*
X131047883Y-28999501D01*
X131047881Y-28999500D01*
X131047873Y-28999500D01*
X131047864Y-28999500D01*
X128952129Y-28999500D01*
X128952123Y-28999501D01*
X128892516Y-29005908D01*
X128757671Y-29056202D01*
X128757664Y-29056206D01*
X128642455Y-29142452D01*
X128642452Y-29142455D01*
X128556206Y-29257664D01*
X128556202Y-29257671D01*
X128505908Y-29392517D01*
X128501941Y-29429423D01*
X128499501Y-29452123D01*
X128499500Y-29452135D01*
X123777731Y-29452135D01*
X123777730Y-29452127D01*
X123766022Y-29325771D01*
X123741602Y-29239944D01*
X123707144Y-29118838D01*
X123668343Y-29040916D01*
X123611248Y-28926253D01*
X123611247Y-28926252D01*
X123611245Y-28926247D01*
X123481591Y-28754556D01*
X123481587Y-28754552D01*
X123481585Y-28754550D01*
X123322597Y-28609614D01*
X123282811Y-28584979D01*
X123139674Y-28496353D01*
X122939056Y-28418633D01*
X122795983Y-28391888D01*
X122733704Y-28360221D01*
X122698431Y-28299908D01*
X122701365Y-28230100D01*
X122741574Y-28172960D01*
X122795982Y-28148111D01*
X122939056Y-28121367D01*
X123139674Y-28043647D01*
X123322595Y-27930387D01*
X123481591Y-27785444D01*
X123611245Y-27613753D01*
X123707144Y-27421162D01*
X123766022Y-27214229D01*
X123785873Y-27000000D01*
X123766022Y-26785771D01*
X123707144Y-26578838D01*
X123611245Y-26386247D01*
X123481591Y-26214556D01*
X123481587Y-26214552D01*
X123481585Y-26214550D01*
X123322597Y-26069614D01*
X123282811Y-26044979D01*
X123139674Y-25956353D01*
X122939056Y-25878633D01*
X122727573Y-25839100D01*
X122512427Y-25839100D01*
X122300944Y-25878633D01*
X122174075Y-25927782D01*
X122100328Y-25956352D01*
X122100327Y-25956352D01*
X121917402Y-26069614D01*
X121758414Y-26214550D01*
X121758407Y-26214558D01*
X121628760Y-26386239D01*
X121628751Y-26386253D01*
X121532860Y-26578827D01*
X121532855Y-26578840D01*
X121473977Y-26785771D01*
X121454127Y-26999999D01*
X121454127Y-27000000D01*
X121473977Y-27214228D01*
X121532855Y-27421159D01*
X121532860Y-27421172D01*
X121628751Y-27613746D01*
X121628753Y-27613749D01*
X121628755Y-27613753D01*
X121628758Y-27613757D01*
X121628760Y-27613760D01*
X121639966Y-27628599D01*
X121758409Y-27785444D01*
X121758412Y-27785446D01*
X121758414Y-27785449D01*
X121917402Y-27930385D01*
X121917404Y-27930386D01*
X121917405Y-27930387D01*
X122100326Y-28043647D01*
X122300944Y-28121367D01*
X122444015Y-28148111D01*
X122506295Y-28179779D01*
X122541568Y-28240092D01*
X122538634Y-28309900D01*
X122498425Y-28367040D01*
X122444015Y-28391888D01*
X122300944Y-28418633D01*
X122174075Y-28467782D01*
X122100328Y-28496352D01*
X122100327Y-28496352D01*
X121917402Y-28609614D01*
X121758414Y-28754550D01*
X121758407Y-28754558D01*
X121628760Y-28926239D01*
X121628751Y-28926253D01*
X121532860Y-29118827D01*
X121532855Y-29118840D01*
X121473977Y-29325771D01*
X121454127Y-29539999D01*
X121454127Y-29540000D01*
X121473978Y-29754236D01*
X121474970Y-29759540D01*
X121467937Y-29829054D01*
X121440762Y-29870001D01*
X117327584Y-33983181D01*
X117266261Y-34016666D01*
X117239903Y-34019500D01*
X116062997Y-34019500D01*
X115995958Y-33999815D01*
X115964046Y-33970230D01*
X115861591Y-33834556D01*
X115861586Y-33834551D01*
X115861585Y-33834550D01*
X115702597Y-33689614D01*
X115662811Y-33664979D01*
X115519674Y-33576353D01*
X115319056Y-33498633D01*
X115175983Y-33471888D01*
X115113704Y-33440221D01*
X115078431Y-33379908D01*
X115081365Y-33310100D01*
X115121574Y-33252960D01*
X115175982Y-33228111D01*
X115319056Y-33201367D01*
X115519674Y-33123647D01*
X115702595Y-33010387D01*
X115861591Y-32865444D01*
X115991245Y-32693753D01*
X116087144Y-32501162D01*
X116146022Y-32294229D01*
X116165873Y-32080000D01*
X116157912Y-31994091D01*
X116146022Y-31865771D01*
X116133073Y-31820261D01*
X116087144Y-31658838D01*
X116061572Y-31607483D01*
X115991248Y-31466253D01*
X115991247Y-31466252D01*
X115991245Y-31466247D01*
X115861591Y-31294556D01*
X115861587Y-31294552D01*
X115861585Y-31294550D01*
X115702597Y-31149614D01*
X115662811Y-31124979D01*
X115519674Y-31036353D01*
X115319056Y-30958633D01*
X115175983Y-30931888D01*
X115113704Y-30900221D01*
X115078431Y-30839908D01*
X115081365Y-30770100D01*
X115121574Y-30712960D01*
X115175982Y-30688111D01*
X115319056Y-30661367D01*
X115519674Y-30583647D01*
X115702595Y-30470387D01*
X115861591Y-30325444D01*
X115991245Y-30153753D01*
X116087144Y-29961162D01*
X116146022Y-29754229D01*
X116165873Y-29540000D01*
X116157730Y-29452127D01*
X116146022Y-29325771D01*
X116121602Y-29239944D01*
X116087144Y-29118838D01*
X116048343Y-29040916D01*
X115991248Y-28926253D01*
X115991247Y-28926252D01*
X115991245Y-28926247D01*
X115861591Y-28754556D01*
X115861587Y-28754552D01*
X115861585Y-28754550D01*
X115702597Y-28609614D01*
X115662811Y-28584979D01*
X115519674Y-28496353D01*
X115319056Y-28418633D01*
X115255687Y-28406787D01*
X115193408Y-28375119D01*
X115158135Y-28314807D01*
X115161069Y-28244999D01*
X115201278Y-28187859D01*
X115265996Y-28161528D01*
X115278467Y-28160899D01*
X115708272Y-28160899D01*
X115767883Y-28154491D01*
X115902731Y-28104196D01*
X116017946Y-28017946D01*
X116104196Y-27902731D01*
X116154491Y-27767883D01*
X116160900Y-27708273D01*
X116160899Y-26291728D01*
X116154491Y-26232117D01*
X116147941Y-26214556D01*
X116104197Y-26097271D01*
X116104193Y-26097264D01*
X116017947Y-25982055D01*
X116017944Y-25982052D01*
X115902735Y-25895806D01*
X115902728Y-25895802D01*
X115767882Y-25845508D01*
X115767883Y-25845508D01*
X115708283Y-25839101D01*
X115708281Y-25839100D01*
X115708273Y-25839100D01*
X115708264Y-25839100D01*
X114291729Y-25839100D01*
X114291723Y-25839101D01*
X114232116Y-25845508D01*
X114097271Y-25895802D01*
X114097264Y-25895806D01*
X113982055Y-25982052D01*
X113982052Y-25982055D01*
X113895806Y-26097264D01*
X113895802Y-26097271D01*
X113845508Y-26232117D01*
X113839101Y-26291716D01*
X113839101Y-26291723D01*
X113839100Y-26291735D01*
X113839100Y-27708270D01*
X113839101Y-27708276D01*
X113845508Y-27767883D01*
X113895802Y-27902728D01*
X113895806Y-27902735D01*
X113982052Y-28017944D01*
X113982055Y-28017947D01*
X114097264Y-28104193D01*
X114097271Y-28104197D01*
X114232117Y-28154491D01*
X114232116Y-28154491D01*
X114239044Y-28155235D01*
X114291727Y-28160900D01*
X114721525Y-28160899D01*
X114788562Y-28180583D01*
X114834317Y-28233387D01*
X114844261Y-28302546D01*
X114815236Y-28366102D01*
X114756458Y-28403876D01*
X114744309Y-28406787D01*
X114680955Y-28418630D01*
X114680946Y-28418632D01*
X114680944Y-28418633D01*
X114554075Y-28467782D01*
X114480328Y-28496352D01*
X114480327Y-28496352D01*
X114297402Y-28609614D01*
X114138414Y-28754550D01*
X114138407Y-28754558D01*
X114008760Y-28926239D01*
X114008751Y-28926253D01*
X113912860Y-29118827D01*
X113912855Y-29118840D01*
X113853977Y-29325771D01*
X113834127Y-29539999D01*
X113834127Y-29540000D01*
X113853977Y-29754228D01*
X113912855Y-29961159D01*
X113912860Y-29961172D01*
X114008751Y-30153746D01*
X114008753Y-30153749D01*
X114008755Y-30153753D01*
X114138409Y-30325444D01*
X114138412Y-30325446D01*
X114138414Y-30325449D01*
X114297402Y-30470385D01*
X114297404Y-30470386D01*
X114297405Y-30470387D01*
X114480326Y-30583647D01*
X114680944Y-30661367D01*
X114824015Y-30688111D01*
X114886295Y-30719779D01*
X114921568Y-30780092D01*
X114918634Y-30849900D01*
X114878425Y-30907040D01*
X114824015Y-30931888D01*
X114680944Y-30958633D01*
X114574164Y-31000000D01*
X114480328Y-31036352D01*
X114480327Y-31036352D01*
X114297402Y-31149614D01*
X114138414Y-31294550D01*
X114138407Y-31294558D01*
X114008760Y-31466239D01*
X114008751Y-31466253D01*
X113912860Y-31658827D01*
X113912855Y-31658840D01*
X113853977Y-31865771D01*
X113834127Y-32079999D01*
X113834127Y-32080000D01*
X113853977Y-32294228D01*
X113912855Y-32501159D01*
X113912860Y-32501172D01*
X114008751Y-32693746D01*
X114008753Y-32693749D01*
X114008755Y-32693753D01*
X114138409Y-32865444D01*
X114138412Y-32865446D01*
X114138414Y-32865449D01*
X114297402Y-33010385D01*
X114297404Y-33010386D01*
X114297405Y-33010387D01*
X114480326Y-33123647D01*
X114680944Y-33201367D01*
X114824015Y-33228111D01*
X114886295Y-33259779D01*
X114921568Y-33320092D01*
X114918634Y-33389900D01*
X114878425Y-33447040D01*
X114824015Y-33471888D01*
X114680944Y-33498633D01*
X114554075Y-33547782D01*
X114480328Y-33576352D01*
X114480327Y-33576352D01*
X114297402Y-33689614D01*
X114138414Y-33834550D01*
X114138407Y-33834558D01*
X114008760Y-34006239D01*
X114008751Y-34006253D01*
X113912860Y-34198827D01*
X113912855Y-34198840D01*
X113853977Y-34405771D01*
X113834127Y-34619999D01*
X113834127Y-34620000D01*
X113853977Y-34834228D01*
X113912855Y-35041159D01*
X113912860Y-35041172D01*
X114008751Y-35233746D01*
X114008753Y-35233749D01*
X114008755Y-35233753D01*
X114008758Y-35233757D01*
X114008760Y-35233760D01*
X114053626Y-35293172D01*
X114138409Y-35405444D01*
X114138412Y-35405446D01*
X114138414Y-35405449D01*
X114297402Y-35550385D01*
X114297404Y-35550386D01*
X114297405Y-35550387D01*
X114480326Y-35663647D01*
X114680944Y-35741367D01*
X114824015Y-35768111D01*
X114886295Y-35799779D01*
X114921568Y-35860092D01*
X114918634Y-35929900D01*
X114878425Y-35987040D01*
X114824015Y-36011888D01*
X114680944Y-36038633D01*
X114554075Y-36087782D01*
X114480328Y-36116352D01*
X114480327Y-36116352D01*
X114297402Y-36229614D01*
X114138414Y-36374550D01*
X114138407Y-36374558D01*
X114008760Y-36546239D01*
X114008751Y-36546253D01*
X113912860Y-36738827D01*
X113912855Y-36738840D01*
X113853977Y-36945771D01*
X113834127Y-37159999D01*
X113834127Y-37160000D01*
X113853977Y-37374228D01*
X113912855Y-37581159D01*
X113912860Y-37581172D01*
X114008751Y-37773746D01*
X114008753Y-37773749D01*
X114008755Y-37773753D01*
X114008758Y-37773757D01*
X114008760Y-37773760D01*
X114060766Y-37842627D01*
X114138409Y-37945444D01*
X114138412Y-37945446D01*
X114138414Y-37945449D01*
X114297402Y-38090385D01*
X114297404Y-38090386D01*
X114297405Y-38090387D01*
X114480326Y-38203647D01*
X114680944Y-38281367D01*
X114824015Y-38308111D01*
X114886295Y-38339779D01*
X114921568Y-38400092D01*
X114918634Y-38469900D01*
X114878425Y-38527040D01*
X114824015Y-38551888D01*
X114680944Y-38578633D01*
X114554075Y-38627782D01*
X114480328Y-38656352D01*
X114480327Y-38656352D01*
X114297402Y-38769614D01*
X114138414Y-38914550D01*
X114138407Y-38914558D01*
X114008760Y-39086239D01*
X114008751Y-39086253D01*
X113912860Y-39278827D01*
X113912855Y-39278840D01*
X113853977Y-39485771D01*
X113834127Y-39699999D01*
X113834127Y-39700000D01*
X113853977Y-39914228D01*
X113912855Y-40121159D01*
X113912860Y-40121172D01*
X114008751Y-40313746D01*
X114008753Y-40313749D01*
X114008755Y-40313753D01*
X114008758Y-40313757D01*
X114008760Y-40313760D01*
X114060766Y-40382627D01*
X114138409Y-40485444D01*
X114138412Y-40485446D01*
X114138414Y-40485449D01*
X114297402Y-40630385D01*
X114297404Y-40630386D01*
X114297405Y-40630387D01*
X114480326Y-40743647D01*
X114680944Y-40821367D01*
X114824015Y-40848111D01*
X114886295Y-40879779D01*
X114921568Y-40940092D01*
X114918634Y-41009900D01*
X114878425Y-41067040D01*
X114824015Y-41091888D01*
X114680944Y-41118633D01*
X114598748Y-41150476D01*
X114480328Y-41196352D01*
X114480327Y-41196352D01*
X114297402Y-41309614D01*
X114138414Y-41454550D01*
X114138407Y-41454558D01*
X114008760Y-41626239D01*
X114008749Y-41626257D01*
X113912857Y-41818834D01*
X113912293Y-41820292D01*
X113911835Y-41820887D01*
X113910301Y-41823969D01*
X113909698Y-41823668D01*
X113869721Y-41875695D01*
X113803955Y-41899286D01*
X113796666Y-41899500D01*
X111582412Y-41899500D01*
X111515373Y-41879815D01*
X111505097Y-41872445D01*
X111502263Y-41870185D01*
X111502262Y-41870184D01*
X111428232Y-41823668D01*
X111349523Y-41774211D01*
X111179254Y-41714631D01*
X111179249Y-41714630D01*
X111000004Y-41694435D01*
X110999996Y-41694435D01*
X110820750Y-41714630D01*
X110820745Y-41714631D01*
X110650476Y-41774211D01*
X110497737Y-41870184D01*
X110370184Y-41997737D01*
X110274211Y-42150476D01*
X110214631Y-42320745D01*
X110214630Y-42320750D01*
X110194435Y-42499996D01*
X73625265Y-42499996D01*
X73671096Y-42338916D01*
X73691382Y-42120000D01*
X73671096Y-41901084D01*
X73610931Y-41689623D01*
X73610930Y-41689620D01*
X73512936Y-41492823D01*
X73512931Y-41492815D01*
X73478468Y-41447179D01*
X73380442Y-41317371D01*
X73217968Y-41169257D01*
X73072360Y-41079100D01*
X73031046Y-41053519D01*
X73031044Y-41053518D01*
X72918452Y-41009900D01*
X72826037Y-40974098D01*
X72826033Y-40974097D01*
X72822285Y-40973396D01*
X72814215Y-40971888D01*
X72751936Y-40940221D01*
X72716662Y-40879909D01*
X72719595Y-40810101D01*
X72759804Y-40752961D01*
X72814214Y-40728111D01*
X72826037Y-40725902D01*
X73031045Y-40646481D01*
X73217968Y-40530743D01*
X73380442Y-40382629D01*
X73512933Y-40207182D01*
X73610931Y-40010377D01*
X73656233Y-39851151D01*
X73693512Y-39792059D01*
X73756822Y-39762501D01*
X73826061Y-39771863D01*
X73879248Y-39817172D01*
X73899496Y-39884044D01*
X73899500Y-39885086D01*
X73899500Y-40417587D01*
X73879815Y-40484626D01*
X73872450Y-40494896D01*
X73870186Y-40497734D01*
X73774211Y-40650476D01*
X73714631Y-40820745D01*
X73714630Y-40820750D01*
X73694435Y-40999996D01*
X73694435Y-41000003D01*
X73714630Y-41179249D01*
X73714631Y-41179254D01*
X73774211Y-41349523D01*
X73864248Y-41492815D01*
X73870184Y-41502262D01*
X73997738Y-41629816D01*
X74076410Y-41679249D01*
X74132721Y-41714632D01*
X74150478Y-41725789D01*
X74288860Y-41774211D01*
X74320745Y-41785368D01*
X74320750Y-41785369D01*
X74499996Y-41805565D01*
X74500000Y-41805565D01*
X74500004Y-41805565D01*
X74679249Y-41785369D01*
X74679252Y-41785368D01*
X74679255Y-41785368D01*
X74849522Y-41725789D01*
X75002262Y-41629816D01*
X75129816Y-41502262D01*
X75225789Y-41349522D01*
X75285368Y-41179255D01*
X75285369Y-41179249D01*
X75305565Y-41000003D01*
X75305565Y-40999996D01*
X75285369Y-40820750D01*
X75285368Y-40820745D01*
X75285140Y-40820092D01*
X75225789Y-40650478D01*
X75129816Y-40497738D01*
X75129814Y-40497736D01*
X75129813Y-40497734D01*
X75127550Y-40494896D01*
X75126659Y-40492715D01*
X75126111Y-40491842D01*
X75126264Y-40491745D01*
X75101144Y-40430209D01*
X75100500Y-40417587D01*
X75100500Y-39082412D01*
X75120185Y-39015373D01*
X75127555Y-39005097D01*
X75129810Y-39002267D01*
X75129816Y-39002262D01*
X75225789Y-38849522D01*
X75285368Y-38679255D01*
X75285369Y-38679249D01*
X75305565Y-38500003D01*
X75305565Y-38499996D01*
X75285369Y-38320750D01*
X75285368Y-38320745D01*
X75245185Y-38205908D01*
X75225789Y-38150478D01*
X75129816Y-37997738D01*
X75002262Y-37870184D01*
X74958409Y-37842629D01*
X74882027Y-37794635D01*
X77199500Y-37794635D01*
X77199500Y-39490370D01*
X77199501Y-39490376D01*
X77205908Y-39549983D01*
X77256202Y-39684828D01*
X77256206Y-39684835D01*
X77342452Y-39800044D01*
X77342455Y-39800047D01*
X77457664Y-39886293D01*
X77457671Y-39886297D01*
X77592517Y-39936591D01*
X77592516Y-39936591D01*
X77599444Y-39937335D01*
X77652127Y-39943000D01*
X79347872Y-39942999D01*
X79407483Y-39936591D01*
X79542331Y-39886296D01*
X79657546Y-39800046D01*
X79743796Y-39684831D01*
X79794091Y-39549983D01*
X79794092Y-39549972D01*
X79795365Y-39544588D01*
X79829933Y-39483869D01*
X79891841Y-39451478D01*
X79961433Y-39457699D01*
X80003725Y-39485412D01*
X80160858Y-39642545D01*
X80160861Y-39642547D01*
X80347266Y-39773068D01*
X80553504Y-39869239D01*
X80773308Y-39928135D01*
X80935230Y-39942301D01*
X80999998Y-39947968D01*
X81000000Y-39947968D01*
X81000002Y-39947968D01*
X81056807Y-39942998D01*
X81226692Y-39928135D01*
X81446496Y-39869239D01*
X81652734Y-39773068D01*
X81839139Y-39642547D01*
X82000047Y-39481639D01*
X82130568Y-39295234D01*
X82226739Y-39088996D01*
X82285635Y-38869192D01*
X82305468Y-38642500D01*
X82304309Y-38629257D01*
X82299801Y-38577730D01*
X82285635Y-38415808D01*
X82226739Y-38196004D01*
X82130568Y-37989766D01*
X82032839Y-37850193D01*
X82000045Y-37803358D01*
X81839141Y-37642454D01*
X81781559Y-37602135D01*
X101149500Y-37602135D01*
X101149500Y-39397870D01*
X101149501Y-39397876D01*
X101155908Y-39457483D01*
X101206202Y-39592328D01*
X101206206Y-39592335D01*
X101292452Y-39707544D01*
X101292455Y-39707547D01*
X101407664Y-39793793D01*
X101407671Y-39793797D01*
X101542517Y-39844091D01*
X101542516Y-39844091D01*
X101549444Y-39844835D01*
X101602127Y-39850500D01*
X103397872Y-39850499D01*
X103457483Y-39844091D01*
X103592331Y-39793796D01*
X103707546Y-39707546D01*
X103793796Y-39592331D01*
X103844091Y-39457483D01*
X103850500Y-39397873D01*
X103850499Y-37602128D01*
X103844091Y-37542517D01*
X103832683Y-37511931D01*
X103793797Y-37407671D01*
X103793793Y-37407664D01*
X103707547Y-37292455D01*
X103707544Y-37292452D01*
X103592335Y-37206206D01*
X103592328Y-37206202D01*
X103457482Y-37155908D01*
X103457483Y-37155908D01*
X103397883Y-37149501D01*
X103397881Y-37149500D01*
X103397873Y-37149500D01*
X103397864Y-37149500D01*
X101602129Y-37149500D01*
X101602123Y-37149501D01*
X101542516Y-37155908D01*
X101407671Y-37206202D01*
X101407664Y-37206206D01*
X101292455Y-37292452D01*
X101292452Y-37292455D01*
X101206206Y-37407664D01*
X101206202Y-37407671D01*
X101155908Y-37542517D01*
X101149710Y-37600171D01*
X101149501Y-37602123D01*
X101149500Y-37602135D01*
X81781559Y-37602135D01*
X81652734Y-37511932D01*
X81652732Y-37511931D01*
X81446497Y-37415761D01*
X81446488Y-37415758D01*
X81226697Y-37356866D01*
X81226693Y-37356865D01*
X81226692Y-37356865D01*
X81226691Y-37356864D01*
X81226686Y-37356864D01*
X81000002Y-37337032D01*
X80999998Y-37337032D01*
X80773313Y-37356864D01*
X80773302Y-37356866D01*
X80553511Y-37415758D01*
X80553502Y-37415761D01*
X80347267Y-37511931D01*
X80347265Y-37511932D01*
X80160862Y-37642451D01*
X80003726Y-37799587D01*
X79942403Y-37833071D01*
X79872711Y-37828087D01*
X79816778Y-37786215D01*
X79795369Y-37740423D01*
X79794091Y-37735018D01*
X79790530Y-37725471D01*
X79759566Y-37642451D01*
X79743797Y-37600171D01*
X79743793Y-37600164D01*
X79657547Y-37484955D01*
X79657544Y-37484952D01*
X79542335Y-37398706D01*
X79542328Y-37398702D01*
X79407482Y-37348408D01*
X79407483Y-37348408D01*
X79347883Y-37342001D01*
X79347881Y-37342000D01*
X79347873Y-37342000D01*
X79347864Y-37342000D01*
X77652129Y-37342000D01*
X77652123Y-37342001D01*
X77592516Y-37348408D01*
X77457671Y-37398702D01*
X77457664Y-37398706D01*
X77342455Y-37484952D01*
X77342452Y-37484955D01*
X77256206Y-37600164D01*
X77256202Y-37600171D01*
X77205908Y-37735017D01*
X77199501Y-37794616D01*
X77199500Y-37794635D01*
X74882027Y-37794635D01*
X74849523Y-37774211D01*
X74679254Y-37714631D01*
X74679249Y-37714630D01*
X74500004Y-37694435D01*
X74499996Y-37694435D01*
X74320750Y-37714630D01*
X74320745Y-37714631D01*
X74150476Y-37774211D01*
X73997737Y-37870184D01*
X73870184Y-37997737D01*
X73774211Y-38150476D01*
X73714631Y-38320745D01*
X73714630Y-38320750D01*
X73694435Y-38499996D01*
X73694435Y-38500003D01*
X73714630Y-38679249D01*
X73714631Y-38679254D01*
X73774211Y-38849523D01*
X73870185Y-39002263D01*
X73872445Y-39005097D01*
X73873334Y-39007275D01*
X73873889Y-39008158D01*
X73873734Y-39008255D01*
X73898855Y-39069783D01*
X73899500Y-39082412D01*
X73899500Y-39274913D01*
X73879815Y-39341952D01*
X73827011Y-39387707D01*
X73757853Y-39397651D01*
X73694297Y-39368626D01*
X73656523Y-39309848D01*
X73656260Y-39308943D01*
X73610931Y-39149623D01*
X73540538Y-39008255D01*
X73512936Y-38952823D01*
X73512931Y-38952815D01*
X73478468Y-38907179D01*
X73380442Y-38777371D01*
X73217968Y-38629257D01*
X73158631Y-38592517D01*
X73031046Y-38513519D01*
X73031044Y-38513518D01*
X72918452Y-38469900D01*
X72826037Y-38434098D01*
X72826033Y-38434097D01*
X72822285Y-38433396D01*
X72814215Y-38431888D01*
X72751936Y-38400221D01*
X72716662Y-38339909D01*
X72719595Y-38270101D01*
X72759804Y-38212961D01*
X72814214Y-38188111D01*
X72826037Y-38185902D01*
X73031045Y-38106481D01*
X73217968Y-37990743D01*
X73380442Y-37842629D01*
X73512933Y-37667182D01*
X73610931Y-37470377D01*
X73671096Y-37258916D01*
X73691382Y-37040000D01*
X73671096Y-36821084D01*
X73610931Y-36609623D01*
X73610930Y-36609620D01*
X73512936Y-36412823D01*
X73512931Y-36412815D01*
X73463616Y-36347512D01*
X73380442Y-36237371D01*
X73217968Y-36089257D01*
X73072360Y-35999100D01*
X73031046Y-35973519D01*
X73031044Y-35973518D01*
X72918452Y-35929900D01*
X72826037Y-35894098D01*
X72826033Y-35894097D01*
X72822285Y-35893396D01*
X72814215Y-35891888D01*
X72751936Y-35860221D01*
X72716662Y-35799909D01*
X72719595Y-35730101D01*
X72759804Y-35672961D01*
X72814214Y-35648111D01*
X72826037Y-35645902D01*
X73031045Y-35566481D01*
X73217968Y-35450743D01*
X73380442Y-35302629D01*
X73512933Y-35127182D01*
X73610931Y-34930377D01*
X73671096Y-34718916D01*
X73691382Y-34500000D01*
X73671096Y-34281084D01*
X73610931Y-34069623D01*
X73610930Y-34069620D01*
X73512936Y-33872823D01*
X73512931Y-33872815D01*
X73432536Y-33766355D01*
X73380442Y-33697371D01*
X73217968Y-33549257D01*
X73072360Y-33459100D01*
X73031046Y-33433519D01*
X73031044Y-33433518D01*
X72960282Y-33406105D01*
X72826037Y-33354098D01*
X72609927Y-33313700D01*
X72390073Y-33313700D01*
X72173963Y-33354098D01*
X72130724Y-33370849D01*
X71968955Y-33433518D01*
X71968953Y-33433519D01*
X71782036Y-33549254D01*
X71782034Y-33549255D01*
X71782032Y-33549257D01*
X71628068Y-33689613D01*
X71619557Y-33697372D01*
X71487068Y-33872815D01*
X71487063Y-33872823D01*
X71389069Y-34069620D01*
X71328903Y-34281086D01*
X71308618Y-34500000D01*
X71328903Y-34718913D01*
X71389069Y-34930379D01*
X71487063Y-35127176D01*
X71487068Y-35127184D01*
X71504783Y-35150642D01*
X71619558Y-35302629D01*
X71782032Y-35450743D01*
X71968955Y-35566481D01*
X72173963Y-35645902D01*
X72185786Y-35648112D01*
X72248064Y-35679780D01*
X72283337Y-35740092D01*
X72280403Y-35809900D01*
X72240194Y-35867040D01*
X72185786Y-35891887D01*
X72173963Y-35894098D01*
X72116719Y-35916274D01*
X71968955Y-35973518D01*
X71968953Y-35973519D01*
X71782036Y-36089254D01*
X71782034Y-36089255D01*
X71782032Y-36089257D01*
X71628068Y-36229613D01*
X71619557Y-36237372D01*
X71487068Y-36412815D01*
X71487063Y-36412823D01*
X71389069Y-36609620D01*
X71328903Y-36821086D01*
X71308618Y-37040000D01*
X71327931Y-37248422D01*
X71314516Y-37316992D01*
X71266159Y-37367423D01*
X71198213Y-37383706D01*
X71132250Y-37360669D01*
X71116779Y-37347544D01*
X70447590Y-36678355D01*
X70447588Y-36678352D01*
X70328717Y-36559481D01*
X70328709Y-36559475D01*
X70225694Y-36500000D01*
X70225691Y-36499999D01*
X70191786Y-36480423D01*
X70191787Y-36480423D01*
X70130693Y-36464053D01*
X70039057Y-36439499D01*
X69880943Y-36439499D01*
X69873347Y-36439499D01*
X69873331Y-36439500D01*
X65974827Y-36439500D01*
X65907788Y-36419815D01*
X65875873Y-36390227D01*
X65843616Y-36347512D01*
X65760442Y-36237371D01*
X65597968Y-36089257D01*
X65452360Y-35999100D01*
X65411046Y-35973519D01*
X65411044Y-35973518D01*
X65355995Y-35952192D01*
X65286901Y-35925425D01*
X65231503Y-35882854D01*
X65207912Y-35817087D01*
X65223623Y-35749007D01*
X65273647Y-35700228D01*
X65331698Y-35685800D01*
X65613628Y-35685800D01*
X65613644Y-35685799D01*
X65673172Y-35679398D01*
X65673179Y-35679396D01*
X65807886Y-35629154D01*
X65807893Y-35629150D01*
X65922987Y-35542990D01*
X65922990Y-35542987D01*
X66009150Y-35427893D01*
X66009154Y-35427886D01*
X66059396Y-35293179D01*
X66059398Y-35293172D01*
X66065799Y-35233644D01*
X66065800Y-35233627D01*
X66065800Y-34750000D01*
X65234262Y-34750000D01*
X65282374Y-34666669D01*
X65311800Y-34556848D01*
X65311800Y-34443152D01*
X65282374Y-34333331D01*
X65234262Y-34250000D01*
X66065800Y-34250000D01*
X66065800Y-33766372D01*
X66065799Y-33766355D01*
X66059398Y-33706827D01*
X66059396Y-33706820D01*
X66009154Y-33572113D01*
X66009150Y-33572106D01*
X65922990Y-33457012D01*
X65922987Y-33457009D01*
X65807893Y-33370849D01*
X65807886Y-33370845D01*
X65673179Y-33320603D01*
X65673172Y-33320601D01*
X65613644Y-33314200D01*
X65130000Y-33314200D01*
X65130000Y-34145737D01*
X65046669Y-34097626D01*
X64936848Y-34068200D01*
X64823152Y-34068200D01*
X64713331Y-34097626D01*
X64630000Y-34145737D01*
X64630000Y-33314200D01*
X64146355Y-33314200D01*
X64086827Y-33320601D01*
X64086820Y-33320603D01*
X63952113Y-33370845D01*
X63952106Y-33370849D01*
X63837012Y-33457009D01*
X63837009Y-33457012D01*
X63750849Y-33572106D01*
X63750845Y-33572113D01*
X63700603Y-33706820D01*
X63700601Y-33706827D01*
X63694200Y-33766355D01*
X63694200Y-34250000D01*
X64525738Y-34250000D01*
X64477626Y-34333331D01*
X64448200Y-34443152D01*
X64448200Y-34556848D01*
X64477626Y-34666669D01*
X64525738Y-34750000D01*
X63694200Y-34750000D01*
X63694200Y-35233644D01*
X63700601Y-35293172D01*
X63700603Y-35293179D01*
X63750845Y-35427886D01*
X63750849Y-35427893D01*
X63837009Y-35542987D01*
X63837012Y-35542990D01*
X63952106Y-35629150D01*
X63952113Y-35629154D01*
X64086820Y-35679396D01*
X64086827Y-35679398D01*
X64146355Y-35685799D01*
X64146372Y-35685800D01*
X64428302Y-35685800D01*
X64495341Y-35705485D01*
X64541096Y-35758289D01*
X64551040Y-35827447D01*
X64522015Y-35891003D01*
X64473098Y-35925425D01*
X64419135Y-35946330D01*
X64348955Y-35973518D01*
X64348953Y-35973519D01*
X64162036Y-36089254D01*
X64162034Y-36089255D01*
X64162032Y-36089257D01*
X64008068Y-36229613D01*
X63999557Y-36237372D01*
X63867068Y-36412815D01*
X63867063Y-36412823D01*
X63769069Y-36609620D01*
X63708903Y-36821086D01*
X63688618Y-37040000D01*
X58801467Y-37040000D01*
X58804966Y-37000002D01*
X58804966Y-36999997D01*
X58785141Y-36773400D01*
X58785139Y-36773389D01*
X58726269Y-36553682D01*
X58726264Y-36553668D01*
X58630136Y-36347521D01*
X58630132Y-36347513D01*
X58579025Y-36274526D01*
X57900000Y-36953551D01*
X57900000Y-36947339D01*
X57872741Y-36845606D01*
X57820080Y-36754394D01*
X57745606Y-36679920D01*
X57654394Y-36627259D01*
X57552661Y-36600000D01*
X57546445Y-36600000D01*
X58225472Y-35920974D01*
X58152478Y-35869863D01*
X57946331Y-35773735D01*
X57946317Y-35773730D01*
X57726610Y-35714860D01*
X57726599Y-35714858D01*
X57500002Y-35695034D01*
X57499998Y-35695034D01*
X57273400Y-35714858D01*
X57273389Y-35714860D01*
X57053682Y-35773730D01*
X57053673Y-35773734D01*
X56847516Y-35869866D01*
X56847512Y-35869868D01*
X56774526Y-35920973D01*
X56774526Y-35920974D01*
X57453553Y-36600000D01*
X57447339Y-36600000D01*
X57345606Y-36627259D01*
X57254394Y-36679920D01*
X57179920Y-36754394D01*
X57127259Y-36845606D01*
X57100000Y-36947339D01*
X57100000Y-36953552D01*
X56420974Y-36274526D01*
X56420973Y-36274526D01*
X56369868Y-36347512D01*
X56369866Y-36347516D01*
X56273734Y-36553673D01*
X56273730Y-36553682D01*
X56214860Y-36773389D01*
X56214858Y-36773400D01*
X56195034Y-36999997D01*
X51000500Y-36999997D01*
X51000500Y-28249999D01*
X66129364Y-28249999D01*
X66129364Y-28250000D01*
X67026988Y-28250000D01*
X66994075Y-28307007D01*
X66960000Y-28434174D01*
X66960000Y-28565826D01*
X66994075Y-28692993D01*
X67026988Y-28750000D01*
X66129364Y-28750000D01*
X66186567Y-28963486D01*
X66186570Y-28963492D01*
X66286399Y-29177578D01*
X66421894Y-29371082D01*
X66588917Y-29538105D01*
X66782421Y-29673600D01*
X66996507Y-29773429D01*
X66996516Y-29773433D01*
X67210000Y-29830634D01*
X67210000Y-28933012D01*
X67267007Y-28965925D01*
X67394174Y-29000000D01*
X67525826Y-29000000D01*
X67652993Y-28965925D01*
X67710000Y-28933012D01*
X67710000Y-29830633D01*
X67923483Y-29773433D01*
X67923492Y-29773429D01*
X68137578Y-29673600D01*
X68331078Y-29538108D01*
X68453133Y-29416053D01*
X68514456Y-29382568D01*
X68584148Y-29387552D01*
X68640082Y-29429423D01*
X68656997Y-29460401D01*
X68706202Y-29592328D01*
X68706206Y-29592335D01*
X68792452Y-29707544D01*
X68792455Y-29707547D01*
X68907664Y-29793793D01*
X68907671Y-29793797D01*
X69042517Y-29844091D01*
X69042516Y-29844091D01*
X69049444Y-29844835D01*
X69102127Y-29850500D01*
X70897872Y-29850499D01*
X70957483Y-29844091D01*
X71092331Y-29793796D01*
X71207546Y-29707546D01*
X71293796Y-29592331D01*
X71344091Y-29457483D01*
X71350500Y-29397873D01*
X71350499Y-27602135D01*
X80569500Y-27602135D01*
X80569500Y-29397870D01*
X80569501Y-29397876D01*
X80575908Y-29457483D01*
X80626202Y-29592328D01*
X80626206Y-29592335D01*
X80712452Y-29707544D01*
X80712455Y-29707547D01*
X80827664Y-29793793D01*
X80827671Y-29793797D01*
X80962517Y-29844091D01*
X80962516Y-29844091D01*
X80969444Y-29844835D01*
X81022127Y-29850500D01*
X82817872Y-29850499D01*
X82877483Y-29844091D01*
X83012331Y-29793796D01*
X83127546Y-29707546D01*
X83213796Y-29592331D01*
X83262810Y-29460916D01*
X83304681Y-29404984D01*
X83370145Y-29380566D01*
X83438418Y-29395417D01*
X83466673Y-29416569D01*
X83588599Y-29538495D01*
X83685384Y-29606265D01*
X83782165Y-29674032D01*
X83782167Y-29674033D01*
X83782170Y-29674035D01*
X83996337Y-29773903D01*
X83996343Y-29773904D01*
X83996344Y-29773905D01*
X84032650Y-29783633D01*
X84224592Y-29835063D01*
X84401034Y-29850500D01*
X84459999Y-29855659D01*
X84460000Y-29855659D01*
X84460001Y-29855659D01*
X84518966Y-29850500D01*
X84695408Y-29835063D01*
X84923663Y-29773903D01*
X85137830Y-29674035D01*
X85331401Y-29538495D01*
X85498495Y-29371401D01*
X85628730Y-29185405D01*
X85683307Y-29141781D01*
X85752805Y-29134587D01*
X85815160Y-29166110D01*
X85831879Y-29185405D01*
X85961890Y-29371078D01*
X86128917Y-29538105D01*
X86322421Y-29673600D01*
X86536507Y-29773429D01*
X86536516Y-29773433D01*
X86750000Y-29830634D01*
X86750000Y-28933012D01*
X86807007Y-28965925D01*
X86934174Y-29000000D01*
X87065826Y-29000000D01*
X87192993Y-28965925D01*
X87250000Y-28933012D01*
X87250000Y-29830633D01*
X87463483Y-29773433D01*
X87463492Y-29773429D01*
X87677578Y-29673600D01*
X87871082Y-29538105D01*
X88038105Y-29371082D01*
X88173600Y-29177578D01*
X88273429Y-28963492D01*
X88273432Y-28963486D01*
X88330636Y-28750000D01*
X87433012Y-28750000D01*
X87465925Y-28692993D01*
X87500000Y-28565826D01*
X87500000Y-28434174D01*
X87465925Y-28307007D01*
X87433012Y-28250000D01*
X88330636Y-28250000D01*
X88330635Y-28249999D01*
X88273432Y-28036513D01*
X88273429Y-28036507D01*
X88173600Y-27822422D01*
X88173599Y-27822420D01*
X88038113Y-27628926D01*
X88038108Y-27628920D01*
X88011323Y-27602135D01*
X97569500Y-27602135D01*
X97569500Y-29397870D01*
X97569501Y-29397876D01*
X97575908Y-29457483D01*
X97626202Y-29592328D01*
X97626206Y-29592335D01*
X97712452Y-29707544D01*
X97712455Y-29707547D01*
X97827664Y-29793793D01*
X97827671Y-29793797D01*
X97962517Y-29844091D01*
X97962516Y-29844091D01*
X97969444Y-29844835D01*
X98022127Y-29850500D01*
X99817872Y-29850499D01*
X99877483Y-29844091D01*
X100012331Y-29793796D01*
X100127546Y-29707546D01*
X100213796Y-29592331D01*
X100262810Y-29460916D01*
X100304681Y-29404984D01*
X100370145Y-29380566D01*
X100438418Y-29395417D01*
X100466673Y-29416569D01*
X100588599Y-29538495D01*
X100685384Y-29606265D01*
X100782165Y-29674032D01*
X100782167Y-29674033D01*
X100782170Y-29674035D01*
X100996337Y-29773903D01*
X100996343Y-29773904D01*
X100996344Y-29773905D01*
X101032650Y-29783633D01*
X101224592Y-29835063D01*
X101401034Y-29850500D01*
X101459999Y-29855659D01*
X101460000Y-29855659D01*
X101460001Y-29855659D01*
X101518966Y-29850500D01*
X101695408Y-29835063D01*
X101923663Y-29773903D01*
X102137830Y-29674035D01*
X102331401Y-29538495D01*
X102498495Y-29371401D01*
X102628425Y-29185842D01*
X102683002Y-29142217D01*
X102752500Y-29135023D01*
X102814855Y-29166546D01*
X102831575Y-29185842D01*
X102961281Y-29371082D01*
X102961505Y-29371401D01*
X103128599Y-29538495D01*
X103225384Y-29606265D01*
X103322165Y-29674032D01*
X103322167Y-29674033D01*
X103322170Y-29674035D01*
X103536337Y-29773903D01*
X103536343Y-29773904D01*
X103536344Y-29773905D01*
X103572650Y-29783633D01*
X103764592Y-29835063D01*
X103941034Y-29850500D01*
X103999999Y-29855659D01*
X104000000Y-29855659D01*
X104000001Y-29855659D01*
X104058966Y-29850500D01*
X104235408Y-29835063D01*
X104463663Y-29773903D01*
X104677830Y-29674035D01*
X104871401Y-29538495D01*
X105038495Y-29371401D01*
X105168730Y-29185405D01*
X105223307Y-29141781D01*
X105292805Y-29134587D01*
X105355160Y-29166110D01*
X105371879Y-29185405D01*
X105501890Y-29371078D01*
X105668917Y-29538105D01*
X105862421Y-29673600D01*
X106076507Y-29773429D01*
X106076516Y-29773433D01*
X106290000Y-29830634D01*
X106290000Y-28933012D01*
X106347007Y-28965925D01*
X106474174Y-29000000D01*
X106605826Y-29000000D01*
X106732993Y-28965925D01*
X106790000Y-28933012D01*
X106790000Y-29830633D01*
X107003483Y-29773433D01*
X107003492Y-29773429D01*
X107217578Y-29673600D01*
X107411082Y-29538105D01*
X107578105Y-29371082D01*
X107713600Y-29177578D01*
X107813429Y-28963492D01*
X107813432Y-28963486D01*
X107870636Y-28750000D01*
X106973012Y-28750000D01*
X107005925Y-28692993D01*
X107040000Y-28565826D01*
X107040000Y-28434174D01*
X107005925Y-28307007D01*
X106973012Y-28250000D01*
X107870636Y-28250000D01*
X107870635Y-28249999D01*
X107813432Y-28036513D01*
X107813429Y-28036507D01*
X107713600Y-27822422D01*
X107713599Y-27822420D01*
X107578113Y-27628926D01*
X107578108Y-27628920D01*
X107411082Y-27461894D01*
X107217578Y-27326399D01*
X107003492Y-27226570D01*
X107003486Y-27226567D01*
X106790000Y-27169364D01*
X106790000Y-28066988D01*
X106732993Y-28034075D01*
X106605826Y-28000000D01*
X106474174Y-28000000D01*
X106347007Y-28034075D01*
X106290000Y-28066988D01*
X106290000Y-27169364D01*
X106289999Y-27169364D01*
X106076513Y-27226567D01*
X106076507Y-27226570D01*
X105862422Y-27326399D01*
X105862420Y-27326400D01*
X105668926Y-27461886D01*
X105668920Y-27461891D01*
X105501891Y-27628920D01*
X105501890Y-27628922D01*
X105371880Y-27814595D01*
X105317303Y-27858219D01*
X105247804Y-27865412D01*
X105185450Y-27833890D01*
X105168730Y-27814594D01*
X105038494Y-27628597D01*
X104871402Y-27461506D01*
X104871395Y-27461501D01*
X104677834Y-27325967D01*
X104677830Y-27325965D01*
X104677828Y-27325964D01*
X104463663Y-27226097D01*
X104463659Y-27226096D01*
X104463655Y-27226094D01*
X104235413Y-27164938D01*
X104235403Y-27164936D01*
X104000001Y-27144341D01*
X103999999Y-27144341D01*
X103764596Y-27164936D01*
X103764586Y-27164938D01*
X103536344Y-27226094D01*
X103536335Y-27226098D01*
X103322171Y-27325964D01*
X103322169Y-27325965D01*
X103128597Y-27461505D01*
X102961505Y-27628597D01*
X102831575Y-27814158D01*
X102776998Y-27857783D01*
X102707500Y-27864977D01*
X102645145Y-27833454D01*
X102628425Y-27814158D01*
X102498494Y-27628597D01*
X102331402Y-27461506D01*
X102331395Y-27461501D01*
X102137834Y-27325967D01*
X102137830Y-27325965D01*
X102137828Y-27325964D01*
X101923663Y-27226097D01*
X101923659Y-27226096D01*
X101923655Y-27226094D01*
X101695413Y-27164938D01*
X101695403Y-27164936D01*
X101460001Y-27144341D01*
X101459999Y-27144341D01*
X101224596Y-27164936D01*
X101224586Y-27164938D01*
X100996344Y-27226094D01*
X100996335Y-27226098D01*
X100782171Y-27325964D01*
X100782169Y-27325965D01*
X100588600Y-27461503D01*
X100466673Y-27583430D01*
X100405350Y-27616914D01*
X100335658Y-27611930D01*
X100279725Y-27570058D01*
X100262810Y-27539081D01*
X100213797Y-27407671D01*
X100213793Y-27407664D01*
X100127547Y-27292455D01*
X100127544Y-27292452D01*
X100012335Y-27206206D01*
X100012328Y-27206202D01*
X99877482Y-27155908D01*
X99877483Y-27155908D01*
X99817883Y-27149501D01*
X99817881Y-27149500D01*
X99817873Y-27149500D01*
X99817864Y-27149500D01*
X98022129Y-27149500D01*
X98022123Y-27149501D01*
X97962516Y-27155908D01*
X97827671Y-27206202D01*
X97827664Y-27206206D01*
X97712455Y-27292452D01*
X97712452Y-27292455D01*
X97626206Y-27407664D01*
X97626202Y-27407671D01*
X97575908Y-27542517D01*
X97570209Y-27595532D01*
X97569501Y-27602123D01*
X97569500Y-27602135D01*
X88011323Y-27602135D01*
X87871082Y-27461894D01*
X87677578Y-27326399D01*
X87463492Y-27226570D01*
X87463486Y-27226567D01*
X87250000Y-27169364D01*
X87250000Y-28066988D01*
X87192993Y-28034075D01*
X87065826Y-28000000D01*
X86934174Y-28000000D01*
X86807007Y-28034075D01*
X86750000Y-28066988D01*
X86750000Y-27169364D01*
X86749999Y-27169364D01*
X86536513Y-27226567D01*
X86536507Y-27226570D01*
X86322422Y-27326399D01*
X86322420Y-27326400D01*
X86128926Y-27461886D01*
X86128920Y-27461891D01*
X85961891Y-27628920D01*
X85961890Y-27628922D01*
X85831880Y-27814595D01*
X85777303Y-27858219D01*
X85707804Y-27865412D01*
X85645450Y-27833890D01*
X85628730Y-27814594D01*
X85498494Y-27628597D01*
X85331402Y-27461506D01*
X85331395Y-27461501D01*
X85137834Y-27325967D01*
X85137830Y-27325965D01*
X85137828Y-27325964D01*
X84923663Y-27226097D01*
X84923659Y-27226096D01*
X84923655Y-27226094D01*
X84695413Y-27164938D01*
X84695403Y-27164936D01*
X84460001Y-27144341D01*
X84459999Y-27144341D01*
X84224596Y-27164936D01*
X84224586Y-27164938D01*
X83996344Y-27226094D01*
X83996335Y-27226098D01*
X83782171Y-27325964D01*
X83782169Y-27325965D01*
X83588600Y-27461503D01*
X83466673Y-27583430D01*
X83405350Y-27616914D01*
X83335658Y-27611930D01*
X83279725Y-27570058D01*
X83262810Y-27539081D01*
X83213797Y-27407671D01*
X83213793Y-27407664D01*
X83127547Y-27292455D01*
X83127544Y-27292452D01*
X83012335Y-27206206D01*
X83012328Y-27206202D01*
X82877482Y-27155908D01*
X82877483Y-27155908D01*
X82817883Y-27149501D01*
X82817881Y-27149500D01*
X82817873Y-27149500D01*
X82817864Y-27149500D01*
X81022129Y-27149500D01*
X81022123Y-27149501D01*
X80962516Y-27155908D01*
X80827671Y-27206202D01*
X80827664Y-27206206D01*
X80712455Y-27292452D01*
X80712452Y-27292455D01*
X80626206Y-27407664D01*
X80626202Y-27407671D01*
X80575908Y-27542517D01*
X80570209Y-27595532D01*
X80569501Y-27602123D01*
X80569500Y-27602135D01*
X71350499Y-27602135D01*
X71350499Y-27602128D01*
X71344091Y-27542517D01*
X71343002Y-27539598D01*
X71293797Y-27407671D01*
X71293793Y-27407664D01*
X71207547Y-27292455D01*
X71207544Y-27292452D01*
X71092335Y-27206206D01*
X71092328Y-27206202D01*
X70957482Y-27155908D01*
X70957483Y-27155908D01*
X70897883Y-27149501D01*
X70897881Y-27149500D01*
X70897873Y-27149500D01*
X70897864Y-27149500D01*
X69102129Y-27149500D01*
X69102123Y-27149501D01*
X69042516Y-27155908D01*
X68907671Y-27206202D01*
X68907664Y-27206206D01*
X68792455Y-27292452D01*
X68792452Y-27292455D01*
X68706206Y-27407664D01*
X68706202Y-27407671D01*
X68656997Y-27539598D01*
X68615126Y-27595532D01*
X68549661Y-27619949D01*
X68481388Y-27605097D01*
X68453134Y-27583946D01*
X68331082Y-27461894D01*
X68137578Y-27326399D01*
X67923492Y-27226570D01*
X67923486Y-27226567D01*
X67710000Y-27169364D01*
X67710000Y-28066988D01*
X67652993Y-28034075D01*
X67525826Y-28000000D01*
X67394174Y-28000000D01*
X67267007Y-28034075D01*
X67210000Y-28066988D01*
X67210000Y-27169364D01*
X67209999Y-27169364D01*
X66996513Y-27226567D01*
X66996507Y-27226570D01*
X66782422Y-27326399D01*
X66782420Y-27326400D01*
X66588926Y-27461886D01*
X66588920Y-27461891D01*
X66421891Y-27628920D01*
X66421886Y-27628926D01*
X66286400Y-27822420D01*
X66286399Y-27822422D01*
X66186570Y-28036507D01*
X66186567Y-28036513D01*
X66129364Y-28249999D01*
X51000500Y-28249999D01*
X51000500Y-21999996D01*
X110194435Y-21999996D01*
X110194435Y-22000003D01*
X110214630Y-22179249D01*
X110214631Y-22179254D01*
X110274211Y-22349523D01*
X110370185Y-22502263D01*
X110372445Y-22505097D01*
X110373334Y-22507275D01*
X110373889Y-22508158D01*
X110373734Y-22508255D01*
X110398855Y-22569783D01*
X110399500Y-22582412D01*
X110399500Y-24417587D01*
X110379815Y-24484626D01*
X110372450Y-24494896D01*
X110370186Y-24497734D01*
X110274211Y-24650476D01*
X110214631Y-24820745D01*
X110214630Y-24820750D01*
X110194435Y-24999996D01*
X110194435Y-25000003D01*
X110214630Y-25179249D01*
X110214631Y-25179254D01*
X110274211Y-25349523D01*
X110370184Y-25502262D01*
X110497738Y-25629816D01*
X110650478Y-25725789D01*
X110820745Y-25785368D01*
X110820750Y-25785369D01*
X110999996Y-25805565D01*
X111000000Y-25805565D01*
X111000004Y-25805565D01*
X111179249Y-25785369D01*
X111179252Y-25785368D01*
X111179255Y-25785368D01*
X111349522Y-25725789D01*
X111502262Y-25629816D01*
X111629816Y-25502262D01*
X111725789Y-25349522D01*
X111785368Y-25179255D01*
X111805565Y-25000000D01*
X111785368Y-24820745D01*
X111725789Y-24650478D01*
X111629816Y-24497738D01*
X111629814Y-24497736D01*
X111629813Y-24497734D01*
X111627550Y-24494896D01*
X111626659Y-24492715D01*
X111626111Y-24491842D01*
X111626264Y-24491745D01*
X111601144Y-24430209D01*
X111600500Y-24417587D01*
X111600500Y-23999996D01*
X123194435Y-23999996D01*
X123194435Y-24000003D01*
X123214630Y-24179249D01*
X123214631Y-24179254D01*
X123274211Y-24349523D01*
X123363576Y-24491745D01*
X123370184Y-24502262D01*
X123497738Y-24629816D01*
X123650478Y-24725789D01*
X123820745Y-24785368D01*
X123820750Y-24785369D01*
X123999996Y-24805565D01*
X124000000Y-24805565D01*
X124000004Y-24805565D01*
X124179249Y-24785369D01*
X124179252Y-24785368D01*
X124179255Y-24785368D01*
X124349522Y-24725789D01*
X124502262Y-24629816D01*
X124502267Y-24629810D01*
X124505097Y-24627555D01*
X124507275Y-24626665D01*
X124508158Y-24626111D01*
X124508255Y-24626265D01*
X124569783Y-24601145D01*
X124582412Y-24600500D01*
X125417588Y-24600500D01*
X125484627Y-24620185D01*
X125494903Y-24627555D01*
X125497736Y-24629814D01*
X125497738Y-24629816D01*
X125650478Y-24725789D01*
X125820745Y-24785368D01*
X125820750Y-24785369D01*
X125999996Y-24805565D01*
X126000000Y-24805565D01*
X126000004Y-24805565D01*
X126179249Y-24785369D01*
X126179252Y-24785368D01*
X126179255Y-24785368D01*
X126349522Y-24725789D01*
X126502262Y-24629816D01*
X126629816Y-24502262D01*
X126725789Y-24349522D01*
X126785368Y-24179255D01*
X126805565Y-24000000D01*
X126785368Y-23820745D01*
X126725789Y-23650478D01*
X126629816Y-23497738D01*
X126502262Y-23370184D01*
X126349523Y-23274211D01*
X126179254Y-23214631D01*
X126179249Y-23214630D01*
X126000004Y-23194435D01*
X125999996Y-23194435D01*
X125820750Y-23214630D01*
X125820745Y-23214631D01*
X125650476Y-23274211D01*
X125497736Y-23370185D01*
X125494903Y-23372445D01*
X125492724Y-23373334D01*
X125491842Y-23373889D01*
X125491744Y-23373734D01*
X125430217Y-23398855D01*
X125417588Y-23399500D01*
X124582412Y-23399500D01*
X124515373Y-23379815D01*
X124505097Y-23372445D01*
X124502263Y-23370185D01*
X124502262Y-23370184D01*
X124445496Y-23334515D01*
X124349523Y-23274211D01*
X124179254Y-23214631D01*
X124179249Y-23214630D01*
X124000004Y-23194435D01*
X123999996Y-23194435D01*
X123820750Y-23214630D01*
X123820745Y-23214631D01*
X123650476Y-23274211D01*
X123497737Y-23370184D01*
X123370184Y-23497737D01*
X123274211Y-23650476D01*
X123214631Y-23820745D01*
X123214630Y-23820750D01*
X123194435Y-23999996D01*
X111600500Y-23999996D01*
X111600500Y-22582412D01*
X111620185Y-22515373D01*
X111627555Y-22505097D01*
X111629810Y-22502267D01*
X111629816Y-22502262D01*
X111725789Y-22349522D01*
X111785368Y-22179255D01*
X111805565Y-22000000D01*
X111785368Y-21820745D01*
X111725789Y-21650478D01*
X111629816Y-21497738D01*
X111502262Y-21370184D01*
X111349523Y-21274211D01*
X111179254Y-21214631D01*
X111179249Y-21214630D01*
X111000004Y-21194435D01*
X110999996Y-21194435D01*
X110820750Y-21214630D01*
X110820745Y-21214631D01*
X110650476Y-21274211D01*
X110497737Y-21370184D01*
X110370184Y-21497737D01*
X110274211Y-21650476D01*
X110214631Y-21820745D01*
X110214630Y-21820750D01*
X110194435Y-21999996D01*
X51000500Y-21999996D01*
X51000500Y-19624500D01*
X51020185Y-19557461D01*
X51072989Y-19511706D01*
X51124500Y-19500500D01*
X146875500Y-19500500D01*
X146942539Y-19520185D01*
G37*
%TD.AperFunction*%
%TD*%
M02*
