%TF.GenerationSoftware,KiCad,Pcbnew,8.0.8*%
%TF.CreationDate,2025-02-26T21:24:02-07:00*%
%TF.ProjectId,Metal Detector,4d657461-6c20-4446-9574-6563746f722e,rev?*%
%TF.SameCoordinates,Original*%
%TF.FileFunction,Copper,L1,Top*%
%TF.FilePolarity,Positive*%
%FSLAX46Y46*%
G04 Gerber Fmt 4.6, Leading zero omitted, Abs format (unit mm)*
G04 Created by KiCad (PCBNEW 8.0.8) date 2025-02-26 21:24:02*
%MOMM*%
%LPD*%
G01*
G04 APERTURE LIST*
%TA.AperFunction,ComponentPad*%
%ADD10R,1.371600X1.371600*%
%TD*%
%TA.AperFunction,ComponentPad*%
%ADD11C,1.371600*%
%TD*%
%TA.AperFunction,ComponentPad*%
%ADD12R,1.700000X1.700000*%
%TD*%
%TA.AperFunction,ComponentPad*%
%ADD13O,1.700000X1.700000*%
%TD*%
%TA.AperFunction,ComponentPad*%
%ADD14C,1.600000*%
%TD*%
%TA.AperFunction,ComponentPad*%
%ADD15O,1.600000X1.600000*%
%TD*%
%TA.AperFunction,ComponentPad*%
%ADD16R,2.000000X2.000000*%
%TD*%
%TA.AperFunction,ComponentPad*%
%ADD17C,2.000000*%
%TD*%
%TA.AperFunction,ComponentPad*%
%ADD18R,1.600000X1.600000*%
%TD*%
%TA.AperFunction,ComponentPad*%
%ADD19R,1.900000X1.900000*%
%TD*%
%TA.AperFunction,ComponentPad*%
%ADD20C,1.900000*%
%TD*%
%TA.AperFunction,ComponentPad*%
%ADD21R,1.320800X1.320800*%
%TD*%
%TA.AperFunction,ComponentPad*%
%ADD22C,1.320800*%
%TD*%
%TA.AperFunction,ViaPad*%
%ADD23C,0.600000*%
%TD*%
%TA.AperFunction,Conductor*%
%ADD24C,0.200000*%
%TD*%
G04 APERTURE END LIST*
D10*
%TO.P,U1,1,GND*%
%TO.N,GND*%
X64880000Y-34500000D03*
D11*
%TO.P,U1,2,TR*%
%TO.N,Net-(U1-THR)*%
X64880000Y-37040000D03*
%TO.P,U1,3,Q*%
%TO.N,Inductor*%
X64880000Y-39580000D03*
%TO.P,U1,4,R*%
%TO.N,9v*%
X64880000Y-42120000D03*
%TO.P,U1,5,CV*%
%TO.N,unconnected-(U1-CV-Pad5)*%
X72500000Y-42120000D03*
%TO.P,U1,6,THR*%
%TO.N,Net-(U1-THR)*%
X72500000Y-39580000D03*
%TO.P,U1,7,DIS*%
%TO.N,unconnected-(U1-DIS-Pad7)*%
X72500000Y-37040000D03*
%TO.P,U1,8,VCC*%
%TO.N,9v*%
X72500000Y-34500000D03*
%TD*%
D12*
%TO.P,J5,1,Pin_1*%
%TO.N,Inductor*%
X102500000Y-48500000D03*
%TD*%
%TO.P,J4,1,Pin_1*%
%TO.N,5V*%
X98920000Y-28500000D03*
D13*
%TO.P,J4,2,Pin_2*%
%TO.N,TRIGGER output*%
X101460000Y-28500000D03*
%TO.P,J4,3,Pin_3*%
%TO.N,ECHO input*%
X104000000Y-28500000D03*
%TO.P,J4,4,Pin_4*%
%TO.N,GND*%
X106540000Y-28500000D03*
%TD*%
D14*
%TO.P,R1,1*%
%TO.N,Net-(U1-THR)*%
X82650000Y-48500000D03*
D15*
%TO.P,R1,2*%
%TO.N,Inductor*%
X95350000Y-48500000D03*
%TD*%
D12*
%TO.P,J1,1,Pin_1*%
%TO.N,9v*%
X70000000Y-28500000D03*
D13*
%TO.P,J1,2,Pin_2*%
%TO.N,GND*%
X67460000Y-28500000D03*
%TD*%
D12*
%TO.P,J3,1,Pin_1*%
%TO.N,Inductor2*%
X102500000Y-38500000D03*
%TD*%
D16*
%TO.P,BZ1,1,+*%
%TO.N,Net-(BZ1-+)*%
X130000000Y-30500000D03*
D17*
%TO.P,BZ1,2,-*%
%TO.N,GND*%
X135000000Y-30500000D03*
%TD*%
D18*
%TO.P,C1,1*%
%TO.N,Net-(U1-THR)*%
X57500000Y-39500000D03*
D14*
%TO.P,C1,2*%
%TO.N,GND*%
X57500000Y-37000000D03*
%TD*%
D12*
%TO.P,J9,1,Pin_1*%
%TO.N,5V*%
X81920000Y-28500000D03*
D13*
%TO.P,J9,2,Pin_2*%
%TO.N,Net-(J9-Pin_2)*%
X84460000Y-28500000D03*
%TO.P,J9,3,Pin_3*%
%TO.N,GND*%
X87000000Y-28500000D03*
%TD*%
D19*
%TO.P,J2,1,1*%
%TO.N,Net-(U2-PA3)*%
X138000000Y-52000000D03*
D20*
%TO.P,J2,2,2*%
%TO.N,GND*%
X133800000Y-52000000D03*
%TO.P,J2,3,3*%
%TO.N,unconnected-(J2-Pad3)*%
X129600000Y-52000000D03*
%TO.P,J2,4,4*%
%TO.N,Net-(U2-PA2)*%
X138000000Y-46500000D03*
%TO.P,J2,5,5*%
%TO.N,unconnected-(J2-Pad5)*%
X133800000Y-46500000D03*
%TO.P,J2,6,6*%
%TO.N,5V*%
X129600000Y-46500000D03*
%TD*%
D14*
%TO.P,R2,1*%
%TO.N,Net-(C3-Pad2)*%
X82650000Y-59000000D03*
D15*
%TO.P,R2,2*%
%TO.N,Net-(U2-PA5)*%
X95350000Y-59000000D03*
%TD*%
D18*
%TO.P,C2,1*%
%TO.N,Net-(U1-THR)*%
X78500000Y-38642500D03*
D14*
%TO.P,C2,2*%
%TO.N,Inductor2*%
X81000000Y-38642500D03*
%TD*%
D21*
%TO.P,U2,1,PA7*%
%TO.N,unconnected-(U2-PA7-Pad1)*%
X115000000Y-27000000D03*
D22*
%TO.P,U2,2,PC0*%
%TO.N,unconnected-(U2-PC0-Pad2)*%
X115000000Y-29540000D03*
%TO.P,U2,3,PC1*%
%TO.N,unconnected-(U2-PC1-Pad3)*%
X115000000Y-32080000D03*
%TO.P,U2,4,PC2*%
%TO.N,Net-(U2-PA5)*%
X115000000Y-34620000D03*
%TO.P,U2,5,PC3*%
%TO.N,unconnected-(U2-PC3-Pad5)*%
X115000000Y-37160000D03*
%TO.P,U2,6,VDDIO2*%
%TO.N,5V*%
X115000000Y-39700000D03*
%TO.P,U2,7,PD1*%
%TO.N,Net-(BZ1-+)*%
X115000000Y-42240000D03*
%TO.P,U2,8,PD2*%
%TO.N,unconnected-(U2-PD2-Pad8)*%
X115000000Y-44780000D03*
%TO.P,U2,9,PD3*%
%TO.N,unconnected-(U2-PD3-Pad9)*%
X115000000Y-47320000D03*
%TO.P,U2,10,PD4*%
%TO.N,Net-(U2-PA5)*%
X115000000Y-49860000D03*
%TO.P,U2,11,PD5*%
%TO.N,unconnected-(U2-PD5-Pad11)*%
X115000000Y-52400000D03*
%TO.P,U2,12,PD6*%
%TO.N,unconnected-(U2-PD6-Pad12)*%
X115000000Y-54940000D03*
%TO.P,U2,13,VREFA/PD7*%
%TO.N,unconnected-(U2-VREFA{slash}PD7-Pad13)*%
X115000000Y-57480000D03*
%TO.P,U2,14,AVDD*%
%TO.N,5V*%
X115000000Y-60020000D03*
%TO.P,U2,15,AGND*%
%TO.N,GND*%
X122620000Y-60020000D03*
%TO.P,U2,16,XTAL32K1/PF0*%
%TO.N,unconnected-(U2-XTAL32K1{slash}PF0-Pad16)*%
X122620000Y-57480000D03*
%TO.P,U2,17,XTAL32K2/PF1*%
%TO.N,unconnected-(U2-XTAL32K2{slash}PF1-Pad17)*%
X122620000Y-54940000D03*
%TO.P,U2,18,~{RESET}/PF6*%
%TO.N,unconnected-(U2-~{RESET}{slash}PF6-Pad18)*%
X122620000Y-52400000D03*
%TO.P,U2,19,UPDI*%
%TO.N,Net-(J9-Pin_2)*%
X122620000Y-49860000D03*
%TO.P,U2,20,VDD*%
%TO.N,5V*%
X122620000Y-47320000D03*
%TO.P,U2,21,GND*%
%TO.N,GND*%
X122620000Y-44780000D03*
%TO.P,U2,22,XTALHF1/PA0*%
%TO.N,unconnected-(U2-XTALHF1{slash}PA0-Pad22)*%
X122620000Y-42240000D03*
%TO.P,U2,23,XTALHF2/PA1*%
%TO.N,unconnected-(U2-XTALHF2{slash}PA1-Pad23)*%
X122620000Y-39700000D03*
%TO.P,U2,24,PA2*%
%TO.N,Net-(U2-PA2)*%
X122620000Y-37160000D03*
%TO.P,U2,25,PA3*%
%TO.N,Net-(U2-PA3)*%
X122620000Y-34620000D03*
%TO.P,U2,26,PA4*%
%TO.N,ECHO input*%
X122620000Y-32080000D03*
%TO.P,U2,27,PA5*%
%TO.N,Net-(U2-PA5)*%
X122620000Y-29540000D03*
%TO.P,U2,28,PA6*%
%TO.N,TRIGGER output*%
X122620000Y-27000000D03*
%TD*%
D18*
%TO.P,C3,1*%
%TO.N,Inductor*%
X67000000Y-50500000D03*
D14*
%TO.P,C3,2*%
%TO.N,Net-(C3-Pad2)*%
X69500000Y-50500000D03*
%TD*%
D23*
%TO.N,9v*%
X74500000Y-38500000D03*
X74500000Y-41000000D03*
%TO.N,Net-(BZ1-+)*%
X111000000Y-42500000D03*
X111000000Y-22000000D03*
X111000000Y-25000000D03*
%TO.N,Inductor*%
X73000000Y-54500000D03*
X77500000Y-54500000D03*
%TO.N,Net-(J9-Pin_2)*%
X109000000Y-51500000D03*
X109000000Y-54500000D03*
%TO.N,ECHO input*%
X126000000Y-24000000D03*
X124000000Y-24000000D03*
%TO.N,Net-(U2-PA2)*%
X138000000Y-41500000D03*
%TO.N,Net-(U2-PA3)*%
X125000000Y-38000000D03*
X138000000Y-56500000D03*
X125000000Y-36500000D03*
%TD*%
D24*
%TO.N,Net-(U2-PA5)*%
X113360000Y-49860000D02*
X115000000Y-49860000D01*
X113000000Y-49500000D02*
X113360000Y-49860000D01*
X112500000Y-49500000D02*
X113000000Y-49500000D01*
%TO.N,9v*%
X64880000Y-42120000D02*
X64880000Y-44880000D01*
X72500000Y-31000000D02*
X72500000Y-34500000D01*
X74500000Y-38500000D02*
X74500000Y-34500000D01*
X64880000Y-44880000D02*
X65000000Y-45000000D01*
X70000000Y-28500000D02*
X72500000Y-31000000D01*
X74500000Y-45000000D02*
X74500000Y-41000000D01*
X74500000Y-34500000D02*
X72500000Y-34500000D01*
X65000000Y-45000000D02*
X74500000Y-45000000D01*
%TO.N,Net-(BZ1-+)*%
X130000000Y-22000000D02*
X111000000Y-22000000D01*
X130000000Y-30500000D02*
X130000000Y-22000000D01*
X111000000Y-25000000D02*
X111000000Y-42500000D01*
%TO.N,Net-(U1-THR)*%
X62420000Y-39500000D02*
X64880000Y-37040000D01*
X57500000Y-39500000D02*
X62420000Y-39500000D01*
X77562500Y-39580000D02*
X78500000Y-38642500D01*
X78500000Y-38642500D02*
X78500000Y-44350000D01*
X72500000Y-39580000D02*
X77562500Y-39580000D01*
X78500000Y-44350000D02*
X82650000Y-48500000D01*
%TO.N,Inductor*%
X95350000Y-48500000D02*
X102500000Y-48500000D01*
X63500000Y-40500000D02*
X63500000Y-40000000D01*
X63500000Y-40000000D02*
X64460000Y-40000000D01*
X95350000Y-53650000D02*
X94500000Y-54500000D01*
X61000000Y-43000000D02*
X63500000Y-40500000D01*
X67000000Y-50500000D02*
X67000000Y-49000000D01*
X71000000Y-54500000D02*
X73000000Y-54500000D01*
X67000000Y-49000000D02*
X61000000Y-43000000D01*
X64460000Y-40000000D02*
X64880000Y-39580000D01*
X67000000Y-50500000D02*
X71000000Y-54500000D01*
X94500000Y-54500000D02*
X77500000Y-54500000D01*
X95350000Y-48500000D02*
X95350000Y-53650000D01*
%TO.N,Net-(J9-Pin_2)*%
X84460000Y-28500000D02*
X84460000Y-33960000D01*
X124500000Y-62500000D02*
X124500000Y-51740000D01*
X109000000Y-34000000D02*
X109000000Y-51500000D01*
X84460000Y-33960000D02*
X84500000Y-34000000D01*
X84500000Y-34000000D02*
X109000000Y-34000000D01*
X109000000Y-54500000D02*
X109000000Y-62500000D01*
X109000000Y-62500000D02*
X124500000Y-62500000D01*
X124500000Y-51740000D02*
X122620000Y-49860000D01*
%TO.N,Net-(U2-PA5)*%
X112500000Y-49500000D02*
X112500000Y-37120000D01*
X112500000Y-37120000D02*
X115000000Y-34620000D01*
X95350000Y-59000000D02*
X103000000Y-59000000D01*
X103000000Y-59000000D02*
X112500000Y-49500000D01*
%TO.N,ECHO input*%
X108500000Y-24000000D02*
X124000000Y-24000000D01*
X124000000Y-27500000D02*
X124000000Y-32000000D01*
X126000000Y-27500000D02*
X124000000Y-27500000D01*
X124000000Y-32000000D02*
X123920000Y-32080000D01*
X123920000Y-32080000D02*
X122620000Y-32080000D01*
X126000000Y-24000000D02*
X126000000Y-27500000D01*
X104000000Y-28500000D02*
X108500000Y-24000000D01*
%TO.N,Net-(U2-PA2)*%
X138000000Y-41500000D02*
X133660000Y-37160000D01*
X133660000Y-37160000D02*
X122620000Y-37160000D01*
%TO.N,TRIGGER output*%
X125000000Y-23000000D02*
X125000000Y-27000000D01*
X125000000Y-27000000D02*
X122620000Y-27000000D01*
X106960000Y-23000000D02*
X125000000Y-23000000D01*
X101460000Y-28500000D02*
X106960000Y-23000000D01*
%TO.N,Net-(U2-PA3)*%
X126500000Y-56500000D02*
X126000000Y-56000000D01*
X124120000Y-34620000D02*
X122620000Y-34620000D01*
X126000000Y-39000000D02*
X125000000Y-38000000D01*
X126000000Y-56000000D02*
X126000000Y-39000000D01*
X125000000Y-36500000D02*
X125000000Y-35000000D01*
X138000000Y-56500000D02*
X126500000Y-56500000D01*
X125000000Y-35000000D02*
X124500000Y-35000000D01*
X124500000Y-35000000D02*
X124120000Y-34620000D01*
X138000000Y-52000000D02*
X137532233Y-52000000D01*
%TO.N,Net-(C3-Pad2)*%
X79500000Y-59000000D02*
X82650000Y-59000000D01*
X69500000Y-50500000D02*
X71000000Y-50500000D01*
X71000000Y-50500000D02*
X79500000Y-59000000D01*
%TO.N,Inductor2*%
X102500000Y-38500000D02*
X102357500Y-38642500D01*
X102357500Y-38642500D02*
X81000000Y-38642500D01*
%TD*%
%TA.AperFunction,Conductor*%
%TO.N,5V*%
G36*
X123484627Y-24620185D02*
G01*
X123494903Y-24627555D01*
X123497736Y-24629814D01*
X123497738Y-24629816D01*
X123650478Y-24725789D01*
X123820742Y-24785367D01*
X123820745Y-24785368D01*
X123820750Y-24785369D01*
X123999996Y-24805565D01*
X124000000Y-24805565D01*
X124000004Y-24805565D01*
X124179249Y-24785369D01*
X124179250Y-24785368D01*
X124179255Y-24785368D01*
X124234545Y-24766020D01*
X124304322Y-24762458D01*
X124364950Y-24797186D01*
X124397178Y-24859179D01*
X124399500Y-24883062D01*
X124399500Y-26275500D01*
X124379815Y-26342539D01*
X124327011Y-26388294D01*
X124275500Y-26399500D01*
X123682997Y-26399500D01*
X123615958Y-26379815D01*
X123584046Y-26350230D01*
X123481591Y-26214556D01*
X123481586Y-26214551D01*
X123481585Y-26214550D01*
X123322597Y-26069614D01*
X123282811Y-26044979D01*
X123139674Y-25956353D01*
X122939056Y-25878633D01*
X122727573Y-25839100D01*
X122512427Y-25839100D01*
X122300944Y-25878633D01*
X122174075Y-25927782D01*
X122100328Y-25956352D01*
X122100327Y-25956352D01*
X121917402Y-26069614D01*
X121758414Y-26214550D01*
X121758407Y-26214558D01*
X121628760Y-26386239D01*
X121628751Y-26386253D01*
X121532860Y-26578827D01*
X121532855Y-26578840D01*
X121473977Y-26785771D01*
X121454127Y-26999999D01*
X121454127Y-27000000D01*
X121473977Y-27214228D01*
X121532855Y-27421159D01*
X121532860Y-27421172D01*
X121628751Y-27613746D01*
X121628753Y-27613749D01*
X121628755Y-27613753D01*
X121628758Y-27613757D01*
X121628760Y-27613760D01*
X121639966Y-27628599D01*
X121758409Y-27785444D01*
X121758412Y-27785446D01*
X121758414Y-27785449D01*
X121917402Y-27930385D01*
X121917404Y-27930386D01*
X121917405Y-27930387D01*
X122100326Y-28043647D01*
X122300944Y-28121367D01*
X122444015Y-28148111D01*
X122506295Y-28179779D01*
X122541568Y-28240092D01*
X122538634Y-28309900D01*
X122498425Y-28367040D01*
X122444015Y-28391888D01*
X122300944Y-28418633D01*
X122174075Y-28467782D01*
X122100328Y-28496352D01*
X122100327Y-28496352D01*
X121917402Y-28609614D01*
X121758414Y-28754550D01*
X121758407Y-28754558D01*
X121628760Y-28926239D01*
X121628751Y-28926253D01*
X121532860Y-29118827D01*
X121532855Y-29118840D01*
X121473977Y-29325771D01*
X121454127Y-29539999D01*
X121454127Y-29540000D01*
X121473977Y-29754228D01*
X121532855Y-29961159D01*
X121532860Y-29961172D01*
X121628751Y-30153746D01*
X121628753Y-30153749D01*
X121628755Y-30153753D01*
X121758409Y-30325444D01*
X121758412Y-30325446D01*
X121758414Y-30325449D01*
X121917402Y-30470385D01*
X121917404Y-30470386D01*
X121917405Y-30470387D01*
X122100326Y-30583647D01*
X122300944Y-30661367D01*
X122444015Y-30688111D01*
X122506295Y-30719779D01*
X122541568Y-30780092D01*
X122538634Y-30849900D01*
X122498425Y-30907040D01*
X122444015Y-30931888D01*
X122300944Y-30958633D01*
X122222865Y-30988881D01*
X122100328Y-31036352D01*
X122100327Y-31036352D01*
X121917402Y-31149614D01*
X121758414Y-31294550D01*
X121758407Y-31294558D01*
X121628760Y-31466239D01*
X121628751Y-31466253D01*
X121532860Y-31658827D01*
X121532855Y-31658840D01*
X121473977Y-31865771D01*
X121454127Y-32079999D01*
X121454127Y-32080000D01*
X121473977Y-32294228D01*
X121532855Y-32501159D01*
X121532860Y-32501172D01*
X121628751Y-32693746D01*
X121628753Y-32693749D01*
X121628755Y-32693753D01*
X121628758Y-32693757D01*
X121628760Y-32693760D01*
X121696008Y-32782811D01*
X121758409Y-32865444D01*
X121758412Y-32865446D01*
X121758414Y-32865449D01*
X121917402Y-33010385D01*
X121917404Y-33010386D01*
X121917405Y-33010387D01*
X122100326Y-33123647D01*
X122300944Y-33201367D01*
X122444015Y-33228111D01*
X122506295Y-33259779D01*
X122541568Y-33320092D01*
X122538634Y-33389900D01*
X122498425Y-33447040D01*
X122444015Y-33471888D01*
X122300944Y-33498633D01*
X122174075Y-33547782D01*
X122100328Y-33576352D01*
X122100327Y-33576352D01*
X121917402Y-33689614D01*
X121758414Y-33834550D01*
X121758407Y-33834558D01*
X121628760Y-34006239D01*
X121628751Y-34006253D01*
X121532860Y-34198827D01*
X121532855Y-34198840D01*
X121473977Y-34405771D01*
X121454127Y-34619999D01*
X121454127Y-34620000D01*
X121473977Y-34834228D01*
X121532855Y-35041159D01*
X121532860Y-35041172D01*
X121628751Y-35233746D01*
X121628753Y-35233749D01*
X121628755Y-35233753D01*
X121628758Y-35233757D01*
X121628760Y-35233760D01*
X121673709Y-35293282D01*
X121758409Y-35405444D01*
X121758412Y-35405446D01*
X121758414Y-35405449D01*
X121917402Y-35550385D01*
X121917404Y-35550386D01*
X121917405Y-35550387D01*
X122100326Y-35663647D01*
X122300944Y-35741367D01*
X122444015Y-35768111D01*
X122506295Y-35799779D01*
X122541568Y-35860092D01*
X122538634Y-35929900D01*
X122498425Y-35987040D01*
X122444015Y-36011888D01*
X122300944Y-36038633D01*
X122174075Y-36087782D01*
X122100328Y-36116352D01*
X122100327Y-36116352D01*
X121917402Y-36229614D01*
X121758414Y-36374550D01*
X121758407Y-36374558D01*
X121628760Y-36546239D01*
X121628751Y-36546253D01*
X121532860Y-36738827D01*
X121532855Y-36738840D01*
X121473977Y-36945771D01*
X121454127Y-37159999D01*
X121454127Y-37160000D01*
X121473977Y-37374228D01*
X121532855Y-37581159D01*
X121532860Y-37581172D01*
X121628751Y-37773746D01*
X121628753Y-37773749D01*
X121628755Y-37773753D01*
X121628758Y-37773757D01*
X121628760Y-37773760D01*
X121678130Y-37839137D01*
X121758409Y-37945444D01*
X121758412Y-37945446D01*
X121758414Y-37945449D01*
X121917402Y-38090385D01*
X121917404Y-38090386D01*
X121917405Y-38090387D01*
X122100326Y-38203647D01*
X122300944Y-38281367D01*
X122444015Y-38308111D01*
X122506295Y-38339779D01*
X122541568Y-38400092D01*
X122538634Y-38469900D01*
X122498425Y-38527040D01*
X122444015Y-38551888D01*
X122300944Y-38578633D01*
X122174075Y-38627782D01*
X122100328Y-38656352D01*
X122100327Y-38656352D01*
X121917402Y-38769614D01*
X121758414Y-38914550D01*
X121758407Y-38914558D01*
X121628760Y-39086239D01*
X121628751Y-39086253D01*
X121532860Y-39278827D01*
X121532855Y-39278840D01*
X121473977Y-39485771D01*
X121454127Y-39699999D01*
X121454127Y-39700000D01*
X121473977Y-39914228D01*
X121532855Y-40121159D01*
X121532860Y-40121172D01*
X121628751Y-40313746D01*
X121628753Y-40313749D01*
X121628755Y-40313753D01*
X121628758Y-40313757D01*
X121628760Y-40313760D01*
X121671369Y-40370184D01*
X121758409Y-40485444D01*
X121758412Y-40485446D01*
X121758414Y-40485449D01*
X121917402Y-40630385D01*
X121917404Y-40630386D01*
X121917405Y-40630387D01*
X122100326Y-40743647D01*
X122300944Y-40821367D01*
X122444015Y-40848111D01*
X122506295Y-40879779D01*
X122541568Y-40940092D01*
X122538634Y-41009900D01*
X122498425Y-41067040D01*
X122444015Y-41091888D01*
X122300944Y-41118633D01*
X122218748Y-41150476D01*
X122100328Y-41196352D01*
X122100327Y-41196352D01*
X121917402Y-41309614D01*
X121758414Y-41454550D01*
X121758407Y-41454558D01*
X121628760Y-41626239D01*
X121628751Y-41626253D01*
X121532860Y-41818827D01*
X121532855Y-41818840D01*
X121473977Y-42025771D01*
X121454127Y-42239999D01*
X121454127Y-42240000D01*
X121473977Y-42454228D01*
X121532855Y-42661159D01*
X121532860Y-42661172D01*
X121628751Y-42853746D01*
X121628753Y-42853749D01*
X121628755Y-42853753D01*
X121758409Y-43025444D01*
X121758412Y-43025446D01*
X121758414Y-43025449D01*
X121917402Y-43170385D01*
X121917404Y-43170386D01*
X121917405Y-43170387D01*
X122100326Y-43283647D01*
X122300944Y-43361367D01*
X122444015Y-43388111D01*
X122506295Y-43419779D01*
X122541568Y-43480092D01*
X122538634Y-43549900D01*
X122498425Y-43607040D01*
X122444015Y-43631888D01*
X122300944Y-43658633D01*
X122174075Y-43707782D01*
X122100328Y-43736352D01*
X122100327Y-43736352D01*
X121917402Y-43849614D01*
X121758414Y-43994550D01*
X121758407Y-43994558D01*
X121628760Y-44166239D01*
X121628751Y-44166253D01*
X121532860Y-44358827D01*
X121532855Y-44358840D01*
X121473977Y-44565771D01*
X121454127Y-44779999D01*
X121454127Y-44780000D01*
X121473977Y-44994228D01*
X121532855Y-45201159D01*
X121532860Y-45201172D01*
X121628751Y-45393746D01*
X121628753Y-45393749D01*
X121628755Y-45393753D01*
X121758409Y-45565444D01*
X121758412Y-45565446D01*
X121758414Y-45565449D01*
X121917402Y-45710385D01*
X121917404Y-45710386D01*
X121917405Y-45710387D01*
X122100326Y-45823647D01*
X122300944Y-45901367D01*
X122445375Y-45928365D01*
X122507655Y-45960033D01*
X122542928Y-46020346D01*
X122539994Y-46090154D01*
X122499785Y-46147294D01*
X122445374Y-46172143D01*
X122301083Y-46199116D01*
X122301082Y-46199116D01*
X122100552Y-46276801D01*
X121995437Y-46341884D01*
X122567154Y-46913600D01*
X122566496Y-46913600D01*
X122463135Y-46941295D01*
X122370464Y-46994799D01*
X122294799Y-47070464D01*
X122241295Y-47163135D01*
X122213600Y-47266496D01*
X122213600Y-47267153D01*
X121639411Y-46692964D01*
X121629179Y-46706515D01*
X121533325Y-46899015D01*
X121474471Y-47105868D01*
X121454629Y-47320000D01*
X121474471Y-47534131D01*
X121533325Y-47740984D01*
X121629182Y-47933489D01*
X121639410Y-47947034D01*
X121639411Y-47947035D01*
X122213600Y-47372846D01*
X122213600Y-47373504D01*
X122241295Y-47476865D01*
X122294799Y-47569536D01*
X122370464Y-47645201D01*
X122463135Y-47698705D01*
X122566496Y-47726400D01*
X122567153Y-47726400D01*
X121995437Y-48298114D01*
X122100551Y-48363197D01*
X122301082Y-48440883D01*
X122445374Y-48467856D01*
X122507655Y-48499524D01*
X122542928Y-48559836D01*
X122539994Y-48629644D01*
X122499786Y-48686785D01*
X122445375Y-48711634D01*
X122373841Y-48725006D01*
X122300944Y-48738633D01*
X122224600Y-48768209D01*
X122100328Y-48816352D01*
X122100327Y-48816352D01*
X121917402Y-48929614D01*
X121758414Y-49074550D01*
X121758407Y-49074558D01*
X121628760Y-49246239D01*
X121628751Y-49246253D01*
X121532860Y-49438827D01*
X121532855Y-49438840D01*
X121473977Y-49645771D01*
X121454127Y-49859999D01*
X121454127Y-49860000D01*
X121473977Y-50074228D01*
X121532855Y-50281159D01*
X121532860Y-50281172D01*
X121628751Y-50473746D01*
X121628753Y-50473749D01*
X121628755Y-50473753D01*
X121628758Y-50473757D01*
X121628760Y-50473760D01*
X121685956Y-50549500D01*
X121758409Y-50645444D01*
X121758412Y-50645446D01*
X121758414Y-50645449D01*
X121917402Y-50790385D01*
X121917404Y-50790386D01*
X121917405Y-50790387D01*
X122100326Y-50903647D01*
X122300944Y-50981367D01*
X122444015Y-51008111D01*
X122506295Y-51039779D01*
X122541568Y-51100092D01*
X122538634Y-51169900D01*
X122498425Y-51227040D01*
X122444015Y-51251888D01*
X122300944Y-51278633D01*
X122192241Y-51320745D01*
X122100328Y-51356352D01*
X122100327Y-51356352D01*
X121917402Y-51469614D01*
X121758414Y-51614550D01*
X121758407Y-51614558D01*
X121628760Y-51786239D01*
X121628751Y-51786253D01*
X121532860Y-51978827D01*
X121532855Y-51978840D01*
X121473977Y-52185771D01*
X121454127Y-52399999D01*
X121454127Y-52400000D01*
X121473977Y-52614228D01*
X121532855Y-52821159D01*
X121532860Y-52821172D01*
X121628751Y-53013746D01*
X121628753Y-53013749D01*
X121628755Y-53013753D01*
X121758409Y-53185444D01*
X121758412Y-53185446D01*
X121758414Y-53185449D01*
X121917402Y-53330385D01*
X121917404Y-53330386D01*
X121917405Y-53330387D01*
X122100326Y-53443647D01*
X122300944Y-53521367D01*
X122444015Y-53548111D01*
X122506295Y-53579779D01*
X122541568Y-53640092D01*
X122538634Y-53709900D01*
X122498425Y-53767040D01*
X122444015Y-53791888D01*
X122300944Y-53818633D01*
X122185953Y-53863181D01*
X122100328Y-53896352D01*
X122100327Y-53896352D01*
X121917402Y-54009614D01*
X121758414Y-54154550D01*
X121758407Y-54154558D01*
X121628760Y-54326239D01*
X121628751Y-54326253D01*
X121532860Y-54518827D01*
X121532855Y-54518840D01*
X121473977Y-54725771D01*
X121454127Y-54939999D01*
X121454127Y-54940000D01*
X121473977Y-55154228D01*
X121532855Y-55361159D01*
X121532860Y-55361172D01*
X121628751Y-55553746D01*
X121628753Y-55553749D01*
X121628755Y-55553753D01*
X121758409Y-55725444D01*
X121758412Y-55725446D01*
X121758414Y-55725449D01*
X121917402Y-55870385D01*
X121917404Y-55870386D01*
X121917405Y-55870387D01*
X122100326Y-55983647D01*
X122300944Y-56061367D01*
X122444015Y-56088111D01*
X122506295Y-56119779D01*
X122541568Y-56180092D01*
X122538634Y-56249900D01*
X122498425Y-56307040D01*
X122444015Y-56331888D01*
X122300944Y-56358633D01*
X122174075Y-56407782D01*
X122100328Y-56436352D01*
X122100327Y-56436352D01*
X121917402Y-56549614D01*
X121758414Y-56694550D01*
X121758407Y-56694558D01*
X121628760Y-56866239D01*
X121628751Y-56866253D01*
X121532860Y-57058827D01*
X121532855Y-57058840D01*
X121473977Y-57265771D01*
X121454127Y-57479999D01*
X121454127Y-57480000D01*
X121473977Y-57694228D01*
X121532855Y-57901159D01*
X121532860Y-57901172D01*
X121628751Y-58093746D01*
X121628753Y-58093749D01*
X121628755Y-58093753D01*
X121758409Y-58265444D01*
X121758412Y-58265446D01*
X121758414Y-58265449D01*
X121917402Y-58410385D01*
X121917404Y-58410386D01*
X121917405Y-58410387D01*
X122100326Y-58523647D01*
X122300944Y-58601367D01*
X122444015Y-58628111D01*
X122506295Y-58659779D01*
X122541568Y-58720092D01*
X122538634Y-58789900D01*
X122498425Y-58847040D01*
X122444015Y-58871888D01*
X122300944Y-58898633D01*
X122174075Y-58947782D01*
X122100328Y-58976352D01*
X122100327Y-58976352D01*
X121917402Y-59089614D01*
X121758414Y-59234550D01*
X121758407Y-59234558D01*
X121628760Y-59406239D01*
X121628751Y-59406253D01*
X121532860Y-59598827D01*
X121532855Y-59598840D01*
X121473977Y-59805771D01*
X121454127Y-60019999D01*
X121454127Y-60020000D01*
X121473977Y-60234228D01*
X121532855Y-60441159D01*
X121532860Y-60441172D01*
X121628751Y-60633746D01*
X121628753Y-60633749D01*
X121628755Y-60633753D01*
X121758409Y-60805444D01*
X121758412Y-60805446D01*
X121758414Y-60805449D01*
X121917402Y-60950385D01*
X121917404Y-60950386D01*
X121917405Y-60950387D01*
X122100326Y-61063647D01*
X122300944Y-61141367D01*
X122512427Y-61180900D01*
X122512429Y-61180900D01*
X122727571Y-61180900D01*
X122727573Y-61180900D01*
X122939056Y-61141367D01*
X123139674Y-61063647D01*
X123322595Y-60950387D01*
X123481591Y-60805444D01*
X123611245Y-60633753D01*
X123664500Y-60526803D01*
X123712003Y-60475566D01*
X123779666Y-60458145D01*
X123846006Y-60480071D01*
X123889961Y-60534382D01*
X123899500Y-60582075D01*
X123899500Y-61775500D01*
X123879815Y-61842539D01*
X123827011Y-61888294D01*
X123775500Y-61899500D01*
X109724500Y-61899500D01*
X109657461Y-61879815D01*
X109611706Y-61827011D01*
X109600500Y-61775500D01*
X109600500Y-55082412D01*
X109620185Y-55015373D01*
X109627555Y-55005097D01*
X109629810Y-55002267D01*
X109629816Y-55002262D01*
X109725789Y-54849522D01*
X109785368Y-54679255D01*
X109789890Y-54639124D01*
X109805565Y-54500003D01*
X109805565Y-54499996D01*
X109785369Y-54320750D01*
X109785368Y-54320745D01*
X109725789Y-54150478D01*
X109629816Y-53997738D01*
X109502262Y-53870184D01*
X109420219Y-53818633D01*
X109349521Y-53774210D01*
X109332447Y-53768236D01*
X109275671Y-53727514D01*
X109249923Y-53662562D01*
X109263379Y-53594000D01*
X109285717Y-53563516D01*
X112662322Y-50186912D01*
X112723641Y-50153430D01*
X112793333Y-50158414D01*
X112837680Y-50186915D01*
X112875139Y-50224374D01*
X112875149Y-50224385D01*
X112879479Y-50228715D01*
X112879480Y-50228716D01*
X112991284Y-50340520D01*
X113078095Y-50390639D01*
X113078097Y-50390641D01*
X113116151Y-50412611D01*
X113128215Y-50419577D01*
X113280943Y-50460501D01*
X113280946Y-50460501D01*
X113446653Y-50460501D01*
X113446669Y-50460500D01*
X113937003Y-50460500D01*
X114004042Y-50480185D01*
X114035953Y-50509769D01*
X114138409Y-50645444D01*
X114138412Y-50645446D01*
X114138413Y-50645448D01*
X114138414Y-50645449D01*
X114297402Y-50790385D01*
X114297404Y-50790386D01*
X114297405Y-50790387D01*
X114480326Y-50903647D01*
X114680944Y-50981367D01*
X114824015Y-51008111D01*
X114886295Y-51039779D01*
X114921568Y-51100092D01*
X114918634Y-51169900D01*
X114878425Y-51227040D01*
X114824015Y-51251888D01*
X114680944Y-51278633D01*
X114572241Y-51320745D01*
X114480328Y-51356352D01*
X114480327Y-51356352D01*
X114297402Y-51469614D01*
X114138414Y-51614550D01*
X114138407Y-51614558D01*
X114008760Y-51786239D01*
X114008751Y-51786253D01*
X113912860Y-51978827D01*
X113912855Y-51978840D01*
X113853977Y-52185771D01*
X113834127Y-52399999D01*
X113834127Y-52400000D01*
X113853977Y-52614228D01*
X113912855Y-52821159D01*
X113912860Y-52821172D01*
X114008751Y-53013746D01*
X114008753Y-53013749D01*
X114008755Y-53013753D01*
X114138409Y-53185444D01*
X114138412Y-53185446D01*
X114138414Y-53185449D01*
X114297402Y-53330385D01*
X114297404Y-53330386D01*
X114297405Y-53330387D01*
X114480326Y-53443647D01*
X114680944Y-53521367D01*
X114824015Y-53548111D01*
X114886295Y-53579779D01*
X114921568Y-53640092D01*
X114918634Y-53709900D01*
X114878425Y-53767040D01*
X114824015Y-53791888D01*
X114680944Y-53818633D01*
X114565953Y-53863181D01*
X114480328Y-53896352D01*
X114480327Y-53896352D01*
X114297402Y-54009614D01*
X114138414Y-54154550D01*
X114138407Y-54154558D01*
X114008760Y-54326239D01*
X114008751Y-54326253D01*
X113912860Y-54518827D01*
X113912855Y-54518840D01*
X113853977Y-54725771D01*
X113834127Y-54939999D01*
X113834127Y-54940000D01*
X113853977Y-55154228D01*
X113912855Y-55361159D01*
X113912860Y-55361172D01*
X114008751Y-55553746D01*
X114008753Y-55553749D01*
X114008755Y-55553753D01*
X114138409Y-55725444D01*
X114138412Y-55725446D01*
X114138414Y-55725449D01*
X114297402Y-55870385D01*
X114297404Y-55870386D01*
X114297405Y-55870387D01*
X114480326Y-55983647D01*
X114680944Y-56061367D01*
X114824015Y-56088111D01*
X114886295Y-56119779D01*
X114921568Y-56180092D01*
X114918634Y-56249900D01*
X114878425Y-56307040D01*
X114824015Y-56331888D01*
X114680944Y-56358633D01*
X114554075Y-56407782D01*
X114480328Y-56436352D01*
X114480327Y-56436352D01*
X114297402Y-56549614D01*
X114138414Y-56694550D01*
X114138407Y-56694558D01*
X114008760Y-56866239D01*
X114008751Y-56866253D01*
X113912860Y-57058827D01*
X113912855Y-57058840D01*
X113853977Y-57265771D01*
X113834127Y-57479999D01*
X113834127Y-57480000D01*
X113853977Y-57694228D01*
X113912855Y-57901159D01*
X113912860Y-57901172D01*
X114008751Y-58093746D01*
X114008753Y-58093749D01*
X114008755Y-58093753D01*
X114138409Y-58265444D01*
X114138412Y-58265446D01*
X114138414Y-58265449D01*
X114297402Y-58410385D01*
X114297404Y-58410386D01*
X114297405Y-58410387D01*
X114480326Y-58523647D01*
X114680944Y-58601367D01*
X114825375Y-58628365D01*
X114887655Y-58660033D01*
X114922928Y-58720346D01*
X114919994Y-58790154D01*
X114879785Y-58847294D01*
X114825374Y-58872143D01*
X114681083Y-58899116D01*
X114681082Y-58899116D01*
X114480552Y-58976801D01*
X114375437Y-59041884D01*
X114947154Y-59613600D01*
X114946496Y-59613600D01*
X114843135Y-59641295D01*
X114750464Y-59694799D01*
X114674799Y-59770464D01*
X114621295Y-59863135D01*
X114593600Y-59966496D01*
X114593600Y-59967153D01*
X114019411Y-59392964D01*
X114009179Y-59406515D01*
X113913325Y-59599015D01*
X113854471Y-59805868D01*
X113834629Y-60020000D01*
X113854471Y-60234131D01*
X113913325Y-60440984D01*
X114009182Y-60633489D01*
X114019410Y-60647034D01*
X114019411Y-60647035D01*
X114593600Y-60072846D01*
X114593600Y-60073504D01*
X114621295Y-60176865D01*
X114674799Y-60269536D01*
X114750464Y-60345201D01*
X114843135Y-60398705D01*
X114946496Y-60426400D01*
X114947153Y-60426400D01*
X114375437Y-60998114D01*
X114480551Y-61063197D01*
X114681083Y-61140883D01*
X114892475Y-61180400D01*
X115107525Y-61180400D01*
X115318916Y-61140883D01*
X115318926Y-61140880D01*
X115519450Y-61063197D01*
X115519452Y-61063196D01*
X115624561Y-60998114D01*
X115052848Y-60426400D01*
X115053504Y-60426400D01*
X115156865Y-60398705D01*
X115249536Y-60345201D01*
X115325201Y-60269536D01*
X115378705Y-60176865D01*
X115406400Y-60073504D01*
X115406400Y-60072847D01*
X115980588Y-60647035D01*
X115990816Y-60633491D01*
X116086674Y-60440984D01*
X116145528Y-60234131D01*
X116165370Y-60020000D01*
X116145528Y-59805868D01*
X116086674Y-59599015D01*
X115990821Y-59406517D01*
X115990813Y-59406504D01*
X115980587Y-59392963D01*
X115406400Y-59967151D01*
X115406400Y-59966496D01*
X115378705Y-59863135D01*
X115325201Y-59770464D01*
X115249536Y-59694799D01*
X115156865Y-59641295D01*
X115053504Y-59613600D01*
X115052847Y-59613600D01*
X115624561Y-59041884D01*
X115624560Y-59041883D01*
X115519454Y-58976804D01*
X115519448Y-58976802D01*
X115318916Y-58899116D01*
X115174625Y-58872143D01*
X115112344Y-58840475D01*
X115077071Y-58780162D01*
X115080005Y-58710354D01*
X115120214Y-58653214D01*
X115174621Y-58628366D01*
X115319056Y-58601367D01*
X115519674Y-58523647D01*
X115702595Y-58410387D01*
X115861591Y-58265444D01*
X115991245Y-58093753D01*
X116087144Y-57901162D01*
X116146022Y-57694229D01*
X116165873Y-57480000D01*
X116146022Y-57265771D01*
X116087144Y-57058838D01*
X116078093Y-57040662D01*
X115991248Y-56866253D01*
X115991247Y-56866252D01*
X115991245Y-56866247D01*
X115861591Y-56694556D01*
X115861587Y-56694552D01*
X115861585Y-56694550D01*
X115702597Y-56549614D01*
X115622467Y-56500000D01*
X115519674Y-56436353D01*
X115319056Y-56358633D01*
X115175983Y-56331888D01*
X115113704Y-56300221D01*
X115078431Y-56239908D01*
X115081365Y-56170100D01*
X115121574Y-56112960D01*
X115175982Y-56088111D01*
X115319056Y-56061367D01*
X115519674Y-55983647D01*
X115702595Y-55870387D01*
X115861591Y-55725444D01*
X115991245Y-55553753D01*
X116087144Y-55361162D01*
X116146022Y-55154229D01*
X116165873Y-54940000D01*
X116146022Y-54725771D01*
X116087144Y-54518838D01*
X116078093Y-54500662D01*
X115991248Y-54326253D01*
X115991247Y-54326252D01*
X115991245Y-54326247D01*
X115861591Y-54154556D01*
X115861587Y-54154552D01*
X115861585Y-54154550D01*
X115702597Y-54009614D01*
X115662811Y-53984979D01*
X115519674Y-53896353D01*
X115319056Y-53818633D01*
X115175983Y-53791888D01*
X115113704Y-53760221D01*
X115078431Y-53699908D01*
X115081365Y-53630100D01*
X115121574Y-53572960D01*
X115175982Y-53548111D01*
X115319056Y-53521367D01*
X115519674Y-53443647D01*
X115702595Y-53330387D01*
X115861591Y-53185444D01*
X115991245Y-53013753D01*
X116087144Y-52821162D01*
X116146022Y-52614229D01*
X116165873Y-52400000D01*
X116146022Y-52185771D01*
X116087144Y-51978838D01*
X116073750Y-51951940D01*
X115991248Y-51786253D01*
X115991247Y-51786252D01*
X115991245Y-51786247D01*
X115861591Y-51614556D01*
X115861587Y-51614552D01*
X115861585Y-51614550D01*
X115702597Y-51469614D01*
X115662811Y-51444979D01*
X115519674Y-51356353D01*
X115319056Y-51278633D01*
X115175983Y-51251888D01*
X115113704Y-51220221D01*
X115078431Y-51159908D01*
X115081365Y-51090100D01*
X115121574Y-51032960D01*
X115175982Y-51008111D01*
X115319056Y-50981367D01*
X115519674Y-50903647D01*
X115702595Y-50790387D01*
X115861591Y-50645444D01*
X115991245Y-50473753D01*
X116087144Y-50281162D01*
X116146022Y-50074229D01*
X116165873Y-49860000D01*
X116164633Y-49846623D01*
X116146022Y-49645771D01*
X116130816Y-49592328D01*
X116087144Y-49438838D01*
X116066747Y-49397876D01*
X115991248Y-49246253D01*
X115991247Y-49246252D01*
X115991245Y-49246247D01*
X115861591Y-49074556D01*
X115861586Y-49074551D01*
X115861585Y-49074550D01*
X115702597Y-48929614D01*
X115653958Y-48899498D01*
X115519674Y-48816353D01*
X115319056Y-48738633D01*
X115175983Y-48711888D01*
X115113704Y-48680221D01*
X115078431Y-48619908D01*
X115081365Y-48550100D01*
X115121574Y-48492960D01*
X115175982Y-48468111D01*
X115319056Y-48441367D01*
X115519674Y-48363647D01*
X115702595Y-48250387D01*
X115861591Y-48105444D01*
X115991245Y-47933753D01*
X116087144Y-47741162D01*
X116146022Y-47534229D01*
X116165873Y-47320000D01*
X116154753Y-47200000D01*
X116146022Y-47105771D01*
X116135976Y-47070464D01*
X116087144Y-46898838D01*
X116053650Y-46831574D01*
X115991248Y-46706253D01*
X115991247Y-46706252D01*
X115991245Y-46706247D01*
X115861591Y-46534556D01*
X115861587Y-46534552D01*
X115861585Y-46534550D01*
X115702597Y-46389614D01*
X115625508Y-46341883D01*
X115519674Y-46276353D01*
X115319056Y-46198633D01*
X115175983Y-46171888D01*
X115113704Y-46140221D01*
X115078431Y-46079908D01*
X115081365Y-46010100D01*
X115121574Y-45952960D01*
X115175982Y-45928111D01*
X115319056Y-45901367D01*
X115519674Y-45823647D01*
X115702595Y-45710387D01*
X115861591Y-45565444D01*
X115991245Y-45393753D01*
X116087144Y-45201162D01*
X116146022Y-44994229D01*
X116165873Y-44780000D01*
X116146022Y-44565771D01*
X116087144Y-44358838D01*
X116043377Y-44270943D01*
X115991248Y-44166253D01*
X115991247Y-44166252D01*
X115991245Y-44166247D01*
X115861591Y-43994556D01*
X115861587Y-43994552D01*
X115861585Y-43994550D01*
X115702597Y-43849614D01*
X115662811Y-43824979D01*
X115519674Y-43736353D01*
X115319056Y-43658633D01*
X115175983Y-43631888D01*
X115113704Y-43600221D01*
X115078431Y-43539908D01*
X115081365Y-43470100D01*
X115121574Y-43412960D01*
X115175982Y-43388111D01*
X115319056Y-43361367D01*
X115519674Y-43283647D01*
X115702595Y-43170387D01*
X115861591Y-43025444D01*
X115991245Y-42853753D01*
X116087144Y-42661162D01*
X116146022Y-42454229D01*
X116165873Y-42240000D01*
X116157577Y-42150476D01*
X116146022Y-42025771D01*
X116138046Y-41997738D01*
X116087144Y-41818838D01*
X116017639Y-41679254D01*
X115991248Y-41626253D01*
X115991247Y-41626252D01*
X115991245Y-41626247D01*
X115861591Y-41454556D01*
X115861587Y-41454552D01*
X115861585Y-41454550D01*
X115702597Y-41309614D01*
X115662811Y-41284979D01*
X115519674Y-41196353D01*
X115319056Y-41118633D01*
X115174623Y-41091633D01*
X115112344Y-41059965D01*
X115077071Y-40999653D01*
X115080005Y-40929845D01*
X115120214Y-40872705D01*
X115174626Y-40847856D01*
X115318915Y-40820884D01*
X115318926Y-40820880D01*
X115519450Y-40743197D01*
X115519452Y-40743196D01*
X115624561Y-40678114D01*
X115052848Y-40106400D01*
X115053504Y-40106400D01*
X115156865Y-40078705D01*
X115249536Y-40025201D01*
X115325201Y-39949536D01*
X115378705Y-39856865D01*
X115406400Y-39753504D01*
X115406400Y-39752847D01*
X115980588Y-40327035D01*
X115990816Y-40313491D01*
X116086674Y-40120984D01*
X116145528Y-39914131D01*
X116165370Y-39700000D01*
X116145528Y-39485868D01*
X116086674Y-39279015D01*
X115990821Y-39086517D01*
X115990813Y-39086504D01*
X115980587Y-39072963D01*
X115406400Y-39647151D01*
X115406400Y-39646496D01*
X115378705Y-39543135D01*
X115325201Y-39450464D01*
X115249536Y-39374799D01*
X115156865Y-39321295D01*
X115053504Y-39293600D01*
X115052847Y-39293600D01*
X115624561Y-38721884D01*
X115624560Y-38721883D01*
X115519454Y-38656804D01*
X115519448Y-38656802D01*
X115318916Y-38579116D01*
X115174625Y-38552143D01*
X115112344Y-38520475D01*
X115077071Y-38460162D01*
X115080005Y-38390354D01*
X115120214Y-38333214D01*
X115174621Y-38308366D01*
X115319056Y-38281367D01*
X115519674Y-38203647D01*
X115702595Y-38090387D01*
X115861591Y-37945444D01*
X115991245Y-37773753D01*
X116087144Y-37581162D01*
X116146022Y-37374229D01*
X116165873Y-37160000D01*
X116154753Y-37040000D01*
X116146022Y-36945771D01*
X116118120Y-36847707D01*
X116087144Y-36738838D01*
X116057587Y-36679480D01*
X115991248Y-36546253D01*
X115991247Y-36546252D01*
X115991245Y-36546247D01*
X115861591Y-36374556D01*
X115861586Y-36374551D01*
X115861585Y-36374550D01*
X115702597Y-36229614D01*
X115662811Y-36204979D01*
X115519674Y-36116353D01*
X115319056Y-36038633D01*
X115175983Y-36011888D01*
X115113704Y-35980221D01*
X115078431Y-35919908D01*
X115081365Y-35850100D01*
X115121574Y-35792960D01*
X115175982Y-35768111D01*
X115319056Y-35741367D01*
X115519674Y-35663647D01*
X115702595Y-35550387D01*
X115861591Y-35405444D01*
X115991245Y-35233753D01*
X116087144Y-35041162D01*
X116146022Y-34834229D01*
X116165873Y-34620000D01*
X116154753Y-34500000D01*
X116146022Y-34405771D01*
X116124097Y-34328715D01*
X116087144Y-34198838D01*
X116057587Y-34139480D01*
X115991248Y-34006253D01*
X115991247Y-34006252D01*
X115991245Y-34006247D01*
X115861591Y-33834556D01*
X115861586Y-33834551D01*
X115861585Y-33834550D01*
X115702597Y-33689614D01*
X115608400Y-33631290D01*
X115519674Y-33576353D01*
X115319056Y-33498633D01*
X115175983Y-33471888D01*
X115113704Y-33440221D01*
X115078431Y-33379908D01*
X115081365Y-33310100D01*
X115121574Y-33252960D01*
X115175982Y-33228111D01*
X115319056Y-33201367D01*
X115519674Y-33123647D01*
X115702595Y-33010387D01*
X115861591Y-32865444D01*
X115991245Y-32693753D01*
X116087144Y-32501162D01*
X116146022Y-32294229D01*
X116165873Y-32080000D01*
X116165785Y-32079055D01*
X116146022Y-31865771D01*
X116110899Y-31742328D01*
X116087144Y-31658838D01*
X116061699Y-31607738D01*
X115991248Y-31466253D01*
X115991247Y-31466252D01*
X115991245Y-31466247D01*
X115861591Y-31294556D01*
X115861587Y-31294552D01*
X115861585Y-31294550D01*
X115702597Y-31149614D01*
X115618179Y-31097345D01*
X115519674Y-31036353D01*
X115319056Y-30958633D01*
X115175983Y-30931888D01*
X115113704Y-30900221D01*
X115078431Y-30839908D01*
X115081365Y-30770100D01*
X115121574Y-30712960D01*
X115175982Y-30688111D01*
X115319056Y-30661367D01*
X115519674Y-30583647D01*
X115702595Y-30470387D01*
X115861591Y-30325444D01*
X115991245Y-30153753D01*
X116087144Y-29961162D01*
X116146022Y-29754229D01*
X116165873Y-29540000D01*
X116158216Y-29457372D01*
X116146022Y-29325771D01*
X116103930Y-29177834D01*
X116087144Y-29118838D01*
X116030911Y-29005908D01*
X115991248Y-28926253D01*
X115991247Y-28926252D01*
X115991245Y-28926247D01*
X115861591Y-28754556D01*
X115861587Y-28754552D01*
X115861585Y-28754550D01*
X115702597Y-28609614D01*
X115662811Y-28584979D01*
X115519674Y-28496353D01*
X115319056Y-28418633D01*
X115255687Y-28406787D01*
X115193408Y-28375119D01*
X115158135Y-28314807D01*
X115161069Y-28244999D01*
X115201278Y-28187859D01*
X115265996Y-28161528D01*
X115278467Y-28160899D01*
X115708272Y-28160899D01*
X115767883Y-28154491D01*
X115902731Y-28104196D01*
X116017946Y-28017946D01*
X116104196Y-27902731D01*
X116154491Y-27767883D01*
X116160900Y-27708273D01*
X116160899Y-26291728D01*
X116154491Y-26232117D01*
X116147941Y-26214556D01*
X116104197Y-26097271D01*
X116104193Y-26097264D01*
X116017947Y-25982055D01*
X116017944Y-25982052D01*
X115902735Y-25895806D01*
X115902728Y-25895802D01*
X115767882Y-25845508D01*
X115767883Y-25845508D01*
X115708283Y-25839101D01*
X115708281Y-25839100D01*
X115708273Y-25839100D01*
X115708264Y-25839100D01*
X114291729Y-25839100D01*
X114291723Y-25839101D01*
X114232116Y-25845508D01*
X114097271Y-25895802D01*
X114097264Y-25895806D01*
X113982055Y-25982052D01*
X113982052Y-25982055D01*
X113895806Y-26097264D01*
X113895802Y-26097271D01*
X113845508Y-26232117D01*
X113839101Y-26291716D01*
X113839101Y-26291723D01*
X113839100Y-26291735D01*
X113839100Y-27708270D01*
X113839101Y-27708276D01*
X113845508Y-27767883D01*
X113895802Y-27902728D01*
X113895806Y-27902735D01*
X113982052Y-28017944D01*
X113982055Y-28017947D01*
X114097264Y-28104193D01*
X114097271Y-28104197D01*
X114232117Y-28154491D01*
X114232116Y-28154491D01*
X114239044Y-28155235D01*
X114291727Y-28160900D01*
X114721525Y-28160899D01*
X114788562Y-28180583D01*
X114834317Y-28233387D01*
X114844261Y-28302546D01*
X114815236Y-28366102D01*
X114756458Y-28403876D01*
X114744309Y-28406787D01*
X114680955Y-28418630D01*
X114680946Y-28418632D01*
X114680944Y-28418633D01*
X114554075Y-28467782D01*
X114480328Y-28496352D01*
X114480327Y-28496352D01*
X114297402Y-28609614D01*
X114138414Y-28754550D01*
X114138407Y-28754558D01*
X114008760Y-28926239D01*
X114008751Y-28926253D01*
X113912860Y-29118827D01*
X113912855Y-29118840D01*
X113853977Y-29325771D01*
X113834127Y-29539999D01*
X113834127Y-29540000D01*
X113853977Y-29754228D01*
X113912855Y-29961159D01*
X113912860Y-29961172D01*
X114008751Y-30153746D01*
X114008753Y-30153749D01*
X114008755Y-30153753D01*
X114138409Y-30325444D01*
X114138412Y-30325446D01*
X114138414Y-30325449D01*
X114297402Y-30470385D01*
X114297404Y-30470386D01*
X114297405Y-30470387D01*
X114480326Y-30583647D01*
X114680944Y-30661367D01*
X114824015Y-30688111D01*
X114886295Y-30719779D01*
X114921568Y-30780092D01*
X114918634Y-30849900D01*
X114878425Y-30907040D01*
X114824015Y-30931888D01*
X114680944Y-30958633D01*
X114602865Y-30988881D01*
X114480328Y-31036352D01*
X114480327Y-31036352D01*
X114297402Y-31149614D01*
X114138414Y-31294550D01*
X114138407Y-31294558D01*
X114008760Y-31466239D01*
X114008751Y-31466253D01*
X113912860Y-31658827D01*
X113912855Y-31658840D01*
X113853977Y-31865771D01*
X113834127Y-32079999D01*
X113834127Y-32080000D01*
X113853977Y-32294228D01*
X113912855Y-32501159D01*
X113912860Y-32501172D01*
X114008751Y-32693746D01*
X114008753Y-32693749D01*
X114008755Y-32693753D01*
X114008758Y-32693757D01*
X114008760Y-32693760D01*
X114076008Y-32782811D01*
X114138409Y-32865444D01*
X114138412Y-32865446D01*
X114138414Y-32865449D01*
X114297402Y-33010385D01*
X114297404Y-33010386D01*
X114297405Y-33010387D01*
X114480326Y-33123647D01*
X114680944Y-33201367D01*
X114824015Y-33228111D01*
X114886295Y-33259779D01*
X114921568Y-33320092D01*
X114918634Y-33389900D01*
X114878425Y-33447040D01*
X114824015Y-33471888D01*
X114680944Y-33498633D01*
X114554075Y-33547782D01*
X114480328Y-33576352D01*
X114480327Y-33576352D01*
X114297402Y-33689614D01*
X114138414Y-33834550D01*
X114138407Y-33834558D01*
X114008760Y-34006239D01*
X114008751Y-34006253D01*
X113912860Y-34198827D01*
X113912855Y-34198840D01*
X113853977Y-34405771D01*
X113834127Y-34619999D01*
X113834127Y-34620000D01*
X113853978Y-34834236D01*
X113854970Y-34839540D01*
X113847937Y-34909054D01*
X113820762Y-34950001D01*
X112131286Y-36639478D01*
X112019481Y-36751282D01*
X112019479Y-36751285D01*
X111998316Y-36787942D01*
X111992306Y-36798352D01*
X111969361Y-36838094D01*
X111969359Y-36838096D01*
X111940425Y-36888209D01*
X111940424Y-36888210D01*
X111940423Y-36888215D01*
X111899499Y-37040943D01*
X111899499Y-37040945D01*
X111899499Y-37209046D01*
X111899500Y-37209059D01*
X111899500Y-41996523D01*
X111879815Y-42063562D01*
X111827011Y-42109317D01*
X111757853Y-42119261D01*
X111694297Y-42090236D01*
X111670507Y-42062496D01*
X111642607Y-42018095D01*
X111629816Y-41997738D01*
X111629815Y-41997737D01*
X111627550Y-41994896D01*
X111626659Y-41992713D01*
X111626112Y-41991843D01*
X111626264Y-41991747D01*
X111601144Y-41930209D01*
X111600500Y-41917587D01*
X111600500Y-25582412D01*
X111620185Y-25515373D01*
X111627555Y-25505097D01*
X111629810Y-25502267D01*
X111629816Y-25502262D01*
X111725789Y-25349522D01*
X111785368Y-25179255D01*
X111805565Y-25000000D01*
X111792389Y-24883062D01*
X111785369Y-24820750D01*
X111785366Y-24820737D01*
X111766022Y-24765455D01*
X111762460Y-24695676D01*
X111797188Y-24635049D01*
X111859182Y-24602821D01*
X111883063Y-24600500D01*
X123417588Y-24600500D01*
X123484627Y-24620185D01*
G37*
%TD.AperFunction*%
%TA.AperFunction,Conductor*%
G36*
X113778822Y-36792926D02*
G01*
X113834755Y-36834798D01*
X113859172Y-36900262D01*
X113854756Y-36943038D01*
X113853977Y-36945773D01*
X113834127Y-37159999D01*
X113834127Y-37160000D01*
X113853977Y-37374228D01*
X113912855Y-37581159D01*
X113912860Y-37581172D01*
X114008751Y-37773746D01*
X114008753Y-37773749D01*
X114008755Y-37773753D01*
X114008758Y-37773757D01*
X114008760Y-37773760D01*
X114058130Y-37839137D01*
X114138409Y-37945444D01*
X114138412Y-37945446D01*
X114138414Y-37945449D01*
X114297402Y-38090385D01*
X114297404Y-38090386D01*
X114297405Y-38090387D01*
X114480326Y-38203647D01*
X114680944Y-38281367D01*
X114825375Y-38308365D01*
X114887655Y-38340033D01*
X114922928Y-38400346D01*
X114919994Y-38470154D01*
X114879785Y-38527294D01*
X114825374Y-38552143D01*
X114681083Y-38579116D01*
X114681082Y-38579116D01*
X114480552Y-38656801D01*
X114375437Y-38721884D01*
X114947154Y-39293600D01*
X114946496Y-39293600D01*
X114843135Y-39321295D01*
X114750464Y-39374799D01*
X114674799Y-39450464D01*
X114621295Y-39543135D01*
X114593600Y-39646496D01*
X114593600Y-39647153D01*
X114019411Y-39072964D01*
X114009179Y-39086515D01*
X113913325Y-39279015D01*
X113854471Y-39485868D01*
X113834629Y-39700000D01*
X113854471Y-39914131D01*
X113913325Y-40120984D01*
X114009182Y-40313489D01*
X114019410Y-40327034D01*
X114019411Y-40327035D01*
X114593600Y-39752846D01*
X114593600Y-39753504D01*
X114621295Y-39856865D01*
X114674799Y-39949536D01*
X114750464Y-40025201D01*
X114843135Y-40078705D01*
X114946496Y-40106400D01*
X114947153Y-40106400D01*
X114375437Y-40678114D01*
X114480551Y-40743197D01*
X114681082Y-40820883D01*
X114825374Y-40847856D01*
X114887655Y-40879524D01*
X114922928Y-40939836D01*
X114919994Y-41009644D01*
X114879786Y-41066785D01*
X114825375Y-41091634D01*
X114753841Y-41105006D01*
X114680944Y-41118633D01*
X114598748Y-41150476D01*
X114480328Y-41196352D01*
X114480327Y-41196352D01*
X114297402Y-41309614D01*
X114138414Y-41454550D01*
X114138407Y-41454558D01*
X114008760Y-41626239D01*
X114008751Y-41626253D01*
X113912860Y-41818827D01*
X113912855Y-41818840D01*
X113853977Y-42025771D01*
X113834127Y-42239999D01*
X113834127Y-42240000D01*
X113853977Y-42454228D01*
X113912855Y-42661159D01*
X113912860Y-42661172D01*
X114008751Y-42853746D01*
X114008753Y-42853749D01*
X114008755Y-42853753D01*
X114138409Y-43025444D01*
X114138412Y-43025446D01*
X114138414Y-43025449D01*
X114297402Y-43170385D01*
X114297404Y-43170386D01*
X114297405Y-43170387D01*
X114480326Y-43283647D01*
X114680944Y-43361367D01*
X114824015Y-43388111D01*
X114886295Y-43419779D01*
X114921568Y-43480092D01*
X114918634Y-43549900D01*
X114878425Y-43607040D01*
X114824015Y-43631888D01*
X114680944Y-43658633D01*
X114554075Y-43707782D01*
X114480328Y-43736352D01*
X114480327Y-43736352D01*
X114297402Y-43849614D01*
X114138414Y-43994550D01*
X114138407Y-43994558D01*
X114008760Y-44166239D01*
X114008751Y-44166253D01*
X113912860Y-44358827D01*
X113912855Y-44358840D01*
X113853977Y-44565771D01*
X113834127Y-44779999D01*
X113834127Y-44780000D01*
X113853977Y-44994228D01*
X113912855Y-45201159D01*
X113912860Y-45201172D01*
X114008751Y-45393746D01*
X114008753Y-45393749D01*
X114008755Y-45393753D01*
X114138409Y-45565444D01*
X114138412Y-45565446D01*
X114138414Y-45565449D01*
X114297402Y-45710385D01*
X114297404Y-45710386D01*
X114297405Y-45710387D01*
X114480326Y-45823647D01*
X114680944Y-45901367D01*
X114824015Y-45928111D01*
X114886295Y-45959779D01*
X114921568Y-46020092D01*
X114918634Y-46089900D01*
X114878425Y-46147040D01*
X114824015Y-46171888D01*
X114680944Y-46198633D01*
X114554075Y-46247782D01*
X114480328Y-46276352D01*
X114480327Y-46276352D01*
X114297402Y-46389614D01*
X114138414Y-46534550D01*
X114138407Y-46534558D01*
X114008760Y-46706239D01*
X114008751Y-46706253D01*
X113912860Y-46898827D01*
X113912855Y-46898840D01*
X113853977Y-47105771D01*
X113834127Y-47319999D01*
X113834127Y-47320000D01*
X113853977Y-47534228D01*
X113912855Y-47741159D01*
X113912860Y-47741172D01*
X114008751Y-47933746D01*
X114008753Y-47933749D01*
X114008755Y-47933753D01*
X114008758Y-47933757D01*
X114008760Y-47933760D01*
X114076008Y-48022811D01*
X114138409Y-48105444D01*
X114138412Y-48105446D01*
X114138414Y-48105449D01*
X114297402Y-48250385D01*
X114297404Y-48250386D01*
X114297405Y-48250387D01*
X114480326Y-48363647D01*
X114680944Y-48441367D01*
X114824015Y-48468111D01*
X114886295Y-48499779D01*
X114921568Y-48560092D01*
X114918634Y-48629900D01*
X114878425Y-48687040D01*
X114824015Y-48711888D01*
X114680944Y-48738633D01*
X114604600Y-48768209D01*
X114480328Y-48816352D01*
X114480327Y-48816352D01*
X114297402Y-48929614D01*
X114138414Y-49074550D01*
X114138413Y-49074551D01*
X114138409Y-49074555D01*
X114138409Y-49074556D01*
X114035954Y-49210228D01*
X113979849Y-49251863D01*
X113937003Y-49259500D01*
X113660097Y-49259500D01*
X113593058Y-49239815D01*
X113572416Y-49223181D01*
X113487590Y-49138355D01*
X113487588Y-49138352D01*
X113368717Y-49019481D01*
X113368716Y-49019480D01*
X113281904Y-48969360D01*
X113281904Y-48969359D01*
X113281900Y-48969358D01*
X113231785Y-48940423D01*
X113231784Y-48940422D01*
X113231783Y-48940422D01*
X113231781Y-48940421D01*
X113192405Y-48929870D01*
X113132745Y-48893505D01*
X113102217Y-48830657D01*
X113100500Y-48810096D01*
X113100500Y-37420096D01*
X113120185Y-37353057D01*
X113136814Y-37332420D01*
X113647808Y-36821426D01*
X113709130Y-36787942D01*
X113778822Y-36792926D01*
G37*
%TD.AperFunction*%
%TA.AperFunction,Conductor*%
G36*
X146942539Y-19520185D02*
G01*
X146988294Y-19572989D01*
X146999500Y-19624500D01*
X146999500Y-64875500D01*
X146979815Y-64942539D01*
X146927011Y-64988294D01*
X146875500Y-64999500D01*
X51124500Y-64999500D01*
X51057461Y-64979815D01*
X51011706Y-64927011D01*
X51000500Y-64875500D01*
X51000500Y-36999998D01*
X56194532Y-36999998D01*
X56194532Y-37000001D01*
X56214364Y-37226686D01*
X56214366Y-37226697D01*
X56273258Y-37446488D01*
X56273261Y-37446497D01*
X56369431Y-37652732D01*
X56369432Y-37652734D01*
X56499954Y-37839141D01*
X56657086Y-37996273D01*
X56690571Y-38057596D01*
X56685587Y-38127288D01*
X56643715Y-38183221D01*
X56597932Y-38204628D01*
X56592522Y-38205906D01*
X56457671Y-38256202D01*
X56457664Y-38256206D01*
X56342455Y-38342452D01*
X56342452Y-38342455D01*
X56256206Y-38457664D01*
X56256202Y-38457671D01*
X56205908Y-38592517D01*
X56201740Y-38631290D01*
X56199501Y-38652123D01*
X56199500Y-38652135D01*
X56199500Y-40347870D01*
X56199501Y-40347876D01*
X56205908Y-40407483D01*
X56256202Y-40542328D01*
X56256206Y-40542335D01*
X56342452Y-40657544D01*
X56342455Y-40657547D01*
X56457664Y-40743793D01*
X56457671Y-40743797D01*
X56592517Y-40794091D01*
X56592516Y-40794091D01*
X56599444Y-40794835D01*
X56652127Y-40800500D01*
X58347872Y-40800499D01*
X58407483Y-40794091D01*
X58542331Y-40743796D01*
X58657546Y-40657546D01*
X58743796Y-40542331D01*
X58794091Y-40407483D01*
X58800500Y-40347873D01*
X58800500Y-40224500D01*
X58820185Y-40157461D01*
X58872989Y-40111706D01*
X58924500Y-40100500D01*
X62333331Y-40100500D01*
X62333347Y-40100501D01*
X62340943Y-40100501D01*
X62499054Y-40100501D01*
X62499057Y-40100501D01*
X62651785Y-40059577D01*
X62713500Y-40023945D01*
X62781398Y-40007472D01*
X62847425Y-40030323D01*
X62890617Y-40085244D01*
X62899500Y-40131332D01*
X62899500Y-40199903D01*
X62879815Y-40266942D01*
X62863181Y-40287584D01*
X60519483Y-42631281D01*
X60519481Y-42631284D01*
X60440423Y-42768214D01*
X60440423Y-42768215D01*
X60399499Y-42920943D01*
X60399499Y-42920945D01*
X60399499Y-43079054D01*
X60399498Y-43079054D01*
X60407017Y-43107115D01*
X60440423Y-43231785D01*
X60519481Y-43368716D01*
X60519483Y-43368718D01*
X66148959Y-48998194D01*
X66182444Y-49059517D01*
X66177460Y-49129209D01*
X66135588Y-49185142D01*
X66099367Y-49202078D01*
X66099785Y-49203198D01*
X65957671Y-49256202D01*
X65957664Y-49256206D01*
X65842455Y-49342452D01*
X65842452Y-49342455D01*
X65756206Y-49457664D01*
X65756202Y-49457671D01*
X65705908Y-49592517D01*
X65699501Y-49652116D01*
X65699500Y-49652135D01*
X65699500Y-51347870D01*
X65699501Y-51347876D01*
X65705908Y-51407483D01*
X65756202Y-51542328D01*
X65756206Y-51542335D01*
X65842452Y-51657544D01*
X65842455Y-51657547D01*
X65957664Y-51743793D01*
X65957671Y-51743797D01*
X66092517Y-51794091D01*
X66092516Y-51794091D01*
X66099444Y-51794835D01*
X66152127Y-51800500D01*
X67399902Y-51800499D01*
X67466941Y-51820184D01*
X67487583Y-51836818D01*
X70515139Y-54864374D01*
X70515149Y-54864385D01*
X70519479Y-54868715D01*
X70519480Y-54868716D01*
X70631284Y-54980520D01*
X70631286Y-54980521D01*
X70631290Y-54980524D01*
X70715811Y-55029322D01*
X70715812Y-55029322D01*
X70768215Y-55059577D01*
X70920942Y-55100500D01*
X70920943Y-55100500D01*
X72417588Y-55100500D01*
X72484627Y-55120185D01*
X72494903Y-55127555D01*
X72497736Y-55129814D01*
X72497738Y-55129816D01*
X72650478Y-55225789D01*
X72820745Y-55285368D01*
X72820750Y-55285369D01*
X72999996Y-55305565D01*
X73000000Y-55305565D01*
X73000004Y-55305565D01*
X73179249Y-55285369D01*
X73179252Y-55285368D01*
X73179255Y-55285368D01*
X73349522Y-55225789D01*
X73502262Y-55129816D01*
X73629816Y-55002262D01*
X73725789Y-54849522D01*
X73785368Y-54679255D01*
X73789890Y-54639124D01*
X73805565Y-54500003D01*
X73805565Y-54499999D01*
X73802369Y-54471637D01*
X73801408Y-54463108D01*
X73813462Y-54394288D01*
X73860810Y-54342908D01*
X73928420Y-54325283D01*
X73994826Y-54347008D01*
X74012309Y-54361544D01*
X79015139Y-59364374D01*
X79015149Y-59364385D01*
X79019479Y-59368715D01*
X79019480Y-59368716D01*
X79131284Y-59480520D01*
X79187882Y-59513196D01*
X79218095Y-59530639D01*
X79218097Y-59530641D01*
X79268213Y-59559576D01*
X79268215Y-59559577D01*
X79420942Y-59600500D01*
X79420943Y-59600500D01*
X81418308Y-59600500D01*
X81485347Y-59620185D01*
X81519880Y-59653374D01*
X81548886Y-59694799D01*
X81649954Y-59839141D01*
X81810858Y-60000045D01*
X81810861Y-60000047D01*
X81997266Y-60130568D01*
X82203504Y-60226739D01*
X82423308Y-60285635D01*
X82585230Y-60299801D01*
X82649998Y-60305468D01*
X82650000Y-60305468D01*
X82650002Y-60305468D01*
X82706673Y-60300509D01*
X82876692Y-60285635D01*
X83096496Y-60226739D01*
X83302734Y-60130568D01*
X83489139Y-60000047D01*
X83650047Y-59839139D01*
X83780568Y-59652734D01*
X83876739Y-59446496D01*
X83935635Y-59226692D01*
X83955468Y-59000000D01*
X83953438Y-58976802D01*
X83946642Y-58899116D01*
X83935635Y-58773308D01*
X83876739Y-58553504D01*
X83780568Y-58347266D01*
X83650047Y-58160861D01*
X83650045Y-58160858D01*
X83489141Y-57999954D01*
X83302734Y-57869432D01*
X83302732Y-57869431D01*
X83096497Y-57773261D01*
X83096488Y-57773258D01*
X82876697Y-57714366D01*
X82876693Y-57714365D01*
X82876692Y-57714365D01*
X82876691Y-57714364D01*
X82876686Y-57714364D01*
X82650002Y-57694532D01*
X82649998Y-57694532D01*
X82423313Y-57714364D01*
X82423302Y-57714366D01*
X82203511Y-57773258D01*
X82203502Y-57773261D01*
X81997267Y-57869431D01*
X81997265Y-57869432D01*
X81810858Y-57999954D01*
X81649954Y-58160858D01*
X81576726Y-58265441D01*
X81519881Y-58346624D01*
X81465307Y-58390248D01*
X81418308Y-58399500D01*
X79800097Y-58399500D01*
X79733058Y-58379815D01*
X79712416Y-58363181D01*
X75849231Y-54499996D01*
X76694435Y-54499996D01*
X76694435Y-54500003D01*
X76714630Y-54679249D01*
X76714631Y-54679254D01*
X76774211Y-54849523D01*
X76856523Y-54980521D01*
X76870184Y-55002262D01*
X76997738Y-55129816D01*
X77150478Y-55225789D01*
X77320745Y-55285368D01*
X77320750Y-55285369D01*
X77499996Y-55305565D01*
X77500000Y-55305565D01*
X77500004Y-55305565D01*
X77679249Y-55285369D01*
X77679252Y-55285368D01*
X77679255Y-55285368D01*
X77849522Y-55225789D01*
X78002262Y-55129816D01*
X78002267Y-55129810D01*
X78005097Y-55127555D01*
X78007275Y-55126665D01*
X78008158Y-55126111D01*
X78008255Y-55126265D01*
X78069783Y-55101145D01*
X78082412Y-55100500D01*
X94413331Y-55100500D01*
X94413347Y-55100501D01*
X94420943Y-55100501D01*
X94579054Y-55100501D01*
X94579057Y-55100501D01*
X94731785Y-55059577D01*
X94784188Y-55029322D01*
X94784189Y-55029322D01*
X94868709Y-54980524D01*
X94868708Y-54980524D01*
X94868716Y-54980520D01*
X94980520Y-54868716D01*
X94980520Y-54868714D01*
X94990724Y-54858511D01*
X94990727Y-54858506D01*
X95830520Y-54018716D01*
X95909577Y-53881784D01*
X95950501Y-53729057D01*
X95950501Y-53570942D01*
X95950501Y-53563347D01*
X95950500Y-53563329D01*
X95950500Y-49731692D01*
X95970185Y-49664653D01*
X96003374Y-49630119D01*
X96189139Y-49500047D01*
X96350047Y-49339139D01*
X96480118Y-49153375D01*
X96534693Y-49109752D01*
X96581692Y-49100500D01*
X101025501Y-49100500D01*
X101092540Y-49120185D01*
X101138295Y-49172989D01*
X101149501Y-49224500D01*
X101149501Y-49397876D01*
X101155908Y-49457483D01*
X101206202Y-49592328D01*
X101206206Y-49592335D01*
X101292452Y-49707544D01*
X101292455Y-49707547D01*
X101407664Y-49793793D01*
X101407671Y-49793797D01*
X101542517Y-49844091D01*
X101542516Y-49844091D01*
X101549444Y-49844835D01*
X101602127Y-49850500D01*
X103397872Y-49850499D01*
X103457483Y-49844091D01*
X103592331Y-49793796D01*
X103707546Y-49707546D01*
X103793796Y-49592331D01*
X103844091Y-49457483D01*
X103850500Y-49397873D01*
X103850499Y-47602128D01*
X103844091Y-47542517D01*
X103840999Y-47534228D01*
X103793797Y-47407671D01*
X103793793Y-47407664D01*
X103707547Y-47292455D01*
X103707544Y-47292452D01*
X103592335Y-47206206D01*
X103592328Y-47206202D01*
X103457482Y-47155908D01*
X103457483Y-47155908D01*
X103397883Y-47149501D01*
X103397881Y-47149500D01*
X103397873Y-47149500D01*
X103397864Y-47149500D01*
X101602129Y-47149500D01*
X101602123Y-47149501D01*
X101542516Y-47155908D01*
X101407671Y-47206202D01*
X101407664Y-47206206D01*
X101292455Y-47292452D01*
X101292452Y-47292455D01*
X101206206Y-47407664D01*
X101206202Y-47407671D01*
X101155908Y-47542517D01*
X101149501Y-47602116D01*
X101149501Y-47602123D01*
X101149500Y-47602135D01*
X101149500Y-47775500D01*
X101129815Y-47842539D01*
X101077011Y-47888294D01*
X101025500Y-47899500D01*
X96581692Y-47899500D01*
X96514653Y-47879815D01*
X96480119Y-47846625D01*
X96350047Y-47660861D01*
X96350045Y-47660858D01*
X96189141Y-47499954D01*
X96002734Y-47369432D01*
X96002732Y-47369431D01*
X95796497Y-47273261D01*
X95796488Y-47273258D01*
X95576697Y-47214366D01*
X95576693Y-47214365D01*
X95576692Y-47214365D01*
X95576691Y-47214364D01*
X95576686Y-47214364D01*
X95350002Y-47194532D01*
X95349998Y-47194532D01*
X95123313Y-47214364D01*
X95123302Y-47214366D01*
X94903511Y-47273258D01*
X94903502Y-47273261D01*
X94697267Y-47369431D01*
X94697265Y-47369432D01*
X94510858Y-47499954D01*
X94349954Y-47660858D01*
X94219432Y-47847265D01*
X94219431Y-47847267D01*
X94123261Y-48053502D01*
X94123258Y-48053511D01*
X94064366Y-48273302D01*
X94064364Y-48273313D01*
X94044532Y-48499998D01*
X94044532Y-48500001D01*
X94064364Y-48726686D01*
X94064366Y-48726697D01*
X94123258Y-48946488D01*
X94123261Y-48946497D01*
X94219431Y-49152732D01*
X94219432Y-49152734D01*
X94349954Y-49339141D01*
X94510858Y-49500045D01*
X94510861Y-49500047D01*
X94696624Y-49630118D01*
X94740248Y-49684693D01*
X94749500Y-49731692D01*
X94749500Y-53349902D01*
X94729815Y-53416941D01*
X94713181Y-53437583D01*
X94287584Y-53863181D01*
X94226261Y-53896666D01*
X94199903Y-53899500D01*
X78082412Y-53899500D01*
X78015373Y-53879815D01*
X78005097Y-53872445D01*
X78002263Y-53870185D01*
X78002262Y-53870184D01*
X77920219Y-53818633D01*
X77849523Y-53774211D01*
X77679254Y-53714631D01*
X77679249Y-53714630D01*
X77500004Y-53694435D01*
X77499996Y-53694435D01*
X77320750Y-53714630D01*
X77320745Y-53714631D01*
X77150476Y-53774211D01*
X76997737Y-53870184D01*
X76870184Y-53997737D01*
X76774211Y-54150476D01*
X76714631Y-54320745D01*
X76714630Y-54320750D01*
X76694435Y-54499996D01*
X75849231Y-54499996D01*
X71487590Y-50138355D01*
X71487588Y-50138352D01*
X71368717Y-50019481D01*
X71368709Y-50019475D01*
X71247199Y-49949322D01*
X71247196Y-49949321D01*
X71231785Y-49940423D01*
X71079057Y-49899499D01*
X70920943Y-49899499D01*
X70913347Y-49899499D01*
X70913331Y-49899500D01*
X70731692Y-49899500D01*
X70664653Y-49879815D01*
X70630119Y-49846625D01*
X70500047Y-49660861D01*
X70500045Y-49660858D01*
X70339141Y-49499954D01*
X70152734Y-49369432D01*
X70152732Y-49369431D01*
X69946497Y-49273261D01*
X69946488Y-49273258D01*
X69726697Y-49214366D01*
X69726693Y-49214365D01*
X69726692Y-49214365D01*
X69726691Y-49214364D01*
X69726686Y-49214364D01*
X69500002Y-49194532D01*
X69499998Y-49194532D01*
X69273313Y-49214364D01*
X69273302Y-49214366D01*
X69053511Y-49273258D01*
X69053502Y-49273261D01*
X68847267Y-49369431D01*
X68847265Y-49369432D01*
X68660862Y-49499951D01*
X68503726Y-49657087D01*
X68442403Y-49690571D01*
X68372711Y-49685587D01*
X68316778Y-49643715D01*
X68295369Y-49597923D01*
X68294091Y-49592518D01*
X68294021Y-49592331D01*
X68243796Y-49457669D01*
X68243795Y-49457668D01*
X68243793Y-49457664D01*
X68157547Y-49342455D01*
X68157544Y-49342452D01*
X68042335Y-49256206D01*
X68042328Y-49256202D01*
X67907482Y-49205908D01*
X67907483Y-49205908D01*
X67847883Y-49199501D01*
X67847881Y-49199500D01*
X67847873Y-49199500D01*
X67847865Y-49199500D01*
X67724500Y-49199500D01*
X67657461Y-49179815D01*
X67611706Y-49127011D01*
X67600500Y-49075500D01*
X67600500Y-48920943D01*
X67596293Y-48905244D01*
X67594754Y-48899500D01*
X67572475Y-48816353D01*
X67559577Y-48768216D01*
X67559575Y-48768212D01*
X67559574Y-48768209D01*
X67480524Y-48631290D01*
X67480521Y-48631286D01*
X67480520Y-48631284D01*
X67368716Y-48519480D01*
X67368715Y-48519479D01*
X67364385Y-48515149D01*
X67364374Y-48515139D01*
X64583861Y-45734626D01*
X64550376Y-45673303D01*
X64555360Y-45603611D01*
X64597232Y-45547678D01*
X64662696Y-45523261D01*
X64730969Y-45538113D01*
X64733533Y-45539552D01*
X64768216Y-45559577D01*
X64920943Y-45600501D01*
X64920945Y-45600501D01*
X65086654Y-45600501D01*
X65086670Y-45600500D01*
X74579055Y-45600500D01*
X74579057Y-45600500D01*
X74731784Y-45559577D01*
X74868716Y-45480520D01*
X74980520Y-45368716D01*
X75059577Y-45231784D01*
X75100500Y-45079057D01*
X75100500Y-41582412D01*
X75120185Y-41515373D01*
X75127555Y-41505097D01*
X75129810Y-41502267D01*
X75129816Y-41502262D01*
X75225789Y-41349522D01*
X75285368Y-41179255D01*
X75285369Y-41179249D01*
X75305565Y-41000003D01*
X75305565Y-40999996D01*
X75285369Y-40820750D01*
X75285368Y-40820745D01*
X75285140Y-40820092D01*
X75225789Y-40650478D01*
X75129816Y-40497738D01*
X75024259Y-40392181D01*
X74990774Y-40330858D01*
X74995758Y-40261166D01*
X75037630Y-40205233D01*
X75103094Y-40180816D01*
X75111940Y-40180500D01*
X77475831Y-40180500D01*
X77475847Y-40180501D01*
X77483443Y-40180501D01*
X77641553Y-40180501D01*
X77641557Y-40180501D01*
X77743410Y-40153209D01*
X77813255Y-40154872D01*
X77871118Y-40194034D01*
X77898623Y-40258262D01*
X77899500Y-40272984D01*
X77899500Y-44263330D01*
X77899499Y-44263348D01*
X77899499Y-44429054D01*
X77899498Y-44429054D01*
X77940423Y-44581785D01*
X77969000Y-44631280D01*
X77969001Y-44631284D01*
X77969002Y-44631284D01*
X78019479Y-44718714D01*
X78019481Y-44718717D01*
X78138349Y-44837585D01*
X78138355Y-44837590D01*
X81358058Y-48057293D01*
X81391543Y-48118616D01*
X81390152Y-48177067D01*
X81364366Y-48273302D01*
X81364364Y-48273313D01*
X81344532Y-48499998D01*
X81344532Y-48500001D01*
X81364364Y-48726686D01*
X81364366Y-48726697D01*
X81423258Y-48946488D01*
X81423261Y-48946497D01*
X81519431Y-49152732D01*
X81519432Y-49152734D01*
X81649954Y-49339141D01*
X81810858Y-49500045D01*
X81810861Y-49500047D01*
X81997266Y-49630568D01*
X82203504Y-49726739D01*
X82423308Y-49785635D01*
X82585230Y-49799801D01*
X82649998Y-49805468D01*
X82650000Y-49805468D01*
X82650002Y-49805468D01*
X82706673Y-49800509D01*
X82876692Y-49785635D01*
X83096496Y-49726739D01*
X83302734Y-49630568D01*
X83489139Y-49500047D01*
X83650047Y-49339139D01*
X83780568Y-49152734D01*
X83876739Y-48946496D01*
X83935635Y-48726692D01*
X83955468Y-48500000D01*
X83955426Y-48499524D01*
X83949801Y-48435230D01*
X83935635Y-48273308D01*
X83876739Y-48053504D01*
X83780568Y-47847266D01*
X83650047Y-47660861D01*
X83650045Y-47660858D01*
X83489141Y-47499954D01*
X83302734Y-47369432D01*
X83302732Y-47369431D01*
X83096497Y-47273261D01*
X83096488Y-47273258D01*
X82876697Y-47214366D01*
X82876693Y-47214365D01*
X82876692Y-47214365D01*
X82876691Y-47214364D01*
X82876686Y-47214364D01*
X82650002Y-47194532D01*
X82649998Y-47194532D01*
X82423313Y-47214364D01*
X82423302Y-47214366D01*
X82327067Y-47240152D01*
X82257217Y-47238489D01*
X82207293Y-47208058D01*
X79136819Y-44137584D01*
X79103334Y-44076261D01*
X79100500Y-44049903D01*
X79100500Y-40066999D01*
X79120185Y-39999960D01*
X79172989Y-39954205D01*
X79224500Y-39942999D01*
X79347871Y-39942999D01*
X79347872Y-39942999D01*
X79407483Y-39936591D01*
X79542331Y-39886296D01*
X79657546Y-39800046D01*
X79743796Y-39684831D01*
X79794091Y-39549983D01*
X79794092Y-39549972D01*
X79795365Y-39544588D01*
X79829933Y-39483869D01*
X79891841Y-39451478D01*
X79961433Y-39457699D01*
X80003725Y-39485412D01*
X80160858Y-39642545D01*
X80160861Y-39642547D01*
X80347266Y-39773068D01*
X80553504Y-39869239D01*
X80773308Y-39928135D01*
X80935230Y-39942301D01*
X80999998Y-39947968D01*
X81000000Y-39947968D01*
X81000002Y-39947968D01*
X81056807Y-39942998D01*
X81226692Y-39928135D01*
X81446496Y-39869239D01*
X81652734Y-39773068D01*
X81839139Y-39642547D01*
X82000047Y-39481639D01*
X82130118Y-39295875D01*
X82184693Y-39252252D01*
X82231692Y-39243000D01*
X101025501Y-39243000D01*
X101092540Y-39262685D01*
X101138295Y-39315489D01*
X101149501Y-39367000D01*
X101149501Y-39397876D01*
X101155908Y-39457483D01*
X101206202Y-39592328D01*
X101206206Y-39592335D01*
X101292452Y-39707544D01*
X101292455Y-39707547D01*
X101407664Y-39793793D01*
X101407671Y-39793797D01*
X101542517Y-39844091D01*
X101542516Y-39844091D01*
X101549444Y-39844835D01*
X101602127Y-39850500D01*
X103397872Y-39850499D01*
X103457483Y-39844091D01*
X103592331Y-39793796D01*
X103707546Y-39707546D01*
X103793796Y-39592331D01*
X103844091Y-39457483D01*
X103850500Y-39397873D01*
X103850499Y-37602128D01*
X103844091Y-37542517D01*
X103832683Y-37511931D01*
X103793797Y-37407671D01*
X103793793Y-37407664D01*
X103707547Y-37292455D01*
X103707544Y-37292452D01*
X103592335Y-37206206D01*
X103592328Y-37206202D01*
X103457482Y-37155908D01*
X103457483Y-37155908D01*
X103397883Y-37149501D01*
X103397881Y-37149500D01*
X103397873Y-37149500D01*
X103397864Y-37149500D01*
X101602129Y-37149500D01*
X101602123Y-37149501D01*
X101542516Y-37155908D01*
X101407671Y-37206202D01*
X101407664Y-37206206D01*
X101292455Y-37292452D01*
X101292452Y-37292455D01*
X101206206Y-37407664D01*
X101206202Y-37407671D01*
X101155908Y-37542517D01*
X101149710Y-37600171D01*
X101149501Y-37602123D01*
X101149500Y-37602135D01*
X101149500Y-37918000D01*
X101129815Y-37985039D01*
X101077011Y-38030794D01*
X101025500Y-38042000D01*
X82231692Y-38042000D01*
X82164653Y-38022315D01*
X82130119Y-37989125D01*
X82000047Y-37803361D01*
X82000045Y-37803358D01*
X81839141Y-37642454D01*
X81652734Y-37511932D01*
X81652732Y-37511931D01*
X81446497Y-37415761D01*
X81446488Y-37415758D01*
X81226697Y-37356866D01*
X81226693Y-37356865D01*
X81226692Y-37356865D01*
X81226691Y-37356864D01*
X81226686Y-37356864D01*
X81000002Y-37337032D01*
X80999998Y-37337032D01*
X80773313Y-37356864D01*
X80773302Y-37356866D01*
X80553511Y-37415758D01*
X80553502Y-37415761D01*
X80347267Y-37511931D01*
X80347265Y-37511932D01*
X80160862Y-37642451D01*
X80003726Y-37799587D01*
X79942403Y-37833071D01*
X79872711Y-37828087D01*
X79816778Y-37786215D01*
X79795369Y-37740423D01*
X79794091Y-37735018D01*
X79743797Y-37600171D01*
X79743793Y-37600164D01*
X79657547Y-37484955D01*
X79657544Y-37484952D01*
X79542335Y-37398706D01*
X79542328Y-37398702D01*
X79407482Y-37348408D01*
X79407483Y-37348408D01*
X79347883Y-37342001D01*
X79347881Y-37342000D01*
X79347873Y-37342000D01*
X79347864Y-37342000D01*
X77652129Y-37342000D01*
X77652123Y-37342001D01*
X77592516Y-37348408D01*
X77457671Y-37398702D01*
X77457664Y-37398706D01*
X77342455Y-37484952D01*
X77342452Y-37484955D01*
X77256206Y-37600164D01*
X77256202Y-37600171D01*
X77205908Y-37735017D01*
X77200404Y-37786215D01*
X77199500Y-37794627D01*
X77199500Y-38349900D01*
X77199501Y-38855500D01*
X77179817Y-38922539D01*
X77127013Y-38968294D01*
X77075501Y-38979500D01*
X75355070Y-38979500D01*
X75288031Y-38959815D01*
X75242276Y-38907011D01*
X75232332Y-38837853D01*
X75238028Y-38814545D01*
X75285368Y-38679254D01*
X75285369Y-38679249D01*
X75305565Y-38500003D01*
X75305565Y-38499996D01*
X75285369Y-38320750D01*
X75285368Y-38320745D01*
X75244737Y-38204628D01*
X75225789Y-38150478D01*
X75129816Y-37997738D01*
X75129814Y-37997736D01*
X75129813Y-37997734D01*
X75127550Y-37994896D01*
X75126659Y-37992715D01*
X75126111Y-37991842D01*
X75126264Y-37991745D01*
X75101144Y-37930209D01*
X75100500Y-37917587D01*
X75100500Y-34420945D01*
X75100500Y-34420943D01*
X75059577Y-34268216D01*
X75015450Y-34191785D01*
X74980524Y-34131290D01*
X74980518Y-34131282D01*
X74868717Y-34019481D01*
X74868709Y-34019475D01*
X74731790Y-33940426D01*
X74731786Y-33940424D01*
X74731784Y-33940423D01*
X74579057Y-33899500D01*
X74579056Y-33899500D01*
X73594827Y-33899500D01*
X73527788Y-33879815D01*
X73495873Y-33850227D01*
X73380440Y-33697368D01*
X73217968Y-33549257D01*
X73217967Y-33549256D01*
X73159221Y-33512881D01*
X73112586Y-33460853D01*
X73100500Y-33407455D01*
X73100500Y-31089059D01*
X73100501Y-31089046D01*
X73100501Y-30920945D01*
X73100501Y-30920943D01*
X73059577Y-30768215D01*
X72997888Y-30661367D01*
X72980520Y-30631284D01*
X72868716Y-30519480D01*
X72868715Y-30519479D01*
X72864385Y-30515149D01*
X72864374Y-30515139D01*
X71386818Y-29037583D01*
X71353333Y-28976260D01*
X71350499Y-28949902D01*
X71350499Y-27602155D01*
X80570000Y-27602155D01*
X80570000Y-28250000D01*
X81486988Y-28250000D01*
X81454075Y-28307007D01*
X81420000Y-28434174D01*
X81420000Y-28565826D01*
X81454075Y-28692993D01*
X81486988Y-28750000D01*
X80570000Y-28750000D01*
X80570000Y-29397844D01*
X80576401Y-29457372D01*
X80576403Y-29457379D01*
X80626645Y-29592086D01*
X80626649Y-29592093D01*
X80712809Y-29707187D01*
X80712812Y-29707190D01*
X80827906Y-29793350D01*
X80827913Y-29793354D01*
X80962620Y-29843596D01*
X80962627Y-29843598D01*
X81022155Y-29849999D01*
X81022172Y-29850000D01*
X81670000Y-29850000D01*
X81670000Y-28933012D01*
X81727007Y-28965925D01*
X81854174Y-29000000D01*
X81985826Y-29000000D01*
X82112993Y-28965925D01*
X82170000Y-28933012D01*
X82170000Y-29850000D01*
X82817828Y-29850000D01*
X82817844Y-29849999D01*
X82877372Y-29843598D01*
X82877379Y-29843596D01*
X83012086Y-29793354D01*
X83012093Y-29793350D01*
X83127187Y-29707190D01*
X83127190Y-29707187D01*
X83213350Y-29592093D01*
X83213354Y-29592086D01*
X83262422Y-29460529D01*
X83304293Y-29404595D01*
X83369757Y-29380178D01*
X83438030Y-29395030D01*
X83466285Y-29416181D01*
X83588599Y-29538495D01*
X83685384Y-29606265D01*
X83782165Y-29674032D01*
X83782167Y-29674033D01*
X83782170Y-29674035D01*
X83787898Y-29676706D01*
X83840339Y-29722872D01*
X83859500Y-29789090D01*
X83859500Y-33873330D01*
X83859499Y-33873348D01*
X83859499Y-34039054D01*
X83859498Y-34039054D01*
X83886408Y-34139480D01*
X83900423Y-34191785D01*
X83923517Y-34231784D01*
X83979480Y-34328716D01*
X84019480Y-34368716D01*
X84056535Y-34405771D01*
X84131284Y-34480520D01*
X84131286Y-34480521D01*
X84131290Y-34480524D01*
X84198765Y-34519480D01*
X84268216Y-34559577D01*
X84420943Y-34600501D01*
X84420945Y-34600501D01*
X84586654Y-34600501D01*
X84586670Y-34600500D01*
X108275500Y-34600500D01*
X108342539Y-34620185D01*
X108388294Y-34672989D01*
X108399500Y-34724500D01*
X108399500Y-50917587D01*
X108379815Y-50984626D01*
X108372450Y-50994896D01*
X108370186Y-50997734D01*
X108274211Y-51150476D01*
X108214631Y-51320745D01*
X108214630Y-51320750D01*
X108194435Y-51499996D01*
X108194435Y-51500003D01*
X108214630Y-51679249D01*
X108214631Y-51679254D01*
X108274211Y-51849523D01*
X108355459Y-51978827D01*
X108370184Y-52002262D01*
X108497738Y-52129816D01*
X108586790Y-52185771D01*
X108650478Y-52225789D01*
X108667550Y-52231763D01*
X108724326Y-52272485D01*
X108750074Y-52337437D01*
X108736618Y-52405999D01*
X108714277Y-52436486D01*
X102787584Y-58363181D01*
X102726261Y-58396666D01*
X102699903Y-58399500D01*
X96581692Y-58399500D01*
X96514653Y-58379815D01*
X96480119Y-58346625D01*
X96350047Y-58160861D01*
X96350045Y-58160858D01*
X96189141Y-57999954D01*
X96002734Y-57869432D01*
X96002732Y-57869431D01*
X95796497Y-57773261D01*
X95796488Y-57773258D01*
X95576697Y-57714366D01*
X95576693Y-57714365D01*
X95576692Y-57714365D01*
X95576691Y-57714364D01*
X95576686Y-57714364D01*
X95350002Y-57694532D01*
X95349998Y-57694532D01*
X95123313Y-57714364D01*
X95123302Y-57714366D01*
X94903511Y-57773258D01*
X94903502Y-57773261D01*
X94697267Y-57869431D01*
X94697265Y-57869432D01*
X94510858Y-57999954D01*
X94349954Y-58160858D01*
X94219432Y-58347265D01*
X94219431Y-58347267D01*
X94123261Y-58553502D01*
X94123258Y-58553511D01*
X94064366Y-58773302D01*
X94064364Y-58773313D01*
X94044532Y-58999998D01*
X94044532Y-59000001D01*
X94064364Y-59226686D01*
X94064366Y-59226697D01*
X94123258Y-59446488D01*
X94123261Y-59446497D01*
X94219431Y-59652732D01*
X94219432Y-59652734D01*
X94349954Y-59839141D01*
X94510858Y-60000045D01*
X94510861Y-60000047D01*
X94697266Y-60130568D01*
X94903504Y-60226739D01*
X95123308Y-60285635D01*
X95285230Y-60299801D01*
X95349998Y-60305468D01*
X95350000Y-60305468D01*
X95350002Y-60305468D01*
X95406673Y-60300509D01*
X95576692Y-60285635D01*
X95796496Y-60226739D01*
X96002734Y-60130568D01*
X96189139Y-60000047D01*
X96350047Y-59839139D01*
X96480118Y-59653375D01*
X96534693Y-59609752D01*
X96581692Y-59600500D01*
X102913331Y-59600500D01*
X102913347Y-59600501D01*
X102920943Y-59600501D01*
X103079054Y-59600501D01*
X103079057Y-59600501D01*
X103231785Y-59559577D01*
X103281904Y-59530639D01*
X103368716Y-59480520D01*
X103480520Y-59368716D01*
X103480520Y-59368714D01*
X103490728Y-59358507D01*
X103490730Y-59358504D01*
X108063515Y-54785718D01*
X108124836Y-54752235D01*
X108194528Y-54757219D01*
X108250461Y-54799091D01*
X108268236Y-54832447D01*
X108274210Y-54849521D01*
X108286271Y-54868716D01*
X108356521Y-54980518D01*
X108370185Y-55002263D01*
X108372445Y-55005097D01*
X108373334Y-55007275D01*
X108373889Y-55008158D01*
X108373734Y-55008255D01*
X108398855Y-55069783D01*
X108399500Y-55082412D01*
X108399500Y-62579056D01*
X108440423Y-62731783D01*
X108440426Y-62731790D01*
X108519475Y-62868709D01*
X108519479Y-62868714D01*
X108519480Y-62868716D01*
X108631284Y-62980520D01*
X108631286Y-62980521D01*
X108631290Y-62980524D01*
X108768209Y-63059573D01*
X108768216Y-63059577D01*
X108920943Y-63100500D01*
X108920945Y-63100500D01*
X124579055Y-63100500D01*
X124579057Y-63100500D01*
X124731784Y-63059577D01*
X124868716Y-62980520D01*
X124980520Y-62868716D01*
X125059577Y-62731784D01*
X125100500Y-62579057D01*
X125100500Y-51660943D01*
X125059577Y-51508216D01*
X125054831Y-51499996D01*
X124980524Y-51371290D01*
X124980521Y-51371286D01*
X124980520Y-51371284D01*
X124868716Y-51259480D01*
X124868715Y-51259479D01*
X124864385Y-51255149D01*
X124864374Y-51255139D01*
X123799237Y-50190002D01*
X123765752Y-50128679D01*
X123765031Y-50079530D01*
X123766021Y-50074231D01*
X123766022Y-50074229D01*
X123785873Y-49860000D01*
X123784633Y-49846623D01*
X123766022Y-49645771D01*
X123750816Y-49592328D01*
X123707144Y-49438838D01*
X123686747Y-49397876D01*
X123611248Y-49246253D01*
X123611247Y-49246252D01*
X123611245Y-49246247D01*
X123481591Y-49074556D01*
X123481586Y-49074551D01*
X123481585Y-49074550D01*
X123322597Y-48929614D01*
X123273958Y-48899498D01*
X123139674Y-48816353D01*
X122939056Y-48738633D01*
X122794623Y-48711633D01*
X122732344Y-48679965D01*
X122697071Y-48619653D01*
X122700005Y-48549845D01*
X122740214Y-48492705D01*
X122794626Y-48467856D01*
X122938915Y-48440884D01*
X122938926Y-48440880D01*
X123139450Y-48363197D01*
X123139452Y-48363196D01*
X123244561Y-48298114D01*
X122672848Y-47726400D01*
X122673504Y-47726400D01*
X122776865Y-47698705D01*
X122869536Y-47645201D01*
X122945201Y-47569536D01*
X122998705Y-47476865D01*
X123026400Y-47373504D01*
X123026400Y-47372847D01*
X123600588Y-47947035D01*
X123610816Y-47933491D01*
X123706674Y-47740984D01*
X123765528Y-47534131D01*
X123785370Y-47320000D01*
X123765528Y-47105868D01*
X123706674Y-46899015D01*
X123610821Y-46706517D01*
X123610813Y-46706504D01*
X123600587Y-46692963D01*
X123026400Y-47267151D01*
X123026400Y-47266496D01*
X122998705Y-47163135D01*
X122945201Y-47070464D01*
X122869536Y-46994799D01*
X122776865Y-46941295D01*
X122673504Y-46913600D01*
X122672847Y-46913600D01*
X123244561Y-46341884D01*
X123244560Y-46341883D01*
X123139454Y-46276804D01*
X123139448Y-46276802D01*
X122938916Y-46199116D01*
X122794625Y-46172143D01*
X122732344Y-46140475D01*
X122697071Y-46080162D01*
X122700005Y-46010354D01*
X122740214Y-45953214D01*
X122794621Y-45928366D01*
X122939056Y-45901367D01*
X123139674Y-45823647D01*
X123322595Y-45710387D01*
X123481591Y-45565444D01*
X123611245Y-45393753D01*
X123707144Y-45201162D01*
X123766022Y-44994229D01*
X123785873Y-44780000D01*
X123766022Y-44565771D01*
X123707144Y-44358838D01*
X123663377Y-44270943D01*
X123611248Y-44166253D01*
X123611247Y-44166252D01*
X123611245Y-44166247D01*
X123481591Y-43994556D01*
X123481587Y-43994552D01*
X123481585Y-43994550D01*
X123322597Y-43849614D01*
X123282811Y-43824979D01*
X123139674Y-43736353D01*
X122939056Y-43658633D01*
X122795983Y-43631888D01*
X122733704Y-43600221D01*
X122698431Y-43539908D01*
X122701365Y-43470100D01*
X122741574Y-43412960D01*
X122795982Y-43388111D01*
X122939056Y-43361367D01*
X123139674Y-43283647D01*
X123322595Y-43170387D01*
X123481591Y-43025444D01*
X123611245Y-42853753D01*
X123707144Y-42661162D01*
X123766022Y-42454229D01*
X123785873Y-42240000D01*
X123777577Y-42150476D01*
X123766022Y-42025771D01*
X123758046Y-41997738D01*
X123707144Y-41818838D01*
X123637639Y-41679254D01*
X123611248Y-41626253D01*
X123611247Y-41626252D01*
X123611245Y-41626247D01*
X123481591Y-41454556D01*
X123481587Y-41454552D01*
X123481585Y-41454550D01*
X123322597Y-41309614D01*
X123282811Y-41284979D01*
X123139674Y-41196353D01*
X122939056Y-41118633D01*
X122795983Y-41091888D01*
X122733704Y-41060221D01*
X122698431Y-40999908D01*
X122701365Y-40930100D01*
X122741574Y-40872960D01*
X122795982Y-40848111D01*
X122939056Y-40821367D01*
X123139674Y-40743647D01*
X123322595Y-40630387D01*
X123481591Y-40485444D01*
X123611245Y-40313753D01*
X123707144Y-40121162D01*
X123766022Y-39914229D01*
X123785873Y-39700000D01*
X123775896Y-39592335D01*
X123766022Y-39485771D01*
X123746808Y-39418243D01*
X123707144Y-39278838D01*
X123692154Y-39248735D01*
X123611248Y-39086253D01*
X123611247Y-39086252D01*
X123611245Y-39086247D01*
X123481591Y-38914556D01*
X123481587Y-38914552D01*
X123481585Y-38914550D01*
X123322597Y-38769614D01*
X123245508Y-38721883D01*
X123139674Y-38656353D01*
X122939056Y-38578633D01*
X122795983Y-38551888D01*
X122733704Y-38520221D01*
X122698431Y-38459908D01*
X122701365Y-38390100D01*
X122741574Y-38332960D01*
X122795982Y-38308111D01*
X122939056Y-38281367D01*
X123139674Y-38203647D01*
X123322595Y-38090387D01*
X123481591Y-37945444D01*
X123584045Y-37809771D01*
X123640151Y-37768137D01*
X123682997Y-37760500D01*
X124082664Y-37760500D01*
X124149703Y-37780185D01*
X124195458Y-37832989D01*
X124205884Y-37898384D01*
X124194435Y-37999997D01*
X124194435Y-38000003D01*
X124214630Y-38179249D01*
X124214631Y-38179254D01*
X124274211Y-38349523D01*
X124350009Y-38470154D01*
X124370184Y-38502262D01*
X124497738Y-38629816D01*
X124650478Y-38725789D01*
X124820745Y-38785368D01*
X124907669Y-38795161D01*
X124972080Y-38822226D01*
X124981465Y-38830700D01*
X125363181Y-39212416D01*
X125396666Y-39273739D01*
X125399500Y-39300097D01*
X125399500Y-55913330D01*
X125399499Y-55913348D01*
X125399499Y-56079054D01*
X125399498Y-56079054D01*
X125423894Y-56170100D01*
X125440423Y-56231785D01*
X125461457Y-56268216D01*
X125479935Y-56300221D01*
X125513658Y-56358633D01*
X125519480Y-56368716D01*
X125631284Y-56480520D01*
X125631285Y-56480521D01*
X126131284Y-56980520D01*
X126131286Y-56980521D01*
X126131290Y-56980524D01*
X126218230Y-57030718D01*
X126268216Y-57059577D01*
X126420943Y-57100501D01*
X126420945Y-57100501D01*
X126586654Y-57100501D01*
X126586670Y-57100500D01*
X137417588Y-57100500D01*
X137484627Y-57120185D01*
X137494903Y-57127555D01*
X137497736Y-57129814D01*
X137497738Y-57129816D01*
X137650478Y-57225789D01*
X137764740Y-57265771D01*
X137820745Y-57285368D01*
X137820750Y-57285369D01*
X137999996Y-57305565D01*
X138000000Y-57305565D01*
X138000004Y-57305565D01*
X138179249Y-57285369D01*
X138179252Y-57285368D01*
X138179255Y-57285368D01*
X138349522Y-57225789D01*
X138502262Y-57129816D01*
X138629816Y-57002262D01*
X138725789Y-56849522D01*
X138785368Y-56679255D01*
X138805565Y-56500000D01*
X138803370Y-56480521D01*
X138785369Y-56320750D01*
X138785368Y-56320745D01*
X138757082Y-56239908D01*
X138725789Y-56150478D01*
X138629816Y-55997738D01*
X138502262Y-55870184D01*
X138491117Y-55863181D01*
X138349523Y-55774211D01*
X138179254Y-55714631D01*
X138179249Y-55714630D01*
X138000004Y-55694435D01*
X137999996Y-55694435D01*
X137820750Y-55714630D01*
X137820745Y-55714631D01*
X137650476Y-55774211D01*
X137497736Y-55870185D01*
X137494903Y-55872445D01*
X137492724Y-55873334D01*
X137491842Y-55873889D01*
X137491744Y-55873734D01*
X137430217Y-55898855D01*
X137417588Y-55899500D01*
X126800098Y-55899500D01*
X126733059Y-55879815D01*
X126712417Y-55863181D01*
X126636819Y-55787583D01*
X126603334Y-55726260D01*
X126600500Y-55699902D01*
X126600500Y-51999994D01*
X128144529Y-51999994D01*
X128144529Y-52000005D01*
X128164379Y-52239559D01*
X128223389Y-52472589D01*
X128319951Y-52692729D01*
X128403868Y-52821172D01*
X128451429Y-52893969D01*
X128614236Y-53070825D01*
X128614239Y-53070827D01*
X128614242Y-53070830D01*
X128803924Y-53218466D01*
X128803930Y-53218470D01*
X128803933Y-53218472D01*
X129015344Y-53332882D01*
X129015347Y-53332883D01*
X129242699Y-53410933D01*
X129242701Y-53410933D01*
X129242703Y-53410934D01*
X129479808Y-53450500D01*
X129479809Y-53450500D01*
X129720191Y-53450500D01*
X129720192Y-53450500D01*
X129957297Y-53410934D01*
X130184656Y-53332882D01*
X130396067Y-53218472D01*
X130438502Y-53185444D01*
X130459768Y-53168891D01*
X130585764Y-53070825D01*
X130748571Y-52893969D01*
X130880049Y-52692728D01*
X130976610Y-52472591D01*
X131035620Y-52239563D01*
X131055471Y-52000000D01*
X131055471Y-51999994D01*
X132344529Y-51999994D01*
X132344529Y-52000005D01*
X132364379Y-52239559D01*
X132423389Y-52472589D01*
X132519951Y-52692729D01*
X132603868Y-52821172D01*
X132651429Y-52893969D01*
X132814236Y-53070825D01*
X132814239Y-53070827D01*
X132814242Y-53070830D01*
X133003924Y-53218466D01*
X133003930Y-53218470D01*
X133003933Y-53218472D01*
X133215344Y-53332882D01*
X133215347Y-53332883D01*
X133442699Y-53410933D01*
X133442701Y-53410933D01*
X133442703Y-53410934D01*
X133679808Y-53450500D01*
X133679809Y-53450500D01*
X133920191Y-53450500D01*
X133920192Y-53450500D01*
X134157297Y-53410934D01*
X134384656Y-53332882D01*
X134596067Y-53218472D01*
X134638502Y-53185444D01*
X134659768Y-53168891D01*
X134785764Y-53070825D01*
X134948571Y-52893969D01*
X135080049Y-52692728D01*
X135176610Y-52472591D01*
X135235620Y-52239563D01*
X135255471Y-52000000D01*
X135253717Y-51978838D01*
X135239351Y-51805467D01*
X135235620Y-51760437D01*
X135176610Y-51527409D01*
X135080049Y-51307272D01*
X135048823Y-51259478D01*
X134990299Y-51169900D01*
X134948571Y-51106031D01*
X134852928Y-51002135D01*
X136549500Y-51002135D01*
X136549500Y-52997870D01*
X136549501Y-52997876D01*
X136555908Y-53057483D01*
X136606202Y-53192328D01*
X136606206Y-53192335D01*
X136692452Y-53307544D01*
X136692455Y-53307547D01*
X136807664Y-53393793D01*
X136807671Y-53393797D01*
X136942517Y-53444091D01*
X136942516Y-53444091D01*
X136949444Y-53444835D01*
X137002127Y-53450500D01*
X138997872Y-53450499D01*
X139057483Y-53444091D01*
X139192331Y-53393796D01*
X139307546Y-53307546D01*
X139393796Y-53192331D01*
X139444091Y-53057483D01*
X139450500Y-52997873D01*
X139450499Y-51002128D01*
X139444091Y-50942517D01*
X139439500Y-50930209D01*
X139393797Y-50807671D01*
X139393793Y-50807664D01*
X139307547Y-50692455D01*
X139307544Y-50692452D01*
X139192335Y-50606206D01*
X139192328Y-50606202D01*
X139057482Y-50555908D01*
X139057483Y-50555908D01*
X138997883Y-50549501D01*
X138997881Y-50549500D01*
X138997873Y-50549500D01*
X138997864Y-50549500D01*
X137002129Y-50549500D01*
X137002123Y-50549501D01*
X136942516Y-50555908D01*
X136807671Y-50606202D01*
X136807664Y-50606206D01*
X136692455Y-50692452D01*
X136692452Y-50692455D01*
X136606206Y-50807664D01*
X136606202Y-50807671D01*
X136555908Y-50942517D01*
X136550512Y-50992715D01*
X136549501Y-51002123D01*
X136549500Y-51002135D01*
X134852928Y-51002135D01*
X134785764Y-50929175D01*
X134785759Y-50929171D01*
X134785757Y-50929169D01*
X134596075Y-50781533D01*
X134596069Y-50781529D01*
X134384657Y-50667118D01*
X134384652Y-50667116D01*
X134157300Y-50589066D01*
X133958593Y-50555908D01*
X133920192Y-50549500D01*
X133679808Y-50549500D01*
X133641407Y-50555908D01*
X133442699Y-50589066D01*
X133215347Y-50667116D01*
X133215342Y-50667118D01*
X133003930Y-50781529D01*
X133003924Y-50781533D01*
X132814242Y-50929169D01*
X132814239Y-50929172D01*
X132651430Y-51106029D01*
X132651427Y-51106033D01*
X132519951Y-51307270D01*
X132423389Y-51527410D01*
X132364379Y-51760440D01*
X132344529Y-51999994D01*
X131055471Y-51999994D01*
X131053717Y-51978838D01*
X131039351Y-51805467D01*
X131035620Y-51760437D01*
X130976610Y-51527409D01*
X130880049Y-51307272D01*
X130848823Y-51259478D01*
X130790299Y-51169900D01*
X130748571Y-51106031D01*
X130585764Y-50929175D01*
X130585759Y-50929171D01*
X130585757Y-50929169D01*
X130396075Y-50781533D01*
X130396069Y-50781529D01*
X130184657Y-50667118D01*
X130184652Y-50667116D01*
X129957300Y-50589066D01*
X129758593Y-50555908D01*
X129720192Y-50549500D01*
X129479808Y-50549500D01*
X129441407Y-50555908D01*
X129242699Y-50589066D01*
X129015347Y-50667116D01*
X129015342Y-50667118D01*
X128803930Y-50781529D01*
X128803924Y-50781533D01*
X128614242Y-50929169D01*
X128614239Y-50929172D01*
X128451430Y-51106029D01*
X128451427Y-51106033D01*
X128319951Y-51307270D01*
X128223389Y-51527410D01*
X128164379Y-51760440D01*
X128144529Y-51999994D01*
X126600500Y-51999994D01*
X126600500Y-46499994D01*
X128145031Y-46499994D01*
X128145031Y-46500005D01*
X128164874Y-46739476D01*
X128223865Y-46972428D01*
X128320391Y-47192485D01*
X128412688Y-47333757D01*
X128960689Y-46785755D01*
X128979668Y-46831574D01*
X129056274Y-46946224D01*
X129153776Y-47043726D01*
X129268426Y-47120332D01*
X129314242Y-47139309D01*
X128765572Y-47687979D01*
X128804208Y-47718051D01*
X129015544Y-47832421D01*
X129015550Y-47832423D01*
X129242823Y-47910446D01*
X129479851Y-47950000D01*
X129720149Y-47950000D01*
X129957176Y-47910446D01*
X130184449Y-47832423D01*
X130184455Y-47832421D01*
X130395794Y-47718049D01*
X130395795Y-47718048D01*
X130434426Y-47687980D01*
X130434427Y-47687979D01*
X129885757Y-47139309D01*
X129931574Y-47120332D01*
X130046224Y-47043726D01*
X130143726Y-46946224D01*
X130220332Y-46831574D01*
X130239309Y-46785756D01*
X130787310Y-47333757D01*
X130879606Y-47192490D01*
X130976134Y-46972428D01*
X131035125Y-46739476D01*
X131054969Y-46500005D01*
X131054969Y-46499994D01*
X132344529Y-46499994D01*
X132344529Y-46500005D01*
X132364379Y-46739559D01*
X132423389Y-46972589D01*
X132519951Y-47192729D01*
X132603102Y-47320000D01*
X132651429Y-47393969D01*
X132814236Y-47570825D01*
X132814239Y-47570827D01*
X132814242Y-47570830D01*
X133003924Y-47718466D01*
X133003930Y-47718470D01*
X133003933Y-47718472D01*
X133215344Y-47832882D01*
X133215347Y-47832883D01*
X133442699Y-47910933D01*
X133442701Y-47910933D01*
X133442703Y-47910934D01*
X133679808Y-47950500D01*
X133679809Y-47950500D01*
X133920191Y-47950500D01*
X133920192Y-47950500D01*
X134157297Y-47910934D01*
X134384656Y-47832882D01*
X134596067Y-47718472D01*
X134596611Y-47718049D01*
X134670086Y-47660861D01*
X134785764Y-47570825D01*
X134948571Y-47393969D01*
X135080049Y-47192728D01*
X135176610Y-46972591D01*
X135235620Y-46739563D01*
X135249758Y-46568944D01*
X135255471Y-46500005D01*
X135255471Y-46499994D01*
X136544529Y-46499994D01*
X136544529Y-46500005D01*
X136564379Y-46739559D01*
X136623389Y-46972589D01*
X136719951Y-47192729D01*
X136803102Y-47320000D01*
X136851429Y-47393969D01*
X137014236Y-47570825D01*
X137014239Y-47570827D01*
X137014242Y-47570830D01*
X137203924Y-47718466D01*
X137203930Y-47718470D01*
X137203933Y-47718472D01*
X137415344Y-47832882D01*
X137415347Y-47832883D01*
X137642699Y-47910933D01*
X137642701Y-47910933D01*
X137642703Y-47910934D01*
X137879808Y-47950500D01*
X137879809Y-47950500D01*
X138120191Y-47950500D01*
X138120192Y-47950500D01*
X138357297Y-47910934D01*
X138584656Y-47832882D01*
X138796067Y-47718472D01*
X138796611Y-47718049D01*
X138870086Y-47660861D01*
X138985764Y-47570825D01*
X139148571Y-47393969D01*
X139280049Y-47192728D01*
X139376610Y-46972591D01*
X139435620Y-46739563D01*
X139449758Y-46568944D01*
X139455471Y-46500005D01*
X139455471Y-46499994D01*
X139435620Y-46260440D01*
X139435620Y-46260437D01*
X139376610Y-46027409D01*
X139280049Y-45807272D01*
X139148571Y-45606031D01*
X138985764Y-45429175D01*
X138985759Y-45429171D01*
X138985757Y-45429169D01*
X138796075Y-45281533D01*
X138796069Y-45281529D01*
X138584657Y-45167118D01*
X138584652Y-45167116D01*
X138357300Y-45089066D01*
X138179468Y-45059391D01*
X138120192Y-45049500D01*
X137879808Y-45049500D01*
X137832387Y-45057413D01*
X137642699Y-45089066D01*
X137415347Y-45167116D01*
X137415342Y-45167118D01*
X137203930Y-45281529D01*
X137203924Y-45281533D01*
X137014242Y-45429169D01*
X137014239Y-45429172D01*
X136851430Y-45606029D01*
X136851427Y-45606033D01*
X136719951Y-45807270D01*
X136623389Y-46027410D01*
X136564379Y-46260440D01*
X136544529Y-46499994D01*
X135255471Y-46499994D01*
X135235620Y-46260440D01*
X135235620Y-46260437D01*
X135176610Y-46027409D01*
X135080049Y-45807272D01*
X134948571Y-45606031D01*
X134785764Y-45429175D01*
X134785759Y-45429171D01*
X134785757Y-45429169D01*
X134596075Y-45281533D01*
X134596069Y-45281529D01*
X134384657Y-45167118D01*
X134384652Y-45167116D01*
X134157300Y-45089066D01*
X133979468Y-45059391D01*
X133920192Y-45049500D01*
X133679808Y-45049500D01*
X133632387Y-45057413D01*
X133442699Y-45089066D01*
X133215347Y-45167116D01*
X133215342Y-45167118D01*
X133003930Y-45281529D01*
X133003924Y-45281533D01*
X132814242Y-45429169D01*
X132814239Y-45429172D01*
X132651430Y-45606029D01*
X132651427Y-45606033D01*
X132519951Y-45807270D01*
X132423389Y-46027410D01*
X132364379Y-46260440D01*
X132344529Y-46499994D01*
X131054969Y-46499994D01*
X131035125Y-46260523D01*
X130976134Y-46027571D01*
X130879608Y-45807514D01*
X130787310Y-45666241D01*
X130239309Y-46214242D01*
X130220332Y-46168426D01*
X130143726Y-46053776D01*
X130046224Y-45956274D01*
X129931574Y-45879668D01*
X129885755Y-45860689D01*
X130434426Y-45312019D01*
X130434426Y-45312017D01*
X130395801Y-45281954D01*
X130395795Y-45281950D01*
X130184455Y-45167578D01*
X130184449Y-45167576D01*
X129957176Y-45089553D01*
X129720149Y-45050000D01*
X129479851Y-45050000D01*
X129242823Y-45089553D01*
X129015550Y-45167576D01*
X129015544Y-45167578D01*
X128804209Y-45281948D01*
X128765571Y-45312019D01*
X129314242Y-45860690D01*
X129268426Y-45879668D01*
X129153776Y-45956274D01*
X129056274Y-46053776D01*
X128979668Y-46168426D01*
X128960689Y-46214243D01*
X128412687Y-45666241D01*
X128320392Y-45807511D01*
X128223865Y-46027571D01*
X128164874Y-46260523D01*
X128145031Y-46499994D01*
X126600500Y-46499994D01*
X126600500Y-39089060D01*
X126600501Y-39089047D01*
X126600501Y-38920944D01*
X126598790Y-38914558D01*
X126559577Y-38768216D01*
X126535082Y-38725789D01*
X126480524Y-38631290D01*
X126480518Y-38631282D01*
X125830700Y-37981465D01*
X125797215Y-37920142D01*
X125795161Y-37907667D01*
X125794115Y-37898383D01*
X125806170Y-37829561D01*
X125853519Y-37778182D01*
X125917335Y-37760500D01*
X133359903Y-37760500D01*
X133426942Y-37780185D01*
X133447584Y-37796819D01*
X137169298Y-41518533D01*
X137202783Y-41579856D01*
X137204837Y-41592330D01*
X137214630Y-41679249D01*
X137274210Y-41849521D01*
X137316979Y-41917587D01*
X137370184Y-42002262D01*
X137497738Y-42129816D01*
X137650478Y-42225789D01*
X137691091Y-42240000D01*
X137820745Y-42285368D01*
X137820750Y-42285369D01*
X137999996Y-42305565D01*
X138000000Y-42305565D01*
X138000004Y-42305565D01*
X138179249Y-42285369D01*
X138179252Y-42285368D01*
X138179255Y-42285368D01*
X138349522Y-42225789D01*
X138502262Y-42129816D01*
X138629816Y-42002262D01*
X138725789Y-41849522D01*
X138785368Y-41679255D01*
X138791341Y-41626247D01*
X138805565Y-41500003D01*
X138805565Y-41499996D01*
X138785369Y-41320750D01*
X138785368Y-41320745D01*
X138741841Y-41196352D01*
X138725789Y-41150478D01*
X138705779Y-41118633D01*
X138668916Y-41059965D01*
X138629816Y-40997738D01*
X138502262Y-40870184D01*
X138466727Y-40847856D01*
X138349521Y-40774210D01*
X138179249Y-40714630D01*
X138092330Y-40704837D01*
X138027916Y-40677770D01*
X138018533Y-40669298D01*
X134147590Y-36798355D01*
X134147588Y-36798352D01*
X134028717Y-36679481D01*
X134028716Y-36679480D01*
X133941904Y-36629360D01*
X133941904Y-36629359D01*
X133941900Y-36629358D01*
X133891785Y-36600423D01*
X133739057Y-36559499D01*
X133580943Y-36559499D01*
X133573347Y-36559499D01*
X133573331Y-36559500D01*
X125923082Y-36559500D01*
X125856043Y-36539815D01*
X125810288Y-36487011D01*
X125799862Y-36449383D01*
X125785369Y-36320750D01*
X125785368Y-36320745D01*
X125725789Y-36150478D01*
X125629816Y-35997738D01*
X125629814Y-35997736D01*
X125629813Y-35997734D01*
X125627550Y-35994896D01*
X125626659Y-35992715D01*
X125626111Y-35991842D01*
X125626264Y-35991745D01*
X125601144Y-35930209D01*
X125600500Y-35917587D01*
X125600500Y-34920945D01*
X125600500Y-34920943D01*
X125559577Y-34768216D01*
X125531112Y-34718913D01*
X125480524Y-34631290D01*
X125480518Y-34631282D01*
X125368717Y-34519481D01*
X125368709Y-34519475D01*
X125231790Y-34440426D01*
X125231786Y-34440424D01*
X125231784Y-34440423D01*
X125079057Y-34399500D01*
X125079056Y-34399500D01*
X124800097Y-34399500D01*
X124733058Y-34379815D01*
X124712416Y-34363181D01*
X124607590Y-34258355D01*
X124607588Y-34258352D01*
X124488717Y-34139481D01*
X124488716Y-34139480D01*
X124384061Y-34079058D01*
X124384060Y-34079057D01*
X124351783Y-34060422D01*
X124272047Y-34039057D01*
X124199057Y-34019499D01*
X124040943Y-34019499D01*
X124033347Y-34019499D01*
X124033331Y-34019500D01*
X123682997Y-34019500D01*
X123615958Y-33999815D01*
X123584046Y-33970230D01*
X123481591Y-33834556D01*
X123481586Y-33834551D01*
X123481585Y-33834550D01*
X123322597Y-33689614D01*
X123228400Y-33631290D01*
X123139674Y-33576353D01*
X122939056Y-33498633D01*
X122795983Y-33471888D01*
X122733704Y-33440221D01*
X122698431Y-33379908D01*
X122701365Y-33310100D01*
X122741574Y-33252960D01*
X122795982Y-33228111D01*
X122939056Y-33201367D01*
X123139674Y-33123647D01*
X123322595Y-33010387D01*
X123481591Y-32865444D01*
X123584045Y-32729771D01*
X123640151Y-32688137D01*
X123682997Y-32680500D01*
X123833331Y-32680500D01*
X123833347Y-32680501D01*
X123840943Y-32680501D01*
X123999054Y-32680501D01*
X123999057Y-32680501D01*
X124151785Y-32639577D01*
X124219468Y-32600500D01*
X124288716Y-32560520D01*
X124400520Y-32448716D01*
X124480520Y-32368716D01*
X124530639Y-32281904D01*
X124559577Y-32231785D01*
X124600500Y-32079057D01*
X124600500Y-31920943D01*
X124600500Y-28224500D01*
X124620185Y-28157461D01*
X124672989Y-28111706D01*
X124724500Y-28100500D01*
X126079055Y-28100500D01*
X126079057Y-28100500D01*
X126231784Y-28059577D01*
X126368716Y-27980520D01*
X126480520Y-27868716D01*
X126559577Y-27731784D01*
X126600500Y-27579057D01*
X126600500Y-24582412D01*
X126620185Y-24515373D01*
X126627555Y-24505097D01*
X126629810Y-24502267D01*
X126629816Y-24502262D01*
X126725789Y-24349522D01*
X126785368Y-24179255D01*
X126805565Y-24000000D01*
X126785368Y-23820745D01*
X126725789Y-23650478D01*
X126717206Y-23636819D01*
X126629815Y-23497737D01*
X126502262Y-23370184D01*
X126349523Y-23274211D01*
X126179254Y-23214631D01*
X126179249Y-23214630D01*
X126000004Y-23194435D01*
X125999996Y-23194435D01*
X125820750Y-23214630D01*
X125820739Y-23214633D01*
X125765453Y-23233978D01*
X125695674Y-23237539D01*
X125635047Y-23202809D01*
X125602821Y-23140816D01*
X125600500Y-23116936D01*
X125600500Y-22920945D01*
X125600500Y-22920943D01*
X125559577Y-22768216D01*
X125559576Y-22768214D01*
X125557473Y-22760365D01*
X125559809Y-22759739D01*
X125553658Y-22702472D01*
X125584939Y-22639996D01*
X125645031Y-22604349D01*
X125675686Y-22600500D01*
X129275500Y-22600500D01*
X129342539Y-22620185D01*
X129388294Y-22672989D01*
X129399500Y-22724500D01*
X129399500Y-28875500D01*
X129379815Y-28942539D01*
X129327011Y-28988294D01*
X129275500Y-28999500D01*
X128952130Y-28999500D01*
X128952123Y-28999501D01*
X128892516Y-29005908D01*
X128757671Y-29056202D01*
X128757664Y-29056206D01*
X128642455Y-29142452D01*
X128642452Y-29142455D01*
X128556206Y-29257664D01*
X128556202Y-29257671D01*
X128505908Y-29392517D01*
X128499501Y-29452116D01*
X128499501Y-29452123D01*
X128499500Y-29452135D01*
X128499500Y-31547870D01*
X128499501Y-31547876D01*
X128505908Y-31607483D01*
X128556202Y-31742328D01*
X128556206Y-31742335D01*
X128642452Y-31857544D01*
X128642455Y-31857547D01*
X128757664Y-31943793D01*
X128757671Y-31943797D01*
X128892517Y-31994091D01*
X128892516Y-31994091D01*
X128899444Y-31994835D01*
X128952127Y-32000500D01*
X131047872Y-32000499D01*
X131107483Y-31994091D01*
X131242331Y-31943796D01*
X131357546Y-31857546D01*
X131443796Y-31742331D01*
X131494091Y-31607483D01*
X131500500Y-31547873D01*
X131500499Y-30499994D01*
X133494357Y-30499994D01*
X133494357Y-30500005D01*
X133514890Y-30747812D01*
X133514892Y-30747824D01*
X133575936Y-30988881D01*
X133675826Y-31216606D01*
X133811833Y-31424782D01*
X133811836Y-31424785D01*
X133980256Y-31607738D01*
X134176491Y-31760474D01*
X134395190Y-31878828D01*
X134630386Y-31959571D01*
X134875665Y-32000500D01*
X135124335Y-32000500D01*
X135369614Y-31959571D01*
X135604810Y-31878828D01*
X135823509Y-31760474D01*
X136019744Y-31607738D01*
X136188164Y-31424785D01*
X136324173Y-31216607D01*
X136424063Y-30988881D01*
X136485108Y-30747821D01*
X136492272Y-30661365D01*
X136505643Y-30500005D01*
X136505643Y-30499994D01*
X136485109Y-30252187D01*
X136485107Y-30252175D01*
X136424063Y-30011118D01*
X136324173Y-29783393D01*
X136188166Y-29575217D01*
X136082588Y-29460529D01*
X136019744Y-29392262D01*
X135823509Y-29239526D01*
X135823507Y-29239525D01*
X135823506Y-29239524D01*
X135604811Y-29121172D01*
X135604802Y-29121169D01*
X135369616Y-29040429D01*
X135124335Y-28999500D01*
X134875665Y-28999500D01*
X134630383Y-29040429D01*
X134395197Y-29121169D01*
X134395188Y-29121172D01*
X134176493Y-29239524D01*
X133980257Y-29392261D01*
X133811833Y-29575217D01*
X133675826Y-29783393D01*
X133575936Y-30011118D01*
X133514892Y-30252175D01*
X133514890Y-30252187D01*
X133494357Y-30499994D01*
X131500499Y-30499994D01*
X131500499Y-29452128D01*
X131494091Y-29392517D01*
X131486215Y-29371401D01*
X131443797Y-29257671D01*
X131443793Y-29257664D01*
X131357547Y-29142455D01*
X131357544Y-29142452D01*
X131242335Y-29056206D01*
X131242328Y-29056202D01*
X131107482Y-29005908D01*
X131107483Y-29005908D01*
X131047883Y-28999501D01*
X131047881Y-28999500D01*
X131047873Y-28999500D01*
X131047865Y-28999500D01*
X130724500Y-28999500D01*
X130657461Y-28979815D01*
X130611706Y-28927011D01*
X130600500Y-28875500D01*
X130600500Y-21920945D01*
X130600500Y-21920943D01*
X130559577Y-21768216D01*
X130491602Y-21650478D01*
X130480524Y-21631290D01*
X130480518Y-21631282D01*
X130368717Y-21519481D01*
X130368709Y-21519475D01*
X130231790Y-21440426D01*
X130231786Y-21440424D01*
X130231784Y-21440423D01*
X130079057Y-21399500D01*
X130079056Y-21399500D01*
X111582412Y-21399500D01*
X111515373Y-21379815D01*
X111505097Y-21372445D01*
X111502263Y-21370185D01*
X111502262Y-21370184D01*
X111445496Y-21334515D01*
X111349523Y-21274211D01*
X111179254Y-21214631D01*
X111179249Y-21214630D01*
X111000004Y-21194435D01*
X110999996Y-21194435D01*
X110820750Y-21214630D01*
X110820745Y-21214631D01*
X110650476Y-21274211D01*
X110497737Y-21370184D01*
X110370184Y-21497737D01*
X110274211Y-21650476D01*
X110214631Y-21820745D01*
X110214630Y-21820750D01*
X110194435Y-21999996D01*
X110194435Y-22000003D01*
X110214630Y-22179249D01*
X110214633Y-22179262D01*
X110233978Y-22234545D01*
X110237540Y-22304324D01*
X110202812Y-22364951D01*
X110140818Y-22397179D01*
X110116937Y-22399500D01*
X107046670Y-22399500D01*
X107046654Y-22399499D01*
X107039058Y-22399499D01*
X106880943Y-22399499D01*
X106804579Y-22419961D01*
X106728214Y-22440423D01*
X106728209Y-22440426D01*
X106591290Y-22519475D01*
X106591282Y-22519481D01*
X101943530Y-27167233D01*
X101882207Y-27200718D01*
X101823756Y-27199327D01*
X101695413Y-27164938D01*
X101695403Y-27164936D01*
X101460001Y-27144341D01*
X101459999Y-27144341D01*
X101224596Y-27164936D01*
X101224586Y-27164938D01*
X100996344Y-27226094D01*
X100996335Y-27226098D01*
X100782171Y-27325964D01*
X100782169Y-27325965D01*
X100588600Y-27461503D01*
X100466284Y-27583819D01*
X100404961Y-27617303D01*
X100335269Y-27612319D01*
X100279336Y-27570447D01*
X100262421Y-27539470D01*
X100213354Y-27407913D01*
X100213350Y-27407906D01*
X100127190Y-27292812D01*
X100127187Y-27292809D01*
X100012093Y-27206649D01*
X100012086Y-27206645D01*
X99877379Y-27156403D01*
X99877372Y-27156401D01*
X99817844Y-27150000D01*
X99170000Y-27150000D01*
X99170000Y-28066988D01*
X99112993Y-28034075D01*
X98985826Y-28000000D01*
X98854174Y-28000000D01*
X98727007Y-28034075D01*
X98670000Y-28066988D01*
X98670000Y-27150000D01*
X98022155Y-27150000D01*
X97962627Y-27156401D01*
X97962620Y-27156403D01*
X97827913Y-27206645D01*
X97827906Y-27206649D01*
X97712812Y-27292809D01*
X97712809Y-27292812D01*
X97626649Y-27407906D01*
X97626645Y-27407913D01*
X97576403Y-27542620D01*
X97576401Y-27542627D01*
X97570000Y-27602155D01*
X97570000Y-28250000D01*
X98486988Y-28250000D01*
X98454075Y-28307007D01*
X98420000Y-28434174D01*
X98420000Y-28565826D01*
X98454075Y-28692993D01*
X98486988Y-28750000D01*
X97570000Y-28750000D01*
X97570000Y-29397844D01*
X97576401Y-29457372D01*
X97576403Y-29457379D01*
X97626645Y-29592086D01*
X97626649Y-29592093D01*
X97712809Y-29707187D01*
X97712812Y-29707190D01*
X97827906Y-29793350D01*
X97827913Y-29793354D01*
X97962620Y-29843596D01*
X97962627Y-29843598D01*
X98022155Y-29849999D01*
X98022172Y-29850000D01*
X98670000Y-29850000D01*
X98670000Y-28933012D01*
X98727007Y-28965925D01*
X98854174Y-29000000D01*
X98985826Y-29000000D01*
X99112993Y-28965925D01*
X99170000Y-28933012D01*
X99170000Y-29850000D01*
X99817828Y-29850000D01*
X99817844Y-29849999D01*
X99877372Y-29843598D01*
X99877379Y-29843596D01*
X100012086Y-29793354D01*
X100012093Y-29793350D01*
X100127187Y-29707190D01*
X100127190Y-29707187D01*
X100213350Y-29592093D01*
X100213354Y-29592086D01*
X100262422Y-29460529D01*
X100304293Y-29404595D01*
X100369757Y-29380178D01*
X100438030Y-29395030D01*
X100466285Y-29416181D01*
X100588599Y-29538495D01*
X100685384Y-29606265D01*
X100782165Y-29674032D01*
X100782167Y-29674033D01*
X100782170Y-29674035D01*
X100996337Y-29773903D01*
X100996343Y-29773904D01*
X100996344Y-29773905D01*
X101051285Y-29788626D01*
X101224592Y-29835063D01*
X101401034Y-29850500D01*
X101459999Y-29855659D01*
X101460000Y-29855659D01*
X101460001Y-29855659D01*
X101518966Y-29850500D01*
X101695408Y-29835063D01*
X101923663Y-29773903D01*
X102137830Y-29674035D01*
X102331401Y-29538495D01*
X102498495Y-29371401D01*
X102628425Y-29185842D01*
X102683002Y-29142217D01*
X102752500Y-29135023D01*
X102814855Y-29166546D01*
X102831575Y-29185842D01*
X102961500Y-29371395D01*
X102961505Y-29371401D01*
X103128599Y-29538495D01*
X103225384Y-29606265D01*
X103322165Y-29674032D01*
X103322167Y-29674033D01*
X103322170Y-29674035D01*
X103536337Y-29773903D01*
X103536343Y-29773904D01*
X103536344Y-29773905D01*
X103591285Y-29788626D01*
X103764592Y-29835063D01*
X103941034Y-29850500D01*
X103999999Y-29855659D01*
X104000000Y-29855659D01*
X104000001Y-29855659D01*
X104058966Y-29850500D01*
X104235408Y-29835063D01*
X104463663Y-29773903D01*
X104677830Y-29674035D01*
X104871401Y-29538495D01*
X105038495Y-29371401D01*
X105168425Y-29185842D01*
X105223002Y-29142217D01*
X105292500Y-29135023D01*
X105354855Y-29166546D01*
X105371575Y-29185842D01*
X105501500Y-29371395D01*
X105501505Y-29371401D01*
X105668599Y-29538495D01*
X105765384Y-29606265D01*
X105862165Y-29674032D01*
X105862167Y-29674033D01*
X105862170Y-29674035D01*
X106076337Y-29773903D01*
X106076343Y-29773904D01*
X106076344Y-29773905D01*
X106131285Y-29788626D01*
X106304592Y-29835063D01*
X106481034Y-29850500D01*
X106539999Y-29855659D01*
X106540000Y-29855659D01*
X106540001Y-29855659D01*
X106598966Y-29850500D01*
X106775408Y-29835063D01*
X107003663Y-29773903D01*
X107217830Y-29674035D01*
X107411401Y-29538495D01*
X107578495Y-29371401D01*
X107714035Y-29177830D01*
X107813903Y-28963663D01*
X107875063Y-28735408D01*
X107895659Y-28500000D01*
X107875063Y-28264592D01*
X107820129Y-28059573D01*
X107813905Y-28036344D01*
X107813904Y-28036343D01*
X107813903Y-28036337D01*
X107714035Y-27822171D01*
X107708425Y-27814158D01*
X107578494Y-27628597D01*
X107411402Y-27461506D01*
X107411395Y-27461501D01*
X107217834Y-27325967D01*
X107217830Y-27325965D01*
X107146727Y-27292809D01*
X107003663Y-27226097D01*
X107003659Y-27226096D01*
X107003655Y-27226094D01*
X106775413Y-27164938D01*
X106775403Y-27164936D01*
X106540001Y-27144341D01*
X106539998Y-27144341D01*
X106512153Y-27146777D01*
X106443653Y-27133010D01*
X106393470Y-27084395D01*
X106377537Y-27016366D01*
X106400913Y-26950523D01*
X106413658Y-26935575D01*
X108712416Y-24636819D01*
X108773739Y-24603334D01*
X108800097Y-24600500D01*
X110116937Y-24600500D01*
X110183976Y-24620185D01*
X110229731Y-24672989D01*
X110239675Y-24742147D01*
X110233978Y-24765455D01*
X110214633Y-24820737D01*
X110214630Y-24820750D01*
X110194435Y-24999996D01*
X110194435Y-25000003D01*
X110214630Y-25179249D01*
X110214631Y-25179254D01*
X110274211Y-25349523D01*
X110370185Y-25502263D01*
X110372445Y-25505097D01*
X110373334Y-25507275D01*
X110373889Y-25508158D01*
X110373734Y-25508255D01*
X110398855Y-25569783D01*
X110399500Y-25582412D01*
X110399500Y-41917587D01*
X110379815Y-41984626D01*
X110372450Y-41994896D01*
X110370186Y-41997734D01*
X110274211Y-42150476D01*
X110214631Y-42320745D01*
X110214630Y-42320750D01*
X110194435Y-42499996D01*
X110194435Y-42500003D01*
X110214630Y-42679249D01*
X110214631Y-42679254D01*
X110274211Y-42849523D01*
X110319089Y-42920945D01*
X110370184Y-43002262D01*
X110497738Y-43129816D01*
X110650478Y-43225789D01*
X110815827Y-43283647D01*
X110820745Y-43285368D01*
X110820750Y-43285369D01*
X110999996Y-43305565D01*
X111000000Y-43305565D01*
X111000004Y-43305565D01*
X111179249Y-43285369D01*
X111179252Y-43285368D01*
X111179255Y-43285368D01*
X111349522Y-43225789D01*
X111502262Y-43129816D01*
X111629816Y-43002262D01*
X111670506Y-42937503D01*
X111722841Y-42891213D01*
X111791894Y-42880565D01*
X111855743Y-42908940D01*
X111894115Y-42967330D01*
X111899500Y-43003476D01*
X111899500Y-49199902D01*
X111879815Y-49266941D01*
X111863181Y-49287583D01*
X109936486Y-51214277D01*
X109875163Y-51247762D01*
X109805471Y-51242778D01*
X109749538Y-51200906D01*
X109731763Y-51167550D01*
X109725789Y-51150478D01*
X109651947Y-51032960D01*
X109629816Y-50997738D01*
X109629814Y-50997736D01*
X109629813Y-50997734D01*
X109627550Y-50994896D01*
X109626659Y-50992715D01*
X109626111Y-50991842D01*
X109626264Y-50991745D01*
X109601144Y-50930209D01*
X109600500Y-50917587D01*
X109600500Y-33920945D01*
X109600500Y-33920943D01*
X109559577Y-33768216D01*
X109524071Y-33706717D01*
X109480524Y-33631290D01*
X109480518Y-33631282D01*
X109368717Y-33519481D01*
X109368709Y-33519475D01*
X109231790Y-33440426D01*
X109231786Y-33440424D01*
X109231784Y-33440423D01*
X109079057Y-33399500D01*
X109079056Y-33399500D01*
X85184500Y-33399500D01*
X85117461Y-33379815D01*
X85071706Y-33327011D01*
X85060500Y-33275500D01*
X85060500Y-29789090D01*
X85080185Y-29722051D01*
X85132101Y-29676706D01*
X85137830Y-29674035D01*
X85331401Y-29538495D01*
X85498495Y-29371401D01*
X85628425Y-29185842D01*
X85683002Y-29142217D01*
X85752500Y-29135023D01*
X85814855Y-29166546D01*
X85831575Y-29185842D01*
X85961500Y-29371395D01*
X85961505Y-29371401D01*
X86128599Y-29538495D01*
X86225384Y-29606265D01*
X86322165Y-29674032D01*
X86322167Y-29674033D01*
X86322170Y-29674035D01*
X86536337Y-29773903D01*
X86536343Y-29773904D01*
X86536344Y-29773905D01*
X86591285Y-29788626D01*
X86764592Y-29835063D01*
X86941034Y-29850500D01*
X86999999Y-29855659D01*
X87000000Y-29855659D01*
X87000001Y-29855659D01*
X87058966Y-29850500D01*
X87235408Y-29835063D01*
X87463663Y-29773903D01*
X87677830Y-29674035D01*
X87871401Y-29538495D01*
X88038495Y-29371401D01*
X88174035Y-29177830D01*
X88273903Y-28963663D01*
X88335063Y-28735408D01*
X88355659Y-28500000D01*
X88335063Y-28264592D01*
X88280129Y-28059573D01*
X88273905Y-28036344D01*
X88273904Y-28036343D01*
X88273903Y-28036337D01*
X88174035Y-27822171D01*
X88168425Y-27814158D01*
X88038494Y-27628597D01*
X87871402Y-27461506D01*
X87871395Y-27461501D01*
X87677834Y-27325967D01*
X87677830Y-27325965D01*
X87606727Y-27292809D01*
X87463663Y-27226097D01*
X87463659Y-27226096D01*
X87463655Y-27226094D01*
X87235413Y-27164938D01*
X87235403Y-27164936D01*
X87000001Y-27144341D01*
X86999999Y-27144341D01*
X86764596Y-27164936D01*
X86764586Y-27164938D01*
X86536344Y-27226094D01*
X86536335Y-27226098D01*
X86322171Y-27325964D01*
X86322169Y-27325965D01*
X86128597Y-27461505D01*
X85961505Y-27628597D01*
X85831575Y-27814158D01*
X85776998Y-27857783D01*
X85707500Y-27864977D01*
X85645145Y-27833454D01*
X85628425Y-27814158D01*
X85498494Y-27628597D01*
X85331402Y-27461506D01*
X85331395Y-27461501D01*
X85137834Y-27325967D01*
X85137830Y-27325965D01*
X85066727Y-27292809D01*
X84923663Y-27226097D01*
X84923659Y-27226096D01*
X84923655Y-27226094D01*
X84695413Y-27164938D01*
X84695403Y-27164936D01*
X84460001Y-27144341D01*
X84459999Y-27144341D01*
X84224596Y-27164936D01*
X84224586Y-27164938D01*
X83996344Y-27226094D01*
X83996335Y-27226098D01*
X83782171Y-27325964D01*
X83782169Y-27325965D01*
X83588600Y-27461503D01*
X83466284Y-27583819D01*
X83404961Y-27617303D01*
X83335269Y-27612319D01*
X83279336Y-27570447D01*
X83262421Y-27539470D01*
X83213354Y-27407913D01*
X83213350Y-27407906D01*
X83127190Y-27292812D01*
X83127187Y-27292809D01*
X83012093Y-27206649D01*
X83012086Y-27206645D01*
X82877379Y-27156403D01*
X82877372Y-27156401D01*
X82817844Y-27150000D01*
X82170000Y-27150000D01*
X82170000Y-28066988D01*
X82112993Y-28034075D01*
X81985826Y-28000000D01*
X81854174Y-28000000D01*
X81727007Y-28034075D01*
X81670000Y-28066988D01*
X81670000Y-27150000D01*
X81022155Y-27150000D01*
X80962627Y-27156401D01*
X80962620Y-27156403D01*
X80827913Y-27206645D01*
X80827906Y-27206649D01*
X80712812Y-27292809D01*
X80712809Y-27292812D01*
X80626649Y-27407906D01*
X80626645Y-27407913D01*
X80576403Y-27542620D01*
X80576401Y-27542627D01*
X80570000Y-27602155D01*
X71350499Y-27602155D01*
X71350499Y-27602129D01*
X71350498Y-27602123D01*
X71348018Y-27579055D01*
X71344091Y-27542517D01*
X71342810Y-27539083D01*
X71293797Y-27407671D01*
X71293793Y-27407664D01*
X71207547Y-27292455D01*
X71207544Y-27292452D01*
X71092335Y-27206206D01*
X71092328Y-27206202D01*
X70957482Y-27155908D01*
X70957483Y-27155908D01*
X70897883Y-27149501D01*
X70897881Y-27149500D01*
X70897873Y-27149500D01*
X70897864Y-27149500D01*
X69102129Y-27149500D01*
X69102123Y-27149501D01*
X69042516Y-27155908D01*
X68907671Y-27206202D01*
X68907664Y-27206206D01*
X68792455Y-27292452D01*
X68792452Y-27292455D01*
X68706206Y-27407664D01*
X68706203Y-27407669D01*
X68657189Y-27539083D01*
X68615317Y-27595016D01*
X68549853Y-27619433D01*
X68481580Y-27604581D01*
X68453326Y-27583430D01*
X68331402Y-27461506D01*
X68331395Y-27461501D01*
X68137834Y-27325967D01*
X68137830Y-27325965D01*
X68066727Y-27292809D01*
X67923663Y-27226097D01*
X67923659Y-27226096D01*
X67923655Y-27226094D01*
X67695413Y-27164938D01*
X67695403Y-27164936D01*
X67460001Y-27144341D01*
X67459999Y-27144341D01*
X67224596Y-27164936D01*
X67224586Y-27164938D01*
X66996344Y-27226094D01*
X66996335Y-27226098D01*
X66782171Y-27325964D01*
X66782169Y-27325965D01*
X66588597Y-27461505D01*
X66421505Y-27628597D01*
X66285965Y-27822169D01*
X66285964Y-27822171D01*
X66186098Y-28036335D01*
X66186094Y-28036344D01*
X66124938Y-28264586D01*
X66124936Y-28264596D01*
X66104341Y-28499999D01*
X66104341Y-28500000D01*
X66124936Y-28735403D01*
X66124938Y-28735413D01*
X66186094Y-28963655D01*
X66186096Y-28963659D01*
X66186097Y-28963663D01*
X66259545Y-29121172D01*
X66285965Y-29177830D01*
X66285967Y-29177834D01*
X66394281Y-29332521D01*
X66421505Y-29371401D01*
X66588599Y-29538495D01*
X66685384Y-29606265D01*
X66782165Y-29674032D01*
X66782167Y-29674033D01*
X66782170Y-29674035D01*
X66996337Y-29773903D01*
X66996343Y-29773904D01*
X66996344Y-29773905D01*
X67051285Y-29788626D01*
X67224592Y-29835063D01*
X67401034Y-29850500D01*
X67459999Y-29855659D01*
X67460000Y-29855659D01*
X67460001Y-29855659D01*
X67518966Y-29850500D01*
X67695408Y-29835063D01*
X67923663Y-29773903D01*
X68137830Y-29674035D01*
X68331401Y-29538495D01*
X68453329Y-29416566D01*
X68514648Y-29383084D01*
X68584340Y-29388068D01*
X68640274Y-29429939D01*
X68657189Y-29460917D01*
X68706202Y-29592328D01*
X68706206Y-29592335D01*
X68792452Y-29707544D01*
X68792455Y-29707547D01*
X68907664Y-29793793D01*
X68907671Y-29793797D01*
X69042517Y-29844091D01*
X69042516Y-29844091D01*
X69049444Y-29844835D01*
X69102127Y-29850500D01*
X70449902Y-29850499D01*
X70516941Y-29870184D01*
X70537583Y-29886818D01*
X71863181Y-31212416D01*
X71896666Y-31273739D01*
X71899500Y-31300097D01*
X71899500Y-33407455D01*
X71879815Y-33474494D01*
X71840779Y-33512881D01*
X71782032Y-33549256D01*
X71782031Y-33549257D01*
X71619559Y-33697368D01*
X71487068Y-33872815D01*
X71487063Y-33872823D01*
X71389069Y-34069620D01*
X71328903Y-34281086D01*
X71308618Y-34500000D01*
X71328903Y-34718913D01*
X71389069Y-34930379D01*
X71487063Y-35127176D01*
X71487068Y-35127184D01*
X71553312Y-35214905D01*
X71619558Y-35302629D01*
X71782032Y-35450743D01*
X71905028Y-35526899D01*
X71957804Y-35559577D01*
X71968955Y-35566481D01*
X72173963Y-35645902D01*
X72185786Y-35648112D01*
X72248064Y-35679780D01*
X72283337Y-35740092D01*
X72280403Y-35809900D01*
X72240194Y-35867040D01*
X72185786Y-35891887D01*
X72173963Y-35894098D01*
X72116719Y-35916274D01*
X71968955Y-35973518D01*
X71968953Y-35973519D01*
X71782036Y-36089254D01*
X71782034Y-36089255D01*
X71782032Y-36089257D01*
X71703486Y-36160861D01*
X71619557Y-36237372D01*
X71487068Y-36412815D01*
X71487063Y-36412823D01*
X71389069Y-36609620D01*
X71328903Y-36821086D01*
X71308618Y-37040000D01*
X71328903Y-37258913D01*
X71389069Y-37470379D01*
X71487063Y-37667176D01*
X71487068Y-37667184D01*
X71538293Y-37735017D01*
X71619558Y-37842629D01*
X71782032Y-37990743D01*
X71968955Y-38106481D01*
X72173963Y-38185902D01*
X72185786Y-38188112D01*
X72248064Y-38219780D01*
X72283337Y-38280092D01*
X72280403Y-38349900D01*
X72240194Y-38407040D01*
X72185786Y-38431887D01*
X72173963Y-38434098D01*
X72116719Y-38456274D01*
X71968955Y-38513518D01*
X71968953Y-38513519D01*
X71782036Y-38629254D01*
X71782034Y-38629255D01*
X71782032Y-38629257D01*
X71619558Y-38777371D01*
X71619557Y-38777372D01*
X71487068Y-38952815D01*
X71487063Y-38952823D01*
X71389069Y-39149620D01*
X71328903Y-39361086D01*
X71308618Y-39580000D01*
X71328903Y-39798913D01*
X71389069Y-40010379D01*
X71487063Y-40207176D01*
X71487068Y-40207184D01*
X71536758Y-40272984D01*
X71619558Y-40382629D01*
X71782032Y-40530743D01*
X71800754Y-40542335D01*
X71968951Y-40646479D01*
X71968955Y-40646481D01*
X72173963Y-40725902D01*
X72185786Y-40728112D01*
X72248064Y-40759780D01*
X72283337Y-40820092D01*
X72280403Y-40889900D01*
X72240194Y-40947040D01*
X72185786Y-40971887D01*
X72173963Y-40974098D01*
X72131047Y-40990724D01*
X71968955Y-41053518D01*
X71968953Y-41053519D01*
X71782036Y-41169254D01*
X71782034Y-41169255D01*
X71782032Y-41169257D01*
X71628068Y-41309613D01*
X71619557Y-41317372D01*
X71487068Y-41492815D01*
X71487063Y-41492823D01*
X71389069Y-41689620D01*
X71328903Y-41901086D01*
X71308618Y-42120000D01*
X71328903Y-42338913D01*
X71389069Y-42550379D01*
X71487063Y-42747176D01*
X71487068Y-42747184D01*
X71502950Y-42768215D01*
X71619558Y-42922629D01*
X71782032Y-43070743D01*
X71968955Y-43186481D01*
X72173963Y-43265902D01*
X72390073Y-43306300D01*
X72390075Y-43306300D01*
X72609925Y-43306300D01*
X72609927Y-43306300D01*
X72826037Y-43265902D01*
X73031045Y-43186481D01*
X73217968Y-43070743D01*
X73380442Y-42922629D01*
X73512933Y-42747182D01*
X73610931Y-42550377D01*
X73656233Y-42391151D01*
X73693512Y-42332059D01*
X73756822Y-42302501D01*
X73826061Y-42311863D01*
X73879248Y-42357172D01*
X73899496Y-42424044D01*
X73899500Y-42425086D01*
X73899500Y-44275500D01*
X73879815Y-44342539D01*
X73827011Y-44388294D01*
X73775500Y-44399500D01*
X65604500Y-44399500D01*
X65537461Y-44379815D01*
X65491706Y-44327011D01*
X65480500Y-44275500D01*
X65480500Y-43212543D01*
X65500185Y-43145504D01*
X65539219Y-43107118D01*
X65597968Y-43070743D01*
X65760442Y-42922629D01*
X65892933Y-42747182D01*
X65990931Y-42550377D01*
X66051096Y-42338916D01*
X66071382Y-42120000D01*
X66051096Y-41901084D01*
X65990931Y-41689623D01*
X65990930Y-41689620D01*
X65892936Y-41492823D01*
X65892931Y-41492815D01*
X65858468Y-41447179D01*
X65760442Y-41317371D01*
X65597968Y-41169257D01*
X65452360Y-41079100D01*
X65411046Y-41053519D01*
X65411044Y-41053518D01*
X65297791Y-41009644D01*
X65206037Y-40974098D01*
X65206033Y-40974097D01*
X65202285Y-40973396D01*
X65194215Y-40971888D01*
X65131936Y-40940221D01*
X65096662Y-40879909D01*
X65099595Y-40810101D01*
X65139804Y-40752961D01*
X65194214Y-40728111D01*
X65206037Y-40725902D01*
X65411045Y-40646481D01*
X65597968Y-40530743D01*
X65760442Y-40382629D01*
X65892933Y-40207182D01*
X65893904Y-40205233D01*
X65990930Y-40010379D01*
X65990931Y-40010377D01*
X66051096Y-39798916D01*
X66071382Y-39580000D01*
X66051096Y-39361084D01*
X65990931Y-39149623D01*
X65959507Y-39086515D01*
X65892936Y-38952823D01*
X65892931Y-38952815D01*
X65819442Y-38855500D01*
X65760442Y-38777371D01*
X65597968Y-38629257D01*
X65538631Y-38592517D01*
X65411046Y-38513519D01*
X65411044Y-38513518D01*
X65320524Y-38478450D01*
X65206037Y-38434098D01*
X65206033Y-38434097D01*
X65202285Y-38433396D01*
X65194215Y-38431888D01*
X65131936Y-38400221D01*
X65096662Y-38339909D01*
X65099595Y-38270101D01*
X65139804Y-38212961D01*
X65194214Y-38188111D01*
X65206037Y-38185902D01*
X65411045Y-38106481D01*
X65597968Y-37990743D01*
X65760442Y-37842629D01*
X65892933Y-37667182D01*
X65990931Y-37470377D01*
X66051096Y-37258916D01*
X66071382Y-37040000D01*
X66051096Y-36821084D01*
X65990931Y-36609623D01*
X65990930Y-36609620D01*
X65892936Y-36412823D01*
X65892931Y-36412815D01*
X65843431Y-36347267D01*
X65760442Y-36237371D01*
X65597968Y-36089257D01*
X65473015Y-36011889D01*
X65411046Y-35973519D01*
X65411044Y-35973518D01*
X65357464Y-35952761D01*
X65288189Y-35925924D01*
X65232791Y-35883353D01*
X65209200Y-35817586D01*
X65224911Y-35749506D01*
X65274935Y-35700727D01*
X65332985Y-35686299D01*
X65613672Y-35686299D01*
X65673283Y-35679891D01*
X65808131Y-35629596D01*
X65923346Y-35543346D01*
X66009596Y-35428131D01*
X66059891Y-35293283D01*
X66066300Y-35233673D01*
X66066299Y-33766328D01*
X66059891Y-33706717D01*
X66056405Y-33697371D01*
X66009597Y-33571871D01*
X66009593Y-33571864D01*
X65923347Y-33456655D01*
X65923344Y-33456652D01*
X65808135Y-33370406D01*
X65808128Y-33370402D01*
X65673282Y-33320108D01*
X65673283Y-33320108D01*
X65613683Y-33313701D01*
X65613681Y-33313700D01*
X65613673Y-33313700D01*
X65613664Y-33313700D01*
X64146329Y-33313700D01*
X64146323Y-33313701D01*
X64086716Y-33320108D01*
X63951871Y-33370402D01*
X63951864Y-33370406D01*
X63836655Y-33456652D01*
X63836652Y-33456655D01*
X63750406Y-33571864D01*
X63750402Y-33571871D01*
X63700108Y-33706717D01*
X63693701Y-33766316D01*
X63693701Y-33766323D01*
X63693700Y-33766335D01*
X63693700Y-35233670D01*
X63693701Y-35233676D01*
X63700108Y-35293283D01*
X63750402Y-35428128D01*
X63750406Y-35428135D01*
X63836652Y-35543344D01*
X63836655Y-35543347D01*
X63951864Y-35629593D01*
X63951871Y-35629597D01*
X64086717Y-35679891D01*
X64086716Y-35679891D01*
X64093644Y-35680635D01*
X64146327Y-35686300D01*
X64427013Y-35686299D01*
X64494050Y-35705983D01*
X64539805Y-35758787D01*
X64549749Y-35827946D01*
X64520724Y-35891501D01*
X64471805Y-35925925D01*
X64348964Y-35973514D01*
X64348953Y-35973519D01*
X64162036Y-36089254D01*
X64162034Y-36089255D01*
X64162032Y-36089257D01*
X64083486Y-36160861D01*
X63999557Y-36237372D01*
X63867068Y-36412815D01*
X63867063Y-36412823D01*
X63769069Y-36609620D01*
X63708903Y-36821086D01*
X63688618Y-37040000D01*
X63708903Y-37258913D01*
X63711765Y-37268970D01*
X63711177Y-37338837D01*
X63680179Y-37390584D01*
X62207584Y-38863181D01*
X62146261Y-38896666D01*
X62119903Y-38899500D01*
X58924499Y-38899500D01*
X58857460Y-38879815D01*
X58811705Y-38827011D01*
X58800499Y-38775500D01*
X58800499Y-38652129D01*
X58800498Y-38652123D01*
X58800497Y-38652116D01*
X58794091Y-38592517D01*
X58779032Y-38552143D01*
X58743797Y-38457671D01*
X58743793Y-38457664D01*
X58657547Y-38342455D01*
X58657544Y-38342452D01*
X58542335Y-38256206D01*
X58542328Y-38256202D01*
X58407483Y-38205908D01*
X58402079Y-38204632D01*
X58341363Y-38170060D01*
X58308976Y-38108149D01*
X58315202Y-38038558D01*
X58342910Y-37996275D01*
X58500047Y-37839139D01*
X58630568Y-37652734D01*
X58726739Y-37446496D01*
X58785635Y-37226692D01*
X58805468Y-37000000D01*
X58785635Y-36773308D01*
X58726739Y-36553504D01*
X58630568Y-36347266D01*
X58500047Y-36160861D01*
X58500045Y-36160858D01*
X58339141Y-35999954D01*
X58152734Y-35869432D01*
X58152732Y-35869431D01*
X57946497Y-35773261D01*
X57946488Y-35773258D01*
X57726697Y-35714366D01*
X57726693Y-35714365D01*
X57726692Y-35714365D01*
X57726691Y-35714364D01*
X57726686Y-35714364D01*
X57500002Y-35694532D01*
X57499998Y-35694532D01*
X57273313Y-35714364D01*
X57273302Y-35714366D01*
X57053511Y-35773258D01*
X57053502Y-35773261D01*
X56847267Y-35869431D01*
X56847265Y-35869432D01*
X56660858Y-35999954D01*
X56499954Y-36160858D01*
X56369432Y-36347265D01*
X56369431Y-36347267D01*
X56273261Y-36553502D01*
X56273258Y-36553511D01*
X56214366Y-36773302D01*
X56214364Y-36773313D01*
X56194532Y-36999998D01*
X51000500Y-36999998D01*
X51000500Y-19624500D01*
X51020185Y-19557461D01*
X51072989Y-19511706D01*
X51124500Y-19500500D01*
X146875500Y-19500500D01*
X146942539Y-19520185D01*
G37*
%TD.AperFunction*%
%TD*%
M02*
