%TF.GenerationSoftware,KiCad,Pcbnew,8.0.8*%
%TF.CreationDate,2025-02-26T21:24:02-07:00*%
%TF.ProjectId,Metal Detector,4d657461-6c20-4446-9574-6563746f722e,rev?*%
%TF.SameCoordinates,Original*%
%TF.FileFunction,Legend,Bot*%
%TF.FilePolarity,Positive*%
%FSLAX46Y46*%
G04 Gerber Fmt 4.6, Leading zero omitted, Abs format (unit mm)*
G04 Created by KiCad (PCBNEW 8.0.8) date 2025-02-26 21:24:02*
%MOMM*%
%LPD*%
G01*
G04 APERTURE LIST*
%ADD10C,0.100000*%
G04 APERTURE END LIST*
D10*
X78196115Y-62872419D02*
X78196115Y-61872419D01*
X78196115Y-61872419D02*
X77958020Y-61872419D01*
X77958020Y-61872419D02*
X77815163Y-61920038D01*
X77815163Y-61920038D02*
X77719925Y-62015276D01*
X77719925Y-62015276D02*
X77672306Y-62110514D01*
X77672306Y-62110514D02*
X77624687Y-62300990D01*
X77624687Y-62300990D02*
X77624687Y-62443847D01*
X77624687Y-62443847D02*
X77672306Y-62634323D01*
X77672306Y-62634323D02*
X77719925Y-62729561D01*
X77719925Y-62729561D02*
X77815163Y-62824800D01*
X77815163Y-62824800D02*
X77958020Y-62872419D01*
X77958020Y-62872419D02*
X78196115Y-62872419D01*
X77196115Y-62872419D02*
X77196115Y-62205752D01*
X77196115Y-61872419D02*
X77243734Y-61920038D01*
X77243734Y-61920038D02*
X77196115Y-61967657D01*
X77196115Y-61967657D02*
X77148496Y-61920038D01*
X77148496Y-61920038D02*
X77196115Y-61872419D01*
X77196115Y-61872419D02*
X77196115Y-61967657D01*
X76291354Y-62872419D02*
X76291354Y-61872419D01*
X76291354Y-62824800D02*
X76386592Y-62872419D01*
X76386592Y-62872419D02*
X76577068Y-62872419D01*
X76577068Y-62872419D02*
X76672306Y-62824800D01*
X76672306Y-62824800D02*
X76719925Y-62777180D01*
X76719925Y-62777180D02*
X76767544Y-62681942D01*
X76767544Y-62681942D02*
X76767544Y-62396228D01*
X76767544Y-62396228D02*
X76719925Y-62300990D01*
X76719925Y-62300990D02*
X76672306Y-62253371D01*
X76672306Y-62253371D02*
X76577068Y-62205752D01*
X76577068Y-62205752D02*
X76386592Y-62205752D01*
X76386592Y-62205752D02*
X76291354Y-62253371D01*
X75862782Y-62824800D02*
X75767544Y-62872419D01*
X75767544Y-62872419D02*
X75577068Y-62872419D01*
X75577068Y-62872419D02*
X75481830Y-62824800D01*
X75481830Y-62824800D02*
X75434211Y-62729561D01*
X75434211Y-62729561D02*
X75434211Y-62681942D01*
X75434211Y-62681942D02*
X75481830Y-62586704D01*
X75481830Y-62586704D02*
X75577068Y-62539085D01*
X75577068Y-62539085D02*
X75719925Y-62539085D01*
X75719925Y-62539085D02*
X75815163Y-62491466D01*
X75815163Y-62491466D02*
X75862782Y-62396228D01*
X75862782Y-62396228D02*
X75862782Y-62348609D01*
X75862782Y-62348609D02*
X75815163Y-62253371D01*
X75815163Y-62253371D02*
X75719925Y-62205752D01*
X75719925Y-62205752D02*
X75577068Y-62205752D01*
X75577068Y-62205752D02*
X75481830Y-62253371D01*
X75005639Y-62872419D02*
X75005639Y-61872419D01*
X75005639Y-62253371D02*
X74910401Y-62205752D01*
X74910401Y-62205752D02*
X74719925Y-62205752D01*
X74719925Y-62205752D02*
X74624687Y-62253371D01*
X74624687Y-62253371D02*
X74577068Y-62300990D01*
X74577068Y-62300990D02*
X74529449Y-62396228D01*
X74529449Y-62396228D02*
X74529449Y-62681942D01*
X74529449Y-62681942D02*
X74577068Y-62777180D01*
X74577068Y-62777180D02*
X74624687Y-62824800D01*
X74624687Y-62824800D02*
X74719925Y-62872419D01*
X74719925Y-62872419D02*
X74910401Y-62872419D01*
X74910401Y-62872419D02*
X75005639Y-62824800D01*
X73672306Y-62205752D02*
X73672306Y-62872419D01*
X74100877Y-62205752D02*
X74100877Y-62729561D01*
X74100877Y-62729561D02*
X74053258Y-62824800D01*
X74053258Y-62824800D02*
X73958020Y-62872419D01*
X73958020Y-62872419D02*
X73815163Y-62872419D01*
X73815163Y-62872419D02*
X73719925Y-62824800D01*
X73719925Y-62824800D02*
X73672306Y-62777180D01*
X73196115Y-62872419D02*
X73196115Y-62205752D01*
X73196115Y-62396228D02*
X73148496Y-62300990D01*
X73148496Y-62300990D02*
X73100877Y-62253371D01*
X73100877Y-62253371D02*
X73005639Y-62205752D01*
X73005639Y-62205752D02*
X72910401Y-62205752D01*
X72672305Y-62205752D02*
X72434210Y-62872419D01*
X72196115Y-62205752D02*
X72434210Y-62872419D01*
X72434210Y-62872419D02*
X72529448Y-63110514D01*
X72529448Y-63110514D02*
X72577067Y-63158133D01*
X72577067Y-63158133D02*
X72672305Y-63205752D01*
X71053257Y-62872419D02*
X71053257Y-61872419D01*
X71053257Y-61872419D02*
X70815162Y-61872419D01*
X70815162Y-61872419D02*
X70672305Y-61920038D01*
X70672305Y-61920038D02*
X70577067Y-62015276D01*
X70577067Y-62015276D02*
X70529448Y-62110514D01*
X70529448Y-62110514D02*
X70481829Y-62300990D01*
X70481829Y-62300990D02*
X70481829Y-62443847D01*
X70481829Y-62443847D02*
X70529448Y-62634323D01*
X70529448Y-62634323D02*
X70577067Y-62729561D01*
X70577067Y-62729561D02*
X70672305Y-62824800D01*
X70672305Y-62824800D02*
X70815162Y-62872419D01*
X70815162Y-62872419D02*
X71053257Y-62872419D01*
X70053257Y-62872419D02*
X70053257Y-62205752D01*
X70053257Y-61872419D02*
X70100876Y-61920038D01*
X70100876Y-61920038D02*
X70053257Y-61967657D01*
X70053257Y-61967657D02*
X70005638Y-61920038D01*
X70005638Y-61920038D02*
X70053257Y-61872419D01*
X70053257Y-61872419D02*
X70053257Y-61967657D01*
X69148496Y-62872419D02*
X69148496Y-61872419D01*
X69148496Y-62824800D02*
X69243734Y-62872419D01*
X69243734Y-62872419D02*
X69434210Y-62872419D01*
X69434210Y-62872419D02*
X69529448Y-62824800D01*
X69529448Y-62824800D02*
X69577067Y-62777180D01*
X69577067Y-62777180D02*
X69624686Y-62681942D01*
X69624686Y-62681942D02*
X69624686Y-62396228D01*
X69624686Y-62396228D02*
X69577067Y-62300990D01*
X69577067Y-62300990D02*
X69529448Y-62253371D01*
X69529448Y-62253371D02*
X69434210Y-62205752D01*
X69434210Y-62205752D02*
X69243734Y-62205752D01*
X69243734Y-62205752D02*
X69148496Y-62253371D01*
X68243734Y-62872419D02*
X68243734Y-61872419D01*
X68243734Y-62824800D02*
X68338972Y-62872419D01*
X68338972Y-62872419D02*
X68529448Y-62872419D01*
X68529448Y-62872419D02*
X68624686Y-62824800D01*
X68624686Y-62824800D02*
X68672305Y-62777180D01*
X68672305Y-62777180D02*
X68719924Y-62681942D01*
X68719924Y-62681942D02*
X68719924Y-62396228D01*
X68719924Y-62396228D02*
X68672305Y-62300990D01*
X68672305Y-62300990D02*
X68624686Y-62253371D01*
X68624686Y-62253371D02*
X68529448Y-62205752D01*
X68529448Y-62205752D02*
X68338972Y-62205752D01*
X68338972Y-62205752D02*
X68243734Y-62253371D01*
X67624686Y-62872419D02*
X67719924Y-62824800D01*
X67719924Y-62824800D02*
X67767543Y-62729561D01*
X67767543Y-62729561D02*
X67767543Y-61872419D01*
X66862781Y-62824800D02*
X66958019Y-62872419D01*
X66958019Y-62872419D02*
X67148495Y-62872419D01*
X67148495Y-62872419D02*
X67243733Y-62824800D01*
X67243733Y-62824800D02*
X67291352Y-62729561D01*
X67291352Y-62729561D02*
X67291352Y-62348609D01*
X67291352Y-62348609D02*
X67243733Y-62253371D01*
X67243733Y-62253371D02*
X67148495Y-62205752D01*
X67148495Y-62205752D02*
X66958019Y-62205752D01*
X66958019Y-62205752D02*
X66862781Y-62253371D01*
X66862781Y-62253371D02*
X66815162Y-62348609D01*
X66815162Y-62348609D02*
X66815162Y-62443847D01*
X66815162Y-62443847D02*
X67291352Y-62539085D01*
X66386590Y-62872419D02*
X66386590Y-62205752D01*
X66386590Y-62396228D02*
X66338971Y-62300990D01*
X66338971Y-62300990D02*
X66291352Y-62253371D01*
X66291352Y-62253371D02*
X66196114Y-62205752D01*
X66196114Y-62205752D02*
X66100876Y-62205752D01*
X65815161Y-62824800D02*
X65719923Y-62872419D01*
X65719923Y-62872419D02*
X65529447Y-62872419D01*
X65529447Y-62872419D02*
X65434209Y-62824800D01*
X65434209Y-62824800D02*
X65386590Y-62729561D01*
X65386590Y-62729561D02*
X65386590Y-62681942D01*
X65386590Y-62681942D02*
X65434209Y-62586704D01*
X65434209Y-62586704D02*
X65529447Y-62539085D01*
X65529447Y-62539085D02*
X65672304Y-62539085D01*
X65672304Y-62539085D02*
X65767542Y-62491466D01*
X65767542Y-62491466D02*
X65815161Y-62396228D01*
X65815161Y-62396228D02*
X65815161Y-62348609D01*
X65815161Y-62348609D02*
X65767542Y-62253371D01*
X65767542Y-62253371D02*
X65672304Y-62205752D01*
X65672304Y-62205752D02*
X65529447Y-62205752D01*
X65529447Y-62205752D02*
X65434209Y-62253371D01*
X63386589Y-62872419D02*
X63434209Y-62872419D01*
X63434209Y-62872419D02*
X63529447Y-62824800D01*
X63529447Y-62824800D02*
X63672304Y-62681942D01*
X63672304Y-62681942D02*
X63910399Y-62396228D01*
X63910399Y-62396228D02*
X64005637Y-62253371D01*
X64005637Y-62253371D02*
X64053256Y-62110514D01*
X64053256Y-62110514D02*
X64053256Y-62015276D01*
X64053256Y-62015276D02*
X64005637Y-61920038D01*
X64005637Y-61920038D02*
X63910399Y-61872419D01*
X63910399Y-61872419D02*
X63862780Y-61872419D01*
X63862780Y-61872419D02*
X63767542Y-61920038D01*
X63767542Y-61920038D02*
X63719923Y-62015276D01*
X63719923Y-62015276D02*
X63719923Y-62062895D01*
X63719923Y-62062895D02*
X63767542Y-62158133D01*
X63767542Y-62158133D02*
X63815161Y-62205752D01*
X63815161Y-62205752D02*
X64100875Y-62396228D01*
X64100875Y-62396228D02*
X64148494Y-62443847D01*
X64148494Y-62443847D02*
X64196113Y-62539085D01*
X64196113Y-62539085D02*
X64196113Y-62681942D01*
X64196113Y-62681942D02*
X64148494Y-62777180D01*
X64148494Y-62777180D02*
X64100875Y-62824800D01*
X64100875Y-62824800D02*
X64005637Y-62872419D01*
X64005637Y-62872419D02*
X63862780Y-62872419D01*
X63862780Y-62872419D02*
X63767542Y-62824800D01*
X63767542Y-62824800D02*
X63719923Y-62777180D01*
X63719923Y-62777180D02*
X63577066Y-62586704D01*
X63577066Y-62586704D02*
X63529447Y-62443847D01*
X63529447Y-62443847D02*
X63529447Y-62348609D01*
X61624685Y-62777180D02*
X61672304Y-62824800D01*
X61672304Y-62824800D02*
X61815161Y-62872419D01*
X61815161Y-62872419D02*
X61910399Y-62872419D01*
X61910399Y-62872419D02*
X62053256Y-62824800D01*
X62053256Y-62824800D02*
X62148494Y-62729561D01*
X62148494Y-62729561D02*
X62196113Y-62634323D01*
X62196113Y-62634323D02*
X62243732Y-62443847D01*
X62243732Y-62443847D02*
X62243732Y-62300990D01*
X62243732Y-62300990D02*
X62196113Y-62110514D01*
X62196113Y-62110514D02*
X62148494Y-62015276D01*
X62148494Y-62015276D02*
X62053256Y-61920038D01*
X62053256Y-61920038D02*
X61910399Y-61872419D01*
X61910399Y-61872419D02*
X61815161Y-61872419D01*
X61815161Y-61872419D02*
X61672304Y-61920038D01*
X61672304Y-61920038D02*
X61624685Y-61967657D01*
X61053256Y-62872419D02*
X61148494Y-62824800D01*
X61148494Y-62824800D02*
X61196113Y-62777180D01*
X61196113Y-62777180D02*
X61243732Y-62681942D01*
X61243732Y-62681942D02*
X61243732Y-62396228D01*
X61243732Y-62396228D02*
X61196113Y-62300990D01*
X61196113Y-62300990D02*
X61148494Y-62253371D01*
X61148494Y-62253371D02*
X61053256Y-62205752D01*
X61053256Y-62205752D02*
X60910399Y-62205752D01*
X60910399Y-62205752D02*
X60815161Y-62253371D01*
X60815161Y-62253371D02*
X60767542Y-62300990D01*
X60767542Y-62300990D02*
X60719923Y-62396228D01*
X60719923Y-62396228D02*
X60719923Y-62681942D01*
X60719923Y-62681942D02*
X60767542Y-62777180D01*
X60767542Y-62777180D02*
X60815161Y-62824800D01*
X60815161Y-62824800D02*
X60910399Y-62872419D01*
X60910399Y-62872419D02*
X61053256Y-62872419D01*
X60291351Y-62777180D02*
X60243732Y-62824800D01*
X60243732Y-62824800D02*
X60291351Y-62872419D01*
X60291351Y-62872419D02*
X60338970Y-62824800D01*
X60338970Y-62824800D02*
X60291351Y-62777180D01*
X60291351Y-62777180D02*
X60291351Y-62872419D01*
X59053256Y-62348609D02*
X58719923Y-62348609D01*
X58577066Y-62872419D02*
X59053256Y-62872419D01*
X59053256Y-62872419D02*
X59053256Y-61872419D01*
X59053256Y-61872419D02*
X58577066Y-61872419D01*
X58196113Y-62824800D02*
X58100875Y-62872419D01*
X58100875Y-62872419D02*
X57910399Y-62872419D01*
X57910399Y-62872419D02*
X57815161Y-62824800D01*
X57815161Y-62824800D02*
X57767542Y-62729561D01*
X57767542Y-62729561D02*
X57767542Y-62681942D01*
X57767542Y-62681942D02*
X57815161Y-62586704D01*
X57815161Y-62586704D02*
X57910399Y-62539085D01*
X57910399Y-62539085D02*
X58053256Y-62539085D01*
X58053256Y-62539085D02*
X58148494Y-62491466D01*
X58148494Y-62491466D02*
X58196113Y-62396228D01*
X58196113Y-62396228D02*
X58196113Y-62348609D01*
X58196113Y-62348609D02*
X58148494Y-62253371D01*
X58148494Y-62253371D02*
X58053256Y-62205752D01*
X58053256Y-62205752D02*
X57910399Y-62205752D01*
X57910399Y-62205752D02*
X57815161Y-62253371D01*
X57481827Y-62205752D02*
X57100875Y-62205752D01*
X57338970Y-61872419D02*
X57338970Y-62729561D01*
X57338970Y-62729561D02*
X57291351Y-62824800D01*
X57291351Y-62824800D02*
X57196113Y-62872419D01*
X57196113Y-62872419D02*
X57100875Y-62872419D01*
X56767541Y-62777180D02*
X56719922Y-62824800D01*
X56719922Y-62824800D02*
X56767541Y-62872419D01*
X56767541Y-62872419D02*
X56815160Y-62824800D01*
X56815160Y-62824800D02*
X56767541Y-62777180D01*
X56767541Y-62777180D02*
X56767541Y-62872419D01*
X55577065Y-61967657D02*
X55529446Y-61920038D01*
X55529446Y-61920038D02*
X55434208Y-61872419D01*
X55434208Y-61872419D02*
X55196113Y-61872419D01*
X55196113Y-61872419D02*
X55100875Y-61920038D01*
X55100875Y-61920038D02*
X55053256Y-61967657D01*
X55053256Y-61967657D02*
X55005637Y-62062895D01*
X55005637Y-62062895D02*
X55005637Y-62158133D01*
X55005637Y-62158133D02*
X55053256Y-62300990D01*
X55053256Y-62300990D02*
X55624684Y-62872419D01*
X55624684Y-62872419D02*
X55005637Y-62872419D01*
X54386589Y-61872419D02*
X54291351Y-61872419D01*
X54291351Y-61872419D02*
X54196113Y-61920038D01*
X54196113Y-61920038D02*
X54148494Y-61967657D01*
X54148494Y-61967657D02*
X54100875Y-62062895D01*
X54100875Y-62062895D02*
X54053256Y-62253371D01*
X54053256Y-62253371D02*
X54053256Y-62491466D01*
X54053256Y-62491466D02*
X54100875Y-62681942D01*
X54100875Y-62681942D02*
X54148494Y-62777180D01*
X54148494Y-62777180D02*
X54196113Y-62824800D01*
X54196113Y-62824800D02*
X54291351Y-62872419D01*
X54291351Y-62872419D02*
X54386589Y-62872419D01*
X54386589Y-62872419D02*
X54481827Y-62824800D01*
X54481827Y-62824800D02*
X54529446Y-62777180D01*
X54529446Y-62777180D02*
X54577065Y-62681942D01*
X54577065Y-62681942D02*
X54624684Y-62491466D01*
X54624684Y-62491466D02*
X54624684Y-62253371D01*
X54624684Y-62253371D02*
X54577065Y-62062895D01*
X54577065Y-62062895D02*
X54529446Y-61967657D01*
X54529446Y-61967657D02*
X54481827Y-61920038D01*
X54481827Y-61920038D02*
X54386589Y-61872419D01*
X53434208Y-61872419D02*
X53338970Y-61872419D01*
X53338970Y-61872419D02*
X53243732Y-61920038D01*
X53243732Y-61920038D02*
X53196113Y-61967657D01*
X53196113Y-61967657D02*
X53148494Y-62062895D01*
X53148494Y-62062895D02*
X53100875Y-62253371D01*
X53100875Y-62253371D02*
X53100875Y-62491466D01*
X53100875Y-62491466D02*
X53148494Y-62681942D01*
X53148494Y-62681942D02*
X53196113Y-62777180D01*
X53196113Y-62777180D02*
X53243732Y-62824800D01*
X53243732Y-62824800D02*
X53338970Y-62872419D01*
X53338970Y-62872419D02*
X53434208Y-62872419D01*
X53434208Y-62872419D02*
X53529446Y-62824800D01*
X53529446Y-62824800D02*
X53577065Y-62777180D01*
X53577065Y-62777180D02*
X53624684Y-62681942D01*
X53624684Y-62681942D02*
X53672303Y-62491466D01*
X53672303Y-62491466D02*
X53672303Y-62253371D01*
X53672303Y-62253371D02*
X53624684Y-62062895D01*
X53624684Y-62062895D02*
X53577065Y-61967657D01*
X53577065Y-61967657D02*
X53529446Y-61920038D01*
X53529446Y-61920038D02*
X53434208Y-61872419D01*
X52243732Y-61872419D02*
X52434208Y-61872419D01*
X52434208Y-61872419D02*
X52529446Y-61920038D01*
X52529446Y-61920038D02*
X52577065Y-61967657D01*
X52577065Y-61967657D02*
X52672303Y-62110514D01*
X52672303Y-62110514D02*
X52719922Y-62300990D01*
X52719922Y-62300990D02*
X52719922Y-62681942D01*
X52719922Y-62681942D02*
X52672303Y-62777180D01*
X52672303Y-62777180D02*
X52624684Y-62824800D01*
X52624684Y-62824800D02*
X52529446Y-62872419D01*
X52529446Y-62872419D02*
X52338970Y-62872419D01*
X52338970Y-62872419D02*
X52243732Y-62824800D01*
X52243732Y-62824800D02*
X52196113Y-62777180D01*
X52196113Y-62777180D02*
X52148494Y-62681942D01*
X52148494Y-62681942D02*
X52148494Y-62443847D01*
X52148494Y-62443847D02*
X52196113Y-62348609D01*
X52196113Y-62348609D02*
X52243732Y-62300990D01*
X52243732Y-62300990D02*
X52338970Y-62253371D01*
X52338970Y-62253371D02*
X52529446Y-62253371D01*
X52529446Y-62253371D02*
X52624684Y-62300990D01*
X52624684Y-62300990D02*
X52672303Y-62348609D01*
X52672303Y-62348609D02*
X52719922Y-62443847D01*
X144672306Y-21310094D02*
X144767544Y-21262475D01*
X144767544Y-21262475D02*
X144910401Y-21262475D01*
X144910401Y-21262475D02*
X145053258Y-21310094D01*
X145053258Y-21310094D02*
X145148496Y-21405332D01*
X145148496Y-21405332D02*
X145196115Y-21500570D01*
X145196115Y-21500570D02*
X145243734Y-21691046D01*
X145243734Y-21691046D02*
X145243734Y-21833903D01*
X145243734Y-21833903D02*
X145196115Y-22024379D01*
X145196115Y-22024379D02*
X145148496Y-22119617D01*
X145148496Y-22119617D02*
X145053258Y-22214856D01*
X145053258Y-22214856D02*
X144910401Y-22262475D01*
X144910401Y-22262475D02*
X144815163Y-22262475D01*
X144815163Y-22262475D02*
X144672306Y-22214856D01*
X144672306Y-22214856D02*
X144624687Y-22167236D01*
X144624687Y-22167236D02*
X144624687Y-21833903D01*
X144624687Y-21833903D02*
X144815163Y-21833903D01*
X144196115Y-22262475D02*
X144196115Y-21595808D01*
X144196115Y-21786284D02*
X144148496Y-21691046D01*
X144148496Y-21691046D02*
X144100877Y-21643427D01*
X144100877Y-21643427D02*
X144005639Y-21595808D01*
X144005639Y-21595808D02*
X143910401Y-21595808D01*
X143148496Y-22262475D02*
X143148496Y-21738665D01*
X143148496Y-21738665D02*
X143196115Y-21643427D01*
X143196115Y-21643427D02*
X143291353Y-21595808D01*
X143291353Y-21595808D02*
X143481829Y-21595808D01*
X143481829Y-21595808D02*
X143577067Y-21643427D01*
X143148496Y-22214856D02*
X143243734Y-22262475D01*
X143243734Y-22262475D02*
X143481829Y-22262475D01*
X143481829Y-22262475D02*
X143577067Y-22214856D01*
X143577067Y-22214856D02*
X143624686Y-22119617D01*
X143624686Y-22119617D02*
X143624686Y-22024379D01*
X143624686Y-22024379D02*
X143577067Y-21929141D01*
X143577067Y-21929141D02*
X143481829Y-21881522D01*
X143481829Y-21881522D02*
X143243734Y-21881522D01*
X143243734Y-21881522D02*
X143148496Y-21833903D01*
X142672305Y-22262475D02*
X142672305Y-21262475D01*
X142243734Y-22262475D02*
X142243734Y-21738665D01*
X142243734Y-21738665D02*
X142291353Y-21643427D01*
X142291353Y-21643427D02*
X142386591Y-21595808D01*
X142386591Y-21595808D02*
X142529448Y-21595808D01*
X142529448Y-21595808D02*
X142624686Y-21643427D01*
X142624686Y-21643427D02*
X142672305Y-21691046D01*
X141338972Y-22262475D02*
X141338972Y-21738665D01*
X141338972Y-21738665D02*
X141386591Y-21643427D01*
X141386591Y-21643427D02*
X141481829Y-21595808D01*
X141481829Y-21595808D02*
X141672305Y-21595808D01*
X141672305Y-21595808D02*
X141767543Y-21643427D01*
X141338972Y-22214856D02*
X141434210Y-22262475D01*
X141434210Y-22262475D02*
X141672305Y-22262475D01*
X141672305Y-22262475D02*
X141767543Y-22214856D01*
X141767543Y-22214856D02*
X141815162Y-22119617D01*
X141815162Y-22119617D02*
X141815162Y-22024379D01*
X141815162Y-22024379D02*
X141767543Y-21929141D01*
X141767543Y-21929141D02*
X141672305Y-21881522D01*
X141672305Y-21881522D02*
X141434210Y-21881522D01*
X141434210Y-21881522D02*
X141338972Y-21833903D01*
X140862781Y-22262475D02*
X140862781Y-21595808D01*
X140862781Y-21691046D02*
X140815162Y-21643427D01*
X140815162Y-21643427D02*
X140719924Y-21595808D01*
X140719924Y-21595808D02*
X140577067Y-21595808D01*
X140577067Y-21595808D02*
X140481829Y-21643427D01*
X140481829Y-21643427D02*
X140434210Y-21738665D01*
X140434210Y-21738665D02*
X140434210Y-22262475D01*
X140434210Y-21738665D02*
X140386591Y-21643427D01*
X140386591Y-21643427D02*
X140291353Y-21595808D01*
X140291353Y-21595808D02*
X140148496Y-21595808D01*
X140148496Y-21595808D02*
X140053257Y-21643427D01*
X140053257Y-21643427D02*
X140005638Y-21738665D01*
X140005638Y-21738665D02*
X140005638Y-22262475D01*
X138196115Y-22167236D02*
X138243734Y-22214856D01*
X138243734Y-22214856D02*
X138386591Y-22262475D01*
X138386591Y-22262475D02*
X138481829Y-22262475D01*
X138481829Y-22262475D02*
X138624686Y-22214856D01*
X138624686Y-22214856D02*
X138719924Y-22119617D01*
X138719924Y-22119617D02*
X138767543Y-22024379D01*
X138767543Y-22024379D02*
X138815162Y-21833903D01*
X138815162Y-21833903D02*
X138815162Y-21691046D01*
X138815162Y-21691046D02*
X138767543Y-21500570D01*
X138767543Y-21500570D02*
X138719924Y-21405332D01*
X138719924Y-21405332D02*
X138624686Y-21310094D01*
X138624686Y-21310094D02*
X138481829Y-21262475D01*
X138481829Y-21262475D02*
X138386591Y-21262475D01*
X138386591Y-21262475D02*
X138243734Y-21310094D01*
X138243734Y-21310094D02*
X138196115Y-21357713D01*
X137624686Y-22262475D02*
X137719924Y-22214856D01*
X137719924Y-22214856D02*
X137767543Y-22167236D01*
X137767543Y-22167236D02*
X137815162Y-22071998D01*
X137815162Y-22071998D02*
X137815162Y-21786284D01*
X137815162Y-21786284D02*
X137767543Y-21691046D01*
X137767543Y-21691046D02*
X137719924Y-21643427D01*
X137719924Y-21643427D02*
X137624686Y-21595808D01*
X137624686Y-21595808D02*
X137481829Y-21595808D01*
X137481829Y-21595808D02*
X137386591Y-21643427D01*
X137386591Y-21643427D02*
X137338972Y-21691046D01*
X137338972Y-21691046D02*
X137291353Y-21786284D01*
X137291353Y-21786284D02*
X137291353Y-22071998D01*
X137291353Y-22071998D02*
X137338972Y-22167236D01*
X137338972Y-22167236D02*
X137386591Y-22214856D01*
X137386591Y-22214856D02*
X137481829Y-22262475D01*
X137481829Y-22262475D02*
X137624686Y-22262475D01*
X136719924Y-22262475D02*
X136815162Y-22214856D01*
X136815162Y-22214856D02*
X136862781Y-22119617D01*
X136862781Y-22119617D02*
X136862781Y-21262475D01*
X135958019Y-22214856D02*
X136053257Y-22262475D01*
X136053257Y-22262475D02*
X136243733Y-22262475D01*
X136243733Y-22262475D02*
X136338971Y-22214856D01*
X136338971Y-22214856D02*
X136386590Y-22119617D01*
X136386590Y-22119617D02*
X136386590Y-21738665D01*
X136386590Y-21738665D02*
X136338971Y-21643427D01*
X136338971Y-21643427D02*
X136243733Y-21595808D01*
X136243733Y-21595808D02*
X136053257Y-21595808D01*
X136053257Y-21595808D02*
X135958019Y-21643427D01*
X135958019Y-21643427D02*
X135910400Y-21738665D01*
X135910400Y-21738665D02*
X135910400Y-21833903D01*
X135910400Y-21833903D02*
X136386590Y-21929141D01*
X135481828Y-22262475D02*
X135481828Y-21595808D01*
X135481828Y-21691046D02*
X135434209Y-21643427D01*
X135434209Y-21643427D02*
X135338971Y-21595808D01*
X135338971Y-21595808D02*
X135196114Y-21595808D01*
X135196114Y-21595808D02*
X135100876Y-21643427D01*
X135100876Y-21643427D02*
X135053257Y-21738665D01*
X135053257Y-21738665D02*
X135053257Y-22262475D01*
X135053257Y-21738665D02*
X135005638Y-21643427D01*
X135005638Y-21643427D02*
X134910400Y-21595808D01*
X134910400Y-21595808D02*
X134767543Y-21595808D01*
X134767543Y-21595808D02*
X134672304Y-21643427D01*
X134672304Y-21643427D02*
X134624685Y-21738665D01*
X134624685Y-21738665D02*
X134624685Y-22262475D01*
X133719924Y-22262475D02*
X133719924Y-21738665D01*
X133719924Y-21738665D02*
X133767543Y-21643427D01*
X133767543Y-21643427D02*
X133862781Y-21595808D01*
X133862781Y-21595808D02*
X134053257Y-21595808D01*
X134053257Y-21595808D02*
X134148495Y-21643427D01*
X133719924Y-22214856D02*
X133815162Y-22262475D01*
X133815162Y-22262475D02*
X134053257Y-22262475D01*
X134053257Y-22262475D02*
X134148495Y-22214856D01*
X134148495Y-22214856D02*
X134196114Y-22119617D01*
X134196114Y-22119617D02*
X134196114Y-22024379D01*
X134196114Y-22024379D02*
X134148495Y-21929141D01*
X134148495Y-21929141D02*
X134053257Y-21881522D01*
X134053257Y-21881522D02*
X133815162Y-21881522D01*
X133815162Y-21881522D02*
X133719924Y-21833903D01*
X133243733Y-21595808D02*
X133243733Y-22262475D01*
X133243733Y-21691046D02*
X133196114Y-21643427D01*
X133196114Y-21643427D02*
X133100876Y-21595808D01*
X133100876Y-21595808D02*
X132958019Y-21595808D01*
X132958019Y-21595808D02*
X132862781Y-21643427D01*
X132862781Y-21643427D02*
X132815162Y-21738665D01*
X132815162Y-21738665D02*
X132815162Y-22262475D01*
X145243734Y-22967657D02*
X145196115Y-22920038D01*
X145196115Y-22920038D02*
X145100877Y-22872419D01*
X145100877Y-22872419D02*
X144862782Y-22872419D01*
X144862782Y-22872419D02*
X144767544Y-22920038D01*
X144767544Y-22920038D02*
X144719925Y-22967657D01*
X144719925Y-22967657D02*
X144672306Y-23062895D01*
X144672306Y-23062895D02*
X144672306Y-23158133D01*
X144672306Y-23158133D02*
X144719925Y-23300990D01*
X144719925Y-23300990D02*
X145291353Y-23872419D01*
X145291353Y-23872419D02*
X144672306Y-23872419D01*
X144053258Y-22872419D02*
X143958020Y-22872419D01*
X143958020Y-22872419D02*
X143862782Y-22920038D01*
X143862782Y-22920038D02*
X143815163Y-22967657D01*
X143815163Y-22967657D02*
X143767544Y-23062895D01*
X143767544Y-23062895D02*
X143719925Y-23253371D01*
X143719925Y-23253371D02*
X143719925Y-23491466D01*
X143719925Y-23491466D02*
X143767544Y-23681942D01*
X143767544Y-23681942D02*
X143815163Y-23777180D01*
X143815163Y-23777180D02*
X143862782Y-23824800D01*
X143862782Y-23824800D02*
X143958020Y-23872419D01*
X143958020Y-23872419D02*
X144053258Y-23872419D01*
X144053258Y-23872419D02*
X144148496Y-23824800D01*
X144148496Y-23824800D02*
X144196115Y-23777180D01*
X144196115Y-23777180D02*
X144243734Y-23681942D01*
X144243734Y-23681942D02*
X144291353Y-23491466D01*
X144291353Y-23491466D02*
X144291353Y-23253371D01*
X144291353Y-23253371D02*
X144243734Y-23062895D01*
X144243734Y-23062895D02*
X144196115Y-22967657D01*
X144196115Y-22967657D02*
X144148496Y-22920038D01*
X144148496Y-22920038D02*
X144053258Y-22872419D01*
X143338972Y-22967657D02*
X143291353Y-22920038D01*
X143291353Y-22920038D02*
X143196115Y-22872419D01*
X143196115Y-22872419D02*
X142958020Y-22872419D01*
X142958020Y-22872419D02*
X142862782Y-22920038D01*
X142862782Y-22920038D02*
X142815163Y-22967657D01*
X142815163Y-22967657D02*
X142767544Y-23062895D01*
X142767544Y-23062895D02*
X142767544Y-23158133D01*
X142767544Y-23158133D02*
X142815163Y-23300990D01*
X142815163Y-23300990D02*
X143386591Y-23872419D01*
X143386591Y-23872419D02*
X142767544Y-23872419D01*
X141862782Y-22872419D02*
X142338972Y-22872419D01*
X142338972Y-22872419D02*
X142386591Y-23348609D01*
X142386591Y-23348609D02*
X142338972Y-23300990D01*
X142338972Y-23300990D02*
X142243734Y-23253371D01*
X142243734Y-23253371D02*
X142005639Y-23253371D01*
X142005639Y-23253371D02*
X141910401Y-23300990D01*
X141910401Y-23300990D02*
X141862782Y-23348609D01*
X141862782Y-23348609D02*
X141815163Y-23443847D01*
X141815163Y-23443847D02*
X141815163Y-23681942D01*
X141815163Y-23681942D02*
X141862782Y-23777180D01*
X141862782Y-23777180D02*
X141910401Y-23824800D01*
X141910401Y-23824800D02*
X142005639Y-23872419D01*
X142005639Y-23872419D02*
X142243734Y-23872419D01*
X142243734Y-23872419D02*
X142338972Y-23824800D01*
X142338972Y-23824800D02*
X142386591Y-23777180D01*
X140672306Y-22824800D02*
X141529448Y-24110514D01*
X140148496Y-22872419D02*
X140053258Y-22872419D01*
X140053258Y-22872419D02*
X139958020Y-22920038D01*
X139958020Y-22920038D02*
X139910401Y-22967657D01*
X139910401Y-22967657D02*
X139862782Y-23062895D01*
X139862782Y-23062895D02*
X139815163Y-23253371D01*
X139815163Y-23253371D02*
X139815163Y-23491466D01*
X139815163Y-23491466D02*
X139862782Y-23681942D01*
X139862782Y-23681942D02*
X139910401Y-23777180D01*
X139910401Y-23777180D02*
X139958020Y-23824800D01*
X139958020Y-23824800D02*
X140053258Y-23872419D01*
X140053258Y-23872419D02*
X140148496Y-23872419D01*
X140148496Y-23872419D02*
X140243734Y-23824800D01*
X140243734Y-23824800D02*
X140291353Y-23777180D01*
X140291353Y-23777180D02*
X140338972Y-23681942D01*
X140338972Y-23681942D02*
X140386591Y-23491466D01*
X140386591Y-23491466D02*
X140386591Y-23253371D01*
X140386591Y-23253371D02*
X140338972Y-23062895D01*
X140338972Y-23062895D02*
X140291353Y-22967657D01*
X140291353Y-22967657D02*
X140243734Y-22920038D01*
X140243734Y-22920038D02*
X140148496Y-22872419D01*
X139434210Y-22967657D02*
X139386591Y-22920038D01*
X139386591Y-22920038D02*
X139291353Y-22872419D01*
X139291353Y-22872419D02*
X139053258Y-22872419D01*
X139053258Y-22872419D02*
X138958020Y-22920038D01*
X138958020Y-22920038D02*
X138910401Y-22967657D01*
X138910401Y-22967657D02*
X138862782Y-23062895D01*
X138862782Y-23062895D02*
X138862782Y-23158133D01*
X138862782Y-23158133D02*
X138910401Y-23300990D01*
X138910401Y-23300990D02*
X139481829Y-23872419D01*
X139481829Y-23872419D02*
X138862782Y-23872419D01*
X137719925Y-22824800D02*
X138577067Y-24110514D01*
X137434210Y-22967657D02*
X137386591Y-22920038D01*
X137386591Y-22920038D02*
X137291353Y-22872419D01*
X137291353Y-22872419D02*
X137053258Y-22872419D01*
X137053258Y-22872419D02*
X136958020Y-22920038D01*
X136958020Y-22920038D02*
X136910401Y-22967657D01*
X136910401Y-22967657D02*
X136862782Y-23062895D01*
X136862782Y-23062895D02*
X136862782Y-23158133D01*
X136862782Y-23158133D02*
X136910401Y-23300990D01*
X136910401Y-23300990D02*
X137481829Y-23872419D01*
X137481829Y-23872419D02*
X136862782Y-23872419D01*
X136005639Y-22872419D02*
X136196115Y-22872419D01*
X136196115Y-22872419D02*
X136291353Y-22920038D01*
X136291353Y-22920038D02*
X136338972Y-22967657D01*
X136338972Y-22967657D02*
X136434210Y-23110514D01*
X136434210Y-23110514D02*
X136481829Y-23300990D01*
X136481829Y-23300990D02*
X136481829Y-23681942D01*
X136481829Y-23681942D02*
X136434210Y-23777180D01*
X136434210Y-23777180D02*
X136386591Y-23824800D01*
X136386591Y-23824800D02*
X136291353Y-23872419D01*
X136291353Y-23872419D02*
X136100877Y-23872419D01*
X136100877Y-23872419D02*
X136005639Y-23824800D01*
X136005639Y-23824800D02*
X135958020Y-23777180D01*
X135958020Y-23777180D02*
X135910401Y-23681942D01*
X135910401Y-23681942D02*
X135910401Y-23443847D01*
X135910401Y-23443847D02*
X135958020Y-23348609D01*
X135958020Y-23348609D02*
X136005639Y-23300990D01*
X136005639Y-23300990D02*
X136100877Y-23253371D01*
X136100877Y-23253371D02*
X136291353Y-23253371D01*
X136291353Y-23253371D02*
X136386591Y-23300990D01*
X136386591Y-23300990D02*
X136434210Y-23348609D01*
X136434210Y-23348609D02*
X136481829Y-23443847D01*
M02*
