M48
; DRILL file {KiCad 8.0.8} date 2025-02-26T21:26:11-0700
; FORMAT={-:-/ absolute / metric / decimal}
; #@! TF.CreationDate,2025-02-26T21:26:11-07:00
; #@! TF.GenerationSoftware,Kicad,Pcbnew,8.0.8
; #@! TF.FileFunction,Plated,1,2,PTH
FMAT,2
METRIC
; #@! TA.AperFunction,Plated,PTH,ViaDrill
T1C0.300
; #@! TA.AperFunction,Plated,PTH,ComponentDrill
T2C0.800
; #@! TA.AperFunction,Plated,PTH,ComponentDrill
T3C0.813
; #@! TA.AperFunction,Plated,PTH,ComponentDrill
T4C0.864
; #@! TA.AperFunction,Plated,PTH,ComponentDrill
T5C1.000
; #@! TA.AperFunction,Plated,PTH,ComponentDrill
T6C1.400
%
G90
G05
T1
X73.0Y-54.5
X74.5Y-38.5
X74.5Y-41.0
X77.5Y-54.5
X109.0Y-51.5
X109.0Y-54.5
X111.0Y-22.0
X111.0Y-25.0
X111.0Y-42.5
X124.0Y-24.0
X125.0Y-36.5
X125.0Y-38.0
X126.0Y-24.0
X138.0Y-41.5
X138.0Y-56.5
T2
X57.5Y-37.0
X57.5Y-39.5
X67.0Y-50.5
X69.5Y-50.5
X78.5Y-38.642
X81.0Y-38.642
X82.65Y-48.5
X82.65Y-59.0
X95.35Y-48.5
X95.35Y-59.0
T3
X115.0Y-27.0
X115.0Y-29.54
X115.0Y-32.08
X115.0Y-34.62
X115.0Y-37.16
X115.0Y-39.7
X115.0Y-42.24
X115.0Y-44.78
X115.0Y-47.32
X115.0Y-49.86
X115.0Y-52.4
X115.0Y-54.94
X115.0Y-57.48
X115.0Y-60.02
X122.62Y-27.0
X122.62Y-29.54
X122.62Y-32.08
X122.62Y-34.62
X122.62Y-37.16
X122.62Y-39.7
X122.62Y-42.24
X122.62Y-44.78
X122.62Y-47.32
X122.62Y-49.86
X122.62Y-52.4
X122.62Y-54.94
X122.62Y-57.48
X122.62Y-60.02
T4
X64.88Y-34.5
X64.88Y-37.04
X64.88Y-39.58
X64.88Y-42.12
X72.5Y-34.5
X72.5Y-37.04
X72.5Y-39.58
X72.5Y-42.12
T5
X67.46Y-28.5
X70.0Y-28.5
X81.92Y-28.5
X84.46Y-28.5
X87.0Y-28.5
X98.92Y-28.5
X101.46Y-28.5
X102.5Y-38.5
X102.5Y-48.5
X104.0Y-28.5
X106.54Y-28.5
X130.0Y-30.5
X135.0Y-30.5
T6
X129.6Y-46.5
X129.6Y-52.0
X133.8Y-46.5
X133.8Y-52.0
X138.0Y-46.5
X138.0Y-52.0
M30
