%TF.GenerationSoftware,Altium Limited,Altium Designer,24.10.1 (45)*%
G04 Layer_Color=128*
%FSLAX25Y25*%
%MOIN*%
%TF.SameCoordinates,9950C81B-CD0A-4F44-AB06-5448DEDD42A1*%
%TF.FilePolarity,Positive*%
%TF.FileFunction,Drillmap*%
%TF.Part,Single*%
G01*
G75*
%TA.AperFunction,NonConductor*%
%ADD40C,0.00500*%
D40*
X272450Y133500D02*
X277550D01*
X275000Y130950D02*
Y136050D01*
X262450Y133500D02*
X267550D01*
X265000Y130950D02*
Y136050D01*
X145600Y332500D02*
X148400D01*
X147000Y331100D02*
Y333900D01*
X145600Y322500D02*
X148400D01*
X147000Y321100D02*
Y323900D01*
X388450Y270000D02*
X393550D01*
X391000Y267450D02*
Y272550D01*
X388450Y280000D02*
X393550D01*
X391000Y277450D02*
Y282550D01*
X275900Y275500D02*
X279100D01*
X277500Y273900D02*
Y277100D01*
X265900Y275500D02*
X269100D01*
X267500Y273900D02*
Y277100D01*
X255900Y275500D02*
X259100D01*
X257500Y273900D02*
Y277100D01*
X245900Y275500D02*
X249100D01*
X247500Y273900D02*
Y277100D01*
X235900Y275500D02*
X239100D01*
X237500Y273900D02*
Y277100D01*
X225900Y275500D02*
X229100D01*
X227500Y273900D02*
Y277100D01*
X215900Y275500D02*
X219100D01*
X217500Y273900D02*
Y277100D01*
X205900Y275500D02*
X209100D01*
X207500Y273900D02*
Y277100D01*
X195900Y275500D02*
X199100D01*
X197500Y273900D02*
Y277100D01*
X185900Y275500D02*
X189100D01*
X187500Y273900D02*
Y277100D01*
X175900Y275500D02*
X179100D01*
X177500Y273900D02*
Y277100D01*
X165900Y275500D02*
X169100D01*
X167500Y273900D02*
Y277100D01*
X155900Y275500D02*
X159100D01*
X157500Y273900D02*
Y277100D01*
X145900Y275500D02*
X149100D01*
X147500Y273900D02*
Y277100D01*
X145900Y245500D02*
X149100D01*
X147500Y243900D02*
Y247100D01*
X155900Y245500D02*
X159100D01*
X157500Y243900D02*
Y247100D01*
X165900Y245500D02*
X169100D01*
X167500Y243900D02*
Y247100D01*
X175900Y245500D02*
X179100D01*
X177500Y243900D02*
Y247100D01*
X185900Y245500D02*
X189100D01*
X187500Y243900D02*
Y247100D01*
X195900Y245500D02*
X199100D01*
X197500Y243900D02*
Y247100D01*
X205900Y245500D02*
X209100D01*
X207500Y243900D02*
Y247100D01*
X215900Y245500D02*
X219100D01*
X217500Y243900D02*
Y247100D01*
X225900Y245500D02*
X229100D01*
X227500Y243900D02*
Y247100D01*
X235900Y245500D02*
X239100D01*
X237500Y243900D02*
Y247100D01*
X245900Y245500D02*
X249100D01*
X247500Y243900D02*
Y247100D01*
X255900Y245500D02*
X259100D01*
X257500Y243900D02*
Y247100D01*
X265900Y245500D02*
X269100D01*
X267500Y243900D02*
Y247100D01*
X275900Y245500D02*
X279100D01*
X277500Y243900D02*
Y247100D01*
X175650Y227000D02*
X178450D01*
X177050Y225600D02*
Y228400D01*
X165650Y227000D02*
X168450D01*
X167050Y225600D02*
Y228400D01*
X155650Y227000D02*
X158450D01*
X157050Y225600D02*
Y228400D01*
X157197Y134500D02*
X159953D01*
X158575Y133122D02*
Y135878D01*
X205622Y134500D02*
X208378D01*
X207000Y133122D02*
Y135878D01*
X181213Y134500D02*
X184362D01*
X182787Y132925D02*
Y136075D01*
X189087Y134500D02*
X192236D01*
X190661Y132925D02*
Y136075D01*
X196961Y134500D02*
X200110D01*
X198535Y132925D02*
Y136075D01*
X165465Y134500D02*
X168614D01*
X167039Y132925D02*
Y136075D01*
X113950Y290000D02*
X119050D01*
X116500Y287450D02*
Y292550D01*
X113950Y300000D02*
X119050D01*
X116500Y297450D02*
Y302550D01*
X103333Y236000D02*
X107234D01*
X105283Y234050D02*
Y237950D01*
X121050Y236000D02*
X124950D01*
X123000Y234050D02*
Y237950D01*
X121050Y261591D02*
X124950D01*
X123000Y259641D02*
Y263541D01*
X103333Y261591D02*
X107234D01*
X105283Y259641D02*
Y263541D01*
X242109Y314000D02*
X245709D01*
X243910Y312200D02*
Y315800D01*
X267700Y314000D02*
X271300D01*
X269500Y312200D02*
Y315800D01*
X233450Y134000D02*
X238550D01*
X236000Y131450D02*
Y136550D01*
X223450Y134000D02*
X228550D01*
X226000Y131450D02*
Y136550D01*
X143100Y299500D02*
X145900D01*
X144500Y298100D02*
Y300900D01*
X143100Y289500D02*
X145900D01*
X144500Y288100D02*
Y290900D01*
X140600Y197500D02*
X143400D01*
X142000Y196100D02*
Y198900D01*
X140600Y187500D02*
X143400D01*
X142000Y186100D02*
Y188900D01*
X239950Y200000D02*
X245050D01*
X242500Y197450D02*
Y202550D01*
X249950Y200000D02*
X255050D01*
X252500Y197450D02*
Y202550D01*
X362100Y246000D02*
X364900D01*
X363500Y244600D02*
Y247400D01*
X362100Y236000D02*
X364900D01*
X363500Y234600D02*
Y237400D01*
X111950Y197500D02*
X117050D01*
X114500Y194950D02*
Y200050D01*
X111950Y187500D02*
X117050D01*
X114500Y184950D02*
Y190050D01*
X386450Y236000D02*
X391550D01*
X389000Y233450D02*
Y238550D01*
X386450Y246000D02*
X391550D01*
X389000Y243450D02*
Y248550D01*
X112450Y321500D02*
X117550D01*
X115000Y318950D02*
Y324050D01*
X112450Y331500D02*
X117550D01*
X115000Y328950D02*
Y334050D01*
X119940Y142311D02*
X122540D01*
X121240Y141011D02*
Y143611D01*
X137460Y142311D02*
X140060D01*
X138760Y141011D02*
Y143611D01*
X144937Y130500D02*
X147937D01*
X146437Y129000D02*
Y132000D01*
X112063Y130500D02*
X115063D01*
X113563Y129000D02*
Y132000D01*
X362100Y280000D02*
X364900D01*
X363500Y278600D02*
Y281400D01*
X362100Y270000D02*
X364900D01*
X363500Y268600D02*
Y271400D01*
X251100Y225500D02*
X253900D01*
X252500Y224100D02*
Y226900D01*
X241100Y225500D02*
X243900D01*
X242500Y224100D02*
Y226900D01*
X266100Y225500D02*
X268900D01*
X267500Y224100D02*
Y226900D01*
X276100Y225500D02*
X278900D01*
X277500Y224100D02*
Y226900D01*
X334750Y165000D02*
X338250D01*
X336500Y163250D02*
Y166750D01*
X324750Y165000D02*
X328250D01*
X326500Y163250D02*
Y166750D01*
X314750Y165000D02*
X318250D01*
X316500Y163250D02*
Y166750D01*
X304750Y165000D02*
X308250D01*
X306500Y163250D02*
Y166750D01*
X304750Y175000D02*
X308250D01*
X306500Y173250D02*
Y176750D01*
X314750Y175000D02*
X318250D01*
X316500Y173250D02*
Y176750D01*
X334750Y175000D02*
X338250D01*
X336500Y173250D02*
Y176750D01*
X324750Y175000D02*
X328250D01*
X326500Y173250D02*
Y176750D01*
X133100Y294500D02*
X135900D01*
X134500Y293100D02*
Y295900D01*
X183600Y189000D02*
X186400D01*
X185000Y187600D02*
Y190400D01*
X190600Y261500D02*
X193400D01*
X192000Y260100D02*
Y262900D01*
X104600Y227000D02*
X107400D01*
X106000Y225600D02*
Y228400D01*
X193100Y156500D02*
X195900D01*
X194500Y155100D02*
Y157900D01*
X220600Y189000D02*
X223400D01*
X222000Y187600D02*
Y190400D01*
X227100Y186500D02*
X229900D01*
X228500Y185100D02*
Y187900D01*
X373600Y303500D02*
X376400D01*
X375000Y302100D02*
Y304900D01*
X217100Y304500D02*
X219900D01*
X218500Y303100D02*
Y305900D01*
X187100Y292500D02*
X189900D01*
X188500Y291100D02*
Y293900D01*
X141100Y260500D02*
X143900D01*
X142500Y259100D02*
Y261900D01*
X191100Y178000D02*
X193900D01*
X192500Y176600D02*
Y179400D01*
X154100Y183000D02*
X156900D01*
X155500Y181600D02*
Y184400D01*
X129600Y171000D02*
X132400D01*
X131000Y169600D02*
Y172400D01*
X289100Y151000D02*
X291900D01*
X290500Y149600D02*
Y152400D01*
X396600Y156000D02*
X399400D01*
X398000Y154600D02*
Y157400D01*
X396100Y171000D02*
X398900D01*
X397500Y169600D02*
Y172400D01*
X362600Y192000D02*
X365400D01*
X364000Y190600D02*
Y193400D01*
X322600Y208500D02*
X325400D01*
X324000Y207100D02*
Y209900D01*
X300100Y195000D02*
X302900D01*
X301500Y193600D02*
Y196400D01*
X363100Y208500D02*
X365900D01*
X364500Y207100D02*
Y209900D01*
X315600Y217000D02*
X318400D01*
X317000Y215600D02*
Y218400D01*
X292600Y201500D02*
X295400D01*
X294000Y200100D02*
Y202900D01*
X234600Y255000D02*
X237400D01*
X236000Y253600D02*
Y256400D01*
X261600Y256000D02*
X264400D01*
X263000Y254600D02*
Y257400D01*
X222100Y212000D02*
X224900D01*
X223500Y210600D02*
Y213400D01*
X325600Y142500D02*
X328400D01*
X327000Y141100D02*
Y143900D01*
X275100Y175500D02*
X277900D01*
X276500Y174100D02*
Y176900D01*
%TF.MD5,30ebd7781253b13a8f26d708452e977a*%
M02*
