%TF.GenerationSoftware,Altium Limited,Altium Designer,24.10.1 (45)*%
G04 Layer_Color=8388736*
%FSLAX25Y25*%
%MOIN*%
%TF.SameCoordinates,9950C81B-CD0A-4F44-AB06-5448DEDD42A1*%
%TF.FilePolarity,Negative*%
%TF.FileFunction,Soldermask,Top*%
%TF.Part,Single*%
G01*
G75*
%TA.AperFunction,SMDPad,CuDef*%
%ADD17R,0.01600X0.05300*%
%TA.AperFunction,ComponentPad*%
%ADD22C,0.07100*%
%ADD23C,0.05000*%
%ADD24R,0.05200X0.05200*%
%ADD25C,0.05200*%
%ADD29R,0.05900X0.05900*%
%ADD30C,0.05900*%
%ADD33O,0.04200X0.04900*%
%ADD34O,0.04000X0.06700*%
%TA.AperFunction,SMDPad,CuDef*%
%ADD46R,0.05700X0.03600*%
%ADD47R,0.03600X0.05700*%
%ADD48R,0.03950X0.03950*%
%ADD49R,0.03950X0.03950*%
%ADD50R,0.02600X0.02800*%
G04:AMPARAMS|DCode=51|XSize=85.95mil|YSize=44.61mil|CornerRadius=8.58mil|HoleSize=0mil|Usage=FLASHONLY|Rotation=90.000|XOffset=0mil|YOffset=0mil|HoleType=Round|Shape=RoundedRectangle|*
%AMROUNDEDRECTD51*
21,1,0.08595,0.02746,0,0,90.0*
21,1,0.06880,0.04461,0,0,90.0*
1,1,0.01715,0.01373,0.03440*
1,1,0.01715,0.01373,-0.03440*
1,1,0.01715,-0.01373,-0.03440*
1,1,0.01715,-0.01373,0.03440*
%
%ADD51ROUNDEDRECTD51*%
G04:AMPARAMS|DCode=52|XSize=85.95mil|YSize=135.16mil|CornerRadius=13.74mil|HoleSize=0mil|Usage=FLASHONLY|Rotation=90.000|XOffset=0mil|YOffset=0mil|HoleType=Round|Shape=RoundedRectangle|*
%AMROUNDEDRECTD52*
21,1,0.08595,0.10768,0,0,90.0*
21,1,0.05847,0.13516,0,0,90.0*
1,1,0.02749,0.05384,0.02923*
1,1,0.02749,0.05384,-0.02923*
1,1,0.02749,-0.05384,-0.02923*
1,1,0.02749,-0.05384,0.02923*
%
%ADD52ROUNDEDRECTD52*%
%TA.AperFunction,ComponentPad*%
%ADD53O,0.05556X0.10312*%
%ADD54C,0.05950*%
%ADD55R,0.05950X0.05950*%
%ADD56C,0.06400*%
%ADD57R,0.06400X0.06400*%
%TA.AperFunction,ViaPad*%
%ADD58C,0.05800*%
D17*
X135118Y141032D02*
D03*
X132559D02*
D03*
X130000D02*
D03*
X127441D02*
D03*
X124882D02*
D03*
D22*
X275000Y133500D02*
D03*
X265000D02*
D03*
X391000Y270000D02*
D03*
Y280000D02*
D03*
X116500Y290000D02*
D03*
Y300000D02*
D03*
X236000Y134000D02*
D03*
X226000D02*
D03*
X242500Y200000D02*
D03*
X252500D02*
D03*
X114500Y197500D02*
D03*
Y187500D02*
D03*
X389000Y236000D02*
D03*
Y246000D02*
D03*
X115000Y321500D02*
D03*
Y331500D02*
D03*
D23*
X147000Y332500D02*
D03*
Y322500D02*
D03*
X177050Y227000D02*
D03*
X167050D02*
D03*
X157050D02*
D03*
X144500Y299500D02*
D03*
Y289500D02*
D03*
X142000Y197500D02*
D03*
Y187500D02*
D03*
X363500Y246000D02*
D03*
Y236000D02*
D03*
Y280000D02*
D03*
Y270000D02*
D03*
X252500Y225500D02*
D03*
X242500D02*
D03*
X267500D02*
D03*
X277500D02*
D03*
D24*
Y275500D02*
D03*
D25*
X267500D02*
D03*
X257500D02*
D03*
X247500D02*
D03*
X237500D02*
D03*
X227500D02*
D03*
X217500D02*
D03*
X207500D02*
D03*
X197500D02*
D03*
X187500D02*
D03*
X177500D02*
D03*
X167500D02*
D03*
X157500D02*
D03*
X147500D02*
D03*
Y245500D02*
D03*
X157500D02*
D03*
X167500D02*
D03*
X177500D02*
D03*
X187500D02*
D03*
X197500D02*
D03*
X207500D02*
D03*
X217500D02*
D03*
X227500D02*
D03*
X237500D02*
D03*
X247500D02*
D03*
X257500D02*
D03*
X267500D02*
D03*
X277500D02*
D03*
D29*
X105283Y236000D02*
D03*
D30*
X336500Y165000D02*
D03*
X326500D02*
D03*
X316500D02*
D03*
X306500D02*
D03*
Y175000D02*
D03*
X316500D02*
D03*
X336500D02*
D03*
X326500D02*
D03*
D33*
X121240Y142311D02*
D03*
X138760D02*
D03*
D34*
X146437Y130500D02*
D03*
X113563D02*
D03*
D46*
X225500Y325900D02*
D03*
Y333000D02*
D03*
X157500Y291550D02*
D03*
Y284450D02*
D03*
X157000Y300950D02*
D03*
Y308050D02*
D03*
X365500Y318550D02*
D03*
Y311450D02*
D03*
X322000Y136050D02*
D03*
Y128950D02*
D03*
X336290Y136050D02*
D03*
Y128950D02*
D03*
X350580Y136050D02*
D03*
Y128950D02*
D03*
X393500D02*
D03*
Y136050D02*
D03*
X379000D02*
D03*
Y128950D02*
D03*
X364870Y136050D02*
D03*
Y128950D02*
D03*
X257500Y169050D02*
D03*
Y161950D02*
D03*
X221500Y226050D02*
D03*
Y218950D02*
D03*
X200500Y169950D02*
D03*
Y177050D02*
D03*
X223000Y201550D02*
D03*
Y194450D02*
D03*
X136500Y268950D02*
D03*
Y276050D02*
D03*
X128000D02*
D03*
Y268950D02*
D03*
D47*
X174450Y300500D02*
D03*
X181550D02*
D03*
X388050Y303500D02*
D03*
X380950D02*
D03*
X296800Y136500D02*
D03*
X289700D02*
D03*
X289950Y127000D02*
D03*
X297050D02*
D03*
X382950Y192000D02*
D03*
X390050D02*
D03*
X382950Y208000D02*
D03*
X390050D02*
D03*
X382950Y171000D02*
D03*
X390050D02*
D03*
X382950Y155500D02*
D03*
X390050D02*
D03*
X145550Y211500D02*
D03*
X138450D02*
D03*
X178450Y177000D02*
D03*
X185550D02*
D03*
X154450Y175500D02*
D03*
X161550D02*
D03*
X215950Y181000D02*
D03*
X223050D02*
D03*
X168450Y152500D02*
D03*
X175550D02*
D03*
X209950Y157000D02*
D03*
X217050D02*
D03*
X145550Y219000D02*
D03*
X138450D02*
D03*
X119550Y271000D02*
D03*
X112450D02*
D03*
X174950Y292500D02*
D03*
X182050D02*
D03*
X174400Y309500D02*
D03*
X181500D02*
D03*
X182050Y318000D02*
D03*
X174950D02*
D03*
X225550Y296450D02*
D03*
X218450D02*
D03*
X225050Y286950D02*
D03*
X217950D02*
D03*
X198450Y234000D02*
D03*
X205550D02*
D03*
X198500Y225500D02*
D03*
X205600D02*
D03*
X112950Y226500D02*
D03*
X120050D02*
D03*
D48*
X141752Y175000D02*
D03*
X148248D02*
D03*
X290415Y144925D02*
D03*
X296911D02*
D03*
D49*
X229500Y232748D02*
D03*
Y226252D02*
D03*
X214000Y232748D02*
D03*
Y226252D02*
D03*
X200000Y156252D02*
D03*
Y162748D02*
D03*
D50*
X172000Y170400D02*
D03*
X175740Y160600D02*
D03*
X168260D02*
D03*
X213500Y175400D02*
D03*
X217240Y165600D02*
D03*
X209760D02*
D03*
D51*
X190945Y188630D02*
D03*
X200000D02*
D03*
X209055D02*
D03*
X161522Y188263D02*
D03*
X170577D02*
D03*
X179632D02*
D03*
D52*
X200000Y212370D02*
D03*
X170577Y212003D02*
D03*
D53*
X158575Y134500D02*
D03*
X207000D02*
D03*
D54*
X182787D02*
D03*
X190661D02*
D03*
X198535D02*
D03*
D55*
X167039D02*
D03*
D56*
X243910Y314000D02*
D03*
D57*
X269500D02*
D03*
D58*
X134500Y294500D02*
D03*
X185000Y189000D02*
D03*
X192000Y261500D02*
D03*
X106000Y227000D02*
D03*
X194500Y156500D02*
D03*
X222000Y189000D02*
D03*
X228500Y186500D02*
D03*
X375000Y303500D02*
D03*
X218500Y304500D02*
D03*
X188500Y292500D02*
D03*
X142500Y260500D02*
D03*
X192500Y178000D02*
D03*
X155500Y183000D02*
D03*
X131000Y171000D02*
D03*
X290500Y151000D02*
D03*
X398000Y156000D02*
D03*
X397500Y171000D02*
D03*
X364000Y192000D02*
D03*
X324000Y208500D02*
D03*
X301500Y195000D02*
D03*
X364500Y208500D02*
D03*
X317000Y217000D02*
D03*
X294000Y201500D02*
D03*
X236000Y255000D02*
D03*
X263000Y256000D02*
D03*
X223500Y212000D02*
D03*
X327000Y142500D02*
D03*
X276500Y175500D02*
D03*
%TF.MD5,b648ac26ab94ceb5c5ac4fd8c9dbfa5c*%
M02*
