%TF.GenerationSoftware,Altium Limited,Altium Designer,24.10.1 (45)*%
G04 Layer_Physical_Order=1*
G04 Layer_Color=255*
%FSLAX25Y25*%
%MOIN*%
%TF.SameCoordinates,9950C81B-CD0A-4F44-AB06-5448DEDD42A1*%
%TF.FilePolarity,Positive*%
%TF.FileFunction,Copper,L1,Top,Signal*%
%TF.Part,Single*%
G01*
G75*
%TA.AperFunction,SMDPad,CuDef*%
%ADD10R,0.05300X0.03200*%
%ADD11R,0.03200X0.05300*%
%ADD12R,0.03150X0.03150*%
%ADD13R,0.03150X0.03150*%
%ADD14R,0.02200X0.02400*%
G04:AMPARAMS|DCode=15|XSize=77.95mil|YSize=36.61mil|CornerRadius=4.58mil|HoleSize=0mil|Usage=FLASHONLY|Rotation=90.000|XOffset=0mil|YOffset=0mil|HoleType=Round|Shape=RoundedRectangle|*
%AMROUNDEDRECTD15*
21,1,0.07795,0.02746,0,0,90.0*
21,1,0.06880,0.03661,0,0,90.0*
1,1,0.00915,0.01373,0.03440*
1,1,0.00915,0.01373,-0.03440*
1,1,0.00915,-0.01373,-0.03440*
1,1,0.00915,-0.01373,0.03440*
%
%ADD15ROUNDEDRECTD15*%
G04:AMPARAMS|DCode=16|XSize=77.95mil|YSize=127.17mil|CornerRadius=9.74mil|HoleSize=0mil|Usage=FLASHONLY|Rotation=90.000|XOffset=0mil|YOffset=0mil|HoleType=Round|Shape=RoundedRectangle|*
%AMROUNDEDRECTD16*
21,1,0.07795,0.10768,0,0,90.0*
21,1,0.05847,0.12717,0,0,90.0*
1,1,0.01949,0.05384,0.02923*
1,1,0.01949,0.05384,-0.02923*
1,1,0.01949,-0.05384,-0.02923*
1,1,0.01949,-0.05384,0.02923*
%
%ADD16ROUNDEDRECTD16*%
%ADD17R,0.01600X0.05300*%
%TA.AperFunction,SMDPad,SMDef*%
%ADD18R,0.11400X0.07500*%
%TA.AperFunction,Conductor*%
%ADD19C,0.02000*%
%ADD20C,0.03000*%
%ADD21C,0.01500*%
%TA.AperFunction,ComponentPad*%
%ADD22C,0.07100*%
%ADD23C,0.05000*%
%ADD24R,0.05200X0.05200*%
%ADD25C,0.05200*%
%ADD26O,0.04756X0.09512*%
%ADD27C,0.05150*%
%ADD28R,0.05150X0.05150*%
%ADD29R,0.05900X0.05900*%
%ADD30C,0.05900*%
%ADD31C,0.05600*%
%ADD32R,0.05600X0.05600*%
%ADD33O,0.04200X0.04900*%
%ADD34O,0.04000X0.06700*%
%ADD35C,0.05500*%
%TA.AperFunction,ViaPad*%
%ADD36C,0.05000*%
G36*
X135633Y144695D02*
X136196Y144133D01*
X136500Y143398D01*
Y143000D01*
Y127500D01*
Y127102D01*
X136196Y126367D01*
X135633Y125804D01*
X134898Y125500D01*
X125705D01*
X125125Y125615D01*
X124579Y125841D01*
X124088Y126170D01*
X123670Y126588D01*
X123341Y127079D01*
X123115Y127625D01*
X123000Y128205D01*
Y128500D01*
Y134000D01*
Y134298D01*
X123228Y134850D01*
X123650Y135272D01*
X124202Y135500D01*
X124500D01*
X124793Y135529D01*
X125333Y135753D01*
X125747Y136167D01*
X125971Y136707D01*
X126000Y137000D01*
Y137582D01*
X126482D01*
Y138426D01*
X126530Y138499D01*
X126666Y139181D01*
X126666Y139181D01*
Y141032D01*
X126530Y141714D01*
X126482Y141787D01*
Y144310D01*
X126867Y144695D01*
X127602Y145000D01*
X134898D01*
X135633Y144695D01*
D02*
G37*
G36*
X210458Y195807D02*
X212192Y195300D01*
X213794Y194464D01*
X215201Y193332D01*
X216362Y191947D01*
X217229Y190362D01*
X217500Y189500D01*
X218421Y184527D01*
X217781Y183758D01*
X217750D01*
X217673Y183727D01*
X217642Y183650D01*
Y178350D01*
X217673Y178273D01*
X217750Y178242D01*
X220611D01*
X220650Y178210D01*
Y177550D01*
X221660D01*
X221997Y177371D01*
X222581Y177196D01*
X222988Y177074D01*
X223499Y177000D01*
X223500Y177000D01*
X223500Y177000D01*
Y177000D01*
X223504D01*
X224424Y176983D01*
X225979Y176673D01*
X227526Y176033D01*
X228918Y175102D01*
X230102Y173918D01*
X231033Y172526D01*
X231673Y170979D01*
X232000Y169337D01*
X232000Y168500D01*
X232000Y166500D01*
X232000Y166500D01*
X232046Y165569D01*
X232409Y163742D01*
X233122Y162022D01*
X234156Y160473D01*
X235473Y159156D01*
X237022Y158122D01*
X238742Y157409D01*
X240569Y157046D01*
X241500Y157000D01*
X260985D01*
X262917Y156616D01*
X264737Y155862D01*
X266375Y154768D01*
X267768Y153375D01*
X268862Y151737D01*
X269616Y149917D01*
X270000Y147985D01*
Y147000D01*
Y135500D01*
Y132515D01*
X269616Y130583D01*
X268862Y128763D01*
X267768Y127125D01*
X266375Y125733D01*
X264737Y124638D01*
X262917Y123884D01*
X260985Y123500D01*
X252515D01*
X250583Y123884D01*
X248763Y124638D01*
X247125Y125733D01*
X245732Y127125D01*
X244638Y128763D01*
X243884Y130583D01*
X243500Y132515D01*
Y137000D01*
X243500D01*
X243500Y137000D01*
X243452Y137980D01*
X243069Y139903D01*
X242319Y141714D01*
X241230Y143344D01*
X239844Y144730D01*
X238214Y145819D01*
X236403Y146569D01*
X234480Y146952D01*
X233500Y147000D01*
X219089D01*
Y153550D01*
X219450D01*
Y160450D01*
X219089D01*
Y163600D01*
X219140D01*
Y164800D01*
X219279Y165500D01*
X219279Y165500D01*
Y165600D01*
X219140Y166300D01*
Y167600D01*
X217437D01*
X217240Y167639D01*
X217043Y167600D01*
X215340D01*
Y166351D01*
X215166Y166090D01*
X215011Y165310D01*
Y160450D01*
X214650D01*
Y159758D01*
X212350D01*
Y160450D01*
X211989D01*
Y165310D01*
X211989Y165310D01*
X211834Y166090D01*
X211660Y166351D01*
Y167600D01*
X209957D01*
X209760Y167639D01*
X209563Y167600D01*
X207860D01*
Y166300D01*
X207721Y165600D01*
Y165500D01*
X207860Y164800D01*
Y163600D01*
X207911D01*
Y160450D01*
X207550D01*
Y153550D01*
X207911D01*
Y149295D01*
X205616Y147000D01*
X177589Y147000D01*
Y149050D01*
X177950D01*
Y155950D01*
X177684D01*
Y160122D01*
X177779Y160600D01*
X177640Y161300D01*
Y162600D01*
X175937D01*
X175740Y162639D01*
X175543Y162600D01*
X173840D01*
Y161404D01*
X173761Y161285D01*
X173606Y160505D01*
Y155950D01*
X173150D01*
Y155258D01*
X170850D01*
Y155950D01*
X170489D01*
Y160310D01*
X170489Y160310D01*
X170334Y161090D01*
X170160Y161351D01*
Y162600D01*
X168457D01*
X168260Y162639D01*
X168063Y162600D01*
X166360D01*
Y161300D01*
X166221Y160600D01*
Y160500D01*
X166360Y159800D01*
Y158600D01*
X166411D01*
Y155950D01*
X166050D01*
Y151934D01*
X165597Y151481D01*
X165155Y150820D01*
X165000Y150039D01*
Y148526D01*
X164169Y147970D01*
X163763Y148138D01*
X162125Y149232D01*
X160732Y150625D01*
X159638Y152263D01*
X158884Y154083D01*
X158500Y156015D01*
Y157000D01*
Y163500D01*
X158500Y164337D01*
X158827Y165979D01*
X159467Y167526D01*
X160398Y168919D01*
X161582Y170102D01*
X162974Y171033D01*
X164521Y171673D01*
X166163Y172000D01*
X167000D01*
X167686Y172034D01*
X169032Y172301D01*
X170300Y172827D01*
X171441Y173589D01*
X172411Y174559D01*
X173173Y175700D01*
X173699Y176968D01*
X173966Y178314D01*
X174000Y179000D01*
Y189500D01*
X174000Y190091D01*
X174231Y191250D01*
X174683Y192342D01*
X175339Y193325D01*
X176175Y194160D01*
X177158Y194817D01*
X178250Y195269D01*
X179409Y195500D01*
X180000Y195500D01*
X197451Y195500D01*
Y192574D01*
X197442Y192561D01*
X197345Y192070D01*
Y185190D01*
X197442Y184699D01*
X197720Y184283D01*
X197951Y184129D01*
Y179450D01*
X197050D01*
Y174650D01*
X197742D01*
Y172350D01*
X197050D01*
Y167550D01*
X198211D01*
Y165123D01*
X197625D01*
Y160373D01*
X202375D01*
Y165123D01*
X202289D01*
Y167550D01*
X203950D01*
Y172350D01*
X203258D01*
Y174650D01*
X203950D01*
Y179450D01*
X203049D01*
Y186063D01*
X202855Y187038D01*
X202655Y187337D01*
Y192070D01*
X202558Y192561D01*
X202549Y192574D01*
Y195500D01*
X206000D01*
X206000Y195500D01*
X206000Y195500D01*
X206887Y195774D01*
X208658Y195966D01*
X210458Y195807D01*
D02*
G37*
%LPC*%
G36*
X192318Y193352D02*
X189572D01*
X189081Y193255D01*
X188665Y192977D01*
X188387Y192561D01*
X188289Y192070D01*
Y185190D01*
X188387Y184699D01*
X188665Y184283D01*
X188906Y184123D01*
Y180557D01*
X187950Y180450D01*
Y180450D01*
X183150D01*
Y179758D01*
X180250D01*
X180174Y179727D01*
X180142Y179650D01*
Y174350D01*
X180174Y174274D01*
X180250Y174242D01*
X183150D01*
Y173550D01*
X187950D01*
Y175961D01*
X189872D01*
X190474Y175359D01*
X191226Y174925D01*
X192066Y174700D01*
X192934D01*
X193774Y174925D01*
X194526Y175359D01*
X195141Y175974D01*
X195575Y176726D01*
X195800Y177566D01*
Y178434D01*
X195575Y179274D01*
X195141Y180026D01*
X194526Y180641D01*
X193774Y181075D01*
X192984Y181287D01*
Y184123D01*
X193225Y184283D01*
X193503Y184699D01*
X193600Y185190D01*
Y192070D01*
X193503Y192561D01*
X193225Y192977D01*
X192809Y193255D01*
X192318Y193352D01*
D02*
G37*
G36*
X194934Y159800D02*
X194066D01*
X193226Y159575D01*
X192474Y159141D01*
X191859Y158526D01*
X191425Y157774D01*
X191200Y156934D01*
Y156066D01*
X191425Y155226D01*
X191859Y154474D01*
X192474Y153859D01*
X193226Y153425D01*
X194066Y153200D01*
X194934D01*
X195774Y153425D01*
X196526Y153859D01*
X196625Y153958D01*
X197625Y153877D01*
Y153877D01*
X202375D01*
Y158627D01*
X197625D01*
X197625Y158627D01*
X196747Y158920D01*
X196526Y159141D01*
X195774Y159575D01*
X194934Y159800D01*
D02*
G37*
%LPD*%
D10*
X225500Y325900D02*
D03*
Y333000D02*
D03*
X157500Y291550D02*
D03*
Y284450D02*
D03*
X157000Y300950D02*
D03*
Y308050D02*
D03*
X365500Y318550D02*
D03*
Y311450D02*
D03*
X322000Y136050D02*
D03*
Y128950D02*
D03*
X336290Y136050D02*
D03*
Y128950D02*
D03*
X350580Y136050D02*
D03*
Y128950D02*
D03*
X393500D02*
D03*
Y136050D02*
D03*
X379000D02*
D03*
Y128950D02*
D03*
X364870Y136050D02*
D03*
Y128950D02*
D03*
X257500Y169050D02*
D03*
Y161950D02*
D03*
X221500Y226050D02*
D03*
Y218950D02*
D03*
X200500Y169950D02*
D03*
Y177050D02*
D03*
X223000Y201550D02*
D03*
Y194450D02*
D03*
X136500Y268950D02*
D03*
Y276050D02*
D03*
X128000D02*
D03*
Y268950D02*
D03*
D11*
X174450Y300500D02*
D03*
X181550D02*
D03*
X388050Y303500D02*
D03*
X380950D02*
D03*
X296800Y136500D02*
D03*
X289700D02*
D03*
X289950Y127000D02*
D03*
X297050D02*
D03*
X382950Y192000D02*
D03*
X390050D02*
D03*
X382950Y208000D02*
D03*
X390050D02*
D03*
X382950Y171000D02*
D03*
X390050D02*
D03*
X382950Y155500D02*
D03*
X390050D02*
D03*
X145550Y211500D02*
D03*
X138450D02*
D03*
X178450Y177000D02*
D03*
X185550D02*
D03*
X154450Y175500D02*
D03*
X161550D02*
D03*
X215950Y181000D02*
D03*
X223050D02*
D03*
X168450Y152500D02*
D03*
X175550D02*
D03*
X209950Y157000D02*
D03*
X217050D02*
D03*
X145550Y219000D02*
D03*
X138450D02*
D03*
X119550Y271000D02*
D03*
X112450D02*
D03*
X174950Y292500D02*
D03*
X182050D02*
D03*
X174400Y309500D02*
D03*
X181500D02*
D03*
X182050Y318000D02*
D03*
X174950D02*
D03*
X225550Y296450D02*
D03*
X218450D02*
D03*
X225050Y286950D02*
D03*
X217950D02*
D03*
X198450Y234000D02*
D03*
X205550D02*
D03*
X198500Y225500D02*
D03*
X205600D02*
D03*
X112950Y226500D02*
D03*
X120050D02*
D03*
D12*
X141752Y175000D02*
D03*
X148248D02*
D03*
X290415Y144925D02*
D03*
X296911D02*
D03*
D13*
X229500Y232748D02*
D03*
Y226252D02*
D03*
X214000Y232748D02*
D03*
Y226252D02*
D03*
X200000Y156252D02*
D03*
Y162748D02*
D03*
D14*
X172000Y170400D02*
D03*
X175740Y160600D02*
D03*
X168260D02*
D03*
X213500Y175400D02*
D03*
X217240Y165600D02*
D03*
X209760D02*
D03*
D15*
X190945Y188630D02*
D03*
X200000D02*
D03*
X209055D02*
D03*
X161522Y188263D02*
D03*
X170577D02*
D03*
X179632D02*
D03*
D16*
X200000Y212370D02*
D03*
X170577Y212003D02*
D03*
D17*
X135118Y141032D02*
D03*
X132559D02*
D03*
X130000D02*
D03*
X127441D02*
D03*
X124882D02*
D03*
D18*
X130000Y130500D02*
D03*
D19*
X217050Y157000D02*
Y165310D01*
X217240Y165500D02*
Y165600D01*
X217050Y142950D02*
Y157000D01*
Y142950D02*
X226000Y134000D01*
X217050Y165310D02*
X217240Y165500D01*
X168450Y151450D02*
Y152500D01*
X167039Y134500D02*
Y150039D01*
X168450Y151450D01*
X199138Y135103D02*
Y137638D01*
X209950Y148450D01*
Y157000D01*
X198535Y134500D02*
X199138Y135103D01*
X116750Y289750D02*
X144250D01*
X145581Y294500D02*
X148531Y291550D01*
X134500Y294500D02*
X145581D01*
X144250Y289750D02*
X144500Y289500D01*
X148531Y291550D02*
X157500D01*
X157250Y291800D02*
Y300700D01*
X157000Y300950D02*
X157250Y300700D01*
Y291800D02*
X157500Y291550D01*
X144500Y299500D02*
X153050Y308050D01*
X157000D01*
X144500Y289500D02*
X149550Y284450D01*
X157500D01*
X382700Y208250D02*
X382950Y208000D01*
X364750Y208250D02*
X382700D01*
X364500Y208500D02*
X364750Y208250D01*
X388050Y300104D02*
Y303500D01*
X386996Y299050D02*
X388050Y300104D01*
X380950D02*
X382004Y299050D01*
X386996D01*
X380950Y300104D02*
Y303500D01*
X375000D02*
X380950D01*
X183100Y270400D02*
X192000Y261500D01*
X183100Y270400D02*
Y281019D01*
X192800Y290719D01*
Y306200D01*
X182050Y316950D02*
X192800Y306200D01*
X182050Y316950D02*
Y318000D01*
X112700Y226750D02*
X112950Y226500D01*
X106250Y226750D02*
X112700D01*
X106000Y227000D02*
X106250Y226750D01*
X194624Y156376D02*
X199876D01*
X200000Y156252D01*
X194500Y156500D02*
X194624Y156376D01*
X223050Y182050D02*
X226926Y185926D01*
X223050Y181000D02*
Y182050D01*
X226926Y185926D02*
X227926D01*
X228500Y186500D01*
X222500Y189500D02*
Y193950D01*
X222000Y189000D02*
X222500Y189500D01*
Y193950D02*
X223000Y194450D01*
X182050Y292500D02*
X188500D01*
X217950Y290346D02*
X218450Y290846D01*
X217950Y286950D02*
Y290346D01*
X218450Y290846D02*
Y296450D01*
X218500Y299896D02*
Y304500D01*
X218450Y296450D02*
Y299846D01*
X218500Y299896D01*
X221601Y226151D02*
X229399D01*
X221500Y226050D02*
X221601Y226151D01*
X229399D02*
X229500Y226252D01*
X214101Y226151D02*
X221399D01*
X214000Y226252D02*
X214101Y226151D01*
X221399D02*
X221500Y226050D01*
X221000Y218000D02*
X260000D01*
X206601D02*
X221000D01*
Y218450D02*
X221500Y218950D01*
X221000Y218000D02*
Y218450D01*
X382950Y188604D02*
X384004Y187550D01*
X382950Y188604D02*
Y192000D01*
X384004Y187550D02*
X388996D01*
X390050Y188604D01*
Y192000D01*
Y204604D02*
Y208000D01*
X388996Y203550D02*
X390050Y204604D01*
X384004Y203550D02*
X388996D01*
X382950Y204604D02*
X384004Y203550D01*
X382950Y204604D02*
Y208000D01*
X120550Y268950D02*
X128000D01*
X119550Y269950D02*
X120550Y268950D01*
X119550Y269950D02*
Y271000D01*
X128000Y268950D02*
X136500D01*
X137550D01*
X141926Y264574D01*
Y261074D02*
Y264574D01*
Y261074D02*
X142500Y260500D01*
X138450Y222396D02*
X143054Y227000D01*
X138450Y219000D02*
Y222396D01*
X143054Y227000D02*
X157050D01*
X141861Y197639D02*
X142000Y197500D01*
X138450Y204550D02*
X141861Y201139D01*
X138450Y204550D02*
Y211500D01*
X141861Y197639D02*
Y201139D01*
X158899Y183574D02*
X161522Y186196D01*
Y188263D01*
X156074Y183574D02*
X158899D01*
X155500Y183000D02*
X156074Y183574D01*
X190945Y180367D02*
X192500Y178812D01*
Y178000D02*
Y178812D01*
X190945Y180367D02*
Y188630D01*
X185550Y177400D02*
X186150Y178000D01*
X185550Y177000D02*
Y177400D01*
X186150Y178000D02*
X192500D01*
X135000Y175000D02*
X141752D01*
X131000Y171000D02*
X135000Y175000D01*
X130000Y130500D02*
X146437D01*
X290458Y144967D02*
Y150958D01*
X290500Y151000D01*
X290415Y144925D02*
X290458Y144967D01*
X390050Y171000D02*
X397500D01*
X390300Y155750D02*
X397750D01*
X398000Y156000D01*
X390050Y155500D02*
X390300Y155750D01*
X368896Y311450D02*
X369950Y312504D01*
Y317496D01*
X368896Y318550D02*
X369950Y317496D01*
X365500Y311450D02*
X368896D01*
X365500Y318550D02*
X368896D01*
X363500Y280000D02*
X364074Y280574D01*
Y310850D01*
X364674Y311450D01*
X365500D01*
X363500Y236000D02*
X389000D01*
X363500Y246000D02*
X389000D01*
X364000Y192000D02*
X382950D01*
X315000Y208500D02*
X324000D01*
X301500Y195000D02*
X315000Y208500D01*
X309500Y217000D02*
X317000D01*
X294000Y201500D02*
X309500Y217000D01*
X331950Y169550D02*
Y214050D01*
X279500Y237500D02*
X308500D01*
X331950Y214050D01*
X275900Y241100D02*
X279500Y237500D01*
X268112Y244888D02*
X271890D01*
X275677Y241100D01*
X275900D01*
X312500Y251000D02*
X336500Y227000D01*
Y175000D02*
Y227000D01*
X257000Y251000D02*
X312500D01*
X227500Y244634D02*
X229500Y242634D01*
Y232748D02*
Y242634D01*
X227500Y244634D02*
Y245500D01*
X214000Y241134D02*
X217500Y244634D01*
Y245500D01*
X214000Y232748D02*
Y241134D01*
X211315Y212185D02*
X221950Y201550D01*
X253500Y254500D02*
X257000Y251000D01*
X253500Y254500D02*
Y271500D01*
X257500Y275500D01*
X363500Y270000D02*
X391000D01*
X390050Y171000D02*
Y174396D01*
X384004Y175450D02*
X388996D01*
X390050Y174396D01*
X382950D02*
X384004Y175450D01*
X382950Y171000D02*
Y174396D01*
X390050Y155500D02*
Y158896D01*
X388996Y159950D02*
X390050Y158896D01*
X384004Y159950D02*
X388996D01*
X382950Y158896D02*
X384004Y159950D01*
X382950Y155500D02*
Y158896D01*
X397950Y130004D02*
Y134996D01*
X393500Y136050D02*
X396896D01*
X397950Y134996D01*
X396896Y128950D02*
X397950Y130004D01*
X393500Y128950D02*
X396896D01*
X379000D02*
X382396D01*
X383450Y130004D01*
Y134996D01*
X382396Y136050D02*
X383450Y134996D01*
X379000Y136050D02*
X382396D01*
X335240D02*
X336290D01*
X332894D02*
X335240D01*
X331840Y130004D02*
Y134996D01*
Y130004D02*
X332894Y128950D01*
X331840Y134996D02*
X332894Y136050D01*
Y128950D02*
X336290D01*
X297050Y123604D02*
Y127000D01*
X295996Y122550D02*
X297050Y123604D01*
X291004Y122550D02*
X295996D01*
X289950Y123604D02*
X291004Y122550D01*
X289950Y123604D02*
Y127000D01*
X289700Y132900D02*
X289950Y132650D01*
Y127000D02*
Y132650D01*
X289700Y132900D02*
Y136500D01*
X265000Y133500D02*
X271500Y127000D01*
X289950D01*
X296800Y136500D02*
X296856Y136556D01*
Y144869D01*
X296911Y144925D01*
X197500Y236000D02*
Y244905D01*
X183858Y238530D02*
Y241222D01*
X187500Y244864D01*
X180828Y235500D02*
X183858Y238530D01*
X187500Y244864D02*
Y245500D01*
X120050Y232150D02*
X123000Y235100D01*
X120050Y226500D02*
Y232150D01*
X123000Y235100D02*
Y236000D01*
X114500Y197500D02*
X142000D01*
X114500Y187500D02*
X142000D01*
X327574Y141926D02*
X329364D01*
X335240Y136050D01*
X327000Y142500D02*
X327574Y141926D01*
X321950Y158328D02*
X343000Y137278D01*
X321950Y158328D02*
Y170450D01*
X343000Y129500D02*
Y137278D01*
X327170Y162830D02*
X350522Y139478D01*
X392450Y136050D02*
X393500D01*
X336500Y175000D02*
X353500D01*
X392450Y136050D01*
X336500Y165000D02*
X350000Y151500D01*
X377950Y136050D02*
X379000D01*
X362500Y151500D02*
X377950Y136050D01*
X350000Y151500D02*
X362500D01*
X364870Y136050D02*
X368266D01*
X364870Y128950D02*
X368266D01*
X359450D02*
X364870D01*
X368266Y136050D02*
X369320Y134996D01*
Y130004D02*
Y134996D01*
X368266Y128950D02*
X369320Y130004D01*
X353976Y128950D02*
X355030Y130004D01*
Y134996D01*
X353976Y136050D02*
X355030Y134996D01*
X350580Y136050D02*
X353976D01*
X350580Y128950D02*
X353976D01*
X348500Y124000D02*
X354500D01*
X343000Y129500D02*
X348500Y124000D01*
X354500D02*
X359450Y128950D01*
X350522Y136108D02*
X350580Y136050D01*
X327170Y162830D02*
Y164330D01*
X350522Y136108D02*
Y139478D01*
X326500Y165000D02*
X327170Y164330D01*
X320950Y136050D02*
X322000D01*
X318604D02*
X320950D01*
X318604Y128950D02*
X322000D01*
X317550Y130004D02*
Y134996D01*
X318604Y136050D01*
X317550Y130004D02*
X318604Y128950D01*
X316500Y140500D02*
X320950Y136050D01*
X316500Y140500D02*
Y165000D01*
X225550Y293054D02*
Y296450D01*
X225050Y286950D02*
Y292554D01*
X225550Y293054D01*
X227500Y275500D02*
Y283450D01*
X225050Y285900D02*
X227500Y283450D01*
X225050Y285900D02*
Y286950D01*
X260896Y169050D02*
X270050D01*
X257500D02*
X260896D01*
X261950Y167996D01*
Y163004D02*
Y167996D01*
X260896Y161950D02*
X261950Y163004D01*
X257500Y161950D02*
X260896D01*
X270050Y169050D02*
X276500Y175500D01*
X234000Y182500D02*
X247450Y169050D01*
X257500D01*
X226396Y201550D02*
X234000Y193946D01*
X223000Y201550D02*
X226396D01*
X234000Y182500D02*
Y193946D01*
X221950Y201550D02*
X223000D01*
X209950Y157000D02*
Y165310D01*
X200000Y162748D02*
X200250Y162998D01*
Y169700D01*
X200500Y169950D01*
X209760Y165500D02*
Y165600D01*
Y165500D02*
X209950Y165310D01*
X193467Y218068D02*
X206533D01*
X206601Y218000D01*
X260000D02*
X267500Y225500D01*
X187403Y212003D02*
X193467Y218068D01*
X172063Y212003D02*
X187403D01*
X170577D02*
X172063D01*
X272500Y224277D02*
Y227500D01*
X268000Y232000D02*
X272500Y227500D01*
Y224277D02*
X278500Y218278D01*
X264777Y232000D02*
X268000D01*
X253100Y243677D02*
X264777Y232000D01*
X253100Y243677D02*
Y246123D01*
X278500Y186565D02*
X304615Y160450D01*
X278500Y186565D02*
Y218278D01*
X270266Y235234D02*
X273847D01*
X258112Y244888D02*
X260612D01*
X270266Y235234D01*
X257500Y245500D02*
X258112Y244888D01*
X273847Y235234D02*
X286500Y222581D01*
X321950Y170450D02*
X326500Y175000D01*
X304615Y170450D02*
X321950D01*
X331950Y169550D02*
X336500Y165000D01*
X286500Y188565D02*
Y222581D01*
Y188565D02*
X304615Y170450D01*
X267500Y245500D02*
X268112Y244888D01*
X304615Y160450D02*
X311950D01*
X316500Y165000D01*
X247500Y251723D02*
X253100Y246123D01*
X247500Y251723D02*
Y275500D01*
X222104Y325900D02*
X225500D01*
X221050Y326954D02*
X222104Y325900D01*
X221050Y326954D02*
Y331946D01*
X222104Y333000D01*
X225500D01*
Y325900D02*
X257600D01*
X269500Y314000D01*
X267500Y276366D02*
X269500Y278366D01*
X267500Y275500D02*
Y276366D01*
X269500Y278366D02*
Y314000D01*
X217500Y275500D02*
Y276366D01*
X216290Y277576D02*
X217500Y276366D01*
X212000Y282500D02*
X216290Y278210D01*
X212000Y282500D02*
Y305500D01*
X216290Y277576D02*
Y278210D01*
X185000Y332500D02*
X212000Y305500D01*
X147000Y332500D02*
X185000D01*
X207500Y275500D02*
Y299346D01*
X184346Y322500D02*
X207500Y299346D01*
X147000Y322500D02*
X184346D01*
X145188Y331500D02*
X146188Y332500D01*
X115000Y331500D02*
X145188D01*
X146188Y332500D02*
X147000D01*
X146500Y322000D02*
X147000Y322500D01*
X115500Y322000D02*
X146500D01*
X115000Y321500D02*
X115500Y322000D01*
X116500Y290000D02*
X116750Y289750D01*
X116500Y300000D02*
X116750Y299750D01*
X144250D01*
X144500Y299500D01*
X174400Y317450D02*
X174950Y318000D01*
X174400Y309500D02*
Y317450D01*
X181500Y309500D02*
X181550Y309450D01*
Y300500D02*
Y309450D01*
X174450Y293000D02*
Y300500D01*
Y293000D02*
X174950Y292500D01*
X172850Y290850D02*
X174350D01*
X174950Y291450D01*
X157500Y275500D02*
X172850Y290850D01*
X174950Y291450D02*
Y292500D01*
X146950Y276050D02*
X147500Y275500D01*
X136500Y276050D02*
X146950D01*
X128000D02*
X136500D01*
X111850Y268157D02*
Y270400D01*
X105283Y261591D02*
X111850Y268157D01*
Y270400D02*
X112450Y271000D01*
X105283Y236000D02*
Y261591D01*
X123000Y236000D02*
Y261591D01*
X123500Y235500D02*
X149000D01*
X172194Y240194D02*
X177500Y245500D01*
X153694Y240194D02*
X172194D01*
X149000Y235500D02*
X153694Y240194D01*
X165550Y235500D02*
X180828D01*
X157050Y227000D02*
X165550Y235500D01*
X205550Y228946D02*
X205600Y228896D01*
Y225500D02*
Y228896D01*
X205550Y228946D02*
Y234000D01*
X207500Y237000D02*
Y245500D01*
X205550Y235050D02*
X207500Y237000D01*
X205550Y234000D02*
Y235050D01*
X198450Y225550D02*
Y234000D01*
Y225550D02*
X198500Y225500D01*
X197500Y236000D02*
X198450Y235050D01*
Y234000D02*
Y235050D01*
X172063Y212003D02*
X174961Y214901D01*
X145550Y211500D02*
Y219000D01*
X151000Y205000D02*
X154500D01*
X145550Y210450D02*
Y211500D01*
Y210450D02*
X151000Y205000D01*
X154500D02*
X161504Y212003D01*
X170577D01*
X154500Y200000D02*
Y205000D01*
X142000Y187500D02*
X154500Y200000D01*
X154200Y175250D02*
X154450Y175500D01*
X148248Y175000D02*
X148498Y175250D01*
X154200D01*
X170500Y188186D02*
X170577Y188263D01*
X170500Y179000D02*
Y188186D01*
X167000Y175500D02*
X170500Y179000D01*
X161550Y175500D02*
X167000D01*
X119721Y126278D02*
Y134021D01*
X123500Y122500D02*
X166000D01*
X119721Y126278D02*
X123500Y122500D01*
X168260Y160500D02*
Y160600D01*
X168450Y152500D02*
Y160310D01*
X168260Y160500D02*
X168450Y160310D01*
X175550Y152500D02*
X175645Y152595D01*
Y160505D01*
X175740Y160600D01*
X175550Y132050D02*
Y152500D01*
X166000Y122500D02*
X175550Y132050D01*
D20*
X233243Y252500D02*
X235743Y255000D01*
X197500Y245500D02*
X204500Y252500D01*
X235743Y255000D02*
X236000D01*
X204500Y252500D02*
X233243D01*
X263000Y256000D02*
X319500D01*
X343500Y280000D01*
X211315Y212185D02*
X223315D01*
X200185D02*
X211315D01*
X200000Y212370D02*
X200185Y212185D01*
X223315D02*
X223500Y212000D01*
X363500Y280000D02*
X391000D01*
X343500D02*
X363500D01*
X147500Y275500D02*
X162500Y260500D01*
X182500D01*
X197500Y245500D01*
X190500Y234500D02*
X192836Y236836D01*
X197500Y244905D02*
Y245500D01*
X192836Y240241D02*
X197500Y244905D01*
X192836Y236836D02*
Y240241D01*
X184550Y234500D02*
X190500D01*
X177050Y227000D02*
X184550Y234500D01*
X200000Y186563D02*
X200500Y186063D01*
Y178000D02*
Y186063D01*
X200000Y186563D02*
Y188630D01*
X170577Y188263D02*
Y212003D01*
X200000Y188630D02*
Y212370D01*
X174961Y214901D02*
Y224099D01*
X177050Y226188D01*
D21*
X119721Y134021D02*
X124882Y139181D01*
Y141032D01*
D22*
X275000Y133500D02*
D03*
X265000D02*
D03*
X391000Y270000D02*
D03*
Y280000D02*
D03*
X116500Y290000D02*
D03*
Y300000D02*
D03*
X236000Y134000D02*
D03*
X226000D02*
D03*
X242500Y200000D02*
D03*
X252500D02*
D03*
X114500Y197500D02*
D03*
Y187500D02*
D03*
X389000Y236000D02*
D03*
Y246000D02*
D03*
X115000Y321500D02*
D03*
Y331500D02*
D03*
D23*
X147000Y332500D02*
D03*
Y322500D02*
D03*
X177050Y227000D02*
D03*
X167050D02*
D03*
X157050D02*
D03*
X144500Y299500D02*
D03*
Y289500D02*
D03*
X142000Y197500D02*
D03*
Y187500D02*
D03*
X363500Y246000D02*
D03*
Y236000D02*
D03*
Y280000D02*
D03*
Y270000D02*
D03*
X252500Y225500D02*
D03*
X242500D02*
D03*
X267500D02*
D03*
X277500D02*
D03*
D24*
Y275500D02*
D03*
D25*
X267500D02*
D03*
X257500D02*
D03*
X247500D02*
D03*
X237500D02*
D03*
X227500D02*
D03*
X217500D02*
D03*
X207500D02*
D03*
X197500D02*
D03*
X187500D02*
D03*
X177500D02*
D03*
X167500D02*
D03*
X157500D02*
D03*
X147500D02*
D03*
Y245500D02*
D03*
X157500D02*
D03*
X167500D02*
D03*
X177500D02*
D03*
X187500D02*
D03*
X197500D02*
D03*
X207500D02*
D03*
X217500D02*
D03*
X227500D02*
D03*
X237500D02*
D03*
X247500D02*
D03*
X257500D02*
D03*
X267500D02*
D03*
X277500D02*
D03*
D26*
X158575Y134500D02*
D03*
X207000D02*
D03*
D27*
X182787D02*
D03*
X190661D02*
D03*
X198535D02*
D03*
D28*
X167039D02*
D03*
D29*
X105283Y236000D02*
D03*
D30*
X123000D02*
D03*
Y261591D02*
D03*
X105283D02*
D03*
D31*
X243910Y314000D02*
D03*
D32*
X269500D02*
D03*
D33*
X121240Y142311D02*
D03*
X138760D02*
D03*
D34*
X146437Y130500D02*
D03*
X113563D02*
D03*
D35*
X336500Y165000D02*
D03*
X326500D02*
D03*
X316500D02*
D03*
X306500D02*
D03*
Y175000D02*
D03*
X316500D02*
D03*
X336500D02*
D03*
X326500D02*
D03*
D36*
X134500Y294500D02*
D03*
X185000Y189000D02*
D03*
X192000Y261500D02*
D03*
X106000Y227000D02*
D03*
X194500Y156500D02*
D03*
X222000Y189000D02*
D03*
X228500Y186500D02*
D03*
X375000Y303500D02*
D03*
X218500Y304500D02*
D03*
X188500Y292500D02*
D03*
X142500Y260500D02*
D03*
X192500Y178000D02*
D03*
X155500Y183000D02*
D03*
X131000Y171000D02*
D03*
X290500Y151000D02*
D03*
X398000Y156000D02*
D03*
X397500Y171000D02*
D03*
X364000Y192000D02*
D03*
X324000Y208500D02*
D03*
X301500Y195000D02*
D03*
X364500Y208500D02*
D03*
X317000Y217000D02*
D03*
X294000Y201500D02*
D03*
X236000Y255000D02*
D03*
X263000Y256000D02*
D03*
X223500Y212000D02*
D03*
X327000Y142500D02*
D03*
X276500Y175500D02*
D03*
%TF.MD5,30ac75b79329242b945d4bd2321614a7*%
M02*
