%TF.GenerationSoftware,Altium Limited,Altium Designer,24.10.1 (45)*%
G04 Layer_Color=8421504*
%FSLAX25Y25*%
%MOIN*%
%TF.SameCoordinates,9950C81B-CD0A-4F44-AB06-5448DEDD42A1*%
%TF.FilePolarity,Positive*%
%TF.FileFunction,Paste,Top*%
%TF.Part,Single*%
G01*
G75*
%TA.AperFunction,SMDPad,CuDef*%
%ADD10R,0.05300X0.03200*%
%ADD11R,0.03200X0.05300*%
%ADD12R,0.03150X0.03150*%
%ADD13R,0.03150X0.03150*%
%ADD14R,0.02200X0.02400*%
G04:AMPARAMS|DCode=15|XSize=77.95mil|YSize=36.61mil|CornerRadius=4.58mil|HoleSize=0mil|Usage=FLASHONLY|Rotation=90.000|XOffset=0mil|YOffset=0mil|HoleType=Round|Shape=RoundedRectangle|*
%AMROUNDEDRECTD15*
21,1,0.07795,0.02746,0,0,90.0*
21,1,0.06880,0.03661,0,0,90.0*
1,1,0.00915,0.01373,0.03440*
1,1,0.00915,0.01373,-0.03440*
1,1,0.00915,-0.01373,-0.03440*
1,1,0.00915,-0.01373,0.03440*
%
%ADD15ROUNDEDRECTD15*%
G04:AMPARAMS|DCode=16|XSize=77.95mil|YSize=127.17mil|CornerRadius=9.74mil|HoleSize=0mil|Usage=FLASHONLY|Rotation=90.000|XOffset=0mil|YOffset=0mil|HoleType=Round|Shape=RoundedRectangle|*
%AMROUNDEDRECTD16*
21,1,0.07795,0.10768,0,0,90.0*
21,1,0.05847,0.12717,0,0,90.0*
1,1,0.01949,0.05384,0.02923*
1,1,0.01949,0.05384,-0.02923*
1,1,0.01949,-0.05384,-0.02923*
1,1,0.01949,-0.05384,0.02923*
%
%ADD16ROUNDEDRECTD16*%
%ADD17R,0.01600X0.05300*%
D10*
X225500Y325900D02*
D03*
Y333000D02*
D03*
X157500Y291550D02*
D03*
Y284450D02*
D03*
X157000Y300950D02*
D03*
Y308050D02*
D03*
X365500Y318550D02*
D03*
Y311450D02*
D03*
X322000Y136050D02*
D03*
Y128950D02*
D03*
X336290Y136050D02*
D03*
Y128950D02*
D03*
X350580Y136050D02*
D03*
Y128950D02*
D03*
X393500D02*
D03*
Y136050D02*
D03*
X379000D02*
D03*
Y128950D02*
D03*
X364870Y136050D02*
D03*
Y128950D02*
D03*
X257500Y169050D02*
D03*
Y161950D02*
D03*
X221500Y226050D02*
D03*
Y218950D02*
D03*
X200500Y169950D02*
D03*
Y177050D02*
D03*
X223000Y201550D02*
D03*
Y194450D02*
D03*
X136500Y268950D02*
D03*
Y276050D02*
D03*
X128000D02*
D03*
Y268950D02*
D03*
D11*
X174450Y300500D02*
D03*
X181550D02*
D03*
X388050Y303500D02*
D03*
X380950D02*
D03*
X296800Y136500D02*
D03*
X289700D02*
D03*
X289950Y127000D02*
D03*
X297050D02*
D03*
X382950Y192000D02*
D03*
X390050D02*
D03*
X382950Y208000D02*
D03*
X390050D02*
D03*
X382950Y171000D02*
D03*
X390050D02*
D03*
X382950Y155500D02*
D03*
X390050D02*
D03*
X145550Y211500D02*
D03*
X138450D02*
D03*
X178450Y177000D02*
D03*
X185550D02*
D03*
X154450Y175500D02*
D03*
X161550D02*
D03*
X215950Y181000D02*
D03*
X223050D02*
D03*
X168450Y152500D02*
D03*
X175550D02*
D03*
X209950Y157000D02*
D03*
X217050D02*
D03*
X145550Y219000D02*
D03*
X138450D02*
D03*
X119550Y271000D02*
D03*
X112450D02*
D03*
X174950Y292500D02*
D03*
X182050D02*
D03*
X174400Y309500D02*
D03*
X181500D02*
D03*
X182050Y318000D02*
D03*
X174950D02*
D03*
X225550Y296450D02*
D03*
X218450D02*
D03*
X225050Y286950D02*
D03*
X217950D02*
D03*
X198450Y234000D02*
D03*
X205550D02*
D03*
X198500Y225500D02*
D03*
X205600D02*
D03*
X112950Y226500D02*
D03*
X120050D02*
D03*
D12*
X141752Y175000D02*
D03*
X148248D02*
D03*
X290415Y144925D02*
D03*
X296911D02*
D03*
D13*
X229500Y232748D02*
D03*
Y226252D02*
D03*
X214000Y232748D02*
D03*
Y226252D02*
D03*
X200000Y156252D02*
D03*
Y162748D02*
D03*
D14*
X172000Y170400D02*
D03*
X175740Y160600D02*
D03*
X168260D02*
D03*
X213500Y175400D02*
D03*
X217240Y165600D02*
D03*
X209760D02*
D03*
D15*
X190945Y188630D02*
D03*
X200000D02*
D03*
X209055D02*
D03*
X161522Y188263D02*
D03*
X170577D02*
D03*
X179632D02*
D03*
D16*
X200000Y212370D02*
D03*
X170577Y212003D02*
D03*
D17*
X135118Y141032D02*
D03*
X132559D02*
D03*
X130000D02*
D03*
X127441D02*
D03*
X124882D02*
D03*
%TF.MD5,5ec4a5f4a022000ef6a56cd67cbd358f*%
M02*
