%TF.GenerationSoftware,Altium Limited,Altium Designer,24.10.1 (45)*%
G04 Layer_Color=65535*
%FSLAX25Y25*%
%MOIN*%
%TF.SameCoordinates,9950C81B-CD0A-4F44-AB06-5448DEDD42A1*%
%TF.FilePolarity,Positive*%
%TF.FileFunction,Legend,Top*%
%TF.Part,Single*%
G01*
G75*
%TA.AperFunction,NonConductor*%
%ADD37C,0.02000*%
%ADD38C,0.00787*%
%ADD39C,0.00600*%
%ADD40C,0.00500*%
%ADD41C,0.01000*%
%ADD42C,0.00700*%
%ADD43C,0.00300*%
%ADD44C,0.00800*%
D37*
X253194Y133500D02*
G03*
X253194Y133500I-1500J0D01*
G01*
X141000Y332500D02*
G03*
X141000Y332500I-1500J0D01*
G01*
X392500Y260694D02*
G03*
X392500Y260694I-1500J0D01*
G01*
X178550Y234500D02*
G03*
X178550Y234500I-1500J0D01*
G01*
X118000Y280694D02*
G03*
X118000Y280694I-1500J0D01*
G01*
X246806Y134000D02*
G03*
X246806Y134000I-1500J0D01*
G01*
X138500Y299500D02*
G03*
X138500Y299500I-1500J0D01*
G01*
X151000Y187500D02*
G03*
X151000Y187500I-1500J0D01*
G01*
X234694Y200000D02*
G03*
X234694Y200000I-1500J0D01*
G01*
X357500Y246000D02*
G03*
X357500Y246000I-1500J0D01*
G01*
X116000Y206806D02*
G03*
X116000Y206806I-1500J0D01*
G01*
X390500Y226694D02*
G03*
X390500Y226694I-1500J0D01*
G01*
X116500Y312194D02*
G03*
X116500Y312194I-1500J0D01*
G01*
X136500Y150277D02*
G03*
X136500Y150277I-1500J0D01*
G01*
X357500Y280000D02*
G03*
X357500Y280000I-1500J0D01*
G01*
X254000Y233000D02*
G03*
X254000Y233000I-1500J0D01*
G01*
X269000Y218000D02*
G03*
X269000Y218000I-1500J0D01*
G01*
X346000Y165000D02*
G03*
X346000Y165000I-1500J0D01*
G01*
D38*
X138445Y175000D02*
G03*
X138445Y175000I-394J0D01*
G01*
X287108Y144925D02*
G03*
X287108Y144925I-394J0D01*
G01*
X229894Y236449D02*
G03*
X229894Y236449I-394J0D01*
G01*
X214394D02*
G03*
X214394Y236449I-394J0D01*
G01*
X191339Y180795D02*
G03*
X191339Y180795I-394J0D01*
G01*
X200394Y152551D02*
G03*
X200394Y152551I-394J0D01*
G01*
X161916Y180429D02*
G03*
X161916Y180429I-394J0D01*
G01*
X167433Y146311D02*
G03*
X167433Y146311I-394J0D01*
G01*
D39*
X161800Y160600D02*
G03*
X161800Y160600I-500J0D01*
G01*
X280805Y314000D02*
G03*
X280805Y314000I-24100J0D01*
G01*
X203300Y165600D02*
G03*
X203300Y165600I-500J0D01*
G01*
X228650Y328711D02*
Y330189D01*
X222350Y328711D02*
Y330189D01*
X258694Y120183D02*
Y147583D01*
X282094D01*
Y120183D02*
Y147583D01*
X258694Y120183D02*
X282094D01*
X141500Y317000D02*
Y338000D01*
Y317000D02*
X152500D01*
Y338000D01*
X141500D02*
X152500D01*
X177261Y297350D02*
X178739D01*
X177261Y303650D02*
X178739D01*
X154350Y287261D02*
Y288739D01*
X160650Y287261D02*
Y288739D01*
X160150Y303761D02*
Y305239D01*
X153850Y303761D02*
Y305239D01*
X362350Y314261D02*
Y315739D01*
X368650Y314261D02*
Y315739D01*
X383761Y306650D02*
X385239D01*
X383761Y300350D02*
X385239D01*
X404317Y263694D02*
Y287094D01*
X376917D02*
X404317D01*
X376917Y263694D02*
Y287094D01*
Y263694D02*
X404317D01*
X281402Y245250D02*
X283000D01*
X142000D02*
Y275750D01*
Y245250D02*
X143598D01*
X283000D02*
Y275750D01*
X281410D02*
X283000D01*
X271402D02*
X273590D01*
X261402D02*
X263598D01*
X251402D02*
X253598D01*
X241402D02*
X243598D01*
X231402D02*
X233598D01*
X221402D02*
X223598D01*
X211402D02*
X213598D01*
X201402D02*
X203598D01*
X191402D02*
X193598D01*
X181402D02*
X183598D01*
X171402D02*
X173598D01*
X161402D02*
X163598D01*
X151402D02*
X153598D01*
X142000D02*
X143598D01*
X151402Y245250D02*
X153598D01*
X161402D02*
X163598D01*
X171402D02*
X173598D01*
X181402D02*
X183598D01*
X191402D02*
X193598D01*
X201402D02*
X203598D01*
X211402D02*
X213598D01*
X221402D02*
X223598D01*
X231402D02*
X233598D01*
X241402D02*
X243598D01*
X251402D02*
X253598D01*
X261402D02*
X263598D01*
X271402D02*
X273598D01*
X292511Y139650D02*
X293989D01*
X292511Y133350D02*
X293989D01*
X292761Y123850D02*
X294239D01*
X292761Y130150D02*
X294239D01*
X318850Y131761D02*
Y133239D01*
X325150Y131761D02*
Y133239D01*
X333140Y131761D02*
Y133239D01*
X339440Y131761D02*
Y133239D01*
X347430Y131761D02*
Y133239D01*
X353730Y131761D02*
Y133239D01*
X396650Y131761D02*
Y133239D01*
X390350Y131761D02*
Y133239D01*
X375850Y131761D02*
Y133239D01*
X382150Y131761D02*
Y133239D01*
X361720Y131761D02*
Y133239D01*
X368020Y131761D02*
Y133239D01*
X385761Y188850D02*
X387239D01*
X385761Y195150D02*
X387239D01*
X385761Y204850D02*
X387239D01*
X385761Y211150D02*
X387239D01*
X385761Y167850D02*
X387239D01*
X385761Y174150D02*
X387239D01*
X385761Y152350D02*
X387239D01*
X385761Y158650D02*
X387239D01*
X254350Y164761D02*
Y166239D01*
X260650Y164761D02*
Y166239D01*
X151550Y232500D02*
X182550D01*
X151550Y221500D02*
Y232500D01*
Y221500D02*
X182550D01*
Y232500D01*
X141261Y214650D02*
X142739D01*
X141261Y208350D02*
X142739D01*
X218350Y221761D02*
Y223239D01*
X224650Y221761D02*
Y223239D01*
X181261Y173850D02*
X182739D01*
X181261Y180150D02*
X182739D01*
X165800Y161450D02*
Y169550D01*
X174410D02*
X178200D01*
Y161450D02*
Y169550D01*
X170670Y161450D02*
X173330D01*
X165800Y169550D02*
X169590D01*
X157261Y172350D02*
X158739D01*
X157261Y178650D02*
X158739D01*
X203650Y172761D02*
Y174239D01*
X197350Y172761D02*
Y174239D01*
X219850Y197261D02*
Y198739D01*
X226150Y197261D02*
Y198739D01*
X218761Y177850D02*
X220239D01*
X218761Y184150D02*
X220239D01*
X171261Y149350D02*
X172739D01*
X171261Y155650D02*
X172739D01*
X212761Y153850D02*
X214239D01*
X212761Y160150D02*
X214239D01*
X141261Y222150D02*
X142739D01*
X141261Y215850D02*
X142739D01*
X139650Y271761D02*
Y273239D01*
X133350Y271761D02*
Y273239D01*
X124850Y271761D02*
Y273239D01*
X131150Y271761D02*
Y273239D01*
X115261Y274150D02*
X116739D01*
X115261Y267850D02*
X116739D01*
X129817Y283694D02*
Y307094D01*
X102417D02*
X129817D01*
X102417Y283694D02*
Y307094D01*
Y283694D02*
X129817D01*
X126442Y238510D02*
Y259080D01*
X109515Y261095D02*
X118769D01*
X101842Y240164D02*
Y259080D01*
X109544Y236495D02*
X118769D01*
X283805Y311500D02*
Y316500D01*
X281305Y314000D02*
X286305D01*
X177761Y289350D02*
X179239D01*
X177761Y295650D02*
X179239D01*
X177211Y306350D02*
X178689D01*
X177211Y312650D02*
X178689D01*
X177761Y321150D02*
X179239D01*
X177761Y314850D02*
X179239D01*
X218906Y147317D02*
X242306D01*
X218906Y119917D02*
Y147317D01*
Y119917D02*
X242306D01*
Y147317D01*
X221261Y299600D02*
X222739D01*
X221261Y293300D02*
X222739D01*
X220761Y290100D02*
X222239D01*
X220761Y283800D02*
X222239D01*
X139000Y284000D02*
Y305000D01*
Y284000D02*
X150000D01*
Y305000D01*
X139000D02*
X150000D01*
X136500Y182000D02*
X147500D01*
X136500D02*
Y203000D01*
X147500D01*
Y182000D02*
Y203000D01*
X201261Y230850D02*
X202739D01*
X201261Y237150D02*
X202739D01*
X201311Y222350D02*
X202789D01*
X201311Y228650D02*
X202789D01*
X207300Y166450D02*
Y174550D01*
X215910D02*
X219700D01*
Y166450D02*
Y174550D01*
X212170Y166450D02*
X214830D01*
X207300Y174550D02*
X211090D01*
X236194Y186683D02*
X259594D01*
Y214083D01*
X236194D02*
X259594D01*
X236194Y186683D02*
Y214083D01*
X358000Y230500D02*
Y251500D01*
Y230500D02*
X369000D01*
Y251500D01*
X358000D02*
X369000D01*
X101183Y180406D02*
Y203806D01*
Y180406D02*
X128583D01*
Y203806D01*
X101183D02*
X128583D01*
X402317Y229694D02*
Y253094D01*
X374917D02*
X402317D01*
X374917Y229694D02*
Y253094D01*
Y229694D02*
X402317D01*
X128317Y315194D02*
Y338594D01*
X100917D02*
X128317D01*
X100917Y315194D02*
Y338594D01*
Y315194D02*
X128317D01*
X115761Y223350D02*
X117239D01*
X115761Y229650D02*
X117239D01*
X113350Y119186D02*
Y125847D01*
Y144386D02*
X118298D01*
X146650Y135153D02*
Y144386D01*
X113350Y119186D02*
X146650D01*
X141701Y144386D02*
X146650D01*
X113350Y135153D02*
Y144386D01*
X146650Y119186D02*
Y125847D01*
X358000Y264500D02*
Y285500D01*
Y264500D02*
X369000D01*
Y285500D01*
X358000D02*
X369000D01*
X237000Y231000D02*
X258000D01*
X237000Y220000D02*
Y231000D01*
Y220000D02*
X258000D01*
Y231000D01*
X262000Y220000D02*
X283000D01*
Y231000D01*
X262000D02*
X283000D01*
X262000Y220000D02*
Y231000D01*
X342000Y159500D02*
Y180421D01*
X301000Y159500D02*
X342000D01*
X301000D02*
Y180421D01*
X342000D01*
D40*
X144587Y176575D02*
X145413D01*
X144587Y173425D02*
X145413D01*
X293250Y146500D02*
X294077D01*
X293250Y143350D02*
X294077D01*
X231075Y229087D02*
Y229913D01*
X227925Y229087D02*
Y229913D01*
X215575Y229087D02*
Y229913D01*
X212425Y229087D02*
Y229913D01*
X187205Y193610D02*
X187854D01*
X212146D02*
X212795D01*
X187205Y207390D02*
X192382D01*
X207618D02*
X212795D01*
X187205Y193610D02*
Y207390D01*
X212795Y193610D02*
Y207390D01*
X198425Y159087D02*
Y159913D01*
X201575Y159087D02*
Y159913D01*
X157782Y193244D02*
X158431D01*
X182723D02*
X183372D01*
X157782Y207023D02*
X162959D01*
X178195D02*
X183372D01*
X157782Y193244D02*
Y207023D01*
X183372Y193244D02*
Y207023D01*
X157787Y141783D02*
Y143358D01*
X207787D01*
Y141783D02*
Y143358D01*
X157787Y125642D02*
Y127216D01*
Y125642D02*
X207787D01*
Y127216D01*
D41*
X290000Y155500D02*
Y316500D01*
X352000D01*
Y155000D02*
Y316500D01*
X351000Y155000D02*
X352000D01*
X290000Y155500D02*
X351000Y155000D01*
X212169Y320999D02*
Y317001D01*
X214168D01*
X214835Y317667D01*
Y318334D01*
X214168Y319000D01*
X212169D01*
X214168D01*
X214835Y319666D01*
Y320333D01*
X214168Y320999D01*
X212169D01*
X216168Y319666D02*
Y317667D01*
X216834Y317001D01*
X218834D01*
Y319666D01*
X220166D02*
X222832D01*
X220166Y317001D01*
X222832D01*
X224165Y319666D02*
X226831D01*
X224165Y317001D01*
X226831D01*
X283500Y122000D02*
X285499D01*
X244000D02*
X245999D01*
X216000Y122000D02*
X217999D01*
X217000Y122999D02*
Y121000D01*
X269000Y145499D02*
X267001D01*
X268001D01*
Y140501D01*
X267001Y139501D01*
X266001D01*
X265002Y140501D01*
X271000Y144499D02*
X271999Y145499D01*
X273999D01*
X274998Y144499D01*
Y143500D01*
X273999Y142500D01*
X274998Y141500D01*
Y140501D01*
X273999Y139501D01*
X271999D01*
X271000Y140501D01*
Y141500D01*
X271999Y142500D01*
X271000Y143500D01*
Y144499D01*
X271999Y142500D02*
X273999D01*
X254500Y122500D02*
X256499D01*
X255500Y123499D02*
Y121500D01*
X162000Y124499D02*
Y122000D01*
X162500Y121500D01*
X163499D01*
X163999Y122000D01*
Y124499D01*
X166998Y123999D02*
X166499Y124499D01*
X165499D01*
X164999Y123999D01*
Y123499D01*
X165499Y123000D01*
X166499D01*
X166998Y122500D01*
Y122000D01*
X166499Y121500D01*
X165499D01*
X164999Y122000D01*
X167998Y124499D02*
Y121500D01*
X169498D01*
X169997Y122000D01*
Y122500D01*
X169498Y123000D01*
X167998D01*
X169498D01*
X169997Y123499D01*
Y123999D01*
X169498Y124499D01*
X167998D01*
X173996D02*
Y121500D01*
X179994Y124499D02*
X178995D01*
X178495Y123999D01*
Y122000D01*
X178995Y121500D01*
X179994D01*
X180494Y122000D01*
Y123999D01*
X179994Y124499D01*
X183493D02*
X181494D01*
Y123000D01*
X182493D01*
X181494D01*
Y121500D01*
X186492Y124499D02*
X184493D01*
Y123000D01*
X185492D01*
X184493D01*
Y121500D01*
X190491Y124499D02*
Y121500D01*
X199988Y123999D02*
X199488Y124499D01*
X198488D01*
X197988Y123999D01*
Y123499D01*
X198488Y123000D01*
X199488D01*
X199988Y122500D01*
Y122000D01*
X199488Y121500D01*
X198488D01*
X197988Y122000D01*
X202987Y123999D02*
X202487Y124499D01*
X201487D01*
X200987Y123999D01*
Y122000D01*
X201487Y121500D01*
X202487D01*
X202987Y122000D01*
X203986Y121500D02*
Y124499D01*
X205486D01*
X205986Y123999D01*
Y123000D01*
X205486Y122500D01*
X203986D01*
X204986D02*
X205986Y121500D01*
X208985Y124499D02*
X206985D01*
Y121500D01*
X208985D01*
X206985Y123000D02*
X207985D01*
X209984Y124499D02*
Y121500D01*
X210984Y122500D01*
X211984Y121500D01*
Y124499D01*
X257000Y149000D02*
Y151999D01*
X258999Y149000D01*
Y151999D01*
X260499Y149000D02*
X261498D01*
X261998Y149500D01*
Y150499D01*
X261498Y150999D01*
X260499D01*
X259999Y150499D01*
Y149500D01*
X260499Y149000D01*
X267996Y151499D02*
X267497Y151999D01*
X266497D01*
X265997Y151499D01*
Y150999D01*
X266497Y150499D01*
X267497D01*
X267996Y150000D01*
Y149500D01*
X267497Y149000D01*
X266497D01*
X265997Y149500D01*
X268996Y150999D02*
Y149500D01*
X269496Y149000D01*
X269996Y149500D01*
X270496Y149000D01*
X270995Y149500D01*
Y150999D01*
X271995Y149000D02*
X272995D01*
X272495D01*
Y150999D01*
X271995D01*
X274994Y151499D02*
Y150999D01*
X274494D01*
X275494D01*
X274994D01*
Y149500D01*
X275494Y149000D01*
X278993Y150999D02*
X277493D01*
X276993Y150499D01*
Y149500D01*
X277493Y149000D01*
X278993D01*
X279993Y151999D02*
Y149000D01*
Y150499D01*
X280492Y150999D01*
X281492D01*
X281992Y150499D01*
Y149000D01*
X376500Y225500D02*
Y228499D01*
X377999D01*
X378499Y227999D01*
Y226999D01*
X377999Y226500D01*
X376500D01*
X377500D02*
X378499Y225500D01*
X379499Y228499D02*
Y227999D01*
X380499Y226999D01*
X381498Y227999D01*
Y228499D01*
X380499Y226999D02*
Y225500D01*
X377000Y254000D02*
Y256999D01*
X378500D01*
X378999Y256499D01*
Y255500D01*
X378500Y255000D01*
X377000D01*
X378000D02*
X378999Y254000D01*
X379999Y256999D02*
X381998Y254000D01*
Y256999D02*
X379999Y254000D01*
X396499Y261499D02*
X396000Y261999D01*
X395000D01*
X394500Y261499D01*
Y259500D01*
X395000Y259000D01*
X396000D01*
X396499Y259500D01*
Y260500D01*
X395500D01*
X397499Y259000D02*
Y261999D01*
X399498Y259000D01*
Y261999D01*
X400498D02*
Y259000D01*
X401998D01*
X402497Y259500D01*
Y261499D01*
X401998Y261999D01*
X400498D01*
X397499Y291499D02*
X395500D01*
Y290000D01*
X396500Y290499D01*
X397000D01*
X397499Y290000D01*
Y289000D01*
X397000Y288500D01*
X396000D01*
X395500Y289000D01*
X398499Y291499D02*
Y289500D01*
X399499Y288500D01*
X400498Y289500D01*
Y291499D01*
X133001Y329500D02*
X136000D01*
Y331499D01*
X133001Y332499D02*
X136000Y334498D01*
X133001D02*
X136000Y332499D01*
X159499Y333999D02*
Y335998D01*
Y334998D01*
X154501D01*
X153501Y335998D01*
Y336998D01*
X154501Y337998D01*
X153501Y331999D02*
Y330000D01*
Y331000D01*
X159499D01*
X158499Y331999D01*
X153501Y323002D02*
Y327001D01*
X157500Y323002D01*
X158499D01*
X159499Y324002D01*
Y326002D01*
X158499Y327001D01*
X134001Y317500D02*
X137000D01*
Y319499D01*
X134001Y320499D02*
X134501D01*
X135501Y321499D01*
X134501Y322498D01*
X134001D01*
X135501Y321499D02*
X137000D01*
X102500Y310999D02*
Y308000D01*
X103999D01*
X104499Y308500D01*
Y309000D01*
X103999Y309500D01*
X102500D01*
X103999D01*
X104499Y309999D01*
Y310499D01*
X103999Y310999D01*
X102500D01*
X105499Y309999D02*
Y308500D01*
X105999Y308000D01*
X107498D01*
Y309999D01*
X108998Y310499D02*
Y309999D01*
X108498D01*
X109498D01*
X108998D01*
Y308500D01*
X109498Y308000D01*
X110997D02*
X111997D01*
X111497D01*
Y310999D01*
X110997Y310499D01*
X102000Y281999D02*
Y279000D01*
X103499D01*
X103999Y279500D01*
Y280000D01*
X103499Y280500D01*
X102000D01*
X103499D01*
X103999Y280999D01*
Y281499D01*
X103499Y281999D01*
X102000D01*
X104999Y280999D02*
Y279500D01*
X105499Y279000D01*
X106998D01*
Y280999D01*
X108498Y281499D02*
Y280999D01*
X107998D01*
X108998D01*
X108498D01*
Y279500D01*
X108998Y279000D01*
X112497D02*
X110497D01*
X112497Y280999D01*
Y281499D01*
X111997Y281999D01*
X110997D01*
X110497Y281499D01*
X162002Y297501D02*
Y303499D01*
X165001D01*
X166000Y302499D01*
Y300500D01*
X165001Y299500D01*
X162002D01*
X164001D02*
X166000Y297501D01*
X168000Y302499D02*
X168999Y303499D01*
X170999D01*
X171998Y302499D01*
Y301500D01*
X170999Y300500D01*
X169999D01*
X170999D01*
X171998Y299500D01*
Y298501D01*
X170999Y297501D01*
X168999D01*
X168000Y298501D01*
X162002Y282001D02*
Y287999D01*
X165001D01*
X166000Y286999D01*
Y285000D01*
X165001Y284000D01*
X162002D01*
X164001D02*
X166000Y282001D01*
X171998D02*
X168000D01*
X171998Y286000D01*
Y286999D01*
X170999Y287999D01*
X168999D01*
X168000Y286999D01*
X133000Y239500D02*
X130001D01*
Y241000D01*
X130501Y241499D01*
X131500D01*
X132000Y241000D01*
Y239500D01*
Y240500D02*
X133000Y241499D01*
Y243999D02*
Y242999D01*
X132500Y242499D01*
X131500D01*
X131001Y242999D01*
Y243999D01*
X131500Y244498D01*
X132000D01*
Y242499D01*
X133000Y245498D02*
Y246998D01*
X132500Y247497D01*
X132000Y246998D01*
Y245998D01*
X131500Y245498D01*
X131001Y245998D01*
Y247497D01*
X133000Y249997D02*
Y248997D01*
X132500Y248497D01*
X131500D01*
X131001Y248997D01*
Y249997D01*
X131500Y250496D01*
X132000D01*
Y248497D01*
X130501Y251996D02*
X131001D01*
Y251496D01*
Y252496D01*
Y251996D01*
X132500D01*
X133000Y252496D01*
X103999Y178999D02*
X102000D01*
Y177499D01*
X103000Y177999D01*
X103499D01*
X103999Y177499D01*
Y176500D01*
X103499Y176000D01*
X102500D01*
X102000Y176500D01*
X104999Y178999D02*
Y177000D01*
X105999Y176000D01*
X106998Y177000D01*
Y178999D01*
X103999Y207999D02*
X103499Y208499D01*
X102500D01*
X102000Y207999D01*
Y206000D01*
X102500Y205500D01*
X103499D01*
X103999Y206000D01*
Y206999D01*
X103000D01*
X104999Y205500D02*
Y208499D01*
X106998Y205500D01*
Y208499D01*
X107998D02*
Y205500D01*
X109498D01*
X109997Y206000D01*
Y207999D01*
X109498Y208499D01*
X107998D01*
X253999Y183001D02*
X254499Y183501D01*
Y184500D01*
X253999Y185000D01*
X253499D01*
X252999Y184500D01*
Y183501D01*
X252500Y183001D01*
X252000D01*
X251500Y183501D01*
Y184500D01*
X252000Y185000D01*
X254499Y182001D02*
X251500D01*
Y180501D01*
X252000Y180002D01*
X253999D01*
X254499Y180501D01*
Y182001D01*
X251500Y179002D02*
X253499D01*
X254499Y178002D01*
X253499Y177003D01*
X251500D01*
X252999D01*
Y179002D01*
X247999Y183001D02*
X248499Y183501D01*
Y184500D01*
X247999Y185000D01*
X247499D01*
X247000Y184500D01*
Y183501D01*
X246500Y183001D01*
X246000D01*
X245500Y183501D01*
Y184500D01*
X246000Y185000D01*
X247999Y180002D02*
X248499Y180501D01*
Y181501D01*
X247999Y182001D01*
X246000D01*
X245500Y181501D01*
Y180501D01*
X246000Y180002D01*
X248499Y179002D02*
X245500D01*
Y177003D01*
X265499Y210001D02*
X265999Y210501D01*
Y211500D01*
X265499Y212000D01*
X264999D01*
X264499Y211500D01*
Y210501D01*
X264000Y210001D01*
X263500D01*
X263000Y210501D01*
Y211500D01*
X263500Y212000D01*
X265499Y207002D02*
X265999Y207502D01*
Y208501D01*
X265499Y209001D01*
X263500D01*
X263000Y208501D01*
Y207502D01*
X263500Y207002D01*
X265999Y206002D02*
X263000D01*
Y204003D01*
X271499Y210001D02*
X271999Y210501D01*
Y211500D01*
X271499Y212000D01*
X270999D01*
X270499Y211500D01*
Y210501D01*
X270000Y210001D01*
X269500D01*
X269000Y210501D01*
Y211500D01*
X269500Y212000D01*
X271999Y209001D02*
X269000D01*
Y207502D01*
X269500Y207002D01*
X271499D01*
X271999Y207502D01*
Y209001D01*
X269000Y206002D02*
X270999D01*
X271999Y205002D01*
X270999Y204003D01*
X269000D01*
X270499D01*
Y206002D01*
X277499Y210001D02*
Y212000D01*
X275999D01*
X276499Y211000D01*
Y210501D01*
X275999Y210001D01*
X275000D01*
X274500Y210501D01*
Y211500D01*
X275000Y212000D01*
X277499Y209001D02*
X275500D01*
X274500Y208001D01*
X275500Y207002D01*
X277499D01*
X283499Y210001D02*
X283999Y210501D01*
Y211500D01*
X283499Y212000D01*
X281500D01*
X281000Y211500D01*
Y210501D01*
X281500Y210001D01*
X282500D01*
Y211000D01*
X281000Y209001D02*
X283999D01*
X281000Y207002D01*
X283999D01*
Y206002D02*
X281000D01*
Y204502D01*
X281500Y204003D01*
X283499D01*
X283999Y204502D01*
Y206002D01*
X363501Y324334D02*
Y321668D01*
X365500D01*
X364834Y323001D01*
Y323667D01*
X365500Y324334D01*
X366833D01*
X367499Y323667D01*
Y322334D01*
X366833Y321668D01*
X363501Y325666D02*
X366166D01*
X367499Y326999D01*
X366166Y328332D01*
X363501D01*
X393334Y304333D02*
X392668Y304999D01*
X391335D01*
X390668Y304333D01*
Y301667D01*
X391335Y301001D01*
X392668D01*
X393334Y301667D01*
Y303000D01*
X392001D01*
X394667Y301001D02*
Y304999D01*
X397333Y301001D01*
Y304999D01*
X398666D02*
Y301001D01*
X400665D01*
X401332Y301667D01*
Y304333D01*
X400665Y304999D01*
X398666D01*
X380001Y273500D02*
Y271501D01*
Y272501D01*
X384999D01*
X385999Y271501D01*
Y270501D01*
X384999Y269502D01*
X380001Y279498D02*
Y275500D01*
X383000D01*
X382000Y277499D01*
Y278499D01*
X383000Y279498D01*
X384999D01*
X385999Y278499D01*
Y276499D01*
X384999Y275500D01*
X146001Y269999D02*
Y265001D01*
X147001Y264001D01*
X149000D01*
X150000Y265001D01*
Y269999D01*
X151999Y264001D02*
X153999D01*
X152999D01*
Y269999D01*
X151999Y268999D01*
X300252Y133501D02*
Y139499D01*
X303252D01*
X304251Y138499D01*
Y136500D01*
X303252Y135500D01*
X300252D01*
X302252D02*
X304251Y133501D01*
X306251D02*
X308250D01*
X307250D01*
Y139499D01*
X306251Y138499D01*
X311249D02*
X312248Y139499D01*
X314248D01*
X315248Y138499D01*
Y137500D01*
X314248Y136500D01*
X313248D01*
X314248D01*
X315248Y135500D01*
Y134501D01*
X314248Y133501D01*
X312248D01*
X311249Y134501D01*
X301169Y128999D02*
Y125001D01*
X303168D01*
X303835Y125667D01*
Y126333D01*
X303168Y127000D01*
X301169D01*
X303168D01*
X303835Y127666D01*
Y128333D01*
X303168Y128999D01*
X301169D01*
X305834Y127666D02*
X307167D01*
X307833Y127000D01*
Y125001D01*
X305834D01*
X305167Y125667D01*
X305834Y126333D01*
X307833D01*
X309833Y128333D02*
Y127666D01*
X309166D01*
X310499D01*
X309833D01*
Y125667D01*
X310499Y125001D01*
X313165Y128333D02*
Y127666D01*
X312498D01*
X313831D01*
X313165D01*
Y125667D01*
X313831Y125001D01*
X321334Y124833D02*
X320667Y125499D01*
X319334D01*
X318668Y124833D01*
Y122167D01*
X319334Y121501D01*
X320667D01*
X321334Y122167D01*
X325332Y125499D02*
X322667D01*
Y121501D01*
X325332D01*
X322667Y123500D02*
X323999D01*
X333624Y142883D02*
X332958Y143549D01*
X331625D01*
X330958Y142883D01*
Y140217D01*
X331625Y139551D01*
X332958D01*
X333624Y140217D01*
X337623Y142883D02*
X336956Y143549D01*
X335624D01*
X334957Y142883D01*
Y142217D01*
X335624Y141550D01*
X336956D01*
X337623Y140884D01*
Y140217D01*
X336956Y139551D01*
X335624D01*
X334957Y140217D01*
X338956Y139551D02*
Y143549D01*
X341622Y139551D01*
Y143549D01*
X347914Y125333D02*
X347248Y125999D01*
X345915D01*
X345248Y125333D01*
Y124667D01*
X345915Y124000D01*
X347248D01*
X347914Y123334D01*
Y122667D01*
X347248Y122001D01*
X345915D01*
X345248Y122667D01*
X351913Y125333D02*
X351247Y125999D01*
X349914D01*
X349247Y125333D01*
Y122667D01*
X349914Y122001D01*
X351247D01*
X351913Y122667D01*
X353246Y125999D02*
Y122001D01*
Y123334D01*
X355912Y125999D01*
X353912Y124000D01*
X355912Y122001D01*
X388502Y143499D02*
X389834D01*
X389168D01*
Y139501D01*
X388502D01*
X389834D01*
X391834D02*
Y143499D01*
X393833D01*
X394500Y142833D01*
Y141500D01*
X393833Y140833D01*
X391834D01*
X393167D02*
X394500Y139501D01*
X398498Y140167D02*
Y142833D01*
X397832Y143499D01*
X396499D01*
X395833Y142833D01*
Y140167D01*
X396499Y139501D01*
X397832D01*
X397165Y140833D02*
X398498Y139501D01*
X397832D02*
X398498Y140167D01*
X372002Y122001D02*
Y125999D01*
X373335Y124667D01*
X374668Y125999D01*
Y122001D01*
X376001Y125999D02*
X377334D01*
X376667D01*
Y122001D01*
X376001D01*
X377334D01*
X381999Y125333D02*
X381333Y125999D01*
X380000D01*
X379333Y125333D01*
Y124667D01*
X380000Y124000D01*
X381333D01*
X381999Y123334D01*
Y122667D01*
X381333Y122001D01*
X380000D01*
X379333Y122667D01*
X385331Y125999D02*
X383998D01*
X383332Y125333D01*
Y122667D01*
X383998Y122001D01*
X385331D01*
X385998Y122667D01*
Y125333D01*
X385331Y125999D01*
X358155Y139001D02*
Y142999D01*
X359488Y141666D01*
X360821Y142999D01*
Y139001D01*
X364154Y142999D02*
X362821D01*
X362154Y142333D01*
Y139667D01*
X362821Y139001D01*
X364154D01*
X364820Y139667D01*
Y142333D01*
X364154Y142999D01*
X368819Y142333D02*
X368152Y142999D01*
X366819D01*
X366153Y142333D01*
Y141666D01*
X366819Y141000D01*
X368152D01*
X368819Y140333D01*
Y139667D01*
X368152Y139001D01*
X366819D01*
X366153Y139667D01*
X370152Y142999D02*
X371484D01*
X370818D01*
Y139001D01*
X370152D01*
X371484D01*
X370834Y193333D02*
X370168Y193999D01*
X368835D01*
X368168Y193333D01*
Y192666D01*
X368835Y192000D01*
X370168D01*
X370834Y191333D01*
Y190667D01*
X370168Y190001D01*
X368835D01*
X368168Y190667D01*
X374833Y193333D02*
X374166Y193999D01*
X372834D01*
X372167Y193333D01*
Y190667D01*
X372834Y190001D01*
X374166D01*
X374833Y190667D01*
X376166Y193999D02*
Y190001D01*
X378832D01*
X371834Y209833D02*
X371168Y210499D01*
X369835D01*
X369168Y209833D01*
Y209166D01*
X369835Y208500D01*
X371168D01*
X371834Y207834D01*
Y207167D01*
X371168Y206501D01*
X369835D01*
X369168Y207167D01*
X373167Y210499D02*
Y206501D01*
X375166D01*
X375833Y207167D01*
Y209833D01*
X375166Y210499D01*
X373167D01*
X377166Y206501D02*
Y209166D01*
X378499Y210499D01*
X379832Y209166D01*
Y206501D01*
Y208500D01*
X377166D01*
X370784Y172333D02*
X370118Y172999D01*
X368785D01*
X368118Y172333D01*
Y169667D01*
X368785Y169001D01*
X370118D01*
X370784Y169667D01*
Y171000D01*
X369451D01*
X372117Y169001D02*
Y172999D01*
X374783Y169001D01*
Y172999D01*
X376116D02*
Y169001D01*
X378115D01*
X378782Y169667D01*
Y172333D01*
X378115Y172999D01*
X376116D01*
X371334Y156833D02*
X370668Y157499D01*
X369335D01*
X368668Y156833D01*
Y154167D01*
X369335Y153501D01*
X370668D01*
X371334Y154167D01*
Y155500D01*
X370001D01*
X372667Y153501D02*
Y157499D01*
X375333Y153501D01*
Y157499D01*
X376666D02*
Y153501D01*
X378665D01*
X379332Y154167D01*
Y156833D01*
X378665Y157499D01*
X376666D01*
X261168Y166383D02*
X261835Y167049D01*
X263168D01*
X263834Y166383D01*
Y165717D01*
X263168Y165050D01*
X262501D01*
X263168D01*
X263834Y164383D01*
Y163717D01*
X263168Y163051D01*
X261835D01*
X261168Y163717D01*
X265167Y167049D02*
Y164383D01*
X266500Y163051D01*
X267833Y164383D01*
Y167049D01*
X269166Y166383D02*
X269832Y167049D01*
X271165D01*
X271832Y166383D01*
Y165717D01*
X271165Y165050D01*
X270499D01*
X271165D01*
X271832Y164383D01*
Y163717D01*
X271165Y163051D01*
X269832D01*
X269166Y163717D01*
X157501Y237999D02*
X155502D01*
X156501D01*
Y233001D01*
X155502Y232001D01*
X154502D01*
X153502Y233001D01*
X159501Y232001D02*
X161500D01*
X160500D01*
Y237999D01*
X159501Y236999D01*
X164499D02*
X165499Y237999D01*
X167498D01*
X168498Y236999D01*
Y236000D01*
X167498Y235000D01*
X166498D01*
X167498D01*
X168498Y234000D01*
Y233001D01*
X167498Y232001D01*
X165499D01*
X164499Y233001D01*
X129500Y212999D02*
X128501Y213999D01*
X126501D01*
X125502Y212999D01*
Y209001D01*
X126501Y208001D01*
X128501D01*
X129500Y209001D01*
X131500D02*
X132499Y208001D01*
X134499D01*
X135498Y209001D01*
Y212999D01*
X134499Y213999D01*
X132499D01*
X131500Y212999D01*
Y212000D01*
X132499Y211000D01*
X135498D01*
X301165Y148924D02*
Y142926D01*
X304164D01*
X305164Y143926D01*
Y147924D01*
X304164Y148924D01*
X301165D01*
X311162D02*
X307163D01*
Y145925D01*
X309162Y146925D01*
X310162D01*
X311162Y145925D01*
Y143926D01*
X310162Y142926D01*
X308163D01*
X307163Y143926D01*
X223999Y230001D02*
X218001D01*
Y233000D01*
X219001Y234000D01*
X221000D01*
X222000Y233000D01*
Y230001D01*
Y232001D02*
X223999Y234000D01*
Y235999D02*
Y237999D01*
Y236999D01*
X218001D01*
X219001Y235999D01*
X232999Y222999D02*
X227001D01*
Y220000D01*
X228001Y219000D01*
X231999D01*
X232999Y220000D01*
Y222999D01*
X227001Y217001D02*
Y215001D01*
Y216001D01*
X232999D01*
X231999Y217001D01*
X215999Y223498D02*
X210001D01*
Y220499D01*
X211001Y219500D01*
X214999D01*
X215999Y220499D01*
Y223498D01*
X210001Y213502D02*
Y217500D01*
X214000Y213502D01*
X214999D01*
X215999Y214501D01*
Y216501D01*
X214999Y217500D01*
X185999Y168499D02*
X186999Y169499D01*
Y171498D01*
X185999Y172498D01*
X182001D01*
X181001Y171498D01*
Y169499D01*
X182001Y168499D01*
X181001Y166500D02*
Y164500D01*
Y165500D01*
X186999D01*
X185999Y166500D01*
X181001Y161501D02*
Y159502D01*
Y160502D01*
X186999D01*
X185999Y161501D01*
X150502Y164501D02*
Y170499D01*
X153501D01*
X154501Y169499D01*
Y167500D01*
X153501Y166500D01*
X150502D01*
X152501D02*
X154501Y164501D01*
X156500D02*
X158500D01*
X157500D01*
Y170499D01*
X156500Y169499D01*
X161499Y164501D02*
X163498D01*
X162498D01*
Y170499D01*
X161499Y169499D01*
X194502Y203499D02*
Y198501D01*
X195501Y197501D01*
X197501D01*
X198500Y198501D01*
Y203499D01*
X204498Y197501D02*
X200500D01*
X204498Y201500D01*
Y202499D01*
X203499Y203499D01*
X201499D01*
X200500Y202499D01*
X217999Y194000D02*
X218999Y194999D01*
Y196999D01*
X217999Y197998D01*
X214001D01*
X213001Y196999D01*
Y194999D01*
X214001Y194000D01*
X217999Y192000D02*
X218999Y191001D01*
Y189001D01*
X217999Y188002D01*
X217000D01*
X216000Y189001D01*
X215000Y188002D01*
X214001D01*
X213001Y189001D01*
Y191001D01*
X214001Y192000D01*
X215000D01*
X216000Y191001D01*
X217000Y192000D01*
X217999D01*
X216000Y191001D02*
Y189001D01*
X229501Y181999D02*
X228502Y182999D01*
X226502D01*
X225502Y181999D01*
Y178001D01*
X226502Y177001D01*
X228502D01*
X229501Y178001D01*
X231501Y177001D02*
X233500D01*
X232500D01*
Y182999D01*
X231501Y181999D01*
X236499D02*
X237498Y182999D01*
X239498D01*
X240498Y181999D01*
Y178001D01*
X239498Y177001D01*
X237498D01*
X236499Y178001D01*
Y181999D01*
X165578Y203762D02*
Y198764D01*
X166578Y197764D01*
X168578D01*
X169577Y198764D01*
Y203762D01*
X171577Y202763D02*
X172576Y203762D01*
X174576D01*
X175575Y202763D01*
Y201763D01*
X174576Y200763D01*
X173576D01*
X174576D01*
X175575Y199764D01*
Y198764D01*
X174576Y197764D01*
X172576D01*
X171577Y198764D01*
X178002Y148001D02*
Y153999D01*
X181001D01*
X182001Y152999D01*
Y151000D01*
X181001Y150000D01*
X178002D01*
X180002D02*
X182001Y148001D01*
X184001D02*
X186000D01*
X185000D01*
Y153999D01*
X184001Y152999D01*
X188999D02*
X189999Y153999D01*
X191998D01*
X192998Y152999D01*
Y149001D01*
X191998Y148001D01*
X189999D01*
X188999Y149001D01*
Y152999D01*
X220002Y154001D02*
Y159999D01*
X223001D01*
X224000Y158999D01*
Y157000D01*
X223001Y156000D01*
X220002D01*
X222001D02*
X224000Y154001D01*
X228999D02*
Y159999D01*
X226000Y157000D01*
X229998D01*
X126002Y215501D02*
Y221499D01*
X129001D01*
X130000Y220499D01*
Y218500D01*
X129001Y217500D01*
X126002D01*
X128001D02*
X130000Y215501D01*
X132000Y216501D02*
X132999Y215501D01*
X134999D01*
X135998Y216501D01*
Y220499D01*
X134999Y221499D01*
X132999D01*
X132000Y220499D01*
Y219500D01*
X132999Y218500D01*
X135998D01*
X169541Y144499D02*
X168541Y145499D01*
X166542D01*
X165542Y144499D01*
Y143500D01*
X166542Y142500D01*
X168541D01*
X169541Y141500D01*
Y140501D01*
X168541Y139501D01*
X166542D01*
X165542Y140501D01*
X171540Y145499D02*
Y139501D01*
X173539Y141500D01*
X175539Y139501D01*
Y145499D01*
X181537Y139501D02*
X177538D01*
X181537Y143500D01*
Y144499D01*
X180537Y145499D01*
X178538D01*
X177538Y144499D01*
X135001Y283000D02*
X134001Y282001D01*
Y280001D01*
X135001Y279002D01*
X138999D01*
X139999Y280001D01*
Y282001D01*
X138999Y283000D01*
X134001Y288998D02*
Y285000D01*
X137000D01*
X136000Y286999D01*
Y287999D01*
X137000Y288998D01*
X138999D01*
X139999Y287999D01*
Y285999D01*
X138999Y285000D01*
X130001Y259500D02*
X129001Y258501D01*
Y256501D01*
X130001Y255502D01*
X133999D01*
X134999Y256501D01*
Y258501D01*
X133999Y259500D01*
X129001Y261500D02*
Y265498D01*
X130001D01*
X133999Y261500D01*
X134999D01*
X102002Y269501D02*
Y275499D01*
X105001D01*
X106000Y274499D01*
Y272500D01*
X105001Y271500D01*
X102002D01*
X104001D02*
X106000Y269501D01*
X108000Y275499D02*
X111998D01*
Y274499D01*
X108000Y270501D01*
Y269501D01*
X104001Y291501D02*
Y289502D01*
Y290501D01*
X108999D01*
X109999Y289502D01*
Y288502D01*
X108999Y287502D01*
X109999Y293500D02*
Y295500D01*
Y294500D01*
X104001D01*
X105001Y293500D01*
X104001Y298499D02*
Y302498D01*
X105001D01*
X108999Y298499D01*
X109999D01*
X112001Y246501D02*
X111001Y245501D01*
Y243502D01*
X112001Y242502D01*
X113000D01*
X114000Y243502D01*
Y245501D01*
X115000Y246501D01*
X115999D01*
X116999Y245501D01*
Y243502D01*
X115999Y242502D01*
X111001Y248500D02*
X116999D01*
X115000Y250500D01*
X116999Y252499D01*
X111001D01*
X116999Y254498D02*
Y256498D01*
Y255498D01*
X111001D01*
X112001Y254498D01*
X249502Y329499D02*
Y323501D01*
X253501D01*
X259499Y328499D02*
X258499Y329499D01*
X256500D01*
X255500Y328499D01*
Y327500D01*
X256500Y326500D01*
X258499D01*
X259499Y325500D01*
Y324501D01*
X258499Y323501D01*
X256500D01*
X255500Y324501D01*
X261498Y323501D02*
X263498D01*
X262498D01*
Y329499D01*
X261498Y328499D01*
X162252Y289501D02*
Y295499D01*
X165251D01*
X166250Y294499D01*
Y292500D01*
X165251Y291500D01*
X162252D01*
X164251D02*
X166250Y289501D01*
X172248Y295499D02*
X170249Y294499D01*
X168250Y292500D01*
Y290501D01*
X169249Y289501D01*
X171249D01*
X172248Y290501D01*
Y291500D01*
X171249Y292500D01*
X168250D01*
X161952Y306501D02*
Y312499D01*
X164951D01*
X165950Y311499D01*
Y309500D01*
X164951Y308500D01*
X161952D01*
X163951D02*
X165950Y306501D01*
X171948Y312499D02*
X167950D01*
Y309500D01*
X169949Y310500D01*
X170949D01*
X171948Y309500D01*
Y307501D01*
X170949Y306501D01*
X168949D01*
X167950Y307501D01*
X162002Y315001D02*
Y320999D01*
X165001D01*
X166000Y319999D01*
Y318000D01*
X165001Y317000D01*
X162002D01*
X164001D02*
X166000Y315001D01*
X168000Y319999D02*
X168999Y320999D01*
X170999D01*
X171998Y319999D01*
Y319000D01*
X170999Y318000D01*
X171998Y317000D01*
Y316001D01*
X170999Y315001D01*
X168999D01*
X168000Y316001D01*
Y317000D01*
X168999Y318000D01*
X168000Y319000D01*
Y319999D01*
X168999Y318000D02*
X170999D01*
X230000Y144999D02*
X228001D01*
X229001D01*
Y140001D01*
X228001Y139001D01*
X227001D01*
X226002Y140001D01*
X232000Y144999D02*
X235998D01*
Y143999D01*
X232000Y140001D01*
Y139001D01*
X232000Y298949D02*
X231001Y299949D01*
X229001D01*
X228002Y298949D01*
Y294951D01*
X229001Y293951D01*
X231001D01*
X232000Y294951D01*
X237998Y293951D02*
X234000D01*
X237998Y297950D01*
Y298949D01*
X236999Y299949D01*
X234999D01*
X234000Y298949D01*
X231500Y288949D02*
X230501Y289949D01*
X228501D01*
X227502Y288949D01*
Y284951D01*
X228501Y283951D01*
X230501D01*
X231500Y284951D01*
X233500Y288949D02*
X234499Y289949D01*
X236499D01*
X237498Y288949D01*
Y287950D01*
X236499Y286950D01*
X235499D01*
X236499D01*
X237498Y285950D01*
Y284951D01*
X236499Y283951D01*
X234499D01*
X233500Y284951D01*
X140501Y311999D02*
X138502D01*
X139502D01*
Y307001D01*
X138502Y306001D01*
X137502D01*
X136502Y307001D01*
X142500Y306001D02*
X144500D01*
X143500D01*
Y311999D01*
X142500Y310999D01*
X147499D02*
X148499Y311999D01*
X150498D01*
X151498Y310999D01*
Y310000D01*
X150498Y309000D01*
X151498Y308000D01*
Y307001D01*
X150498Y306001D01*
X148499D01*
X147499Y307001D01*
Y308000D01*
X148499Y309000D01*
X147499Y310000D01*
Y310999D01*
X148499Y309000D02*
X150498D01*
X131501Y190001D02*
Y188002D01*
Y189001D01*
X136499D01*
X137499Y188002D01*
Y187002D01*
X136499Y186002D01*
X137499Y192000D02*
Y194000D01*
Y193000D01*
X131501D01*
X132501Y192000D01*
Y196999D02*
X131501Y197998D01*
Y199998D01*
X132501Y200998D01*
X136499D01*
X137499Y199998D01*
Y197998D01*
X136499Y196999D01*
X132501D01*
X190500Y235999D02*
X189501Y236999D01*
X187501D01*
X186502Y235999D01*
Y232001D01*
X187501Y231001D01*
X189501D01*
X190500Y232001D01*
X195499Y231001D02*
Y236999D01*
X192500Y234000D01*
X196498D01*
X190550Y227999D02*
X189551Y228999D01*
X187551D01*
X186552Y227999D01*
Y224001D01*
X187551Y223001D01*
X189551D01*
X190550Y224001D01*
X196548Y228999D02*
X194549Y227999D01*
X192550Y226000D01*
Y224001D01*
X193549Y223001D01*
X195549D01*
X196548Y224001D01*
Y225000D01*
X195549Y226000D01*
X192550D01*
X246500Y193999D02*
X244501D01*
X245501D01*
Y189001D01*
X244501Y188001D01*
X243501D01*
X242502Y189001D01*
X248500Y192999D02*
X249499Y193999D01*
X251499D01*
X252498Y192999D01*
Y192000D01*
X251499Y191000D01*
X250499D01*
X251499D01*
X252498Y190000D01*
Y189001D01*
X251499Y188001D01*
X249499D01*
X248500Y189001D01*
X360501Y258999D02*
X358502D01*
X359502D01*
Y254001D01*
X358502Y253001D01*
X357502D01*
X356502Y254001D01*
X362501Y253001D02*
X364500D01*
X363500D01*
Y258999D01*
X362501Y257999D01*
X371498Y258999D02*
X369498Y257999D01*
X367499Y256000D01*
Y254001D01*
X368498Y253001D01*
X370498D01*
X371498Y254001D01*
Y255000D01*
X370498Y256000D01*
X367499D01*
X125999Y193500D02*
Y195499D01*
Y194499D01*
X121001D01*
X120001Y195499D01*
Y196499D01*
X121001Y197498D01*
Y191500D02*
X120001Y190501D01*
Y188501D01*
X121001Y187502D01*
X124999D01*
X125999Y188501D01*
Y190501D01*
X124999Y191500D01*
X124000D01*
X123000Y190501D01*
Y187502D01*
X376001Y237501D02*
Y235502D01*
Y236502D01*
X380999D01*
X381999Y235502D01*
Y234502D01*
X380999Y233502D01*
X381999Y239500D02*
Y241500D01*
Y240500D01*
X376001D01*
X377001Y239500D01*
X376001Y248498D02*
Y244499D01*
X379000D01*
X378000Y246498D01*
Y247498D01*
X379000Y248498D01*
X380999D01*
X381999Y247498D01*
Y245498D01*
X380999Y244499D01*
X103001Y325001D02*
Y323002D01*
Y324001D01*
X107999D01*
X108999Y323002D01*
Y322002D01*
X107999Y321002D01*
X108999Y327000D02*
Y328999D01*
Y328000D01*
X103001D01*
X104001Y327000D01*
X108999Y331998D02*
Y333998D01*
Y332998D01*
X103001D01*
X104001Y331998D01*
X126500Y228499D02*
X125500Y229499D01*
X123501D01*
X122501Y228499D01*
Y224501D01*
X123501Y223501D01*
X125500D01*
X126500Y224501D01*
X128499Y223501D02*
X130499D01*
X129499D01*
Y229499D01*
X128499Y228499D01*
X103501Y129501D02*
Y127502D01*
Y128501D01*
X108499D01*
X109499Y127502D01*
Y126502D01*
X108499Y125502D01*
X109499Y131500D02*
Y133500D01*
Y132500D01*
X103501D01*
X104501Y131500D01*
X109499Y139498D02*
X103501D01*
X106500Y136499D01*
Y140498D01*
X362500Y293499D02*
X360501D01*
X361501D01*
Y288501D01*
X360501Y287501D01*
X359501D01*
X358502Y288501D01*
X368498Y293499D02*
X366499Y292499D01*
X364500Y290500D01*
Y288501D01*
X365499Y287501D01*
X367499D01*
X368498Y288501D01*
Y289500D01*
X367499Y290500D01*
X364500D01*
X242500Y235999D02*
X240501D01*
X241501D01*
Y231001D01*
X240501Y230001D01*
X239501D01*
X238502Y231001D01*
X247499Y230001D02*
Y235999D01*
X244500Y233000D01*
X248498D01*
X273000Y237999D02*
X271001D01*
X272000D01*
Y233001D01*
X271001Y232001D01*
X270001D01*
X269001Y233001D01*
X274999Y232001D02*
X276999D01*
X275999D01*
Y237999D01*
X274999Y236999D01*
X305199Y190198D02*
X303199D01*
X304199D01*
Y185200D01*
X303199Y184200D01*
X302200D01*
X301200Y185200D01*
X311197Y184200D02*
X307198D01*
X311197Y188199D01*
Y189198D01*
X310197Y190198D01*
X308198D01*
X307198Y189198D01*
D42*
X159499Y310502D02*
X155501D01*
Y312501D01*
X156167Y313167D01*
X157500D01*
X158167Y312501D01*
Y310502D01*
Y311835D02*
X159499Y313167D01*
Y314500D02*
Y315833D01*
Y315167D01*
X155501D01*
X156167Y314500D01*
X159499Y319832D02*
X155501D01*
X157500Y317833D01*
Y320498D01*
X205999Y151832D02*
X202001D01*
Y149833D01*
X202667Y149167D01*
X205333D01*
X205999Y149833D01*
Y151832D01*
X202001Y145834D02*
X205999D01*
X204000Y147834D01*
Y145168D01*
D43*
X284765Y276750D02*
X281433Y273418D01*
Y276750D02*
X284765Y273418D01*
X283099Y276750D02*
Y273418D01*
X281433Y275084D02*
X284765D01*
X97668Y234750D02*
X101000Y238082D01*
Y234750D02*
X97668Y238082D01*
X99334Y234750D02*
Y238082D01*
X101000Y236416D02*
X97668D01*
D44*
X129668Y180499D02*
Y176501D01*
X131667D01*
X132334Y177167D01*
Y179833D01*
X131667Y180499D01*
X129668D01*
X133667Y179833D02*
X134333Y180499D01*
X135666D01*
X136332Y179833D01*
Y179166D01*
X135666Y178500D01*
X134999D01*
X135666D01*
X136332Y177833D01*
Y177167D01*
X135666Y176501D01*
X134333D01*
X133667Y177167D01*
X145170Y156001D02*
Y159999D01*
X147169D01*
X147836Y159333D01*
Y158000D01*
X147169Y157334D01*
X145170D01*
X149168Y156001D02*
Y159999D01*
X150501Y158667D01*
X151834Y159999D01*
Y156001D01*
X155166Y159999D02*
X153833D01*
X153167Y159333D01*
Y156667D01*
X153833Y156001D01*
X155166D01*
X155833Y156667D01*
Y159333D01*
X155166Y159999D01*
X159832Y159333D02*
X159165Y159999D01*
X157832D01*
X157166Y159333D01*
Y158667D01*
X157832Y158000D01*
X159165D01*
X159832Y157334D01*
Y156667D01*
X159165Y156001D01*
X157832D01*
X157166Y156667D01*
X163830Y156001D02*
X161164D01*
X163830Y158667D01*
Y159333D01*
X163164Y159999D01*
X161831D01*
X161164Y159333D01*
X195499Y165002D02*
X191501D01*
Y167001D01*
X192167Y167667D01*
X193500D01*
X194167Y167001D01*
Y165002D01*
Y166334D02*
X195499Y167667D01*
Y169000D02*
Y170333D01*
Y169667D01*
X191501D01*
X192167Y169000D01*
X195499Y174998D02*
Y172333D01*
X192833Y174998D01*
X192167D01*
X191501Y174332D01*
Y172999D01*
X192167Y172333D01*
X221336Y168001D02*
Y171999D01*
X223336D01*
X224002Y171333D01*
Y170000D01*
X223336Y169334D01*
X221336D01*
X225335Y168001D02*
Y171999D01*
X226668Y170667D01*
X228001Y171999D01*
Y168001D01*
X231333Y171999D02*
X230000D01*
X229334Y171333D01*
Y168667D01*
X230000Y168001D01*
X231333D01*
X231999Y168667D01*
Y171333D01*
X231333Y171999D01*
X235998Y171333D02*
X235332Y171999D01*
X233999D01*
X233332Y171333D01*
Y170667D01*
X233999Y170000D01*
X235332D01*
X235998Y169334D01*
Y168667D01*
X235332Y168001D01*
X233999D01*
X233332Y168667D01*
X237331Y168001D02*
X238664D01*
X237997D01*
Y171999D01*
X237331Y171333D01*
%TF.MD5,a6060d23e764fe0f5cc2a8ef118f17ce*%
M02*
