%TF.GenerationSoftware,Altium Limited,Altium Designer,24.10.1 (45)*%
G04 Layer_Color=16711935*
%FSLAX25Y25*%
%MOIN*%
%TF.SameCoordinates,9950C81B-CD0A-4F44-AB06-5448DEDD42A1*%
%TF.FilePolarity,Positive*%
%TF.FileFunction,Keep-out,Top*%
%TF.Part,Single*%
G01*
G75*
G36*
X228150Y327700D02*
X222850D01*
Y331200D01*
X228150D01*
Y327700D01*
D02*
G37*
G36*
X180250Y315350D02*
X176750D01*
Y320650D01*
X180250D01*
Y315350D01*
D02*
G37*
G36*
X368150Y313250D02*
X362850D01*
Y316750D01*
X368150D01*
Y313250D01*
D02*
G37*
G36*
X179700Y306850D02*
X176200D01*
Y312150D01*
X179700D01*
Y306850D01*
D02*
G37*
G36*
X159650Y302750D02*
X154350D01*
Y306250D01*
X159650D01*
Y302750D01*
D02*
G37*
G36*
X386250Y300850D02*
X382750D01*
Y306150D01*
X386250D01*
Y300850D01*
D02*
G37*
G36*
X179750Y297850D02*
X176250D01*
Y303150D01*
X179750D01*
Y297850D01*
D02*
G37*
G36*
X223750Y293800D02*
X220250D01*
Y299100D01*
X223750D01*
Y293800D01*
D02*
G37*
G36*
X180250Y289850D02*
X176750D01*
Y295150D01*
X180250D01*
Y289850D01*
D02*
G37*
G36*
X160150Y286250D02*
X154850D01*
Y289750D01*
X160150D01*
Y286250D01*
D02*
G37*
G36*
X223250Y284300D02*
X219750D01*
Y289600D01*
X223250D01*
Y284300D01*
D02*
G37*
G36*
X139150Y270750D02*
X133850D01*
Y274250D01*
X139150D01*
Y270750D01*
D02*
G37*
G36*
X130650D02*
X125350D01*
Y274250D01*
X130650D01*
Y270750D01*
D02*
G37*
G36*
X117750Y268350D02*
X114250D01*
Y273650D01*
X117750D01*
Y268350D01*
D02*
G37*
G36*
X203750Y231350D02*
X200250D01*
Y236650D01*
X203750D01*
Y231350D01*
D02*
G37*
G36*
X118250Y223850D02*
X114750D01*
Y229150D01*
X118250D01*
Y223850D01*
D02*
G37*
G36*
X203800Y222850D02*
X200300D01*
Y228150D01*
X203800D01*
Y222850D01*
D02*
G37*
G36*
X224150Y220750D02*
X218850D01*
Y224250D01*
X224150D01*
Y220750D01*
D02*
G37*
G36*
X143750Y216350D02*
X140250D01*
Y221650D01*
X143750D01*
Y216350D01*
D02*
G37*
G36*
Y208850D02*
X140250D01*
Y214150D01*
X143750D01*
Y208850D01*
D02*
G37*
G36*
X388250Y205350D02*
X384750D01*
Y210650D01*
X388250D01*
Y205350D01*
D02*
G37*
G36*
X225650Y196250D02*
X220350D01*
Y199750D01*
X225650D01*
Y196250D01*
D02*
G37*
G36*
X388250Y189350D02*
X384750D01*
Y194650D01*
X388250D01*
Y189350D01*
D02*
G37*
G36*
X221250Y178350D02*
X217750D01*
Y183650D01*
X221250D01*
Y178350D01*
D02*
G37*
G36*
X183750Y174350D02*
X180250D01*
Y179650D01*
X183750D01*
Y174350D01*
D02*
G37*
G36*
X159750Y172850D02*
X156250D01*
Y178150D01*
X159750D01*
Y172850D01*
D02*
G37*
G36*
X203150Y171750D02*
X197850D01*
Y175250D01*
X203150D01*
Y171750D01*
D02*
G37*
G36*
X388250Y168350D02*
X384750D01*
Y173650D01*
X388250D01*
Y168350D01*
D02*
G37*
G36*
X260150Y163750D02*
X254850D01*
Y167250D01*
X260150D01*
Y163750D01*
D02*
G37*
G36*
X215250Y154350D02*
X211750D01*
Y159650D01*
X215250D01*
Y154350D01*
D02*
G37*
G36*
X388250Y152850D02*
X384750D01*
Y158150D01*
X388250D01*
Y152850D01*
D02*
G37*
G36*
X173750Y149850D02*
X170250D01*
Y155150D01*
X173750D01*
Y149850D01*
D02*
G37*
G36*
X295000Y133850D02*
X291500D01*
Y139150D01*
X295000D01*
Y133850D01*
D02*
G37*
G36*
X396150Y130750D02*
X390850D01*
Y134250D01*
X396150D01*
Y130750D01*
D02*
G37*
G36*
X381650D02*
X376350D01*
Y134250D01*
X381650D01*
Y130750D01*
D02*
G37*
G36*
X367520D02*
X362220D01*
Y134250D01*
X367520D01*
Y130750D01*
D02*
G37*
G36*
X353230D02*
X347930D01*
Y134250D01*
X353230D01*
Y130750D01*
D02*
G37*
G36*
X338940D02*
X333640D01*
Y134250D01*
X338940D01*
Y130750D01*
D02*
G37*
G36*
X324650D02*
X319350D01*
Y134250D01*
X324650D01*
Y130750D01*
D02*
G37*
G36*
X295250Y124350D02*
X291750D01*
Y129650D01*
X295250D01*
Y124350D01*
D02*
G37*
%TF.MD5,5e62d809d9123683afbf76049fc7e677*%
M02*
