%TF.GenerationSoftware,Altium Limited,Altium Designer,24.10.1 (45)*%
G04 Layer_Color=16711935*
%FSLAX25Y25*%
%MOIN*%
%TF.SameCoordinates,9950C81B-CD0A-4F44-AB06-5448DEDD42A1*%
%TF.FilePolarity,Negative*%
%TF.FileFunction,Soldermask,Bot*%
%TF.Part,Single*%
G01*
G75*
%TA.AperFunction,ComponentPad*%
%ADD22C,0.07100*%
%ADD23C,0.05000*%
%ADD24R,0.05200X0.05200*%
%ADD25C,0.05200*%
%ADD29R,0.05900X0.05900*%
%ADD30C,0.05900*%
%ADD33O,0.04200X0.04900*%
%ADD34O,0.04000X0.06700*%
%ADD53O,0.05556X0.10312*%
%ADD54C,0.05950*%
%ADD55R,0.05950X0.05950*%
%ADD56C,0.06400*%
%ADD57R,0.06400X0.06400*%
%TA.AperFunction,ViaPad*%
%ADD58C,0.05800*%
D22*
X275000Y133500D02*
D03*
X265000D02*
D03*
X391000Y270000D02*
D03*
Y280000D02*
D03*
X116500Y290000D02*
D03*
Y300000D02*
D03*
X236000Y134000D02*
D03*
X226000D02*
D03*
X242500Y200000D02*
D03*
X252500D02*
D03*
X114500Y197500D02*
D03*
Y187500D02*
D03*
X389000Y236000D02*
D03*
Y246000D02*
D03*
X115000Y321500D02*
D03*
Y331500D02*
D03*
D23*
X147000Y332500D02*
D03*
Y322500D02*
D03*
X177050Y227000D02*
D03*
X167050D02*
D03*
X157050D02*
D03*
X144500Y299500D02*
D03*
Y289500D02*
D03*
X142000Y197500D02*
D03*
Y187500D02*
D03*
X363500Y246000D02*
D03*
Y236000D02*
D03*
Y280000D02*
D03*
Y270000D02*
D03*
X252500Y225500D02*
D03*
X242500D02*
D03*
X267500D02*
D03*
X277500D02*
D03*
D24*
Y275500D02*
D03*
D25*
X267500D02*
D03*
X257500D02*
D03*
X247500D02*
D03*
X237500D02*
D03*
X227500D02*
D03*
X217500D02*
D03*
X207500D02*
D03*
X197500D02*
D03*
X187500D02*
D03*
X177500D02*
D03*
X167500D02*
D03*
X157500D02*
D03*
X147500D02*
D03*
Y245500D02*
D03*
X157500D02*
D03*
X167500D02*
D03*
X177500D02*
D03*
X187500D02*
D03*
X197500D02*
D03*
X207500D02*
D03*
X217500D02*
D03*
X227500D02*
D03*
X237500D02*
D03*
X247500D02*
D03*
X257500D02*
D03*
X267500D02*
D03*
X277500D02*
D03*
D29*
X105283Y236000D02*
D03*
D30*
X336500Y165000D02*
D03*
X326500D02*
D03*
X316500D02*
D03*
X306500D02*
D03*
Y175000D02*
D03*
X316500D02*
D03*
X336500D02*
D03*
X326500D02*
D03*
D33*
X121240Y142311D02*
D03*
X138760D02*
D03*
D34*
X146437Y130500D02*
D03*
X113563D02*
D03*
D53*
X158575Y134500D02*
D03*
X207000D02*
D03*
D54*
X182787D02*
D03*
X190661D02*
D03*
X198535D02*
D03*
D55*
X167039D02*
D03*
D56*
X243910Y314000D02*
D03*
D57*
X269500D02*
D03*
D58*
X134500Y294500D02*
D03*
X185000Y189000D02*
D03*
X192000Y261500D02*
D03*
X106000Y227000D02*
D03*
X194500Y156500D02*
D03*
X222000Y189000D02*
D03*
X228500Y186500D02*
D03*
X375000Y303500D02*
D03*
X218500Y304500D02*
D03*
X188500Y292500D02*
D03*
X142500Y260500D02*
D03*
X192500Y178000D02*
D03*
X155500Y183000D02*
D03*
X131000Y171000D02*
D03*
X290500Y151000D02*
D03*
X398000Y156000D02*
D03*
X397500Y171000D02*
D03*
X364000Y192000D02*
D03*
X324000Y208500D02*
D03*
X301500Y195000D02*
D03*
X364500Y208500D02*
D03*
X317000Y217000D02*
D03*
X294000Y201500D02*
D03*
X236000Y255000D02*
D03*
X263000Y256000D02*
D03*
X223500Y212000D02*
D03*
X327000Y142500D02*
D03*
X276500Y175500D02*
D03*
%TF.MD5,a44e28d402abd73487f5aa16cc69c044*%
M02*
